%TF.GenerationSoftware,KiCad,Pcbnew,(6.0.5)*%
%TF.CreationDate,2022-11-19T18:23:49+08:00*%
%TF.ProjectId,EmoeNAP,456d6f65-4e41-4502-9e6b-696361645f70,rev?*%
%TF.SameCoordinates,Original*%
%TF.FileFunction,Copper,L4,Bot*%
%TF.FilePolarity,Positive*%
%FSLAX46Y46*%
G04 Gerber Fmt 4.6, Leading zero omitted, Abs format (unit mm)*
G04 Created by KiCad (PCBNEW (6.0.5)) date 2022-11-19 18:23:49*
%MOMM*%
%LPD*%
G01*
G04 APERTURE LIST*
G04 Aperture macros list*
%AMRoundRect*
0 Rectangle with rounded corners*
0 $1 Rounding radius*
0 $2 $3 $4 $5 $6 $7 $8 $9 X,Y pos of 4 corners*
0 Add a 4 corners polygon primitive as box body*
4,1,4,$2,$3,$4,$5,$6,$7,$8,$9,$2,$3,0*
0 Add four circle primitives for the rounded corners*
1,1,$1+$1,$2,$3*
1,1,$1+$1,$4,$5*
1,1,$1+$1,$6,$7*
1,1,$1+$1,$8,$9*
0 Add four rect primitives between the rounded corners*
20,1,$1+$1,$2,$3,$4,$5,0*
20,1,$1+$1,$4,$5,$6,$7,0*
20,1,$1+$1,$6,$7,$8,$9,0*
20,1,$1+$1,$8,$9,$2,$3,0*%
G04 Aperture macros list end*
%TA.AperFunction,ComponentPad*%
%ADD10C,3.600000*%
%TD*%
%TA.AperFunction,ComponentPad*%
%ADD11RoundRect,0.250000X-0.600000X-0.725000X0.600000X-0.725000X0.600000X0.725000X-0.600000X0.725000X0*%
%TD*%
%TA.AperFunction,ComponentPad*%
%ADD12O,1.700000X1.950000*%
%TD*%
%TA.AperFunction,ComponentPad*%
%ADD13C,1.500000*%
%TD*%
%TA.AperFunction,ComponentPad*%
%ADD14C,2.000000*%
%TD*%
%TA.AperFunction,ComponentPad*%
%ADD15C,1.440000*%
%TD*%
%TA.AperFunction,SMDPad,CuDef*%
%ADD16RoundRect,0.140000X-0.170000X0.140000X-0.170000X-0.140000X0.170000X-0.140000X0.170000X0.140000X0*%
%TD*%
%TA.AperFunction,SMDPad,CuDef*%
%ADD17RoundRect,0.250000X0.250000X0.475000X-0.250000X0.475000X-0.250000X-0.475000X0.250000X-0.475000X0*%
%TD*%
%TA.AperFunction,SMDPad,CuDef*%
%ADD18RoundRect,0.135000X-0.185000X0.135000X-0.185000X-0.135000X0.185000X-0.135000X0.185000X0.135000X0*%
%TD*%
%TA.AperFunction,SMDPad,CuDef*%
%ADD19RoundRect,0.135000X0.185000X-0.135000X0.185000X0.135000X-0.185000X0.135000X-0.185000X-0.135000X0*%
%TD*%
%TA.AperFunction,SMDPad,CuDef*%
%ADD20RoundRect,0.250000X-0.475000X0.250000X-0.475000X-0.250000X0.475000X-0.250000X0.475000X0.250000X0*%
%TD*%
%TA.AperFunction,SMDPad,CuDef*%
%ADD21RoundRect,0.062500X-0.062500X0.425000X-0.062500X-0.425000X0.062500X-0.425000X0.062500X0.425000X0*%
%TD*%
%TA.AperFunction,SMDPad,CuDef*%
%ADD22R,2.000000X1.200000*%
%TD*%
%TA.AperFunction,SMDPad,CuDef*%
%ADD23RoundRect,0.140000X0.170000X-0.140000X0.170000X0.140000X-0.170000X0.140000X-0.170000X-0.140000X0*%
%TD*%
%TA.AperFunction,SMDPad,CuDef*%
%ADD24RoundRect,0.250000X-0.787500X-0.925000X0.787500X-0.925000X0.787500X0.925000X-0.787500X0.925000X0*%
%TD*%
%TA.AperFunction,SMDPad,CuDef*%
%ADD25RoundRect,0.250000X0.475000X-0.250000X0.475000X0.250000X-0.475000X0.250000X-0.475000X-0.250000X0*%
%TD*%
%TA.AperFunction,ViaPad*%
%ADD26C,0.603000*%
%TD*%
%TA.AperFunction,ViaPad*%
%ADD27C,0.500000*%
%TD*%
%TA.AperFunction,ViaPad*%
%ADD28C,0.800000*%
%TD*%
%TA.AperFunction,Conductor*%
%ADD29C,0.250000*%
%TD*%
%TA.AperFunction,Conductor*%
%ADD30C,0.400000*%
%TD*%
%TA.AperFunction,Conductor*%
%ADD31C,0.800000*%
%TD*%
G04 APERTURE END LIST*
D10*
%TO.P,H1,1*%
%TO.N,N/C*%
X114000000Y-93000000D03*
%TD*%
D11*
%TO.P,J1,1,Pin_1*%
%TO.N,VDD*%
X162600000Y-93475000D03*
D12*
%TO.P,J1,2,Pin_2*%
%TO.N,GND*%
X165100000Y-93475000D03*
%TO.P,J1,3,Pin_3*%
%TO.N,VSS*%
X167600000Y-93475000D03*
%TD*%
D13*
%TO.P,U4,1*%
%TO.N,Net-(R6-Pad1)*%
X153950000Y-114524906D03*
%TO.P,U4,2*%
%TO.N,Net-(R20-Pad2)*%
X153950000Y-117024906D03*
%TO.P,U4,3*%
%TO.N,Net-(R4-Pad2)*%
X153950000Y-119524906D03*
D14*
%TO.P,U4,4*%
%TO.N,GND*%
X152150000Y-111324906D03*
X156150000Y-123224906D03*
%TD*%
D10*
%TO.P,H3,1*%
%TO.N,N/C*%
X114000000Y-121000000D03*
%TD*%
D15*
%TO.P,RV1,1,1*%
%TO.N,Net-(R1-Pad2)*%
X152925000Y-102724906D03*
%TO.P,RV1,2,2*%
%TO.N,Net-(C2-Pad2)*%
X155465000Y-105264906D03*
%TO.P,RV1,3,3*%
X152925000Y-107804906D03*
%TD*%
D10*
%TO.P,H4,1*%
%TO.N,N/C*%
X181000000Y-121000000D03*
%TD*%
%TO.P,H2,1*%
%TO.N,N/C*%
X181000000Y-93000000D03*
%TD*%
D16*
%TO.P,C61,1*%
%TO.N,GND*%
X160000000Y-114026203D03*
%TO.P,C61,2*%
%TO.N,VSS*%
X160000000Y-114986203D03*
%TD*%
D17*
%TO.P,C10,1*%
%TO.N,Net-(C10-Pad1)*%
X174100000Y-118950000D03*
%TO.P,C10,2*%
%TO.N,Net-(C10-Pad2)*%
X172200000Y-118950000D03*
%TD*%
D18*
%TO.P,R9,1*%
%TO.N,Net-(C3-Pad1)*%
X159800001Y-111475560D03*
%TO.P,R9,2*%
%TO.N,GND*%
X159800001Y-112495560D03*
%TD*%
%TO.P,R2,1*%
%TO.N,GND*%
X159000000Y-114001406D03*
%TO.P,R2,2*%
%TO.N,Net-(R2-Pad2)*%
X159000000Y-115021406D03*
%TD*%
D19*
%TO.P,R1,1*%
%TO.N,Net-(R1-Pad1)*%
X157100000Y-104845560D03*
%TO.P,R1,2*%
%TO.N,Net-(R1-Pad2)*%
X157100000Y-103825560D03*
%TD*%
%TO.P,R3,1*%
%TO.N,Net-(R2-Pad2)*%
X158000000Y-115021406D03*
%TO.P,R3,2*%
%TO.N,Net-(R3-Pad2)*%
X158000000Y-114001406D03*
%TD*%
D20*
%TO.P,C3,1*%
%TO.N,Net-(C3-Pad1)*%
X161900000Y-110249906D03*
%TO.P,C3,2*%
%TO.N,Net-(C2-Pad1)*%
X161900000Y-112149906D03*
%TD*%
D17*
%TO.P,C9,1*%
%TO.N,Net-(C10-Pad1)*%
X174100000Y-116900000D03*
%TO.P,C9,2*%
%TO.N,Net-(C10-Pad2)*%
X172200000Y-116900000D03*
%TD*%
%TO.P,C8,1*%
%TO.N,Net-(C10-Pad1)*%
X174100000Y-114850000D03*
%TO.P,C8,2*%
%TO.N,Net-(C10-Pad2)*%
X172200000Y-114850000D03*
%TD*%
D21*
%TO.P,U3,1*%
%TO.N,Net-(R4-Pad2)*%
X158000000Y-116812406D03*
%TO.P,U3,2,-*%
%TO.N,Net-(R2-Pad2)*%
X158500000Y-116812406D03*
%TO.P,U3,3,+*%
%TO.N,Net-(R6-Pad1)*%
X159000000Y-116812406D03*
%TO.P,U3,4,V-*%
%TO.N,VSS*%
X159500000Y-116812406D03*
%TO.P,U3,5,+*%
%TO.N,Net-(R20-Pad2)*%
X159500000Y-119587406D03*
%TO.P,U3,6,-*%
%TO.N,Net-(C10-Pad2)*%
X159000000Y-119587406D03*
%TO.P,U3,7*%
X158500000Y-119587406D03*
%TO.P,U3,8,V+*%
%TO.N,VDD*%
X158000000Y-119587406D03*
D22*
%TO.P,U3,9,EP*%
%TO.N,VSS*%
X158750000Y-118199906D03*
%TD*%
D19*
%TO.P,R10,1*%
%TO.N,Net-(C1-Pad2)*%
X159200000Y-104845561D03*
%TO.P,R10,2*%
%TO.N,GND*%
X159200000Y-103825561D03*
%TD*%
D23*
%TO.P,C48,1*%
%TO.N,VDD*%
X156150000Y-119879906D03*
%TO.P,C48,2*%
%TO.N,GND*%
X156150000Y-118919906D03*
%TD*%
D24*
%TO.P,C11,1*%
%TO.N,Net-(C11-Pad1)*%
X120525000Y-114799906D03*
%TO.P,C11,2*%
%TO.N,Net-(C11-Pad2)*%
X125450000Y-114799906D03*
%TD*%
D25*
%TO.P,C2,1*%
%TO.N,Net-(C2-Pad1)*%
X155650000Y-112099906D03*
%TO.P,C2,2*%
%TO.N,Net-(C2-Pad2)*%
X155650000Y-110199906D03*
%TD*%
D17*
%TO.P,C32,1*%
%TO.N,Net-(C32-Pad1)*%
X174088096Y-108900000D03*
%TO.P,C32,2*%
%TO.N,Net-(C32-Pad2)*%
X172188096Y-108900000D03*
%TD*%
D24*
%TO.P,C18,1*%
%TO.N,Net-(C11-Pad1)*%
X120525000Y-103099906D03*
%TO.P,C18,2*%
%TO.N,Net-(C11-Pad2)*%
X125450000Y-103099906D03*
%TD*%
D17*
%TO.P,C27,1*%
%TO.N,Net-(C13-Pad1)*%
X174088096Y-96799999D03*
%TO.P,C27,2*%
%TO.N,Net-(C13-Pad2)*%
X172188096Y-96799999D03*
%TD*%
%TO.P,C29,1*%
%TO.N,Net-(C13-Pad1)*%
X174088096Y-98849999D03*
%TO.P,C29,2*%
%TO.N,Net-(C13-Pad2)*%
X172188096Y-98849999D03*
%TD*%
%TO.P,C36,1*%
%TO.N,Net-(C32-Pad1)*%
X174088097Y-104800000D03*
%TO.P,C36,2*%
%TO.N,Net-(C32-Pad2)*%
X172188097Y-104800000D03*
%TD*%
D21*
%TO.P,U2,1*%
%TO.N,Net-(C2-Pad2)*%
X158000000Y-106798060D03*
%TO.P,U2,2,-*%
%TO.N,Net-(R1-Pad1)*%
X158500000Y-106798060D03*
%TO.P,U2,3,+*%
%TO.N,Net-(C1-Pad2)*%
X159000000Y-106798060D03*
%TO.P,U2,4,V-*%
%TO.N,VSS*%
X159500000Y-106798060D03*
%TO.P,U2,5,+*%
%TO.N,Net-(C3-Pad1)*%
X159500000Y-109573060D03*
%TO.P,U2,6,-*%
%TO.N,Net-(R6-Pad1)*%
X159000000Y-109573060D03*
%TO.P,U2,7*%
X158500000Y-109573060D03*
%TO.P,U2,8,V+*%
%TO.N,VDD*%
X158000000Y-109573060D03*
D22*
%TO.P,U2,9,EP*%
%TO.N,VSS*%
X158750000Y-108185560D03*
%TD*%
D16*
%TO.P,C47,1*%
%TO.N,VDD*%
X157750000Y-111505560D03*
%TO.P,C47,2*%
%TO.N,GND*%
X157750000Y-112465560D03*
%TD*%
D24*
%TO.P,C20,1*%
%TO.N,Net-(C11-Pad1)*%
X120525000Y-99199906D03*
%TO.P,C20,2*%
%TO.N,Net-(C11-Pad2)*%
X125450000Y-99199906D03*
%TD*%
%TO.P,C12,1*%
%TO.N,Net-(C11-Pad1)*%
X120525000Y-110899906D03*
%TO.P,C12,2*%
%TO.N,Net-(C11-Pad2)*%
X125450000Y-110899906D03*
%TD*%
D16*
%TO.P,C60,1*%
%TO.N,GND*%
X160250000Y-103855560D03*
%TO.P,C60,2*%
%TO.N,VSS*%
X160250000Y-104815560D03*
%TD*%
D17*
%TO.P,C25,1*%
%TO.N,Net-(C13-Pad1)*%
X174088096Y-94749999D03*
%TO.P,C25,2*%
%TO.N,Net-(C13-Pad2)*%
X172188096Y-94749999D03*
%TD*%
%TO.P,C35,1*%
%TO.N,Net-(C32-Pad1)*%
X174088096Y-106849999D03*
%TO.P,C35,2*%
%TO.N,Net-(C32-Pad2)*%
X172188096Y-106849999D03*
%TD*%
D18*
%TO.P,R4,1*%
%TO.N,Net-(R3-Pad2)*%
X157000000Y-114001406D03*
%TO.P,R4,2*%
%TO.N,Net-(R4-Pad2)*%
X157000000Y-115021406D03*
%TD*%
%TO.P,R6,1*%
%TO.N,Net-(R6-Pad1)*%
X158750000Y-111475561D03*
%TO.P,R6,2*%
%TO.N,Net-(C2-Pad1)*%
X158750000Y-112495561D03*
%TD*%
%TO.P,R7,1*%
%TO.N,GND*%
X158150000Y-103825561D03*
%TO.P,R7,2*%
%TO.N,Net-(R1-Pad1)*%
X158150000Y-104845561D03*
%TD*%
D24*
%TO.P,C15,1*%
%TO.N,Net-(C11-Pad1)*%
X120525000Y-106999906D03*
%TO.P,C15,2*%
%TO.N,Net-(C11-Pad2)*%
X125450000Y-106999906D03*
%TD*%
D26*
%TO.N,GND*%
X117100000Y-109000000D03*
X117100000Y-104950000D03*
X113500000Y-108400000D03*
X113500000Y-105600000D03*
%TO.N,Net-(C1-Pad1)*%
X132350000Y-105641769D03*
X145400000Y-100141769D03*
D27*
X150650000Y-99449906D03*
D26*
X140550000Y-99641769D03*
X146050000Y-112791769D03*
X138325000Y-113966769D03*
X146550000Y-107941769D03*
X133550000Y-113441769D03*
X132950000Y-100891769D03*
D27*
%TO.N,Net-(C1-Pad2)*%
X159200001Y-105635560D03*
%TO.N,Net-(C2-Pad2)*%
X155650000Y-110199906D03*
D28*
%TO.N,Net-(C11-Pad1)*%
X120525000Y-101174906D03*
X120525000Y-108974906D03*
X120525000Y-105074906D03*
X120525000Y-112874906D03*
%TO.N,Net-(C11-Pad2)*%
X125450000Y-105049906D03*
X125450000Y-101149906D03*
X125450000Y-108949906D03*
X125450000Y-112849906D03*
D26*
%TO.N,Net-(C10-Pad1)*%
X174100000Y-114800000D03*
X174100000Y-116900000D03*
X175800000Y-116900000D03*
X174900000Y-117600000D03*
X174900000Y-116100000D03*
X174100000Y-118900000D03*
%TO.N,Net-(C10-Pad2)*%
X172200000Y-116900000D03*
X158700000Y-120400000D03*
X172200000Y-114800000D03*
X172200000Y-118900000D03*
%TO.N,Net-(C13-Pad1)*%
X175900000Y-96800000D03*
X174900000Y-97600000D03*
X174100000Y-96800000D03*
X174900000Y-96000000D03*
X174100000Y-94800000D03*
X174100000Y-98900000D03*
D28*
%TO.N,Net-(C13-Pad2)*%
X168500000Y-113800000D03*
D26*
X172200000Y-96800000D03*
X172200000Y-94800000D03*
X172200000Y-98900000D03*
%TO.N,Net-(C32-Pad1)*%
X174100000Y-104800000D03*
X174900000Y-107600000D03*
X175900000Y-106900000D03*
X174900000Y-106200000D03*
X174100000Y-108900000D03*
X174100000Y-106900000D03*
%TO.N,Net-(C32-Pad2)*%
X172200000Y-104800000D03*
X172200000Y-108900000D03*
X172200000Y-106900000D03*
D28*
X162600000Y-114600000D03*
D26*
%TO.N,GND*%
X136950000Y-116241769D03*
X118800000Y-104600000D03*
X129950000Y-102241769D03*
X127200000Y-111000000D03*
D28*
X179200000Y-105200000D03*
D26*
X139950000Y-116241769D03*
X144800000Y-118291863D03*
X148950000Y-109241769D03*
X133950000Y-97241769D03*
X129950000Y-100241769D03*
X127200000Y-103000000D03*
X146000000Y-120491863D03*
D28*
X166200000Y-97400000D03*
X179200000Y-114100000D03*
D26*
X129950000Y-105241769D03*
X118800000Y-98600000D03*
X118800000Y-109400000D03*
X129950000Y-114241769D03*
D27*
X144520000Y-114681863D03*
D26*
X148950000Y-107241769D03*
X129950000Y-115241769D03*
X141845884Y-105645884D03*
D28*
X179100000Y-99500000D03*
D26*
X132950000Y-97241769D03*
X141950000Y-116241769D03*
X118000000Y-104950000D03*
D27*
X138840000Y-101161863D03*
X162140000Y-117500000D03*
D26*
X131950000Y-116241769D03*
X129950000Y-99241769D03*
X134950000Y-116241769D03*
D28*
X182300000Y-108100000D03*
D26*
X144950000Y-97241769D03*
D27*
X140020000Y-112501863D03*
D26*
X128600000Y-103000000D03*
X165855094Y-105494906D03*
X129950000Y-104241769D03*
X148950000Y-103250000D03*
X124200000Y-117200000D03*
X126400000Y-96800000D03*
X140950000Y-97241769D03*
D27*
X133350000Y-108171863D03*
D26*
X137950000Y-116241769D03*
X128400000Y-111000000D03*
X146000000Y-118291863D03*
D28*
X179200000Y-108100000D03*
D27*
X147640093Y-114531770D03*
D26*
X122800000Y-117200000D03*
X141950000Y-97241769D03*
D28*
X164000000Y-99800000D03*
D26*
X142950000Y-116241769D03*
X138950000Y-116241769D03*
X118800000Y-99800000D03*
X148950000Y-98241769D03*
X139950000Y-97241769D03*
D28*
X166800000Y-103700000D03*
D27*
X131230094Y-99161769D03*
D26*
X127200000Y-117200000D03*
D28*
X169200000Y-103700000D03*
D26*
X127200000Y-112200000D03*
X144800000Y-120491863D03*
D28*
X165100000Y-98600000D03*
D27*
X131210094Y-112491769D03*
D26*
X134200000Y-95491863D03*
X129950000Y-103241769D03*
X120000000Y-96800000D03*
X121400000Y-117200000D03*
X127200000Y-114600000D03*
X123800000Y-96800000D03*
X146950000Y-97241769D03*
X148950000Y-108241769D03*
D27*
X157130969Y-112467891D03*
D26*
X130950000Y-116241769D03*
X118800000Y-111800000D03*
X129950000Y-111241769D03*
X127200000Y-101800000D03*
D27*
X166800000Y-117600000D03*
D26*
X120000000Y-117200000D03*
D28*
X177100000Y-109500000D03*
D26*
X142950000Y-97241769D03*
D28*
X169200000Y-118800000D03*
D26*
X156150000Y-118300000D03*
D28*
X177100000Y-119500000D03*
D26*
X125600000Y-117200000D03*
X134200000Y-93291863D03*
X148950000Y-100241769D03*
X121400000Y-96800000D03*
X136950000Y-97241769D03*
D28*
X182300000Y-105200000D03*
D26*
X148950000Y-113241769D03*
X118800000Y-97400000D03*
X127200000Y-99400000D03*
X148950000Y-97241769D03*
D27*
X160643797Y-114026203D03*
D26*
X129950000Y-98241769D03*
X148950000Y-104241769D03*
X129950000Y-112241769D03*
X127200000Y-98200000D03*
D27*
X135460000Y-108001863D03*
D26*
X118800000Y-103400000D03*
D28*
X182400000Y-114100000D03*
D26*
X129950000Y-109241769D03*
X129950000Y-116241769D03*
X129950000Y-110241769D03*
X158150000Y-103250000D03*
X147950000Y-97241769D03*
D28*
X175900000Y-120500000D03*
D26*
X125000000Y-96800000D03*
X118800000Y-102200000D03*
D27*
X164900000Y-116700000D03*
X147030000Y-98501863D03*
D26*
X143950000Y-97241769D03*
X143950000Y-116241769D03*
X129950000Y-101241769D03*
X143768231Y-106231769D03*
X129950000Y-108241769D03*
X138950000Y-97241769D03*
D28*
X177100000Y-94200000D03*
D27*
X131837501Y-115144362D03*
X133850001Y-98571862D03*
D26*
X135950000Y-97241769D03*
D28*
X182300000Y-99500000D03*
X166800000Y-118800000D03*
X175900000Y-93200000D03*
D26*
X148950000Y-116241769D03*
X127200000Y-100600000D03*
X133000000Y-93291863D03*
D27*
X136324953Y-107966816D03*
D26*
X127200000Y-113400000D03*
X118800000Y-113000000D03*
D28*
X182400000Y-111100000D03*
D26*
X148950000Y-105241769D03*
D28*
X175900000Y-110500000D03*
D26*
X140950000Y-116241769D03*
D28*
X182300000Y-102400000D03*
D26*
X122600000Y-96800000D03*
X118800000Y-114200000D03*
X146950000Y-116241769D03*
X148950000Y-101241769D03*
X133950000Y-116241769D03*
X127200000Y-115800000D03*
X148950000Y-112241769D03*
X148950000Y-115241769D03*
X129950000Y-106241769D03*
D28*
X166200000Y-99800000D03*
D26*
X118800000Y-110600000D03*
X148950000Y-111241769D03*
X142854116Y-105645884D03*
X145950000Y-116241769D03*
D28*
X179100000Y-102400000D03*
D27*
X162140000Y-104970000D03*
D28*
X179200000Y-111100000D03*
D26*
X129950000Y-113241769D03*
D28*
X164000000Y-97400000D03*
D26*
X118800000Y-115400000D03*
D27*
X160460000Y-112290000D03*
D26*
X145068231Y-106231769D03*
X118800000Y-101000000D03*
X148950000Y-114241769D03*
X135950000Y-116241769D03*
X118800000Y-116600000D03*
X144950000Y-116241769D03*
X132950000Y-116241769D03*
X133000000Y-95491863D03*
X148950000Y-110241769D03*
X148950000Y-106241769D03*
X131950000Y-97241769D03*
X129950000Y-97241769D03*
D27*
X147630094Y-101141769D03*
D26*
X137950000Y-97241769D03*
X145950000Y-97241769D03*
X134950000Y-97241769D03*
D27*
%TO.N,Net-(R20-Pad2)*%
X169439999Y-107089905D03*
X159500000Y-120699906D03*
X164140000Y-107089906D03*
%TO.N,Net-(R6-Pad1)*%
X158750000Y-110685560D03*
X159150000Y-115799906D03*
%TO.N,VDD*%
X147700000Y-113571863D03*
D28*
X148100000Y-120791863D03*
D27*
X131250094Y-100121769D03*
X132800000Y-115081863D03*
D28*
X130900000Y-92991863D03*
X161200000Y-100900000D03*
D27*
X164785000Y-106065000D03*
D28*
X130900000Y-95791863D03*
D27*
X146070000Y-98511863D03*
D28*
X164200000Y-103700000D03*
D27*
X156880000Y-111220000D03*
D28*
X148100000Y-117891863D03*
X161200000Y-99800000D03*
D27*
X155430000Y-119570000D03*
D28*
%TO.N,VSS*%
X142860000Y-104721863D03*
X169000000Y-101400000D03*
X169000000Y-100000000D03*
X165400000Y-120400000D03*
X166600000Y-120400000D03*
D27*
X165740000Y-116340000D03*
X165000000Y-117900000D03*
D28*
X167600000Y-101400000D03*
X141690000Y-104721863D03*
X166200000Y-101400000D03*
D27*
X161200000Y-103870000D03*
X165700000Y-117900000D03*
X160580000Y-114990000D03*
%TO.N,Net-(RISO3-Pad2)*%
X145100000Y-107941769D03*
X133750000Y-105591769D03*
D28*
X127881426Y-109755586D03*
D27*
X140550000Y-101041769D03*
X144090000Y-111721769D03*
X138300000Y-112591769D03*
X144340000Y-101921769D03*
X134550000Y-111551769D03*
X134700000Y-101851769D03*
%TD*%
D29*
%TO.N,Net-(C1-Pad2)*%
X159200000Y-105685560D02*
X159200001Y-105635560D01*
X159000000Y-105885560D02*
X159200000Y-105685560D01*
X159200001Y-105635560D02*
X159200000Y-104845560D01*
X159000000Y-106798060D02*
X159000000Y-105885560D01*
%TO.N,Net-(C2-Pad1)*%
X156700000Y-113149906D02*
X155650000Y-112099906D01*
X160900000Y-113149906D02*
X161900000Y-112149906D01*
X158750000Y-113149906D02*
X156700000Y-113149906D01*
X158750000Y-113149906D02*
X160900000Y-113149906D01*
X158750000Y-112495561D02*
X158750000Y-113149906D01*
%TO.N,Net-(C2-Pad2)*%
X156250000Y-105849906D02*
X155900000Y-105499906D01*
X158000000Y-106798060D02*
X158000000Y-106199906D01*
D30*
X155465000Y-105264906D02*
X152925000Y-107804906D01*
X152925000Y-107804906D02*
X155270000Y-110149906D01*
D29*
X157650000Y-105849906D02*
X156250000Y-105849906D01*
X158000000Y-106199906D02*
X157650000Y-105849906D01*
%TO.N,Net-(C3-Pad1)*%
X159500000Y-111175560D02*
X159800000Y-111475560D01*
X160474346Y-111475560D02*
X161450000Y-110499906D01*
X159500000Y-109573059D02*
X159500000Y-111175560D01*
X159800001Y-111475560D02*
X160474346Y-111475560D01*
D31*
%TO.N,Net-(C11-Pad1)*%
X120525000Y-108974906D02*
X120525000Y-112874906D01*
X120525000Y-112874906D02*
X120525000Y-114799906D01*
X120525000Y-101174906D02*
X120525000Y-105074906D01*
X120525000Y-105074906D02*
X120525000Y-108974906D01*
X120525000Y-99199906D02*
X120525000Y-101174906D01*
%TO.N,Net-(C11-Pad2)*%
X125450000Y-112849906D02*
X125450000Y-114799906D01*
X125450000Y-108949906D02*
X125450000Y-112849906D01*
X125450000Y-105049906D02*
X125450000Y-108949906D01*
X125450000Y-101149906D02*
X125450000Y-105049906D01*
X125450000Y-99199906D02*
X125450000Y-101149906D01*
D30*
%TO.N,Net-(C13-Pad2)*%
X170500000Y-101700000D02*
X172000000Y-100200000D01*
X170500000Y-111800000D02*
X170500000Y-101700000D01*
X168500000Y-113800000D02*
X170500000Y-111800000D01*
%TO.N,Net-(C32-Pad2)*%
X172200000Y-111500000D02*
X172200000Y-110200000D01*
X167400000Y-116000000D02*
X169700000Y-116000000D01*
X170800000Y-114900000D02*
X170800000Y-112900000D01*
X166000000Y-114600000D02*
X167400000Y-116000000D01*
X169700000Y-116000000D02*
X170800000Y-114900000D01*
X162600000Y-114600000D02*
X166000000Y-114600000D01*
X170800000Y-112900000D02*
X172200000Y-111500000D01*
D29*
%TO.N,GND*%
X159800001Y-112495560D02*
X160254440Y-112495560D01*
D30*
X158150000Y-103825561D02*
X160220001Y-103825561D01*
X158150000Y-103825561D02*
X158150000Y-103250000D01*
D29*
X157190000Y-112460000D02*
X157130969Y-112467891D01*
D30*
X156150000Y-118919906D02*
X156150000Y-118300000D01*
D29*
X160643797Y-114026203D02*
X160676203Y-114026203D01*
X157130969Y-112467891D02*
X157195560Y-112465560D01*
X160680000Y-114030000D02*
X160676203Y-114026203D01*
X159000000Y-114001406D02*
X159975203Y-114001406D01*
X160000000Y-114026203D02*
X160643797Y-114026203D01*
X160254440Y-112495560D02*
X160460000Y-112290000D01*
X157750000Y-112465560D02*
X157195560Y-112465560D01*
%TO.N,Net-(R3-Pad2)*%
X158000000Y-114001406D02*
X157000000Y-114001406D01*
%TO.N,Net-(R20-Pad2)*%
X152550000Y-120450000D02*
X153450000Y-121350000D01*
X159500000Y-120699906D02*
X159500000Y-119587406D01*
X153450000Y-121350000D02*
X158849906Y-121350000D01*
X153950000Y-117024906D02*
X152550000Y-118424906D01*
X158849906Y-121350000D02*
X159500000Y-120699906D01*
X152550000Y-118424906D02*
X152550000Y-120450000D01*
%TO.N,Net-(R6-Pad1)*%
X159000000Y-115949906D02*
X159150000Y-115799906D01*
X159000000Y-116812406D02*
X159000000Y-115949906D01*
%TO.N,VDD*%
X158000000Y-119587406D02*
X156442500Y-119587406D01*
X157165560Y-111505560D02*
X156880000Y-111220000D01*
X158000000Y-109573059D02*
X157999999Y-111255560D01*
X157750000Y-111505560D02*
X157165560Y-111505560D01*
X155739906Y-119879906D02*
X155430000Y-119570000D01*
X156150000Y-119879906D02*
X155739906Y-119879906D01*
X157999999Y-111255560D02*
X157750000Y-111505560D01*
X156442500Y-119587406D02*
X156150000Y-119879906D01*
D31*
%TO.N,VSS*%
X142860000Y-104721863D02*
X141690000Y-104721863D01*
D29*
X159500000Y-116812406D02*
X159500000Y-116399906D01*
X160000000Y-115899906D02*
X160000000Y-114986203D01*
D31*
X167600000Y-101400000D02*
X162140000Y-101400000D01*
D29*
X159500000Y-116812406D02*
X159500000Y-117799906D01*
D31*
X145382807Y-102199056D02*
X142860000Y-104721863D01*
D29*
X159500001Y-106385560D02*
X160250000Y-105635560D01*
X159500000Y-106798060D02*
X159500001Y-106385560D01*
X159500000Y-106798060D02*
X159500000Y-107749906D01*
D31*
X150400944Y-102199056D02*
X145382807Y-102199056D01*
D29*
X160250000Y-105635560D02*
X160250000Y-104815560D01*
X160254440Y-104815560D02*
X161200000Y-103870000D01*
X159500000Y-116399906D02*
X160000000Y-115899906D01*
D31*
X156920000Y-102220000D02*
X155800000Y-101100000D01*
X151500000Y-101100000D02*
X150400944Y-102199056D01*
D29*
X160576203Y-114986203D02*
X160580000Y-114990000D01*
D31*
X169000000Y-100000000D02*
X167600000Y-101400000D01*
D29*
X160000000Y-114986203D02*
X160576203Y-114986203D01*
D31*
X155800000Y-101100000D02*
X151500000Y-101100000D01*
X162140000Y-101400000D02*
X161320000Y-102220000D01*
X161320000Y-102220000D02*
X156920000Y-102220000D01*
D30*
%TO.N,Net-(R1-Pad2)*%
X157100000Y-103825560D02*
X153925654Y-103825560D01*
X153925654Y-103825560D02*
X152925000Y-102824906D01*
D29*
%TO.N,Net-(R1-Pad1)*%
X157100000Y-104845560D02*
X158150000Y-104845560D01*
X158500000Y-105195560D02*
X158150000Y-104845560D01*
X158500000Y-106798060D02*
X158500000Y-105195560D01*
%TO.N,Net-(R2-Pad2)*%
X158500000Y-115049906D02*
X158528500Y-115021406D01*
X159000000Y-115021406D02*
X158528500Y-115021406D01*
X158528500Y-115021406D02*
X158000000Y-115021406D01*
X158500000Y-116812406D02*
X158500000Y-115049906D01*
%TO.N,Net-(R4-Pad2)*%
X156662500Y-116812406D02*
X153950000Y-119524906D01*
X158000000Y-116812406D02*
X156662500Y-116812406D01*
X158000000Y-116812406D02*
X158000000Y-116021406D01*
X158000000Y-116021406D02*
X157000000Y-115021406D01*
%TD*%
%TA.AperFunction,Conductor*%
%TO.N,Net-(C13-Pad1)*%
G36*
X174542121Y-93020002D02*
G01*
X174588614Y-93073658D01*
X174600000Y-93126000D01*
X174600000Y-95400000D01*
X176474000Y-95400000D01*
X176542121Y-95420002D01*
X176588614Y-95473658D01*
X176600000Y-95526000D01*
X176600000Y-98074000D01*
X176579998Y-98142121D01*
X176526342Y-98188614D01*
X176474000Y-98200000D01*
X174600000Y-98200000D01*
X174600000Y-100474000D01*
X174579998Y-100542121D01*
X174526342Y-100588614D01*
X174474000Y-100600000D01*
X174026000Y-100600000D01*
X173957879Y-100579998D01*
X173911386Y-100526342D01*
X173900000Y-100474000D01*
X173900000Y-93126000D01*
X173920002Y-93057879D01*
X173973658Y-93011386D01*
X174026000Y-93000000D01*
X174474000Y-93000000D01*
X174542121Y-93020002D01*
G37*
%TD.AperFunction*%
%TD*%
%TA.AperFunction,Conductor*%
%TO.N,Net-(C32-Pad2)*%
G36*
X172242121Y-103120002D02*
G01*
X172288614Y-103173658D01*
X172300000Y-103226000D01*
X172300000Y-110574000D01*
X172279998Y-110642121D01*
X172226342Y-110688614D01*
X172174000Y-110700000D01*
X171826000Y-110700000D01*
X171757879Y-110679998D01*
X171711386Y-110626342D01*
X171700000Y-110574000D01*
X171700000Y-103226000D01*
X171720002Y-103157879D01*
X171773658Y-103111386D01*
X171826000Y-103100000D01*
X172174000Y-103100000D01*
X172242121Y-103120002D01*
G37*
%TD.AperFunction*%
%TD*%
%TA.AperFunction,Conductor*%
%TO.N,Net-(C13-Pad2)*%
G36*
X172242121Y-93020002D02*
G01*
X172288614Y-93073658D01*
X172300000Y-93126000D01*
X172300000Y-100474000D01*
X172279998Y-100542121D01*
X172226342Y-100588614D01*
X172174000Y-100600000D01*
X171726000Y-100600000D01*
X171657879Y-100579998D01*
X171611386Y-100526342D01*
X171600000Y-100474000D01*
X171600000Y-93126000D01*
X171620002Y-93057879D01*
X171673658Y-93011386D01*
X171726000Y-93000000D01*
X172174000Y-93000000D01*
X172242121Y-93020002D01*
G37*
%TD.AperFunction*%
%TD*%
%TA.AperFunction,Conductor*%
%TO.N,Net-(C10-Pad2)*%
G36*
X172242121Y-113020002D02*
G01*
X172288614Y-113073658D01*
X172300000Y-113126000D01*
X172300000Y-120574000D01*
X172279998Y-120642121D01*
X172226342Y-120688614D01*
X172174000Y-120700000D01*
X171826000Y-120700000D01*
X171757879Y-120679998D01*
X171711386Y-120626342D01*
X171700000Y-120574000D01*
X171700000Y-113126000D01*
X171720002Y-113057879D01*
X171773658Y-113011386D01*
X171826000Y-113000000D01*
X172174000Y-113000000D01*
X172242121Y-113020002D01*
G37*
%TD.AperFunction*%
%TD*%
%TA.AperFunction,Conductor*%
%TO.N,Net-(C10-Pad1)*%
G36*
X174542121Y-113020002D02*
G01*
X174588614Y-113073658D01*
X174600000Y-113126000D01*
X174600000Y-115500000D01*
X176474000Y-115500000D01*
X176542121Y-115520002D01*
X176588614Y-115573658D01*
X176600000Y-115626000D01*
X176600000Y-118074000D01*
X176579998Y-118142121D01*
X176526342Y-118188614D01*
X176474000Y-118200000D01*
X174600000Y-118200000D01*
X174600000Y-120574000D01*
X174579998Y-120642121D01*
X174526342Y-120688614D01*
X174474000Y-120700000D01*
X174026000Y-120700000D01*
X173957879Y-120679998D01*
X173911386Y-120626342D01*
X173900000Y-120574000D01*
X173900000Y-113126000D01*
X173920002Y-113057879D01*
X173973658Y-113011386D01*
X174026000Y-113000000D01*
X174474000Y-113000000D01*
X174542121Y-113020002D01*
G37*
%TD.AperFunction*%
%TD*%
%TA.AperFunction,Conductor*%
%TO.N,Net-(C32-Pad1)*%
G36*
X174542121Y-103120002D02*
G01*
X174588614Y-103173658D01*
X174600000Y-103226000D01*
X174600000Y-105500000D01*
X176474000Y-105500000D01*
X176542121Y-105520002D01*
X176588614Y-105573658D01*
X176600000Y-105626000D01*
X176600000Y-108174000D01*
X176579998Y-108242121D01*
X176526342Y-108288614D01*
X176474000Y-108300000D01*
X174600000Y-108300000D01*
X174600000Y-110574000D01*
X174579998Y-110642121D01*
X174526342Y-110688614D01*
X174474000Y-110700000D01*
X174026000Y-110700000D01*
X173957879Y-110679998D01*
X173911386Y-110626342D01*
X173900000Y-110574000D01*
X173900000Y-103226000D01*
X173920002Y-103157879D01*
X173973658Y-103111386D01*
X174026000Y-103100000D01*
X174474000Y-103100000D01*
X174542121Y-103120002D01*
G37*
%TD.AperFunction*%
%TD*%
%TA.AperFunction,Conductor*%
%TO.N,GND*%
G36*
X180987496Y-89252921D02*
G01*
X180987828Y-89252987D01*
X180987829Y-89252987D01*
X181000000Y-89255408D01*
X181012171Y-89252987D01*
X181024582Y-89252987D01*
X181024582Y-89253026D01*
X181035310Y-89252235D01*
X181236423Y-89262115D01*
X181361337Y-89268251D01*
X181373633Y-89269462D01*
X181725375Y-89321639D01*
X181737481Y-89324046D01*
X182082414Y-89410447D01*
X182094246Y-89414036D01*
X182429044Y-89533829D01*
X182440468Y-89538561D01*
X182579684Y-89604405D01*
X182761912Y-89690592D01*
X182772813Y-89696419D01*
X183077805Y-89879225D01*
X183088086Y-89886095D01*
X183373691Y-90097913D01*
X183383230Y-90105740D01*
X183646716Y-90344551D01*
X183655449Y-90353284D01*
X183894260Y-90616770D01*
X183902087Y-90626309D01*
X184001246Y-90760010D01*
X184113905Y-90911914D01*
X184120775Y-90922195D01*
X184161894Y-90990798D01*
X184273420Y-91176866D01*
X184303581Y-91227187D01*
X184309408Y-91238088D01*
X184350360Y-91324675D01*
X184461439Y-91559532D01*
X184466171Y-91570956D01*
X184585964Y-91905754D01*
X184589553Y-91917584D01*
X184675954Y-92262519D01*
X184678361Y-92274625D01*
X184720635Y-92559610D01*
X184730537Y-92626362D01*
X184731749Y-92638663D01*
X184733879Y-92682020D01*
X184747765Y-92964690D01*
X184746974Y-92975418D01*
X184747013Y-92975418D01*
X184747013Y-92987829D01*
X184744592Y-93000000D01*
X184747013Y-93012171D01*
X184747013Y-93012172D01*
X184747079Y-93012504D01*
X184749500Y-93037085D01*
X184749500Y-120962915D01*
X184747079Y-120987496D01*
X184744592Y-121000000D01*
X184747013Y-121012171D01*
X184747013Y-121024582D01*
X184746974Y-121024582D01*
X184747765Y-121035310D01*
X184741445Y-121163966D01*
X184733500Y-121325698D01*
X184731749Y-121361332D01*
X184730538Y-121373633D01*
X184697248Y-121598056D01*
X184678363Y-121725366D01*
X184675954Y-121737481D01*
X184589553Y-122082414D01*
X184585964Y-122094246D01*
X184466171Y-122429044D01*
X184461439Y-122440468D01*
X184419080Y-122530030D01*
X184339995Y-122697242D01*
X184309410Y-122761908D01*
X184303583Y-122772808D01*
X184279433Y-122813101D01*
X184120775Y-123077805D01*
X184113905Y-123088086D01*
X183902087Y-123373691D01*
X183894260Y-123383230D01*
X183655454Y-123646711D01*
X183646716Y-123655449D01*
X183383230Y-123894260D01*
X183373691Y-123902087D01*
X183164636Y-124057132D01*
X183088086Y-124113905D01*
X183077805Y-124120775D01*
X182772813Y-124303581D01*
X182761912Y-124309408D01*
X182617482Y-124377718D01*
X182440468Y-124461439D01*
X182429044Y-124466171D01*
X182094246Y-124585964D01*
X182082416Y-124589553D01*
X181737481Y-124675954D01*
X181725375Y-124678361D01*
X181373633Y-124730538D01*
X181361337Y-124731749D01*
X181236423Y-124737885D01*
X181035310Y-124747765D01*
X181024582Y-124746974D01*
X181024582Y-124747013D01*
X181012171Y-124747013D01*
X181000000Y-124744592D01*
X180987829Y-124747013D01*
X180987828Y-124747013D01*
X180987496Y-124747079D01*
X180962915Y-124749500D01*
X161326000Y-124749500D01*
X161257879Y-124729498D01*
X161211386Y-124675842D01*
X161200000Y-124623500D01*
X161200000Y-120393138D01*
X164744758Y-120393138D01*
X164762035Y-120549633D01*
X164816143Y-120697490D01*
X164820380Y-120703796D01*
X164820382Y-120703799D01*
X164833265Y-120722970D01*
X164903958Y-120828172D01*
X165020410Y-120934135D01*
X165059096Y-120955140D01*
X165152099Y-121005637D01*
X165152101Y-121005638D01*
X165158776Y-121009262D01*
X165166125Y-121011190D01*
X165303719Y-121047287D01*
X165303721Y-121047287D01*
X165311069Y-121049215D01*
X165394380Y-121050524D01*
X165460898Y-121051569D01*
X165460901Y-121051569D01*
X165468495Y-121051688D01*
X165621968Y-121016538D01*
X165762625Y-120945795D01*
X165790154Y-120922283D01*
X165876574Y-120848474D01*
X165876576Y-120848471D01*
X165882348Y-120843542D01*
X165886778Y-120837377D01*
X165886781Y-120837374D01*
X165896413Y-120823969D01*
X165952407Y-120780321D01*
X166023110Y-120773874D01*
X166086075Y-120806676D01*
X166094321Y-120816500D01*
X166094761Y-120816120D01*
X166099721Y-120821866D01*
X166103958Y-120828172D01*
X166220410Y-120934135D01*
X166259096Y-120955140D01*
X166352099Y-121005637D01*
X166352101Y-121005638D01*
X166358776Y-121009262D01*
X166366125Y-121011190D01*
X166503719Y-121047287D01*
X166503721Y-121047287D01*
X166511069Y-121049215D01*
X166594380Y-121050524D01*
X166660898Y-121051569D01*
X166660901Y-121051569D01*
X166668495Y-121051688D01*
X166821968Y-121016538D01*
X166897644Y-120978477D01*
X178944822Y-120978477D01*
X178960916Y-121257596D01*
X179014741Y-121531948D01*
X179105303Y-121796457D01*
X179230925Y-122046228D01*
X179389282Y-122276639D01*
X179392169Y-122279812D01*
X179392170Y-122279813D01*
X179437546Y-122329681D01*
X179577444Y-122483427D01*
X179580725Y-122486170D01*
X179788638Y-122660013D01*
X179788643Y-122660017D01*
X179791930Y-122662765D01*
X179846891Y-122697242D01*
X180025131Y-122809052D01*
X180025135Y-122809054D01*
X180028771Y-122811335D01*
X180032681Y-122813100D01*
X180032682Y-122813101D01*
X180279671Y-122924621D01*
X180279675Y-122924623D01*
X180283583Y-122926387D01*
X180287702Y-122927607D01*
X180547539Y-123004575D01*
X180547544Y-123004576D01*
X180551652Y-123005793D01*
X180555886Y-123006441D01*
X180555891Y-123006442D01*
X180798904Y-123043628D01*
X180828018Y-123048083D01*
X180970396Y-123050319D01*
X181103275Y-123052407D01*
X181103281Y-123052407D01*
X181107566Y-123052474D01*
X181385123Y-123018886D01*
X181655554Y-122947940D01*
X181659514Y-122946300D01*
X181659519Y-122946298D01*
X181784705Y-122894444D01*
X181913855Y-122840948D01*
X182155245Y-122699891D01*
X182375258Y-122527379D01*
X182417851Y-122483427D01*
X182566840Y-122329681D01*
X182569823Y-122326603D01*
X182735340Y-122101280D01*
X182742321Y-122088422D01*
X182866695Y-121859354D01*
X182866696Y-121859352D01*
X182868745Y-121855578D01*
X182967570Y-121594044D01*
X183013962Y-121391488D01*
X183029030Y-121325698D01*
X183029031Y-121325693D01*
X183029987Y-121321518D01*
X183054840Y-121043043D01*
X183055154Y-121013125D01*
X183055265Y-121002484D01*
X183055265Y-121002483D01*
X183055291Y-121000000D01*
X183055122Y-120997520D01*
X183036567Y-120725342D01*
X183036566Y-120725336D01*
X183036275Y-120721065D01*
X183035161Y-120715683D01*
X182980450Y-120451498D01*
X182979579Y-120447292D01*
X182977849Y-120442405D01*
X182887684Y-120187787D01*
X182886253Y-120183746D01*
X182758022Y-119935304D01*
X182653368Y-119786395D01*
X182599724Y-119710067D01*
X182599721Y-119710064D01*
X182597261Y-119706563D01*
X182581785Y-119689908D01*
X182409861Y-119504896D01*
X182409860Y-119504895D01*
X182406944Y-119501757D01*
X182190591Y-119324675D01*
X181952208Y-119178594D01*
X181934738Y-119170925D01*
X181700133Y-119067940D01*
X181700129Y-119067939D01*
X181696205Y-119066216D01*
X181427319Y-118989622D01*
X181221307Y-118960302D01*
X181154778Y-118950834D01*
X181154776Y-118950834D01*
X181150526Y-118950229D01*
X181003177Y-118949457D01*
X180875233Y-118948787D01*
X180875226Y-118948787D01*
X180870947Y-118948765D01*
X180866703Y-118949324D01*
X180866699Y-118949324D01*
X180746230Y-118965184D01*
X180593757Y-118985257D01*
X180589617Y-118986390D01*
X180589615Y-118986390D01*
X180409596Y-119035638D01*
X180324083Y-119059032D01*
X180066917Y-119168722D01*
X179966234Y-119228980D01*
X179830700Y-119310095D01*
X179830696Y-119310098D01*
X179827018Y-119312299D01*
X179608823Y-119487106D01*
X179416371Y-119689908D01*
X179253223Y-119916952D01*
X179222442Y-119975087D01*
X179131014Y-120147766D01*
X179122398Y-120164038D01*
X179120926Y-120168061D01*
X179120924Y-120168065D01*
X179032240Y-120410406D01*
X179026317Y-120426592D01*
X178966757Y-120699757D01*
X178966421Y-120704026D01*
X178946659Y-120955140D01*
X178944822Y-120978477D01*
X166897644Y-120978477D01*
X166962625Y-120945795D01*
X166990154Y-120922283D01*
X167076574Y-120848474D01*
X167076576Y-120848471D01*
X167082348Y-120843542D01*
X167174224Y-120715683D01*
X167177246Y-120708167D01*
X167206083Y-120636431D01*
X167232950Y-120569598D01*
X167249771Y-120451405D01*
X167254553Y-120417807D01*
X167254553Y-120417804D01*
X167255134Y-120413723D01*
X167255202Y-120407254D01*
X167255235Y-120404134D01*
X167255235Y-120404128D01*
X167255278Y-120400000D01*
X167236363Y-120243694D01*
X167213679Y-120183662D01*
X167183394Y-120103514D01*
X167183393Y-120103511D01*
X167180710Y-120096412D01*
X167091531Y-119966657D01*
X167039996Y-119920741D01*
X166979648Y-119866972D01*
X166979645Y-119866970D01*
X166973976Y-119861919D01*
X166834831Y-119788245D01*
X166818122Y-119784048D01*
X166689498Y-119751740D01*
X166689496Y-119751740D01*
X166682128Y-119749889D01*
X166674530Y-119749849D01*
X166674528Y-119749849D01*
X166607319Y-119749497D01*
X166524684Y-119749065D01*
X166517305Y-119750837D01*
X166517301Y-119750837D01*
X166378967Y-119784048D01*
X166378963Y-119784049D01*
X166371588Y-119785820D01*
X166231679Y-119858032D01*
X166225957Y-119863024D01*
X166225955Y-119863025D01*
X166118759Y-119956538D01*
X166118756Y-119956541D01*
X166113034Y-119961533D01*
X166108669Y-119967743D01*
X166108666Y-119967747D01*
X166103508Y-119975087D01*
X166047973Y-120019319D01*
X165977341Y-120026504D01*
X165914037Y-119994362D01*
X165896585Y-119974008D01*
X165895841Y-119972925D01*
X165895832Y-119972914D01*
X165891531Y-119966657D01*
X165839996Y-119920741D01*
X165779648Y-119866972D01*
X165779645Y-119866970D01*
X165773976Y-119861919D01*
X165634831Y-119788245D01*
X165618122Y-119784048D01*
X165489498Y-119751740D01*
X165489496Y-119751740D01*
X165482128Y-119749889D01*
X165474530Y-119749849D01*
X165474528Y-119749849D01*
X165407319Y-119749497D01*
X165324684Y-119749065D01*
X165317305Y-119750837D01*
X165317301Y-119750837D01*
X165178967Y-119784048D01*
X165178963Y-119784049D01*
X165171588Y-119785820D01*
X165031679Y-119858032D01*
X165025957Y-119863024D01*
X165025955Y-119863025D01*
X164918759Y-119956538D01*
X164918756Y-119956541D01*
X164913034Y-119961533D01*
X164889961Y-119994362D01*
X164831791Y-120077130D01*
X164822501Y-120090348D01*
X164765309Y-120237039D01*
X164762377Y-120259308D01*
X164747941Y-120368963D01*
X164744758Y-120393138D01*
X161200000Y-120393138D01*
X161200000Y-117893823D01*
X164494391Y-117893823D01*
X164495555Y-117902725D01*
X164495555Y-117902728D01*
X164496463Y-117909670D01*
X164512980Y-118035979D01*
X164516597Y-118044199D01*
X164561383Y-118145982D01*
X164570720Y-118167203D01*
X164576497Y-118174076D01*
X164576498Y-118174077D01*
X164640364Y-118250055D01*
X164662970Y-118276948D01*
X164670447Y-118281925D01*
X164750503Y-118335215D01*
X164782313Y-118356390D01*
X164919157Y-118399142D01*
X164928129Y-118399306D01*
X164928132Y-118399307D01*
X164993463Y-118400504D01*
X165062499Y-118401770D01*
X165071533Y-118399307D01*
X165192158Y-118366421D01*
X165192160Y-118366420D01*
X165200817Y-118364060D01*
X165208464Y-118359365D01*
X165208468Y-118359363D01*
X165284572Y-118312635D01*
X165353089Y-118294037D01*
X165420319Y-118315123D01*
X165450503Y-118335215D01*
X165482313Y-118356390D01*
X165619157Y-118399142D01*
X165628129Y-118399306D01*
X165628132Y-118399307D01*
X165693463Y-118400504D01*
X165762499Y-118401770D01*
X165771533Y-118399307D01*
X165892158Y-118366421D01*
X165892160Y-118366420D01*
X165900817Y-118364060D01*
X166022991Y-118289045D01*
X166119200Y-118182754D01*
X166181710Y-118053733D01*
X166205496Y-117912354D01*
X166205647Y-117900000D01*
X166185323Y-117758082D01*
X166168839Y-117721826D01*
X166129700Y-117635746D01*
X166125984Y-117627572D01*
X166093001Y-117589293D01*
X166038260Y-117525763D01*
X166038257Y-117525760D01*
X166032400Y-117518963D01*
X165912095Y-117440985D01*
X165774739Y-117399907D01*
X165765763Y-117399852D01*
X165765762Y-117399852D01*
X165705555Y-117399484D01*
X165631376Y-117399031D01*
X165493529Y-117438428D01*
X165485942Y-117443215D01*
X165485940Y-117443216D01*
X165461685Y-117458520D01*
X165417066Y-117486672D01*
X165348783Y-117506106D01*
X165281302Y-117485843D01*
X165212095Y-117440985D01*
X165074739Y-117399907D01*
X165065763Y-117399852D01*
X165065762Y-117399852D01*
X165005555Y-117399484D01*
X164931376Y-117399031D01*
X164793529Y-117438428D01*
X164672280Y-117514930D01*
X164577377Y-117622388D01*
X164516447Y-117752163D01*
X164494391Y-117893823D01*
X161200000Y-117893823D01*
X161200000Y-116333823D01*
X165234391Y-116333823D01*
X165235555Y-116342725D01*
X165235555Y-116342728D01*
X165238936Y-116368579D01*
X165252980Y-116475979D01*
X165310720Y-116607203D01*
X165316497Y-116614076D01*
X165316498Y-116614077D01*
X165323792Y-116622754D01*
X165402970Y-116716948D01*
X165522313Y-116796390D01*
X165659157Y-116839142D01*
X165668129Y-116839306D01*
X165668132Y-116839307D01*
X165733463Y-116840504D01*
X165802499Y-116841770D01*
X165811533Y-116839307D01*
X165932158Y-116806421D01*
X165932160Y-116806420D01*
X165940817Y-116804060D01*
X166062991Y-116729045D01*
X166159200Y-116622754D01*
X166214812Y-116507970D01*
X166217795Y-116501814D01*
X166217795Y-116501813D01*
X166221710Y-116493733D01*
X166245496Y-116352354D01*
X166245647Y-116340000D01*
X166235957Y-116272337D01*
X166226596Y-116206968D01*
X166226595Y-116206965D01*
X166225323Y-116198082D01*
X166165984Y-116067572D01*
X166121524Y-116015974D01*
X166078260Y-115965763D01*
X166078257Y-115965760D01*
X166072400Y-115958963D01*
X165952095Y-115880985D01*
X165814739Y-115839907D01*
X165805763Y-115839852D01*
X165805762Y-115839852D01*
X165745555Y-115839484D01*
X165671376Y-115839031D01*
X165533529Y-115878428D01*
X165412280Y-115954930D01*
X165317377Y-116062388D01*
X165256447Y-116192163D01*
X165251271Y-116225406D01*
X165235810Y-116324710D01*
X165234391Y-116333823D01*
X161200000Y-116333823D01*
X161200000Y-115026000D01*
X161220002Y-114957879D01*
X161273658Y-114911386D01*
X161326000Y-114900000D01*
X161950693Y-114900000D01*
X162018814Y-114920002D01*
X162055275Y-114955724D01*
X162099724Y-115021872D01*
X162099727Y-115021875D01*
X162103958Y-115028172D01*
X162156175Y-115075686D01*
X162189896Y-115106369D01*
X162220410Y-115134135D01*
X162280369Y-115166690D01*
X162352099Y-115205637D01*
X162352101Y-115205638D01*
X162358776Y-115209262D01*
X162366125Y-115211190D01*
X162503719Y-115247287D01*
X162503721Y-115247287D01*
X162511069Y-115249215D01*
X162594380Y-115250524D01*
X162660898Y-115251569D01*
X162660901Y-115251569D01*
X162668495Y-115251688D01*
X162821968Y-115216538D01*
X162962625Y-115145795D01*
X162968397Y-115140866D01*
X162968399Y-115140864D01*
X163023015Y-115094217D01*
X163038855Y-115080689D01*
X163103644Y-115051658D01*
X163120685Y-115050500D01*
X165761207Y-115050500D01*
X165829328Y-115070502D01*
X165850302Y-115087405D01*
X167057247Y-116294350D01*
X167067101Y-116305439D01*
X167081433Y-116323618D01*
X167088128Y-116332110D01*
X167095876Y-116337465D01*
X167095878Y-116337467D01*
X167136400Y-116365474D01*
X167139619Y-116367774D01*
X167152605Y-116377365D01*
X167186817Y-116402634D01*
X167193631Y-116405027D01*
X167199569Y-116409131D01*
X167208546Y-116411970D01*
X167208548Y-116411971D01*
X167242551Y-116422724D01*
X167251391Y-116425520D01*
X167255517Y-116426825D01*
X167259266Y-116428076D01*
X167314631Y-116447519D01*
X167321818Y-116447801D01*
X167321880Y-116447813D01*
X167328730Y-116449980D01*
X167335337Y-116450500D01*
X167388016Y-116450500D01*
X167392962Y-116450597D01*
X167449994Y-116452838D01*
X167457100Y-116450954D01*
X167465347Y-116450500D01*
X169665780Y-116450500D01*
X169680589Y-116451373D01*
X169714310Y-116455364D01*
X169723574Y-116453672D01*
X169723575Y-116453672D01*
X169772001Y-116444828D01*
X169775904Y-116444178D01*
X169824645Y-116436850D01*
X169824646Y-116436850D01*
X169833962Y-116435449D01*
X169840475Y-116432321D01*
X169847573Y-116431025D01*
X169899647Y-116403975D01*
X169903137Y-116402232D01*
X169956079Y-116376809D01*
X169961365Y-116371923D01*
X169961413Y-116371890D01*
X169967788Y-116368579D01*
X169972828Y-116364275D01*
X170010055Y-116327048D01*
X170013621Y-116323618D01*
X170048641Y-116291246D01*
X170055556Y-116284854D01*
X170059249Y-116278495D01*
X170064766Y-116272337D01*
X171094350Y-115242753D01*
X171105439Y-115232899D01*
X171124710Y-115217706D01*
X171124711Y-115217705D01*
X171132110Y-115211872D01*
X171137465Y-115204124D01*
X171137467Y-115204122D01*
X171165474Y-115163600D01*
X171167774Y-115160381D01*
X171197038Y-115120760D01*
X171197039Y-115120759D01*
X171202634Y-115113183D01*
X171205027Y-115106369D01*
X171209131Y-115100431D01*
X171209505Y-115099247D01*
X171256702Y-115050825D01*
X171325877Y-115034845D01*
X171392710Y-115058801D01*
X171435982Y-115115087D01*
X171444500Y-115160629D01*
X171444500Y-120574000D01*
X171450339Y-120628309D01*
X171451053Y-120631593D01*
X171451054Y-120631597D01*
X171457613Y-120661749D01*
X171461725Y-120680651D01*
X171462163Y-120682247D01*
X171462167Y-120682264D01*
X171463035Y-120685426D01*
X171468961Y-120707028D01*
X171472861Y-120713878D01*
X171472862Y-120713879D01*
X171478039Y-120722970D01*
X171518292Y-120793659D01*
X171525900Y-120802439D01*
X171561516Y-120843542D01*
X171564785Y-120847315D01*
X171597561Y-120878941D01*
X171633703Y-120897847D01*
X171680417Y-120922283D01*
X171680422Y-120922285D01*
X171685897Y-120925149D01*
X171691833Y-120926892D01*
X171749695Y-120943882D01*
X171749699Y-120943883D01*
X171754018Y-120945151D01*
X171758466Y-120945791D01*
X171758473Y-120945792D01*
X171821552Y-120954861D01*
X171821559Y-120954861D01*
X171826000Y-120955500D01*
X172174000Y-120955500D01*
X172228309Y-120949661D01*
X172231591Y-120948947D01*
X172231610Y-120948944D01*
X172243369Y-120946386D01*
X172296930Y-120946386D01*
X172300000Y-120947054D01*
X172300000Y-120950000D01*
X173900000Y-120950000D01*
X173900000Y-120946782D01*
X173953110Y-120944885D01*
X173954018Y-120945151D01*
X173958459Y-120945790D01*
X173958466Y-120945791D01*
X174021552Y-120954861D01*
X174021559Y-120954861D01*
X174026000Y-120955500D01*
X174474000Y-120955500D01*
X174528309Y-120949661D01*
X174531593Y-120948947D01*
X174531597Y-120948946D01*
X174579019Y-120938630D01*
X174580651Y-120938275D01*
X174582247Y-120937837D01*
X174582264Y-120937833D01*
X174599428Y-120933124D01*
X174599429Y-120933124D01*
X174607028Y-120931039D01*
X174660058Y-120900842D01*
X174688280Y-120884771D01*
X174693659Y-120881708D01*
X174716726Y-120861720D01*
X174745192Y-120837055D01*
X174745197Y-120837050D01*
X174747315Y-120835215D01*
X174778941Y-120802439D01*
X174820511Y-120722970D01*
X174822283Y-120719583D01*
X174822285Y-120719578D01*
X174825149Y-120714103D01*
X174826892Y-120708167D01*
X174843882Y-120650305D01*
X174843883Y-120650301D01*
X174845151Y-120645982D01*
X174845792Y-120641527D01*
X174854861Y-120578448D01*
X174854861Y-120578441D01*
X174855500Y-120574000D01*
X174855500Y-118581500D01*
X174875502Y-118513379D01*
X174929158Y-118466886D01*
X174981500Y-118455500D01*
X176474000Y-118455500D01*
X176528309Y-118449661D01*
X176531593Y-118448947D01*
X176531597Y-118448946D01*
X176579019Y-118438630D01*
X176580651Y-118438275D01*
X176582247Y-118437837D01*
X176582264Y-118437833D01*
X176599428Y-118433124D01*
X176599429Y-118433124D01*
X176607028Y-118431039D01*
X176624855Y-118420888D01*
X176688280Y-118384771D01*
X176693659Y-118381708D01*
X176719342Y-118359454D01*
X176745192Y-118337055D01*
X176745197Y-118337050D01*
X176747315Y-118335215D01*
X176778941Y-118302439D01*
X176815094Y-118233325D01*
X176822283Y-118219583D01*
X176822285Y-118219578D01*
X176825149Y-118214103D01*
X176828793Y-118201694D01*
X176843882Y-118150305D01*
X176843883Y-118150301D01*
X176845151Y-118145982D01*
X176845792Y-118141527D01*
X176854861Y-118078448D01*
X176854861Y-118078441D01*
X176855500Y-118074000D01*
X176855500Y-115626000D01*
X176849661Y-115571691D01*
X176838275Y-115519349D01*
X176831039Y-115492972D01*
X176823175Y-115479161D01*
X176784771Y-115411720D01*
X176781708Y-115406341D01*
X176761797Y-115383362D01*
X176737055Y-115354808D01*
X176737050Y-115354803D01*
X176735215Y-115352685D01*
X176702439Y-115321059D01*
X176666297Y-115302153D01*
X176619583Y-115277717D01*
X176619578Y-115277715D01*
X176614103Y-115274851D01*
X176593206Y-115268715D01*
X176550305Y-115256118D01*
X176550301Y-115256117D01*
X176545982Y-115254849D01*
X176541534Y-115254209D01*
X176541527Y-115254208D01*
X176478448Y-115245139D01*
X176478441Y-115245139D01*
X176474000Y-115244500D01*
X174981500Y-115244500D01*
X174913379Y-115224498D01*
X174866886Y-115170842D01*
X174855500Y-115118500D01*
X174855500Y-113126000D01*
X174849661Y-113071691D01*
X174838275Y-113019349D01*
X174831039Y-112992972D01*
X174781708Y-112906341D01*
X174745700Y-112864785D01*
X174737055Y-112854808D01*
X174737050Y-112854803D01*
X174735215Y-112852685D01*
X174702439Y-112821059D01*
X174666297Y-112802153D01*
X174619583Y-112777717D01*
X174619578Y-112777715D01*
X174614103Y-112774851D01*
X174600000Y-112770710D01*
X174550305Y-112756118D01*
X174550301Y-112756117D01*
X174545982Y-112754849D01*
X174541534Y-112754209D01*
X174541527Y-112754208D01*
X174478448Y-112745139D01*
X174478441Y-112745139D01*
X174474000Y-112744500D01*
X174026000Y-112744500D01*
X173957879Y-112724498D01*
X173911386Y-112670842D01*
X173900000Y-112618500D01*
X173900000Y-111081500D01*
X173920002Y-111013379D01*
X173973658Y-110966886D01*
X174026000Y-110955500D01*
X174474000Y-110955500D01*
X174528309Y-110949661D01*
X174531593Y-110948947D01*
X174531597Y-110948946D01*
X174579019Y-110938630D01*
X174580651Y-110938275D01*
X174582247Y-110937837D01*
X174582264Y-110937833D01*
X174599428Y-110933124D01*
X174599429Y-110933124D01*
X174607028Y-110931039D01*
X174620001Y-110923652D01*
X174688280Y-110884771D01*
X174693659Y-110881708D01*
X174747315Y-110835215D01*
X174778941Y-110802439D01*
X174801971Y-110758412D01*
X174822283Y-110719583D01*
X174822285Y-110719578D01*
X174825149Y-110714103D01*
X174831425Y-110692730D01*
X174843882Y-110650305D01*
X174843883Y-110650301D01*
X174845151Y-110645982D01*
X174845792Y-110641527D01*
X174854861Y-110578448D01*
X174854861Y-110578441D01*
X174855500Y-110574000D01*
X174855500Y-108681500D01*
X174875502Y-108613379D01*
X174929158Y-108566886D01*
X174981500Y-108555500D01*
X176474000Y-108555500D01*
X176528309Y-108549661D01*
X176531593Y-108548947D01*
X176531597Y-108548946D01*
X176579019Y-108538630D01*
X176580651Y-108538275D01*
X176582247Y-108537837D01*
X176582264Y-108537833D01*
X176599428Y-108533124D01*
X176599429Y-108533124D01*
X176607028Y-108531039D01*
X176693659Y-108481708D01*
X176747315Y-108435215D01*
X176778941Y-108402439D01*
X176797847Y-108366297D01*
X176822283Y-108319583D01*
X176822285Y-108319578D01*
X176825149Y-108314103D01*
X176845151Y-108245982D01*
X176855500Y-108174000D01*
X176855500Y-105626000D01*
X176849661Y-105571691D01*
X176848532Y-105566498D01*
X176838630Y-105520981D01*
X176838275Y-105519349D01*
X176837440Y-105516303D01*
X176833124Y-105500572D01*
X176833124Y-105500571D01*
X176831039Y-105492972D01*
X176820739Y-105474883D01*
X176784771Y-105411720D01*
X176781708Y-105406341D01*
X176754009Y-105374374D01*
X176737055Y-105354808D01*
X176737050Y-105354803D01*
X176735215Y-105352685D01*
X176702439Y-105321059D01*
X176647145Y-105292135D01*
X176619583Y-105277717D01*
X176619578Y-105277715D01*
X176614103Y-105274851D01*
X176589606Y-105267658D01*
X176550305Y-105256118D01*
X176550301Y-105256117D01*
X176545982Y-105254849D01*
X176541534Y-105254209D01*
X176541527Y-105254208D01*
X176478448Y-105245139D01*
X176478441Y-105245139D01*
X176474000Y-105244500D01*
X174981500Y-105244500D01*
X174913379Y-105224498D01*
X174866886Y-105170842D01*
X174855500Y-105118500D01*
X174855500Y-103226000D01*
X174849661Y-103171691D01*
X174848635Y-103166972D01*
X174838630Y-103120981D01*
X174838275Y-103119349D01*
X174831039Y-103092972D01*
X174826967Y-103085820D01*
X174784771Y-103011720D01*
X174781708Y-103006341D01*
X174745700Y-102964785D01*
X174737055Y-102954808D01*
X174737050Y-102954803D01*
X174735215Y-102952685D01*
X174702439Y-102921059D01*
X174666297Y-102902153D01*
X174619583Y-102877717D01*
X174619578Y-102877715D01*
X174614103Y-102874851D01*
X174596077Y-102869558D01*
X174550305Y-102856118D01*
X174550301Y-102856117D01*
X174545982Y-102854849D01*
X174541534Y-102854209D01*
X174541527Y-102854208D01*
X174478448Y-102845139D01*
X174478441Y-102845139D01*
X174474000Y-102844500D01*
X174026000Y-102844500D01*
X173957879Y-102824498D01*
X173911386Y-102770842D01*
X173900000Y-102718500D01*
X173900000Y-100981500D01*
X173920002Y-100913379D01*
X173973658Y-100866886D01*
X174026000Y-100855500D01*
X174474000Y-100855500D01*
X174528309Y-100849661D01*
X174531593Y-100848947D01*
X174531597Y-100848946D01*
X174579019Y-100838630D01*
X174580651Y-100838275D01*
X174582247Y-100837837D01*
X174582264Y-100837833D01*
X174599428Y-100833124D01*
X174599429Y-100833124D01*
X174607028Y-100831039D01*
X174636902Y-100814028D01*
X174688280Y-100784771D01*
X174693659Y-100781708D01*
X174727766Y-100752154D01*
X174745192Y-100737055D01*
X174745197Y-100737050D01*
X174747315Y-100735215D01*
X174778941Y-100702439D01*
X174814662Y-100634151D01*
X174822283Y-100619583D01*
X174822285Y-100619578D01*
X174825149Y-100614103D01*
X174834599Y-100581919D01*
X174843882Y-100550305D01*
X174843883Y-100550301D01*
X174845151Y-100545982D01*
X174845940Y-100540496D01*
X174854861Y-100478448D01*
X174854861Y-100478441D01*
X174855500Y-100474000D01*
X174855500Y-98581500D01*
X174875502Y-98513379D01*
X174929158Y-98466886D01*
X174981500Y-98455500D01*
X176474000Y-98455500D01*
X176528309Y-98449661D01*
X176531593Y-98448947D01*
X176531597Y-98448946D01*
X176579019Y-98438630D01*
X176580651Y-98438275D01*
X176582247Y-98437837D01*
X176582264Y-98437833D01*
X176599428Y-98433124D01*
X176599429Y-98433124D01*
X176607028Y-98431039D01*
X176693659Y-98381708D01*
X176747315Y-98335215D01*
X176778941Y-98302439D01*
X176818130Y-98227522D01*
X176822283Y-98219583D01*
X176822285Y-98219578D01*
X176825149Y-98214103D01*
X176845151Y-98145982D01*
X176845792Y-98141527D01*
X176854861Y-98078448D01*
X176854861Y-98078441D01*
X176855500Y-98074000D01*
X176855500Y-95526000D01*
X176849661Y-95471691D01*
X176838275Y-95419349D01*
X176831039Y-95392972D01*
X176814986Y-95364780D01*
X176784771Y-95311720D01*
X176781708Y-95306341D01*
X176735215Y-95252685D01*
X176702439Y-95221059D01*
X176666297Y-95202153D01*
X176619583Y-95177717D01*
X176619578Y-95177715D01*
X176614103Y-95174851D01*
X176608167Y-95173108D01*
X176550305Y-95156118D01*
X176550301Y-95156117D01*
X176545982Y-95154849D01*
X176541534Y-95154209D01*
X176541527Y-95154208D01*
X176478448Y-95145139D01*
X176478441Y-95145139D01*
X176474000Y-95144500D01*
X174981500Y-95144500D01*
X174913379Y-95124498D01*
X174866886Y-95070842D01*
X174855500Y-95018500D01*
X174855500Y-93126000D01*
X174849661Y-93071691D01*
X174843966Y-93045508D01*
X174838630Y-93020981D01*
X174838275Y-93019349D01*
X174836398Y-93012504D01*
X174833124Y-93000572D01*
X174833124Y-93000571D01*
X174831039Y-92992972D01*
X174822785Y-92978477D01*
X178944822Y-92978477D01*
X178960916Y-93257596D01*
X179014741Y-93531948D01*
X179016127Y-93535996D01*
X179074976Y-93707878D01*
X179105303Y-93796457D01*
X179111635Y-93809046D01*
X179215660Y-94015876D01*
X179230925Y-94046228D01*
X179389282Y-94276639D01*
X179392169Y-94279812D01*
X179392170Y-94279813D01*
X179437546Y-94329681D01*
X179577444Y-94483427D01*
X179580725Y-94486170D01*
X179788638Y-94660013D01*
X179788643Y-94660017D01*
X179791930Y-94662765D01*
X179842845Y-94694704D01*
X180025131Y-94809052D01*
X180025135Y-94809054D01*
X180028771Y-94811335D01*
X180032681Y-94813100D01*
X180032682Y-94813101D01*
X180279671Y-94924621D01*
X180279675Y-94924623D01*
X180283583Y-94926387D01*
X180287702Y-94927607D01*
X180547539Y-95004575D01*
X180547544Y-95004576D01*
X180551652Y-95005793D01*
X180555886Y-95006441D01*
X180555891Y-95006442D01*
X180798904Y-95043628D01*
X180828018Y-95048083D01*
X180970396Y-95050319D01*
X181103275Y-95052407D01*
X181103281Y-95052407D01*
X181107566Y-95052474D01*
X181385123Y-95018886D01*
X181655554Y-94947940D01*
X181659514Y-94946300D01*
X181659519Y-94946298D01*
X181784704Y-94894444D01*
X181913855Y-94840948D01*
X182148371Y-94703908D01*
X182151542Y-94702055D01*
X182151543Y-94702054D01*
X182155245Y-94699891D01*
X182375258Y-94527379D01*
X182398870Y-94503014D01*
X182566840Y-94329681D01*
X182569823Y-94326603D01*
X182735340Y-94101280D01*
X182737386Y-94097512D01*
X182866695Y-93859354D01*
X182866696Y-93859352D01*
X182868745Y-93855578D01*
X182967570Y-93594044D01*
X183029987Y-93321518D01*
X183054840Y-93043043D01*
X183054903Y-93037085D01*
X183055265Y-93002484D01*
X183055265Y-93002483D01*
X183055291Y-93000000D01*
X183054330Y-92985897D01*
X183036567Y-92725342D01*
X183036566Y-92725336D01*
X183036275Y-92721065D01*
X183033164Y-92706040D01*
X182980450Y-92451498D01*
X182979579Y-92447292D01*
X182973734Y-92430784D01*
X182887684Y-92187787D01*
X182886253Y-92183746D01*
X182758022Y-91935304D01*
X182597261Y-91706563D01*
X182581785Y-91689908D01*
X182409861Y-91504896D01*
X182409860Y-91504895D01*
X182406944Y-91501757D01*
X182190591Y-91324675D01*
X181952208Y-91178594D01*
X181934738Y-91170925D01*
X181700133Y-91067940D01*
X181700129Y-91067939D01*
X181696205Y-91066216D01*
X181427319Y-90989622D01*
X181221307Y-90960302D01*
X181154778Y-90950834D01*
X181154776Y-90950834D01*
X181150526Y-90950229D01*
X181003177Y-90949457D01*
X180875233Y-90948787D01*
X180875226Y-90948787D01*
X180870947Y-90948765D01*
X180866703Y-90949324D01*
X180866699Y-90949324D01*
X180745358Y-90965299D01*
X180593757Y-90985257D01*
X180589617Y-90986390D01*
X180589615Y-90986390D01*
X180328228Y-91057898D01*
X180324083Y-91059032D01*
X180066917Y-91168722D01*
X179951009Y-91238092D01*
X179830700Y-91310095D01*
X179830696Y-91310098D01*
X179827018Y-91312299D01*
X179608823Y-91487106D01*
X179416371Y-91689908D01*
X179253223Y-91916952D01*
X179122398Y-92164038D01*
X179120926Y-92168061D01*
X179120924Y-92168065D01*
X179038810Y-92392454D01*
X179026317Y-92426592D01*
X178966757Y-92699757D01*
X178966421Y-92704026D01*
X178948313Y-92934124D01*
X178944822Y-92978477D01*
X174822785Y-92978477D01*
X174781708Y-92906341D01*
X174745700Y-92864785D01*
X174737055Y-92854808D01*
X174737050Y-92854803D01*
X174735215Y-92852685D01*
X174702439Y-92821059D01*
X174666297Y-92802153D01*
X174619583Y-92777717D01*
X174619578Y-92777715D01*
X174614103Y-92774851D01*
X174600000Y-92770710D01*
X174550305Y-92756118D01*
X174550301Y-92756117D01*
X174545982Y-92754849D01*
X174541534Y-92754209D01*
X174541527Y-92754208D01*
X174478448Y-92745139D01*
X174478441Y-92745139D01*
X174474000Y-92744500D01*
X174026000Y-92744500D01*
X174007193Y-92746522D01*
X173937324Y-92733916D01*
X173911211Y-92716468D01*
X173900000Y-92706753D01*
X173900000Y-92700000D01*
X172300000Y-92700000D01*
X172300000Y-92706353D01*
X172243088Y-92742929D01*
X172189662Y-92746751D01*
X172178455Y-92745140D01*
X172178448Y-92745140D01*
X172174000Y-92744500D01*
X171726000Y-92744500D01*
X171671691Y-92750339D01*
X171668407Y-92751053D01*
X171668403Y-92751054D01*
X171636050Y-92758092D01*
X171619349Y-92761725D01*
X171617753Y-92762163D01*
X171617736Y-92762167D01*
X171600572Y-92766876D01*
X171592972Y-92768961D01*
X171506341Y-92818292D01*
X171486416Y-92835557D01*
X171479851Y-92841246D01*
X171452685Y-92864785D01*
X171421059Y-92897561D01*
X171413653Y-92911720D01*
X171377717Y-92980417D01*
X171377715Y-92980422D01*
X171374851Y-92985897D01*
X171373108Y-92991833D01*
X171357348Y-93045508D01*
X171354849Y-93054018D01*
X171354209Y-93058466D01*
X171354208Y-93058473D01*
X171352781Y-93068403D01*
X171344500Y-93126000D01*
X171344500Y-100166207D01*
X171324498Y-100234328D01*
X171307595Y-100255302D01*
X170205650Y-101357247D01*
X170194561Y-101367101D01*
X170175291Y-101382293D01*
X170175289Y-101382295D01*
X170167890Y-101388128D01*
X170162535Y-101395875D01*
X170162534Y-101395877D01*
X170134545Y-101436375D01*
X170132250Y-101439587D01*
X170097366Y-101486816D01*
X170094973Y-101493632D01*
X170090869Y-101499569D01*
X170075079Y-101549498D01*
X170073182Y-101555495D01*
X170071929Y-101559250D01*
X170068330Y-101569500D01*
X170052481Y-101614631D01*
X170052199Y-101621819D01*
X170052188Y-101621878D01*
X170050020Y-101628730D01*
X170049500Y-101635337D01*
X170049500Y-101688016D01*
X170049403Y-101692962D01*
X170047162Y-101749994D01*
X170049046Y-101757100D01*
X170049500Y-101765347D01*
X170049500Y-106691202D01*
X170029498Y-106759323D01*
X169975842Y-106805816D01*
X169905568Y-106815920D01*
X169840988Y-106786426D01*
X169828047Y-106773450D01*
X169778259Y-106715668D01*
X169778256Y-106715665D01*
X169772399Y-106708868D01*
X169652094Y-106630890D01*
X169514738Y-106589812D01*
X169505762Y-106589757D01*
X169505761Y-106589757D01*
X169445554Y-106589389D01*
X169371375Y-106588936D01*
X169233528Y-106628333D01*
X169112279Y-106704835D01*
X169017376Y-106812293D01*
X168956446Y-106942068D01*
X168955065Y-106950940D01*
X168935944Y-107073748D01*
X168934390Y-107083728D01*
X168935554Y-107092630D01*
X168935554Y-107092633D01*
X168937440Y-107107055D01*
X168952979Y-107225884D01*
X168960792Y-107243639D01*
X168995823Y-107323254D01*
X169004951Y-107393661D01*
X168974564Y-107457826D01*
X168914311Y-107495377D01*
X168880494Y-107500000D01*
X164698560Y-107500000D01*
X164630439Y-107479998D01*
X164583946Y-107426342D01*
X164573842Y-107356068D01*
X164585168Y-107319062D01*
X164617795Y-107251720D01*
X164617795Y-107251719D01*
X164621710Y-107243639D01*
X164645496Y-107102260D01*
X164645647Y-107089906D01*
X164625323Y-106947988D01*
X164565984Y-106817478D01*
X164504166Y-106745735D01*
X164474853Y-106681075D01*
X164485152Y-106610830D01*
X164531793Y-106557303D01*
X164599969Y-106537489D01*
X164637191Y-106543221D01*
X164704157Y-106564142D01*
X164713129Y-106564306D01*
X164713132Y-106564307D01*
X164778463Y-106565504D01*
X164847499Y-106566770D01*
X164856533Y-106564307D01*
X164977158Y-106531421D01*
X164977160Y-106531420D01*
X164985817Y-106529060D01*
X165107991Y-106454045D01*
X165204200Y-106347754D01*
X165257362Y-106238028D01*
X165262795Y-106226814D01*
X165262795Y-106226813D01*
X165266710Y-106218733D01*
X165290496Y-106077354D01*
X165290647Y-106065000D01*
X165270323Y-105923082D01*
X165210984Y-105792572D01*
X165192598Y-105771234D01*
X165123260Y-105690763D01*
X165123257Y-105690760D01*
X165117400Y-105683963D01*
X164997095Y-105605985D01*
X164859739Y-105564907D01*
X164850763Y-105564852D01*
X164850762Y-105564852D01*
X164790555Y-105564484D01*
X164716376Y-105564031D01*
X164578529Y-105603428D01*
X164457280Y-105679930D01*
X164362377Y-105787388D01*
X164301447Y-105917163D01*
X164279391Y-106058823D01*
X164280555Y-106067725D01*
X164280555Y-106067728D01*
X164281814Y-106077354D01*
X164297980Y-106200979D01*
X164355720Y-106332203D01*
X164361497Y-106339076D01*
X164361498Y-106339077D01*
X164421226Y-106410132D01*
X164449747Y-106475147D01*
X164438591Y-106545262D01*
X164391299Y-106598214D01*
X164322886Y-106617193D01*
X164288673Y-106611924D01*
X164285015Y-106610830D01*
X164214739Y-106589813D01*
X164205763Y-106589758D01*
X164205762Y-106589758D01*
X164145555Y-106589390D01*
X164071376Y-106588937D01*
X163933529Y-106628334D01*
X163812280Y-106704836D01*
X163806338Y-106711564D01*
X163806337Y-106711565D01*
X163776158Y-106745737D01*
X163717377Y-106812294D01*
X163656447Y-106942069D01*
X163655066Y-106950940D01*
X163655066Y-106950941D01*
X163635773Y-107074855D01*
X163634391Y-107083729D01*
X163635555Y-107092631D01*
X163635555Y-107092634D01*
X163636814Y-107102259D01*
X163652980Y-107225885D01*
X163656597Y-107234105D01*
X163695823Y-107323254D01*
X163704950Y-107393662D01*
X163674563Y-107457827D01*
X163614310Y-107495377D01*
X163580494Y-107500000D01*
X161526000Y-107500000D01*
X161457879Y-107479998D01*
X161411386Y-107426342D01*
X161400000Y-107374000D01*
X161400000Y-104405053D01*
X161420002Y-104336932D01*
X161460071Y-104297678D01*
X161463765Y-104295410D01*
X161522991Y-104259045D01*
X161564173Y-104213548D01*
X161613178Y-104159407D01*
X161619200Y-104152754D01*
X161681710Y-104023733D01*
X161705496Y-103882354D01*
X161705647Y-103870000D01*
X161685323Y-103728082D01*
X161678795Y-103713723D01*
X161669435Y-103693138D01*
X163544758Y-103693138D01*
X163562035Y-103849633D01*
X163616143Y-103997490D01*
X163620380Y-104003796D01*
X163620382Y-104003799D01*
X163639208Y-104031814D01*
X163703958Y-104128172D01*
X163722097Y-104144677D01*
X163805828Y-104220866D01*
X163820410Y-104234135D01*
X163827085Y-104237759D01*
X163952099Y-104305637D01*
X163952101Y-104305638D01*
X163958776Y-104309262D01*
X163966125Y-104311190D01*
X164103719Y-104347287D01*
X164103721Y-104347287D01*
X164111069Y-104349215D01*
X164194380Y-104350524D01*
X164260898Y-104351569D01*
X164260901Y-104351569D01*
X164268495Y-104351688D01*
X164421968Y-104316538D01*
X164562625Y-104245795D01*
X164599677Y-104214150D01*
X164676574Y-104148474D01*
X164676576Y-104148471D01*
X164682348Y-104143542D01*
X164774224Y-104015683D01*
X164832950Y-103869598D01*
X164839953Y-103820393D01*
X164854553Y-103717807D01*
X164854553Y-103717804D01*
X164855134Y-103713723D01*
X164855278Y-103700000D01*
X164836363Y-103543694D01*
X164831175Y-103529963D01*
X164783394Y-103403514D01*
X164783393Y-103403511D01*
X164780710Y-103396412D01*
X164691531Y-103266657D01*
X164584944Y-103171691D01*
X164579648Y-103166972D01*
X164579645Y-103166970D01*
X164573976Y-103161919D01*
X164434831Y-103088245D01*
X164403666Y-103080417D01*
X164289498Y-103051740D01*
X164289496Y-103051740D01*
X164282128Y-103049889D01*
X164274530Y-103049849D01*
X164274528Y-103049849D01*
X164207319Y-103049497D01*
X164124684Y-103049065D01*
X164117305Y-103050837D01*
X164117301Y-103050837D01*
X163978967Y-103084048D01*
X163978963Y-103084049D01*
X163971588Y-103085820D01*
X163831679Y-103158032D01*
X163825957Y-103163024D01*
X163825955Y-103163025D01*
X163718759Y-103256538D01*
X163718756Y-103256541D01*
X163713034Y-103261533D01*
X163622501Y-103390348D01*
X163565309Y-103537039D01*
X163544758Y-103693138D01*
X161669435Y-103693138D01*
X161629700Y-103605746D01*
X161625984Y-103597572D01*
X161607598Y-103576234D01*
X161538260Y-103495763D01*
X161538257Y-103495760D01*
X161532400Y-103488963D01*
X161412095Y-103410985D01*
X161274739Y-103369907D01*
X161265763Y-103369852D01*
X161265762Y-103369852D01*
X161205555Y-103369484D01*
X161131376Y-103369031D01*
X160993529Y-103408428D01*
X160872280Y-103484930D01*
X160777377Y-103592388D01*
X160716447Y-103722163D01*
X160715066Y-103731035D01*
X160704267Y-103800391D01*
X160674023Y-103864623D01*
X160668862Y-103870101D01*
X160375868Y-104163095D01*
X160313556Y-104197121D01*
X160286773Y-104200000D01*
X159800000Y-104200000D01*
X159800000Y-104283967D01*
X159779998Y-104352088D01*
X159726342Y-104398581D01*
X159656068Y-104408685D01*
X159612518Y-104391230D01*
X159611956Y-104392380D01*
X159496656Y-104336020D01*
X159464221Y-104331288D01*
X159426061Y-104325721D01*
X159426057Y-104325721D01*
X159421535Y-104325061D01*
X159200845Y-104325061D01*
X158978466Y-104325062D01*
X158902691Y-104336215D01*
X158875971Y-104349334D01*
X158796837Y-104388187D01*
X158796836Y-104388188D01*
X158787489Y-104392777D01*
X158780130Y-104400148D01*
X158780131Y-104400148D01*
X158764134Y-104416172D01*
X158701851Y-104450251D01*
X158631031Y-104445246D01*
X158585945Y-104416326D01*
X158569330Y-104399740D01*
X158569326Y-104399737D01*
X158561956Y-104392380D01*
X158446656Y-104336020D01*
X158414221Y-104331288D01*
X158376061Y-104325721D01*
X158376057Y-104325721D01*
X158371535Y-104325061D01*
X158150845Y-104325061D01*
X157928466Y-104325062D01*
X157852691Y-104336215D01*
X157852460Y-104334648D01*
X157792395Y-104335586D01*
X157732076Y-104298140D01*
X157701578Y-104234028D01*
X157700000Y-104214150D01*
X157700000Y-102996500D01*
X157720002Y-102928379D01*
X157773658Y-102881886D01*
X157826000Y-102870500D01*
X161239000Y-102870500D01*
X161250640Y-102871049D01*
X161258296Y-102872760D01*
X161266219Y-102872511D01*
X161328230Y-102870562D01*
X161332188Y-102870500D01*
X161360925Y-102870500D01*
X161365196Y-102869961D01*
X161377024Y-102869029D01*
X161422569Y-102867597D01*
X161430183Y-102865385D01*
X161430188Y-102865384D01*
X161442792Y-102861722D01*
X161462156Y-102857711D01*
X161483058Y-102855071D01*
X161490429Y-102852152D01*
X161490431Y-102852152D01*
X161525420Y-102838298D01*
X161536631Y-102834459D01*
X161580398Y-102821744D01*
X161598536Y-102811018D01*
X161616281Y-102802324D01*
X161635871Y-102794568D01*
X161672738Y-102767782D01*
X161682646Y-102761275D01*
X161715042Y-102742117D01*
X161715047Y-102742113D01*
X161721865Y-102738081D01*
X161736758Y-102723188D01*
X161751792Y-102710347D01*
X161762423Y-102702623D01*
X161768837Y-102697963D01*
X161797880Y-102662856D01*
X161805869Y-102654077D01*
X162372541Y-102087405D01*
X162434853Y-102053379D01*
X162461636Y-102050500D01*
X166191909Y-102050500D01*
X166193888Y-102050516D01*
X166260898Y-102051569D01*
X166260901Y-102051569D01*
X166268495Y-102051688D01*
X166272499Y-102050771D01*
X166277669Y-102050500D01*
X167518999Y-102050500D01*
X167530640Y-102051049D01*
X167538296Y-102052760D01*
X167561992Y-102052015D01*
X167601473Y-102050775D01*
X167607408Y-102050729D01*
X167660901Y-102051569D01*
X167660903Y-102051569D01*
X167668495Y-102051688D01*
X167675895Y-102049993D01*
X167683455Y-102049199D01*
X167683478Y-102049421D01*
X167690119Y-102048564D01*
X167694651Y-102047846D01*
X167702569Y-102047597D01*
X167710176Y-102045387D01*
X167710181Y-102045386D01*
X167722792Y-102041722D01*
X167742156Y-102037711D01*
X167746086Y-102037215D01*
X167755198Y-102036064D01*
X167755199Y-102036064D01*
X167763058Y-102035071D01*
X167770427Y-102032154D01*
X167770429Y-102032153D01*
X167784349Y-102026642D01*
X167802599Y-102020975D01*
X167814558Y-102018236D01*
X167814564Y-102018234D01*
X167821968Y-102016538D01*
X167828755Y-102013124D01*
X167828895Y-102013074D01*
X167850168Y-102004716D01*
X167860398Y-102001744D01*
X167878536Y-101991018D01*
X167896281Y-101982324D01*
X167915871Y-101974568D01*
X167922286Y-101969907D01*
X167922290Y-101969905D01*
X167931099Y-101963505D01*
X167948540Y-101952880D01*
X167955834Y-101949211D01*
X167955839Y-101949208D01*
X167962625Y-101945795D01*
X167971491Y-101938223D01*
X167989174Y-101925587D01*
X167995042Y-101922117D01*
X167995047Y-101922113D01*
X168001865Y-101918081D01*
X168016758Y-101903188D01*
X168031792Y-101890347D01*
X168042423Y-101882623D01*
X168048837Y-101877963D01*
X168058234Y-101866604D01*
X168073489Y-101851108D01*
X168076573Y-101848474D01*
X168082348Y-101843542D01*
X168091551Y-101830735D01*
X168104772Y-101815174D01*
X168230026Y-101689920D01*
X168292338Y-101655894D01*
X168363153Y-101660959D01*
X168423702Y-101708739D01*
X168503958Y-101828172D01*
X168521103Y-101843773D01*
X168600955Y-101916432D01*
X168620410Y-101934135D01*
X168674503Y-101963505D01*
X168752099Y-102005637D01*
X168752101Y-102005638D01*
X168758776Y-102009262D01*
X168766125Y-102011190D01*
X168903719Y-102047287D01*
X168903721Y-102047287D01*
X168911069Y-102049215D01*
X168993888Y-102050516D01*
X169060898Y-102051569D01*
X169060901Y-102051569D01*
X169068495Y-102051688D01*
X169221968Y-102016538D01*
X169362625Y-101945795D01*
X169405827Y-101908897D01*
X169476574Y-101848474D01*
X169476576Y-101848471D01*
X169482348Y-101843542D01*
X169574224Y-101715683D01*
X169632950Y-101569598D01*
X169642903Y-101499664D01*
X169654553Y-101417807D01*
X169654553Y-101417804D01*
X169655134Y-101413723D01*
X169655278Y-101400000D01*
X169636363Y-101243694D01*
X169580710Y-101096412D01*
X169491531Y-100966657D01*
X169431733Y-100913379D01*
X169379648Y-100866972D01*
X169379645Y-100866970D01*
X169373976Y-100861919D01*
X169318161Y-100832367D01*
X169267320Y-100782816D01*
X169251338Y-100713642D01*
X169275291Y-100646808D01*
X169288027Y-100631919D01*
X169438110Y-100481836D01*
X169445363Y-100475130D01*
X169482348Y-100443542D01*
X169486777Y-100437378D01*
X169486781Y-100437374D01*
X169520495Y-100390455D01*
X169523259Y-100386753D01*
X169559504Y-100340027D01*
X169559504Y-100340026D01*
X169564362Y-100333764D01*
X169567510Y-100326488D01*
X169568566Y-100324703D01*
X169570330Y-100321102D01*
X169574224Y-100315683D01*
X169600263Y-100250908D01*
X169601513Y-100247912D01*
X169629635Y-100182926D01*
X169630875Y-100175095D01*
X169631227Y-100173883D01*
X169632950Y-100169598D01*
X169639369Y-100124497D01*
X169643466Y-100095708D01*
X169643760Y-100093749D01*
X169654107Y-100028422D01*
X169655347Y-100020595D01*
X169654872Y-100015566D01*
X169655134Y-100013723D01*
X169655278Y-100000000D01*
X169654783Y-99995905D01*
X169654782Y-99995896D01*
X169646894Y-99930711D01*
X169646540Y-99927432D01*
X169645491Y-99916327D01*
X169639879Y-99856971D01*
X169637195Y-99849516D01*
X169636917Y-99848272D01*
X169636363Y-99843694D01*
X169609959Y-99773816D01*
X169609274Y-99771961D01*
X169605346Y-99761049D01*
X169584206Y-99702332D01*
X169581370Y-99698159D01*
X169580710Y-99696412D01*
X169578250Y-99692832D01*
X169533707Y-99628021D01*
X169533335Y-99627477D01*
X169501066Y-99579996D01*
X169491825Y-99566398D01*
X169436266Y-99517415D01*
X169435948Y-99517133D01*
X169377216Y-99464805D01*
X169377213Y-99464803D01*
X169373976Y-99461919D01*
X169372327Y-99461046D01*
X169368541Y-99457708D01*
X169302539Y-99424078D01*
X169300783Y-99423165D01*
X169234831Y-99388245D01*
X169230364Y-99387123D01*
X169229161Y-99386690D01*
X169222100Y-99383092D01*
X169214371Y-99381364D01*
X169214367Y-99381363D01*
X169153002Y-99367647D01*
X169149803Y-99366888D01*
X169082128Y-99349889D01*
X169075456Y-99349854D01*
X169071499Y-99349164D01*
X169069442Y-99348970D01*
X169061704Y-99347240D01*
X168994655Y-99349347D01*
X168990054Y-99349407D01*
X168924684Y-99349065D01*
X168917297Y-99350838D01*
X168911387Y-99351522D01*
X168907568Y-99351803D01*
X168905353Y-99352154D01*
X168897431Y-99352403D01*
X168836760Y-99370029D01*
X168831030Y-99371549D01*
X168778972Y-99384047D01*
X168778970Y-99384048D01*
X168771588Y-99385820D01*
X168764839Y-99389304D01*
X168757721Y-99391951D01*
X168757643Y-99391742D01*
X168751435Y-99394218D01*
X168747212Y-99396045D01*
X168739602Y-99398256D01*
X168732785Y-99402288D01*
X168732777Y-99402291D01*
X168688604Y-99428415D01*
X168682256Y-99431927D01*
X168631679Y-99458032D01*
X168625955Y-99463026D01*
X168625823Y-99463115D01*
X168607307Y-99476494D01*
X168604960Y-99477882D01*
X168604957Y-99477884D01*
X168598135Y-99481919D01*
X168559067Y-99520987D01*
X168552802Y-99526841D01*
X168513034Y-99561533D01*
X168508667Y-99567747D01*
X168508664Y-99567750D01*
X168506330Y-99571071D01*
X168492338Y-99587716D01*
X167367459Y-100712595D01*
X167305147Y-100746621D01*
X167278364Y-100749500D01*
X166208078Y-100749500D01*
X166207419Y-100749498D01*
X166128772Y-100749086D01*
X166128766Y-100749086D01*
X166124684Y-100749065D01*
X166123275Y-100749403D01*
X166121600Y-100749500D01*
X162220999Y-100749500D01*
X162209359Y-100748951D01*
X162201703Y-100747240D01*
X162193780Y-100747489D01*
X162156336Y-100748666D01*
X162142969Y-100749086D01*
X162131769Y-100749438D01*
X162127811Y-100749500D01*
X162099075Y-100749500D01*
X162095140Y-100749997D01*
X162094807Y-100750039D01*
X162082972Y-100750971D01*
X162037431Y-100752403D01*
X162029817Y-100754615D01*
X162029812Y-100754616D01*
X162017208Y-100758278D01*
X161997844Y-100762289D01*
X161993914Y-100762785D01*
X161984802Y-100763936D01*
X161984801Y-100763936D01*
X161976942Y-100764929D01*
X161969576Y-100767846D01*
X161965773Y-100768822D01*
X161894818Y-100766390D01*
X161836442Y-100725982D01*
X161816572Y-100691318D01*
X161783395Y-100603516D01*
X161783393Y-100603512D01*
X161780710Y-100596412D01*
X161691531Y-100466657D01*
X161667020Y-100444818D01*
X161629466Y-100384569D01*
X161630447Y-100313580D01*
X161669009Y-100254935D01*
X161682348Y-100243542D01*
X161774224Y-100115683D01*
X161783042Y-100093749D01*
X161815212Y-100013723D01*
X161832950Y-99969598D01*
X161840531Y-99916327D01*
X161854553Y-99817807D01*
X161854553Y-99817804D01*
X161855134Y-99813723D01*
X161855278Y-99800000D01*
X161836363Y-99643694D01*
X161807666Y-99567750D01*
X161783394Y-99503514D01*
X161783393Y-99503511D01*
X161780710Y-99496412D01*
X161691531Y-99366657D01*
X161609918Y-99293942D01*
X161579648Y-99266972D01*
X161579645Y-99266970D01*
X161573976Y-99261919D01*
X161434831Y-99188245D01*
X161403678Y-99180420D01*
X161289498Y-99151740D01*
X161289496Y-99151740D01*
X161282128Y-99149889D01*
X161274530Y-99149849D01*
X161274528Y-99149849D01*
X161207319Y-99149497D01*
X161124684Y-99149065D01*
X161117305Y-99150837D01*
X161117301Y-99150837D01*
X160978967Y-99184048D01*
X160978963Y-99184049D01*
X160971588Y-99185820D01*
X160831679Y-99258032D01*
X160825957Y-99263024D01*
X160825955Y-99263025D01*
X160718759Y-99356538D01*
X160718756Y-99356541D01*
X160713034Y-99361533D01*
X160692675Y-99390501D01*
X160632238Y-99476494D01*
X160622501Y-99490348D01*
X160565309Y-99637039D01*
X160563440Y-99651234D01*
X160547302Y-99773816D01*
X160544758Y-99793138D01*
X160562035Y-99949633D01*
X160616143Y-100097490D01*
X160620380Y-100103796D01*
X160620382Y-100103799D01*
X160634291Y-100124497D01*
X160703958Y-100228172D01*
X160709573Y-100233281D01*
X160709578Y-100233287D01*
X160734736Y-100256179D01*
X160771658Y-100316819D01*
X160769935Y-100387795D01*
X160732765Y-100444321D01*
X160713034Y-100461533D01*
X160688777Y-100496047D01*
X160629185Y-100580838D01*
X160622501Y-100590348D01*
X160565309Y-100737039D01*
X160561985Y-100762289D01*
X160547080Y-100875502D01*
X160544758Y-100893138D01*
X160562035Y-101049633D01*
X160616143Y-101197490D01*
X160703958Y-101328172D01*
X160709577Y-101333285D01*
X160709578Y-101333286D01*
X160728282Y-101350306D01*
X160765205Y-101410947D01*
X160763482Y-101481922D01*
X160723660Y-101540699D01*
X160658382Y-101568616D01*
X160643483Y-101569500D01*
X157241636Y-101569500D01*
X157173515Y-101549498D01*
X157152541Y-101532595D01*
X156317248Y-100697302D01*
X156309407Y-100688685D01*
X156305202Y-100682060D01*
X156254183Y-100634150D01*
X156251342Y-100631396D01*
X156231035Y-100611089D01*
X156227904Y-100608660D01*
X156227898Y-100608655D01*
X156227623Y-100608442D01*
X156218610Y-100600745D01*
X156185393Y-100569552D01*
X156176071Y-100564427D01*
X156166934Y-100559404D01*
X156150410Y-100548550D01*
X156140027Y-100540496D01*
X156140026Y-100540495D01*
X156133764Y-100535638D01*
X156091952Y-100517545D01*
X156081307Y-100512330D01*
X156041368Y-100490373D01*
X156033689Y-100488402D01*
X156033688Y-100488401D01*
X156020959Y-100485133D01*
X156002250Y-100478727D01*
X155990200Y-100473512D01*
X155990195Y-100473510D01*
X155982926Y-100470365D01*
X155937930Y-100463238D01*
X155926310Y-100460831D01*
X155889860Y-100451472D01*
X155889855Y-100451471D01*
X155882177Y-100449500D01*
X155861116Y-100449500D01*
X155841404Y-100447949D01*
X155836928Y-100447240D01*
X155820595Y-100444653D01*
X155812704Y-100445399D01*
X155775235Y-100448941D01*
X155763377Y-100449500D01*
X151581000Y-100449500D01*
X151569360Y-100448951D01*
X151561704Y-100447240D01*
X151553781Y-100447489D01*
X151491770Y-100449438D01*
X151487812Y-100449500D01*
X151459075Y-100449500D01*
X151454804Y-100450039D01*
X151442976Y-100450971D01*
X151397431Y-100452403D01*
X151389817Y-100454615D01*
X151389812Y-100454616D01*
X151377208Y-100458278D01*
X151357844Y-100462289D01*
X151336942Y-100464929D01*
X151329571Y-100467848D01*
X151329569Y-100467848D01*
X151316767Y-100472917D01*
X151302094Y-100478727D01*
X151294580Y-100481702D01*
X151283369Y-100485541D01*
X151239602Y-100498256D01*
X151230407Y-100503694D01*
X151221467Y-100508981D01*
X151203719Y-100517676D01*
X151184129Y-100525432D01*
X151147262Y-100552218D01*
X151137354Y-100558725D01*
X151104958Y-100577883D01*
X151104953Y-100577887D01*
X151098135Y-100581919D01*
X151083242Y-100596812D01*
X151068208Y-100609653D01*
X151051163Y-100622037D01*
X151046110Y-100628145D01*
X151022121Y-100657143D01*
X151014131Y-100665923D01*
X150168403Y-101511651D01*
X150106091Y-101545677D01*
X150079308Y-101548556D01*
X147326000Y-101548556D01*
X147257879Y-101528554D01*
X147211386Y-101474898D01*
X147200000Y-101422556D01*
X147200000Y-99443729D01*
X150144391Y-99443729D01*
X150145555Y-99452631D01*
X150145555Y-99452634D01*
X150148857Y-99477882D01*
X150162980Y-99585885D01*
X150220720Y-99717109D01*
X150226497Y-99723982D01*
X150226498Y-99723983D01*
X150233792Y-99732660D01*
X150312970Y-99826854D01*
X150432313Y-99906296D01*
X150569157Y-99949048D01*
X150578129Y-99949212D01*
X150578132Y-99949213D01*
X150643463Y-99950410D01*
X150712499Y-99951676D01*
X150721533Y-99949213D01*
X150842158Y-99916327D01*
X150842160Y-99916326D01*
X150850817Y-99913966D01*
X150972991Y-99838951D01*
X150992130Y-99817807D01*
X151063178Y-99739313D01*
X151069200Y-99732660D01*
X151106589Y-99655489D01*
X151127795Y-99611720D01*
X151127795Y-99611719D01*
X151131710Y-99603639D01*
X151155496Y-99462260D01*
X151155647Y-99449906D01*
X151145831Y-99381363D01*
X151136596Y-99316874D01*
X151136595Y-99316871D01*
X151135323Y-99307988D01*
X151075984Y-99177478D01*
X151051502Y-99149065D01*
X150988260Y-99075669D01*
X150988257Y-99075666D01*
X150982400Y-99068869D01*
X150862095Y-98990891D01*
X150724739Y-98949813D01*
X150715763Y-98949758D01*
X150715762Y-98949758D01*
X150655555Y-98949390D01*
X150581376Y-98948937D01*
X150443529Y-98988334D01*
X150322280Y-99064836D01*
X150227377Y-99172294D01*
X150166447Y-99302069D01*
X150159086Y-99349347D01*
X150146229Y-99431927D01*
X150144391Y-99443729D01*
X147200000Y-99443729D01*
X147200000Y-98891863D01*
X146643140Y-98891863D01*
X146575019Y-98871861D01*
X146528526Y-98818205D01*
X146518422Y-98747931D01*
X146529747Y-98710929D01*
X146551710Y-98665596D01*
X146575496Y-98524217D01*
X146575647Y-98511863D01*
X146563514Y-98427138D01*
X146556596Y-98378831D01*
X146556595Y-98378828D01*
X146555323Y-98369945D01*
X146495984Y-98239435D01*
X146469042Y-98208167D01*
X146408260Y-98137626D01*
X146408257Y-98137623D01*
X146402400Y-98130826D01*
X146282095Y-98052848D01*
X146144739Y-98011770D01*
X146135763Y-98011715D01*
X146135762Y-98011715D01*
X146075555Y-98011347D01*
X146001376Y-98010894D01*
X145863529Y-98050291D01*
X145742280Y-98126793D01*
X145647377Y-98234251D01*
X145586447Y-98364026D01*
X145564391Y-98505686D01*
X145565555Y-98514588D01*
X145565555Y-98514591D01*
X145566814Y-98524217D01*
X145582980Y-98647842D01*
X145612582Y-98715118D01*
X145621710Y-98785524D01*
X145591323Y-98849689D01*
X145531070Y-98887240D01*
X145497253Y-98891863D01*
X139600000Y-98891863D01*
X139600000Y-101565863D01*
X139579998Y-101633984D01*
X139526342Y-101680477D01*
X139474000Y-101691863D01*
X138326000Y-101691863D01*
X138257879Y-101671861D01*
X138211386Y-101618205D01*
X138200000Y-101565863D01*
X138200000Y-98891863D01*
X131600000Y-98891863D01*
X131600000Y-99534772D01*
X131579998Y-99602893D01*
X131526342Y-99649386D01*
X131456068Y-99659490D01*
X131437898Y-99655489D01*
X131344230Y-99627477D01*
X131324833Y-99621676D01*
X131315857Y-99621621D01*
X131315856Y-99621621D01*
X131255649Y-99621253D01*
X131181470Y-99620800D01*
X131043623Y-99660197D01*
X130922374Y-99736699D01*
X130916432Y-99743427D01*
X130916431Y-99743428D01*
X130889594Y-99773816D01*
X130827471Y-99844157D01*
X130766541Y-99973932D01*
X130761840Y-100004125D01*
X130747581Y-100095708D01*
X130744485Y-100115592D01*
X130763074Y-100257748D01*
X130820814Y-100388972D01*
X130826591Y-100395845D01*
X130826592Y-100395846D01*
X130906050Y-100490373D01*
X130913064Y-100498717D01*
X131032407Y-100578159D01*
X131169251Y-100620911D01*
X131178223Y-100621075D01*
X131178226Y-100621076D01*
X131243557Y-100622273D01*
X131312593Y-100623539D01*
X131321627Y-100621076D01*
X131440858Y-100588570D01*
X131511841Y-100589950D01*
X131570810Y-100629487D01*
X131599042Y-100694629D01*
X131600000Y-100710133D01*
X131600000Y-107091863D01*
X136674000Y-107091863D01*
X136742121Y-107111865D01*
X136788614Y-107165521D01*
X136800000Y-107217863D01*
X136800000Y-108565863D01*
X136779998Y-108633984D01*
X136726342Y-108680477D01*
X136674000Y-108691863D01*
X131600000Y-108691863D01*
X131600000Y-114691863D01*
X132231790Y-114691863D01*
X132299911Y-114711865D01*
X132346404Y-114765521D01*
X132356508Y-114835795D01*
X132345844Y-114871413D01*
X132316447Y-114934026D01*
X132313069Y-114955724D01*
X132297020Y-115058801D01*
X132294391Y-115075686D01*
X132295555Y-115084588D01*
X132295555Y-115084591D01*
X132300285Y-115120760D01*
X132312980Y-115217842D01*
X132370720Y-115349066D01*
X132376497Y-115355939D01*
X132376498Y-115355940D01*
X132452253Y-115446062D01*
X132462970Y-115458811D01*
X132470447Y-115463788D01*
X132573459Y-115532359D01*
X132582313Y-115538253D01*
X132590888Y-115540932D01*
X132594006Y-115541906D01*
X132719157Y-115581005D01*
X132728129Y-115581169D01*
X132728132Y-115581170D01*
X132793463Y-115582367D01*
X132862499Y-115583633D01*
X132871533Y-115581170D01*
X132992158Y-115548284D01*
X132992160Y-115548283D01*
X133000817Y-115545923D01*
X133122991Y-115470908D01*
X133219200Y-115364617D01*
X133276046Y-115247287D01*
X133277795Y-115243677D01*
X133277795Y-115243676D01*
X133281710Y-115235596D01*
X133305496Y-115094217D01*
X133305647Y-115081863D01*
X133290596Y-114976763D01*
X133286596Y-114948831D01*
X133286595Y-114948828D01*
X133285323Y-114939945D01*
X133253527Y-114870012D01*
X133243540Y-114799724D01*
X133273141Y-114735192D01*
X133332931Y-114696908D01*
X133368228Y-114691863D01*
X139400000Y-114691863D01*
X139400000Y-111817863D01*
X139420002Y-111749742D01*
X139473658Y-111703249D01*
X139526000Y-111691863D01*
X140474000Y-111691863D01*
X140542121Y-111711865D01*
X140588614Y-111765521D01*
X140600000Y-111817863D01*
X140600000Y-114691863D01*
X143800000Y-114691863D01*
X143800000Y-114017863D01*
X143820002Y-113949742D01*
X143873658Y-113903249D01*
X143926000Y-113891863D01*
X147200000Y-113891863D01*
X147200000Y-113886544D01*
X147209747Y-113883682D01*
X147280744Y-113883682D01*
X147341695Y-113923502D01*
X147357189Y-113941934D01*
X147362970Y-113948811D01*
X147482313Y-114028253D01*
X147619157Y-114071005D01*
X147628129Y-114071169D01*
X147628132Y-114071170D01*
X147693463Y-114072367D01*
X147762499Y-114073633D01*
X147771533Y-114071170D01*
X147892158Y-114038284D01*
X147892160Y-114038283D01*
X147900817Y-114035923D01*
X148022991Y-113960908D01*
X148119200Y-113854617D01*
X148167585Y-113754750D01*
X148177795Y-113733677D01*
X148177795Y-113733676D01*
X148181710Y-113725596D01*
X148205496Y-113584217D01*
X148205647Y-113571863D01*
X148189107Y-113456367D01*
X148186596Y-113438831D01*
X148186595Y-113438828D01*
X148185323Y-113429945D01*
X148125984Y-113299435D01*
X148107598Y-113278097D01*
X148038260Y-113197626D01*
X148038257Y-113197623D01*
X148032400Y-113190826D01*
X147912095Y-113112848D01*
X147774739Y-113071770D01*
X147765763Y-113071715D01*
X147765762Y-113071715D01*
X147705555Y-113071347D01*
X147631376Y-113070894D01*
X147493529Y-113110291D01*
X147473938Y-113122652D01*
X147393235Y-113173571D01*
X147324950Y-113193005D01*
X147256998Y-113172435D01*
X147210954Y-113118394D01*
X147200000Y-113067009D01*
X147200000Y-106891863D01*
X141526000Y-106891863D01*
X141457879Y-106871861D01*
X141411386Y-106818205D01*
X141400000Y-106765863D01*
X141400000Y-105481648D01*
X141420002Y-105413527D01*
X141473658Y-105367034D01*
X141543932Y-105356930D01*
X141557970Y-105359771D01*
X141601069Y-105371078D01*
X141602932Y-105371107D01*
X141607823Y-105372363D01*
X141681909Y-105372363D01*
X141683888Y-105372379D01*
X141750898Y-105373432D01*
X141750901Y-105373432D01*
X141758495Y-105373551D01*
X141762499Y-105372634D01*
X141767669Y-105372363D01*
X142778999Y-105372363D01*
X142790640Y-105372912D01*
X142798296Y-105374623D01*
X142821992Y-105373878D01*
X142861473Y-105372638D01*
X142867408Y-105372592D01*
X142920901Y-105373432D01*
X142920903Y-105373432D01*
X142928495Y-105373551D01*
X142935895Y-105371856D01*
X142943455Y-105371062D01*
X142943478Y-105371284D01*
X142950119Y-105370427D01*
X142954651Y-105369709D01*
X142962569Y-105369460D01*
X142970176Y-105367250D01*
X142970181Y-105367249D01*
X142982792Y-105363585D01*
X143002156Y-105359574D01*
X143006086Y-105359078D01*
X143015198Y-105357927D01*
X143015199Y-105357927D01*
X143023058Y-105356934D01*
X143030427Y-105354017D01*
X143030429Y-105354016D01*
X143044349Y-105348505D01*
X143062599Y-105342838D01*
X143074558Y-105340099D01*
X143074564Y-105340097D01*
X143081968Y-105338401D01*
X143088755Y-105334987D01*
X143088895Y-105334937D01*
X143110168Y-105326579D01*
X143120398Y-105323607D01*
X143138536Y-105312881D01*
X143156281Y-105304187D01*
X143175871Y-105296431D01*
X143182286Y-105291770D01*
X143182290Y-105291768D01*
X143191099Y-105285368D01*
X143208540Y-105274743D01*
X143215834Y-105271074D01*
X143215837Y-105271072D01*
X143222625Y-105267658D01*
X143231491Y-105260086D01*
X143249174Y-105247450D01*
X143255042Y-105243980D01*
X143255047Y-105243976D01*
X143261865Y-105239944D01*
X143276758Y-105225051D01*
X143291792Y-105212210D01*
X143302423Y-105204486D01*
X143308837Y-105199826D01*
X143318234Y-105188467D01*
X143333489Y-105172971D01*
X143336573Y-105170337D01*
X143342348Y-105165405D01*
X143351551Y-105152598D01*
X143364772Y-105137037D01*
X143373041Y-105128768D01*
X143435353Y-105094742D01*
X143462136Y-105091863D01*
X147200000Y-105091863D01*
X147200000Y-102975556D01*
X147220002Y-102907435D01*
X147273658Y-102860942D01*
X147326000Y-102849556D01*
X149774000Y-102849556D01*
X149842121Y-102869558D01*
X149888614Y-102923214D01*
X149900000Y-102975556D01*
X149900000Y-106400000D01*
X152874000Y-106400000D01*
X152942121Y-106420002D01*
X152988614Y-106473658D01*
X153000000Y-106526000D01*
X153000000Y-106708475D01*
X152979998Y-106776596D01*
X152926342Y-106823089D01*
X152885427Y-106833955D01*
X152742266Y-106846983D01*
X152736350Y-106848724D01*
X152736351Y-106848724D01*
X152565596Y-106898980D01*
X152565593Y-106898981D01*
X152559685Y-106900720D01*
X152391019Y-106988897D01*
X152242691Y-107108155D01*
X152120353Y-107253952D01*
X152117389Y-107259344D01*
X152117386Y-107259348D01*
X152054356Y-107374000D01*
X152028663Y-107420735D01*
X152026802Y-107426602D01*
X152026801Y-107426604D01*
X152007382Y-107487820D01*
X151971114Y-107602151D01*
X151949899Y-107791290D01*
X151965825Y-107980948D01*
X152018286Y-108163900D01*
X152021104Y-108169383D01*
X152102463Y-108327692D01*
X152102466Y-108327696D01*
X152105283Y-108333178D01*
X152223503Y-108482334D01*
X152228197Y-108486329D01*
X152309473Y-108555500D01*
X152368442Y-108605687D01*
X152534581Y-108698539D01*
X152715591Y-108757353D01*
X152831274Y-108771147D01*
X152888919Y-108778021D01*
X152954192Y-108805948D01*
X152994005Y-108864732D01*
X153000000Y-108903135D01*
X153000000Y-114191177D01*
X152994102Y-114229275D01*
X152966628Y-114315884D01*
X152944757Y-114510869D01*
X152961175Y-114706389D01*
X152983553Y-114784430D01*
X152995119Y-114824765D01*
X153000000Y-114859496D01*
X153000000Y-116691177D01*
X152994102Y-116729275D01*
X152966628Y-116815884D01*
X152944757Y-117010869D01*
X152961175Y-117206389D01*
X152993657Y-117319666D01*
X152995119Y-117324765D01*
X153000000Y-117359496D01*
X153000000Y-117391679D01*
X152979998Y-117459800D01*
X152963095Y-117480774D01*
X152322311Y-118121558D01*
X152304080Y-118136283D01*
X152302540Y-118137684D01*
X152293790Y-118143334D01*
X152287343Y-118151512D01*
X152273264Y-118169371D01*
X152269383Y-118173738D01*
X152269461Y-118173804D01*
X152266107Y-118177762D01*
X152262425Y-118181444D01*
X152251339Y-118196958D01*
X152247788Y-118201687D01*
X152216397Y-118241506D01*
X152213395Y-118250055D01*
X152208128Y-118257425D01*
X152200801Y-118281925D01*
X152193608Y-118305976D01*
X152191774Y-118311620D01*
X152177604Y-118351971D01*
X152177603Y-118351977D01*
X152174977Y-118359454D01*
X152174500Y-118364961D01*
X152174500Y-118367668D01*
X152174389Y-118370241D01*
X152174341Y-118370400D01*
X152174197Y-118370394D01*
X152174158Y-118371014D01*
X152172310Y-118377193D01*
X152173179Y-118399307D01*
X152174403Y-118430461D01*
X152174500Y-118435408D01*
X152174500Y-120396504D01*
X152172021Y-120419801D01*
X152171923Y-120421886D01*
X152169731Y-120432066D01*
X152170955Y-120442405D01*
X152173627Y-120464984D01*
X152173971Y-120470821D01*
X152174072Y-120470813D01*
X152174500Y-120475992D01*
X152174500Y-120481193D01*
X152175354Y-120486321D01*
X152175354Y-120486327D01*
X152177628Y-120499987D01*
X152178465Y-120505863D01*
X152184424Y-120556210D01*
X152188346Y-120564377D01*
X152189833Y-120573313D01*
X152194777Y-120582475D01*
X152194778Y-120582479D01*
X152213906Y-120617929D01*
X152216602Y-120623220D01*
X152222526Y-120635557D01*
X152238537Y-120668900D01*
X152242094Y-120673131D01*
X152244026Y-120675063D01*
X152245745Y-120676937D01*
X152245819Y-120677074D01*
X152245709Y-120677174D01*
X152246132Y-120677654D01*
X152249194Y-120683329D01*
X152256841Y-120690398D01*
X152256842Y-120690399D01*
X152288367Y-120719540D01*
X152291933Y-120722970D01*
X152963095Y-121394132D01*
X152997121Y-121456444D01*
X153000000Y-121483227D01*
X153000000Y-122100000D01*
X157574000Y-122100000D01*
X157642121Y-122120002D01*
X157688614Y-122173658D01*
X157700000Y-122226000D01*
X157700000Y-124623500D01*
X157679998Y-124691621D01*
X157626342Y-124738114D01*
X157574000Y-124749500D01*
X114037085Y-124749500D01*
X114012504Y-124747079D01*
X114012172Y-124747013D01*
X114012171Y-124747013D01*
X114000000Y-124744592D01*
X113987829Y-124747013D01*
X113975418Y-124747013D01*
X113975418Y-124746974D01*
X113964690Y-124747765D01*
X113763577Y-124737885D01*
X113638663Y-124731749D01*
X113626367Y-124730538D01*
X113274625Y-124678361D01*
X113262519Y-124675954D01*
X112917584Y-124589553D01*
X112905754Y-124585964D01*
X112570956Y-124466171D01*
X112559532Y-124461439D01*
X112382518Y-124377718D01*
X112238088Y-124309408D01*
X112227187Y-124303581D01*
X111922195Y-124120775D01*
X111911914Y-124113905D01*
X111835364Y-124057132D01*
X111626309Y-123902087D01*
X111616770Y-123894260D01*
X111353284Y-123655449D01*
X111344546Y-123646711D01*
X111105740Y-123383230D01*
X111097913Y-123373691D01*
X110886095Y-123088086D01*
X110879225Y-123077805D01*
X110720567Y-122813101D01*
X110696417Y-122772808D01*
X110690590Y-122761908D01*
X110660006Y-122697242D01*
X110580920Y-122530030D01*
X110538561Y-122440468D01*
X110533829Y-122429044D01*
X110414036Y-122094246D01*
X110410447Y-122082414D01*
X110324046Y-121737481D01*
X110321637Y-121725366D01*
X110302753Y-121598056D01*
X110269462Y-121373633D01*
X110268251Y-121361332D01*
X110266501Y-121325698D01*
X110258555Y-121163966D01*
X110252235Y-121035310D01*
X110253026Y-121024582D01*
X110252987Y-121024582D01*
X110252987Y-121012171D01*
X110255408Y-121000000D01*
X110252921Y-120987496D01*
X110252033Y-120978477D01*
X111944822Y-120978477D01*
X111960916Y-121257596D01*
X112014741Y-121531948D01*
X112105303Y-121796457D01*
X112230925Y-122046228D01*
X112389282Y-122276639D01*
X112392169Y-122279812D01*
X112392170Y-122279813D01*
X112437546Y-122329681D01*
X112577444Y-122483427D01*
X112580725Y-122486170D01*
X112788638Y-122660013D01*
X112788643Y-122660017D01*
X112791930Y-122662765D01*
X112846891Y-122697242D01*
X113025131Y-122809052D01*
X113025135Y-122809054D01*
X113028771Y-122811335D01*
X113032681Y-122813100D01*
X113032682Y-122813101D01*
X113279671Y-122924621D01*
X113279675Y-122924623D01*
X113283583Y-122926387D01*
X113287702Y-122927607D01*
X113547539Y-123004575D01*
X113547544Y-123004576D01*
X113551652Y-123005793D01*
X113555886Y-123006441D01*
X113555891Y-123006442D01*
X113798904Y-123043628D01*
X113828018Y-123048083D01*
X113970396Y-123050319D01*
X114103275Y-123052407D01*
X114103281Y-123052407D01*
X114107566Y-123052474D01*
X114385123Y-123018886D01*
X114655554Y-122947940D01*
X114659514Y-122946300D01*
X114659519Y-122946298D01*
X114784705Y-122894444D01*
X114913855Y-122840948D01*
X115155245Y-122699891D01*
X115375258Y-122527379D01*
X115417851Y-122483427D01*
X115566840Y-122329681D01*
X115569823Y-122326603D01*
X115735340Y-122101280D01*
X115742321Y-122088422D01*
X115866695Y-121859354D01*
X115866696Y-121859352D01*
X115868745Y-121855578D01*
X115967570Y-121594044D01*
X116013962Y-121391488D01*
X116029030Y-121325698D01*
X116029031Y-121325693D01*
X116029987Y-121321518D01*
X116054840Y-121043043D01*
X116055154Y-121013125D01*
X116055265Y-121002484D01*
X116055265Y-121002483D01*
X116055291Y-121000000D01*
X116055122Y-120997520D01*
X116040634Y-120785001D01*
X147444758Y-120785001D01*
X147462035Y-120941496D01*
X147516143Y-121089353D01*
X147520380Y-121095659D01*
X147520382Y-121095662D01*
X147560709Y-121155674D01*
X147603958Y-121220035D01*
X147720410Y-121325998D01*
X147727085Y-121329622D01*
X147852099Y-121397500D01*
X147852101Y-121397501D01*
X147858776Y-121401125D01*
X147866125Y-121403053D01*
X148003719Y-121439150D01*
X148003721Y-121439150D01*
X148011069Y-121441078D01*
X148094380Y-121442387D01*
X148160898Y-121443432D01*
X148160901Y-121443432D01*
X148168495Y-121443551D01*
X148321968Y-121408401D01*
X148462625Y-121337658D01*
X148488869Y-121315244D01*
X148576574Y-121240337D01*
X148576576Y-121240334D01*
X148582348Y-121235405D01*
X148674224Y-121107546D01*
X148732950Y-120961461D01*
X148741869Y-120898793D01*
X148754553Y-120809670D01*
X148754553Y-120809667D01*
X148755134Y-120805586D01*
X148755278Y-120791863D01*
X148736363Y-120635557D01*
X148716307Y-120582479D01*
X148683394Y-120495377D01*
X148683393Y-120495374D01*
X148680710Y-120488275D01*
X148591531Y-120358520D01*
X148519635Y-120294463D01*
X148479648Y-120258835D01*
X148479645Y-120258833D01*
X148473976Y-120253782D01*
X148334831Y-120180108D01*
X148318122Y-120175911D01*
X148189498Y-120143603D01*
X148189496Y-120143603D01*
X148182128Y-120141752D01*
X148174530Y-120141712D01*
X148174528Y-120141712D01*
X148107319Y-120141360D01*
X148024684Y-120140928D01*
X148017305Y-120142700D01*
X148017301Y-120142700D01*
X147878967Y-120175911D01*
X147878963Y-120175912D01*
X147871588Y-120177683D01*
X147731679Y-120249895D01*
X147725957Y-120254887D01*
X147725955Y-120254888D01*
X147618759Y-120348401D01*
X147618756Y-120348404D01*
X147613034Y-120353396D01*
X147590396Y-120385607D01*
X147530512Y-120470813D01*
X147522501Y-120482211D01*
X147465309Y-120628902D01*
X147462491Y-120650305D01*
X147445766Y-120777348D01*
X147444758Y-120785001D01*
X116040634Y-120785001D01*
X116036567Y-120725342D01*
X116036566Y-120725336D01*
X116036275Y-120721065D01*
X116035161Y-120715683D01*
X115980450Y-120451498D01*
X115979579Y-120447292D01*
X115977849Y-120442405D01*
X115887684Y-120187787D01*
X115886253Y-120183746D01*
X115758022Y-119935304D01*
X115653368Y-119786395D01*
X115599724Y-119710067D01*
X115599721Y-119710064D01*
X115597261Y-119706563D01*
X115581785Y-119689908D01*
X115409861Y-119504896D01*
X115409860Y-119504895D01*
X115406944Y-119501757D01*
X115190591Y-119324675D01*
X114952208Y-119178594D01*
X114934738Y-119170925D01*
X114700133Y-119067940D01*
X114700129Y-119067939D01*
X114696205Y-119066216D01*
X114427319Y-118989622D01*
X114221307Y-118960302D01*
X114154778Y-118950834D01*
X114154776Y-118950834D01*
X114150526Y-118950229D01*
X114003177Y-118949457D01*
X113875233Y-118948787D01*
X113875226Y-118948787D01*
X113870947Y-118948765D01*
X113866703Y-118949324D01*
X113866699Y-118949324D01*
X113746230Y-118965184D01*
X113593757Y-118985257D01*
X113589617Y-118986390D01*
X113589615Y-118986390D01*
X113409596Y-119035638D01*
X113324083Y-119059032D01*
X113066917Y-119168722D01*
X112966234Y-119228980D01*
X112830700Y-119310095D01*
X112830696Y-119310098D01*
X112827018Y-119312299D01*
X112608823Y-119487106D01*
X112416371Y-119689908D01*
X112253223Y-119916952D01*
X112222442Y-119975087D01*
X112131014Y-120147766D01*
X112122398Y-120164038D01*
X112120926Y-120168061D01*
X112120924Y-120168065D01*
X112032240Y-120410406D01*
X112026317Y-120426592D01*
X111966757Y-120699757D01*
X111966421Y-120704026D01*
X111946659Y-120955140D01*
X111944822Y-120978477D01*
X110252033Y-120978477D01*
X110250500Y-120962915D01*
X110250500Y-117885001D01*
X147444758Y-117885001D01*
X147462035Y-118041496D01*
X147516143Y-118189353D01*
X147520380Y-118195659D01*
X147520382Y-118195662D01*
X147532774Y-118214103D01*
X147603958Y-118320035D01*
X147622663Y-118337055D01*
X147690896Y-118399142D01*
X147720410Y-118425998D01*
X147743675Y-118438630D01*
X147852099Y-118497500D01*
X147852101Y-118497501D01*
X147858776Y-118501125D01*
X147866125Y-118503053D01*
X148003719Y-118539150D01*
X148003721Y-118539150D01*
X148011069Y-118541078D01*
X148094380Y-118542387D01*
X148160898Y-118543432D01*
X148160901Y-118543432D01*
X148168495Y-118543551D01*
X148321968Y-118508401D01*
X148462625Y-118437658D01*
X148488869Y-118415244D01*
X148576574Y-118340337D01*
X148576576Y-118340334D01*
X148582348Y-118335405D01*
X148674224Y-118207546D01*
X148687679Y-118174077D01*
X148700037Y-118143334D01*
X148732950Y-118061461D01*
X148739953Y-118012256D01*
X148754553Y-117909670D01*
X148754553Y-117909667D01*
X148755134Y-117905586D01*
X148755278Y-117891863D01*
X148754442Y-117884950D01*
X148739446Y-117761035D01*
X148736363Y-117735557D01*
X148693600Y-117622388D01*
X148683394Y-117595377D01*
X148683393Y-117595374D01*
X148680710Y-117588275D01*
X148591531Y-117458520D01*
X148530940Y-117404535D01*
X148479648Y-117358835D01*
X148479645Y-117358833D01*
X148473976Y-117353782D01*
X148334831Y-117280108D01*
X148318122Y-117275911D01*
X148189498Y-117243603D01*
X148189496Y-117243603D01*
X148182128Y-117241752D01*
X148174530Y-117241712D01*
X148174528Y-117241712D01*
X148107319Y-117241360D01*
X148024684Y-117240928D01*
X148017305Y-117242700D01*
X148017301Y-117242700D01*
X147878967Y-117275911D01*
X147878963Y-117275912D01*
X147871588Y-117277683D01*
X147731679Y-117349895D01*
X147725957Y-117354887D01*
X147725955Y-117354888D01*
X147618759Y-117448401D01*
X147618756Y-117448404D01*
X147613034Y-117453396D01*
X147589647Y-117486672D01*
X147552324Y-117539778D01*
X147522501Y-117582211D01*
X147465309Y-117728902D01*
X147444758Y-117885001D01*
X110250500Y-117885001D01*
X110250500Y-116200000D01*
X119200000Y-116200000D01*
X119556044Y-116200000D01*
X119600272Y-116208018D01*
X119621522Y-116215984D01*
X119621525Y-116215985D01*
X119628920Y-116218757D01*
X119636770Y-116219610D01*
X119636771Y-116219610D01*
X119686717Y-116225036D01*
X119690123Y-116225406D01*
X120524877Y-116225406D01*
X121359876Y-116225405D01*
X121363270Y-116225036D01*
X121363276Y-116225036D01*
X121413222Y-116219611D01*
X121413226Y-116219610D01*
X121421080Y-116218757D01*
X121428480Y-116215983D01*
X121428484Y-116215982D01*
X121449728Y-116208018D01*
X121493956Y-116200000D01*
X124481044Y-116200000D01*
X124525272Y-116208018D01*
X124546522Y-116215984D01*
X124546525Y-116215985D01*
X124553920Y-116218757D01*
X124561770Y-116219610D01*
X124561771Y-116219610D01*
X124611717Y-116225036D01*
X124615123Y-116225406D01*
X125449877Y-116225406D01*
X126284876Y-116225405D01*
X126288270Y-116225036D01*
X126288276Y-116225036D01*
X126338222Y-116219611D01*
X126338226Y-116219610D01*
X126346080Y-116218757D01*
X126353480Y-116215983D01*
X126353484Y-116215982D01*
X126374728Y-116208018D01*
X126418956Y-116200000D01*
X126800000Y-116200000D01*
X126800000Y-109748724D01*
X127226184Y-109748724D01*
X127243461Y-109905219D01*
X127297569Y-110053076D01*
X127301806Y-110059382D01*
X127301808Y-110059385D01*
X127342135Y-110119397D01*
X127385384Y-110183758D01*
X127501836Y-110289721D01*
X127508511Y-110293345D01*
X127633525Y-110361223D01*
X127633527Y-110361224D01*
X127640202Y-110364848D01*
X127647551Y-110366776D01*
X127785145Y-110402873D01*
X127785147Y-110402873D01*
X127792495Y-110404801D01*
X127875806Y-110406110D01*
X127942324Y-110407155D01*
X127942327Y-110407155D01*
X127949921Y-110407274D01*
X128103394Y-110372124D01*
X128244051Y-110301381D01*
X128270295Y-110278967D01*
X128358000Y-110204060D01*
X128358002Y-110204057D01*
X128363774Y-110199128D01*
X128455650Y-110071269D01*
X128514376Y-109925184D01*
X128536560Y-109769309D01*
X128536704Y-109755586D01*
X128517789Y-109599280D01*
X128481495Y-109503230D01*
X128464820Y-109459100D01*
X128464819Y-109459097D01*
X128462136Y-109451998D01*
X128372957Y-109322243D01*
X128326397Y-109280760D01*
X128261074Y-109222558D01*
X128261071Y-109222556D01*
X128255402Y-109217505D01*
X128116257Y-109143831D01*
X128099548Y-109139634D01*
X127970924Y-109107326D01*
X127970922Y-109107326D01*
X127963554Y-109105475D01*
X127955956Y-109105435D01*
X127955954Y-109105435D01*
X127888745Y-109105083D01*
X127806110Y-109104651D01*
X127798731Y-109106423D01*
X127798727Y-109106423D01*
X127660393Y-109139634D01*
X127660389Y-109139635D01*
X127653014Y-109141406D01*
X127513105Y-109213618D01*
X127507383Y-109218610D01*
X127507381Y-109218611D01*
X127400185Y-109312124D01*
X127400182Y-109312127D01*
X127394460Y-109317119D01*
X127390093Y-109323333D01*
X127315544Y-109429405D01*
X127303927Y-109445934D01*
X127246735Y-109592625D01*
X127226184Y-109748724D01*
X126800000Y-109748724D01*
X126800000Y-97800000D01*
X126419457Y-97800000D01*
X126375228Y-97791982D01*
X126353475Y-97783827D01*
X126353474Y-97783827D01*
X126346080Y-97781055D01*
X126338230Y-97780202D01*
X126338229Y-97780202D01*
X126288274Y-97774775D01*
X126288273Y-97774775D01*
X126284877Y-97774406D01*
X125450123Y-97774406D01*
X124615124Y-97774407D01*
X124611730Y-97774776D01*
X124611724Y-97774776D01*
X124561778Y-97780201D01*
X124561774Y-97780202D01*
X124553920Y-97781055D01*
X124524772Y-97791982D01*
X124480543Y-97800000D01*
X121494457Y-97800000D01*
X121450228Y-97791982D01*
X121428475Y-97783827D01*
X121428474Y-97783827D01*
X121421080Y-97781055D01*
X121413230Y-97780202D01*
X121413229Y-97780202D01*
X121363274Y-97774775D01*
X121363273Y-97774775D01*
X121359877Y-97774406D01*
X120525123Y-97774406D01*
X119690124Y-97774407D01*
X119686730Y-97774776D01*
X119686724Y-97774776D01*
X119636778Y-97780201D01*
X119636774Y-97780202D01*
X119628920Y-97781055D01*
X119599772Y-97791982D01*
X119555543Y-97800000D01*
X119200000Y-97800000D01*
X119200000Y-116200000D01*
X110250500Y-116200000D01*
X110250500Y-95785001D01*
X130244758Y-95785001D01*
X130262035Y-95941496D01*
X130316143Y-96089353D01*
X130320380Y-96095659D01*
X130320382Y-96095662D01*
X130360709Y-96155674D01*
X130403958Y-96220035D01*
X130520410Y-96325998D01*
X130527085Y-96329622D01*
X130652099Y-96397500D01*
X130652101Y-96397501D01*
X130658776Y-96401125D01*
X130666125Y-96403053D01*
X130803719Y-96439150D01*
X130803721Y-96439150D01*
X130811069Y-96441078D01*
X130894380Y-96442387D01*
X130960898Y-96443432D01*
X130960901Y-96443432D01*
X130968495Y-96443551D01*
X131121968Y-96408401D01*
X131262625Y-96337658D01*
X131288869Y-96315244D01*
X131376574Y-96240337D01*
X131376576Y-96240334D01*
X131382348Y-96235405D01*
X131474224Y-96107546D01*
X131532950Y-95961461D01*
X131555134Y-95805586D01*
X131555278Y-95791863D01*
X131536363Y-95635557D01*
X131531175Y-95621826D01*
X131483394Y-95495377D01*
X131483393Y-95495374D01*
X131480710Y-95488275D01*
X131391531Y-95358520D01*
X131327719Y-95301665D01*
X131279648Y-95258835D01*
X131279645Y-95258833D01*
X131273976Y-95253782D01*
X131134831Y-95180108D01*
X131106963Y-95173108D01*
X130989498Y-95143603D01*
X130989496Y-95143603D01*
X130982128Y-95141752D01*
X130974530Y-95141712D01*
X130974528Y-95141712D01*
X130907319Y-95141360D01*
X130824684Y-95140928D01*
X130817305Y-95142700D01*
X130817301Y-95142700D01*
X130678967Y-95175911D01*
X130678963Y-95175912D01*
X130671588Y-95177683D01*
X130531679Y-95249895D01*
X130525957Y-95254887D01*
X130525955Y-95254888D01*
X130418759Y-95348401D01*
X130418756Y-95348404D01*
X130413034Y-95353396D01*
X130380280Y-95400000D01*
X130329895Y-95471691D01*
X130322501Y-95482211D01*
X130265309Y-95628902D01*
X130244758Y-95785001D01*
X110250500Y-95785001D01*
X110250500Y-95400000D01*
X118200000Y-95400000D01*
X129400000Y-95400000D01*
X129400000Y-92985001D01*
X130244758Y-92985001D01*
X130262035Y-93141496D01*
X130316143Y-93289353D01*
X130320380Y-93295659D01*
X130320382Y-93295662D01*
X130334885Y-93317244D01*
X130403958Y-93420035D01*
X130520410Y-93525998D01*
X130532796Y-93532723D01*
X130652099Y-93597500D01*
X130652101Y-93597501D01*
X130658776Y-93601125D01*
X130666125Y-93603053D01*
X130803719Y-93639150D01*
X130803721Y-93639150D01*
X130811069Y-93641078D01*
X130894380Y-93642387D01*
X130960898Y-93643432D01*
X130960901Y-93643432D01*
X130968495Y-93643551D01*
X131121968Y-93608401D01*
X131262625Y-93537658D01*
X131288869Y-93515244D01*
X131376574Y-93440337D01*
X131376576Y-93440334D01*
X131382348Y-93435405D01*
X131474224Y-93307546D01*
X131532950Y-93161461D01*
X131548241Y-93054018D01*
X131554553Y-93009670D01*
X131554553Y-93009667D01*
X131555134Y-93005586D01*
X131555278Y-92991863D01*
X131536363Y-92835557D01*
X131512673Y-92772862D01*
X131486132Y-92702623D01*
X161499500Y-92702623D01*
X161499501Y-94247376D01*
X161499870Y-94250770D01*
X161499870Y-94250776D01*
X161502680Y-94276639D01*
X161506149Y-94308580D01*
X161556474Y-94442824D01*
X161561854Y-94450003D01*
X161561856Y-94450006D01*
X161619845Y-94527379D01*
X161642454Y-94557546D01*
X161649635Y-94562928D01*
X161749994Y-94638144D01*
X161749997Y-94638146D01*
X161757176Y-94643526D01*
X161801156Y-94660013D01*
X161884025Y-94691079D01*
X161884027Y-94691079D01*
X161891420Y-94693851D01*
X161899270Y-94694704D01*
X161899271Y-94694704D01*
X161947017Y-94699891D01*
X161952623Y-94700500D01*
X162599905Y-94700500D01*
X163247376Y-94700499D01*
X163250770Y-94700130D01*
X163250776Y-94700130D01*
X163300722Y-94694705D01*
X163300726Y-94694704D01*
X163308580Y-94693851D01*
X163442824Y-94643526D01*
X163450003Y-94638146D01*
X163450006Y-94638144D01*
X163550365Y-94562928D01*
X163557546Y-94557546D01*
X163580155Y-94527379D01*
X163638144Y-94450006D01*
X163638146Y-94450003D01*
X163643526Y-94442824D01*
X163687095Y-94326603D01*
X163691079Y-94315975D01*
X163691079Y-94315973D01*
X163693851Y-94308580D01*
X163700500Y-94247377D01*
X163700500Y-93652469D01*
X166499500Y-93652469D01*
X166514439Y-93809046D01*
X166573553Y-94010549D01*
X166669705Y-94197239D01*
X166673409Y-94201954D01*
X166795718Y-94357662D01*
X166795722Y-94357667D01*
X166799424Y-94362379D01*
X166803954Y-94366310D01*
X166803955Y-94366311D01*
X166953498Y-94496079D01*
X166953503Y-94496083D01*
X166958029Y-94500010D01*
X167139799Y-94605166D01*
X167234766Y-94638144D01*
X167332509Y-94672086D01*
X167332511Y-94672086D01*
X167338174Y-94674053D01*
X167344109Y-94674914D01*
X167344111Y-94674914D01*
X167540056Y-94703325D01*
X167540059Y-94703325D01*
X167545996Y-94704186D01*
X167755767Y-94694477D01*
X167887547Y-94662718D01*
X167954085Y-94646682D01*
X167954087Y-94646681D01*
X167959918Y-94645276D01*
X167965376Y-94642794D01*
X167965380Y-94642793D01*
X168145626Y-94560840D01*
X168151081Y-94558360D01*
X168322360Y-94436863D01*
X168467575Y-94285169D01*
X168494185Y-94243958D01*
X168578233Y-94113791D01*
X168578234Y-94113788D01*
X168581485Y-94108754D01*
X168621063Y-94010549D01*
X168657739Y-93919545D01*
X168657740Y-93919542D01*
X168659981Y-93913981D01*
X168661129Y-93908100D01*
X168661131Y-93908095D01*
X168699362Y-93712324D01*
X168699362Y-93712321D01*
X168700230Y-93707878D01*
X168700500Y-93702357D01*
X168700500Y-93297531D01*
X168685561Y-93140954D01*
X168683506Y-93133947D01*
X168656503Y-93041905D01*
X168626447Y-92939451D01*
X168569280Y-92828454D01*
X168533041Y-92758092D01*
X168533039Y-92758089D01*
X168530295Y-92752761D01*
X168457824Y-92660501D01*
X168404282Y-92592338D01*
X168404278Y-92592333D01*
X168400576Y-92587621D01*
X168396045Y-92583689D01*
X168246502Y-92453921D01*
X168246497Y-92453917D01*
X168241971Y-92449990D01*
X168060201Y-92344834D01*
X167940647Y-92303318D01*
X167867491Y-92277914D01*
X167867489Y-92277914D01*
X167861826Y-92275947D01*
X167855891Y-92275086D01*
X167855889Y-92275086D01*
X167659944Y-92246675D01*
X167659941Y-92246675D01*
X167654004Y-92245814D01*
X167444233Y-92255523D01*
X167312453Y-92287282D01*
X167245915Y-92303318D01*
X167245913Y-92303319D01*
X167240082Y-92304724D01*
X167234624Y-92307206D01*
X167234620Y-92307207D01*
X167118270Y-92360108D01*
X167048919Y-92391640D01*
X166877640Y-92513137D01*
X166732425Y-92664831D01*
X166729174Y-92669866D01*
X166626775Y-92828454D01*
X166618515Y-92841246D01*
X166616273Y-92846809D01*
X166546080Y-93020981D01*
X166540019Y-93036019D01*
X166538871Y-93041900D01*
X166538869Y-93041905D01*
X166515522Y-93161461D01*
X166499770Y-93242122D01*
X166499500Y-93247643D01*
X166499500Y-93652469D01*
X163700500Y-93652469D01*
X163700499Y-92702624D01*
X163699051Y-92689293D01*
X163694705Y-92649278D01*
X163694704Y-92649274D01*
X163693851Y-92641420D01*
X163643526Y-92507176D01*
X163638146Y-92499997D01*
X163638144Y-92499994D01*
X163562928Y-92399635D01*
X163557546Y-92392454D01*
X163541073Y-92380108D01*
X163450006Y-92311856D01*
X163450003Y-92311854D01*
X163442824Y-92306474D01*
X163325538Y-92262506D01*
X163315975Y-92258921D01*
X163315973Y-92258921D01*
X163308580Y-92256149D01*
X163300730Y-92255296D01*
X163300729Y-92255296D01*
X163250774Y-92249869D01*
X163250773Y-92249869D01*
X163247377Y-92249500D01*
X162600095Y-92249500D01*
X161952624Y-92249501D01*
X161949230Y-92249870D01*
X161949224Y-92249870D01*
X161899278Y-92255295D01*
X161899274Y-92255296D01*
X161891420Y-92256149D01*
X161757176Y-92306474D01*
X161749997Y-92311854D01*
X161749994Y-92311856D01*
X161658927Y-92380108D01*
X161642454Y-92392454D01*
X161637072Y-92399635D01*
X161561856Y-92499994D01*
X161561854Y-92499997D01*
X161556474Y-92507176D01*
X161536818Y-92559610D01*
X161509499Y-92632485D01*
X161506149Y-92641420D01*
X161505296Y-92649270D01*
X161505296Y-92649271D01*
X161501059Y-92688275D01*
X161499500Y-92702623D01*
X131486132Y-92702623D01*
X131483394Y-92695377D01*
X131483393Y-92695374D01*
X131480710Y-92688275D01*
X131391531Y-92558520D01*
X131325843Y-92499994D01*
X131279648Y-92458835D01*
X131279645Y-92458833D01*
X131273976Y-92453782D01*
X131134831Y-92380108D01*
X131006366Y-92347840D01*
X130989498Y-92343603D01*
X130989496Y-92343603D01*
X130982128Y-92341752D01*
X130974530Y-92341712D01*
X130974528Y-92341712D01*
X130907319Y-92341360D01*
X130824684Y-92340928D01*
X130817305Y-92342700D01*
X130817301Y-92342700D01*
X130678967Y-92375911D01*
X130678963Y-92375912D01*
X130671588Y-92377683D01*
X130531679Y-92449895D01*
X130525957Y-92454887D01*
X130525955Y-92454888D01*
X130418759Y-92548401D01*
X130418756Y-92548404D01*
X130413034Y-92553396D01*
X130408667Y-92559610D01*
X130345652Y-92649271D01*
X130322501Y-92682211D01*
X130265309Y-92828902D01*
X130260827Y-92862945D01*
X130246020Y-92975418D01*
X130244758Y-92985001D01*
X129400000Y-92985001D01*
X129400000Y-92400000D01*
X118200000Y-92400000D01*
X118200000Y-95400000D01*
X110250500Y-95400000D01*
X110250500Y-93037085D01*
X110252921Y-93012504D01*
X110252987Y-93012172D01*
X110252987Y-93012171D01*
X110255408Y-93000000D01*
X110252987Y-92987829D01*
X110252987Y-92978477D01*
X111944822Y-92978477D01*
X111960916Y-93257596D01*
X112014741Y-93531948D01*
X112016127Y-93535996D01*
X112074976Y-93707878D01*
X112105303Y-93796457D01*
X112111635Y-93809046D01*
X112215660Y-94015876D01*
X112230925Y-94046228D01*
X112389282Y-94276639D01*
X112392169Y-94279812D01*
X112392170Y-94279813D01*
X112437546Y-94329681D01*
X112577444Y-94483427D01*
X112580725Y-94486170D01*
X112788638Y-94660013D01*
X112788643Y-94660017D01*
X112791930Y-94662765D01*
X112842845Y-94694704D01*
X113025131Y-94809052D01*
X113025135Y-94809054D01*
X113028771Y-94811335D01*
X113032681Y-94813100D01*
X113032682Y-94813101D01*
X113279671Y-94924621D01*
X113279675Y-94924623D01*
X113283583Y-94926387D01*
X113287702Y-94927607D01*
X113547539Y-95004575D01*
X113547544Y-95004576D01*
X113551652Y-95005793D01*
X113555886Y-95006441D01*
X113555891Y-95006442D01*
X113798904Y-95043628D01*
X113828018Y-95048083D01*
X113970396Y-95050319D01*
X114103275Y-95052407D01*
X114103281Y-95052407D01*
X114107566Y-95052474D01*
X114385123Y-95018886D01*
X114655554Y-94947940D01*
X114659514Y-94946300D01*
X114659519Y-94946298D01*
X114784704Y-94894444D01*
X114913855Y-94840948D01*
X115148371Y-94703908D01*
X115151542Y-94702055D01*
X115151543Y-94702054D01*
X115155245Y-94699891D01*
X115375258Y-94527379D01*
X115398870Y-94503014D01*
X115566840Y-94329681D01*
X115569823Y-94326603D01*
X115735340Y-94101280D01*
X115737386Y-94097512D01*
X115866695Y-93859354D01*
X115866696Y-93859352D01*
X115868745Y-93855578D01*
X115967570Y-93594044D01*
X116029987Y-93321518D01*
X116054840Y-93043043D01*
X116054903Y-93037085D01*
X116055265Y-93002484D01*
X116055265Y-93002483D01*
X116055291Y-93000000D01*
X116054330Y-92985897D01*
X116036567Y-92725342D01*
X116036566Y-92725336D01*
X116036275Y-92721065D01*
X116033164Y-92706040D01*
X115980450Y-92451498D01*
X115979579Y-92447292D01*
X115973734Y-92430784D01*
X115887684Y-92187787D01*
X115886253Y-92183746D01*
X115758022Y-91935304D01*
X115597261Y-91706563D01*
X115581785Y-91689908D01*
X115409861Y-91504896D01*
X115409860Y-91504895D01*
X115406944Y-91501757D01*
X115190591Y-91324675D01*
X114952208Y-91178594D01*
X114934738Y-91170925D01*
X114700133Y-91067940D01*
X114700129Y-91067939D01*
X114696205Y-91066216D01*
X114427319Y-90989622D01*
X114221307Y-90960302D01*
X114154778Y-90950834D01*
X114154776Y-90950834D01*
X114150526Y-90950229D01*
X114003177Y-90949457D01*
X113875233Y-90948787D01*
X113875226Y-90948787D01*
X113870947Y-90948765D01*
X113866703Y-90949324D01*
X113866699Y-90949324D01*
X113745358Y-90965299D01*
X113593757Y-90985257D01*
X113589617Y-90986390D01*
X113589615Y-90986390D01*
X113328228Y-91057898D01*
X113324083Y-91059032D01*
X113066917Y-91168722D01*
X112951009Y-91238092D01*
X112830700Y-91310095D01*
X112830696Y-91310098D01*
X112827018Y-91312299D01*
X112608823Y-91487106D01*
X112416371Y-91689908D01*
X112253223Y-91916952D01*
X112122398Y-92164038D01*
X112120926Y-92168061D01*
X112120924Y-92168065D01*
X112038810Y-92392454D01*
X112026317Y-92426592D01*
X111966757Y-92699757D01*
X111966421Y-92704026D01*
X111948313Y-92934124D01*
X111944822Y-92978477D01*
X110252987Y-92978477D01*
X110252987Y-92975418D01*
X110253026Y-92975418D01*
X110252235Y-92964690D01*
X110266121Y-92682020D01*
X110268251Y-92638663D01*
X110269463Y-92626362D01*
X110279365Y-92559610D01*
X110321639Y-92274625D01*
X110324046Y-92262519D01*
X110410447Y-91917584D01*
X110414036Y-91905754D01*
X110533829Y-91570956D01*
X110538561Y-91559532D01*
X110649640Y-91324675D01*
X110690592Y-91238088D01*
X110696419Y-91227187D01*
X110726581Y-91176866D01*
X110838106Y-90990798D01*
X110879225Y-90922195D01*
X110886095Y-90911914D01*
X110998754Y-90760010D01*
X111097913Y-90626309D01*
X111105740Y-90616770D01*
X111344551Y-90353284D01*
X111353284Y-90344551D01*
X111616770Y-90105740D01*
X111626309Y-90097913D01*
X111911914Y-89886095D01*
X111922195Y-89879225D01*
X112227187Y-89696419D01*
X112238088Y-89690592D01*
X112420316Y-89604405D01*
X112559532Y-89538561D01*
X112570956Y-89533829D01*
X112905754Y-89414036D01*
X112917586Y-89410447D01*
X113262519Y-89324046D01*
X113274625Y-89321639D01*
X113626367Y-89269462D01*
X113638663Y-89268251D01*
X113763577Y-89262115D01*
X113964690Y-89252235D01*
X113975418Y-89253026D01*
X113975418Y-89252987D01*
X113987829Y-89252987D01*
X114000000Y-89255408D01*
X114012171Y-89252987D01*
X114012172Y-89252987D01*
X114012504Y-89252921D01*
X114037085Y-89250500D01*
X180962915Y-89250500D01*
X180987496Y-89252921D01*
G37*
%TD.AperFunction*%
%TA.AperFunction,Conductor*%
G36*
X157568466Y-117207908D02*
G01*
X157614959Y-117261564D01*
X157625063Y-117331838D01*
X157595569Y-117396418D01*
X157587977Y-117403118D01*
X157588493Y-117403634D01*
X157579715Y-117412412D01*
X157569399Y-117419305D01*
X157549958Y-117448401D01*
X157524387Y-117486672D01*
X157514034Y-117502166D01*
X157499500Y-117575232D01*
X157499500Y-118824580D01*
X157514034Y-118897646D01*
X157569399Y-118980507D01*
X157579715Y-118987400D01*
X157588493Y-118996178D01*
X157585455Y-118999216D01*
X157615883Y-119035638D01*
X157624719Y-119106082D01*
X157594067Y-119170121D01*
X157533659Y-119207422D01*
X157500345Y-119211906D01*
X156495996Y-119211906D01*
X156472708Y-119209427D01*
X156470610Y-119209328D01*
X156460433Y-119207137D01*
X156428370Y-119210932D01*
X156427515Y-119211033D01*
X156421679Y-119211377D01*
X156421687Y-119211478D01*
X156416508Y-119211906D01*
X156411307Y-119211906D01*
X156406177Y-119212760D01*
X156406175Y-119212760D01*
X156392508Y-119215035D01*
X156386631Y-119215872D01*
X156336290Y-119221830D01*
X156328123Y-119225752D01*
X156319187Y-119227239D01*
X156310025Y-119232183D01*
X156310021Y-119232184D01*
X156274571Y-119251312D01*
X156269280Y-119254008D01*
X156230751Y-119272509D01*
X156223600Y-119275943D01*
X156219369Y-119279500D01*
X156217437Y-119281432D01*
X156215563Y-119283151D01*
X156215426Y-119283225D01*
X156215326Y-119283115D01*
X156214846Y-119283538D01*
X156209171Y-119286600D01*
X156202100Y-119294250D01*
X156202098Y-119294251D01*
X156188524Y-119308935D01*
X156127596Y-119345381D01*
X156095999Y-119349407D01*
X155956606Y-119349407D01*
X155888485Y-119329405D01*
X155856382Y-119297229D01*
X155855984Y-119297572D01*
X155851300Y-119292135D01*
X155851294Y-119292129D01*
X155794100Y-119225752D01*
X155768260Y-119195763D01*
X155768257Y-119195760D01*
X155762400Y-119188963D01*
X155642095Y-119110985D01*
X155504739Y-119069907D01*
X155495763Y-119069852D01*
X155495762Y-119069852D01*
X155435555Y-119069484D01*
X155361376Y-119069031D01*
X155352744Y-119071498D01*
X155343853Y-119072716D01*
X155343359Y-119069114D01*
X155289684Y-119068750D01*
X155230219Y-119029963D01*
X155201164Y-118965184D01*
X155200000Y-118948097D01*
X155200000Y-118858133D01*
X155220002Y-118790012D01*
X155236905Y-118769038D01*
X156781132Y-117224811D01*
X156843444Y-117190785D01*
X156870227Y-117187906D01*
X157500345Y-117187906D01*
X157568466Y-117207908D01*
G37*
%TD.AperFunction*%
%TA.AperFunction,Conductor*%
G36*
X158738901Y-113525876D02*
G01*
X158779869Y-113529424D01*
X158789979Y-113526913D01*
X158800357Y-113526096D01*
X158800409Y-113526758D01*
X158811459Y-113525406D01*
X160574000Y-113525406D01*
X160642121Y-113545408D01*
X160688614Y-113599064D01*
X160700000Y-113651406D01*
X160700000Y-114363411D01*
X160679998Y-114431532D01*
X160626342Y-114478025D01*
X160573230Y-114489409D01*
X160511376Y-114489031D01*
X160442302Y-114508773D01*
X160371308Y-114508261D01*
X160350474Y-114499891D01*
X160320254Y-114484493D01*
X160292175Y-114470186D01*
X160200735Y-114455703D01*
X160000021Y-114455703D01*
X159799266Y-114455704D01*
X159794372Y-114456479D01*
X159794373Y-114456479D01*
X159717617Y-114468635D01*
X159717616Y-114468635D01*
X159707825Y-114470186D01*
X159597609Y-114526344D01*
X159570071Y-114553882D01*
X159507759Y-114587908D01*
X159436944Y-114582843D01*
X159414836Y-114571100D01*
X159411956Y-114568225D01*
X159296656Y-114511865D01*
X159264221Y-114507133D01*
X159226061Y-114501566D01*
X159226057Y-114501566D01*
X159221535Y-114500906D01*
X159000845Y-114500906D01*
X158778466Y-114500907D01*
X158702691Y-114512060D01*
X158683372Y-114521545D01*
X158674887Y-114525711D01*
X158604923Y-114537779D01*
X158539542Y-114510105D01*
X158499501Y-114451477D01*
X158497513Y-114380508D01*
X158506153Y-114357282D01*
X158559541Y-114248062D01*
X158570500Y-114172941D01*
X158570499Y-113829872D01*
X158559346Y-113754097D01*
X158536191Y-113706935D01*
X158524123Y-113636975D01*
X158551796Y-113571593D01*
X158610423Y-113531552D01*
X158649294Y-113525406D01*
X158728030Y-113525406D01*
X158738901Y-113525876D01*
G37*
%TD.AperFunction*%
%TA.AperFunction,Conductor*%
G36*
X160629190Y-111855522D02*
G01*
X160681667Y-111903342D01*
X160700000Y-111968792D01*
X160700000Y-112648406D01*
X160679998Y-112716527D01*
X160626342Y-112763020D01*
X160574000Y-112774406D01*
X159446500Y-112774406D01*
X159378379Y-112754404D01*
X159331886Y-112700748D01*
X159320500Y-112648406D01*
X159320499Y-112328635D01*
X159320499Y-112324027D01*
X159309346Y-112248252D01*
X159252784Y-112133050D01*
X159245411Y-112125690D01*
X159242112Y-112121082D01*
X159218721Y-112054049D01*
X159235284Y-111985011D01*
X159286542Y-111935888D01*
X159356222Y-111922275D01*
X159399896Y-111934534D01*
X159503345Y-111985101D01*
X159535780Y-111989833D01*
X159573940Y-111995400D01*
X159573944Y-111995400D01*
X159578466Y-111996060D01*
X159799156Y-111996060D01*
X160021535Y-111996059D01*
X160097310Y-111984906D01*
X160199905Y-111934534D01*
X160203164Y-111932934D01*
X160203165Y-111932933D01*
X160212512Y-111928344D01*
X160252744Y-111888042D01*
X160315027Y-111853963D01*
X160341917Y-111851060D01*
X160420850Y-111851060D01*
X160444147Y-111853539D01*
X160446232Y-111853637D01*
X160456412Y-111855829D01*
X160489330Y-111851933D01*
X160495167Y-111851589D01*
X160495159Y-111851488D01*
X160500338Y-111851060D01*
X160505539Y-111851060D01*
X160510667Y-111850206D01*
X160510673Y-111850206D01*
X160524333Y-111847932D01*
X160530210Y-111847095D01*
X160559191Y-111843665D01*
X160629190Y-111855522D01*
G37*
%TD.AperFunction*%
%TA.AperFunction,Conductor*%
G36*
X156789070Y-111715991D02*
G01*
X156799157Y-111719142D01*
X156808132Y-111719307D01*
X156811061Y-111719781D01*
X156875107Y-111750419D01*
X156879436Y-111754720D01*
X156883988Y-111761770D01*
X156892167Y-111768218D01*
X156892168Y-111768219D01*
X156910021Y-111782294D01*
X156914395Y-111786181D01*
X156914461Y-111786103D01*
X156918420Y-111789458D01*
X156922098Y-111793136D01*
X156926322Y-111796155D01*
X156926331Y-111796162D01*
X156937634Y-111804239D01*
X156942380Y-111807803D01*
X156954099Y-111817041D01*
X156982160Y-111839163D01*
X156990708Y-111842165D01*
X156998079Y-111847432D01*
X157008052Y-111850415D01*
X157008055Y-111850416D01*
X157046643Y-111861956D01*
X157052290Y-111863791D01*
X157092624Y-111877955D01*
X157092625Y-111877955D01*
X157100108Y-111880583D01*
X157105615Y-111881060D01*
X157108322Y-111881060D01*
X157110892Y-111881171D01*
X157111054Y-111881219D01*
X157111048Y-111881364D01*
X157111668Y-111881403D01*
X157117847Y-111883251D01*
X157171141Y-111881157D01*
X157176087Y-111881060D01*
X157211060Y-111881060D01*
X157279181Y-111901062D01*
X157300155Y-111917965D01*
X157347609Y-111965419D01*
X157457825Y-112021577D01*
X157549265Y-112036060D01*
X157749979Y-112036060D01*
X157950734Y-112036059D01*
X157986655Y-112030370D01*
X158032383Y-112023128D01*
X158032384Y-112023128D01*
X158042175Y-112021577D01*
X158051598Y-112016776D01*
X158052391Y-112016627D01*
X158060442Y-112014011D01*
X158060780Y-112015051D01*
X158121374Y-112003671D01*
X158187159Y-112030370D01*
X158228066Y-112088396D01*
X158231108Y-112159328D01*
X158222002Y-112184375D01*
X158190459Y-112248905D01*
X158179500Y-112324026D01*
X158179500Y-112328599D01*
X158179501Y-112648406D01*
X158159499Y-112716526D01*
X158105844Y-112763019D01*
X158053501Y-112774406D01*
X156907727Y-112774406D01*
X156839606Y-112754404D01*
X156818632Y-112737501D01*
X156652580Y-112571449D01*
X156618554Y-112509137D01*
X156619040Y-112458507D01*
X156618851Y-112458486D01*
X156619059Y-112456574D01*
X156619059Y-112456571D01*
X156625500Y-112397283D01*
X156625499Y-111836258D01*
X156645501Y-111768137D01*
X156699157Y-111721644D01*
X156769430Y-111711540D01*
X156789070Y-111715991D01*
G37*
%TD.AperFunction*%
%TD*%
%TA.AperFunction,Conductor*%
%TO.N,Net-(R6-Pad1)*%
G36*
X159042121Y-109255561D02*
G01*
X159088614Y-109309217D01*
X159100000Y-109361559D01*
X159100000Y-111609560D01*
X159079998Y-111677681D01*
X159026342Y-111724174D01*
X158974000Y-111735560D01*
X158526000Y-111735560D01*
X158457879Y-111715558D01*
X158411386Y-111661902D01*
X158400000Y-111609560D01*
X158400000Y-109361559D01*
X158420002Y-109293438D01*
X158473658Y-109246945D01*
X158526000Y-109235559D01*
X158974000Y-109235559D01*
X159042121Y-109255561D01*
G37*
%TD.AperFunction*%
%TD*%
%TA.AperFunction,Conductor*%
%TO.N,Net-(C10-Pad2)*%
G36*
X159042121Y-119120002D02*
G01*
X159088614Y-119173658D01*
X159100000Y-119226000D01*
X159100000Y-120447810D01*
X159079998Y-120515931D01*
X159063095Y-120536905D01*
X158736905Y-120863095D01*
X158674593Y-120897121D01*
X158647810Y-120900000D01*
X158526000Y-120900000D01*
X158457879Y-120879998D01*
X158411386Y-120826342D01*
X158400000Y-120774000D01*
X158400000Y-119226000D01*
X158420002Y-119157879D01*
X158473658Y-119111386D01*
X158526000Y-119100000D01*
X158974000Y-119100000D01*
X159042121Y-119120002D01*
G37*
%TD.AperFunction*%
%TD*%
M02*
