M48
; DRILL file {KiCad (6.0.5)} date Fri Feb 17 00:10:59 2023
; FORMAT={-:-/ absolute / inch / decimal}
; #@! TF.CreationDate,2023-02-17T00:10:59+08:00
; #@! TF.GenerationSoftware,Kicad,Pcbnew,(6.0.5)
; #@! TF.FileFunction,Plated,1,4,PTH
FMAT,2
INCH
; #@! TA.AperFunction,Plated,PTH,ViaDrill
T1C0.0098
; #@! TA.AperFunction,Plated,PTH,ViaDrill
T2C0.0119
; #@! TA.AperFunction,Plated,PTH,ViaDrill
T3C0.0157
; #@! TA.AperFunction,Plated,PTH,ComponentDrill
T4C0.0295
; #@! TA.AperFunction,Plated,PTH,ComponentDrill
T5C0.0315
; #@! TA.AperFunction,Plated,PTH,ComponentDrill
T6C0.0374
; #@! TA.AperFunction,Plated,PTH,ComponentDrill
T7C0.0413
; #@! TA.AperFunction,Plated,PTH,ComponentDrill
T8C0.1260
%
G90
G05
T1
X5.179Y-4.1503
X5.1815Y-4.1882
X5.1846Y-4.534
X5.1969Y-4.7382
X5.2346Y-4.7405
X5.2372Y-4.3002
X5.2372Y-4.3238
X5.2638Y-4.312
X5.2654Y-4.6185
X5.2795Y-4.4047
X5.2831Y-4.4724
X5.2835Y-4.1256
X5.2904Y-4.3238
X5.2904Y-4.3002
X5.3075Y-4.5984
X5.3205Y-4.2571
X5.3504Y-4.6299
X5.3504Y-4.6831
X5.3553Y-4.1831
X5.3622Y-4.6565
X5.374Y-4.6299
X5.374Y-4.6831
X5.3878Y-4.1299
X5.4252Y-4.2087
X5.4563Y-4.6382
X5.5177Y-4.2244
X5.5807Y-4.7352
X5.5994Y-4.1821
X5.5994Y-4.2352
X5.6112Y-4.2087
X5.623Y-4.1821
X5.623Y-4.2352
X5.623Y-4.6998
X5.6622Y-4.6087
X5.665Y-4.2618
X5.686Y-4.5423
X5.686Y-4.5659
X5.6921Y-4.3921
X5.6929Y-4.7382
X5.6969Y-4.4594
X5.7028Y-4.248
X5.7126Y-4.5541
X5.7331Y-4.126
X5.7392Y-4.5423
X5.7392Y-4.5659
X5.7709Y-4.1252
X5.7913Y-4.3297
X5.7941Y-4.2283
X5.7965Y-4.6768
X5.7968Y-4.7146
X6.1193Y-4.7075
X6.128Y-4.3386
X6.1764Y-4.3787
X6.1863Y-4.4279
X6.2234Y-4.248
X6.2234Y-4.2717
X6.2234Y-4.6417
X6.2234Y-4.6654
X6.249Y-4.7411
X6.25Y-4.2598
X6.25Y-4.6535
X6.2657Y-4.5591
X6.2677Y-4.1589
X6.2766Y-4.248
X6.2766Y-4.2717
X6.2766Y-4.6417
X6.2766Y-4.6654
X6.2795Y-4.752
X6.3173Y-4.4209
X6.4035Y-4.502
X6.4833Y-4.2411
X6.6535Y-4.502
X6.6921Y-4.2409
T2
X4.6457Y-4.2953
X4.6457Y-4.6161
X4.7087Y-4.3307
X4.7756Y-4.3228
X4.7854Y-3.6535
X4.7854Y-3.6988
X4.7854Y-3.7441
X4.7913Y-4.8622
X4.8051Y-3.6201
X4.8051Y-3.7776
X4.8228Y-4.0394
X4.8543Y-3.6201
X4.8543Y-3.7776
X4.8996Y-3.9961
X4.9055Y-3.6201
X4.9055Y-3.7776
X4.9498Y-4.5896
X4.9528Y-3.6201
X4.9547Y-3.7776
X4.9626Y-4.0295
X4.9724Y-4.7835
X5.0Y-4.7126
X5.002Y-3.6201
X5.002Y-3.7776
X5.0413Y-3.7776
X5.0512Y-3.6201
X5.0748Y-3.8878
X5.0748Y-3.8327
X5.0748Y-3.9508
X5.0748Y-3.7579
X5.0748Y-3.7972
X5.0773Y-4.3194
X5.0787Y-4.7638
X5.0984Y-3.6201
X5.1122Y-4.7677
X5.1125Y-4.0984
X5.1125Y-4.1378
X5.1125Y-4.2165
X5.1125Y-4.2559
X5.1125Y-4.2953
X5.1125Y-4.3346
X5.1125Y-4.374
X5.1125Y-4.4528
X5.1125Y-4.4921
X5.1125Y-4.5315
X5.1125Y-4.5709
X5.1125Y-4.6102
X5.1125Y-4.6496
X5.1125Y-4.689
X5.1125Y-4.7283
X5.1125Y-4.8071
X5.1125Y-4.0591
X5.1125Y-4.4134
X5.1299Y-3.9508
X5.1457Y-3.6201
X5.1519Y-4.0591
X5.1519Y-4.8071
X5.1772Y-3.9508
X5.1913Y-4.0591
X5.1913Y-4.8071
X5.1929Y-3.6201
X5.2244Y-3.9508
X5.2306Y-4.0591
X5.2306Y-4.8071
X5.2402Y-3.6201
X5.2461Y-4.2177
X5.2654Y-4.6756
X5.27Y-4.0591
X5.27Y-4.8071
X5.2717Y-3.9508
X5.2874Y-3.6201
X5.3094Y-4.0591
X5.3094Y-4.8071
X5.3189Y-3.9508
X5.3189Y-3.9882
X5.3346Y-3.6201
X5.3487Y-4.0591
X5.3487Y-4.8071
X5.3819Y-3.6201
X5.3881Y-4.0591
X5.3898Y-4.3484
X5.4275Y-4.0591
X5.4275Y-4.8071
X5.4291Y-3.6201
X5.4669Y-4.8071
X5.4764Y-3.6201
X5.5062Y-4.0591
X5.5062Y-4.8071
X5.5236Y-3.6201
X5.5236Y-4.6369
X5.5456Y-4.0591
X5.5456Y-4.8071
X5.5709Y-3.6201
X5.585Y-4.8071
X5.6181Y-3.6201
X5.624Y-4.8071
X5.6243Y-4.0591
X5.6339Y-3.9508
X5.6339Y-3.9902
X5.6339Y-4.0256
X5.6634Y-4.8071
X5.6637Y-4.0591
X5.6654Y-3.6201
X5.6811Y-3.9508
X5.7028Y-4.1929
X5.7031Y-4.0591
X5.7031Y-4.8071
X5.7126Y-3.6201
X5.7283Y-3.9508
X5.7323Y-4.6504
X5.7424Y-4.0591
X5.7424Y-4.8071
X5.7598Y-3.6201
X5.7756Y-3.9508
X5.7815Y-4.8071
X5.7818Y-4.0591
X5.8071Y-3.6201
X5.8212Y-4.8071
X5.8212Y-4.0591
X5.8228Y-3.9508
X5.8543Y-3.6201
X5.8606Y-4.0591
X5.8606Y-4.2165
X5.8606Y-4.4134
X5.8606Y-4.6102
X5.8606Y-4.7677
X5.8606Y-4.1378
X5.8606Y-4.1772
X5.8606Y-4.2559
X5.8606Y-4.2953
X5.8606Y-4.3346
X5.8606Y-4.374
X5.8606Y-4.4528
X5.8606Y-4.4921
X5.8606Y-4.5315
X5.8606Y-4.5709
X5.8606Y-4.6496
X5.8606Y-4.689
X5.8606Y-4.7283
X5.8606Y-4.8071
X5.878Y-3.6673
X5.878Y-3.7224
X5.878Y-3.7697
X5.878Y-3.8169
X5.878Y-3.8642
X5.878Y-3.9193
X5.9185Y-4.6563
X5.9508Y-3.9154
X5.9606Y-4.5394
X6.0Y-4.5394
X6.1476Y-4.6575
X6.2264Y-4.065
X6.25Y-4.3577
X6.3071Y-4.063
X6.315Y-4.4882
X6.3307Y-4.2874
X6.3327Y-4.7835
X6.4035Y-4.6299
X6.4055Y-4.1614
X6.5118Y-4.4094
X6.5287Y-4.3071
X6.5287Y-4.5618
X6.5295Y-4.1516
X6.5295Y-4.6575
X6.5748Y-4.1516
X6.5748Y-4.6575
X6.7795Y-3.7323
X6.7795Y-3.811
X6.7795Y-3.8937
X6.7795Y-4.126
X6.7795Y-4.2087
X6.7795Y-4.2874
X6.7795Y-4.5197
X6.7795Y-4.6024
X6.7795Y-4.6811
X6.8543Y-3.7323
X6.8543Y-3.811
X6.8543Y-3.8937
X6.8543Y-4.126
X6.8543Y-4.2087
X6.8543Y-4.2874
X6.8543Y-4.5197
X6.8543Y-4.6024
X6.8543Y-4.6811
X6.8858Y-3.7795
X6.8858Y-3.8425
X6.8858Y-4.1811
X6.8858Y-4.2362
X6.8858Y-4.5709
X6.8858Y-4.6299
X6.9213Y-4.6024
X6.9252Y-3.811
X6.9252Y-4.2087
T3
X5.2451Y-3.688
X5.2461Y-3.8819
X5.3679Y-3.9776
X5.3858Y-4.7539
X5.3858Y-4.8425
X5.3986Y-3.688
X5.3996Y-3.8819
X5.4035Y-4.0217
X5.4331Y-4.3051
X5.5236Y-4.5216
X5.5522Y-3.688
X5.5532Y-3.8819
X5.5965Y-4.5059
X5.5984Y-4.1122
X5.7057Y-3.688
X5.7067Y-3.8819
X6.9252Y-3.6693
X6.9252Y-4.3504
X6.9252Y-4.7441
X6.9724Y-3.7087
X6.9724Y-4.311
X6.9724Y-4.7047
X7.0512Y-3.9173
X7.0512Y-4.0315
X7.0551Y-4.1417
X7.0551Y-4.2559
X7.0551Y-4.374
X7.0551Y-4.4921
X7.1772Y-3.9173
X7.1772Y-4.0315
X7.1772Y-4.1417
X7.1772Y-4.2559
X7.1811Y-4.374
X7.1811Y-4.4921
T4
X4.8878Y-4.5089
X4.8878Y-4.6073
X4.8878Y-4.7057
X6.061Y-4.5089
X6.061Y-4.6073
X6.061Y-4.7057
T5
X4.7638Y-4.128
X4.7638Y-4.228
X5.0354Y-4.128
X5.0354Y-4.228
X6.0207Y-4.0443
X6.0207Y-4.2443
X6.1207Y-4.1443
T6
X4.5157Y-3.9902
X4.5157Y-4.0886
X4.5157Y-4.3406
X4.5157Y-4.439
T7
X4.8169Y-4.3829
X4.9744Y-4.8514
X5.9902Y-4.3829
X6.1476Y-4.8514
T8
X4.4882Y-3.6614
X4.4882Y-4.7638
X7.126Y-3.6614
X7.126Y-4.7638
T0
M30
