%TF.GenerationSoftware,KiCad,Pcbnew,(6.0.5)*%
%TF.CreationDate,2023-02-17T00:10:57+08:00*%
%TF.ProjectId,EmoeNAP,456d6f65-4e41-4502-9e6b-696361645f70,rev?*%
%TF.SameCoordinates,Original*%
%TF.FileFunction,Legend,Bot*%
%TF.FilePolarity,Positive*%
%FSLAX46Y46*%
G04 Gerber Fmt 4.6, Leading zero omitted, Abs format (unit mm)*
G04 Created by KiCad (PCBNEW (6.0.5)) date 2023-02-17 00:10:57*
%MOMM*%
%LPD*%
G01*
G04 APERTURE LIST*
%ADD10C,0.120000*%
G04 APERTURE END LIST*
D10*
%TO.C,C64*%
X162835000Y-115940000D02*
X162835000Y-119850000D01*
X160965000Y-119850000D02*
X160965000Y-115940000D01*
X160965000Y-115940000D02*
X162835000Y-115940000D01*
%TO.C,C53*%
X152535000Y-114000000D02*
X152535000Y-117910000D01*
X150665000Y-117910000D02*
X150665000Y-114000000D01*
X152535000Y-117910000D02*
X150665000Y-117910000D01*
%TO.C,C63*%
X164225000Y-112965000D02*
X168135000Y-112965000D01*
X168135000Y-112965000D02*
X168135000Y-114835000D01*
X168135000Y-114835000D02*
X164225000Y-114835000D01*
%TO.C,C52*%
X163515000Y-108885890D02*
X167425000Y-108885890D01*
X163515000Y-110755890D02*
X163515000Y-108885890D01*
X167425000Y-110755890D02*
X163515000Y-110755890D01*
%TO.C,R46*%
X118921359Y-121830000D02*
X119228641Y-121830000D01*
X118921359Y-121070000D02*
X119228641Y-121070000D01*
%TO.C,C59*%
X160360000Y-114398367D02*
X160360000Y-114614039D01*
X159640000Y-114398367D02*
X159640000Y-114614039D01*
%TO.C,C10*%
X173411252Y-119685000D02*
X172888748Y-119685000D01*
X173411252Y-118215000D02*
X172888748Y-118215000D01*
%TO.C,RISO7*%
X128572500Y-119912742D02*
X128572500Y-120387258D01*
X127527500Y-119912742D02*
X127527500Y-120387258D01*
%TO.C,C73*%
X128442164Y-113390000D02*
X128657836Y-113390000D01*
X128442164Y-114110000D02*
X128657836Y-114110000D01*
%TO.C,R10*%
X159420001Y-111831919D02*
X159420001Y-112139201D01*
X160180001Y-111831919D02*
X160180001Y-112139201D01*
%TO.C,R2*%
X159380000Y-114357765D02*
X159380000Y-114665047D01*
X158620000Y-114357765D02*
X158620000Y-114665047D01*
%TO.C,R1*%
X157480000Y-104489201D02*
X157480000Y-104181919D01*
X156720000Y-104489201D02*
X156720000Y-104181919D01*
%TO.C,R4*%
X158380000Y-114665047D02*
X158380000Y-114357765D01*
X157620000Y-114665047D02*
X157620000Y-114357765D01*
%TO.C,C72*%
X126492164Y-113110000D02*
X126707836Y-113110000D01*
X126492164Y-112390000D02*
X126707836Y-112390000D01*
%TO.C,C3*%
X161015000Y-111538748D02*
X161015000Y-112061252D01*
X162485000Y-111538748D02*
X162485000Y-112061252D01*
%TO.C,R53*%
X124803641Y-112370000D02*
X124496359Y-112370000D01*
X124803641Y-113130000D02*
X124496359Y-113130000D01*
%TO.C,kibuzzard-6378AB16*%
G36*
X149614594Y-91028625D02*
G01*
X149360594Y-91028625D01*
X149360594Y-90758750D01*
X149614594Y-90758750D01*
X149614594Y-91028625D01*
G37*
G36*
X155963800Y-90202133D02*
G01*
X156056669Y-90246781D01*
X156112628Y-90319211D01*
X156131281Y-90417437D01*
X156115406Y-90508917D01*
X156067781Y-90580156D01*
X155982453Y-90635520D01*
X155853469Y-90679375D01*
X155748694Y-90727000D01*
X155720119Y-90806375D01*
X155756631Y-90889719D01*
X155877281Y-90915913D01*
X155996741Y-90900434D01*
X156123344Y-90854000D01*
X156123344Y-90993700D01*
X156038677Y-91021922D01*
X155947660Y-91038856D01*
X155850294Y-91044500D01*
X155720714Y-91029022D01*
X155624075Y-90982587D01*
X155563948Y-90907578D01*
X155543906Y-90806375D01*
X155559186Y-90704775D01*
X155605025Y-90631750D01*
X155692933Y-90577775D01*
X155834419Y-90533325D01*
X155928875Y-90488875D01*
X155956656Y-90417437D01*
X155922128Y-90340047D01*
X155818544Y-90314250D01*
X155697894Y-90324172D01*
X155570894Y-90353937D01*
X155570894Y-90222175D01*
X155653797Y-90202772D01*
X155741638Y-90191131D01*
X155834419Y-90187250D01*
X155963800Y-90202133D01*
G37*
G36*
X164718069Y-90234875D02*
G01*
X164881581Y-90234875D01*
X164881581Y-90363462D01*
X164718069Y-90363462D01*
X164718069Y-90790500D01*
X164703980Y-90913531D01*
X164661713Y-90990525D01*
X164583330Y-91031006D01*
X164460894Y-91044500D01*
X164373184Y-91039738D01*
X164294206Y-91025450D01*
X164294206Y-90880988D01*
X164362072Y-90898847D01*
X164429144Y-90904800D01*
X164524394Y-90878606D01*
X164545031Y-90758750D01*
X164545031Y-90363462D01*
X164278331Y-90363462D01*
X164278331Y-90234875D01*
X164545031Y-90234875D01*
X164545031Y-89933250D01*
X164718069Y-89933250D01*
X164718069Y-90234875D01*
G37*
G36*
X158368069Y-90234875D02*
G01*
X158531581Y-90234875D01*
X158531581Y-90363462D01*
X158368069Y-90363462D01*
X158368069Y-90790500D01*
X158353980Y-90913531D01*
X158311713Y-90990525D01*
X158233330Y-91031006D01*
X158110894Y-91044500D01*
X158023184Y-91039738D01*
X157944206Y-91025450D01*
X157944206Y-90880988D01*
X158012072Y-90898847D01*
X158079144Y-90904800D01*
X158174394Y-90878606D01*
X158195031Y-90758750D01*
X158195031Y-90363462D01*
X157928331Y-90363462D01*
X157928331Y-90234875D01*
X158195031Y-90234875D01*
X158195031Y-89933250D01*
X158368069Y-89933250D01*
X158368069Y-90234875D01*
G37*
G36*
X138687831Y-89998337D02*
G01*
X138475106Y-89998337D01*
X138475106Y-91028625D01*
X138084581Y-91028625D01*
X138084581Y-90900038D01*
X138297306Y-90900038D01*
X138297306Y-89869750D01*
X138687831Y-89869750D01*
X138687831Y-89998337D01*
G37*
G36*
X157574319Y-90234875D02*
G01*
X157737831Y-90234875D01*
X157737831Y-90363462D01*
X157574319Y-90363462D01*
X157574319Y-90790500D01*
X157560230Y-90913531D01*
X157517963Y-90990525D01*
X157439580Y-91031006D01*
X157317144Y-91044500D01*
X157229434Y-91039738D01*
X157150456Y-91025450D01*
X157150456Y-90880988D01*
X157218322Y-90898847D01*
X157285394Y-90904800D01*
X157380644Y-90878606D01*
X157401281Y-90758750D01*
X157401281Y-90363462D01*
X157134581Y-90363462D01*
X157134581Y-90234875D01*
X157401281Y-90234875D01*
X157401281Y-89933250D01*
X157574319Y-89933250D01*
X157574319Y-90234875D01*
G37*
G36*
X163230581Y-90331713D02*
G01*
X163019444Y-90331713D01*
X163019444Y-91028625D01*
X162841644Y-91028625D01*
X162841644Y-90203125D01*
X163230581Y-90203125D01*
X163230581Y-90331713D01*
G37*
G36*
X152131972Y-90202331D02*
G01*
X152237144Y-90247575D01*
X152237144Y-91028625D01*
X152070456Y-91028625D01*
X152070456Y-90339650D01*
X152006956Y-90317425D01*
X151960919Y-90334094D01*
X151948219Y-90393625D01*
X151948219Y-91028625D01*
X151789469Y-91028625D01*
X151789469Y-90339650D01*
X151724381Y-90317425D01*
X151679931Y-90333300D01*
X151667231Y-90393625D01*
X151667231Y-91028625D01*
X151506894Y-91028625D01*
X151506894Y-90409500D01*
X151517808Y-90299367D01*
X151550550Y-90232494D01*
X151613455Y-90198561D01*
X151714856Y-90187250D01*
X151797803Y-90197172D01*
X151872019Y-90226937D01*
X151932741Y-90197172D01*
X152013306Y-90187250D01*
X152131972Y-90202331D01*
G37*
G36*
X127938869Y-90882575D02*
G01*
X128046819Y-90914325D01*
X128153975Y-90883369D01*
X128183344Y-90766687D01*
X128183344Y-90203125D01*
X128353206Y-90203125D01*
X128353206Y-90766687D01*
X128336934Y-90901625D01*
X128288119Y-90985763D01*
X128232027Y-91018394D01*
X128150535Y-91037974D01*
X128043644Y-91044500D01*
X127941515Y-91037092D01*
X127848910Y-91014867D01*
X127765831Y-90977825D01*
X127765831Y-90203125D01*
X127940456Y-90203125D01*
X127938869Y-90882575D01*
G37*
G36*
X141791394Y-90625400D02*
G01*
X141315144Y-90625400D01*
X141315144Y-90493637D01*
X141791394Y-90493637D01*
X141791394Y-90625400D01*
G37*
G36*
X130424894Y-91044500D02*
G01*
X130331760Y-91032594D01*
X130255560Y-90996875D01*
X130196294Y-90937344D01*
X130153960Y-90854000D01*
X130128560Y-90746844D01*
X130120094Y-90615875D01*
X130294719Y-90615875D01*
X130304145Y-90747141D01*
X130332422Y-90840903D01*
X130379551Y-90897160D01*
X130445531Y-90915913D01*
X130564594Y-90879400D01*
X130564594Y-90334887D01*
X130461406Y-90317425D01*
X130386992Y-90334292D01*
X130335200Y-90384894D01*
X130304839Y-90476373D01*
X130294719Y-90615875D01*
X130120094Y-90615875D01*
X130129354Y-90476969D01*
X130157135Y-90367167D01*
X130203438Y-90286469D01*
X130270024Y-90231347D01*
X130358660Y-90198274D01*
X130469344Y-90187250D01*
X130564241Y-90192894D01*
X130654199Y-90209828D01*
X130739219Y-90238050D01*
X130739219Y-91377875D01*
X130564594Y-91377875D01*
X130564594Y-91012750D01*
X130497125Y-91036562D01*
X130445531Y-91042232D01*
X130424894Y-91044500D01*
G37*
G36*
X160722331Y-91028625D02*
G01*
X160484206Y-91028625D01*
X160484206Y-90758750D01*
X160722331Y-90758750D01*
X160722331Y-91028625D01*
G37*
G36*
X163051194Y-90020563D02*
G01*
X162841644Y-90020563D01*
X162841644Y-89822125D01*
X163051194Y-89822125D01*
X163051194Y-90020563D01*
G37*
G36*
X134890531Y-90612700D02*
G01*
X134894221Y-90552375D01*
X135061981Y-90552375D01*
X135344556Y-90552375D01*
X135331063Y-90438075D01*
X135303281Y-90365050D01*
X135259228Y-90325759D01*
X135196919Y-90312663D01*
X135096906Y-90367431D01*
X135071506Y-90441052D01*
X135061981Y-90552375D01*
X134894221Y-90552375D01*
X134898822Y-90477145D01*
X134923692Y-90368931D01*
X134965144Y-90288056D01*
X135023528Y-90232053D01*
X135099199Y-90198451D01*
X135192156Y-90187250D01*
X135294021Y-90199156D01*
X135377365Y-90234875D01*
X135442187Y-90294406D01*
X135488490Y-90377750D01*
X135516271Y-90484906D01*
X135525531Y-90615875D01*
X135515389Y-90746844D01*
X135484962Y-90854000D01*
X135434250Y-90937344D01*
X135363253Y-90996875D01*
X135271972Y-91032594D01*
X135160406Y-91044500D01*
X135049678Y-91034578D01*
X134933394Y-91004813D01*
X134933394Y-90873050D01*
X135042138Y-90905197D01*
X135139769Y-90915913D01*
X135224898Y-90902220D01*
X135286613Y-90861144D01*
X135326102Y-90787523D01*
X135344556Y-90676200D01*
X134893706Y-90676200D01*
X134890531Y-90612700D01*
G37*
G36*
X140554555Y-91021922D02*
G01*
X140465831Y-90993700D01*
X140465831Y-90900038D01*
X140638869Y-90900038D01*
X140743644Y-90920675D01*
X140859531Y-90883369D01*
X140900806Y-90777800D01*
X140887908Y-90705966D01*
X140849213Y-90655562D01*
X140781942Y-90625797D01*
X140683319Y-90615875D01*
X140638869Y-90615875D01*
X140638869Y-90900038D01*
X140465831Y-90900038D01*
X140465831Y-90501575D01*
X140472622Y-90390450D01*
X140492995Y-90306842D01*
X140526950Y-90250750D01*
X140616445Y-90203125D01*
X140762694Y-90187250D01*
X140848066Y-90192894D01*
X140936966Y-90209828D01*
X141029394Y-90238050D01*
X141029394Y-90374575D01*
X140937319Y-90342825D01*
X140851594Y-90323775D01*
X140772219Y-90317425D01*
X140663475Y-90346794D01*
X140638869Y-90469825D01*
X140638869Y-90496812D01*
X140683319Y-90496812D01*
X140801588Y-90504838D01*
X140898160Y-90528915D01*
X140973038Y-90569044D01*
X141045070Y-90657348D01*
X141069081Y-90777800D01*
X141047848Y-90890512D01*
X140984150Y-90974650D01*
X140919680Y-91013456D01*
X140839511Y-91036739D01*
X140743644Y-91044500D01*
X140647159Y-91038856D01*
X140554555Y-91021922D01*
G37*
G36*
X161520050Y-90202133D02*
G01*
X161612919Y-90246781D01*
X161668878Y-90319211D01*
X161687531Y-90417437D01*
X161671656Y-90508917D01*
X161624031Y-90580156D01*
X161538703Y-90635520D01*
X161409719Y-90679375D01*
X161304944Y-90727000D01*
X161276369Y-90806375D01*
X161312881Y-90889719D01*
X161433531Y-90915913D01*
X161552991Y-90900434D01*
X161679594Y-90854000D01*
X161679594Y-90993700D01*
X161594927Y-91021922D01*
X161503910Y-91038856D01*
X161406544Y-91044500D01*
X161276964Y-91029022D01*
X161180325Y-90982587D01*
X161120198Y-90907578D01*
X161100156Y-90806375D01*
X161115436Y-90704775D01*
X161161275Y-90631750D01*
X161249183Y-90577775D01*
X161390669Y-90533325D01*
X161485125Y-90488875D01*
X161512906Y-90417437D01*
X161478378Y-90340047D01*
X161374794Y-90314250D01*
X161254144Y-90324172D01*
X161127144Y-90353937D01*
X161127144Y-90222175D01*
X161210047Y-90202772D01*
X161297888Y-90191131D01*
X161390669Y-90187250D01*
X161520050Y-90202133D01*
G37*
G36*
X136775688Y-89869750D02*
G01*
X136851094Y-89917375D01*
X136892766Y-90005481D01*
X136906656Y-90142800D01*
X136906656Y-90234875D01*
X137081281Y-90234875D01*
X137081281Y-90363462D01*
X136906656Y-90363462D01*
X136906656Y-91028625D01*
X136732031Y-91028625D01*
X136732031Y-90363462D01*
X136501844Y-90363462D01*
X136501844Y-90234875D01*
X136732031Y-90234875D01*
X136732031Y-90184075D01*
X136730047Y-90101327D01*
X136724094Y-90046756D01*
X136695519Y-89993575D01*
X136625669Y-89980875D01*
X136501844Y-90003100D01*
X136501844Y-89872925D01*
X136577250Y-89858637D01*
X136660594Y-89853875D01*
X136775688Y-89869750D01*
G37*
G36*
X154585056Y-91092125D02*
G01*
X154432656Y-91092125D01*
X153923069Y-89869750D01*
X154075469Y-89869750D01*
X154585056Y-91092125D01*
G37*
G36*
X149971781Y-90612700D02*
G01*
X149975471Y-90552375D01*
X150143231Y-90552375D01*
X150425806Y-90552375D01*
X150412313Y-90438075D01*
X150384531Y-90365050D01*
X150340478Y-90325759D01*
X150278169Y-90312663D01*
X150178156Y-90367431D01*
X150152756Y-90441052D01*
X150143231Y-90552375D01*
X149975471Y-90552375D01*
X149980072Y-90477145D01*
X150004942Y-90368931D01*
X150046394Y-90288056D01*
X150104778Y-90232053D01*
X150180449Y-90198451D01*
X150273406Y-90187250D01*
X150375271Y-90199156D01*
X150458615Y-90234875D01*
X150523438Y-90294406D01*
X150569740Y-90377750D01*
X150597521Y-90484906D01*
X150606781Y-90615875D01*
X150599330Y-90729592D01*
X150576975Y-90825814D01*
X150539717Y-90904541D01*
X150487557Y-90965773D01*
X150420493Y-91009510D01*
X150338526Y-91035753D01*
X150241656Y-91044500D01*
X150130928Y-91034578D01*
X150014644Y-91004813D01*
X150014644Y-90873050D01*
X150123388Y-90905197D01*
X150221019Y-90915913D01*
X150306148Y-90902220D01*
X150367863Y-90861144D01*
X150407352Y-90787523D01*
X150425806Y-90676200D01*
X149974956Y-90676200D01*
X149971781Y-90612700D01*
G37*
G36*
X126618069Y-90234875D02*
G01*
X126781581Y-90234875D01*
X126781581Y-90363462D01*
X126618069Y-90363462D01*
X126618069Y-90790500D01*
X126603980Y-90913531D01*
X126561712Y-90990525D01*
X126483330Y-91031006D01*
X126360894Y-91044500D01*
X126273184Y-91039738D01*
X126194206Y-91025450D01*
X126194206Y-90880988D01*
X126262072Y-90898847D01*
X126329144Y-90904800D01*
X126424394Y-90878606D01*
X126445031Y-90758750D01*
X126445031Y-90363462D01*
X126178331Y-90363462D01*
X126178331Y-90234875D01*
X126445031Y-90234875D01*
X126445031Y-89933250D01*
X126618069Y-89933250D01*
X126618069Y-90234875D01*
G37*
G36*
X140225722Y-90202331D02*
G01*
X140330894Y-90247575D01*
X140330894Y-91028625D01*
X140164206Y-91028625D01*
X140164206Y-90339650D01*
X140100706Y-90317425D01*
X140054669Y-90334094D01*
X140041969Y-90393625D01*
X140041969Y-91028625D01*
X139883219Y-91028625D01*
X139883219Y-90339650D01*
X139818131Y-90317425D01*
X139773681Y-90333300D01*
X139760981Y-90393625D01*
X139760981Y-91028625D01*
X139600644Y-91028625D01*
X139600644Y-90409500D01*
X139611558Y-90299367D01*
X139644300Y-90232494D01*
X139707205Y-90198561D01*
X139808606Y-90187250D01*
X139891553Y-90197172D01*
X139965769Y-90226937D01*
X140026491Y-90197172D01*
X140107056Y-90187250D01*
X140225722Y-90202331D01*
G37*
G36*
X163573305Y-91021922D02*
G01*
X163484581Y-90993700D01*
X163484581Y-90900038D01*
X163657619Y-90900038D01*
X163762394Y-90920675D01*
X163878281Y-90883369D01*
X163919556Y-90777800D01*
X163906658Y-90705966D01*
X163867963Y-90655562D01*
X163800692Y-90625797D01*
X163702069Y-90615875D01*
X163657619Y-90615875D01*
X163657619Y-90900038D01*
X163484581Y-90900038D01*
X163484581Y-90501575D01*
X163491372Y-90390450D01*
X163511745Y-90306842D01*
X163545700Y-90250750D01*
X163635195Y-90203125D01*
X163781444Y-90187250D01*
X163866816Y-90192894D01*
X163955716Y-90209828D01*
X164048144Y-90238050D01*
X164048144Y-90374575D01*
X163956069Y-90342825D01*
X163870344Y-90323775D01*
X163790969Y-90317425D01*
X163682225Y-90346794D01*
X163657619Y-90469825D01*
X163657619Y-90496812D01*
X163702069Y-90496812D01*
X163820338Y-90504838D01*
X163916910Y-90528915D01*
X163991788Y-90569044D01*
X164063820Y-90657348D01*
X164087831Y-90777800D01*
X164066598Y-90890512D01*
X164002900Y-90974650D01*
X163938430Y-91013456D01*
X163858261Y-91036739D01*
X163762394Y-91044500D01*
X163665909Y-91038856D01*
X163573305Y-91021922D01*
G37*
G36*
X142034281Y-90612700D02*
G01*
X142037971Y-90552375D01*
X142205731Y-90552375D01*
X142488306Y-90552375D01*
X142474813Y-90438075D01*
X142447031Y-90365050D01*
X142402978Y-90325759D01*
X142340669Y-90312663D01*
X142240656Y-90367431D01*
X142215256Y-90441052D01*
X142205731Y-90552375D01*
X142037971Y-90552375D01*
X142042572Y-90477145D01*
X142067442Y-90368931D01*
X142108894Y-90288056D01*
X142167278Y-90232053D01*
X142242949Y-90198451D01*
X142335906Y-90187250D01*
X142437771Y-90199156D01*
X142521115Y-90234875D01*
X142585937Y-90294406D01*
X142632240Y-90377750D01*
X142660021Y-90484906D01*
X142669281Y-90615875D01*
X142661830Y-90729592D01*
X142639475Y-90825814D01*
X142602217Y-90904541D01*
X142550057Y-90965773D01*
X142482993Y-91009510D01*
X142401026Y-91035753D01*
X142304156Y-91044500D01*
X142193428Y-91034578D01*
X142077144Y-91004813D01*
X142077144Y-90873050D01*
X142185888Y-90905197D01*
X142283519Y-90915913D01*
X142368648Y-90902220D01*
X142430363Y-90861144D01*
X142469852Y-90787523D01*
X142488306Y-90676200D01*
X142037456Y-90676200D01*
X142034281Y-90612700D01*
G37*
G36*
X136243081Y-90331713D02*
G01*
X136031944Y-90331713D01*
X136031944Y-91028625D01*
X135854144Y-91028625D01*
X135854144Y-90203125D01*
X136243081Y-90203125D01*
X136243081Y-90331713D01*
G37*
G36*
X162500331Y-89998337D02*
G01*
X162287606Y-89998337D01*
X162287606Y-91028625D01*
X161897081Y-91028625D01*
X161897081Y-90900038D01*
X162109806Y-90900038D01*
X162109806Y-89869750D01*
X162500331Y-89869750D01*
X162500331Y-89998337D01*
G37*
G36*
X133853894Y-90625400D02*
G01*
X133377644Y-90625400D01*
X133377644Y-90493637D01*
X133853894Y-90493637D01*
X133853894Y-90625400D01*
G37*
G36*
X165053031Y-90612700D02*
G01*
X165056721Y-90552375D01*
X165224481Y-90552375D01*
X165507056Y-90552375D01*
X165493563Y-90438075D01*
X165465781Y-90365050D01*
X165421728Y-90325759D01*
X165359419Y-90312663D01*
X165259406Y-90367431D01*
X165234006Y-90441052D01*
X165224481Y-90552375D01*
X165056721Y-90552375D01*
X165061322Y-90477145D01*
X165086192Y-90368931D01*
X165127644Y-90288056D01*
X165186028Y-90232053D01*
X165261699Y-90198451D01*
X165354656Y-90187250D01*
X165456521Y-90199156D01*
X165539865Y-90234875D01*
X165604688Y-90294406D01*
X165650990Y-90377750D01*
X165678771Y-90484906D01*
X165688031Y-90615875D01*
X165677889Y-90746844D01*
X165647462Y-90854000D01*
X165596750Y-90937344D01*
X165525753Y-90996875D01*
X165434472Y-91032594D01*
X165322906Y-91044500D01*
X165212178Y-91034578D01*
X165095894Y-91004813D01*
X165095894Y-90873050D01*
X165204638Y-90905197D01*
X165302269Y-90915913D01*
X165387398Y-90902220D01*
X165449113Y-90861144D01*
X165488602Y-90787523D01*
X165507056Y-90676200D01*
X165056206Y-90676200D01*
X165053031Y-90612700D01*
G37*
G36*
X128838187Y-89869750D02*
G01*
X128913594Y-89917375D01*
X128955266Y-90005481D01*
X128969156Y-90142800D01*
X128969156Y-90234875D01*
X129143781Y-90234875D01*
X129143781Y-90363462D01*
X128969156Y-90363462D01*
X128969156Y-91028625D01*
X128794531Y-91028625D01*
X128794531Y-90363462D01*
X128564344Y-90363462D01*
X128564344Y-90234875D01*
X128794531Y-90234875D01*
X128794531Y-90184075D01*
X128792547Y-90101327D01*
X128786594Y-90046756D01*
X128758019Y-89993575D01*
X128688169Y-89980875D01*
X128564344Y-90003100D01*
X128564344Y-89872925D01*
X128639750Y-89858637D01*
X128723094Y-89853875D01*
X128838187Y-89869750D01*
G37*
G36*
X137830581Y-90331713D02*
G01*
X137619444Y-90331713D01*
X137619444Y-91028625D01*
X137441644Y-91028625D01*
X137441644Y-90203125D01*
X137830581Y-90203125D01*
X137830581Y-90331713D01*
G37*
G36*
X144001194Y-90020563D02*
G01*
X143791644Y-90020563D01*
X143791644Y-89822125D01*
X144001194Y-89822125D01*
X144001194Y-90020563D01*
G37*
G36*
X153791306Y-91092125D02*
G01*
X153638906Y-91092125D01*
X153129319Y-89869750D01*
X153281719Y-89869750D01*
X153791306Y-91092125D01*
G37*
G36*
X156618644Y-91044500D02*
G01*
X156525510Y-91032594D01*
X156449310Y-90996875D01*
X156390044Y-90937344D01*
X156347710Y-90854000D01*
X156322310Y-90746844D01*
X156313844Y-90615875D01*
X156488469Y-90615875D01*
X156497895Y-90747141D01*
X156526172Y-90840903D01*
X156573301Y-90897160D01*
X156639281Y-90915913D01*
X156758344Y-90879400D01*
X156758344Y-90334887D01*
X156655156Y-90317425D01*
X156580742Y-90334292D01*
X156528950Y-90384894D01*
X156498589Y-90476373D01*
X156488469Y-90615875D01*
X156313844Y-90615875D01*
X156323104Y-90476969D01*
X156350885Y-90367167D01*
X156397188Y-90286469D01*
X156463774Y-90231347D01*
X156552410Y-90198274D01*
X156663094Y-90187250D01*
X156757991Y-90192894D01*
X156847949Y-90209828D01*
X156932969Y-90238050D01*
X156932969Y-91377875D01*
X156758344Y-91377875D01*
X156758344Y-91012750D01*
X156690875Y-91036562D01*
X156639281Y-91042232D01*
X156618644Y-91044500D01*
G37*
G36*
X150892002Y-90999344D02*
G01*
X150827444Y-90942900D01*
X150781583Y-90861408D01*
X150754066Y-90752400D01*
X150744894Y-90615875D01*
X150922694Y-90615875D01*
X150931623Y-90761330D01*
X150958413Y-90851619D01*
X151006236Y-90898648D01*
X151078269Y-90914325D01*
X151150302Y-90898648D01*
X151198125Y-90851619D01*
X151224914Y-90761330D01*
X151233844Y-90615875D01*
X151224914Y-90470420D01*
X151198125Y-90380131D01*
X151150302Y-90333102D01*
X151078269Y-90317425D01*
X151006236Y-90333102D01*
X150958413Y-90380131D01*
X150931623Y-90470420D01*
X150922694Y-90615875D01*
X150744894Y-90615875D01*
X150754066Y-90479350D01*
X150781583Y-90370342D01*
X150827444Y-90288850D01*
X150892002Y-90232406D01*
X150975610Y-90198539D01*
X151078269Y-90187250D01*
X151180927Y-90198539D01*
X151264535Y-90232406D01*
X151329094Y-90288850D01*
X151374955Y-90370342D01*
X151402472Y-90479350D01*
X151411644Y-90615875D01*
X151402472Y-90752400D01*
X151374955Y-90861408D01*
X151329094Y-90942900D01*
X151264535Y-90999344D01*
X151180927Y-91033211D01*
X151078269Y-91044500D01*
X150975610Y-91033211D01*
X150892002Y-90999344D01*
G37*
G36*
X127093112Y-90190552D02*
G01*
X127199665Y-90200458D01*
X127304440Y-90216968D01*
X127407437Y-90240082D01*
X127508656Y-90269800D01*
X127508656Y-91028625D01*
X127334031Y-91028625D01*
X127335619Y-90365050D01*
X127223259Y-90339474D01*
X127106313Y-90324128D01*
X126984781Y-90319013D01*
X126984781Y-90187250D01*
X127093112Y-90190552D01*
G37*
G36*
X129885144Y-90625400D02*
G01*
X129408894Y-90625400D01*
X129408894Y-90493637D01*
X129885144Y-90493637D01*
X129885144Y-90625400D01*
G37*
G36*
X167434281Y-90612700D02*
G01*
X167437971Y-90552375D01*
X167605731Y-90552375D01*
X167888306Y-90552375D01*
X167874813Y-90438075D01*
X167847031Y-90365050D01*
X167802978Y-90325759D01*
X167740669Y-90312663D01*
X167640656Y-90367431D01*
X167615256Y-90441052D01*
X167605731Y-90552375D01*
X167437971Y-90552375D01*
X167442572Y-90477145D01*
X167467442Y-90368931D01*
X167508894Y-90288056D01*
X167567278Y-90232053D01*
X167642949Y-90198451D01*
X167735906Y-90187250D01*
X167837771Y-90199156D01*
X167921115Y-90234875D01*
X167985938Y-90294406D01*
X168032240Y-90377750D01*
X168060021Y-90484906D01*
X168069281Y-90615875D01*
X168061830Y-90729592D01*
X168039475Y-90825814D01*
X168002217Y-90904541D01*
X167950057Y-90965773D01*
X167882993Y-91009510D01*
X167801026Y-91035753D01*
X167704156Y-91044500D01*
X167593428Y-91034578D01*
X167477144Y-91004813D01*
X167477144Y-90873050D01*
X167585888Y-90905197D01*
X167683519Y-90915913D01*
X167768648Y-90902220D01*
X167830363Y-90861144D01*
X167869852Y-90787523D01*
X167888306Y-90676200D01*
X167437456Y-90676200D01*
X167434281Y-90612700D01*
G37*
G36*
X144180581Y-90331713D02*
G01*
X143969444Y-90331713D01*
X143969444Y-91028625D01*
X143791644Y-91028625D01*
X143791644Y-90203125D01*
X144180581Y-90203125D01*
X144180581Y-90331713D01*
G37*
G36*
X147892156Y-90806375D02*
G01*
X147895331Y-90806375D01*
X148071544Y-90203125D01*
X148244581Y-90203125D01*
X147969944Y-91012750D01*
X148100119Y-91377875D01*
X147925494Y-91377875D01*
X147546081Y-90203125D01*
X147727056Y-90203125D01*
X147892156Y-90806375D01*
G37*
G36*
X130921781Y-90612700D02*
G01*
X130925471Y-90552375D01*
X131093231Y-90552375D01*
X131375806Y-90552375D01*
X131362313Y-90438075D01*
X131334531Y-90365050D01*
X131290478Y-90325759D01*
X131228169Y-90312663D01*
X131128156Y-90367431D01*
X131102756Y-90441052D01*
X131093231Y-90552375D01*
X130925471Y-90552375D01*
X130930072Y-90477145D01*
X130954942Y-90368931D01*
X130996394Y-90288056D01*
X131054778Y-90232053D01*
X131130449Y-90198451D01*
X131223406Y-90187250D01*
X131325271Y-90199156D01*
X131408615Y-90234875D01*
X131473437Y-90294406D01*
X131519740Y-90377750D01*
X131547521Y-90484906D01*
X131556781Y-90615875D01*
X131546639Y-90746844D01*
X131516212Y-90854000D01*
X131465500Y-90937344D01*
X131394503Y-90996875D01*
X131303222Y-91032594D01*
X131191656Y-91044500D01*
X131080928Y-91034578D01*
X130964644Y-91004813D01*
X130964644Y-90873050D01*
X131073388Y-90905197D01*
X131171019Y-90915913D01*
X131256148Y-90902220D01*
X131317863Y-90861144D01*
X131357352Y-90787523D01*
X131375806Y-90676200D01*
X130924956Y-90676200D01*
X130921781Y-90612700D01*
G37*
G36*
X169148252Y-90999344D02*
G01*
X169083694Y-90942900D01*
X169037833Y-90861408D01*
X169010316Y-90752400D01*
X169001144Y-90615875D01*
X169178944Y-90615875D01*
X169187873Y-90761330D01*
X169214663Y-90851619D01*
X169262486Y-90898648D01*
X169334519Y-90914325D01*
X169406552Y-90898648D01*
X169454375Y-90851619D01*
X169481164Y-90761330D01*
X169490094Y-90615875D01*
X169481164Y-90470420D01*
X169454375Y-90380131D01*
X169406552Y-90333102D01*
X169334519Y-90317425D01*
X169262486Y-90333102D01*
X169214663Y-90380131D01*
X169187873Y-90470420D01*
X169178944Y-90615875D01*
X169001144Y-90615875D01*
X169010316Y-90479350D01*
X169037833Y-90370342D01*
X169083694Y-90288850D01*
X169148252Y-90232406D01*
X169231860Y-90198539D01*
X169334519Y-90187250D01*
X169437177Y-90198539D01*
X169520785Y-90232406D01*
X169585344Y-90288850D01*
X169631205Y-90370342D01*
X169658722Y-90479350D01*
X169667894Y-90615875D01*
X169658722Y-90752400D01*
X169631205Y-90861408D01*
X169585344Y-90942900D01*
X169520785Y-90999344D01*
X169437177Y-91033211D01*
X169334519Y-91044500D01*
X169231860Y-91033211D01*
X169148252Y-90999344D01*
G37*
G36*
X166135706Y-91044500D02*
G01*
X166037281Y-91038856D01*
X165947323Y-91021922D01*
X165865831Y-90993700D01*
X165865831Y-90900038D01*
X166040456Y-90900038D01*
X166143644Y-90920675D01*
X166217066Y-90903609D01*
X166269056Y-90852412D01*
X166300013Y-90759147D01*
X166310331Y-90615875D01*
X166301798Y-90476373D01*
X166276200Y-90384894D01*
X166233139Y-90334292D01*
X166172219Y-90317425D01*
X166098003Y-90330919D01*
X166040456Y-90371400D01*
X166040456Y-90900038D01*
X165865831Y-90900038D01*
X165865831Y-89838000D01*
X166040456Y-89838000D01*
X166040456Y-90222175D01*
X166113878Y-90195981D01*
X166191269Y-90187250D01*
X166282197Y-90198362D01*
X166356016Y-90231700D01*
X166412725Y-90287262D01*
X166452853Y-90368225D01*
X166476931Y-90477762D01*
X166484956Y-90615875D01*
X166475608Y-90756369D01*
X166447562Y-90866700D01*
X166400819Y-90946869D01*
X166333967Y-91001108D01*
X166245597Y-91033652D01*
X166143644Y-91043716D01*
X166135706Y-91044500D01*
G37*
G36*
X147392094Y-90331713D02*
G01*
X147028556Y-90331713D01*
X147028556Y-90334887D01*
X147392094Y-90900038D01*
X147392094Y-91028625D01*
X146828531Y-91028625D01*
X146828531Y-90900038D01*
X147192069Y-90900038D01*
X147192069Y-90896863D01*
X146828531Y-90331713D01*
X146828531Y-90203125D01*
X147392094Y-90203125D01*
X147392094Y-90331713D01*
G37*
G36*
X155166081Y-90409500D02*
G01*
X154927956Y-90409500D01*
X154927956Y-90139625D01*
X155166081Y-90139625D01*
X155166081Y-90409500D01*
G37*
G36*
X125971956Y-91028625D02*
G01*
X125797331Y-91028625D01*
X125797331Y-90380925D01*
X125732641Y-90333300D01*
X125659219Y-90317425D01*
X125562381Y-90357112D01*
X125543331Y-90417834D01*
X125536981Y-90520625D01*
X125538569Y-91028625D01*
X125368706Y-91028625D01*
X125368706Y-90476175D01*
X125383391Y-90343817D01*
X125427444Y-90254719D01*
X125503644Y-90204117D01*
X125614769Y-90187250D01*
X125708034Y-90199156D01*
X125797331Y-90234875D01*
X125797331Y-89838000D01*
X125971956Y-89838000D01*
X125971956Y-91028625D01*
G37*
G36*
X160722331Y-90409500D02*
G01*
X160484206Y-90409500D01*
X160484206Y-90139625D01*
X160722331Y-90139625D01*
X160722331Y-90409500D01*
G37*
G36*
X139156144Y-91044500D02*
G01*
X139063010Y-91032594D01*
X138986810Y-90996875D01*
X138927544Y-90937344D01*
X138885210Y-90854000D01*
X138859810Y-90746844D01*
X138851344Y-90615875D01*
X139025969Y-90615875D01*
X139035395Y-90747141D01*
X139063672Y-90840903D01*
X139110801Y-90897160D01*
X139176781Y-90915913D01*
X139295844Y-90879400D01*
X139295844Y-90334887D01*
X139192656Y-90317425D01*
X139118242Y-90334292D01*
X139066450Y-90384894D01*
X139036089Y-90476373D01*
X139025969Y-90615875D01*
X138851344Y-90615875D01*
X138860604Y-90476969D01*
X138888385Y-90367167D01*
X138934687Y-90286469D01*
X139001274Y-90231347D01*
X139089910Y-90198274D01*
X139200594Y-90187250D01*
X139295491Y-90192894D01*
X139385449Y-90209828D01*
X139470469Y-90238050D01*
X139470469Y-91377875D01*
X139295844Y-91377875D01*
X139295844Y-91012750D01*
X139228375Y-91036562D01*
X139176781Y-91042232D01*
X139156144Y-91044500D01*
G37*
G36*
X123918112Y-90190552D02*
G01*
X124024665Y-90200458D01*
X124129440Y-90216968D01*
X124232437Y-90240082D01*
X124333656Y-90269800D01*
X124333656Y-91028625D01*
X124159031Y-91028625D01*
X124160619Y-90365050D01*
X124048259Y-90339474D01*
X123931313Y-90324128D01*
X123809781Y-90319013D01*
X123809781Y-90187250D01*
X123918112Y-90190552D01*
G37*
G36*
X146647556Y-91092125D02*
G01*
X146495156Y-91092125D01*
X145985569Y-89869750D01*
X146137969Y-89869750D01*
X146647556Y-91092125D01*
G37*
G36*
X136063694Y-90020563D02*
G01*
X135854144Y-90020563D01*
X135854144Y-89822125D01*
X136063694Y-89822125D01*
X136063694Y-90020563D01*
G37*
G36*
X124571781Y-90612700D02*
G01*
X124575471Y-90552375D01*
X124743231Y-90552375D01*
X125025806Y-90552375D01*
X125012312Y-90438075D01*
X124984531Y-90365050D01*
X124940478Y-90325759D01*
X124878169Y-90312663D01*
X124778156Y-90367431D01*
X124752756Y-90441052D01*
X124743231Y-90552375D01*
X124575471Y-90552375D01*
X124580072Y-90477145D01*
X124604942Y-90368931D01*
X124646394Y-90288056D01*
X124704778Y-90232053D01*
X124780449Y-90198451D01*
X124873406Y-90187250D01*
X124975271Y-90199156D01*
X125058615Y-90234875D01*
X125123437Y-90294406D01*
X125169740Y-90377750D01*
X125197521Y-90484906D01*
X125206781Y-90615875D01*
X125196639Y-90746844D01*
X125166212Y-90854000D01*
X125115500Y-90937344D01*
X125044503Y-90996875D01*
X124953222Y-91032594D01*
X124841656Y-91044500D01*
X124730928Y-91034578D01*
X124614644Y-91004813D01*
X124614644Y-90873050D01*
X124723388Y-90905197D01*
X124821019Y-90915913D01*
X124906148Y-90902220D01*
X124967862Y-90861144D01*
X125007352Y-90787523D01*
X125025806Y-90676200D01*
X124574956Y-90676200D01*
X124571781Y-90612700D01*
G37*
G36*
X132945050Y-90202133D02*
G01*
X133037919Y-90246781D01*
X133093878Y-90319211D01*
X133112531Y-90417437D01*
X133096656Y-90508917D01*
X133049031Y-90580156D01*
X132963703Y-90635520D01*
X132834719Y-90679375D01*
X132729944Y-90727000D01*
X132701369Y-90806375D01*
X132737881Y-90889719D01*
X132858531Y-90915913D01*
X132977991Y-90900434D01*
X133104594Y-90854000D01*
X133104594Y-90993700D01*
X133019927Y-91021922D01*
X132928910Y-91038856D01*
X132831544Y-91044500D01*
X132701964Y-91029022D01*
X132605325Y-90982587D01*
X132545198Y-90907578D01*
X132525156Y-90806375D01*
X132540436Y-90704775D01*
X132586275Y-90631750D01*
X132674183Y-90577775D01*
X132815669Y-90533325D01*
X132910125Y-90488875D01*
X132937906Y-90417437D01*
X132903378Y-90340047D01*
X132799794Y-90314250D01*
X132679144Y-90324172D01*
X132552144Y-90353937D01*
X132552144Y-90222175D01*
X132635047Y-90202772D01*
X132722888Y-90191131D01*
X132815669Y-90187250D01*
X132945050Y-90202133D01*
G37*
G36*
X137651194Y-90020563D02*
G01*
X137441644Y-90020563D01*
X137441644Y-89822125D01*
X137651194Y-89822125D01*
X137651194Y-90020563D01*
G37*
G36*
X143263800Y-90202133D02*
G01*
X143356669Y-90246781D01*
X143412628Y-90319211D01*
X143431281Y-90417437D01*
X143415406Y-90508917D01*
X143367781Y-90580156D01*
X143282453Y-90635520D01*
X143153469Y-90679375D01*
X143048694Y-90727000D01*
X143020119Y-90806375D01*
X143056631Y-90889719D01*
X143177281Y-90915913D01*
X143296741Y-90900434D01*
X143423344Y-90854000D01*
X143423344Y-90993700D01*
X143338677Y-91021922D01*
X143247660Y-91038856D01*
X143150294Y-91044500D01*
X143020714Y-91029022D01*
X142924075Y-90982587D01*
X142863948Y-90907578D01*
X142843906Y-90806375D01*
X142859186Y-90704775D01*
X142905025Y-90631750D01*
X142992933Y-90577775D01*
X143134419Y-90533325D01*
X143228875Y-90488875D01*
X143256656Y-90417437D01*
X143222128Y-90340047D01*
X143118544Y-90314250D01*
X142997894Y-90324172D01*
X142870894Y-90353937D01*
X142870894Y-90222175D01*
X142953797Y-90202772D01*
X143041638Y-90191131D01*
X143134419Y-90187250D01*
X143263800Y-90202133D01*
G37*
G36*
X152353031Y-90612700D02*
G01*
X152356721Y-90552375D01*
X152524481Y-90552375D01*
X152807056Y-90552375D01*
X152793563Y-90438075D01*
X152765781Y-90365050D01*
X152721728Y-90325759D01*
X152659419Y-90312663D01*
X152559406Y-90367431D01*
X152534006Y-90441052D01*
X152524481Y-90552375D01*
X152356721Y-90552375D01*
X152361322Y-90477145D01*
X152386192Y-90368931D01*
X152427644Y-90288056D01*
X152486028Y-90232053D01*
X152561699Y-90198451D01*
X152654656Y-90187250D01*
X152756521Y-90199156D01*
X152839865Y-90234875D01*
X152904688Y-90294406D01*
X152950990Y-90377750D01*
X152978771Y-90484906D01*
X152988031Y-90615875D01*
X152980580Y-90729592D01*
X152958225Y-90825814D01*
X152920967Y-90904541D01*
X152868807Y-90965773D01*
X152801743Y-91009510D01*
X152719776Y-91035753D01*
X152622906Y-91044500D01*
X152512178Y-91034578D01*
X152395894Y-91004813D01*
X152395894Y-90873050D01*
X152504638Y-90905197D01*
X152602269Y-90915913D01*
X152687398Y-90902220D01*
X152749113Y-90861144D01*
X152788602Y-90787523D01*
X152807056Y-90676200D01*
X152356206Y-90676200D01*
X152353031Y-90612700D01*
G37*
G36*
X144542002Y-90999344D02*
G01*
X144477444Y-90942900D01*
X144431583Y-90861408D01*
X144404066Y-90752400D01*
X144394894Y-90615875D01*
X144572694Y-90615875D01*
X144581623Y-90761330D01*
X144608413Y-90851619D01*
X144656236Y-90898648D01*
X144728269Y-90914325D01*
X144800302Y-90898648D01*
X144848125Y-90851619D01*
X144874914Y-90761330D01*
X144883844Y-90615875D01*
X144874914Y-90470420D01*
X144848125Y-90380131D01*
X144800302Y-90333102D01*
X144728269Y-90317425D01*
X144656236Y-90333102D01*
X144608413Y-90380131D01*
X144581623Y-90470420D01*
X144572694Y-90615875D01*
X144394894Y-90615875D01*
X144404066Y-90479350D01*
X144431583Y-90370342D01*
X144477444Y-90288850D01*
X144542002Y-90232406D01*
X144625610Y-90198539D01*
X144728269Y-90187250D01*
X144830927Y-90198539D01*
X144914535Y-90232406D01*
X144979094Y-90288850D01*
X145024955Y-90370342D01*
X145052472Y-90479350D01*
X145061644Y-90615875D01*
X145052472Y-90752400D01*
X145024955Y-90861408D01*
X144979094Y-90942900D01*
X144914535Y-90999344D01*
X144830927Y-91033211D01*
X144728269Y-91044500D01*
X144625610Y-91033211D01*
X144542002Y-90999344D01*
G37*
G36*
X168368112Y-90190552D02*
G01*
X168474665Y-90200458D01*
X168579440Y-90216968D01*
X168682437Y-90240082D01*
X168783656Y-90269800D01*
X168783656Y-91028625D01*
X168609031Y-91028625D01*
X168610619Y-90365050D01*
X168498259Y-90339474D01*
X168381313Y-90324128D01*
X168259781Y-90319013D01*
X168259781Y-90187250D01*
X168368112Y-90190552D01*
G37*
G36*
X145647960Y-90194658D02*
G01*
X145740565Y-90216883D01*
X145823644Y-90253925D01*
X145823644Y-91028625D01*
X145649019Y-91028625D01*
X145649019Y-90352350D01*
X145541069Y-90317425D01*
X145423594Y-90349175D01*
X145391844Y-90465063D01*
X145391844Y-91028625D01*
X145220394Y-91028625D01*
X145220394Y-90473000D01*
X145236864Y-90332109D01*
X145286275Y-90245987D01*
X145344395Y-90213356D01*
X145430914Y-90193776D01*
X145545831Y-90187250D01*
X145647960Y-90194658D01*
G37*
G36*
X148692256Y-90517450D02*
G01*
X148695431Y-90517450D01*
X148836719Y-90203125D01*
X149022456Y-90203125D01*
X148808144Y-90615875D01*
X149022456Y-91028625D01*
X148836719Y-91028625D01*
X148701781Y-90719063D01*
X148698606Y-90719063D01*
X148563669Y-91028625D01*
X148371581Y-91028625D01*
X148585894Y-90615875D01*
X148371581Y-90203125D01*
X148550969Y-90203125D01*
X148692256Y-90517450D01*
G37*
G36*
X132174319Y-90234875D02*
G01*
X132337831Y-90234875D01*
X132337831Y-90363462D01*
X132174319Y-90363462D01*
X132174319Y-90790500D01*
X132160230Y-90913531D01*
X132117963Y-90990525D01*
X132039580Y-91031006D01*
X131917144Y-91044500D01*
X131829434Y-91039738D01*
X131750456Y-91025450D01*
X131750456Y-90880988D01*
X131818322Y-90898847D01*
X131885394Y-90904800D01*
X131980644Y-90878606D01*
X132001281Y-90758750D01*
X132001281Y-90363462D01*
X131734581Y-90363462D01*
X131734581Y-90234875D01*
X132001281Y-90234875D01*
X132001281Y-89933250D01*
X132174319Y-89933250D01*
X132174319Y-90234875D01*
G37*
G36*
X134236862Y-90190552D02*
G01*
X134343415Y-90200458D01*
X134448190Y-90216968D01*
X134551187Y-90240082D01*
X134652406Y-90269800D01*
X134652406Y-91028625D01*
X134477781Y-91028625D01*
X134479369Y-90365050D01*
X134367009Y-90339474D01*
X134250063Y-90324128D01*
X134128531Y-90319013D01*
X134128531Y-90187250D01*
X134236862Y-90190552D01*
G37*
G36*
X155166081Y-91028625D02*
G01*
X154927956Y-91028625D01*
X154927956Y-90758750D01*
X155166081Y-90758750D01*
X155166081Y-91028625D01*
G37*
G36*
X159309456Y-91028625D02*
G01*
X159134831Y-91028625D01*
X159134831Y-90380925D01*
X159070141Y-90333300D01*
X158996719Y-90317425D01*
X158899881Y-90357112D01*
X158880831Y-90417834D01*
X158874481Y-90520625D01*
X158876069Y-91028625D01*
X158706206Y-91028625D01*
X158706206Y-90476175D01*
X158720891Y-90343817D01*
X158764944Y-90254719D01*
X158841144Y-90204117D01*
X158952269Y-90187250D01*
X159045534Y-90199156D01*
X159134831Y-90234875D01*
X159134831Y-89838000D01*
X159309456Y-89838000D01*
X159309456Y-91028625D01*
G37*
G36*
X170121919Y-90607938D02*
G01*
X170125094Y-90607938D01*
X170221931Y-89869750D01*
X170429894Y-89869750D01*
X170490219Y-91028625D01*
X170334644Y-91028625D01*
X170307656Y-90044375D01*
X170302894Y-90044375D01*
X170212406Y-90758750D01*
X170061594Y-90758750D01*
X169963169Y-90044375D01*
X169961581Y-90044375D01*
X169937769Y-91028625D01*
X169767906Y-91028625D01*
X169826644Y-89869750D01*
X170026669Y-89869750D01*
X170121919Y-90607938D01*
G37*
%TO.C,R49*%
X117786359Y-113230000D02*
X118093641Y-113230000D01*
X117786359Y-112470000D02*
X118093641Y-112470000D01*
%TO.C,C9*%
X173411252Y-117635000D02*
X172888748Y-117635000D01*
X173411252Y-116165000D02*
X172888748Y-116165000D01*
%TO.C,C8*%
X173411252Y-115585000D02*
X172888748Y-115585000D01*
X173411252Y-114115000D02*
X172888748Y-114115000D01*
%TO.C,U3*%
X160360000Y-116699906D02*
X160360000Y-119699906D01*
X157140000Y-118199906D02*
X157140000Y-119699906D01*
%TO.C,R11*%
X158820000Y-104489202D02*
X158820000Y-104181920D01*
X159580000Y-104489202D02*
X159580000Y-104181920D01*
%TO.C,C48*%
X155790000Y-119507742D02*
X155790000Y-119292070D01*
X156510000Y-119507742D02*
X156510000Y-119292070D01*
%TO.C,R45*%
X120246359Y-123120000D02*
X120553641Y-123120000D01*
X120246359Y-123880000D02*
X120553641Y-123880000D01*
%TO.C,C11*%
X129590093Y-92377406D02*
X133010093Y-92377406D01*
X129590093Y-99137406D02*
X129590093Y-92377406D01*
X133010093Y-92377406D02*
X133010093Y-99137406D01*
%TO.C,C69*%
X120092164Y-112490000D02*
X120307836Y-112490000D01*
X120092164Y-113210000D02*
X120307836Y-113210000D01*
%TO.C,C66*%
X119207836Y-122810000D02*
X118992164Y-122810000D01*
X119207836Y-122090000D02*
X118992164Y-122090000D01*
%TO.C,C2*%
X156385000Y-111411158D02*
X156385000Y-110888654D01*
X154915000Y-111411158D02*
X154915000Y-110888654D01*
%TO.C,U9*%
X122910000Y-117150000D02*
X122910000Y-120600000D01*
X117790000Y-117150000D02*
X117790000Y-119100000D01*
X117790000Y-117150000D02*
X117790000Y-115200000D01*
X122910000Y-117150000D02*
X122910000Y-115200000D01*
%TO.C,U12*%
X125540000Y-116450000D02*
X125540000Y-114650000D01*
X128660000Y-116450000D02*
X128660000Y-115650000D01*
X125540000Y-116450000D02*
X125540000Y-117250000D01*
X128660000Y-116450000D02*
X128660000Y-117250000D01*
%TO.C,C32*%
X173399348Y-109635000D02*
X172876844Y-109635000D01*
X173399348Y-108165000D02*
X172876844Y-108165000D01*
%TO.C,C70*%
X128640000Y-111092164D02*
X128640000Y-111307836D01*
X129360000Y-111092164D02*
X129360000Y-111307836D01*
%TO.C,C18*%
X141290093Y-99137406D02*
X141290093Y-92377406D01*
X144710093Y-92377406D02*
X144710093Y-99137406D01*
X141290093Y-92377406D02*
X144710093Y-92377406D01*
%TO.C,R48*%
X118380000Y-110403641D02*
X118380000Y-110096359D01*
X117620000Y-110403641D02*
X117620000Y-110096359D01*
%TO.C,C27*%
X173399348Y-96064999D02*
X172876844Y-96064999D01*
X173399348Y-97534999D02*
X172876844Y-97534999D01*
%TO.C,R47*%
X121803641Y-122070000D02*
X121496359Y-122070000D01*
X121803641Y-122830000D02*
X121496359Y-122830000D01*
%TO.C,C29*%
X173399348Y-99584999D02*
X172876844Y-99584999D01*
X173399348Y-98114999D02*
X172876844Y-98114999D01*
%TO.C,C65*%
X123740000Y-110165000D02*
X127650000Y-110165000D01*
X127650000Y-112035000D02*
X123740000Y-112035000D01*
X123740000Y-112035000D02*
X123740000Y-110165000D01*
%TO.C,G\u002A\u002A\u002A*%
G36*
X135897878Y-111426270D02*
G01*
X135513029Y-111426270D01*
X135513029Y-111079906D01*
X135897878Y-111079906D01*
X135897878Y-111426270D01*
G37*
G36*
X143325454Y-109578997D02*
G01*
X142209393Y-109578997D01*
X142209393Y-108462936D01*
X143325454Y-108462936D01*
X143325454Y-109578997D01*
G37*
G36*
X144056666Y-114043240D02*
G01*
X143671817Y-114043240D01*
X143671817Y-113312027D01*
X144056666Y-113312027D01*
X144056666Y-114043240D01*
G37*
G36*
X141093333Y-114774452D02*
G01*
X140708484Y-114774452D01*
X140708484Y-114389603D01*
X141093333Y-114389603D01*
X141093333Y-114774452D01*
G37*
G36*
X140708484Y-113658391D02*
G01*
X140362120Y-113658391D01*
X140362120Y-113312027D01*
X140708484Y-113312027D01*
X140708484Y-113658391D01*
G37*
G36*
X141093333Y-108116573D02*
G01*
X140708484Y-108116573D01*
X140708484Y-107731724D01*
X141093333Y-107731724D01*
X141093333Y-108116573D01*
G37*
G36*
X141439696Y-107731724D02*
G01*
X144056666Y-107731724D01*
X144056666Y-110348694D01*
X141439696Y-110348694D01*
X141439696Y-109963846D01*
X141824545Y-109963846D01*
X143671817Y-109963846D01*
X143671817Y-108116573D01*
X141824545Y-108116573D01*
X141824545Y-109963846D01*
X141439696Y-109963846D01*
X141439696Y-107731724D01*
G37*
G36*
X140708484Y-108462936D02*
G01*
X140362120Y-108462936D01*
X140362120Y-108116573D01*
X140708484Y-108116573D01*
X140708484Y-108462936D01*
G37*
G36*
X137398787Y-110348694D02*
G01*
X137013939Y-110348694D01*
X137013939Y-109963846D01*
X137398787Y-109963846D01*
X137398787Y-110348694D01*
G37*
G36*
X143325454Y-116275361D02*
G01*
X142209393Y-116275361D01*
X142209393Y-115159300D01*
X143325454Y-115159300D01*
X143325454Y-116275361D01*
G37*
G36*
X141093333Y-109578997D02*
G01*
X140708484Y-109578997D01*
X140708484Y-108462936D01*
X141093333Y-108462936D01*
X141093333Y-109578997D01*
G37*
G36*
X141824545Y-111811118D02*
G01*
X141439696Y-111811118D01*
X141439696Y-111426270D01*
X141824545Y-111426270D01*
X141824545Y-111811118D01*
G37*
G36*
X136629090Y-116275361D02*
G01*
X135513029Y-116275361D01*
X135513029Y-115159300D01*
X136629090Y-115159300D01*
X136629090Y-116275361D01*
G37*
G36*
X144056666Y-111079906D02*
G01*
X143671817Y-111079906D01*
X143671817Y-110695058D01*
X144056666Y-110695058D01*
X144056666Y-111079906D01*
G37*
G36*
X142555757Y-111426270D02*
G01*
X142209393Y-111426270D01*
X142209393Y-111079906D01*
X142555757Y-111079906D01*
X142555757Y-111426270D01*
G37*
G36*
X144056666Y-112195967D02*
G01*
X143671817Y-112195967D01*
X143671817Y-111811118D01*
X143325454Y-111811118D01*
X143325454Y-112927179D01*
X142555757Y-112927179D01*
X142555757Y-113312027D01*
X142940605Y-113312027D01*
X142940605Y-113658391D01*
X143325454Y-113658391D01*
X143325454Y-114043240D01*
X142209393Y-114043240D01*
X142209393Y-113658391D01*
X141824545Y-113658391D01*
X141824545Y-114043240D01*
X141439696Y-114043240D01*
X141439696Y-113658391D01*
X141824545Y-113658391D01*
X141824545Y-113312027D01*
X142209393Y-113312027D01*
X142209393Y-112542330D01*
X142940605Y-112542330D01*
X142940605Y-112195967D01*
X142209393Y-112195967D01*
X142209393Y-112542330D01*
X141439696Y-112542330D01*
X141439696Y-112927179D01*
X141824545Y-112927179D01*
X141824545Y-113312027D01*
X141439696Y-113312027D01*
X141439696Y-113658391D01*
X141093333Y-113658391D01*
X141093333Y-113312027D01*
X141439696Y-113312027D01*
X141439696Y-112927179D01*
X141093333Y-112927179D01*
X141093333Y-112542330D01*
X141439696Y-112542330D01*
X141439696Y-112195967D01*
X141824545Y-112195967D01*
X141824545Y-111811118D01*
X142555757Y-111811118D01*
X142555757Y-111426270D01*
X142940605Y-111426270D01*
X142940605Y-111079906D01*
X143325454Y-111079906D01*
X143325454Y-111426270D01*
X142940605Y-111426270D01*
X142940605Y-111811118D01*
X143325454Y-111811118D01*
X143325454Y-111426270D01*
X144056666Y-111426270D01*
X144056666Y-112195967D01*
G37*
G36*
X134781817Y-114389603D02*
G01*
X137398787Y-114389603D01*
X137398787Y-117006573D01*
X134781817Y-117006573D01*
X134781817Y-116621724D01*
X135166666Y-116621724D01*
X137013939Y-116621724D01*
X137013939Y-114774452D01*
X135166666Y-114774452D01*
X135166666Y-116621724D01*
X134781817Y-116621724D01*
X134781817Y-114389603D01*
G37*
G36*
X139246060Y-116275361D02*
G01*
X138861211Y-116275361D01*
X138861211Y-116621724D01*
X138476363Y-116621724D01*
X138476363Y-116275361D01*
X138129999Y-116275361D01*
X138129999Y-115505664D01*
X138476363Y-115505664D01*
X138476363Y-115159300D01*
X138129999Y-115159300D01*
X138129999Y-115505664D01*
X137745151Y-115505664D01*
X137745151Y-115159300D01*
X138129999Y-115159300D01*
X138129999Y-114774452D01*
X138476363Y-114774452D01*
X138476363Y-114389603D01*
X138129999Y-114389603D01*
X138129999Y-114774452D01*
X137745151Y-114774452D01*
X137745151Y-114043240D01*
X138476363Y-114043240D01*
X138861211Y-114043240D01*
X139246060Y-114043240D01*
X139246060Y-113658391D01*
X138861211Y-113658391D01*
X138861211Y-114043240D01*
X138476363Y-114043240D01*
X138476363Y-113658391D01*
X138861211Y-113658391D01*
X138861211Y-113312027D01*
X137745151Y-113312027D01*
X137745151Y-114043240D01*
X137398787Y-114043240D01*
X137398787Y-113658391D01*
X136282726Y-113658391D01*
X136282726Y-114043240D01*
X134781817Y-114043240D01*
X134781817Y-113658391D01*
X135166666Y-113658391D01*
X135513029Y-113658391D01*
X135513029Y-113312027D01*
X136282726Y-113312027D01*
X136629090Y-113312027D01*
X137398787Y-113312027D01*
X137398787Y-112927179D01*
X137745151Y-112927179D01*
X137745151Y-112542330D01*
X137398787Y-112542330D01*
X137398787Y-112927179D01*
X137013939Y-112927179D01*
X137013939Y-112542330D01*
X136629090Y-112542330D01*
X136629090Y-113312027D01*
X136282726Y-113312027D01*
X136282726Y-112542330D01*
X135897878Y-112542330D01*
X135897878Y-112927179D01*
X135513029Y-112927179D01*
X135513029Y-113312027D01*
X135166666Y-113312027D01*
X135166666Y-113658391D01*
X134781817Y-113658391D01*
X134781817Y-113312027D01*
X135166666Y-113312027D01*
X135166666Y-112927179D01*
X135513029Y-112927179D01*
X135513029Y-111811118D01*
X135897878Y-111811118D01*
X135897878Y-111426270D01*
X136282726Y-111426270D01*
X136282726Y-111811118D01*
X136629090Y-111811118D01*
X136629090Y-112195967D01*
X137398787Y-112195967D01*
X137398787Y-111811118D01*
X137745151Y-111811118D01*
X137745151Y-112542330D01*
X138129999Y-112542330D01*
X138129999Y-112927179D01*
X138861211Y-112927179D01*
X138861211Y-112542330D01*
X139592423Y-112542330D01*
X139592423Y-111811118D01*
X139977272Y-111811118D01*
X139977272Y-111426270D01*
X139592423Y-111426270D01*
X139592423Y-111079906D01*
X139977272Y-111079906D01*
X139977272Y-110695058D01*
X139246060Y-110695058D01*
X139246060Y-112195967D01*
X138861211Y-112195967D01*
X138861211Y-112542330D01*
X138129999Y-112542330D01*
X138129999Y-112195967D01*
X138476363Y-112195967D01*
X138861211Y-112195967D01*
X138861211Y-111811118D01*
X138476363Y-111811118D01*
X138476363Y-112195967D01*
X138129999Y-112195967D01*
X138129999Y-111811118D01*
X138476363Y-111811118D01*
X138476363Y-111426270D01*
X138861211Y-111426270D01*
X138861211Y-110695058D01*
X139246060Y-110695058D01*
X139246060Y-110348694D01*
X138861211Y-110348694D01*
X138861211Y-110695058D01*
X138476363Y-110695058D01*
X138476363Y-111426270D01*
X137745151Y-111426270D01*
X137745151Y-111079906D01*
X137013939Y-111079906D01*
X137013939Y-111426270D01*
X136629090Y-111426270D01*
X136629090Y-111079906D01*
X136282726Y-111079906D01*
X136282726Y-110695058D01*
X136629090Y-110695058D01*
X137745151Y-110695058D01*
X137745151Y-109963846D01*
X138129999Y-109963846D01*
X138129999Y-110348694D01*
X138861211Y-110348694D01*
X138861211Y-109578997D01*
X138476363Y-109578997D01*
X138476363Y-109963846D01*
X138129999Y-109963846D01*
X137745151Y-109963846D01*
X137745151Y-109578997D01*
X136629090Y-109578997D01*
X136629090Y-110695058D01*
X136282726Y-110695058D01*
X136282726Y-110348694D01*
X135897878Y-110348694D01*
X135897878Y-110695058D01*
X135166666Y-110695058D01*
X135166666Y-109963846D01*
X136282726Y-109963846D01*
X136282726Y-109578997D01*
X135166666Y-109578997D01*
X135166666Y-109963846D01*
X134781817Y-109963846D01*
X134781817Y-109232633D01*
X135166666Y-109232633D01*
X135897878Y-109232633D01*
X135897878Y-108847785D01*
X136282726Y-108847785D01*
X136629090Y-108847785D01*
X136629090Y-109232633D01*
X137745151Y-109232633D01*
X138129999Y-109232633D01*
X139592423Y-109232633D01*
X139592423Y-108847785D01*
X139246060Y-108847785D01*
X139246060Y-108116573D01*
X138861211Y-108116573D01*
X138861211Y-108847785D01*
X138476363Y-108847785D01*
X138476363Y-108116573D01*
X138129999Y-108116573D01*
X138129999Y-109232633D01*
X137745151Y-109232633D01*
X137745151Y-108847785D01*
X137013939Y-108847785D01*
X137013939Y-108462936D01*
X137398787Y-108462936D01*
X137745151Y-108462936D01*
X137745151Y-108116573D01*
X137398787Y-108116573D01*
X137398787Y-108462936D01*
X137013939Y-108462936D01*
X136282726Y-108462936D01*
X136282726Y-108847785D01*
X135897878Y-108847785D01*
X135166666Y-108847785D01*
X135166666Y-109232633D01*
X134781817Y-109232633D01*
X134781817Y-107731724D01*
X135166666Y-107731724D01*
X135166666Y-108462936D01*
X135513029Y-108462936D01*
X135513029Y-108116573D01*
X135897878Y-108116573D01*
X135897878Y-107731724D01*
X136282726Y-107731724D01*
X136282726Y-108116573D01*
X137013939Y-108116573D01*
X137013939Y-107731724D01*
X138476363Y-107731724D01*
X138476363Y-108116573D01*
X138861211Y-108116573D01*
X138861211Y-107731724D01*
X139592423Y-107731724D01*
X139592423Y-108462936D01*
X139977272Y-108462936D01*
X139977272Y-109232633D01*
X139592423Y-109232633D01*
X139592423Y-109963846D01*
X139977272Y-109963846D01*
X139977272Y-110695058D01*
X140362120Y-110695058D01*
X140362120Y-110348694D01*
X141093333Y-110348694D01*
X141093333Y-110695058D01*
X141824545Y-110695058D01*
X141824545Y-111079906D01*
X139977272Y-111079906D01*
X139977272Y-111426270D01*
X141093333Y-111426270D01*
X141093333Y-111811118D01*
X140708484Y-111811118D01*
X140708484Y-112195967D01*
X139977272Y-112195967D01*
X139977272Y-112927179D01*
X139246060Y-112927179D01*
X139246060Y-113312027D01*
X139592423Y-113312027D01*
X139592423Y-113658391D01*
X140362120Y-113658391D01*
X140362120Y-114043240D01*
X140708484Y-114043240D01*
X140708484Y-114389603D01*
X140362120Y-114389603D01*
X140362120Y-115159300D01*
X139977272Y-115159300D01*
X139977272Y-115890512D01*
X140362120Y-115890512D01*
X140362120Y-115505664D01*
X141093333Y-115505664D01*
X141093333Y-117006573D01*
X140708484Y-117006573D01*
X140708484Y-116621724D01*
X140362120Y-116621724D01*
X140362120Y-116275361D01*
X140708484Y-116275361D01*
X140708484Y-115890512D01*
X140362120Y-115890512D01*
X140362120Y-116275361D01*
X139977272Y-116275361D01*
X139977272Y-116621724D01*
X139592423Y-116621724D01*
X139592423Y-117006573D01*
X139246060Y-117006573D01*
X139246060Y-116275361D01*
X139592423Y-116275361D01*
X139592423Y-115159300D01*
X139977272Y-115159300D01*
X139977272Y-114043240D01*
X139246060Y-114043240D01*
X139246060Y-114389603D01*
X138861211Y-114389603D01*
X138861211Y-114774452D01*
X139246060Y-114774452D01*
X139246060Y-115159300D01*
X138861211Y-115159300D01*
X138861211Y-115505664D01*
X138476363Y-115505664D01*
X138476363Y-115890512D01*
X138861211Y-115890512D01*
X138861211Y-115505664D01*
X139246060Y-115505664D01*
X139246060Y-116275361D01*
G37*
G36*
X138476363Y-117006573D02*
G01*
X138129999Y-117006573D01*
X138129999Y-116621724D01*
X138476363Y-116621724D01*
X138476363Y-117006573D01*
G37*
G36*
X139592423Y-114774452D02*
G01*
X139246060Y-114774452D01*
X139246060Y-114389603D01*
X139592423Y-114389603D01*
X139592423Y-114774452D01*
G37*
G36*
X135166666Y-112542330D02*
G01*
X134781817Y-112542330D01*
X134781817Y-112195967D01*
X135166666Y-112195967D01*
X135166666Y-112542330D01*
G37*
G36*
X141439696Y-114389603D02*
G01*
X144056666Y-114389603D01*
X144056666Y-117006573D01*
X141439696Y-117006573D01*
X141439696Y-116621724D01*
X141824545Y-116621724D01*
X143671817Y-116621724D01*
X143671817Y-114774452D01*
X141824545Y-114774452D01*
X141824545Y-116621724D01*
X141439696Y-116621724D01*
X141439696Y-114389603D01*
G37*
G36*
X140708484Y-109963846D02*
G01*
X139977272Y-109963846D01*
X139977272Y-109578997D01*
X140708484Y-109578997D01*
X140708484Y-109963846D01*
G37*
G36*
X135166666Y-111811118D02*
G01*
X134781817Y-111811118D01*
X134781817Y-111426270D01*
X135166666Y-111426270D01*
X135166666Y-111811118D01*
G37*
G36*
X141093333Y-114043240D02*
G01*
X140708484Y-114043240D01*
X140708484Y-113658391D01*
X141093333Y-113658391D01*
X141093333Y-114043240D01*
G37*
%TO.C,C67*%
X121542164Y-121090000D02*
X121757836Y-121090000D01*
X121542164Y-121810000D02*
X121757836Y-121810000D01*
%TO.C,RISO6*%
X120872500Y-111037258D02*
X120872500Y-110562742D01*
X119827500Y-111037258D02*
X119827500Y-110562742D01*
%TO.C,C36*%
X173399349Y-105535000D02*
X172876845Y-105535000D01*
X173399349Y-104065000D02*
X172876845Y-104065000D01*
%TO.C,U2*%
X160360000Y-106685560D02*
X160360000Y-109685560D01*
X157140000Y-108185560D02*
X157140000Y-109685560D01*
%TO.C,C47*%
X157390000Y-111877724D02*
X157390000Y-112093396D01*
X158110000Y-111877724D02*
X158110000Y-112093396D01*
%TO.C,C20*%
X145190092Y-99137406D02*
X145190092Y-92377406D01*
X145190092Y-92377406D02*
X148610092Y-92377406D01*
X148610092Y-92377406D02*
X148610092Y-99137406D01*
%TO.C,C12*%
X133490093Y-99137406D02*
X133490093Y-92377406D01*
X133490093Y-92377406D02*
X136910093Y-92377406D01*
X136910093Y-92377406D02*
X136910093Y-99137406D01*
%TO.C,R50*%
X118670000Y-110096359D02*
X118670000Y-110403641D01*
X119430000Y-110096359D02*
X119430000Y-110403641D01*
%TO.C,C58*%
X159890000Y-104227724D02*
X159890000Y-104443396D01*
X160610000Y-104227724D02*
X160610000Y-104443396D01*
%TO.C,C25*%
X173399348Y-94014999D02*
X172876844Y-94014999D01*
X173399348Y-95484999D02*
X172876844Y-95484999D01*
%TO.C,C51*%
X144785000Y-101500000D02*
X144785000Y-105410000D01*
X142915000Y-105410000D02*
X142915000Y-101500000D01*
X144785000Y-105410000D02*
X142915000Y-105410000D01*
%TO.C,C68*%
X118057836Y-111490000D02*
X117842164Y-111490000D01*
X118057836Y-112210000D02*
X117842164Y-112210000D01*
%TO.C,R54*%
X126753641Y-114130000D02*
X126446359Y-114130000D01*
X126753641Y-113370000D02*
X126446359Y-113370000D01*
%TO.C,C50*%
X133915000Y-123700000D02*
X133915000Y-119790000D01*
X133915000Y-119790000D02*
X135785000Y-119790000D01*
X135785000Y-119790000D02*
X135785000Y-123700000D01*
%TO.C,C35*%
X173399348Y-107584999D02*
X172876844Y-107584999D01*
X173399348Y-106114999D02*
X172876844Y-106114999D01*
%TO.C,R5*%
X156620000Y-114357765D02*
X156620000Y-114665047D01*
X157380000Y-114357765D02*
X157380000Y-114665047D01*
%TO.C,RISO5*%
X125735060Y-121403867D02*
X126070593Y-121068334D01*
X124996133Y-120664940D02*
X125331666Y-120329407D01*
%TO.C,R7*%
X158370000Y-111831920D02*
X158370000Y-112139202D01*
X159130000Y-111831920D02*
X159130000Y-112139202D01*
%TO.C,R8*%
X157770000Y-104181920D02*
X157770000Y-104489202D01*
X158530000Y-104181920D02*
X158530000Y-104489202D01*
%TO.C,C15*%
X140810094Y-92377406D02*
X140810094Y-99137406D01*
X137390094Y-99137406D02*
X137390094Y-92377406D01*
X137390094Y-92377406D02*
X140810094Y-92377406D01*
%TO.C,R55*%
X128703641Y-112370000D02*
X128396359Y-112370000D01*
X128703641Y-113130000D02*
X128396359Y-113130000D01*
%TD*%
M02*
