%TF.GenerationSoftware,KiCad,Pcbnew,(6.0.5)*%
%TF.CreationDate,2022-11-19T18:23:49+08:00*%
%TF.ProjectId,EmoeNAP,456d6f65-4e41-4502-9e6b-696361645f70,rev?*%
%TF.SameCoordinates,Original*%
%TF.FileFunction,Soldermask,Bot*%
%TF.FilePolarity,Negative*%
%FSLAX46Y46*%
G04 Gerber Fmt 4.6, Leading zero omitted, Abs format (unit mm)*
G04 Created by KiCad (PCBNEW (6.0.5)) date 2022-11-19 18:23:49*
%MOMM*%
%LPD*%
G01*
G04 APERTURE LIST*
G04 Aperture macros list*
%AMRoundRect*
0 Rectangle with rounded corners*
0 $1 Rounding radius*
0 $2 $3 $4 $5 $6 $7 $8 $9 X,Y pos of 4 corners*
0 Add a 4 corners polygon primitive as box body*
4,1,4,$2,$3,$4,$5,$6,$7,$8,$9,$2,$3,0*
0 Add four circle primitives for the rounded corners*
1,1,$1+$1,$2,$3*
1,1,$1+$1,$4,$5*
1,1,$1+$1,$6,$7*
1,1,$1+$1,$8,$9*
0 Add four rect primitives between the rounded corners*
20,1,$1+$1,$2,$3,$4,$5,0*
20,1,$1+$1,$4,$5,$6,$7,0*
20,1,$1+$1,$6,$7,$8,$9,0*
20,1,$1+$1,$8,$9,$2,$3,0*%
G04 Aperture macros list end*
%ADD10C,0.600000*%
%ADD11C,3.600000*%
%ADD12RoundRect,0.250000X-0.600000X-0.725000X0.600000X-0.725000X0.600000X0.725000X-0.600000X0.725000X0*%
%ADD13O,1.700000X1.950000*%
%ADD14C,1.500000*%
%ADD15C,2.000000*%
%ADD16C,1.440000*%
%ADD17RoundRect,0.140000X-0.170000X0.140000X-0.170000X-0.140000X0.170000X-0.140000X0.170000X0.140000X0*%
%ADD18RoundRect,0.250000X0.250000X0.475000X-0.250000X0.475000X-0.250000X-0.475000X0.250000X-0.475000X0*%
%ADD19RoundRect,0.135000X-0.185000X0.135000X-0.185000X-0.135000X0.185000X-0.135000X0.185000X0.135000X0*%
%ADD20RoundRect,0.135000X0.185000X-0.135000X0.185000X0.135000X-0.185000X0.135000X-0.185000X-0.135000X0*%
%ADD21RoundRect,0.250000X-0.475000X0.250000X-0.475000X-0.250000X0.475000X-0.250000X0.475000X0.250000X0*%
%ADD22RoundRect,0.062500X-0.062500X0.425000X-0.062500X-0.425000X0.062500X-0.425000X0.062500X0.425000X0*%
%ADD23R,2.000000X1.200000*%
%ADD24RoundRect,0.140000X0.170000X-0.140000X0.170000X0.140000X-0.170000X0.140000X-0.170000X-0.140000X0*%
%ADD25RoundRect,0.250000X-0.787500X-0.925000X0.787500X-0.925000X0.787500X0.925000X-0.787500X0.925000X0*%
%ADD26RoundRect,0.250000X0.475000X-0.250000X0.475000X0.250000X-0.475000X0.250000X-0.475000X-0.250000X0*%
G04 APERTURE END LIST*
D10*
X118800000Y-108400000D02*
X118800000Y-117200000D01*
X118800000Y-117200000D02*
X127200000Y-117200000D01*
X118800000Y-105600000D02*
X118800000Y-108400000D01*
X127200000Y-117200000D02*
X127200000Y-103000000D01*
X127200000Y-96800000D02*
X118800000Y-96800000D01*
X127200000Y-103000000D02*
X127200000Y-96800000D01*
X118800000Y-96800000D02*
X118800000Y-105600000D01*
%TO.C,G\u002A\u002A\u002A*%
G36*
X127725394Y-93093926D02*
G01*
X127767979Y-93094136D01*
X127802659Y-93094630D01*
X127825998Y-93095341D01*
X127834559Y-93096200D01*
X127835053Y-93098891D01*
X127838530Y-93116779D01*
X127845058Y-93150026D01*
X127854315Y-93196996D01*
X127865975Y-93256048D01*
X127879716Y-93325546D01*
X127895213Y-93403848D01*
X127912144Y-93489319D01*
X127930184Y-93580317D01*
X127939671Y-93628192D01*
X127957194Y-93716820D01*
X127973433Y-93799225D01*
X127988064Y-93873743D01*
X128000763Y-93938711D01*
X128011206Y-93992466D01*
X128019066Y-94033347D01*
X128024021Y-94059689D01*
X128025744Y-94069830D01*
X128025696Y-94070055D01*
X128015979Y-94072955D01*
X127991781Y-94075322D01*
X127956580Y-94076917D01*
X127913854Y-94077501D01*
X127801964Y-94077501D01*
X127708242Y-93606203D01*
X127700955Y-93569567D01*
X127683247Y-93480650D01*
X127666641Y-93397395D01*
X127651484Y-93321547D01*
X127638127Y-93254849D01*
X127626919Y-93199043D01*
X127618208Y-93155873D01*
X127612345Y-93127082D01*
X127609679Y-93114414D01*
X127609380Y-93113142D01*
X127608222Y-93105068D01*
X127611099Y-93099647D01*
X127620845Y-93096350D01*
X127640297Y-93094649D01*
X127672292Y-93094017D01*
X127719665Y-93093923D01*
X127725394Y-93093926D01*
G37*
G36*
X119296022Y-94477970D02*
G01*
X119344196Y-94478121D01*
X119412443Y-94478467D01*
X119473230Y-94478931D01*
X119524406Y-94479489D01*
X119563821Y-94480115D01*
X119589323Y-94480785D01*
X119598762Y-94481474D01*
X119601017Y-94486804D01*
X119607515Y-94506118D01*
X119616713Y-94535242D01*
X119627267Y-94569713D01*
X119637831Y-94605064D01*
X119647058Y-94636830D01*
X119653602Y-94660546D01*
X119656117Y-94671747D01*
X119652701Y-94679102D01*
X119640337Y-94676231D01*
X119621405Y-94661882D01*
X119598499Y-94637594D01*
X119583407Y-94620902D01*
X119558627Y-94597739D01*
X119537937Y-94583008D01*
X119533487Y-94581015D01*
X119508139Y-94574323D01*
X119475043Y-94569765D01*
X119440584Y-94567773D01*
X119411151Y-94568779D01*
X119393131Y-94573214D01*
X119392821Y-94573462D01*
X119389711Y-94583768D01*
X119387226Y-94608446D01*
X119385340Y-94648264D01*
X119384025Y-94703988D01*
X119383255Y-94776387D01*
X119383005Y-94866226D01*
X119383005Y-95152980D01*
X119405359Y-95175334D01*
X119407026Y-95176965D01*
X119425990Y-95191654D01*
X119441250Y-95197688D01*
X119449689Y-95199096D01*
X119461614Y-95209791D01*
X119460285Y-95225222D01*
X119458917Y-95226312D01*
X119442698Y-95229585D01*
X119409748Y-95231665D01*
X119361206Y-95232503D01*
X119298211Y-95232052D01*
X119273321Y-95231634D01*
X119222722Y-95230503D01*
X119186783Y-95229016D01*
X119162964Y-95226878D01*
X119148726Y-95223796D01*
X119141530Y-95219476D01*
X119138836Y-95213625D01*
X119140289Y-95202403D01*
X119155071Y-95197688D01*
X119156083Y-95197659D01*
X119175969Y-95190739D01*
X119196721Y-95175334D01*
X119219075Y-95152980D01*
X119219075Y-94866226D01*
X119219073Y-94857432D01*
X119218777Y-94769189D01*
X119217960Y-94698318D01*
X119216595Y-94644052D01*
X119214656Y-94605624D01*
X119212116Y-94582267D01*
X119208949Y-94573214D01*
X119206319Y-94571998D01*
X119186309Y-94568753D01*
X119156113Y-94568094D01*
X119121993Y-94569763D01*
X119090212Y-94573503D01*
X119067035Y-94579056D01*
X119049160Y-94589681D01*
X119024056Y-94610155D01*
X118998248Y-94635510D01*
X118998161Y-94635603D01*
X118972444Y-94661405D01*
X118955299Y-94673353D01*
X118946445Y-94670866D01*
X118945599Y-94653369D01*
X118952480Y-94620281D01*
X118966806Y-94571024D01*
X118996068Y-94477252D01*
X119296022Y-94477970D01*
G37*
G36*
X124317703Y-93862214D02*
G01*
X124339649Y-93913880D01*
X124357874Y-93954566D01*
X124372866Y-93985376D01*
X124385111Y-94007416D01*
X124395097Y-94021791D01*
X124403311Y-94029606D01*
X124410242Y-94031965D01*
X124413950Y-94031140D01*
X124424601Y-94023742D01*
X124440147Y-94007604D01*
X124461618Y-93981435D01*
X124490047Y-93943947D01*
X124526465Y-93893850D01*
X124571904Y-93829853D01*
X124576461Y-93823369D01*
X124607484Y-93778350D01*
X124633974Y-93738395D01*
X124654400Y-93705931D01*
X124667228Y-93683383D01*
X124670926Y-93673176D01*
X124665802Y-93664892D01*
X124651469Y-93643787D01*
X124629823Y-93612754D01*
X124602667Y-93574372D01*
X124571801Y-93531219D01*
X124542969Y-93491493D01*
X124512929Y-93451628D01*
X124489197Y-93422683D01*
X124469635Y-93402267D01*
X124452105Y-93387985D01*
X124434469Y-93377443D01*
X124415802Y-93367367D01*
X124396399Y-93354267D01*
X124390807Y-93344571D01*
X124399900Y-93337823D01*
X124424551Y-93333567D01*
X124465634Y-93331349D01*
X124524023Y-93330710D01*
X124569779Y-93330964D01*
X124610724Y-93332062D01*
X124637338Y-93334205D01*
X124651747Y-93337580D01*
X124656078Y-93342375D01*
X124656055Y-93342864D01*
X124647675Y-93353941D01*
X124628756Y-93364351D01*
X124610151Y-93374978D01*
X124601434Y-93393069D01*
X124602765Y-93397983D01*
X124611961Y-93416950D01*
X124627945Y-93445288D01*
X124648401Y-93479278D01*
X124671014Y-93515200D01*
X124693467Y-93549333D01*
X124713443Y-93577958D01*
X124728628Y-93597356D01*
X124731404Y-93597105D01*
X124742527Y-93586389D01*
X124759391Y-93565048D01*
X124779767Y-93536462D01*
X124801432Y-93504013D01*
X124822157Y-93471083D01*
X124839717Y-93441053D01*
X124851885Y-93417305D01*
X124856436Y-93403220D01*
X124849585Y-93386193D01*
X124829172Y-93368992D01*
X124819977Y-93363580D01*
X124805032Y-93352872D01*
X124800493Y-93344720D01*
X124807660Y-93338793D01*
X124827832Y-93334760D01*
X124862311Y-93332289D01*
X124912394Y-93331050D01*
X124979383Y-93330710D01*
X124984847Y-93330712D01*
X125046279Y-93330960D01*
X125091786Y-93331746D01*
X125123487Y-93333220D01*
X125143505Y-93335531D01*
X125153960Y-93338830D01*
X125156974Y-93343266D01*
X125156973Y-93343399D01*
X125149208Y-93355394D01*
X125130848Y-93366644D01*
X125118387Y-93372751D01*
X125101205Y-93384703D01*
X125082022Y-93402654D01*
X125059238Y-93428448D01*
X125031251Y-93463929D01*
X124996463Y-93510943D01*
X124953271Y-93571335D01*
X124857064Y-93707226D01*
X124896137Y-93762586D01*
X124912317Y-93785513D01*
X124939353Y-93823829D01*
X124969737Y-93866895D01*
X124999452Y-93909018D01*
X125031203Y-93953454D01*
X125055826Y-93985932D01*
X125075602Y-94008653D01*
X125093172Y-94024330D01*
X125111179Y-94035675D01*
X125132262Y-94045401D01*
X125139287Y-94048632D01*
X125158406Y-94061299D01*
X125166081Y-94073070D01*
X125165113Y-94076600D01*
X125158600Y-94080838D01*
X125143807Y-94083720D01*
X125118250Y-94085483D01*
X125079449Y-94086367D01*
X125024919Y-94086609D01*
X124993616Y-94086540D01*
X124947570Y-94085954D01*
X124915998Y-94084579D01*
X124896462Y-94082187D01*
X124886528Y-94078551D01*
X124883758Y-94073445D01*
X124891024Y-94060724D01*
X124908803Y-94048315D01*
X124922559Y-94039978D01*
X124933732Y-94024205D01*
X124933369Y-94002318D01*
X124921225Y-93971867D01*
X124897056Y-93930402D01*
X124892615Y-93923386D01*
X124869275Y-93886421D01*
X124847176Y-93851295D01*
X124830579Y-93824776D01*
X124821723Y-93811145D01*
X124808434Y-93793127D01*
X124800755Y-93786071D01*
X124799689Y-93786705D01*
X124790194Y-93797726D01*
X124773191Y-93820348D01*
X124750699Y-93851826D01*
X124724738Y-93889414D01*
X124714905Y-93903962D01*
X124685704Y-93949220D01*
X124667187Y-93983067D01*
X124658869Y-94007764D01*
X124660261Y-94025570D01*
X124670877Y-94038744D01*
X124690230Y-94049546D01*
X124693713Y-94051163D01*
X124712266Y-94063261D01*
X124719828Y-94074591D01*
X124719685Y-94075451D01*
X124714976Y-94078887D01*
X124702341Y-94081577D01*
X124680065Y-94083600D01*
X124646435Y-94085035D01*
X124599736Y-94085962D01*
X124538253Y-94086460D01*
X124460273Y-94086609D01*
X124403091Y-94086550D01*
X124338318Y-94086232D01*
X124288578Y-94085551D01*
X124252023Y-94084415D01*
X124226806Y-94082730D01*
X124211081Y-94080403D01*
X124203000Y-94077339D01*
X124200717Y-94073445D01*
X124207982Y-94060731D01*
X124225762Y-94048333D01*
X124243235Y-94035247D01*
X124253004Y-94011477D01*
X124250786Y-93977216D01*
X124236744Y-93930712D01*
X124216711Y-93877143D01*
X123910595Y-93877143D01*
X123890923Y-93929509D01*
X123880086Y-93959877D01*
X123871524Y-93992263D01*
X123871437Y-94014746D01*
X123880041Y-94031106D01*
X123897552Y-94045122D01*
X123901703Y-94047807D01*
X123919528Y-94060721D01*
X123927321Y-94070451D01*
X123923719Y-94077432D01*
X123907361Y-94082102D01*
X123876884Y-94084897D01*
X123830926Y-94086253D01*
X123768125Y-94086609D01*
X123716945Y-94086535D01*
X123673457Y-94086109D01*
X123643488Y-94085053D01*
X123624536Y-94083092D01*
X123614097Y-94079948D01*
X123609669Y-94075346D01*
X123608749Y-94069008D01*
X123611508Y-94058490D01*
X123625523Y-94046083D01*
X123631738Y-94044089D01*
X123640102Y-94040806D01*
X123647945Y-94035991D01*
X123655853Y-94028353D01*
X123664410Y-94016603D01*
X123674201Y-93999449D01*
X123685810Y-93975602D01*
X123699823Y-93943771D01*
X123716822Y-93902665D01*
X123737394Y-93850994D01*
X123762123Y-93787468D01*
X123763989Y-93782612D01*
X123945715Y-93782612D01*
X123946014Y-93782859D01*
X123957510Y-93784115D01*
X123983215Y-93785135D01*
X124019743Y-93785820D01*
X124063705Y-93786071D01*
X124181695Y-93786071D01*
X124169406Y-93751919D01*
X124162003Y-93731883D01*
X124149364Y-93698373D01*
X124133657Y-93657155D01*
X124116705Y-93613034D01*
X124116702Y-93613026D01*
X124100483Y-93570926D01*
X124086193Y-93533713D01*
X124075380Y-93505422D01*
X124069588Y-93490087D01*
X124067725Y-93485257D01*
X124061931Y-93477564D01*
X124054935Y-93486026D01*
X124051723Y-93493268D01*
X124043068Y-93515128D01*
X124030658Y-93547636D01*
X124015769Y-93587330D01*
X123999673Y-93630749D01*
X123983647Y-93674434D01*
X123968963Y-93714923D01*
X123956897Y-93748756D01*
X123948723Y-93772473D01*
X123945715Y-93782612D01*
X123763989Y-93782612D01*
X123791593Y-93710797D01*
X123826389Y-93619689D01*
X123867096Y-93512855D01*
X123934747Y-93335264D01*
X124107693Y-93330074D01*
X124160028Y-93464724D01*
X124182959Y-93523647D01*
X124224664Y-93630284D01*
X124260698Y-93721521D01*
X124286580Y-93786071D01*
X124291548Y-93798462D01*
X124317703Y-93862214D01*
G37*
G36*
X122986355Y-94477180D02*
G01*
X122996881Y-94489855D01*
X122996524Y-94498508D01*
X122986582Y-94505540D01*
X122971431Y-94510366D01*
X122951762Y-94522933D01*
X122950338Y-94524089D01*
X122944359Y-94529513D01*
X122939655Y-94536282D01*
X122936029Y-94546504D01*
X122933279Y-94562288D01*
X122931207Y-94585742D01*
X122929613Y-94618975D01*
X122928299Y-94664094D01*
X122927063Y-94723208D01*
X122925708Y-94798426D01*
X122924876Y-94844405D01*
X122923510Y-94910766D01*
X122922074Y-94962503D01*
X122920383Y-95001888D01*
X122918250Y-95031193D01*
X122915489Y-95052691D01*
X122911914Y-95068656D01*
X122907340Y-95081359D01*
X122901579Y-95093074D01*
X122878445Y-95128553D01*
X122830463Y-95175515D01*
X122769370Y-95210977D01*
X122696423Y-95234077D01*
X122690228Y-95235244D01*
X122652185Y-95238974D01*
X122604115Y-95239896D01*
X122551655Y-95238281D01*
X122500442Y-95234402D01*
X122456112Y-95228532D01*
X122424302Y-95220941D01*
X122382666Y-95201631D01*
X122333737Y-95162431D01*
X122297215Y-95110027D01*
X122296725Y-95109066D01*
X122290229Y-95095752D01*
X122285095Y-95082701D01*
X122281117Y-95067605D01*
X122278089Y-95048153D01*
X122275805Y-95022036D01*
X122274059Y-94986945D01*
X122272645Y-94940570D01*
X122271357Y-94880602D01*
X122269989Y-94804731D01*
X122269310Y-94766662D01*
X122267940Y-94698227D01*
X122266533Y-94644910D01*
X122264923Y-94604609D01*
X122262947Y-94575218D01*
X122260440Y-94554633D01*
X122257237Y-94540752D01*
X122253174Y-94531471D01*
X122248087Y-94524684D01*
X122233177Y-94511784D01*
X122218488Y-94505540D01*
X122212803Y-94503969D01*
X122206239Y-94491879D01*
X122206375Y-94490332D01*
X122210427Y-94485186D01*
X122222083Y-94481696D01*
X122243994Y-94479568D01*
X122278812Y-94478507D01*
X122329186Y-94478218D01*
X122378968Y-94478541D01*
X122414713Y-94479712D01*
X122437163Y-94481990D01*
X122448806Y-94485631D01*
X122452134Y-94490892D01*
X122446543Y-94500617D01*
X122429531Y-94509238D01*
X122417961Y-94512899D01*
X122405812Y-94520126D01*
X122396442Y-94531983D01*
X122389537Y-94550410D01*
X122384784Y-94577345D01*
X122381868Y-94614729D01*
X122380476Y-94664500D01*
X122380293Y-94728597D01*
X122381006Y-94808960D01*
X122381533Y-94850577D01*
X122382605Y-94915591D01*
X122383927Y-94965899D01*
X122385659Y-95003788D01*
X122387963Y-95031542D01*
X122391000Y-95051449D01*
X122394933Y-95065794D01*
X122399921Y-95076863D01*
X122414340Y-95098459D01*
X122436778Y-95117782D01*
X122467364Y-95130091D01*
X122509346Y-95136592D01*
X122565974Y-95138491D01*
X122606863Y-95137572D01*
X122652465Y-95132413D01*
X122686898Y-95121443D01*
X122714112Y-95103238D01*
X122738059Y-95076371D01*
X122741138Y-95072068D01*
X122746227Y-95063121D01*
X122750173Y-95051668D01*
X122753160Y-95035466D01*
X122755368Y-95012270D01*
X122756980Y-94979837D01*
X122758176Y-94935922D01*
X122759139Y-94878281D01*
X122760050Y-94804670D01*
X122760183Y-94792983D01*
X122760863Y-94715986D01*
X122760779Y-94654961D01*
X122759606Y-94607935D01*
X122757020Y-94572933D01*
X122752698Y-94547984D01*
X122746317Y-94531115D01*
X122737551Y-94520351D01*
X122726078Y-94513721D01*
X122711574Y-94509251D01*
X122696683Y-94502371D01*
X122688921Y-94490892D01*
X122688987Y-94490027D01*
X122693380Y-94485127D01*
X122706374Y-94481644D01*
X122730369Y-94479329D01*
X122767769Y-94477933D01*
X122820975Y-94477207D01*
X122838298Y-94477067D01*
X122885770Y-94476608D01*
X122926716Y-94476107D01*
X122957240Y-94475614D01*
X122973445Y-94475183D01*
X122986355Y-94477180D01*
G37*
G36*
X122152938Y-94479233D02*
G01*
X122159094Y-94491398D01*
X122158613Y-94498881D01*
X122147296Y-94505540D01*
X122146236Y-94505592D01*
X122129472Y-94512622D01*
X122110199Y-94527894D01*
X122087845Y-94550248D01*
X122087845Y-94841664D01*
X122087933Y-94922744D01*
X122088376Y-94993531D01*
X122089428Y-95049714D01*
X122091341Y-95093156D01*
X122094366Y-95125724D01*
X122098755Y-95149282D01*
X122104760Y-95165694D01*
X122112633Y-95176827D01*
X122122626Y-95184544D01*
X122134990Y-95190712D01*
X122152831Y-95202787D01*
X122158529Y-95215902D01*
X122155572Y-95220845D01*
X122145171Y-95225381D01*
X122124754Y-95228519D01*
X122091590Y-95230642D01*
X122042946Y-95232132D01*
X122030983Y-95232368D01*
X121975622Y-95232118D01*
X121937937Y-95229188D01*
X121917626Y-95223504D01*
X121914392Y-95214991D01*
X121927934Y-95203575D01*
X121945624Y-95191067D01*
X121966639Y-95173057D01*
X121966668Y-95173030D01*
X121972900Y-95166708D01*
X121977758Y-95159613D01*
X121981413Y-95149563D01*
X121984037Y-95134380D01*
X121985800Y-95111883D01*
X121986873Y-95079892D01*
X121987428Y-95036227D01*
X121987635Y-94978707D01*
X121987666Y-94905153D01*
X121987665Y-94899996D01*
X121987431Y-94835744D01*
X121986832Y-94778382D01*
X121985921Y-94730175D01*
X121984754Y-94693387D01*
X121983383Y-94670283D01*
X121981863Y-94663129D01*
X121978364Y-94669708D01*
X121968259Y-94690918D01*
X121952727Y-94724398D01*
X121932845Y-94767763D01*
X121909690Y-94818625D01*
X121884336Y-94874599D01*
X121857860Y-94933298D01*
X121831339Y-94992335D01*
X121805847Y-95049324D01*
X121782462Y-95101879D01*
X121762259Y-95147613D01*
X121746314Y-95184139D01*
X121735703Y-95209072D01*
X121732377Y-95216488D01*
X121720710Y-95235574D01*
X121710711Y-95243224D01*
X121708957Y-95242384D01*
X121701548Y-95232510D01*
X121689606Y-95210942D01*
X121672791Y-95176943D01*
X121650764Y-95129776D01*
X121623184Y-95068704D01*
X121589711Y-94992991D01*
X121550006Y-94901900D01*
X121503729Y-94794694D01*
X121490692Y-94764654D01*
X121472282Y-94723236D01*
X121457047Y-94690175D01*
X121446291Y-94668279D01*
X121441318Y-94660355D01*
X121441306Y-94660356D01*
X121440182Y-94669235D01*
X121439362Y-94693946D01*
X121438864Y-94732132D01*
X121438707Y-94781436D01*
X121438907Y-94839502D01*
X121439483Y-94903973D01*
X121440360Y-94970055D01*
X121441738Y-95035669D01*
X121443763Y-95086647D01*
X121446758Y-95124956D01*
X121451051Y-95152562D01*
X121456965Y-95171433D01*
X121464828Y-95183533D01*
X121474963Y-95190831D01*
X121487697Y-95195292D01*
X121497358Y-95200766D01*
X121504984Y-95216964D01*
X121504535Y-95221543D01*
X121501117Y-95226554D01*
X121492153Y-95230025D01*
X121475109Y-95232236D01*
X121447451Y-95233468D01*
X121406647Y-95234001D01*
X121350162Y-95234117D01*
X121300865Y-95234052D01*
X121258022Y-95233641D01*
X121228673Y-95232583D01*
X121210274Y-95230580D01*
X121200281Y-95227331D01*
X121196150Y-95222539D01*
X121195339Y-95215902D01*
X121197833Y-95205300D01*
X121209414Y-95197688D01*
X121210468Y-95197632D01*
X121226782Y-95190586D01*
X121245843Y-95175334D01*
X121268197Y-95152980D01*
X121268197Y-94550248D01*
X121245843Y-94527894D01*
X121244222Y-94526309D01*
X121225065Y-94511588D01*
X121209414Y-94505540D01*
X121202662Y-94503854D01*
X121195339Y-94491879D01*
X121196011Y-94488763D01*
X121201791Y-94484283D01*
X121215616Y-94481245D01*
X121240026Y-94479393D01*
X121277562Y-94478469D01*
X121330767Y-94478218D01*
X121466194Y-94478218D01*
X121507349Y-94576121D01*
X121525802Y-94619913D01*
X121556725Y-94692802D01*
X121585470Y-94759953D01*
X121611230Y-94819520D01*
X121633202Y-94869656D01*
X121650579Y-94908518D01*
X121662556Y-94934259D01*
X121668329Y-94945034D01*
X121672038Y-94942765D01*
X121680145Y-94929814D01*
X121692907Y-94905143D01*
X121710719Y-94867903D01*
X121733976Y-94817248D01*
X121763073Y-94752330D01*
X121798406Y-94672303D01*
X121840371Y-94576318D01*
X121882933Y-94478612D01*
X122012711Y-94478415D01*
X122030177Y-94478385D01*
X122075172Y-94478264D01*
X122112335Y-94478104D01*
X122138204Y-94477923D01*
X122149319Y-94477737D01*
X122152938Y-94479233D01*
G37*
G36*
X125703287Y-93332938D02*
G01*
X125755245Y-93333773D01*
X125795705Y-93334997D01*
X125822429Y-93336568D01*
X125833178Y-93338446D01*
X125834245Y-93340865D01*
X125827524Y-93351803D01*
X125808579Y-93365673D01*
X125802951Y-93369256D01*
X125780619Y-93388624D01*
X125767017Y-93408490D01*
X125764667Y-93422747D01*
X125762556Y-93452986D01*
X125760856Y-93495981D01*
X125759570Y-93548915D01*
X125758697Y-93608975D01*
X125758240Y-93673346D01*
X125758199Y-93739211D01*
X125758576Y-93803757D01*
X125759372Y-93864169D01*
X125760587Y-93917630D01*
X125762224Y-93961327D01*
X125764283Y-93992445D01*
X125766766Y-94008168D01*
X125767559Y-94010053D01*
X125782772Y-94029853D01*
X125805471Y-94046348D01*
X125824048Y-94055908D01*
X125836765Y-94063775D01*
X125839493Y-94069620D01*
X125835761Y-94077016D01*
X125835171Y-94077590D01*
X125823152Y-94080417D01*
X125795930Y-94082552D01*
X125752905Y-94084009D01*
X125693477Y-94084802D01*
X125617046Y-94084945D01*
X125523011Y-94084452D01*
X125216339Y-94082055D01*
X125181428Y-93996666D01*
X125171008Y-93970194D01*
X125157897Y-93930505D01*
X125154236Y-93906247D01*
X125160055Y-93897309D01*
X125175382Y-93903581D01*
X125200247Y-93924953D01*
X125218329Y-93941430D01*
X125245814Y-93960944D01*
X125276559Y-93974740D01*
X125314292Y-93983944D01*
X125362741Y-93989685D01*
X125425637Y-93993088D01*
X125459646Y-93994022D01*
X125510051Y-93993934D01*
X125547365Y-93991760D01*
X125569075Y-93987596D01*
X125594120Y-93977773D01*
X125594120Y-93731427D01*
X125495079Y-93731427D01*
X125444456Y-93731852D01*
X125400145Y-93733776D01*
X125368636Y-93737840D01*
X125347032Y-93744674D01*
X125332440Y-93754910D01*
X125321964Y-93769180D01*
X125321435Y-93770094D01*
X125306527Y-93787777D01*
X125291305Y-93795120D01*
X125289690Y-93795071D01*
X125283298Y-93792502D01*
X125279133Y-93783837D01*
X125276732Y-93766048D01*
X125275632Y-93736106D01*
X125275368Y-93690983D01*
X125275392Y-93680466D01*
X125276516Y-93632011D01*
X125279595Y-93600139D01*
X125285015Y-93583521D01*
X125293161Y-93580824D01*
X125304420Y-93590718D01*
X125316845Y-93605832D01*
X125330659Y-93620930D01*
X125344346Y-93630835D01*
X125361572Y-93636638D01*
X125386007Y-93639431D01*
X125421317Y-93640306D01*
X125471173Y-93640355D01*
X125594120Y-93640355D01*
X125594120Y-93541291D01*
X125594116Y-93536643D01*
X125593387Y-93490746D01*
X125591150Y-93459827D01*
X125587047Y-93440931D01*
X125580719Y-93431105D01*
X125568188Y-93426286D01*
X125542728Y-93423387D01*
X125502725Y-93422457D01*
X125446387Y-93423395D01*
X125392138Y-93425578D01*
X125346790Y-93429725D01*
X125312065Y-93436877D01*
X125284010Y-93448234D01*
X125258670Y-93464994D01*
X125232091Y-93488356D01*
X125219162Y-93499823D01*
X125202868Y-93509293D01*
X125192213Y-93506201D01*
X125189426Y-93500597D01*
X125190265Y-93484413D01*
X125197932Y-93456926D01*
X125213008Y-93415602D01*
X125244064Y-93335264D01*
X125534623Y-93332857D01*
X125573830Y-93332606D01*
X125642069Y-93332535D01*
X125703287Y-93332938D01*
G37*
G36*
X124865902Y-94469176D02*
G01*
X124888193Y-94473699D01*
X124942729Y-94490905D01*
X124986335Y-94516282D01*
X125023977Y-94552444D01*
X125056384Y-94602380D01*
X125072965Y-94657164D01*
X125072872Y-94712976D01*
X125056120Y-94767001D01*
X125022721Y-94816419D01*
X125018093Y-94821487D01*
X124998400Y-94841107D01*
X124978162Y-94856490D01*
X124953918Y-94869203D01*
X124922204Y-94880811D01*
X124879558Y-94892881D01*
X124822518Y-94906980D01*
X124798899Y-94912622D01*
X124751550Y-94923993D01*
X124717712Y-94932463D01*
X124694406Y-94939050D01*
X124678654Y-94944770D01*
X124667475Y-94950640D01*
X124657890Y-94957675D01*
X124646921Y-94966893D01*
X124632556Y-94980750D01*
X124622219Y-95000638D01*
X124619649Y-95029315D01*
X124619688Y-95032687D01*
X124628447Y-95074791D01*
X124652022Y-95107010D01*
X124689692Y-95128912D01*
X124740738Y-95140066D01*
X124804438Y-95140040D01*
X124825264Y-95137737D01*
X124894607Y-95120211D01*
X124958892Y-95087098D01*
X125020873Y-95037087D01*
X125020886Y-95037074D01*
X125051569Y-95009811D01*
X125073058Y-94995117D01*
X125084205Y-94993775D01*
X125085687Y-95003974D01*
X125082774Y-95028839D01*
X125075769Y-95064687D01*
X125065415Y-95108158D01*
X125052455Y-95155889D01*
X125037631Y-95204518D01*
X125034996Y-95211804D01*
X125022210Y-95230444D01*
X125006660Y-95231186D01*
X124989024Y-95213899D01*
X124978150Y-95201158D01*
X124966005Y-95198736D01*
X124945248Y-95205771D01*
X124934872Y-95209753D01*
X124903494Y-95220398D01*
X124870097Y-95230380D01*
X124833192Y-95236882D01*
X124780653Y-95239514D01*
X124723798Y-95237308D01*
X124669607Y-95230572D01*
X124625059Y-95219610D01*
X124588253Y-95202576D01*
X124540372Y-95166126D01*
X124502379Y-95119512D01*
X124478401Y-95067030D01*
X124468347Y-95008168D01*
X124472636Y-94948016D01*
X124491719Y-94893683D01*
X124524906Y-94848422D01*
X124525489Y-94847846D01*
X124550977Y-94826218D01*
X124581223Y-94808099D01*
X124619561Y-94792089D01*
X124669325Y-94776792D01*
X124733849Y-94760809D01*
X124784393Y-94749044D01*
X124835966Y-94736185D01*
X124873601Y-94724909D01*
X124899486Y-94713954D01*
X124915809Y-94702059D01*
X124924760Y-94687961D01*
X124928525Y-94670398D01*
X124929294Y-94648110D01*
X124922612Y-94618721D01*
X124901353Y-94592722D01*
X124868182Y-94574138D01*
X124825838Y-94563620D01*
X124777061Y-94561817D01*
X124724593Y-94569377D01*
X124671174Y-94586951D01*
X124650304Y-94597605D01*
X124617448Y-94617991D01*
X124585765Y-94640910D01*
X124569589Y-94653390D01*
X124541382Y-94672397D01*
X124524857Y-94678435D01*
X124519492Y-94671747D01*
X124520680Y-94665548D01*
X124525955Y-94644561D01*
X124534480Y-94612919D01*
X124545190Y-94574646D01*
X124546109Y-94571424D01*
X124559105Y-94528837D01*
X124569875Y-94500924D01*
X124579793Y-94484707D01*
X124590237Y-94477209D01*
X124590276Y-94477195D01*
X124606722Y-94475302D01*
X124615243Y-94487791D01*
X124615679Y-94489148D01*
X124621018Y-94500641D01*
X124629870Y-94504297D01*
X124646559Y-94500147D01*
X124675411Y-94488223D01*
X124716526Y-94473976D01*
X124789389Y-94463435D01*
X124865902Y-94469176D01*
G37*
G36*
X128635927Y-93549283D02*
G01*
X129302354Y-93549283D01*
X129295974Y-93587989D01*
X129290210Y-93615066D01*
X129273391Y-93660740D01*
X129246458Y-93706054D01*
X129207457Y-93754043D01*
X129154433Y-93807743D01*
X129127102Y-93833881D01*
X129085931Y-93874940D01*
X129054332Y-93910070D01*
X129029558Y-93943126D01*
X129008863Y-93977962D01*
X128989500Y-94018433D01*
X128968723Y-94068394D01*
X128951827Y-94108334D01*
X128931287Y-94152264D01*
X128911803Y-94189644D01*
X128895988Y-94215200D01*
X128884916Y-94228954D01*
X128844551Y-94264362D01*
X128798217Y-94287676D01*
X128750970Y-94296074D01*
X128739240Y-94295474D01*
X128722819Y-94291190D01*
X128704857Y-94280776D01*
X128681654Y-94261905D01*
X128649509Y-94232249D01*
X128648758Y-94231539D01*
X128610380Y-94196632D01*
X128580078Y-94173191D01*
X128553916Y-94159086D01*
X128527960Y-94152186D01*
X128498274Y-94150359D01*
X128483530Y-94150761D01*
X128459968Y-94153954D01*
X128438254Y-94161491D01*
X128417376Y-94174747D01*
X128396328Y-94195098D01*
X128374098Y-94223917D01*
X128349679Y-94262579D01*
X128322061Y-94312458D01*
X128290235Y-94374930D01*
X128253192Y-94451368D01*
X128209922Y-94543148D01*
X128171153Y-94620294D01*
X128109665Y-94721381D01*
X128043940Y-94805142D01*
X127973695Y-94871876D01*
X127898649Y-94921878D01*
X127818520Y-94955447D01*
X127817880Y-94955642D01*
X127782182Y-94963165D01*
X127739408Y-94967246D01*
X127693750Y-94968090D01*
X127649401Y-94965900D01*
X127610553Y-94960882D01*
X127581398Y-94953238D01*
X127566131Y-94943172D01*
X127566760Y-94931995D01*
X127572226Y-94908663D01*
X127581349Y-94878265D01*
X127583809Y-94870485D01*
X127593708Y-94829334D01*
X127599297Y-94782618D01*
X127601385Y-94724113D01*
X127601442Y-94717523D01*
X127601304Y-94675167D01*
X127599421Y-94644604D01*
X127594767Y-94620149D01*
X127586320Y-94596121D01*
X127573056Y-94566835D01*
X127573053Y-94566829D01*
X127530767Y-94492372D01*
X127477169Y-94420674D01*
X127418034Y-94359462D01*
X127370127Y-94320302D01*
X127279563Y-94259806D01*
X127177316Y-94205510D01*
X127067285Y-94159393D01*
X126953371Y-94123437D01*
X126914665Y-94113228D01*
X126914815Y-93883622D01*
X126914966Y-93654016D01*
X126957262Y-93613158D01*
X126961741Y-93608808D01*
X126984919Y-93584865D01*
X127002875Y-93562058D01*
X127016345Y-93537624D01*
X127026065Y-93508798D01*
X127032771Y-93472815D01*
X127037199Y-93426911D01*
X127040085Y-93368321D01*
X127042166Y-93294282D01*
X127046719Y-93098477D01*
X127273782Y-93096037D01*
X127323140Y-93095683D01*
X127381287Y-93095758D01*
X127431413Y-93096374D01*
X127470971Y-93097480D01*
X127497412Y-93099021D01*
X127508190Y-93100944D01*
X127508591Y-93101596D01*
X127512650Y-93114619D01*
X127519360Y-93140997D01*
X127527885Y-93176951D01*
X127537390Y-93218704D01*
X127547040Y-93262477D01*
X127556000Y-93304493D01*
X127563434Y-93340974D01*
X127568507Y-93368143D01*
X127570384Y-93382221D01*
X127568133Y-93382945D01*
X127552013Y-93384181D01*
X127523766Y-93385035D01*
X127487432Y-93385354D01*
X127481275Y-93385355D01*
X127444421Y-93385617D01*
X127422079Y-93386938D01*
X127410978Y-93390178D01*
X127407849Y-93396194D01*
X127409424Y-93405845D01*
X127409456Y-93405979D01*
X127413032Y-93422890D01*
X127419041Y-93453369D01*
X127426652Y-93493133D01*
X127435035Y-93537899D01*
X127455702Y-93649463D01*
X127624202Y-93649463D01*
X127630275Y-93683615D01*
X127632630Y-93696304D01*
X127638514Y-93726903D01*
X127646718Y-93768889D01*
X127656499Y-93818470D01*
X127667116Y-93871854D01*
X127675278Y-93912999D01*
X127684292Y-93959169D01*
X127691454Y-93996689D01*
X127696180Y-94022491D01*
X127697885Y-94033507D01*
X127692995Y-94043542D01*
X127679670Y-94059287D01*
X127676298Y-94062435D01*
X127660611Y-94071636D01*
X127637506Y-94076243D01*
X127601645Y-94077501D01*
X127572110Y-94077930D01*
X127553391Y-94080037D01*
X127546066Y-94084861D01*
X127546552Y-94093439D01*
X127548700Y-94102375D01*
X127553816Y-94126459D01*
X127560780Y-94160748D01*
X127568813Y-94201232D01*
X127577134Y-94243903D01*
X127584964Y-94284755D01*
X127591523Y-94319777D01*
X127596030Y-94344963D01*
X127597705Y-94356305D01*
X127601727Y-94357873D01*
X127620957Y-94359377D01*
X127653381Y-94360002D01*
X127696024Y-94359843D01*
X127745911Y-94358996D01*
X127800068Y-94357557D01*
X127855519Y-94355621D01*
X127909291Y-94353283D01*
X127958408Y-94350640D01*
X127999896Y-94347786D01*
X128030780Y-94344818D01*
X128048085Y-94341832D01*
X128071883Y-94331697D01*
X128107091Y-94306445D01*
X128134254Y-94274482D01*
X128148432Y-94240783D01*
X128148999Y-94233617D01*
X128147270Y-94206986D01*
X128141486Y-94164484D01*
X128131572Y-94105659D01*
X128117454Y-94030056D01*
X128099060Y-93937220D01*
X128093469Y-93909545D01*
X128080181Y-93843443D01*
X128068319Y-93783964D01*
X128058324Y-93733352D01*
X128050638Y-93693853D01*
X128045702Y-93667712D01*
X128043959Y-93657173D01*
X128045288Y-93655751D01*
X128059634Y-93652535D01*
X128086388Y-93650300D01*
X128121370Y-93649463D01*
X128135009Y-93649331D01*
X128167748Y-93647753D01*
X128190350Y-93644748D01*
X128198781Y-93640770D01*
X128198643Y-93639120D01*
X128196117Y-93623007D01*
X128190900Y-93593548D01*
X128183629Y-93554274D01*
X128174941Y-93508716D01*
X128151100Y-93385354D01*
X128070208Y-93385354D01*
X128052868Y-93385281D01*
X128020288Y-93384682D01*
X127997740Y-93383609D01*
X127989315Y-93382221D01*
X127988864Y-93379427D01*
X127985553Y-93362065D01*
X127979553Y-93331626D01*
X127971491Y-93291278D01*
X127961994Y-93244192D01*
X127957190Y-93220353D01*
X127948289Y-93175485D01*
X127941147Y-93138533D01*
X127936397Y-93112804D01*
X127934672Y-93101609D01*
X127935404Y-93100522D01*
X127948218Y-93097159D01*
X127973696Y-93094808D01*
X128007530Y-93093923D01*
X128080387Y-93093923D01*
X128080387Y-92656777D01*
X128635927Y-92656777D01*
X128635927Y-93549283D01*
G37*
G36*
X127663349Y-92786274D02*
G01*
X127774529Y-92788832D01*
X127794978Y-92889011D01*
X127802165Y-92924521D01*
X127809142Y-92959702D01*
X127813958Y-92984834D01*
X127815853Y-92996021D01*
X127815763Y-92996320D01*
X127805608Y-92998867D01*
X127781048Y-93000943D01*
X127745515Y-93002339D01*
X127702438Y-93002851D01*
X127697526Y-93002848D01*
X127655043Y-93002527D01*
X127620428Y-93001757D01*
X127597130Y-93000645D01*
X127588598Y-92999300D01*
X127587864Y-92994738D01*
X127584177Y-92975501D01*
X127578087Y-92944999D01*
X127570384Y-92907225D01*
X127560000Y-92857976D01*
X127553930Y-92823602D01*
X127554375Y-92801845D01*
X127563436Y-92789969D01*
X127583218Y-92785239D01*
X127615821Y-92784919D01*
X127663349Y-92786274D01*
G37*
G36*
X125273565Y-94477175D02*
G01*
X125308571Y-94478318D01*
X125330535Y-94480692D01*
X125342239Y-94484624D01*
X125346466Y-94490439D01*
X125344204Y-94499962D01*
X125330286Y-94510006D01*
X125325340Y-94511690D01*
X125311295Y-94518818D01*
X125300868Y-94530015D01*
X125293587Y-94547634D01*
X125288983Y-94574031D01*
X125286589Y-94611560D01*
X125285933Y-94662577D01*
X125286546Y-94729436D01*
X125289028Y-94901257D01*
X125474528Y-94689738D01*
X125660028Y-94478218D01*
X125772789Y-94478218D01*
X125803191Y-94478354D01*
X125842878Y-94479339D01*
X125868209Y-94481502D01*
X125881621Y-94485107D01*
X125885551Y-94490417D01*
X125879326Y-94501541D01*
X125862309Y-94513206D01*
X125858194Y-94515168D01*
X125845705Y-94522988D01*
X125835718Y-94533856D01*
X125827956Y-94549669D01*
X125822144Y-94572321D01*
X125818007Y-94603709D01*
X125815269Y-94645726D01*
X125813654Y-94700270D01*
X125812887Y-94769235D01*
X125812693Y-94854516D01*
X125812785Y-94899457D01*
X125813491Y-94978828D01*
X125814859Y-95044808D01*
X125816850Y-95096192D01*
X125819423Y-95131776D01*
X125822539Y-95150356D01*
X125833934Y-95170533D01*
X125858968Y-95190367D01*
X125877764Y-95203281D01*
X125885551Y-95218382D01*
X125884598Y-95224093D01*
X125879477Y-95228752D01*
X125867369Y-95231572D01*
X125845468Y-95232864D01*
X125810971Y-95232936D01*
X125761073Y-95232097D01*
X125704558Y-95230219D01*
X125664110Y-95226949D01*
X125640056Y-95221977D01*
X125631489Y-95214965D01*
X125637507Y-95205578D01*
X125657204Y-95193479D01*
X125658816Y-95192644D01*
X125674722Y-95183795D01*
X125687144Y-95174257D01*
X125696486Y-95161838D01*
X125703150Y-95144348D01*
X125707539Y-95119598D01*
X125710054Y-95085395D01*
X125711100Y-95039551D01*
X125711079Y-94979876D01*
X125710393Y-94904177D01*
X125707960Y-94671698D01*
X125457686Y-94957461D01*
X125431062Y-94987789D01*
X125378720Y-95046981D01*
X125330466Y-95100988D01*
X125287605Y-95148381D01*
X125251447Y-95187731D01*
X125223299Y-95217607D01*
X125204469Y-95236581D01*
X125196264Y-95243224D01*
X125193758Y-95240469D01*
X125191116Y-95228833D01*
X125188903Y-95206867D01*
X125187065Y-95173257D01*
X125185552Y-95126690D01*
X125184309Y-95065850D01*
X125183286Y-94989425D01*
X125182429Y-94896099D01*
X125179742Y-94548975D01*
X125144072Y-94518150D01*
X125130891Y-94506028D01*
X125116871Y-94490408D01*
X125113584Y-94482144D01*
X125113749Y-94482014D01*
X125125354Y-94480044D01*
X125151257Y-94478431D01*
X125187774Y-94477338D01*
X125231219Y-94476928D01*
X125273565Y-94477175D01*
G37*
G36*
X119894152Y-94476557D02*
G01*
X119899978Y-94487506D01*
X119894949Y-94499898D01*
X119875780Y-94511487D01*
X119870318Y-94513776D01*
X119851076Y-94529262D01*
X119839138Y-94556843D01*
X119838977Y-94557443D01*
X119835852Y-94577654D01*
X119833322Y-94609825D01*
X119831406Y-94650605D01*
X119830126Y-94696642D01*
X119829504Y-94744585D01*
X119829560Y-94791085D01*
X119830315Y-94832791D01*
X119831792Y-94866351D01*
X119834010Y-94888415D01*
X119836992Y-94895632D01*
X119838523Y-94894429D01*
X119850255Y-94882436D01*
X119871840Y-94859038D01*
X119901741Y-94825943D01*
X119938421Y-94784860D01*
X119980342Y-94737498D01*
X120025967Y-94685566D01*
X120207207Y-94478536D01*
X120323324Y-94478377D01*
X120363270Y-94478545D01*
X120400375Y-94479579D01*
X120423758Y-94481783D01*
X120435940Y-94485425D01*
X120439441Y-94490774D01*
X120439395Y-94491520D01*
X120430774Y-94503470D01*
X120411771Y-94514791D01*
X120389692Y-94527666D01*
X120375342Y-94542619D01*
X120374559Y-94545084D01*
X120372342Y-94563974D01*
X120370410Y-94598559D01*
X120368815Y-94646946D01*
X120367610Y-94707241D01*
X120366849Y-94777551D01*
X120366583Y-94855983D01*
X120366583Y-95152980D01*
X120387610Y-95173057D01*
X120406595Y-95189403D01*
X120425635Y-95202805D01*
X120434697Y-95210701D01*
X120435946Y-95223296D01*
X120427602Y-95227666D01*
X120403802Y-95231307D01*
X120363893Y-95233429D01*
X120306849Y-95234117D01*
X120262484Y-95233989D01*
X120226815Y-95233303D01*
X120204015Y-95231658D01*
X120191246Y-95228658D01*
X120185667Y-95223907D01*
X120184439Y-95217007D01*
X120190436Y-95202927D01*
X120209736Y-95189419D01*
X120221579Y-95184065D01*
X120232781Y-95176612D01*
X120241321Y-95165906D01*
X120247568Y-95149809D01*
X120251889Y-95126185D01*
X120254655Y-95092895D01*
X120256234Y-95047803D01*
X120256994Y-94988771D01*
X120257303Y-94913663D01*
X120257425Y-94861178D01*
X120257540Y-94802868D01*
X120257617Y-94752679D01*
X120257652Y-94713134D01*
X120257642Y-94686757D01*
X120257585Y-94676070D01*
X120256297Y-94676692D01*
X120245491Y-94687383D01*
X120224895Y-94709542D01*
X120195942Y-94741574D01*
X120160065Y-94781888D01*
X120118698Y-94828888D01*
X120073274Y-94880982D01*
X120053053Y-94904267D01*
X120008757Y-94955225D01*
X119968943Y-95000959D01*
X119935099Y-95039762D01*
X119908717Y-95069927D01*
X119891287Y-95089745D01*
X119884299Y-95097509D01*
X119879811Y-95102273D01*
X119865143Y-95118511D01*
X119843191Y-95143123D01*
X119816720Y-95173017D01*
X119796932Y-95194704D01*
X119772438Y-95219363D01*
X119753763Y-95235565D01*
X119743863Y-95240570D01*
X119741355Y-95235176D01*
X119738644Y-95216230D01*
X119736243Y-95182948D01*
X119734118Y-95134556D01*
X119732238Y-95070276D01*
X119730569Y-94989334D01*
X119729079Y-94890954D01*
X119727971Y-94809086D01*
X119726743Y-94732318D01*
X119725339Y-94670531D01*
X119723549Y-94622010D01*
X119721166Y-94585042D01*
X119717980Y-94557912D01*
X119713784Y-94538905D01*
X119708368Y-94526308D01*
X119701524Y-94518407D01*
X119693045Y-94513486D01*
X119682720Y-94509833D01*
X119672888Y-94504411D01*
X119665328Y-94491266D01*
X119667027Y-94486856D01*
X119676017Y-94482596D01*
X119695155Y-94479951D01*
X119727126Y-94478598D01*
X119774615Y-94478218D01*
X119817500Y-94478039D01*
X119853727Y-94477550D01*
X119879367Y-94476826D01*
X119890607Y-94475942D01*
X119894152Y-94476557D01*
G37*
G36*
X126389180Y-93095361D02*
G01*
X126431662Y-93095894D01*
X126463458Y-93096845D01*
X126486176Y-93098267D01*
X126501426Y-93100216D01*
X126510818Y-93102745D01*
X126515960Y-93105911D01*
X126518464Y-93109766D01*
X126519975Y-93113651D01*
X126527476Y-93134242D01*
X126538393Y-93165180D01*
X126550924Y-93201382D01*
X126557097Y-93219586D01*
X126566562Y-93249865D01*
X126570285Y-93268126D01*
X126568761Y-93277839D01*
X126562484Y-93282477D01*
X126553515Y-93283335D01*
X126539788Y-93273097D01*
X126534229Y-93266333D01*
X126515358Y-93250602D01*
X126490023Y-93233925D01*
X126488516Y-93233046D01*
X126468510Y-93222553D01*
X126448369Y-93215401D01*
X126423572Y-93210718D01*
X126389600Y-93207626D01*
X126341934Y-93205252D01*
X126295588Y-93203677D01*
X126263236Y-93203664D01*
X126242138Y-93205560D01*
X126228816Y-93209682D01*
X126219789Y-93216346D01*
X126216015Y-93221346D01*
X126212832Y-93229389D01*
X126210278Y-93242069D01*
X126208285Y-93261083D01*
X126206785Y-93288128D01*
X126205710Y-93324901D01*
X126204993Y-93373099D01*
X126204564Y-93434420D01*
X126204357Y-93510560D01*
X126204303Y-93603218D01*
X126204311Y-93623907D01*
X126204666Y-93732323D01*
X126205549Y-93822602D01*
X126206963Y-93894806D01*
X126208908Y-93948993D01*
X126211385Y-93985225D01*
X126214397Y-94003561D01*
X126228004Y-94026722D01*
X126250826Y-94046137D01*
X126251918Y-94046713D01*
X126269783Y-94060070D01*
X126277160Y-94073182D01*
X126277141Y-94073714D01*
X126274172Y-94078443D01*
X126264543Y-94081887D01*
X126245945Y-94084237D01*
X126216068Y-94085681D01*
X126172600Y-94086408D01*
X126113231Y-94086609D01*
X126084975Y-94086559D01*
X126027931Y-94085861D01*
X125987250Y-94083970D01*
X125961622Y-94080418D01*
X125949738Y-94074737D01*
X125950288Y-94066459D01*
X125961963Y-94055116D01*
X125983453Y-94040240D01*
X126017605Y-94018142D01*
X126019980Y-93623111D01*
X126020257Y-93570911D01*
X126020521Y-93474209D01*
X126020334Y-93394357D01*
X126019681Y-93330437D01*
X126018542Y-93281525D01*
X126016900Y-93246703D01*
X126014736Y-93225050D01*
X126012034Y-93215644D01*
X126010711Y-93214291D01*
X125995552Y-93207946D01*
X125966441Y-93204346D01*
X125921313Y-93203209D01*
X125892704Y-93203538D01*
X125830617Y-93207605D01*
X125781965Y-93216915D01*
X125743663Y-93232222D01*
X125712626Y-93254281D01*
X125701777Y-93263664D01*
X125678568Y-93280152D01*
X125663321Y-93285379D01*
X125658295Y-93278344D01*
X125659631Y-93272858D01*
X125665794Y-93252787D01*
X125675794Y-93222158D01*
X125688335Y-93184995D01*
X125717950Y-93098477D01*
X126114938Y-93096105D01*
X126181516Y-93095723D01*
X126265716Y-93095330D01*
X126334401Y-93095191D01*
X126389180Y-93095361D01*
G37*
G36*
X126233954Y-94243001D02*
G01*
X126260305Y-94244203D01*
X126276268Y-94246464D01*
X126284153Y-94249935D01*
X126286268Y-94254769D01*
X126285821Y-94257245D01*
X126275027Y-94269909D01*
X126254334Y-94281851D01*
X126229420Y-94297519D01*
X126213352Y-94318995D01*
X126211804Y-94326393D01*
X126209534Y-94351796D01*
X126207657Y-94391497D01*
X126206166Y-94443174D01*
X126205055Y-94504505D01*
X126204316Y-94573167D01*
X126203943Y-94646838D01*
X126203927Y-94723197D01*
X126204263Y-94799921D01*
X126204943Y-94874688D01*
X126205961Y-94945176D01*
X126207308Y-95009062D01*
X126208979Y-95064025D01*
X126210967Y-95107742D01*
X126213264Y-95137892D01*
X126215863Y-95152152D01*
X126216284Y-95152972D01*
X126232943Y-95172673D01*
X126256514Y-95188581D01*
X126258488Y-95189532D01*
X126278130Y-95203590D01*
X126286071Y-95218380D01*
X126285169Y-95223628D01*
X126280498Y-95227835D01*
X126269641Y-95230662D01*
X126250193Y-95232303D01*
X126219750Y-95232950D01*
X126175907Y-95232798D01*
X126116259Y-95232041D01*
X126050187Y-95230599D01*
X125998936Y-95228207D01*
X125964098Y-95224666D01*
X125944765Y-95219739D01*
X125940028Y-95213192D01*
X125948978Y-95204788D01*
X125970706Y-95194291D01*
X125974215Y-95192740D01*
X125997524Y-95178361D01*
X126012318Y-95162629D01*
X126014394Y-95153797D01*
X126016784Y-95127047D01*
X126018731Y-95083045D01*
X126020237Y-95021598D01*
X126021307Y-94942515D01*
X126021947Y-94845605D01*
X126022159Y-94730677D01*
X126022157Y-94694738D01*
X126022110Y-94603134D01*
X126021947Y-94527556D01*
X126021599Y-94466379D01*
X126020997Y-94417981D01*
X126020073Y-94380736D01*
X126018756Y-94353021D01*
X126016979Y-94333214D01*
X126014672Y-94319688D01*
X126011766Y-94310822D01*
X126008192Y-94304991D01*
X126003882Y-94300571D01*
X125988562Y-94288326D01*
X125966198Y-94274115D01*
X125953113Y-94266498D01*
X125946890Y-94259224D01*
X125952203Y-94253691D01*
X125970386Y-94249627D01*
X126002774Y-94246757D01*
X126050703Y-94244809D01*
X126115508Y-94243507D01*
X126140851Y-94243162D01*
X126194906Y-94242704D01*
X126233954Y-94243001D01*
G37*
G36*
X118654417Y-94465222D02*
G01*
X118690145Y-94466802D01*
X118717608Y-94471267D01*
X118743524Y-94480002D01*
X118774611Y-94494392D01*
X118784282Y-94499395D01*
X118835647Y-94536282D01*
X118872930Y-94582331D01*
X118895099Y-94635233D01*
X118901119Y-94692677D01*
X118889958Y-94752352D01*
X118876129Y-94784790D01*
X118852055Y-94818602D01*
X118818245Y-94846805D01*
X118772583Y-94870730D01*
X118712946Y-94891708D01*
X118637217Y-94911071D01*
X118598235Y-94920070D01*
X118548918Y-94932710D01*
X118513040Y-94944212D01*
X118487812Y-94955697D01*
X118470447Y-94968286D01*
X118458158Y-94983100D01*
X118450654Y-95000054D01*
X118446840Y-95034450D01*
X118452888Y-95069852D01*
X118468074Y-95097888D01*
X118485443Y-95112678D01*
X118525429Y-95130890D01*
X118575064Y-95140140D01*
X118630321Y-95140222D01*
X118687175Y-95130925D01*
X118741599Y-95112042D01*
X118743785Y-95111017D01*
X118776172Y-95092128D01*
X118812811Y-95065689D01*
X118846187Y-95037087D01*
X118851414Y-95032138D01*
X118880679Y-95006519D01*
X118899929Y-94994258D01*
X118910326Y-94994583D01*
X118911774Y-94998970D01*
X118910652Y-95018437D01*
X118905258Y-95048899D01*
X118896708Y-95086250D01*
X118886118Y-95126383D01*
X118874603Y-95165191D01*
X118863279Y-95198569D01*
X118853261Y-95222408D01*
X118845666Y-95232603D01*
X118832756Y-95229133D01*
X118817597Y-95214893D01*
X118816934Y-95214016D01*
X118804705Y-95200678D01*
X118792107Y-95198420D01*
X118771115Y-95205644D01*
X118763913Y-95208506D01*
X118732708Y-95219840D01*
X118699964Y-95230586D01*
X118669094Y-95237472D01*
X118611546Y-95241781D01*
X118549167Y-95238538D01*
X118488893Y-95228251D01*
X118437661Y-95211426D01*
X118415984Y-95200813D01*
X118362581Y-95163742D01*
X118325003Y-95117815D01*
X118302908Y-95062517D01*
X118295954Y-94997329D01*
X118297256Y-94967143D01*
X118306708Y-94918442D01*
X118327051Y-94878636D01*
X118360377Y-94842708D01*
X118384447Y-94824454D01*
X118424150Y-94802898D01*
X118475132Y-94783329D01*
X118539703Y-94764895D01*
X118620171Y-94746743D01*
X118647960Y-94740643D01*
X118695768Y-94726964D01*
X118728677Y-94711591D01*
X118748955Y-94693282D01*
X118758870Y-94670797D01*
X118760948Y-94653455D01*
X118753481Y-94619877D01*
X118731209Y-94592797D01*
X118696048Y-94573473D01*
X118649916Y-94563163D01*
X118594730Y-94563124D01*
X118540247Y-94573239D01*
X118470798Y-94601801D01*
X118402844Y-94648120D01*
X118386165Y-94660764D01*
X118365393Y-94672569D01*
X118354027Y-94673170D01*
X118353358Y-94671175D01*
X118354630Y-94655390D01*
X118359789Y-94628234D01*
X118367689Y-94594180D01*
X118377187Y-94557703D01*
X118387138Y-94523277D01*
X118396398Y-94495376D01*
X118403822Y-94478474D01*
X118407642Y-94475158D01*
X118422351Y-94474588D01*
X118437804Y-94481575D01*
X118444963Y-94492941D01*
X118444963Y-94493102D01*
X118447143Y-94502321D01*
X118455763Y-94504364D01*
X118474062Y-94498820D01*
X118505278Y-94485277D01*
X118524285Y-94477475D01*
X118552474Y-94469908D01*
X118586478Y-94466103D01*
X118632452Y-94465081D01*
X118654417Y-94465222D01*
G37*
G36*
X123398471Y-93325130D02*
G01*
X123449814Y-93334006D01*
X123490355Y-93348221D01*
X123510539Y-93359412D01*
X123561108Y-93398956D01*
X123595505Y-93446657D01*
X123613535Y-93502177D01*
X123615004Y-93565178D01*
X123612000Y-93586696D01*
X123599511Y-93629345D01*
X123577665Y-93664939D01*
X123544692Y-93694873D01*
X123498818Y-93720538D01*
X123438274Y-93743326D01*
X123361287Y-93764632D01*
X123321370Y-93774526D01*
X123272185Y-93787401D01*
X123236461Y-93798163D01*
X123211563Y-93807910D01*
X123194856Y-93817739D01*
X123183704Y-93828748D01*
X123175473Y-93842035D01*
X123164457Y-93873805D01*
X123166218Y-93912961D01*
X123185562Y-93948694D01*
X123208253Y-93969798D01*
X123242231Y-93986193D01*
X123286695Y-93993845D01*
X123344822Y-93993649D01*
X123394154Y-93987832D01*
X123452398Y-93970645D01*
X123507656Y-93940667D01*
X123564672Y-93895787D01*
X123580400Y-93881835D01*
X123604628Y-93861437D01*
X123620962Y-93850921D01*
X123629893Y-93851561D01*
X123631913Y-93864633D01*
X123627512Y-93891409D01*
X123617181Y-93933166D01*
X123601411Y-93991177D01*
X123594373Y-94016202D01*
X123583867Y-94049721D01*
X123575104Y-94070273D01*
X123566613Y-94080954D01*
X123556923Y-94084863D01*
X123542786Y-94083418D01*
X123531242Y-94068092D01*
X123529870Y-94063806D01*
X123526114Y-94056040D01*
X123519213Y-94053133D01*
X123505686Y-94055454D01*
X123482049Y-94063374D01*
X123444819Y-94077262D01*
X123432153Y-94081459D01*
X123381195Y-94091285D01*
X123321737Y-94094839D01*
X123260241Y-94092294D01*
X123203163Y-94083821D01*
X123156964Y-94069594D01*
X123151108Y-94066907D01*
X123100602Y-94034980D01*
X123058413Y-93992888D01*
X123029486Y-93945447D01*
X123019553Y-93912401D01*
X123014402Y-93859407D01*
X123018949Y-93804802D01*
X123033047Y-93756479D01*
X123036275Y-93749503D01*
X123052942Y-93721757D01*
X123075239Y-93697864D01*
X123105235Y-93676776D01*
X123145000Y-93657448D01*
X123196607Y-93638833D01*
X123262124Y-93619886D01*
X123343624Y-93599560D01*
X123376568Y-93591426D01*
X123417988Y-93579099D01*
X123445626Y-93566505D01*
X123462110Y-93551780D01*
X123470071Y-93533058D01*
X123472141Y-93508477D01*
X123470429Y-93488306D01*
X123457358Y-93458138D01*
X123430081Y-93436606D01*
X123387002Y-93422092D01*
X123371316Y-93419182D01*
X123307539Y-93418211D01*
X123242229Y-93432790D01*
X123179256Y-93461725D01*
X123122491Y-93503819D01*
X123111496Y-93513457D01*
X123086757Y-93530064D01*
X123070956Y-93532145D01*
X123065000Y-93519879D01*
X123069801Y-93493445D01*
X123069918Y-93493073D01*
X123077403Y-93468493D01*
X123087684Y-93433928D01*
X123098572Y-93396738D01*
X123105481Y-93374037D01*
X123115460Y-93347843D01*
X123124747Y-93334462D01*
X123135107Y-93330710D01*
X123145444Y-93332944D01*
X123160891Y-93345735D01*
X123165463Y-93352469D01*
X123172876Y-93356210D01*
X123186005Y-93354867D01*
X123208613Y-93347957D01*
X123244461Y-93334998D01*
X123246825Y-93334152D01*
X123290257Y-93324842D01*
X123343046Y-93321955D01*
X123398471Y-93325130D01*
G37*
G36*
X124011736Y-94475319D02*
G01*
X124077357Y-94475649D01*
X124148004Y-94476195D01*
X124427704Y-94478725D01*
X124455373Y-94565099D01*
X124461601Y-94584869D01*
X124475003Y-94631787D01*
X124480986Y-94662688D01*
X124479326Y-94678130D01*
X124469796Y-94678671D01*
X124452171Y-94664872D01*
X124426226Y-94637289D01*
X124409526Y-94619668D01*
X124384345Y-94596917D01*
X124363828Y-94582528D01*
X124360811Y-94581113D01*
X124335966Y-94574093D01*
X124303070Y-94569313D01*
X124268577Y-94567212D01*
X124238943Y-94568227D01*
X124220624Y-94572798D01*
X124218443Y-94576347D01*
X124215616Y-94590711D01*
X124213407Y-94616971D01*
X124211770Y-94656389D01*
X124210658Y-94710229D01*
X124210025Y-94779754D01*
X124209824Y-94866226D01*
X124209824Y-95152980D01*
X124232179Y-95175334D01*
X124233846Y-95176965D01*
X124252809Y-95191654D01*
X124268070Y-95197688D01*
X124276509Y-95199096D01*
X124288434Y-95209791D01*
X124287105Y-95225222D01*
X124285737Y-95226312D01*
X124269517Y-95229585D01*
X124236567Y-95231665D01*
X124188025Y-95232503D01*
X124125031Y-95232052D01*
X124100141Y-95231634D01*
X124049541Y-95230503D01*
X124013602Y-95229016D01*
X123989784Y-95226878D01*
X123975546Y-95223796D01*
X123968350Y-95219476D01*
X123965656Y-95213625D01*
X123967109Y-95202403D01*
X123981890Y-95197688D01*
X123982902Y-95197659D01*
X124002789Y-95190739D01*
X124023541Y-95175334D01*
X124045895Y-95152980D01*
X124045895Y-94577947D01*
X124024212Y-94569703D01*
X124011809Y-94566732D01*
X123979039Y-94565915D01*
X123940633Y-94570599D01*
X123903895Y-94579682D01*
X123876127Y-94592063D01*
X123866259Y-94599287D01*
X123841781Y-94620618D01*
X123817462Y-94645235D01*
X123800729Y-94662559D01*
X123784211Y-94674886D01*
X123775456Y-94672856D01*
X123774254Y-94655848D01*
X123780397Y-94623238D01*
X123793674Y-94574404D01*
X123796009Y-94566471D01*
X123808131Y-94526825D01*
X123817448Y-94501130D01*
X123825599Y-94486248D01*
X123834228Y-94479044D01*
X123844976Y-94476381D01*
X123848552Y-94476129D01*
X123869551Y-94475610D01*
X123905382Y-94475301D01*
X123953594Y-94475204D01*
X124011736Y-94475319D01*
G37*
G36*
X121022850Y-94479621D02*
G01*
X121066244Y-94480093D01*
X121097773Y-94481095D01*
X121119210Y-94482694D01*
X121132328Y-94484959D01*
X121138899Y-94487956D01*
X121140696Y-94491755D01*
X121138958Y-94498371D01*
X121126621Y-94505540D01*
X121125567Y-94505596D01*
X121109253Y-94512642D01*
X121090192Y-94527894D01*
X121067838Y-94550248D01*
X121067838Y-95152980D01*
X121088865Y-95173057D01*
X121107850Y-95189403D01*
X121126890Y-95202805D01*
X121135952Y-95210701D01*
X121137201Y-95223296D01*
X121131511Y-95226102D01*
X121114934Y-95228734D01*
X121086414Y-95230789D01*
X121044696Y-95232310D01*
X120988529Y-95233343D01*
X120916657Y-95233931D01*
X120827828Y-95234117D01*
X120525141Y-95234117D01*
X120487804Y-95142391D01*
X120471899Y-95100986D01*
X120461780Y-95066996D01*
X120460949Y-95048084D01*
X120469593Y-95043826D01*
X120487895Y-95053797D01*
X120516041Y-95077574D01*
X120533811Y-95092254D01*
X120564358Y-95112209D01*
X120591033Y-95124088D01*
X120604088Y-95126769D01*
X120635737Y-95130279D01*
X120676445Y-95132625D01*
X120722318Y-95133819D01*
X120769467Y-95133876D01*
X120813999Y-95132810D01*
X120852023Y-95130634D01*
X120879647Y-95127362D01*
X120892980Y-95123009D01*
X120895880Y-95117812D01*
X120900361Y-95094552D01*
X120903027Y-95053908D01*
X120903908Y-94995508D01*
X120903908Y-94878936D01*
X120780547Y-94878936D01*
X120774004Y-94878937D01*
X120726102Y-94879138D01*
X120692620Y-94880052D01*
X120670156Y-94882203D01*
X120655306Y-94886111D01*
X120644666Y-94892299D01*
X120634832Y-94901290D01*
X120632860Y-94903298D01*
X120618401Y-94920802D01*
X120612478Y-94933165D01*
X120610933Y-94937549D01*
X120598817Y-94942686D01*
X120593423Y-94940503D01*
X120589284Y-94931283D01*
X120586758Y-94912217D01*
X120585499Y-94880518D01*
X120585156Y-94833400D01*
X120585429Y-94790246D01*
X120586582Y-94757133D01*
X120588965Y-94736931D01*
X120592927Y-94726853D01*
X120598817Y-94724113D01*
X120605108Y-94725190D01*
X120612478Y-94733634D01*
X120612565Y-94734561D01*
X120619714Y-94747869D01*
X120634832Y-94765509D01*
X120636023Y-94766695D01*
X120645777Y-94775339D01*
X120656726Y-94781240D01*
X120672273Y-94784921D01*
X120695824Y-94786904D01*
X120730780Y-94787711D01*
X120780547Y-94787863D01*
X120903908Y-94787863D01*
X120903908Y-94693937D01*
X120903650Y-94645170D01*
X120901106Y-94610526D01*
X120893621Y-94587617D01*
X120878541Y-94574055D01*
X120853211Y-94567450D01*
X120814977Y-94565414D01*
X120761184Y-94565559D01*
X120709998Y-94566533D01*
X120662780Y-94569820D01*
X120626282Y-94576513D01*
X120596465Y-94587768D01*
X120569289Y-94604739D01*
X120540716Y-94628581D01*
X120530592Y-94637346D01*
X120510331Y-94650816D01*
X120499189Y-94650035D01*
X120497028Y-94634547D01*
X120503709Y-94603895D01*
X120519094Y-94557624D01*
X120546269Y-94482772D01*
X120843482Y-94480371D01*
X120893380Y-94479994D01*
X120965820Y-94479611D01*
X121022850Y-94479621D01*
G37*
G36*
X123681606Y-94851864D02*
G01*
X123681909Y-94931467D01*
X123682778Y-95002007D01*
X123684156Y-95061654D01*
X123685990Y-95108578D01*
X123688223Y-95140948D01*
X123690802Y-95156937D01*
X123703666Y-95175692D01*
X123727230Y-95191402D01*
X123746243Y-95202682D01*
X123754464Y-95217899D01*
X123754155Y-95221273D01*
X123750911Y-95226302D01*
X123742062Y-95229822D01*
X123725086Y-95232099D01*
X123697461Y-95233396D01*
X123656666Y-95233981D01*
X123600179Y-95234117D01*
X123563958Y-95233982D01*
X123509779Y-95232978D01*
X123471795Y-95230921D01*
X123448704Y-95227723D01*
X123439207Y-95223296D01*
X123438251Y-95215025D01*
X123449087Y-95202805D01*
X123467620Y-95190293D01*
X123489389Y-95173444D01*
X123490376Y-95172623D01*
X123499819Y-95163964D01*
X123506204Y-95154306D01*
X123510129Y-95140208D01*
X123512191Y-95118226D01*
X123512990Y-95084916D01*
X123513123Y-95036836D01*
X123513123Y-94919918D01*
X123447217Y-94920494D01*
X123435701Y-94920683D01*
X123403655Y-94923168D01*
X123378413Y-94930347D01*
X123357133Y-94944608D01*
X123336971Y-94968342D01*
X123315086Y-95003937D01*
X123288635Y-95053783D01*
X123283849Y-95062986D01*
X123245669Y-95127813D01*
X123207724Y-95176127D01*
X123168683Y-95209369D01*
X123127220Y-95228981D01*
X123097656Y-95236212D01*
X123046211Y-95241861D01*
X122997061Y-95239814D01*
X122957291Y-95230028D01*
X122938221Y-95220598D01*
X122927528Y-95208718D01*
X122934717Y-95196843D01*
X122959860Y-95183666D01*
X122968474Y-95179846D01*
X122999012Y-95161591D01*
X123027468Y-95135457D01*
X123056735Y-95098411D01*
X123089702Y-95047419D01*
X123093443Y-95041313D01*
X123139136Y-94975934D01*
X123185265Y-94926459D01*
X123230800Y-94894007D01*
X123243729Y-94886765D01*
X123249222Y-94880991D01*
X123239907Y-94879211D01*
X123228163Y-94877607D01*
X123196950Y-94867004D01*
X123161826Y-94849474D01*
X123129326Y-94828512D01*
X123105986Y-94807611D01*
X123082022Y-94771273D01*
X123066073Y-94720280D01*
X123065238Y-94694062D01*
X123244495Y-94694062D01*
X123244856Y-94705077D01*
X123255142Y-94751087D01*
X123278320Y-94787440D01*
X123312672Y-94811180D01*
X123335136Y-94817401D01*
X123376932Y-94822509D01*
X123430866Y-94824292D01*
X123517677Y-94824292D01*
X123516769Y-94721836D01*
X123516631Y-94704858D01*
X123515974Y-94654594D01*
X123513761Y-94619143D01*
X123508274Y-94595851D01*
X123497793Y-94582066D01*
X123480601Y-94575135D01*
X123454979Y-94572405D01*
X123419209Y-94571223D01*
X123383000Y-94571070D01*
X123329131Y-94576650D01*
X123289836Y-94590691D01*
X123263626Y-94614241D01*
X123249009Y-94648349D01*
X123244495Y-94694062D01*
X123065238Y-94694062D01*
X123064139Y-94659537D01*
X123070775Y-94620345D01*
X123090857Y-94577614D01*
X123125533Y-94541639D01*
X123176552Y-94510094D01*
X123230800Y-94482772D01*
X123492632Y-94479982D01*
X123525442Y-94479653D01*
X123596709Y-94479148D01*
X123652207Y-94479170D01*
X123693689Y-94479781D01*
X123722905Y-94481043D01*
X123741605Y-94483020D01*
X123751541Y-94485775D01*
X123754464Y-94489370D01*
X123754445Y-94489836D01*
X123746121Y-94501269D01*
X123727230Y-94511826D01*
X123706696Y-94524669D01*
X123690802Y-94546291D01*
X123690793Y-94546313D01*
X123688216Y-94562353D01*
X123685983Y-94594770D01*
X123684151Y-94641734D01*
X123682774Y-94701416D01*
X123681908Y-94771986D01*
X123681710Y-94824292D01*
X123681606Y-94851614D01*
X123681606Y-94851864D01*
G37*
%TD*%
D11*
%TO.C,H1*%
X114000000Y-93000000D03*
%TD*%
D12*
%TO.C,J1*%
X162600000Y-93475000D03*
D13*
X165100000Y-93475000D03*
X167600000Y-93475000D03*
%TD*%
D14*
%TO.C,U4*%
X153950000Y-114524906D03*
X153950000Y-117024906D03*
X153950000Y-119524906D03*
D15*
X152150000Y-111324906D03*
X156150000Y-123224906D03*
%TD*%
D11*
%TO.C,H3*%
X114000000Y-121000000D03*
%TD*%
D16*
%TO.C,RV1*%
X152925000Y-102724906D03*
X155465000Y-105264906D03*
X152925000Y-107804906D03*
%TD*%
D11*
%TO.C,H4*%
X181000000Y-121000000D03*
%TD*%
%TO.C,H2*%
X181000000Y-93000000D03*
%TD*%
D17*
%TO.C,C61*%
X160000000Y-114026203D03*
X160000000Y-114986203D03*
%TD*%
D18*
%TO.C,C10*%
X174100000Y-118950000D03*
X172200000Y-118950000D03*
%TD*%
D19*
%TO.C,R9*%
X159800001Y-111475560D03*
X159800001Y-112495560D03*
%TD*%
%TO.C,R2*%
X159000000Y-114001406D03*
X159000000Y-115021406D03*
%TD*%
D20*
%TO.C,R1*%
X157100000Y-104845560D03*
X157100000Y-103825560D03*
%TD*%
%TO.C,R3*%
X158000000Y-115021406D03*
X158000000Y-114001406D03*
%TD*%
D21*
%TO.C,C3*%
X161900000Y-110249906D03*
X161900000Y-112149906D03*
%TD*%
D18*
%TO.C,C9*%
X174100000Y-116900000D03*
X172200000Y-116900000D03*
%TD*%
%TO.C,C8*%
X174100000Y-114850000D03*
X172200000Y-114850000D03*
%TD*%
D22*
%TO.C,U3*%
X158000000Y-116812406D03*
X158500000Y-116812406D03*
X159000000Y-116812406D03*
X159500000Y-116812406D03*
X159500000Y-119587406D03*
X159000000Y-119587406D03*
X158500000Y-119587406D03*
X158000000Y-119587406D03*
D23*
X158750000Y-118199906D03*
%TD*%
D20*
%TO.C,R10*%
X159200000Y-104845561D03*
X159200000Y-103825561D03*
%TD*%
D24*
%TO.C,C48*%
X156150000Y-119879906D03*
X156150000Y-118919906D03*
%TD*%
D25*
%TO.C,C11*%
X120525000Y-114799906D03*
X125450000Y-114799906D03*
%TD*%
D26*
%TO.C,C2*%
X155650000Y-112099906D03*
X155650000Y-110199906D03*
%TD*%
D18*
%TO.C,C32*%
X174088096Y-108900000D03*
X172188096Y-108900000D03*
%TD*%
D25*
%TO.C,C18*%
X120525000Y-103099906D03*
X125450000Y-103099906D03*
%TD*%
D18*
%TO.C,C27*%
X174088096Y-96799999D03*
X172188096Y-96799999D03*
%TD*%
%TO.C,C29*%
X174088096Y-98849999D03*
X172188096Y-98849999D03*
%TD*%
%TO.C,C36*%
X174088097Y-104800000D03*
X172188097Y-104800000D03*
%TD*%
D22*
%TO.C,U2*%
X158000000Y-106798060D03*
X158500000Y-106798060D03*
X159000000Y-106798060D03*
X159500000Y-106798060D03*
X159500000Y-109573060D03*
X159000000Y-109573060D03*
X158500000Y-109573060D03*
X158000000Y-109573060D03*
D23*
X158750000Y-108185560D03*
%TD*%
D17*
%TO.C,C47*%
X157750000Y-111505560D03*
X157750000Y-112465560D03*
%TD*%
D25*
%TO.C,C20*%
X120525000Y-99199906D03*
X125450000Y-99199906D03*
%TD*%
%TO.C,C12*%
X120525000Y-110899906D03*
X125450000Y-110899906D03*
%TD*%
D17*
%TO.C,C60*%
X160250000Y-103855560D03*
X160250000Y-104815560D03*
%TD*%
D18*
%TO.C,C25*%
X174088096Y-94749999D03*
X172188096Y-94749999D03*
%TD*%
%TO.C,C35*%
X174088096Y-106849999D03*
X172188096Y-106849999D03*
%TD*%
D19*
%TO.C,R4*%
X157000000Y-114001406D03*
X157000000Y-115021406D03*
%TD*%
%TO.C,R6*%
X158750000Y-111475561D03*
X158750000Y-112495561D03*
%TD*%
%TO.C,R7*%
X158150000Y-103825561D03*
X158150000Y-104845561D03*
%TD*%
D25*
%TO.C,C15*%
X120525000Y-106999906D03*
X125450000Y-106999906D03*
%TD*%
M02*
