%TF.GenerationSoftware,KiCad,Pcbnew,(6.0.5)*%
%TF.CreationDate,2023-02-17T00:10:57+08:00*%
%TF.ProjectId,EmoeNAP,456d6f65-4e41-4502-9e6b-696361645f70,rev?*%
%TF.SameCoordinates,Original*%
%TF.FileFunction,Paste,Bot*%
%TF.FilePolarity,Positive*%
%FSLAX46Y46*%
G04 Gerber Fmt 4.6, Leading zero omitted, Abs format (unit mm)*
G04 Created by KiCad (PCBNEW (6.0.5)) date 2023-02-17 00:10:57*
%MOMM*%
%LPD*%
G01*
G04 APERTURE LIST*
G04 Aperture macros list*
%AMRoundRect*
0 Rectangle with rounded corners*
0 $1 Rounding radius*
0 $2 $3 $4 $5 $6 $7 $8 $9 X,Y pos of 4 corners*
0 Add a 4 corners polygon primitive as box body*
4,1,4,$2,$3,$4,$5,$6,$7,$8,$9,$2,$3,0*
0 Add four circle primitives for the rounded corners*
1,1,$1+$1,$2,$3*
1,1,$1+$1,$4,$5*
1,1,$1+$1,$6,$7*
1,1,$1+$1,$8,$9*
0 Add four rect primitives between the rounded corners*
20,1,$1+$1,$2,$3,$4,$5,0*
20,1,$1+$1,$4,$5,$6,$7,0*
20,1,$1+$1,$6,$7,$8,$9,0*
20,1,$1+$1,$8,$9,$2,$3,0*%
G04 Aperture macros list end*
%ADD10RoundRect,0.250000X-0.425000X0.450000X-0.425000X-0.450000X0.425000X-0.450000X0.425000X0.450000X0*%
%ADD11RoundRect,0.250000X0.425000X-0.450000X0.425000X0.450000X-0.425000X0.450000X-0.425000X-0.450000X0*%
%ADD12RoundRect,0.250000X0.450000X0.425000X-0.450000X0.425000X-0.450000X-0.425000X0.450000X-0.425000X0*%
%ADD13RoundRect,0.250000X-0.450000X-0.425000X0.450000X-0.425000X0.450000X0.425000X-0.450000X0.425000X0*%
%ADD14RoundRect,0.135000X-0.135000X-0.185000X0.135000X-0.185000X0.135000X0.185000X-0.135000X0.185000X0*%
%ADD15RoundRect,0.140000X-0.170000X0.140000X-0.170000X-0.140000X0.170000X-0.140000X0.170000X0.140000X0*%
%ADD16RoundRect,0.250000X0.250000X0.475000X-0.250000X0.475000X-0.250000X-0.475000X0.250000X-0.475000X0*%
%ADD17RoundRect,0.200000X-0.275000X0.200000X-0.275000X-0.200000X0.275000X-0.200000X0.275000X0.200000X0*%
%ADD18RoundRect,0.140000X-0.140000X-0.170000X0.140000X-0.170000X0.140000X0.170000X-0.140000X0.170000X0*%
%ADD19RoundRect,0.135000X-0.185000X0.135000X-0.185000X-0.135000X0.185000X-0.135000X0.185000X0.135000X0*%
%ADD20RoundRect,0.135000X0.185000X-0.135000X0.185000X0.135000X-0.185000X0.135000X-0.185000X-0.135000X0*%
%ADD21RoundRect,0.250000X-0.475000X0.250000X-0.475000X-0.250000X0.475000X-0.250000X0.475000X0.250000X0*%
%ADD22RoundRect,0.135000X0.135000X0.185000X-0.135000X0.185000X-0.135000X-0.185000X0.135000X-0.185000X0*%
%ADD23RoundRect,0.202500X-0.202500X0.282500X-0.202500X-0.282500X0.202500X-0.282500X0.202500X0.282500X0*%
%ADD24RoundRect,0.062500X-0.062500X0.425000X-0.062500X-0.425000X0.062500X-0.425000X0.062500X0.425000X0*%
%ADD25RoundRect,0.140000X0.170000X-0.140000X0.170000X0.140000X-0.170000X0.140000X-0.170000X-0.140000X0*%
%ADD26RoundRect,0.250000X-0.925000X0.787500X-0.925000X-0.787500X0.925000X-0.787500X0.925000X0.787500X0*%
%ADD27RoundRect,0.140000X0.140000X0.170000X-0.140000X0.170000X-0.140000X-0.170000X0.140000X-0.170000X0*%
%ADD28RoundRect,0.250000X0.475000X-0.250000X0.475000X0.250000X-0.475000X0.250000X-0.475000X-0.250000X0*%
%ADD29RoundRect,0.150000X0.150000X-0.825000X0.150000X0.825000X-0.150000X0.825000X-0.150000X-0.825000X0*%
%ADD30RoundRect,0.150000X-0.150000X0.512500X-0.150000X-0.512500X0.150000X-0.512500X0.150000X0.512500X0*%
%ADD31RoundRect,0.200000X0.275000X-0.200000X0.275000X0.200000X-0.275000X0.200000X-0.275000X-0.200000X0*%
%ADD32RoundRect,0.200000X0.053033X-0.335876X0.335876X-0.053033X-0.053033X0.335876X-0.335876X0.053033X0*%
G04 APERTURE END LIST*
D10*
%TO.C,C64*%
X161900000Y-116900000D03*
X161900000Y-119600000D03*
%TD*%
D11*
%TO.C,C53*%
X151600000Y-116950000D03*
X151600000Y-114250000D03*
%TD*%
D12*
%TO.C,C63*%
X167175000Y-113900000D03*
X164475000Y-113900000D03*
%TD*%
D13*
%TO.C,C52*%
X164475000Y-109820890D03*
X167175000Y-109820890D03*
%TD*%
D14*
%TO.C,R46*%
X118565000Y-121450000D03*
X119585000Y-121450000D03*
%TD*%
D15*
%TO.C,C59*%
X160000000Y-114026203D03*
X160000000Y-114986203D03*
%TD*%
D16*
%TO.C,C10*%
X174100000Y-118950000D03*
X172200000Y-118950000D03*
%TD*%
D17*
%TO.C,RISO7*%
X128050000Y-119325000D03*
X128050000Y-120975000D03*
%TD*%
D18*
%TO.C,C73*%
X128070000Y-113750000D03*
X129030000Y-113750000D03*
%TD*%
D19*
%TO.C,R10*%
X159800001Y-111475560D03*
X159800001Y-112495560D03*
%TD*%
%TO.C,R2*%
X159000000Y-114001406D03*
X159000000Y-115021406D03*
%TD*%
D20*
%TO.C,R1*%
X157100000Y-104845560D03*
X157100000Y-103825560D03*
%TD*%
%TO.C,R4*%
X158000000Y-115021406D03*
X158000000Y-114001406D03*
%TD*%
D18*
%TO.C,C72*%
X126120000Y-112750000D03*
X127080000Y-112750000D03*
%TD*%
D21*
%TO.C,C3*%
X161750000Y-110850000D03*
X161750000Y-112750000D03*
%TD*%
D22*
%TO.C,R53*%
X125160000Y-112750000D03*
X124140000Y-112750000D03*
%TD*%
D14*
%TO.C,R49*%
X117430000Y-112850000D03*
X118450000Y-112850000D03*
%TD*%
D16*
%TO.C,C9*%
X174100000Y-116900000D03*
X172200000Y-116900000D03*
%TD*%
%TO.C,C8*%
X174100000Y-114850000D03*
X172200000Y-114850000D03*
%TD*%
D23*
%TO.C,U3*%
X159250000Y-118199906D03*
X158250000Y-118199906D03*
D24*
X158000000Y-116812406D03*
X158500000Y-116812406D03*
X159000000Y-116812406D03*
X159500000Y-116812406D03*
X159500000Y-119587406D03*
X159000000Y-119587406D03*
X158500000Y-119587406D03*
X158000000Y-119587406D03*
%TD*%
D20*
%TO.C,R11*%
X159200000Y-104845561D03*
X159200000Y-103825561D03*
%TD*%
D25*
%TO.C,C48*%
X156150000Y-119879906D03*
X156150000Y-118919906D03*
%TD*%
D14*
%TO.C,R45*%
X119890000Y-123500000D03*
X120910000Y-123500000D03*
%TD*%
D26*
%TO.C,C11*%
X131300093Y-93674906D03*
X131300093Y-98599906D03*
%TD*%
D18*
%TO.C,C69*%
X119720000Y-112850000D03*
X120680000Y-112850000D03*
%TD*%
D27*
%TO.C,C66*%
X119580000Y-122450000D03*
X118620000Y-122450000D03*
%TD*%
D28*
%TO.C,C2*%
X155650000Y-112099906D03*
X155650000Y-110199906D03*
%TD*%
D29*
%TO.C,U9*%
X122255000Y-119625000D03*
X120985000Y-119625000D03*
X119715000Y-119625000D03*
X118445000Y-119625000D03*
X118445000Y-114675000D03*
X119715000Y-114675000D03*
X120985000Y-114675000D03*
X122255000Y-114675000D03*
%TD*%
D30*
%TO.C,U12*%
X126150000Y-115312500D03*
X127100000Y-115312500D03*
X128050000Y-115312500D03*
X128050000Y-117587500D03*
X126150000Y-117587500D03*
%TD*%
D16*
%TO.C,C32*%
X174088096Y-108900000D03*
X172188096Y-108900000D03*
%TD*%
D15*
%TO.C,C70*%
X129000000Y-110720000D03*
X129000000Y-111680000D03*
%TD*%
D26*
%TO.C,C18*%
X143000093Y-93674906D03*
X143000093Y-98599906D03*
%TD*%
D20*
%TO.C,R48*%
X118000000Y-110760000D03*
X118000000Y-109740000D03*
%TD*%
D16*
%TO.C,C27*%
X174088096Y-96799999D03*
X172188096Y-96799999D03*
%TD*%
D22*
%TO.C,R47*%
X122160000Y-122450000D03*
X121140000Y-122450000D03*
%TD*%
D16*
%TO.C,C29*%
X174088096Y-98849999D03*
X172188096Y-98849999D03*
%TD*%
D13*
%TO.C,C65*%
X124700000Y-111100000D03*
X127400000Y-111100000D03*
%TD*%
D18*
%TO.C,C67*%
X121170000Y-121450000D03*
X122130000Y-121450000D03*
%TD*%
D31*
%TO.C,RISO6*%
X120350000Y-111625000D03*
X120350000Y-109975000D03*
%TD*%
D16*
%TO.C,C36*%
X174088097Y-104800000D03*
X172188097Y-104800000D03*
%TD*%
D23*
%TO.C,U2*%
X159250000Y-108185560D03*
X158250000Y-108185560D03*
D24*
X158000000Y-106798060D03*
X158500000Y-106798060D03*
X159000000Y-106798060D03*
X159500000Y-106798060D03*
X159500000Y-109573060D03*
X159000000Y-109573060D03*
X158500000Y-109573060D03*
X158000000Y-109573060D03*
%TD*%
D15*
%TO.C,C47*%
X157750000Y-111505560D03*
X157750000Y-112465560D03*
%TD*%
D26*
%TO.C,C20*%
X146900092Y-93674906D03*
X146900092Y-98599906D03*
%TD*%
%TO.C,C12*%
X135200093Y-93674906D03*
X135200093Y-98599906D03*
%TD*%
D19*
%TO.C,R50*%
X119050000Y-109740000D03*
X119050000Y-110760000D03*
%TD*%
D15*
%TO.C,C58*%
X160250000Y-103855560D03*
X160250000Y-104815560D03*
%TD*%
D16*
%TO.C,C25*%
X174088096Y-94749999D03*
X172188096Y-94749999D03*
%TD*%
D11*
%TO.C,C51*%
X143850000Y-104450000D03*
X143850000Y-101750000D03*
%TD*%
D27*
%TO.C,C68*%
X118430000Y-111850000D03*
X117470000Y-111850000D03*
%TD*%
D22*
%TO.C,R54*%
X127110000Y-113750000D03*
X126090000Y-113750000D03*
%TD*%
D10*
%TO.C,C50*%
X134850000Y-120750000D03*
X134850000Y-123450000D03*
%TD*%
D16*
%TO.C,C35*%
X174088096Y-106849999D03*
X172188096Y-106849999D03*
%TD*%
D19*
%TO.C,R5*%
X157000000Y-114001406D03*
X157000000Y-115021406D03*
%TD*%
D32*
%TO.C,RISO5*%
X124950000Y-121450000D03*
X126116726Y-120283274D03*
%TD*%
D19*
%TO.C,R7*%
X158750000Y-111475561D03*
X158750000Y-112495561D03*
%TD*%
%TO.C,R8*%
X158150000Y-103825561D03*
X158150000Y-104845561D03*
%TD*%
D26*
%TO.C,C15*%
X139100094Y-93674906D03*
X139100094Y-98599906D03*
%TD*%
D22*
%TO.C,R55*%
X129060000Y-112750000D03*
X128040000Y-112750000D03*
%TD*%
M02*
