%TF.GenerationSoftware,KiCad,Pcbnew,(6.0.5)*%
%TF.CreationDate,2022-11-19T18:23:49+08:00*%
%TF.ProjectId,EmoeNAP,456d6f65-4e41-4502-9e6b-696361645f70,rev?*%
%TF.SameCoordinates,Original*%
%TF.FileFunction,Paste,Top*%
%TF.FilePolarity,Positive*%
%FSLAX46Y46*%
G04 Gerber Fmt 4.6, Leading zero omitted, Abs format (unit mm)*
G04 Created by KiCad (PCBNEW (6.0.5)) date 2022-11-19 18:23:49*
%MOMM*%
%LPD*%
G01*
G04 APERTURE LIST*
G04 Aperture macros list*
%AMRoundRect*
0 Rectangle with rounded corners*
0 $1 Rounding radius*
0 $2 $3 $4 $5 $6 $7 $8 $9 X,Y pos of 4 corners*
0 Add a 4 corners polygon primitive as box body*
4,1,4,$2,$3,$4,$5,$6,$7,$8,$9,$2,$3,0*
0 Add four circle primitives for the rounded corners*
1,1,$1+$1,$2,$3*
1,1,$1+$1,$4,$5*
1,1,$1+$1,$6,$7*
1,1,$1+$1,$8,$9*
0 Add four rect primitives between the rounded corners*
20,1,$1+$1,$2,$3,$4,$5,0*
20,1,$1+$1,$4,$5,$6,$7,0*
20,1,$1+$1,$6,$7,$8,$9,0*
20,1,$1+$1,$8,$9,$2,$3,0*%
G04 Aperture macros list end*
%ADD10RoundRect,0.250000X0.250000X0.475000X-0.250000X0.475000X-0.250000X-0.475000X0.250000X-0.475000X0*%
%ADD11RoundRect,0.250000X-0.450000X0.262500X-0.450000X-0.262500X0.450000X-0.262500X0.450000X0.262500X0*%
%ADD12RoundRect,0.140000X0.170000X-0.140000X0.170000X0.140000X-0.170000X0.140000X-0.170000X-0.140000X0*%
%ADD13RoundRect,0.135000X0.185000X-0.135000X0.185000X0.135000X-0.185000X0.135000X-0.185000X-0.135000X0*%
%ADD14RoundRect,0.140000X-0.170000X0.140000X-0.170000X-0.140000X0.170000X-0.140000X0.170000X0.140000X0*%
%ADD15RoundRect,0.202500X0.202500X-0.282500X0.202500X0.282500X-0.202500X0.282500X-0.202500X-0.282500X0*%
%ADD16RoundRect,0.062500X0.062500X-0.425000X0.062500X0.425000X-0.062500X0.425000X-0.062500X-0.425000X0*%
%ADD17RoundRect,0.135000X-0.135000X-0.185000X0.135000X-0.185000X0.135000X0.185000X-0.135000X0.185000X0*%
%ADD18RoundRect,0.135000X-0.185000X0.135000X-0.185000X-0.135000X0.185000X-0.135000X0.185000X0.135000X0*%
%ADD19RoundRect,0.135000X0.135000X0.185000X-0.135000X0.185000X-0.135000X-0.185000X0.135000X-0.185000X0*%
%ADD20RoundRect,0.202500X0.282500X0.202500X-0.282500X0.202500X-0.282500X-0.202500X0.282500X-0.202500X0*%
%ADD21RoundRect,0.062500X0.425000X0.062500X-0.425000X0.062500X-0.425000X-0.062500X0.425000X-0.062500X0*%
%ADD22RoundRect,0.140000X-0.140000X-0.170000X0.140000X-0.170000X0.140000X0.170000X-0.140000X0.170000X0*%
%ADD23RoundRect,0.250000X-0.017678X-0.618718X0.618718X0.017678X0.017678X0.618718X-0.618718X-0.017678X0*%
%ADD24RoundRect,0.250000X-0.450000X-0.425000X0.450000X-0.425000X0.450000X0.425000X-0.450000X0.425000X0*%
%ADD25R,1.000000X1.000000*%
%ADD26R,2.200000X1.050000*%
%ADD27RoundRect,0.250000X-0.787500X-0.925000X0.787500X-0.925000X0.787500X0.925000X-0.787500X0.925000X0*%
%ADD28RoundRect,0.202500X-0.282500X-0.202500X0.282500X-0.202500X0.282500X0.202500X-0.282500X0.202500X0*%
%ADD29RoundRect,0.062500X-0.425000X-0.062500X0.425000X-0.062500X0.425000X0.062500X-0.425000X0.062500X0*%
%ADD30RoundRect,0.140000X0.140000X0.170000X-0.140000X0.170000X-0.140000X-0.170000X0.140000X-0.170000X0*%
%ADD31RoundRect,0.202500X-0.202500X0.282500X-0.202500X-0.282500X0.202500X-0.282500X0.202500X0.282500X0*%
%ADD32RoundRect,0.062500X-0.062500X0.425000X-0.062500X-0.425000X0.062500X-0.425000X0.062500X0.425000X0*%
%ADD33RoundRect,0.250000X0.450000X-0.262500X0.450000X0.262500X-0.450000X0.262500X-0.450000X-0.262500X0*%
%ADD34RoundRect,0.250000X0.450000X0.425000X-0.450000X0.425000X-0.450000X-0.425000X0.450000X-0.425000X0*%
%ADD35RoundRect,0.250000X0.017678X0.618718X-0.618718X-0.017678X-0.017678X-0.618718X0.618718X0.017678X0*%
%ADD36RoundRect,0.150000X-0.150000X0.825000X-0.150000X-0.825000X0.150000X-0.825000X0.150000X0.825000X0*%
G04 APERTURE END LIST*
D10*
%TO.C,C19*%
X174100000Y-95799999D03*
X172200000Y-95799999D03*
%TD*%
D11*
%TO.C,R15*%
X175900000Y-117687500D03*
X175900000Y-119512500D03*
%TD*%
D12*
%TO.C,C16*%
X168440001Y-106444906D03*
X168440001Y-105484906D03*
%TD*%
D13*
%TO.C,R18*%
X169440000Y-116984906D03*
X169440000Y-115964906D03*
%TD*%
D14*
%TO.C,C45*%
X147050000Y-113571770D03*
X147050000Y-114531770D03*
%TD*%
D15*
%TO.C,U1*%
X132849999Y-103241769D03*
X133849999Y-103241769D03*
D16*
X132599999Y-104629269D03*
X133099999Y-104629269D03*
X133599999Y-104629269D03*
X134099999Y-104629269D03*
X134099999Y-101854269D03*
X133599999Y-101854269D03*
X133099999Y-101854269D03*
X132599999Y-101854269D03*
%TD*%
D13*
%TO.C,R29*%
X164140000Y-116984906D03*
X164140000Y-115964906D03*
%TD*%
D12*
%TO.C,C24*%
X166440000Y-106454906D03*
X166440000Y-105494906D03*
%TD*%
D13*
%TO.C,R32*%
X163140001Y-106484906D03*
X163140001Y-105464906D03*
%TD*%
D17*
%TO.C,R28*%
X139050000Y-112991769D03*
X140070000Y-112991769D03*
%TD*%
D18*
%TO.C,R30*%
X163140000Y-115964906D03*
X163140000Y-116984906D03*
%TD*%
D10*
%TO.C,C4*%
X174100000Y-119950000D03*
X172200000Y-119950000D03*
%TD*%
D14*
%TO.C,C14*%
X168440000Y-115994906D03*
X168440000Y-116954906D03*
%TD*%
D19*
%TO.C,R36*%
X132847500Y-113491769D03*
X131827500Y-113491769D03*
%TD*%
D20*
%TO.C,U8*%
X135937500Y-113491769D03*
X135937500Y-112491769D03*
D21*
X137325000Y-113741769D03*
X137325000Y-113241769D03*
X137325000Y-112741769D03*
X137325000Y-112241769D03*
X134550000Y-112241769D03*
X134550000Y-112741769D03*
X134550000Y-113241769D03*
X134550000Y-113741769D03*
%TD*%
D22*
%TO.C,C44*%
X146070000Y-99141769D03*
X147030000Y-99141769D03*
%TD*%
D18*
%TO.C,R5*%
X133350000Y-106331769D03*
X133350000Y-107351769D03*
%TD*%
D23*
%TO.C,C64*%
X137495406Y-106796363D03*
X139404594Y-104887175D03*
%TD*%
D24*
%TO.C,C67*%
X166250000Y-98600000D03*
X168950000Y-98600000D03*
%TD*%
D25*
%TO.C,J2*%
X179310000Y-112600000D03*
D26*
X180810000Y-111125000D03*
X180810000Y-114075000D03*
D25*
X182310000Y-112600000D03*
%TD*%
D13*
%TO.C,R12*%
X132850001Y-100151770D03*
X132850001Y-99131770D03*
%TD*%
D27*
%TO.C,C26*%
X120525000Y-103099906D03*
X125450000Y-103099906D03*
%TD*%
D18*
%TO.C,R31*%
X164140000Y-105464907D03*
X164140000Y-106484907D03*
%TD*%
D10*
%TO.C,C6*%
X174100000Y-115850000D03*
X172200000Y-115850000D03*
%TD*%
D11*
%TO.C,R35*%
X175900000Y-107687500D03*
X175900000Y-109512500D03*
%TD*%
D17*
%TO.C,R16*%
X146040000Y-101141769D03*
X147060000Y-101141769D03*
%TD*%
D19*
%TO.C,R14*%
X139860000Y-99641769D03*
X138840000Y-99641769D03*
%TD*%
D28*
%TO.C,U5*%
X142950000Y-101141769D03*
X142950000Y-100141769D03*
D29*
X141562500Y-99891769D03*
X141562500Y-100391769D03*
X141562500Y-100891769D03*
X141562500Y-101391769D03*
X144337500Y-101391769D03*
X144337500Y-100891769D03*
X144337500Y-100391769D03*
X144337500Y-99891769D03*
%TD*%
D12*
%TO.C,C62*%
X165290000Y-116954906D03*
X165290000Y-115994906D03*
%TD*%
D10*
%TO.C,C5*%
X174100000Y-117900000D03*
X172200000Y-117900000D03*
%TD*%
%TO.C,C40*%
X174100000Y-105850000D03*
X172200000Y-105850000D03*
%TD*%
D13*
%TO.C,R21*%
X167440000Y-106474906D03*
X167440000Y-105454906D03*
%TD*%
D19*
%TO.C,R34*%
X132847500Y-112491769D03*
X131827500Y-112491769D03*
%TD*%
D10*
%TO.C,C22*%
X174100000Y-93749999D03*
X172200000Y-93749999D03*
%TD*%
D17*
%TO.C,R33*%
X139050000Y-113991770D03*
X140070000Y-113991770D03*
%TD*%
D30*
%TO.C,C59*%
X140020000Y-111991770D03*
X139060000Y-111991770D03*
%TD*%
D18*
%TO.C,R25*%
X145050000Y-113541769D03*
X145050000Y-114561769D03*
%TD*%
D27*
%TO.C,C30*%
X120525000Y-110899906D03*
X125450000Y-110899906D03*
%TD*%
D31*
%TO.C,U7*%
X145050000Y-110341768D03*
X146050000Y-110341768D03*
D32*
X146300000Y-108954268D03*
X145800000Y-108954268D03*
X145300000Y-108954268D03*
X144800000Y-108954268D03*
X144800000Y-111729268D03*
X145300000Y-111729268D03*
X145800000Y-111729268D03*
X146300000Y-111729268D03*
%TD*%
D18*
%TO.C,R19*%
X167440000Y-115964906D03*
X167440000Y-116984906D03*
%TD*%
D27*
%TO.C,C23*%
X120525000Y-99199906D03*
X125450000Y-99199906D03*
%TD*%
D14*
%TO.C,C37*%
X162140000Y-115994906D03*
X162140000Y-116954906D03*
%TD*%
D10*
%TO.C,C17*%
X174100000Y-97850000D03*
X172200000Y-97850000D03*
%TD*%
D12*
%TO.C,C49*%
X165290000Y-106454906D03*
X165290000Y-105494906D03*
%TD*%
D25*
%TO.C,J4*%
X116950000Y-106999906D03*
D26*
X115450000Y-105524906D03*
X115450000Y-108474906D03*
D25*
X113950000Y-106999906D03*
%TD*%
D14*
%TO.C,C21*%
X166440000Y-115994906D03*
X166440000Y-116954906D03*
%TD*%
D11*
%TO.C,RISO2*%
X175900000Y-97637500D03*
X175900000Y-99462500D03*
%TD*%
D25*
%TO.C,J5*%
X179260000Y-106700000D03*
X182260000Y-106700000D03*
D26*
X180760000Y-108175000D03*
X180760000Y-105225000D03*
%TD*%
D10*
%TO.C,C7*%
X174100000Y-113799999D03*
X172200000Y-113799999D03*
%TD*%
D25*
%TO.C,J3*%
X179210000Y-101000000D03*
D26*
X180710000Y-99525000D03*
D25*
X182210000Y-101000000D03*
D26*
X180710000Y-102475000D03*
%TD*%
D18*
%TO.C,R20*%
X169439999Y-105454906D03*
X169439999Y-106474906D03*
%TD*%
D24*
%TO.C,C54*%
X161250000Y-98600000D03*
X163950000Y-98600000D03*
%TD*%
D33*
%TO.C,R24*%
X175900000Y-96012500D03*
X175900000Y-94187500D03*
%TD*%
D14*
%TO.C,C58*%
X144550000Y-106261768D03*
X144550000Y-107221768D03*
%TD*%
D33*
%TO.C,R26*%
X127887500Y-106218086D03*
X127887500Y-104393086D03*
%TD*%
D12*
%TO.C,C34*%
X161140000Y-106454906D03*
X161140000Y-105494906D03*
%TD*%
D13*
%TO.C,R11*%
X133850001Y-100151769D03*
X133850001Y-99131769D03*
%TD*%
D10*
%TO.C,C13*%
X174100000Y-99900000D03*
X172200000Y-99900000D03*
%TD*%
%TO.C,C42*%
X174100000Y-109950000D03*
X172200000Y-109950000D03*
%TD*%
D14*
%TO.C,C33*%
X161140000Y-115994906D03*
X161140000Y-116954906D03*
%TD*%
D34*
%TO.C,C66*%
X168000000Y-118799906D03*
X165300000Y-118799906D03*
%TD*%
D10*
%TO.C,C41*%
X174100000Y-107900000D03*
X172200000Y-107900000D03*
%TD*%
D13*
%TO.C,R22*%
X145550000Y-107251769D03*
X145550000Y-106231769D03*
%TD*%
%TO.C,R23*%
X146550000Y-107251769D03*
X146550000Y-106231769D03*
%TD*%
D12*
%TO.C,C39*%
X162140000Y-106454906D03*
X162140000Y-105494906D03*
%TD*%
D11*
%TO.C,RISO3*%
X127881426Y-107943086D03*
X127881426Y-109768086D03*
%TD*%
D33*
%TO.C,RISO1*%
X175900000Y-116062500D03*
X175900000Y-114237500D03*
%TD*%
D17*
%TO.C,R17*%
X146040000Y-100141769D03*
X147060000Y-100141769D03*
%TD*%
D18*
%TO.C,R27*%
X146050000Y-113541769D03*
X146050000Y-114561769D03*
%TD*%
%TO.C,R8*%
X132350000Y-106331768D03*
X132350000Y-107351768D03*
%TD*%
D19*
%TO.C,R13*%
X139860000Y-100641769D03*
X138840000Y-100641769D03*
%TD*%
D12*
%TO.C,C43*%
X131850001Y-100121769D03*
X131850001Y-99161769D03*
%TD*%
D27*
%TO.C,C31*%
X120525000Y-114799906D03*
X125450000Y-114799906D03*
%TD*%
D24*
%TO.C,C52*%
X130900000Y-94441769D03*
X133600000Y-94441769D03*
%TD*%
D34*
%TO.C,C51*%
X148100000Y-119341769D03*
X145400000Y-119341769D03*
%TD*%
D30*
%TO.C,C46*%
X132797501Y-114491769D03*
X131837501Y-114491769D03*
%TD*%
D35*
%TO.C,C65*%
X141004594Y-106487175D03*
X139095406Y-108396363D03*
%TD*%
D27*
%TO.C,C1*%
X152737500Y-99449906D03*
X157662500Y-99449906D03*
%TD*%
D33*
%TO.C,RISO4*%
X175900000Y-106062500D03*
X175900000Y-104237500D03*
%TD*%
D24*
%TO.C,C53*%
X165300000Y-103699906D03*
X168000000Y-103699906D03*
%TD*%
D22*
%TO.C,C57*%
X138870000Y-101641769D03*
X139830000Y-101641769D03*
%TD*%
D36*
%TO.C,U6*%
X169100000Y-108749906D03*
X167830000Y-108749906D03*
X166560000Y-108749906D03*
X165290000Y-108749906D03*
X164020000Y-108749906D03*
X162750000Y-108749906D03*
X161480000Y-108749906D03*
X161480000Y-113699906D03*
X162750000Y-113699906D03*
X164020000Y-113699906D03*
X165290000Y-113699906D03*
X166560000Y-113699906D03*
X167830000Y-113699906D03*
X169100000Y-113699906D03*
%TD*%
D27*
%TO.C,C28*%
X120525000Y-106999906D03*
X125450000Y-106999906D03*
%TD*%
D10*
%TO.C,C38*%
X174100000Y-103800000D03*
X172200000Y-103800000D03*
%TD*%
D12*
%TO.C,C56*%
X134350000Y-107321769D03*
X134350000Y-106361769D03*
%TD*%
M02*
