%TF.GenerationSoftware,KiCad,Pcbnew,(6.0.5)*%
%TF.CreationDate,2022-11-19T18:23:49+08:00*%
%TF.ProjectId,EmoeNAP,456d6f65-4e41-4502-9e6b-696361645f70,rev?*%
%TF.SameCoordinates,Original*%
%TF.FileFunction,Copper,L2,Inr*%
%TF.FilePolarity,Positive*%
%FSLAX46Y46*%
G04 Gerber Fmt 4.6, Leading zero omitted, Abs format (unit mm)*
G04 Created by KiCad (PCBNEW (6.0.5)) date 2022-11-19 18:23:49*
%MOMM*%
%LPD*%
G01*
G04 APERTURE LIST*
G04 Aperture macros list*
%AMRoundRect*
0 Rectangle with rounded corners*
0 $1 Rounding radius*
0 $2 $3 $4 $5 $6 $7 $8 $9 X,Y pos of 4 corners*
0 Add a 4 corners polygon primitive as box body*
4,1,4,$2,$3,$4,$5,$6,$7,$8,$9,$2,$3,0*
0 Add four circle primitives for the rounded corners*
1,1,$1+$1,$2,$3*
1,1,$1+$1,$4,$5*
1,1,$1+$1,$6,$7*
1,1,$1+$1,$8,$9*
0 Add four rect primitives between the rounded corners*
20,1,$1+$1,$2,$3,$4,$5,0*
20,1,$1+$1,$4,$5,$6,$7,0*
20,1,$1+$1,$6,$7,$8,$9,0*
20,1,$1+$1,$8,$9,$2,$3,0*%
G04 Aperture macros list end*
%TA.AperFunction,ComponentPad*%
%ADD10C,3.600000*%
%TD*%
%TA.AperFunction,ComponentPad*%
%ADD11RoundRect,0.250000X-0.600000X-0.725000X0.600000X-0.725000X0.600000X0.725000X-0.600000X0.725000X0*%
%TD*%
%TA.AperFunction,ComponentPad*%
%ADD12O,1.700000X1.950000*%
%TD*%
%TA.AperFunction,ComponentPad*%
%ADD13C,1.500000*%
%TD*%
%TA.AperFunction,ComponentPad*%
%ADD14C,2.000000*%
%TD*%
%TA.AperFunction,ComponentPad*%
%ADD15C,1.440000*%
%TD*%
%TA.AperFunction,ViaPad*%
%ADD16C,0.603000*%
%TD*%
%TA.AperFunction,ViaPad*%
%ADD17C,0.500000*%
%TD*%
%TA.AperFunction,ViaPad*%
%ADD18C,0.800000*%
%TD*%
G04 APERTURE END LIST*
D10*
%TO.N,N/C*%
%TO.C,H1*%
X114000000Y-93000000D03*
%TD*%
D11*
%TO.N,VDD*%
%TO.C,J1*%
X162600000Y-93475000D03*
D12*
%TO.N,GND*%
X165100000Y-93475000D03*
%TO.N,VSS*%
X167600000Y-93475000D03*
%TD*%
D13*
%TO.N,Net-(R6-Pad1)*%
%TO.C,U4*%
X153950000Y-114524906D03*
%TO.N,Net-(R20-Pad2)*%
X153950000Y-117024906D03*
%TO.N,Net-(R4-Pad2)*%
X153950000Y-119524906D03*
D14*
%TO.N,GND*%
X152150000Y-111324906D03*
X156150000Y-123224906D03*
%TD*%
D10*
%TO.N,N/C*%
%TO.C,H3*%
X114000000Y-121000000D03*
%TD*%
D15*
%TO.N,Net-(R1-Pad2)*%
%TO.C,RV1*%
X152925000Y-102724906D03*
%TO.N,Net-(C2-Pad2)*%
X155465000Y-105264906D03*
X152925000Y-107804906D03*
%TD*%
D10*
%TO.N,N/C*%
%TO.C,H4*%
X181000000Y-121000000D03*
%TD*%
%TO.N,N/C*%
%TO.C,H2*%
X181000000Y-93000000D03*
%TD*%
D16*
%TO.N,GND*%
X117100000Y-109000000D03*
X117100000Y-104950000D03*
X113500000Y-108400000D03*
X113500000Y-105600000D03*
%TO.N,Net-(C1-Pad1)*%
X132350000Y-105641769D03*
X145400000Y-100141769D03*
D17*
X150650000Y-99449906D03*
D16*
X140550000Y-99641769D03*
X146050000Y-112791769D03*
X138325000Y-113966769D03*
X146550000Y-107941769D03*
X133550000Y-113441769D03*
X132950000Y-100891769D03*
D17*
%TO.N,Net-(C1-Pad2)*%
X159200001Y-105635560D03*
%TO.N,Net-(C2-Pad2)*%
X155650000Y-110199906D03*
D18*
%TO.N,Net-(C11-Pad1)*%
X120525000Y-101174906D03*
X120525000Y-108974906D03*
X120525000Y-105074906D03*
X120525000Y-112874906D03*
%TO.N,Net-(C11-Pad2)*%
X125450000Y-105049906D03*
X125450000Y-101149906D03*
X125450000Y-108949906D03*
X125450000Y-112849906D03*
D16*
%TO.N,Net-(C10-Pad1)*%
X174100000Y-114800000D03*
X174100000Y-116900000D03*
X175800000Y-116900000D03*
X174900000Y-117600000D03*
X174900000Y-116100000D03*
X174100000Y-118900000D03*
%TO.N,Net-(C10-Pad2)*%
X172200000Y-116900000D03*
X158700000Y-120400000D03*
X172200000Y-114800000D03*
X172200000Y-118900000D03*
%TO.N,Net-(C13-Pad1)*%
X175900000Y-96800000D03*
X174900000Y-97600000D03*
X174100000Y-96800000D03*
X174900000Y-96000000D03*
X174100000Y-94800000D03*
X174100000Y-98900000D03*
D18*
%TO.N,Net-(C13-Pad2)*%
X168500000Y-113800000D03*
D16*
X172200000Y-96800000D03*
X172200000Y-94800000D03*
X172200000Y-98900000D03*
%TO.N,Net-(C32-Pad1)*%
X174100000Y-104800000D03*
X174900000Y-107600000D03*
X175900000Y-106900000D03*
X174900000Y-106200000D03*
X174100000Y-108900000D03*
X174100000Y-106900000D03*
%TO.N,Net-(C32-Pad2)*%
X172200000Y-104800000D03*
X172200000Y-108900000D03*
X172200000Y-106900000D03*
D18*
X162600000Y-114600000D03*
D16*
%TO.N,GND*%
X136950000Y-116241769D03*
X118800000Y-104600000D03*
X129950000Y-102241769D03*
X127200000Y-111000000D03*
D18*
X179200000Y-105200000D03*
D16*
X139950000Y-116241769D03*
X144800000Y-118291863D03*
X148950000Y-109241769D03*
X133950000Y-97241769D03*
X129950000Y-100241769D03*
X127200000Y-103000000D03*
X146000000Y-120491863D03*
D18*
X166200000Y-97400000D03*
X179200000Y-114100000D03*
D16*
X129950000Y-105241769D03*
X118800000Y-98600000D03*
X118800000Y-109400000D03*
X129950000Y-114241769D03*
D17*
X144520000Y-114681863D03*
D16*
X148950000Y-107241769D03*
X129950000Y-115241769D03*
X141845884Y-105645884D03*
D18*
X179100000Y-99500000D03*
D16*
X132950000Y-97241769D03*
X141950000Y-116241769D03*
X118000000Y-104950000D03*
D17*
X138840000Y-101161863D03*
X162140000Y-117500000D03*
D16*
X131950000Y-116241769D03*
X129950000Y-99241769D03*
X134950000Y-116241769D03*
D18*
X182300000Y-108100000D03*
D16*
X144950000Y-97241769D03*
D17*
X140020000Y-112501863D03*
D16*
X128600000Y-103000000D03*
X165855094Y-105494906D03*
X129950000Y-104241769D03*
X148950000Y-103250000D03*
X124200000Y-117200000D03*
X126400000Y-96800000D03*
X140950000Y-97241769D03*
D17*
X133350000Y-108171863D03*
D16*
X137950000Y-116241769D03*
X128400000Y-111000000D03*
X146000000Y-118291863D03*
D18*
X179200000Y-108100000D03*
D17*
X147640093Y-114531770D03*
D16*
X122800000Y-117200000D03*
X141950000Y-97241769D03*
D18*
X164000000Y-99800000D03*
D16*
X142950000Y-116241769D03*
X138950000Y-116241769D03*
X118800000Y-99800000D03*
X148950000Y-98241769D03*
X139950000Y-97241769D03*
D18*
X166800000Y-103700000D03*
D17*
X131230094Y-99161769D03*
D16*
X127200000Y-117200000D03*
D18*
X169200000Y-103700000D03*
D16*
X127200000Y-112200000D03*
X144800000Y-120491863D03*
D18*
X165100000Y-98600000D03*
D17*
X131210094Y-112491769D03*
D16*
X134200000Y-95491863D03*
X129950000Y-103241769D03*
X120000000Y-96800000D03*
X121400000Y-117200000D03*
X127200000Y-114600000D03*
X123800000Y-96800000D03*
X146950000Y-97241769D03*
X148950000Y-108241769D03*
D17*
X157130969Y-112467891D03*
D16*
X130950000Y-116241769D03*
X118800000Y-111800000D03*
X129950000Y-111241769D03*
X127200000Y-101800000D03*
D17*
X166800000Y-117600000D03*
D16*
X120000000Y-117200000D03*
D18*
X177100000Y-109500000D03*
D16*
X142950000Y-97241769D03*
D18*
X169200000Y-118800000D03*
D16*
X156150000Y-118300000D03*
D18*
X177100000Y-119500000D03*
D16*
X125600000Y-117200000D03*
X134200000Y-93291863D03*
X148950000Y-100241769D03*
X121400000Y-96800000D03*
X136950000Y-97241769D03*
D18*
X182300000Y-105200000D03*
D16*
X148950000Y-113241769D03*
X118800000Y-97400000D03*
X127200000Y-99400000D03*
X148950000Y-97241769D03*
D17*
X160643797Y-114026203D03*
D16*
X129950000Y-98241769D03*
X148950000Y-104241769D03*
X129950000Y-112241769D03*
X127200000Y-98200000D03*
D17*
X135460000Y-108001863D03*
D16*
X118800000Y-103400000D03*
D18*
X182400000Y-114100000D03*
D16*
X129950000Y-109241769D03*
X129950000Y-116241769D03*
X129950000Y-110241769D03*
X158150000Y-103250000D03*
X147950000Y-97241769D03*
D18*
X175900000Y-120500000D03*
D16*
X125000000Y-96800000D03*
X118800000Y-102200000D03*
D17*
X164900000Y-116700000D03*
X147030000Y-98501863D03*
D16*
X143950000Y-97241769D03*
X143950000Y-116241769D03*
X129950000Y-101241769D03*
X143768231Y-106231769D03*
X129950000Y-108241769D03*
X138950000Y-97241769D03*
D18*
X177100000Y-94200000D03*
D17*
X131837501Y-115144362D03*
X133850001Y-98571862D03*
D16*
X135950000Y-97241769D03*
D18*
X182300000Y-99500000D03*
X166800000Y-118800000D03*
X175900000Y-93200000D03*
D16*
X148950000Y-116241769D03*
X127200000Y-100600000D03*
X133000000Y-93291863D03*
D17*
X136324953Y-107966816D03*
D16*
X127200000Y-113400000D03*
X118800000Y-113000000D03*
D18*
X182400000Y-111100000D03*
D16*
X148950000Y-105241769D03*
D18*
X175900000Y-110500000D03*
D16*
X140950000Y-116241769D03*
D18*
X182300000Y-102400000D03*
D16*
X122600000Y-96800000D03*
X118800000Y-114200000D03*
X146950000Y-116241769D03*
X148950000Y-101241769D03*
X133950000Y-116241769D03*
X127200000Y-115800000D03*
X148950000Y-112241769D03*
X148950000Y-115241769D03*
X129950000Y-106241769D03*
D18*
X166200000Y-99800000D03*
D16*
X118800000Y-110600000D03*
X148950000Y-111241769D03*
X142854116Y-105645884D03*
X145950000Y-116241769D03*
D18*
X179100000Y-102400000D03*
D17*
X162140000Y-104970000D03*
D18*
X179200000Y-111100000D03*
D16*
X129950000Y-113241769D03*
D18*
X164000000Y-97400000D03*
D16*
X118800000Y-115400000D03*
D17*
X160460000Y-112290000D03*
D16*
X145068231Y-106231769D03*
X118800000Y-101000000D03*
X148950000Y-114241769D03*
X135950000Y-116241769D03*
X118800000Y-116600000D03*
X144950000Y-116241769D03*
X132950000Y-116241769D03*
X133000000Y-95491863D03*
X148950000Y-110241769D03*
X148950000Y-106241769D03*
X131950000Y-97241769D03*
X129950000Y-97241769D03*
D17*
X147630094Y-101141769D03*
D16*
X137950000Y-97241769D03*
X145950000Y-97241769D03*
X134950000Y-97241769D03*
D17*
%TO.N,Net-(R20-Pad2)*%
X169439999Y-107089905D03*
X159500000Y-120699906D03*
X164140000Y-107089906D03*
%TO.N,Net-(R6-Pad1)*%
X158750000Y-110685560D03*
X159150000Y-115799906D03*
%TO.N,VDD*%
X147700000Y-113571863D03*
D18*
X148100000Y-120791863D03*
D17*
X131250094Y-100121769D03*
X132800000Y-115081863D03*
D18*
X130900000Y-92991863D03*
X161200000Y-100900000D03*
D17*
X164785000Y-106065000D03*
D18*
X130900000Y-95791863D03*
D17*
X146070000Y-98511863D03*
D18*
X164200000Y-103700000D03*
D17*
X156880000Y-111220000D03*
D18*
X148100000Y-117891863D03*
X161200000Y-99800000D03*
D17*
X155430000Y-119570000D03*
D18*
%TO.N,VSS*%
X142860000Y-104721863D03*
X169000000Y-101400000D03*
X169000000Y-100000000D03*
X165400000Y-120400000D03*
X166600000Y-120400000D03*
D17*
X165740000Y-116340000D03*
X165000000Y-117900000D03*
D18*
X167600000Y-101400000D03*
X141690000Y-104721863D03*
X166200000Y-101400000D03*
D17*
X161200000Y-103870000D03*
X165700000Y-117900000D03*
X160580000Y-114990000D03*
%TO.N,Net-(RISO3-Pad2)*%
X145100000Y-107941769D03*
X133750000Y-105591769D03*
D18*
X127881426Y-109755586D03*
D17*
X140550000Y-101041769D03*
X144090000Y-111721769D03*
X138300000Y-112591769D03*
X144340000Y-101921769D03*
X134550000Y-111551769D03*
X134700000Y-101851769D03*
%TD*%
%TA.AperFunction,Conductor*%
%TO.N,GND*%
G36*
X180980242Y-89202466D02*
G01*
X180985811Y-89202476D01*
X180999641Y-89205656D01*
X181013480Y-89202524D01*
X181027671Y-89202549D01*
X181027670Y-89202942D01*
X181035627Y-89202250D01*
X181366240Y-89218493D01*
X181378534Y-89219704D01*
X181735122Y-89272598D01*
X181747244Y-89275008D01*
X181923077Y-89319052D01*
X182096940Y-89362603D01*
X182108772Y-89366193D01*
X182448169Y-89487632D01*
X182459593Y-89492363D01*
X182686444Y-89599655D01*
X182785482Y-89646496D01*
X182796383Y-89652323D01*
X183105583Y-89837651D01*
X183115864Y-89844521D01*
X183405411Y-90059264D01*
X183414948Y-90067089D01*
X183682071Y-90309196D01*
X183690804Y-90317929D01*
X183932911Y-90585052D01*
X183940736Y-90594589D01*
X184078942Y-90780938D01*
X184155479Y-90884136D01*
X184162349Y-90894417D01*
X184337986Y-91187448D01*
X184347677Y-91203617D01*
X184353506Y-91214522D01*
X184507637Y-91540407D01*
X184512368Y-91551831D01*
X184633807Y-91891228D01*
X184637397Y-91903060D01*
X184724991Y-92252753D01*
X184727402Y-92264878D01*
X184778895Y-92612013D01*
X184780296Y-92621461D01*
X184781507Y-92633760D01*
X184787662Y-92759033D01*
X184797722Y-92963806D01*
X184797029Y-92971622D01*
X184797549Y-92971623D01*
X184797524Y-92985812D01*
X184794344Y-92999641D01*
X184797475Y-93013480D01*
X184797467Y-93018311D01*
X184799500Y-93036504D01*
X184799500Y-120962920D01*
X184797534Y-120980242D01*
X184797524Y-120985811D01*
X184794344Y-120999641D01*
X184797476Y-121013480D01*
X184797451Y-121027671D01*
X184797058Y-121027670D01*
X184797750Y-121035627D01*
X184788907Y-121215635D01*
X184781508Y-121366234D01*
X184780296Y-121378534D01*
X184735066Y-121683458D01*
X184727403Y-121735119D01*
X184724991Y-121747247D01*
X184637397Y-122096940D01*
X184633807Y-122108772D01*
X184512368Y-122448169D01*
X184507637Y-122459593D01*
X184353506Y-122785478D01*
X184347677Y-122796383D01*
X184162349Y-123105583D01*
X184155479Y-123115864D01*
X183940736Y-123405411D01*
X183932911Y-123414948D01*
X183690809Y-123682066D01*
X183682071Y-123690804D01*
X183414948Y-123932911D01*
X183405411Y-123940736D01*
X183219062Y-124078942D01*
X183115864Y-124155479D01*
X183105583Y-124162349D01*
X182796383Y-124347677D01*
X182785482Y-124353504D01*
X182686444Y-124400345D01*
X182459593Y-124507637D01*
X182448169Y-124512368D01*
X182108772Y-124633807D01*
X182096940Y-124637397D01*
X181952810Y-124673500D01*
X181747244Y-124724992D01*
X181735122Y-124727402D01*
X181378534Y-124780296D01*
X181366240Y-124781507D01*
X181073290Y-124795900D01*
X181036194Y-124797722D01*
X181028378Y-124797029D01*
X181028377Y-124797549D01*
X181014188Y-124797524D01*
X181000359Y-124794344D01*
X180986520Y-124797475D01*
X180981689Y-124797467D01*
X180963496Y-124799500D01*
X160526000Y-124799500D01*
X160457879Y-124779498D01*
X160411386Y-124725842D01*
X160400000Y-124673500D01*
X160400000Y-120400000D01*
X164794318Y-120400000D01*
X164814956Y-120556762D01*
X164875464Y-120702841D01*
X164971718Y-120828282D01*
X165097159Y-120924536D01*
X165243238Y-120985044D01*
X165400000Y-121005682D01*
X165408188Y-121004604D01*
X165418367Y-121003264D01*
X165556762Y-120985044D01*
X165702841Y-120924536D01*
X165828282Y-120828282D01*
X165900037Y-120734769D01*
X165957375Y-120692902D01*
X166028246Y-120688680D01*
X166090149Y-120723444D01*
X166099963Y-120734769D01*
X166171718Y-120828282D01*
X166297159Y-120924536D01*
X166443238Y-120985044D01*
X166600000Y-121005682D01*
X166608188Y-121004604D01*
X166618367Y-121003264D01*
X166756762Y-120985044D01*
X166872745Y-120937002D01*
X178995380Y-120937002D01*
X179006502Y-121220084D01*
X179057400Y-121498775D01*
X179147058Y-121767514D01*
X179273687Y-122020939D01*
X179434761Y-122253993D01*
X179627065Y-122462027D01*
X179630519Y-122464839D01*
X179843307Y-122638075D01*
X179843311Y-122638078D01*
X179846764Y-122640889D01*
X180089472Y-122787012D01*
X180093567Y-122788746D01*
X180093569Y-122788747D01*
X180346247Y-122895742D01*
X180346254Y-122895744D01*
X180350348Y-122897478D01*
X180450492Y-122924031D01*
X180619889Y-122968946D01*
X180619893Y-122968947D01*
X180624186Y-122970085D01*
X180628595Y-122970607D01*
X180628601Y-122970608D01*
X180785954Y-122989232D01*
X180905523Y-123003384D01*
X181188745Y-122996709D01*
X181193143Y-122995977D01*
X181463810Y-122950926D01*
X181463814Y-122950925D01*
X181468200Y-122950195D01*
X181472441Y-122948854D01*
X181472444Y-122948853D01*
X181734068Y-122866112D01*
X181734070Y-122866111D01*
X181738314Y-122864769D01*
X181742325Y-122862843D01*
X181742330Y-122862841D01*
X181989678Y-122744066D01*
X181989679Y-122744065D01*
X181993697Y-122742136D01*
X182141781Y-122643190D01*
X182225545Y-122587221D01*
X182225549Y-122587218D01*
X182229253Y-122584743D01*
X182440281Y-122395730D01*
X182622573Y-122178868D01*
X182772489Y-121938485D01*
X182887040Y-121679376D01*
X182963939Y-121406712D01*
X182967723Y-121378539D01*
X183001225Y-121129115D01*
X183001226Y-121129107D01*
X183001652Y-121125933D01*
X183004490Y-121035627D01*
X183005509Y-121003222D01*
X183005509Y-121003217D01*
X183005610Y-121000000D01*
X182985601Y-120717407D01*
X182983876Y-120709392D01*
X182926911Y-120444800D01*
X182926911Y-120444798D01*
X182925975Y-120440453D01*
X182827920Y-120174663D01*
X182776906Y-120080118D01*
X182695506Y-119929256D01*
X182693393Y-119925340D01*
X182525078Y-119697460D01*
X182478554Y-119650199D01*
X182348134Y-119517715D01*
X182326334Y-119495570D01*
X182322794Y-119492869D01*
X182322788Y-119492863D01*
X182104667Y-119326398D01*
X182104663Y-119326395D01*
X182101126Y-119323696D01*
X182007389Y-119271201D01*
X181857837Y-119187448D01*
X181857832Y-119187445D01*
X181853947Y-119185270D01*
X181849789Y-119183662D01*
X181849784Y-119183659D01*
X181593885Y-119084659D01*
X181593879Y-119084657D01*
X181589730Y-119083052D01*
X181585398Y-119082048D01*
X181585395Y-119082047D01*
X181465229Y-119054194D01*
X181313747Y-119019082D01*
X181031503Y-118994637D01*
X181027068Y-118994881D01*
X181027064Y-118994881D01*
X180753073Y-119009960D01*
X180753066Y-119009961D01*
X180748630Y-119010205D01*
X180661748Y-119027487D01*
X180475146Y-119064604D01*
X180475141Y-119064605D01*
X180470774Y-119065474D01*
X180466571Y-119066950D01*
X180207684Y-119157864D01*
X180207681Y-119157865D01*
X180203476Y-119159342D01*
X180199523Y-119161395D01*
X180199517Y-119161398D01*
X180089384Y-119218608D01*
X179952072Y-119289936D01*
X179948457Y-119292519D01*
X179948451Y-119292523D01*
X179843095Y-119367812D01*
X179721576Y-119454651D01*
X179718349Y-119457729D01*
X179718347Y-119457731D01*
X179589002Y-119581120D01*
X179516588Y-119650199D01*
X179341199Y-119872680D01*
X179310880Y-119924878D01*
X179201141Y-120113807D01*
X179201138Y-120113813D01*
X179198907Y-120117654D01*
X179197237Y-120121777D01*
X179161512Y-120209979D01*
X179092552Y-120380232D01*
X179091481Y-120384545D01*
X179091479Y-120384550D01*
X179046806Y-120564391D01*
X179024255Y-120655177D01*
X179023801Y-120659605D01*
X179023801Y-120659607D01*
X178997172Y-120919509D01*
X178995380Y-120937002D01*
X166872745Y-120937002D01*
X166902841Y-120924536D01*
X167028282Y-120828282D01*
X167124536Y-120702841D01*
X167185044Y-120556762D01*
X167205682Y-120400000D01*
X167185044Y-120243238D01*
X167124536Y-120097159D01*
X167037302Y-119983473D01*
X167033305Y-119978264D01*
X167028282Y-119971718D01*
X166902841Y-119875464D01*
X166756762Y-119814956D01*
X166600000Y-119794318D01*
X166443238Y-119814956D01*
X166297159Y-119875464D01*
X166171718Y-119971718D01*
X166166695Y-119978264D01*
X166099963Y-120065231D01*
X166042625Y-120107098D01*
X165971754Y-120111320D01*
X165909851Y-120076556D01*
X165900037Y-120065231D01*
X165833305Y-119978264D01*
X165828282Y-119971718D01*
X165702841Y-119875464D01*
X165556762Y-119814956D01*
X165400000Y-119794318D01*
X165243238Y-119814956D01*
X165097159Y-119875464D01*
X164971718Y-119971718D01*
X164966695Y-119978264D01*
X164962698Y-119983473D01*
X164875464Y-120097159D01*
X164814956Y-120243238D01*
X164794318Y-120400000D01*
X160400000Y-120400000D01*
X160400000Y-118893804D01*
X171692876Y-118893804D01*
X171694040Y-118902706D01*
X171694040Y-118902709D01*
X171710357Y-119027487D01*
X171711521Y-119036386D01*
X171769434Y-119168004D01*
X171775211Y-119174877D01*
X171775212Y-119174878D01*
X171824763Y-119233826D01*
X171861960Y-119278077D01*
X171887245Y-119294908D01*
X171943642Y-119332449D01*
X171981661Y-119357757D01*
X172118914Y-119400638D01*
X172262686Y-119403273D01*
X172305507Y-119391599D01*
X172392756Y-119367812D01*
X172392759Y-119367811D01*
X172401418Y-119365450D01*
X172409068Y-119360753D01*
X172409070Y-119360752D01*
X172465021Y-119326398D01*
X172523959Y-119290210D01*
X172620456Y-119183601D01*
X172677689Y-119065474D01*
X172679241Y-119062271D01*
X172679242Y-119062269D01*
X172683154Y-119054194D01*
X172694744Y-118985307D01*
X172706205Y-118917184D01*
X172706205Y-118917179D01*
X172707011Y-118912391D01*
X172707162Y-118900000D01*
X172706275Y-118893804D01*
X173592876Y-118893804D01*
X173594040Y-118902706D01*
X173594040Y-118902709D01*
X173610357Y-119027487D01*
X173611521Y-119036386D01*
X173669434Y-119168004D01*
X173675211Y-119174877D01*
X173675212Y-119174878D01*
X173724763Y-119233826D01*
X173761960Y-119278077D01*
X173787245Y-119294908D01*
X173843642Y-119332449D01*
X173881661Y-119357757D01*
X174018914Y-119400638D01*
X174162686Y-119403273D01*
X174205507Y-119391599D01*
X174292756Y-119367812D01*
X174292759Y-119367811D01*
X174301418Y-119365450D01*
X174309068Y-119360753D01*
X174309070Y-119360752D01*
X174365021Y-119326398D01*
X174423959Y-119290210D01*
X174520456Y-119183601D01*
X174577689Y-119065474D01*
X174579241Y-119062271D01*
X174579242Y-119062269D01*
X174583154Y-119054194D01*
X174594744Y-118985307D01*
X174606205Y-118917184D01*
X174606205Y-118917179D01*
X174607011Y-118912391D01*
X174607162Y-118900000D01*
X174600275Y-118851911D01*
X174588050Y-118766543D01*
X174588049Y-118766540D01*
X174586777Y-118757657D01*
X174575609Y-118733093D01*
X174535298Y-118644435D01*
X174527260Y-118626756D01*
X174433396Y-118517821D01*
X174312730Y-118439610D01*
X174174963Y-118398409D01*
X174165987Y-118398354D01*
X174165986Y-118398354D01*
X174106021Y-118397988D01*
X174031170Y-118397530D01*
X173892910Y-118437045D01*
X173771298Y-118513777D01*
X173765355Y-118520506D01*
X173704585Y-118589315D01*
X173676110Y-118621556D01*
X173672296Y-118629679D01*
X173672295Y-118629681D01*
X173618814Y-118743594D01*
X173614999Y-118751720D01*
X173613618Y-118760589D01*
X173600011Y-118847982D01*
X173592876Y-118893804D01*
X172706275Y-118893804D01*
X172700275Y-118851911D01*
X172688050Y-118766543D01*
X172688049Y-118766540D01*
X172686777Y-118757657D01*
X172675609Y-118733093D01*
X172635298Y-118644435D01*
X172627260Y-118626756D01*
X172533396Y-118517821D01*
X172412730Y-118439610D01*
X172274963Y-118398409D01*
X172265987Y-118398354D01*
X172265986Y-118398354D01*
X172206021Y-118397988D01*
X172131170Y-118397530D01*
X171992910Y-118437045D01*
X171871298Y-118513777D01*
X171865355Y-118520506D01*
X171804585Y-118589315D01*
X171776110Y-118621556D01*
X171772296Y-118629679D01*
X171772295Y-118629681D01*
X171718814Y-118743594D01*
X171714999Y-118751720D01*
X171713618Y-118760589D01*
X171700011Y-118847982D01*
X171692876Y-118893804D01*
X160400000Y-118893804D01*
X160400000Y-117894440D01*
X164544901Y-117894440D01*
X164546065Y-117903342D01*
X164546065Y-117903345D01*
X164560468Y-118013489D01*
X164560469Y-118013493D01*
X164561633Y-118022394D01*
X164613605Y-118140510D01*
X164696639Y-118239291D01*
X164804060Y-118310796D01*
X164927233Y-118349278D01*
X164936203Y-118349442D01*
X164936207Y-118349443D01*
X164994942Y-118350519D01*
X165056255Y-118351643D01*
X165153363Y-118325168D01*
X165172092Y-118320062D01*
X165172093Y-118320062D01*
X165180755Y-118317700D01*
X165188405Y-118313003D01*
X165188407Y-118313002D01*
X165285659Y-118253289D01*
X165354176Y-118234691D01*
X165421405Y-118255777D01*
X165504060Y-118310796D01*
X165627233Y-118349278D01*
X165636203Y-118349442D01*
X165636207Y-118349443D01*
X165694942Y-118350519D01*
X165756255Y-118351643D01*
X165853363Y-118325168D01*
X165872092Y-118320062D01*
X165872093Y-118320062D01*
X165880755Y-118317700D01*
X165888405Y-118313003D01*
X165888407Y-118313002D01*
X165983072Y-118254878D01*
X165983075Y-118254875D01*
X165990724Y-118250179D01*
X165996750Y-118243522D01*
X166071300Y-118161161D01*
X166071303Y-118161157D01*
X166077322Y-118154507D01*
X166133588Y-118038375D01*
X166143733Y-117978077D01*
X166154190Y-117915917D01*
X166154997Y-117911120D01*
X166155133Y-117900000D01*
X166147748Y-117848433D01*
X166138112Y-117781145D01*
X166138111Y-117781142D01*
X166136839Y-117772259D01*
X166130724Y-117758809D01*
X166087145Y-117662962D01*
X166087143Y-117662959D01*
X166083428Y-117654788D01*
X166057625Y-117624842D01*
X166005051Y-117563826D01*
X166005049Y-117563824D01*
X165999193Y-117557028D01*
X165890906Y-117486841D01*
X165882311Y-117484271D01*
X165882310Y-117484270D01*
X165775874Y-117452438D01*
X165775872Y-117452438D01*
X165767273Y-117449866D01*
X165758298Y-117449811D01*
X165758297Y-117449811D01*
X165703641Y-117449477D01*
X165638231Y-117449078D01*
X165587486Y-117463581D01*
X165522786Y-117482072D01*
X165522784Y-117482073D01*
X165514155Y-117484539D01*
X165506565Y-117489328D01*
X165416706Y-117546025D01*
X165348421Y-117565459D01*
X165280938Y-117545196D01*
X165244175Y-117521368D01*
X165190906Y-117486841D01*
X165182311Y-117484271D01*
X165182310Y-117484270D01*
X165075874Y-117452438D01*
X165075872Y-117452438D01*
X165067273Y-117449866D01*
X165058298Y-117449811D01*
X165058297Y-117449811D01*
X165003641Y-117449477D01*
X164938231Y-117449078D01*
X164887486Y-117463581D01*
X164822786Y-117482072D01*
X164822784Y-117482073D01*
X164814155Y-117484539D01*
X164705019Y-117553399D01*
X164699076Y-117560128D01*
X164699075Y-117560129D01*
X164679343Y-117582471D01*
X164619596Y-117650122D01*
X164615782Y-117658245D01*
X164615781Y-117658247D01*
X164603904Y-117683544D01*
X164564754Y-117766932D01*
X164563374Y-117775798D01*
X164546282Y-117885567D01*
X164546282Y-117885571D01*
X164544901Y-117894440D01*
X160400000Y-117894440D01*
X160400000Y-116893804D01*
X171692876Y-116893804D01*
X171694040Y-116902706D01*
X171694040Y-116902709D01*
X171710357Y-117027487D01*
X171711521Y-117036386D01*
X171769434Y-117168004D01*
X171775211Y-117174877D01*
X171775212Y-117174878D01*
X171821872Y-117230387D01*
X171861960Y-117278077D01*
X171981661Y-117357757D01*
X172118914Y-117400638D01*
X172262686Y-117403273D01*
X172305507Y-117391599D01*
X172392756Y-117367812D01*
X172392759Y-117367811D01*
X172401418Y-117365450D01*
X172409068Y-117360753D01*
X172409070Y-117360752D01*
X172498664Y-117305741D01*
X172523959Y-117290210D01*
X172620456Y-117183601D01*
X172683154Y-117054194D01*
X172687647Y-117027487D01*
X172706205Y-116917184D01*
X172706205Y-116917179D01*
X172707011Y-116912391D01*
X172707162Y-116900000D01*
X172706275Y-116893804D01*
X173592876Y-116893804D01*
X173594040Y-116902706D01*
X173594040Y-116902709D01*
X173610357Y-117027487D01*
X173611521Y-117036386D01*
X173669434Y-117168004D01*
X173675211Y-117174877D01*
X173675212Y-117174878D01*
X173721872Y-117230387D01*
X173761960Y-117278077D01*
X173881661Y-117357757D01*
X174018914Y-117400638D01*
X174162686Y-117403273D01*
X174246513Y-117380419D01*
X174317496Y-117381799D01*
X174376465Y-117421336D01*
X174404697Y-117486477D01*
X174404155Y-117521365D01*
X174400145Y-117547118D01*
X174394641Y-117582471D01*
X174392876Y-117593804D01*
X174394040Y-117602706D01*
X174394040Y-117602709D01*
X174409425Y-117720360D01*
X174411521Y-117736386D01*
X174469434Y-117868004D01*
X174475211Y-117874877D01*
X174475212Y-117874878D01*
X174509709Y-117915917D01*
X174561960Y-117978077D01*
X174681661Y-118057757D01*
X174818914Y-118100638D01*
X174962686Y-118103273D01*
X175005507Y-118091599D01*
X175092756Y-118067812D01*
X175092759Y-118067811D01*
X175101418Y-118065450D01*
X175109068Y-118060753D01*
X175109070Y-118060752D01*
X175186045Y-118013489D01*
X175223959Y-117990210D01*
X175233813Y-117979324D01*
X175314434Y-117890254D01*
X175320456Y-117883601D01*
X175372687Y-117775798D01*
X175379241Y-117762271D01*
X175379242Y-117762269D01*
X175383154Y-117754194D01*
X175390270Y-117711896D01*
X175406205Y-117617184D01*
X175406205Y-117617179D01*
X175407011Y-117612391D01*
X175407162Y-117600000D01*
X175390264Y-117482007D01*
X175400406Y-117411740D01*
X175446929Y-117358110D01*
X175515061Y-117338146D01*
X175569235Y-117350420D01*
X175574187Y-117352782D01*
X175581661Y-117357757D01*
X175718914Y-117400638D01*
X175862686Y-117403273D01*
X175905507Y-117391599D01*
X175992756Y-117367812D01*
X175992759Y-117367811D01*
X176001418Y-117365450D01*
X176009068Y-117360753D01*
X176009070Y-117360752D01*
X176098664Y-117305741D01*
X176123959Y-117290210D01*
X176220456Y-117183601D01*
X176283154Y-117054194D01*
X176287647Y-117027487D01*
X176306205Y-116917184D01*
X176306205Y-116917179D01*
X176307011Y-116912391D01*
X176307162Y-116900000D01*
X176299361Y-116845527D01*
X176288050Y-116766543D01*
X176288049Y-116766540D01*
X176286777Y-116757657D01*
X176283062Y-116749485D01*
X176251146Y-116679291D01*
X176227260Y-116626756D01*
X176174436Y-116565450D01*
X176139254Y-116524619D01*
X176139252Y-116524617D01*
X176133396Y-116517821D01*
X176012730Y-116439610D01*
X175874963Y-116398409D01*
X175865987Y-116398354D01*
X175865986Y-116398354D01*
X175806021Y-116397988D01*
X175731170Y-116397530D01*
X175592910Y-116437045D01*
X175536056Y-116472918D01*
X175467773Y-116492351D01*
X175399821Y-116471782D01*
X175353776Y-116417741D01*
X175344258Y-116347385D01*
X175355430Y-116311417D01*
X175379240Y-116262274D01*
X175379242Y-116262269D01*
X175383154Y-116254194D01*
X175390209Y-116212259D01*
X175406205Y-116117184D01*
X175406205Y-116117179D01*
X175407011Y-116112391D01*
X175407162Y-116100000D01*
X175393389Y-116003826D01*
X175388050Y-115966543D01*
X175388049Y-115966540D01*
X175386777Y-115957657D01*
X175327260Y-115826756D01*
X175233396Y-115717821D01*
X175112730Y-115639610D01*
X174974963Y-115598409D01*
X174965987Y-115598354D01*
X174965986Y-115598354D01*
X174906021Y-115597988D01*
X174831170Y-115597530D01*
X174692910Y-115637045D01*
X174571298Y-115713777D01*
X174565355Y-115720506D01*
X174561723Y-115724619D01*
X174476110Y-115821556D01*
X174472296Y-115829679D01*
X174472295Y-115829681D01*
X174427760Y-115924539D01*
X174414999Y-115951720D01*
X174413618Y-115960589D01*
X174394497Y-116083394D01*
X174392876Y-116093804D01*
X174394040Y-116102706D01*
X174394040Y-116102709D01*
X174409528Y-116221145D01*
X174411521Y-116236386D01*
X174415136Y-116244601D01*
X174419638Y-116254834D01*
X174428764Y-116325242D01*
X174398376Y-116389406D01*
X174338122Y-116426956D01*
X174268208Y-116426295D01*
X174174963Y-116398409D01*
X174165987Y-116398354D01*
X174165986Y-116398354D01*
X174106021Y-116397988D01*
X174031170Y-116397530D01*
X173892910Y-116437045D01*
X173771298Y-116513777D01*
X173765355Y-116520506D01*
X173696949Y-116597961D01*
X173676110Y-116621556D01*
X173672296Y-116629679D01*
X173672295Y-116629681D01*
X173618814Y-116743594D01*
X173614999Y-116751720D01*
X173613618Y-116760589D01*
X173608809Y-116791478D01*
X173592876Y-116893804D01*
X172706275Y-116893804D01*
X172699361Y-116845527D01*
X172688050Y-116766543D01*
X172688049Y-116766540D01*
X172686777Y-116757657D01*
X172683062Y-116749485D01*
X172651146Y-116679291D01*
X172627260Y-116626756D01*
X172574436Y-116565450D01*
X172539254Y-116524619D01*
X172539252Y-116524617D01*
X172533396Y-116517821D01*
X172412730Y-116439610D01*
X172274963Y-116398409D01*
X172265987Y-116398354D01*
X172265986Y-116398354D01*
X172206021Y-116397988D01*
X172131170Y-116397530D01*
X171992910Y-116437045D01*
X171871298Y-116513777D01*
X171865355Y-116520506D01*
X171796949Y-116597961D01*
X171776110Y-116621556D01*
X171772296Y-116629679D01*
X171772295Y-116629681D01*
X171718814Y-116743594D01*
X171714999Y-116751720D01*
X171713618Y-116760589D01*
X171708809Y-116791478D01*
X171692876Y-116893804D01*
X160400000Y-116893804D01*
X160400000Y-116334440D01*
X165284901Y-116334440D01*
X165286065Y-116343342D01*
X165286065Y-116343345D01*
X165300468Y-116453489D01*
X165300469Y-116453493D01*
X165301633Y-116462394D01*
X165305250Y-116470614D01*
X165329013Y-116524619D01*
X165353605Y-116580510D01*
X165359382Y-116587383D01*
X165359383Y-116587384D01*
X165372739Y-116603273D01*
X165436639Y-116679291D01*
X165444116Y-116684268D01*
X165533241Y-116743594D01*
X165544060Y-116750796D01*
X165667233Y-116789278D01*
X165676203Y-116789442D01*
X165676207Y-116789443D01*
X165734942Y-116790519D01*
X165796255Y-116791643D01*
X165888320Y-116766543D01*
X165912092Y-116760062D01*
X165912093Y-116760062D01*
X165920755Y-116757700D01*
X165928405Y-116753003D01*
X165928407Y-116753002D01*
X166023072Y-116694878D01*
X166023075Y-116694875D01*
X166030724Y-116690179D01*
X166036750Y-116683522D01*
X166111300Y-116601161D01*
X166111303Y-116601157D01*
X166117322Y-116594507D01*
X166173588Y-116478375D01*
X166179289Y-116444492D01*
X166194190Y-116355917D01*
X166194997Y-116351120D01*
X166195133Y-116340000D01*
X166181471Y-116244601D01*
X166178112Y-116221145D01*
X166178111Y-116221142D01*
X166176839Y-116212259D01*
X166170724Y-116198809D01*
X166127145Y-116102962D01*
X166127143Y-116102959D01*
X166123428Y-116094788D01*
X166039193Y-115997028D01*
X165930906Y-115926841D01*
X165922311Y-115924271D01*
X165922310Y-115924270D01*
X165815874Y-115892438D01*
X165815872Y-115892438D01*
X165807273Y-115889866D01*
X165798298Y-115889811D01*
X165798297Y-115889811D01*
X165743641Y-115889477D01*
X165678231Y-115889078D01*
X165666475Y-115892438D01*
X165562786Y-115922072D01*
X165562784Y-115922073D01*
X165554155Y-115924539D01*
X165445019Y-115993399D01*
X165359596Y-116090122D01*
X165355782Y-116098245D01*
X165355781Y-116098247D01*
X165351422Y-116107532D01*
X165304754Y-116206932D01*
X165301830Y-116225713D01*
X165286282Y-116325567D01*
X165286282Y-116325571D01*
X165284901Y-116334440D01*
X160400000Y-116334440D01*
X160400000Y-115565643D01*
X160420002Y-115497522D01*
X160473658Y-115451029D01*
X160528308Y-115439664D01*
X160636255Y-115441643D01*
X160726559Y-115417023D01*
X160752092Y-115410062D01*
X160752093Y-115410062D01*
X160760755Y-115407700D01*
X160768405Y-115403003D01*
X160768407Y-115403002D01*
X160863072Y-115344878D01*
X160863075Y-115344875D01*
X160870724Y-115340179D01*
X160878740Y-115331323D01*
X160951300Y-115251161D01*
X160951303Y-115251157D01*
X160957322Y-115244507D01*
X161013588Y-115128375D01*
X161020002Y-115090254D01*
X161034328Y-115005096D01*
X161065355Y-114941238D01*
X161125980Y-114904291D01*
X161158582Y-114900000D01*
X162011147Y-114900000D01*
X162079268Y-114920002D01*
X162111110Y-114949296D01*
X162171718Y-115028282D01*
X162178264Y-115033305D01*
X162189975Y-115042291D01*
X162297159Y-115124536D01*
X162443238Y-115185044D01*
X162600000Y-115205682D01*
X162608188Y-115204604D01*
X162748574Y-115186122D01*
X162756762Y-115185044D01*
X162902841Y-115124536D01*
X163010025Y-115042291D01*
X163021736Y-115033305D01*
X163028282Y-115028282D01*
X163088890Y-114949296D01*
X163146228Y-114907429D01*
X163188853Y-114900000D01*
X169900000Y-114900000D01*
X169900000Y-114793804D01*
X171692876Y-114793804D01*
X171694040Y-114802706D01*
X171694040Y-114802709D01*
X171710357Y-114927487D01*
X171711521Y-114936386D01*
X171769434Y-115068004D01*
X171775211Y-115074877D01*
X171775212Y-115074878D01*
X171783895Y-115085208D01*
X171861960Y-115178077D01*
X171981661Y-115257757D01*
X172118914Y-115300638D01*
X172262686Y-115303273D01*
X172305507Y-115291599D01*
X172392756Y-115267812D01*
X172392759Y-115267811D01*
X172401418Y-115265450D01*
X172409068Y-115260753D01*
X172409070Y-115260752D01*
X172487693Y-115212477D01*
X172523959Y-115190210D01*
X172580544Y-115127696D01*
X172614434Y-115090254D01*
X172620456Y-115083601D01*
X172683154Y-114954194D01*
X172685334Y-114941238D01*
X172706205Y-114817184D01*
X172706205Y-114817179D01*
X172707011Y-114812391D01*
X172707162Y-114800000D01*
X172706275Y-114793804D01*
X173592876Y-114793804D01*
X173594040Y-114802706D01*
X173594040Y-114802709D01*
X173610357Y-114927487D01*
X173611521Y-114936386D01*
X173669434Y-115068004D01*
X173675211Y-115074877D01*
X173675212Y-115074878D01*
X173683895Y-115085208D01*
X173761960Y-115178077D01*
X173881661Y-115257757D01*
X174018914Y-115300638D01*
X174162686Y-115303273D01*
X174205507Y-115291599D01*
X174292756Y-115267812D01*
X174292759Y-115267811D01*
X174301418Y-115265450D01*
X174309068Y-115260753D01*
X174309070Y-115260752D01*
X174387693Y-115212477D01*
X174423959Y-115190210D01*
X174480544Y-115127696D01*
X174514434Y-115090254D01*
X174520456Y-115083601D01*
X174583154Y-114954194D01*
X174585334Y-114941238D01*
X174606205Y-114817184D01*
X174606205Y-114817179D01*
X174607011Y-114812391D01*
X174607162Y-114800000D01*
X174591578Y-114691178D01*
X174588050Y-114666543D01*
X174588049Y-114666540D01*
X174586777Y-114657657D01*
X174527260Y-114526756D01*
X174433396Y-114417821D01*
X174312730Y-114339610D01*
X174174963Y-114298409D01*
X174165987Y-114298354D01*
X174165986Y-114298354D01*
X174106021Y-114297988D01*
X174031170Y-114297530D01*
X173892910Y-114337045D01*
X173771298Y-114413777D01*
X173765355Y-114420506D01*
X173684929Y-114511571D01*
X173676110Y-114521556D01*
X173672296Y-114529679D01*
X173672295Y-114529681D01*
X173660110Y-114555635D01*
X173614999Y-114651720D01*
X173613618Y-114660589D01*
X173597280Y-114765521D01*
X173592876Y-114793804D01*
X172706275Y-114793804D01*
X172691578Y-114691178D01*
X172688050Y-114666543D01*
X172688049Y-114666540D01*
X172686777Y-114657657D01*
X172627260Y-114526756D01*
X172533396Y-114417821D01*
X172412730Y-114339610D01*
X172274963Y-114298409D01*
X172265987Y-114298354D01*
X172265986Y-114298354D01*
X172206021Y-114297988D01*
X172131170Y-114297530D01*
X171992910Y-114337045D01*
X171871298Y-114413777D01*
X171865355Y-114420506D01*
X171784929Y-114511571D01*
X171776110Y-114521556D01*
X171772296Y-114529679D01*
X171772295Y-114529681D01*
X171760110Y-114555635D01*
X171714999Y-114651720D01*
X171713618Y-114660589D01*
X171697280Y-114765521D01*
X171692876Y-114793804D01*
X169900000Y-114793804D01*
X169900000Y-108893804D01*
X171692876Y-108893804D01*
X171694040Y-108902706D01*
X171694040Y-108902709D01*
X171703481Y-108974906D01*
X171711521Y-109036386D01*
X171769434Y-109168004D01*
X171775211Y-109174877D01*
X171775212Y-109174878D01*
X171855269Y-109270117D01*
X171861960Y-109278077D01*
X171981661Y-109357757D01*
X172118914Y-109400638D01*
X172262686Y-109403273D01*
X172305507Y-109391599D01*
X172392756Y-109367812D01*
X172392759Y-109367811D01*
X172401418Y-109365450D01*
X172409068Y-109360753D01*
X172409070Y-109360752D01*
X172471726Y-109322281D01*
X172523959Y-109290210D01*
X172572958Y-109236077D01*
X172614434Y-109190254D01*
X172620456Y-109183601D01*
X172683154Y-109054194D01*
X172695116Y-108983094D01*
X172706205Y-108917184D01*
X172706205Y-108917179D01*
X172707011Y-108912391D01*
X172707162Y-108900000D01*
X172706275Y-108893804D01*
X173592876Y-108893804D01*
X173594040Y-108902706D01*
X173594040Y-108902709D01*
X173603481Y-108974906D01*
X173611521Y-109036386D01*
X173669434Y-109168004D01*
X173675211Y-109174877D01*
X173675212Y-109174878D01*
X173755269Y-109270117D01*
X173761960Y-109278077D01*
X173881661Y-109357757D01*
X174018914Y-109400638D01*
X174162686Y-109403273D01*
X174205507Y-109391599D01*
X174292756Y-109367812D01*
X174292759Y-109367811D01*
X174301418Y-109365450D01*
X174309068Y-109360753D01*
X174309070Y-109360752D01*
X174371726Y-109322281D01*
X174423959Y-109290210D01*
X174472958Y-109236077D01*
X174514434Y-109190254D01*
X174520456Y-109183601D01*
X174583154Y-109054194D01*
X174595116Y-108983094D01*
X174606205Y-108917184D01*
X174606205Y-108917179D01*
X174607011Y-108912391D01*
X174607162Y-108900000D01*
X174596612Y-108826332D01*
X174588050Y-108766543D01*
X174588049Y-108766540D01*
X174586777Y-108757657D01*
X174527260Y-108626756D01*
X174498980Y-108593935D01*
X174439254Y-108524619D01*
X174439252Y-108524617D01*
X174433396Y-108517821D01*
X174312730Y-108439610D01*
X174174963Y-108398409D01*
X174165987Y-108398354D01*
X174165986Y-108398354D01*
X174106021Y-108397988D01*
X174031170Y-108397530D01*
X173892910Y-108437045D01*
X173771298Y-108513777D01*
X173765355Y-108520506D01*
X173692859Y-108602592D01*
X173676110Y-108621556D01*
X173672296Y-108629679D01*
X173672295Y-108629681D01*
X173660551Y-108654695D01*
X173614999Y-108751720D01*
X173613618Y-108760589D01*
X173603382Y-108826332D01*
X173592876Y-108893804D01*
X172706275Y-108893804D01*
X172696612Y-108826332D01*
X172688050Y-108766543D01*
X172688049Y-108766540D01*
X172686777Y-108757657D01*
X172627260Y-108626756D01*
X172598980Y-108593935D01*
X172539254Y-108524619D01*
X172539252Y-108524617D01*
X172533396Y-108517821D01*
X172412730Y-108439610D01*
X172274963Y-108398409D01*
X172265987Y-108398354D01*
X172265986Y-108398354D01*
X172206021Y-108397988D01*
X172131170Y-108397530D01*
X171992910Y-108437045D01*
X171871298Y-108513777D01*
X171865355Y-108520506D01*
X171792859Y-108602592D01*
X171776110Y-108621556D01*
X171772296Y-108629679D01*
X171772295Y-108629681D01*
X171760551Y-108654695D01*
X171714999Y-108751720D01*
X171713618Y-108760589D01*
X171703382Y-108826332D01*
X171692876Y-108893804D01*
X169900000Y-108893804D01*
X169900000Y-107500000D01*
X169892206Y-107500000D01*
X169875703Y-107485700D01*
X169849801Y-107471556D01*
X169815775Y-107409244D01*
X169820840Y-107338428D01*
X169825504Y-107327522D01*
X169828395Y-107321556D01*
X169873587Y-107228280D01*
X169875364Y-107217722D01*
X169894189Y-107105822D01*
X169894996Y-107101025D01*
X169895132Y-107089905D01*
X169876838Y-106962164D01*
X169870723Y-106948714D01*
X169845757Y-106893804D01*
X171692876Y-106893804D01*
X171694040Y-106902706D01*
X171694040Y-106902709D01*
X171707707Y-107007220D01*
X171711521Y-107036386D01*
X171749185Y-107121984D01*
X171759089Y-107144492D01*
X171769434Y-107168004D01*
X171775211Y-107174877D01*
X171775212Y-107174878D01*
X171811345Y-107217863D01*
X171861960Y-107278077D01*
X171880187Y-107290210D01*
X171952624Y-107338428D01*
X171981661Y-107357757D01*
X172118914Y-107400638D01*
X172262686Y-107403273D01*
X172305507Y-107391599D01*
X172392756Y-107367812D01*
X172392759Y-107367811D01*
X172401418Y-107365450D01*
X172409068Y-107360753D01*
X172409070Y-107360752D01*
X172476970Y-107319061D01*
X172523959Y-107290210D01*
X172545341Y-107266588D01*
X172614434Y-107190254D01*
X172620456Y-107183601D01*
X172662158Y-107097530D01*
X172679241Y-107062271D01*
X172679242Y-107062269D01*
X172683154Y-107054194D01*
X172684768Y-107044601D01*
X172706205Y-106917184D01*
X172706205Y-106917179D01*
X172707011Y-106912391D01*
X172707162Y-106900000D01*
X172706275Y-106893804D01*
X173592876Y-106893804D01*
X173594040Y-106902706D01*
X173594040Y-106902709D01*
X173607707Y-107007220D01*
X173611521Y-107036386D01*
X173649185Y-107121984D01*
X173659089Y-107144492D01*
X173669434Y-107168004D01*
X173675211Y-107174877D01*
X173675212Y-107174878D01*
X173711345Y-107217863D01*
X173761960Y-107278077D01*
X173780187Y-107290210D01*
X173852624Y-107338428D01*
X173881661Y-107357757D01*
X174018914Y-107400638D01*
X174162686Y-107403273D01*
X174246513Y-107380419D01*
X174317496Y-107381799D01*
X174376465Y-107421336D01*
X174404697Y-107486477D01*
X174404155Y-107521365D01*
X174392876Y-107593804D01*
X174394040Y-107602706D01*
X174394040Y-107602709D01*
X174395933Y-107617184D01*
X174411521Y-107736386D01*
X174469434Y-107868004D01*
X174475211Y-107874877D01*
X174475212Y-107874878D01*
X174488137Y-107890254D01*
X174561960Y-107978077D01*
X174681661Y-108057757D01*
X174818914Y-108100638D01*
X174962686Y-108103273D01*
X175005507Y-108091599D01*
X175092756Y-108067812D01*
X175092759Y-108067811D01*
X175101418Y-108065450D01*
X175109068Y-108060753D01*
X175109070Y-108060752D01*
X175202115Y-108003622D01*
X175223959Y-107990210D01*
X175320456Y-107883601D01*
X175383154Y-107754194D01*
X175407011Y-107612391D01*
X175407162Y-107600000D01*
X175401600Y-107561160D01*
X175388050Y-107466543D01*
X175388049Y-107466540D01*
X175386777Y-107457657D01*
X175375903Y-107433741D01*
X175365917Y-107363451D01*
X175395517Y-107298919D01*
X175455307Y-107260635D01*
X175526303Y-107260753D01*
X175560724Y-107279933D01*
X175561960Y-107278077D01*
X175652624Y-107338428D01*
X175681661Y-107357757D01*
X175818914Y-107400638D01*
X175962686Y-107403273D01*
X176005507Y-107391599D01*
X176092756Y-107367812D01*
X176092759Y-107367811D01*
X176101418Y-107365450D01*
X176109068Y-107360753D01*
X176109070Y-107360752D01*
X176176970Y-107319061D01*
X176223959Y-107290210D01*
X176245341Y-107266588D01*
X176314434Y-107190254D01*
X176320456Y-107183601D01*
X176362158Y-107097530D01*
X176379241Y-107062271D01*
X176379242Y-107062269D01*
X176383154Y-107054194D01*
X176384768Y-107044601D01*
X176406205Y-106917184D01*
X176406205Y-106917179D01*
X176407011Y-106912391D01*
X176407162Y-106900000D01*
X176399242Y-106844694D01*
X176388050Y-106766543D01*
X176388049Y-106766540D01*
X176386777Y-106757657D01*
X176327260Y-106626756D01*
X176267240Y-106557099D01*
X176239254Y-106524619D01*
X176239252Y-106524617D01*
X176233396Y-106517821D01*
X176112730Y-106439610D01*
X175974963Y-106398409D01*
X175965987Y-106398354D01*
X175965986Y-106398354D01*
X175906021Y-106397988D01*
X175831170Y-106397530D01*
X175692910Y-106437045D01*
X175571298Y-106513777D01*
X175570763Y-106514383D01*
X175509678Y-106541628D01*
X175439497Y-106530901D01*
X175386255Y-106483934D01*
X175366858Y-106415639D01*
X175377293Y-106371074D01*
X175376511Y-106370824D01*
X175379241Y-106362271D01*
X175383154Y-106354194D01*
X175407011Y-106212391D01*
X175407162Y-106200000D01*
X175386777Y-106057657D01*
X175327260Y-105926756D01*
X175233396Y-105817821D01*
X175112730Y-105739610D01*
X174974963Y-105698409D01*
X174965987Y-105698354D01*
X174965986Y-105698354D01*
X174906021Y-105697988D01*
X174831170Y-105697530D01*
X174692910Y-105737045D01*
X174634443Y-105773935D01*
X174583838Y-105805865D01*
X174571298Y-105813777D01*
X174565355Y-105820506D01*
X174561723Y-105824619D01*
X174476110Y-105921556D01*
X174472296Y-105929679D01*
X174472295Y-105929681D01*
X174418814Y-106043594D01*
X174414999Y-106051720D01*
X174413618Y-106060589D01*
X174395261Y-106178489D01*
X174392876Y-106193804D01*
X174394040Y-106202706D01*
X174394040Y-106202709D01*
X174404384Y-106281805D01*
X174393384Y-106351944D01*
X174346210Y-106405002D01*
X174277839Y-106424133D01*
X174243347Y-106418860D01*
X174174963Y-106398409D01*
X174165987Y-106398354D01*
X174165986Y-106398354D01*
X174106021Y-106397988D01*
X174031170Y-106397530D01*
X173892910Y-106437045D01*
X173771298Y-106513777D01*
X173765355Y-106520506D01*
X173722804Y-106568686D01*
X173676110Y-106621556D01*
X173672296Y-106629679D01*
X173672295Y-106629681D01*
X173619537Y-106742054D01*
X173614999Y-106751720D01*
X173613618Y-106760589D01*
X173596293Y-106871861D01*
X173592876Y-106893804D01*
X172706275Y-106893804D01*
X172699242Y-106844694D01*
X172688050Y-106766543D01*
X172688049Y-106766540D01*
X172686777Y-106757657D01*
X172627260Y-106626756D01*
X172567240Y-106557099D01*
X172539254Y-106524619D01*
X172539252Y-106524617D01*
X172533396Y-106517821D01*
X172412730Y-106439610D01*
X172274963Y-106398409D01*
X172265987Y-106398354D01*
X172265986Y-106398354D01*
X172206021Y-106397988D01*
X172131170Y-106397530D01*
X171992910Y-106437045D01*
X171871298Y-106513777D01*
X171865355Y-106520506D01*
X171822804Y-106568686D01*
X171776110Y-106621556D01*
X171772296Y-106629679D01*
X171772295Y-106629681D01*
X171719537Y-106742054D01*
X171714999Y-106751720D01*
X171713618Y-106760589D01*
X171696293Y-106871861D01*
X171692876Y-106893804D01*
X169845757Y-106893804D01*
X169827144Y-106852867D01*
X169827142Y-106852864D01*
X169823427Y-106844693D01*
X169750959Y-106760589D01*
X169745050Y-106753731D01*
X169745048Y-106753729D01*
X169739192Y-106746933D01*
X169630905Y-106676746D01*
X169622310Y-106674176D01*
X169622309Y-106674175D01*
X169515873Y-106642343D01*
X169515871Y-106642343D01*
X169507272Y-106639771D01*
X169498297Y-106639716D01*
X169498296Y-106639716D01*
X169443640Y-106639382D01*
X169378230Y-106638983D01*
X169316192Y-106656713D01*
X169262785Y-106671977D01*
X169262783Y-106671978D01*
X169254154Y-106674444D01*
X169246564Y-106679233D01*
X169208725Y-106703108D01*
X169145018Y-106743304D01*
X169139075Y-106750033D01*
X169139074Y-106750034D01*
X169124494Y-106766543D01*
X169059595Y-106840027D01*
X169055781Y-106848150D01*
X169055780Y-106848152D01*
X169053566Y-106852868D01*
X169004753Y-106956837D01*
X168997931Y-107000654D01*
X168986281Y-107075472D01*
X168986281Y-107075473D01*
X168984900Y-107084345D01*
X168986064Y-107093247D01*
X168986064Y-107093250D01*
X169000467Y-107203394D01*
X169000468Y-107203398D01*
X169001632Y-107212299D01*
X169005249Y-107220519D01*
X169050453Y-107323254D01*
X169059580Y-107393662D01*
X169029194Y-107457827D01*
X168968940Y-107495377D01*
X168935124Y-107500000D01*
X164642997Y-107500000D01*
X164574876Y-107479998D01*
X164528383Y-107426342D01*
X164518279Y-107356068D01*
X164529605Y-107319061D01*
X164543583Y-107290210D01*
X164573588Y-107228281D01*
X164575365Y-107217722D01*
X164594190Y-107105823D01*
X164594190Y-107105822D01*
X164594997Y-107101026D01*
X164595133Y-107089906D01*
X164584433Y-107015188D01*
X164578112Y-106971051D01*
X164578111Y-106971048D01*
X164576839Y-106962165D01*
X164573125Y-106953996D01*
X164527145Y-106852868D01*
X164527143Y-106852865D01*
X164523428Y-106844694D01*
X164497625Y-106814748D01*
X164445051Y-106753732D01*
X164445049Y-106753730D01*
X164439193Y-106746934D01*
X164330906Y-106676747D01*
X164322311Y-106674177D01*
X164322310Y-106674176D01*
X164215874Y-106642344D01*
X164215872Y-106642344D01*
X164207273Y-106639772D01*
X164198298Y-106639717D01*
X164198297Y-106639717D01*
X164143641Y-106639383D01*
X164078231Y-106638984D01*
X164066475Y-106642344D01*
X163962786Y-106671978D01*
X163962784Y-106671979D01*
X163954155Y-106674445D01*
X163946567Y-106679233D01*
X163946565Y-106679234D01*
X163857044Y-106735718D01*
X163845019Y-106743305D01*
X163839076Y-106750034D01*
X163839075Y-106750035D01*
X163829754Y-106760589D01*
X163759596Y-106840028D01*
X163755782Y-106848151D01*
X163755781Y-106848153D01*
X163744650Y-106871861D01*
X163704754Y-106956838D01*
X163697932Y-107000654D01*
X163686282Y-107075473D01*
X163686282Y-107075477D01*
X163684901Y-107084346D01*
X163686065Y-107093248D01*
X163686065Y-107093251D01*
X163700468Y-107203395D01*
X163700469Y-107203399D01*
X163701633Y-107212300D01*
X163732766Y-107283054D01*
X163750454Y-107323254D01*
X163759582Y-107393661D01*
X163729195Y-107457826D01*
X163668942Y-107495377D01*
X163635125Y-107500000D01*
X160700000Y-107500000D01*
X160700000Y-107505319D01*
X160675993Y-107512368D01*
X160661501Y-107521682D01*
X160590504Y-107521684D01*
X160530777Y-107483301D01*
X160501283Y-107418721D01*
X160500000Y-107400787D01*
X160500000Y-106059440D01*
X164329901Y-106059440D01*
X164331065Y-106068342D01*
X164331065Y-106068345D01*
X164345468Y-106178489D01*
X164345469Y-106178493D01*
X164346633Y-106187394D01*
X164398605Y-106305510D01*
X164481639Y-106404291D01*
X164589060Y-106475796D01*
X164712233Y-106514278D01*
X164721203Y-106514442D01*
X164721207Y-106514443D01*
X164779942Y-106515519D01*
X164841255Y-106516643D01*
X164903505Y-106499672D01*
X164957092Y-106485062D01*
X164957093Y-106485062D01*
X164965755Y-106482700D01*
X164973405Y-106478003D01*
X164973407Y-106478002D01*
X165068072Y-106419878D01*
X165068075Y-106419875D01*
X165075724Y-106415179D01*
X165084936Y-106405002D01*
X165156300Y-106326161D01*
X165156303Y-106326157D01*
X165162322Y-106319507D01*
X165218588Y-106203375D01*
X165228380Y-106145175D01*
X165239190Y-106080917D01*
X165239997Y-106076120D01*
X165240133Y-106065000D01*
X165221839Y-105937259D01*
X165215724Y-105923809D01*
X165172145Y-105827962D01*
X165172143Y-105827959D01*
X165168428Y-105819788D01*
X165103549Y-105744492D01*
X165090051Y-105728826D01*
X165090049Y-105728824D01*
X165084193Y-105722028D01*
X164975906Y-105651841D01*
X164967311Y-105649271D01*
X164967310Y-105649270D01*
X164860874Y-105617438D01*
X164860872Y-105617438D01*
X164852273Y-105614866D01*
X164843298Y-105614811D01*
X164843297Y-105614811D01*
X164788641Y-105614477D01*
X164723231Y-105614078D01*
X164667521Y-105630000D01*
X164607786Y-105647072D01*
X164607784Y-105647073D01*
X164599155Y-105649539D01*
X164589568Y-105655588D01*
X164549946Y-105680588D01*
X164490019Y-105718399D01*
X164484076Y-105725128D01*
X164484075Y-105725129D01*
X164434855Y-105780860D01*
X164404596Y-105815122D01*
X164400782Y-105823245D01*
X164400781Y-105823247D01*
X164374794Y-105878598D01*
X164349754Y-105931932D01*
X164345910Y-105956622D01*
X164331282Y-106050567D01*
X164331282Y-106050571D01*
X164329901Y-106059440D01*
X160500000Y-106059440D01*
X160500000Y-105800000D01*
X159778173Y-105800000D01*
X159710052Y-105779998D01*
X159663559Y-105726342D01*
X159654349Y-105656379D01*
X159653756Y-105656326D01*
X159653994Y-105653678D01*
X159653918Y-105653104D01*
X159654190Y-105651485D01*
X159654190Y-105651480D01*
X159654998Y-105646680D01*
X159655134Y-105635560D01*
X159636840Y-105507819D01*
X159630725Y-105494369D01*
X159587146Y-105398522D01*
X159587144Y-105398519D01*
X159583429Y-105390348D01*
X159528386Y-105326467D01*
X159505052Y-105299386D01*
X159505050Y-105299384D01*
X159499194Y-105292588D01*
X159390907Y-105222401D01*
X159382312Y-105219831D01*
X159382311Y-105219830D01*
X159275875Y-105187998D01*
X159275873Y-105187998D01*
X159267274Y-105185426D01*
X159258299Y-105185371D01*
X159258298Y-105185371D01*
X159203642Y-105185037D01*
X159138232Y-105184638D01*
X159102298Y-105194908D01*
X159022787Y-105217632D01*
X159022785Y-105217633D01*
X159014156Y-105220099D01*
X159006566Y-105224888D01*
X158943142Y-105264906D01*
X158905020Y-105288959D01*
X158899077Y-105295688D01*
X158899076Y-105295689D01*
X158889169Y-105306907D01*
X158819597Y-105385682D01*
X158815783Y-105393805D01*
X158815782Y-105393807D01*
X158797362Y-105433041D01*
X158764755Y-105502492D01*
X158763375Y-105511358D01*
X158746283Y-105621127D01*
X158746283Y-105621131D01*
X158744902Y-105630000D01*
X158748520Y-105657664D01*
X158737518Y-105727803D01*
X158690343Y-105780860D01*
X158623583Y-105800000D01*
X157100000Y-105800000D01*
X157100000Y-110600000D01*
X157105319Y-110600000D01*
X157109814Y-110615308D01*
X157109814Y-110625994D01*
X157142813Y-110604967D01*
X157177842Y-110600000D01*
X158173844Y-110600000D01*
X158241965Y-110620002D01*
X158288458Y-110673658D01*
X158298780Y-110709662D01*
X158311633Y-110807954D01*
X158363605Y-110926070D01*
X158369382Y-110932943D01*
X158369383Y-110932944D01*
X158404557Y-110974788D01*
X158446639Y-111024851D01*
X158554060Y-111096356D01*
X158677233Y-111134838D01*
X158686203Y-111135002D01*
X158686207Y-111135003D01*
X158744942Y-111136079D01*
X158806255Y-111137203D01*
X158868505Y-111120232D01*
X158922092Y-111105622D01*
X158922093Y-111105622D01*
X158930755Y-111103260D01*
X158938405Y-111098563D01*
X158938407Y-111098562D01*
X159033072Y-111040438D01*
X159033075Y-111040435D01*
X159040724Y-111035739D01*
X159046750Y-111029082D01*
X159121300Y-110946721D01*
X159121303Y-110946717D01*
X159127322Y-110940067D01*
X159183588Y-110823935D01*
X159186046Y-110809328D01*
X159203581Y-110705096D01*
X159234608Y-110641238D01*
X159295233Y-110604291D01*
X159327835Y-110600000D01*
X160500000Y-110600000D01*
X160500000Y-110594681D01*
X160524007Y-110587632D01*
X160538499Y-110578318D01*
X160609496Y-110578316D01*
X160669223Y-110616699D01*
X160698717Y-110681279D01*
X160700000Y-110699213D01*
X160700000Y-114413416D01*
X160679998Y-114481537D01*
X160626342Y-114528030D01*
X160573231Y-114539414D01*
X160518231Y-114539078D01*
X160462255Y-114555076D01*
X160402786Y-114572072D01*
X160402784Y-114572073D01*
X160394155Y-114574539D01*
X160285019Y-114643399D01*
X160279076Y-114650128D01*
X160279075Y-114650129D01*
X160232165Y-114703245D01*
X160199596Y-114740122D01*
X160144754Y-114856932D01*
X160138745Y-114895525D01*
X160126282Y-114975567D01*
X160126282Y-114975571D01*
X160124901Y-114984440D01*
X160126065Y-114993342D01*
X160126065Y-114993345D01*
X160140468Y-115103489D01*
X160140469Y-115103493D01*
X160141633Y-115112394D01*
X160145250Y-115120614D01*
X160190412Y-115223254D01*
X160199539Y-115293662D01*
X160169152Y-115357827D01*
X160108899Y-115395377D01*
X160075083Y-115400000D01*
X159394258Y-115400000D01*
X159344461Y-115389051D01*
X159340906Y-115386747D01*
X159332311Y-115384177D01*
X159332310Y-115384176D01*
X159225874Y-115352344D01*
X159225872Y-115352344D01*
X159217273Y-115349772D01*
X159208298Y-115349717D01*
X159208297Y-115349717D01*
X159153641Y-115349383D01*
X159088231Y-115348984D01*
X158964155Y-115384445D01*
X158956837Y-115389062D01*
X158905602Y-115400000D01*
X157000000Y-115400000D01*
X157000000Y-124673500D01*
X156979998Y-124741621D01*
X156926342Y-124788114D01*
X156874000Y-124799500D01*
X114037080Y-124799500D01*
X114019758Y-124797534D01*
X114014189Y-124797524D01*
X114000359Y-124794344D01*
X113986520Y-124797476D01*
X113972329Y-124797451D01*
X113972330Y-124797058D01*
X113964373Y-124797750D01*
X113633760Y-124781507D01*
X113621466Y-124780296D01*
X113264878Y-124727402D01*
X113252756Y-124724992D01*
X113047190Y-124673500D01*
X112903060Y-124637397D01*
X112891228Y-124633807D01*
X112551831Y-124512368D01*
X112540407Y-124507637D01*
X112313556Y-124400345D01*
X112214518Y-124353504D01*
X112203617Y-124347677D01*
X111894417Y-124162349D01*
X111884136Y-124155479D01*
X111780938Y-124078942D01*
X111594589Y-123940736D01*
X111585052Y-123932911D01*
X111317929Y-123690804D01*
X111309191Y-123682066D01*
X111067089Y-123414948D01*
X111059264Y-123405411D01*
X110844521Y-123115864D01*
X110837651Y-123105583D01*
X110652323Y-122796383D01*
X110646494Y-122785478D01*
X110492363Y-122459593D01*
X110487632Y-122448169D01*
X110366193Y-122108772D01*
X110362603Y-122096940D01*
X110275009Y-121747247D01*
X110272597Y-121735119D01*
X110264934Y-121683458D01*
X110219704Y-121378534D01*
X110218492Y-121366234D01*
X110211528Y-121224464D01*
X110202292Y-121036473D01*
X110204229Y-121014876D01*
X110203227Y-121014761D01*
X110204042Y-121007677D01*
X110205655Y-121000718D01*
X110205656Y-121000000D01*
X110203654Y-120991225D01*
X110200500Y-120963210D01*
X110200500Y-120937002D01*
X111995380Y-120937002D01*
X112006502Y-121220084D01*
X112057400Y-121498775D01*
X112147058Y-121767514D01*
X112273687Y-122020939D01*
X112434761Y-122253993D01*
X112627065Y-122462027D01*
X112630519Y-122464839D01*
X112843307Y-122638075D01*
X112843311Y-122638078D01*
X112846764Y-122640889D01*
X113089472Y-122787012D01*
X113093567Y-122788746D01*
X113093569Y-122788747D01*
X113346247Y-122895742D01*
X113346254Y-122895744D01*
X113350348Y-122897478D01*
X113450492Y-122924031D01*
X113619889Y-122968946D01*
X113619893Y-122968947D01*
X113624186Y-122970085D01*
X113628595Y-122970607D01*
X113628601Y-122970608D01*
X113785954Y-122989232D01*
X113905523Y-123003384D01*
X114188745Y-122996709D01*
X114193143Y-122995977D01*
X114463810Y-122950926D01*
X114463814Y-122950925D01*
X114468200Y-122950195D01*
X114472441Y-122948854D01*
X114472444Y-122948853D01*
X114734068Y-122866112D01*
X114734070Y-122866111D01*
X114738314Y-122864769D01*
X114742325Y-122862843D01*
X114742330Y-122862841D01*
X114989678Y-122744066D01*
X114989679Y-122744065D01*
X114993697Y-122742136D01*
X115141781Y-122643190D01*
X115225545Y-122587221D01*
X115225549Y-122587218D01*
X115229253Y-122584743D01*
X115440281Y-122395730D01*
X115622573Y-122178868D01*
X115772489Y-121938485D01*
X115887040Y-121679376D01*
X115963939Y-121406712D01*
X115967723Y-121378539D01*
X116001225Y-121129115D01*
X116001226Y-121129107D01*
X116001652Y-121125933D01*
X116004490Y-121035627D01*
X116005509Y-121003222D01*
X116005509Y-121003217D01*
X116005610Y-121000000D01*
X115990873Y-120791863D01*
X147494318Y-120791863D01*
X147514956Y-120948625D01*
X147575464Y-121094704D01*
X147671718Y-121220145D01*
X147797159Y-121316399D01*
X147943238Y-121376907D01*
X148100000Y-121397545D01*
X148108188Y-121396467D01*
X148248574Y-121377985D01*
X148256762Y-121376907D01*
X148402841Y-121316399D01*
X148528282Y-121220145D01*
X148624536Y-121094704D01*
X148685044Y-120948625D01*
X148705682Y-120791863D01*
X148685044Y-120635101D01*
X148624536Y-120489022D01*
X148528282Y-120363581D01*
X148402841Y-120267327D01*
X148256762Y-120206819D01*
X148100000Y-120186181D01*
X147943238Y-120206819D01*
X147797159Y-120267327D01*
X147671718Y-120363581D01*
X147575464Y-120489022D01*
X147514956Y-120635101D01*
X147494318Y-120791863D01*
X115990873Y-120791863D01*
X115985601Y-120717407D01*
X115983876Y-120709392D01*
X115926911Y-120444800D01*
X115926911Y-120444798D01*
X115925975Y-120440453D01*
X115827920Y-120174663D01*
X115776906Y-120080118D01*
X115695506Y-119929256D01*
X115693393Y-119925340D01*
X115525078Y-119697460D01*
X115478554Y-119650199D01*
X115348134Y-119517715D01*
X115342086Y-119511571D01*
X152994994Y-119511571D01*
X152995510Y-119517715D01*
X153006929Y-119653695D01*
X153010592Y-119697320D01*
X153012291Y-119703245D01*
X153059873Y-119869184D01*
X153061971Y-119876501D01*
X153064790Y-119881986D01*
X153136480Y-120021478D01*
X153147176Y-120042291D01*
X153262959Y-120188374D01*
X153404912Y-120309185D01*
X153567627Y-120400123D01*
X153744907Y-120457725D01*
X153929998Y-120479796D01*
X153936133Y-120479324D01*
X153936135Y-120479324D01*
X154109710Y-120465968D01*
X154109715Y-120465967D01*
X154115851Y-120465495D01*
X154121781Y-120463839D01*
X154121783Y-120463839D01*
X154289459Y-120417023D01*
X154289458Y-120417023D01*
X154295387Y-120415368D01*
X154461768Y-120331323D01*
X154486255Y-120312192D01*
X154603794Y-120220360D01*
X154603795Y-120220359D01*
X154608655Y-120216562D01*
X154730454Y-120075456D01*
X154822526Y-119913380D01*
X154838638Y-119864947D01*
X154879118Y-119806624D01*
X154944706Y-119779444D01*
X155014577Y-119792038D01*
X155054646Y-119823645D01*
X155092926Y-119869184D01*
X155126639Y-119909291D01*
X155234060Y-119980796D01*
X155357233Y-120019278D01*
X155366203Y-120019442D01*
X155366207Y-120019443D01*
X155424942Y-120020519D01*
X155486255Y-120021643D01*
X155548505Y-120004672D01*
X155602092Y-119990062D01*
X155602093Y-119990062D01*
X155610755Y-119987700D01*
X155618405Y-119983003D01*
X155618407Y-119983002D01*
X155713072Y-119924878D01*
X155713075Y-119924875D01*
X155720724Y-119920179D01*
X155726750Y-119913522D01*
X155801300Y-119831161D01*
X155801303Y-119831157D01*
X155807322Y-119824507D01*
X155863588Y-119708375D01*
X155865425Y-119697460D01*
X155884190Y-119585917D01*
X155884997Y-119581120D01*
X155885133Y-119570000D01*
X155868614Y-119454651D01*
X155868112Y-119451145D01*
X155868111Y-119451142D01*
X155866839Y-119442259D01*
X155829780Y-119360752D01*
X155817145Y-119332962D01*
X155817143Y-119332959D01*
X155813428Y-119324788D01*
X155777468Y-119283054D01*
X155735051Y-119233826D01*
X155735049Y-119233824D01*
X155729193Y-119227028D01*
X155620906Y-119156841D01*
X155612311Y-119154271D01*
X155612310Y-119154270D01*
X155505874Y-119122438D01*
X155505872Y-119122438D01*
X155497273Y-119119866D01*
X155488298Y-119119811D01*
X155488297Y-119119811D01*
X155433641Y-119119477D01*
X155368231Y-119119078D01*
X155356475Y-119122438D01*
X155252786Y-119152072D01*
X155252784Y-119152073D01*
X155244155Y-119154539D01*
X155236565Y-119159328D01*
X155195450Y-119185270D01*
X155135019Y-119223399D01*
X155076014Y-119290210D01*
X155073720Y-119292807D01*
X155013635Y-119330625D01*
X154942641Y-119329955D01*
X154883280Y-119291009D01*
X154858657Y-119245817D01*
X154834814Y-119166845D01*
X154833033Y-119160946D01*
X154781807Y-119064604D01*
X154748416Y-119001804D01*
X154748414Y-119001801D01*
X154745522Y-118996362D01*
X154741632Y-118991592D01*
X154741629Y-118991588D01*
X154631605Y-118856686D01*
X154631602Y-118856683D01*
X154627710Y-118851911D01*
X154622056Y-118847233D01*
X154524519Y-118766543D01*
X154484085Y-118733093D01*
X154320116Y-118644435D01*
X154224473Y-118614829D01*
X154147936Y-118591137D01*
X154147933Y-118591136D01*
X154142049Y-118589315D01*
X154135924Y-118588671D01*
X154135923Y-118588671D01*
X153962796Y-118570474D01*
X153962795Y-118570474D01*
X153956668Y-118569830D01*
X153878549Y-118576939D01*
X153777171Y-118586165D01*
X153777168Y-118586166D01*
X153771032Y-118586724D01*
X153765122Y-118588463D01*
X153765119Y-118588464D01*
X153625079Y-118629681D01*
X153592214Y-118639354D01*
X153427023Y-118725713D01*
X153422223Y-118729573D01*
X153422222Y-118729573D01*
X153397453Y-118749488D01*
X153281752Y-118842514D01*
X153161935Y-118985307D01*
X153158971Y-118990699D01*
X153158968Y-118990703D01*
X153088363Y-119119133D01*
X153072135Y-119148652D01*
X153070274Y-119154519D01*
X153070273Y-119154521D01*
X153026496Y-119292523D01*
X153015772Y-119326330D01*
X152994994Y-119511571D01*
X115342086Y-119511571D01*
X115326334Y-119495570D01*
X115322794Y-119492869D01*
X115322788Y-119492863D01*
X115104667Y-119326398D01*
X115104663Y-119326395D01*
X115101126Y-119323696D01*
X115007389Y-119271201D01*
X114857837Y-119187448D01*
X114857832Y-119187445D01*
X114853947Y-119185270D01*
X114849789Y-119183662D01*
X114849784Y-119183659D01*
X114593885Y-119084659D01*
X114593879Y-119084657D01*
X114589730Y-119083052D01*
X114585398Y-119082048D01*
X114585395Y-119082047D01*
X114465229Y-119054194D01*
X114313747Y-119019082D01*
X114031503Y-118994637D01*
X114027068Y-118994881D01*
X114027064Y-118994881D01*
X113753073Y-119009960D01*
X113753066Y-119009961D01*
X113748630Y-119010205D01*
X113661748Y-119027487D01*
X113475146Y-119064604D01*
X113475141Y-119064605D01*
X113470774Y-119065474D01*
X113466571Y-119066950D01*
X113207684Y-119157864D01*
X113207681Y-119157865D01*
X113203476Y-119159342D01*
X113199523Y-119161395D01*
X113199517Y-119161398D01*
X113089384Y-119218608D01*
X112952072Y-119289936D01*
X112948457Y-119292519D01*
X112948451Y-119292523D01*
X112843095Y-119367812D01*
X112721576Y-119454651D01*
X112718349Y-119457729D01*
X112718347Y-119457731D01*
X112589002Y-119581120D01*
X112516588Y-119650199D01*
X112341199Y-119872680D01*
X112310880Y-119924878D01*
X112201141Y-120113807D01*
X112201138Y-120113813D01*
X112198907Y-120117654D01*
X112197237Y-120121777D01*
X112161512Y-120209979D01*
X112092552Y-120380232D01*
X112091481Y-120384545D01*
X112091479Y-120384550D01*
X112046806Y-120564391D01*
X112024255Y-120655177D01*
X112023801Y-120659605D01*
X112023801Y-120659607D01*
X111997172Y-120919509D01*
X111995380Y-120937002D01*
X110200500Y-120937002D01*
X110200500Y-117891863D01*
X147494318Y-117891863D01*
X147514956Y-118048625D01*
X147575464Y-118194704D01*
X147671718Y-118320145D01*
X147797159Y-118416399D01*
X147943238Y-118476907D01*
X148100000Y-118497545D01*
X148108188Y-118496467D01*
X148248574Y-118477985D01*
X148256762Y-118476907D01*
X148402841Y-118416399D01*
X148528282Y-118320145D01*
X148624536Y-118194704D01*
X148685044Y-118048625D01*
X148705682Y-117891863D01*
X148685044Y-117735101D01*
X148624536Y-117589022D01*
X148528282Y-117463581D01*
X148402841Y-117367327D01*
X148256762Y-117306819D01*
X148100000Y-117286181D01*
X147943238Y-117306819D01*
X147797159Y-117367327D01*
X147671718Y-117463581D01*
X147575464Y-117589022D01*
X147514956Y-117735101D01*
X147494318Y-117891863D01*
X110200500Y-117891863D01*
X110200500Y-117011571D01*
X152994994Y-117011571D01*
X152995510Y-117017715D01*
X153009999Y-117190254D01*
X153010592Y-117197320D01*
X153012291Y-117203245D01*
X153057364Y-117360434D01*
X153061971Y-117376501D01*
X153080924Y-117413380D01*
X153119957Y-117489328D01*
X153147176Y-117542291D01*
X153262959Y-117688374D01*
X153404912Y-117809185D01*
X153567627Y-117900123D01*
X153744907Y-117957725D01*
X153929998Y-117979796D01*
X153936133Y-117979324D01*
X153936135Y-117979324D01*
X154109710Y-117965968D01*
X154109715Y-117965967D01*
X154115851Y-117965495D01*
X154121781Y-117963839D01*
X154121783Y-117963839D01*
X154289459Y-117917023D01*
X154289458Y-117917023D01*
X154295387Y-117915368D01*
X154461768Y-117831323D01*
X154486255Y-117812192D01*
X154603794Y-117720360D01*
X154603795Y-117720359D01*
X154608655Y-117716562D01*
X154713424Y-117595185D01*
X154726430Y-117580118D01*
X154726431Y-117580117D01*
X154730454Y-117575456D01*
X154822526Y-117413380D01*
X154881364Y-117236507D01*
X154898610Y-117099997D01*
X154904285Y-117055076D01*
X154904286Y-117055069D01*
X154904727Y-117051574D01*
X154905099Y-117024906D01*
X154886909Y-116839393D01*
X154885128Y-116833494D01*
X154885127Y-116833489D01*
X154834814Y-116666845D01*
X154833033Y-116660946D01*
X154754782Y-116513777D01*
X154748416Y-116501804D01*
X154748414Y-116501801D01*
X154745522Y-116496362D01*
X154741632Y-116491592D01*
X154741629Y-116491588D01*
X154631605Y-116356686D01*
X154631602Y-116356683D01*
X154627710Y-116351911D01*
X154622056Y-116347233D01*
X154498894Y-116245344D01*
X154484085Y-116233093D01*
X154320116Y-116144435D01*
X154192268Y-116104860D01*
X154147936Y-116091137D01*
X154147933Y-116091136D01*
X154142049Y-116089315D01*
X154135924Y-116088671D01*
X154135923Y-116088671D01*
X153962796Y-116070474D01*
X153962795Y-116070474D01*
X153956668Y-116069830D01*
X153878549Y-116076939D01*
X153777171Y-116086165D01*
X153777168Y-116086166D01*
X153771032Y-116086724D01*
X153765122Y-116088463D01*
X153765119Y-116088464D01*
X153598129Y-116137613D01*
X153592214Y-116139354D01*
X153427023Y-116225713D01*
X153281752Y-116342514D01*
X153161935Y-116485307D01*
X153158971Y-116490699D01*
X153158968Y-116490703D01*
X153100003Y-116597961D01*
X153072135Y-116648652D01*
X153070274Y-116654519D01*
X153070273Y-116654521D01*
X153028375Y-116786601D01*
X153015772Y-116826330D01*
X152994994Y-117011571D01*
X110200500Y-117011571D01*
X110200500Y-112874906D01*
X119919318Y-112874906D01*
X119939956Y-113031668D01*
X120000464Y-113177747D01*
X120096718Y-113303188D01*
X120222159Y-113399442D01*
X120368238Y-113459950D01*
X120525000Y-113480588D01*
X120533188Y-113479510D01*
X120673574Y-113461028D01*
X120681762Y-113459950D01*
X120827841Y-113399442D01*
X120953282Y-113303188D01*
X121049536Y-113177747D01*
X121110044Y-113031668D01*
X121130682Y-112874906D01*
X121127391Y-112849906D01*
X124844318Y-112849906D01*
X124864956Y-113006668D01*
X124925464Y-113152747D01*
X125021718Y-113278188D01*
X125147159Y-113374442D01*
X125293238Y-113434950D01*
X125450000Y-113455588D01*
X125458188Y-113454510D01*
X125598574Y-113436028D01*
X125606762Y-113434950D01*
X125752841Y-113374442D01*
X125878282Y-113278188D01*
X125974536Y-113152747D01*
X126035044Y-113006668D01*
X126055682Y-112849906D01*
X126035044Y-112693144D01*
X125974536Y-112547065D01*
X125878282Y-112421624D01*
X125752841Y-112325370D01*
X125606762Y-112264862D01*
X125450000Y-112244224D01*
X125293238Y-112264862D01*
X125147159Y-112325370D01*
X125021718Y-112421624D01*
X124925464Y-112547065D01*
X124864956Y-112693144D01*
X124844318Y-112849906D01*
X121127391Y-112849906D01*
X121110044Y-112718144D01*
X121049536Y-112572065D01*
X120953282Y-112446624D01*
X120827841Y-112350370D01*
X120681762Y-112289862D01*
X120525000Y-112269224D01*
X120368238Y-112289862D01*
X120222159Y-112350370D01*
X120096718Y-112446624D01*
X120000464Y-112572065D01*
X119939956Y-112718144D01*
X119919318Y-112874906D01*
X110200500Y-112874906D01*
X110200500Y-109755586D01*
X127275744Y-109755586D01*
X127296382Y-109912348D01*
X127356890Y-110058427D01*
X127453144Y-110183868D01*
X127578585Y-110280122D01*
X127724664Y-110340630D01*
X127732852Y-110341708D01*
X127803045Y-110350949D01*
X127881426Y-110361268D01*
X127889614Y-110360190D01*
X128030000Y-110341708D01*
X128038188Y-110340630D01*
X128184267Y-110280122D01*
X128309708Y-110183868D01*
X128405962Y-110058427D01*
X128466470Y-109912348D01*
X128487108Y-109755586D01*
X128466470Y-109598824D01*
X128405962Y-109452745D01*
X128309708Y-109327304D01*
X128184267Y-109231050D01*
X128038188Y-109170542D01*
X127881426Y-109149904D01*
X127724664Y-109170542D01*
X127578585Y-109231050D01*
X127453144Y-109327304D01*
X127356890Y-109452745D01*
X127296382Y-109598824D01*
X127275744Y-109755586D01*
X110200500Y-109755586D01*
X110200500Y-108974906D01*
X119919318Y-108974906D01*
X119939956Y-109131668D01*
X120000464Y-109277747D01*
X120096718Y-109403188D01*
X120222159Y-109499442D01*
X120368238Y-109559950D01*
X120525000Y-109580588D01*
X120533188Y-109579510D01*
X120673574Y-109561028D01*
X120681762Y-109559950D01*
X120827841Y-109499442D01*
X120953282Y-109403188D01*
X121049536Y-109277747D01*
X121110044Y-109131668D01*
X121130682Y-108974906D01*
X121127391Y-108949906D01*
X124844318Y-108949906D01*
X124864956Y-109106668D01*
X124925464Y-109252747D01*
X125021718Y-109378188D01*
X125147159Y-109474442D01*
X125293238Y-109534950D01*
X125450000Y-109555588D01*
X125458188Y-109554510D01*
X125598574Y-109536028D01*
X125606762Y-109534950D01*
X125752841Y-109474442D01*
X125878282Y-109378188D01*
X125974536Y-109252747D01*
X126035044Y-109106668D01*
X126055682Y-108949906D01*
X126035044Y-108793144D01*
X125974536Y-108647065D01*
X125878282Y-108521624D01*
X125752841Y-108425370D01*
X125606762Y-108364862D01*
X125450000Y-108344224D01*
X125293238Y-108364862D01*
X125147159Y-108425370D01*
X125021718Y-108521624D01*
X124925464Y-108647065D01*
X124864956Y-108793144D01*
X124844318Y-108949906D01*
X121127391Y-108949906D01*
X121110044Y-108818144D01*
X121049536Y-108672065D01*
X120953282Y-108546624D01*
X120827841Y-108450370D01*
X120681762Y-108389862D01*
X120525000Y-108369224D01*
X120368238Y-108389862D01*
X120222159Y-108450370D01*
X120096718Y-108546624D01*
X120000464Y-108672065D01*
X119939956Y-108818144D01*
X119919318Y-108974906D01*
X110200500Y-108974906D01*
X110200500Y-105074906D01*
X119919318Y-105074906D01*
X119920396Y-105083094D01*
X119938398Y-105219830D01*
X119939956Y-105231668D01*
X120000464Y-105377747D01*
X120096718Y-105503188D01*
X120222159Y-105599442D01*
X120337148Y-105647072D01*
X120360443Y-105656721D01*
X120368238Y-105659950D01*
X120525000Y-105680588D01*
X120533188Y-105679510D01*
X120673574Y-105661028D01*
X120681762Y-105659950D01*
X120689558Y-105656721D01*
X120712852Y-105647072D01*
X120827841Y-105599442D01*
X120953282Y-105503188D01*
X121049536Y-105377747D01*
X121110044Y-105231668D01*
X121111603Y-105219830D01*
X121129604Y-105083094D01*
X121130682Y-105074906D01*
X121127391Y-105049906D01*
X124844318Y-105049906D01*
X124864956Y-105206668D01*
X124925464Y-105352747D01*
X125021718Y-105478188D01*
X125028264Y-105483211D01*
X125045768Y-105496642D01*
X125147159Y-105574442D01*
X125293238Y-105634950D01*
X125450000Y-105655588D01*
X125458188Y-105654510D01*
X125459571Y-105654328D01*
X125606762Y-105634950D01*
X125752841Y-105574442D01*
X125854232Y-105496642D01*
X125871736Y-105483211D01*
X125878282Y-105478188D01*
X125974536Y-105352747D01*
X126035044Y-105206668D01*
X126055682Y-105049906D01*
X126035044Y-104893144D01*
X125974536Y-104747065D01*
X125878282Y-104621624D01*
X125752841Y-104525370D01*
X125606762Y-104464862D01*
X125450000Y-104444224D01*
X125293238Y-104464862D01*
X125147159Y-104525370D01*
X125021718Y-104621624D01*
X124925464Y-104747065D01*
X124864956Y-104893144D01*
X124844318Y-105049906D01*
X121127391Y-105049906D01*
X121110044Y-104918144D01*
X121049536Y-104772065D01*
X120953282Y-104646624D01*
X120827841Y-104550370D01*
X120681762Y-104489862D01*
X120525000Y-104469224D01*
X120368238Y-104489862D01*
X120222159Y-104550370D01*
X120096718Y-104646624D01*
X120000464Y-104772065D01*
X119939956Y-104918144D01*
X119919318Y-105074906D01*
X110200500Y-105074906D01*
X110200500Y-101174906D01*
X119919318Y-101174906D01*
X119939956Y-101331668D01*
X120000464Y-101477747D01*
X120096718Y-101603188D01*
X120222159Y-101699442D01*
X120368238Y-101759950D01*
X120525000Y-101780588D01*
X120533188Y-101779510D01*
X120673574Y-101761028D01*
X120681762Y-101759950D01*
X120827841Y-101699442D01*
X120953282Y-101603188D01*
X121049536Y-101477747D01*
X121110044Y-101331668D01*
X121130682Y-101174906D01*
X121127391Y-101149906D01*
X124844318Y-101149906D01*
X124864956Y-101306668D01*
X124925464Y-101452747D01*
X125021718Y-101578188D01*
X125147159Y-101674442D01*
X125293238Y-101734950D01*
X125450000Y-101755588D01*
X125458188Y-101754510D01*
X125598574Y-101736028D01*
X125606762Y-101734950D01*
X125752841Y-101674442D01*
X125878282Y-101578188D01*
X125974536Y-101452747D01*
X126035044Y-101306668D01*
X126055682Y-101149906D01*
X126035044Y-100993144D01*
X126028881Y-100978264D01*
X125993071Y-100891812D01*
X125974536Y-100847065D01*
X125878282Y-100721624D01*
X125752841Y-100625370D01*
X125606762Y-100564862D01*
X125450000Y-100544224D01*
X125293238Y-100564862D01*
X125147159Y-100625370D01*
X125021718Y-100721624D01*
X124925464Y-100847065D01*
X124906929Y-100891812D01*
X124871120Y-100978264D01*
X124864956Y-100993144D01*
X124844318Y-101149906D01*
X121127391Y-101149906D01*
X121110044Y-101018144D01*
X121049536Y-100872065D01*
X120953282Y-100746624D01*
X120827841Y-100650370D01*
X120681762Y-100589862D01*
X120645166Y-100585044D01*
X120533188Y-100570302D01*
X120525000Y-100569224D01*
X120516812Y-100570302D01*
X120404835Y-100585044D01*
X120368238Y-100589862D01*
X120222159Y-100650370D01*
X120096718Y-100746624D01*
X120000464Y-100872065D01*
X119939956Y-101018144D01*
X119919318Y-101174906D01*
X110200500Y-101174906D01*
X110200500Y-100116209D01*
X130794995Y-100116209D01*
X130796159Y-100125111D01*
X130796159Y-100125114D01*
X130810562Y-100235258D01*
X130810563Y-100235262D01*
X130811727Y-100244163D01*
X130863699Y-100362279D01*
X130869476Y-100369152D01*
X130869477Y-100369153D01*
X130929155Y-100440149D01*
X130946733Y-100461060D01*
X131054154Y-100532565D01*
X131094923Y-100545302D01*
X131167645Y-100568022D01*
X131177327Y-100571047D01*
X131186297Y-100571211D01*
X131186301Y-100571212D01*
X131245036Y-100572288D01*
X131306349Y-100573412D01*
X131357172Y-100559556D01*
X131422190Y-100541830D01*
X131422192Y-100541829D01*
X131430849Y-100539469D01*
X131431045Y-100540189D01*
X131494424Y-100532367D01*
X131558402Y-100563147D01*
X131595582Y-100623629D01*
X131600000Y-100656701D01*
X131600000Y-107091863D01*
X136674000Y-107091863D01*
X136742121Y-107111865D01*
X136788614Y-107165521D01*
X136800000Y-107217863D01*
X136800000Y-108565863D01*
X136779998Y-108633984D01*
X136726342Y-108680477D01*
X136674000Y-108691863D01*
X131600000Y-108691863D01*
X131600000Y-114691863D01*
X132287030Y-114691863D01*
X132355151Y-114711865D01*
X132401644Y-114765521D01*
X132411748Y-114835795D01*
X132401085Y-114871411D01*
X132384175Y-114907429D01*
X132364754Y-114948795D01*
X132357818Y-114993345D01*
X132346282Y-115067430D01*
X132346282Y-115067434D01*
X132344901Y-115076303D01*
X132346065Y-115085205D01*
X132346065Y-115085208D01*
X132360468Y-115195352D01*
X132360469Y-115195356D01*
X132361633Y-115204257D01*
X132369992Y-115223254D01*
X132404162Y-115300911D01*
X132413605Y-115322373D01*
X132419382Y-115329246D01*
X132419383Y-115329247D01*
X132480561Y-115402027D01*
X132496639Y-115421154D01*
X132604060Y-115492659D01*
X132727233Y-115531141D01*
X132736203Y-115531305D01*
X132736207Y-115531306D01*
X132794942Y-115532382D01*
X132856255Y-115533506D01*
X132918505Y-115516534D01*
X132972092Y-115501925D01*
X132972093Y-115501925D01*
X132980755Y-115499563D01*
X132988405Y-115494866D01*
X132988407Y-115494865D01*
X133083072Y-115436741D01*
X133083075Y-115436738D01*
X133090724Y-115432042D01*
X133096750Y-115425385D01*
X133171300Y-115343024D01*
X133171303Y-115343020D01*
X133177322Y-115336370D01*
X133233588Y-115220238D01*
X133237850Y-115194908D01*
X133254190Y-115097780D01*
X133254997Y-115092983D01*
X133255133Y-115081863D01*
X133241181Y-114984440D01*
X133238112Y-114963008D01*
X133238111Y-114963005D01*
X133236839Y-114954122D01*
X133233125Y-114945954D01*
X133233124Y-114945950D01*
X133198598Y-114870015D01*
X133188610Y-114799724D01*
X133218211Y-114735192D01*
X133278001Y-114696908D01*
X133313298Y-114691863D01*
X139400000Y-114691863D01*
X139400000Y-111817863D01*
X139420002Y-111749742D01*
X139473658Y-111703249D01*
X139526000Y-111691863D01*
X140474000Y-111691863D01*
X140542121Y-111711865D01*
X140588614Y-111765521D01*
X140600000Y-111817863D01*
X140600000Y-114691863D01*
X143800000Y-114691863D01*
X143800000Y-114511571D01*
X152994994Y-114511571D01*
X152997332Y-114539414D01*
X153008613Y-114673748D01*
X153010592Y-114697320D01*
X153012291Y-114703245D01*
X153056360Y-114856932D01*
X153061971Y-114876501D01*
X153147176Y-115042291D01*
X153262959Y-115188374D01*
X153404912Y-115309185D01*
X153410290Y-115312191D01*
X153410292Y-115312192D01*
X153444523Y-115331323D01*
X153567627Y-115400123D01*
X153744907Y-115457725D01*
X153929998Y-115479796D01*
X153936133Y-115479324D01*
X153936135Y-115479324D01*
X154109710Y-115465968D01*
X154109715Y-115465967D01*
X154115851Y-115465495D01*
X154121781Y-115463839D01*
X154121783Y-115463839D01*
X154259510Y-115425385D01*
X154295387Y-115415368D01*
X154461768Y-115331323D01*
X154473224Y-115322373D01*
X154603794Y-115220360D01*
X154603795Y-115220359D01*
X154608655Y-115216562D01*
X154719522Y-115088121D01*
X154726430Y-115080118D01*
X154726431Y-115080117D01*
X154730454Y-115075456D01*
X154734688Y-115068004D01*
X154772683Y-115001120D01*
X154822526Y-114913380D01*
X154881364Y-114736507D01*
X154888716Y-114678315D01*
X154904285Y-114555076D01*
X154904286Y-114555069D01*
X154904727Y-114551574D01*
X154905099Y-114524906D01*
X154886909Y-114339393D01*
X154885128Y-114333494D01*
X154885127Y-114333489D01*
X154834814Y-114166845D01*
X154833033Y-114160946D01*
X154758699Y-114021144D01*
X154748416Y-114001804D01*
X154748414Y-114001801D01*
X154745522Y-113996362D01*
X154741632Y-113991592D01*
X154741629Y-113991588D01*
X154631605Y-113856686D01*
X154631602Y-113856683D01*
X154627710Y-113851911D01*
X154622056Y-113847233D01*
X154488834Y-113737022D01*
X154484085Y-113733093D01*
X154320116Y-113644435D01*
X154231083Y-113616875D01*
X154147936Y-113591137D01*
X154147933Y-113591136D01*
X154142049Y-113589315D01*
X154135924Y-113588671D01*
X154135923Y-113588671D01*
X153962796Y-113570474D01*
X153962795Y-113570474D01*
X153956668Y-113569830D01*
X153880937Y-113576722D01*
X153777171Y-113586165D01*
X153777168Y-113586166D01*
X153771032Y-113586724D01*
X153765122Y-113588463D01*
X153765119Y-113588464D01*
X153598129Y-113637613D01*
X153592214Y-113639354D01*
X153427023Y-113725713D01*
X153281752Y-113842514D01*
X153161935Y-113985307D01*
X153158971Y-113990699D01*
X153158968Y-113990703D01*
X153084256Y-114126605D01*
X153072135Y-114148652D01*
X153070274Y-114154519D01*
X153070273Y-114154521D01*
X153024629Y-114298409D01*
X153015772Y-114326330D01*
X152994994Y-114511571D01*
X143800000Y-114511571D01*
X143800000Y-114017863D01*
X143820002Y-113949742D01*
X143873658Y-113903249D01*
X143926000Y-113891863D01*
X147200000Y-113891863D01*
X147200000Y-113886544D01*
X147205252Y-113885002D01*
X147251302Y-113855407D01*
X147322299Y-113855407D01*
X147383252Y-113895228D01*
X147396639Y-113911154D01*
X147504060Y-113982659D01*
X147592938Y-114010427D01*
X147616741Y-114017863D01*
X147627233Y-114021141D01*
X147636203Y-114021305D01*
X147636207Y-114021306D01*
X147694942Y-114022382D01*
X147756255Y-114023506D01*
X147855817Y-113996362D01*
X147872092Y-113991925D01*
X147872093Y-113991925D01*
X147880755Y-113989563D01*
X147888405Y-113984866D01*
X147888407Y-113984865D01*
X147983072Y-113926741D01*
X147983075Y-113926738D01*
X147990724Y-113922042D01*
X147996750Y-113915385D01*
X148071300Y-113833024D01*
X148071303Y-113833020D01*
X148077322Y-113826370D01*
X148133588Y-113710238D01*
X148144659Y-113644435D01*
X148154190Y-113587780D01*
X148154997Y-113582983D01*
X148155133Y-113571863D01*
X148147748Y-113520296D01*
X148138112Y-113453008D01*
X148138111Y-113453005D01*
X148136839Y-113444122D01*
X148106594Y-113377602D01*
X148087145Y-113334825D01*
X148087143Y-113334822D01*
X148083428Y-113326651D01*
X148041670Y-113278188D01*
X148005051Y-113235689D01*
X148005049Y-113235687D01*
X147999193Y-113228891D01*
X147890906Y-113158704D01*
X147882311Y-113156134D01*
X147882310Y-113156133D01*
X147775874Y-113124301D01*
X147775872Y-113124301D01*
X147767273Y-113121729D01*
X147758298Y-113121674D01*
X147758297Y-113121674D01*
X147703641Y-113121340D01*
X147638231Y-113120941D01*
X147626475Y-113124301D01*
X147522786Y-113153935D01*
X147522784Y-113153936D01*
X147514155Y-113156402D01*
X147405019Y-113225262D01*
X147404146Y-113226251D01*
X147342822Y-113253600D01*
X147272641Y-113242872D01*
X147219401Y-113195904D01*
X147200000Y-113128728D01*
X147200000Y-111214440D01*
X156424901Y-111214440D01*
X156426065Y-111223342D01*
X156426065Y-111223345D01*
X156440468Y-111333489D01*
X156440469Y-111333493D01*
X156441633Y-111342394D01*
X156493605Y-111460510D01*
X156576639Y-111559291D01*
X156684060Y-111630796D01*
X156807233Y-111669278D01*
X156816203Y-111669442D01*
X156816207Y-111669443D01*
X156874942Y-111670519D01*
X156936255Y-111671643D01*
X156998505Y-111654671D01*
X157052092Y-111640062D01*
X157052093Y-111640062D01*
X157060755Y-111637700D01*
X157068405Y-111633003D01*
X157068407Y-111633002D01*
X157163072Y-111574878D01*
X157163075Y-111574875D01*
X157170724Y-111570179D01*
X157176750Y-111563522D01*
X157251300Y-111481161D01*
X157251303Y-111481157D01*
X157257322Y-111474507D01*
X157313588Y-111358375D01*
X157334997Y-111231120D01*
X157335133Y-111220000D01*
X157323252Y-111137038D01*
X157318112Y-111101145D01*
X157318111Y-111101142D01*
X157316839Y-111092259D01*
X157310724Y-111078809D01*
X157267145Y-110982962D01*
X157267143Y-110982959D01*
X157263428Y-110974788D01*
X157221450Y-110926070D01*
X157185051Y-110883826D01*
X157185049Y-110883824D01*
X157179193Y-110877028D01*
X157171666Y-110872149D01*
X157171661Y-110872145D01*
X157109311Y-110831733D01*
X157063026Y-110777897D01*
X157059342Y-110751550D01*
X157006850Y-110775523D01*
X156964952Y-110772423D01*
X156964751Y-110773765D01*
X156955873Y-110772438D01*
X156947273Y-110769866D01*
X156938298Y-110769811D01*
X156938297Y-110769811D01*
X156883641Y-110769477D01*
X156818231Y-110769078D01*
X156787374Y-110777897D01*
X156702786Y-110802072D01*
X156702784Y-110802073D01*
X156694155Y-110804539D01*
X156585019Y-110873399D01*
X156579076Y-110880128D01*
X156579075Y-110880129D01*
X156526140Y-110940067D01*
X156499596Y-110970122D01*
X156495782Y-110978245D01*
X156495781Y-110978247D01*
X156477129Y-111017975D01*
X156444754Y-111086932D01*
X156436927Y-111137203D01*
X156426282Y-111205567D01*
X156426282Y-111205571D01*
X156424901Y-111214440D01*
X147200000Y-111214440D01*
X147200000Y-110194346D01*
X155194901Y-110194346D01*
X155196065Y-110203248D01*
X155196065Y-110203251D01*
X155210468Y-110313395D01*
X155210469Y-110313399D01*
X155211633Y-110322300D01*
X155263605Y-110440416D01*
X155346639Y-110539197D01*
X155354116Y-110544174D01*
X155437983Y-110600000D01*
X155454060Y-110610702D01*
X155577233Y-110649184D01*
X155586203Y-110649348D01*
X155586207Y-110649349D01*
X155644942Y-110650425D01*
X155706255Y-110651549D01*
X155821967Y-110620002D01*
X155822092Y-110619968D01*
X155822093Y-110619968D01*
X155830755Y-110617606D01*
X155838405Y-110612909D01*
X155838407Y-110612908D01*
X155933072Y-110554784D01*
X155933075Y-110554781D01*
X155940724Y-110550085D01*
X155946750Y-110543428D01*
X156021300Y-110461067D01*
X156021303Y-110461063D01*
X156027322Y-110454413D01*
X156083588Y-110338281D01*
X156093373Y-110280122D01*
X156104190Y-110215823D01*
X156104997Y-110211026D01*
X156105133Y-110199906D01*
X156086839Y-110072165D01*
X156033428Y-109954694D01*
X155949193Y-109856934D01*
X155840906Y-109786747D01*
X155832311Y-109784177D01*
X155832310Y-109784176D01*
X155725874Y-109752344D01*
X155725872Y-109752344D01*
X155717273Y-109749772D01*
X155708298Y-109749717D01*
X155708297Y-109749717D01*
X155653641Y-109749383D01*
X155588231Y-109748984D01*
X155536482Y-109763774D01*
X155472786Y-109781978D01*
X155472784Y-109781979D01*
X155464155Y-109784445D01*
X155355019Y-109853305D01*
X155269596Y-109950028D01*
X155265782Y-109958151D01*
X155265781Y-109958153D01*
X155239794Y-110013504D01*
X155214754Y-110066838D01*
X155213374Y-110075704D01*
X155196282Y-110185473D01*
X155196282Y-110185477D01*
X155194901Y-110194346D01*
X147200000Y-110194346D01*
X147200000Y-107804906D01*
X151999430Y-107804906D01*
X152019656Y-107997343D01*
X152079450Y-108181369D01*
X152176198Y-108348942D01*
X152180616Y-108353849D01*
X152180617Y-108353850D01*
X152267524Y-108450370D01*
X152305673Y-108492739D01*
X152311015Y-108496620D01*
X152311017Y-108496622D01*
X152388849Y-108553170D01*
X152462215Y-108606473D01*
X152468243Y-108609157D01*
X152468245Y-108609158D01*
X152628431Y-108680477D01*
X152638983Y-108685175D01*
X152733618Y-108705291D01*
X152821795Y-108724034D01*
X152821800Y-108724034D01*
X152828252Y-108725406D01*
X153021748Y-108725406D01*
X153028200Y-108724034D01*
X153028205Y-108724034D01*
X153116383Y-108705290D01*
X153211017Y-108685175D01*
X153221569Y-108680477D01*
X153381755Y-108609158D01*
X153381757Y-108609157D01*
X153387785Y-108606473D01*
X153461151Y-108553170D01*
X153538983Y-108496622D01*
X153538985Y-108496620D01*
X153544327Y-108492739D01*
X153582476Y-108450370D01*
X153669383Y-108353850D01*
X153669384Y-108353849D01*
X153673802Y-108348942D01*
X153770550Y-108181369D01*
X153830344Y-107997343D01*
X153850570Y-107804906D01*
X153830344Y-107612469D01*
X153824728Y-107595183D01*
X153789154Y-107485700D01*
X153770550Y-107428443D01*
X153759466Y-107409244D01*
X153707398Y-107319061D01*
X153673802Y-107260870D01*
X153635079Y-107217863D01*
X153548749Y-107121984D01*
X153548748Y-107121983D01*
X153544327Y-107117073D01*
X153538985Y-107113192D01*
X153538983Y-107113190D01*
X153393127Y-107007220D01*
X153393126Y-107007219D01*
X153387785Y-107003339D01*
X153381757Y-107000655D01*
X153381755Y-107000654D01*
X153217048Y-106927322D01*
X153217047Y-106927322D01*
X153211017Y-106924637D01*
X153116382Y-106904521D01*
X153028205Y-106885778D01*
X153028200Y-106885778D01*
X153021748Y-106884406D01*
X152828252Y-106884406D01*
X152821800Y-106885778D01*
X152821795Y-106885778D01*
X152733618Y-106904521D01*
X152638983Y-106924637D01*
X152632953Y-106927322D01*
X152632952Y-106927322D01*
X152468245Y-107000654D01*
X152468243Y-107000655D01*
X152462215Y-107003339D01*
X152456874Y-107007219D01*
X152456873Y-107007220D01*
X152311017Y-107113190D01*
X152311015Y-107113192D01*
X152305673Y-107117073D01*
X152301252Y-107121983D01*
X152301251Y-107121984D01*
X152214922Y-107217863D01*
X152176198Y-107260870D01*
X152142602Y-107319061D01*
X152090535Y-107409244D01*
X152079450Y-107428443D01*
X152060846Y-107485700D01*
X152025273Y-107595183D01*
X152019656Y-107612469D01*
X151999430Y-107804906D01*
X147200000Y-107804906D01*
X147200000Y-106891863D01*
X141526000Y-106891863D01*
X141457879Y-106871861D01*
X141411386Y-106818205D01*
X141400000Y-106765863D01*
X141400000Y-105433041D01*
X141420002Y-105364920D01*
X141473658Y-105318427D01*
X141542445Y-105308119D01*
X141690000Y-105327545D01*
X141698188Y-105326467D01*
X141838574Y-105307985D01*
X141846762Y-105306907D01*
X141992841Y-105246399D01*
X142118282Y-105150145D01*
X142125177Y-105141159D01*
X142127281Y-105139623D01*
X142129150Y-105137754D01*
X142129441Y-105138045D01*
X142182514Y-105099292D01*
X142225140Y-105091863D01*
X142324860Y-105091863D01*
X142392981Y-105111865D01*
X142424823Y-105141159D01*
X142431718Y-105150145D01*
X142557159Y-105246399D01*
X142703238Y-105306907D01*
X142860000Y-105327545D01*
X142868188Y-105326467D01*
X143008574Y-105307985D01*
X143016762Y-105306907D01*
X143118161Y-105264906D01*
X154539430Y-105264906D01*
X154540120Y-105271471D01*
X154552615Y-105390348D01*
X154559656Y-105457343D01*
X154561696Y-105463620D01*
X154561696Y-105463622D01*
X154572425Y-105496642D01*
X154619450Y-105641369D01*
X154622753Y-105647091D01*
X154622754Y-105647092D01*
X154626932Y-105654328D01*
X154716198Y-105808942D01*
X154720616Y-105813849D01*
X154720617Y-105813850D01*
X154826938Y-105931932D01*
X154845673Y-105952739D01*
X154851015Y-105956620D01*
X154851017Y-105956622D01*
X154978837Y-106049488D01*
X155002215Y-106066473D01*
X155008243Y-106069157D01*
X155008245Y-106069158D01*
X155172952Y-106142490D01*
X155178983Y-106145175D01*
X155273618Y-106165291D01*
X155361795Y-106184034D01*
X155361800Y-106184034D01*
X155368252Y-106185406D01*
X155561748Y-106185406D01*
X155568200Y-106184034D01*
X155568205Y-106184034D01*
X155656382Y-106165291D01*
X155751017Y-106145175D01*
X155757048Y-106142490D01*
X155921755Y-106069158D01*
X155921757Y-106069157D01*
X155927785Y-106066473D01*
X155951163Y-106049488D01*
X156078983Y-105956622D01*
X156078985Y-105956620D01*
X156084327Y-105952739D01*
X156103062Y-105931932D01*
X156209383Y-105813850D01*
X156209384Y-105813849D01*
X156213802Y-105808942D01*
X156303068Y-105654328D01*
X156307246Y-105647092D01*
X156307247Y-105647091D01*
X156310550Y-105641369D01*
X156357575Y-105496642D01*
X156368304Y-105463622D01*
X156368304Y-105463620D01*
X156370344Y-105457343D01*
X156377386Y-105390348D01*
X156389880Y-105271471D01*
X156390570Y-105264906D01*
X156382139Y-105184693D01*
X156371034Y-105079033D01*
X156371034Y-105079032D01*
X156370344Y-105072469D01*
X156366223Y-105059784D01*
X156312592Y-104894728D01*
X156310550Y-104888443D01*
X156255910Y-104793804D01*
X171692876Y-104793804D01*
X171694040Y-104802706D01*
X171694040Y-104802709D01*
X171710206Y-104926332D01*
X171711521Y-104936386D01*
X171715136Y-104944601D01*
X171765074Y-105058094D01*
X171769434Y-105068004D01*
X171775211Y-105074877D01*
X171775212Y-105074878D01*
X171829636Y-105139623D01*
X171861960Y-105178077D01*
X171981661Y-105257757D01*
X172118914Y-105300638D01*
X172262686Y-105303273D01*
X172315189Y-105288959D01*
X172392756Y-105267812D01*
X172392759Y-105267811D01*
X172401418Y-105265450D01*
X172409068Y-105260753D01*
X172409070Y-105260752D01*
X172469773Y-105223480D01*
X172523959Y-105190210D01*
X172571440Y-105137754D01*
X172614434Y-105090254D01*
X172620456Y-105083601D01*
X172683154Y-104954194D01*
X172707011Y-104812391D01*
X172707162Y-104800000D01*
X172706275Y-104793804D01*
X173592876Y-104793804D01*
X173594040Y-104802706D01*
X173594040Y-104802709D01*
X173610206Y-104926332D01*
X173611521Y-104936386D01*
X173615136Y-104944601D01*
X173665074Y-105058094D01*
X173669434Y-105068004D01*
X173675211Y-105074877D01*
X173675212Y-105074878D01*
X173729636Y-105139623D01*
X173761960Y-105178077D01*
X173881661Y-105257757D01*
X174018914Y-105300638D01*
X174162686Y-105303273D01*
X174215189Y-105288959D01*
X174292756Y-105267812D01*
X174292759Y-105267811D01*
X174301418Y-105265450D01*
X174309068Y-105260753D01*
X174309070Y-105260752D01*
X174369773Y-105223480D01*
X174423959Y-105190210D01*
X174471440Y-105137754D01*
X174514434Y-105090254D01*
X174520456Y-105083601D01*
X174583154Y-104954194D01*
X174607011Y-104812391D01*
X174607162Y-104800000D01*
X174586777Y-104657657D01*
X174527260Y-104526756D01*
X174478616Y-104470302D01*
X174439254Y-104424619D01*
X174439252Y-104424617D01*
X174433396Y-104417821D01*
X174312730Y-104339610D01*
X174174963Y-104298409D01*
X174165987Y-104298354D01*
X174165986Y-104298354D01*
X174106021Y-104297988D01*
X174031170Y-104297530D01*
X173892910Y-104337045D01*
X173771298Y-104413777D01*
X173765355Y-104420506D01*
X173701311Y-104493022D01*
X173676110Y-104521556D01*
X173672296Y-104529679D01*
X173672295Y-104529681D01*
X173619750Y-104641601D01*
X173614999Y-104651720D01*
X173613618Y-104660589D01*
X173595073Y-104779695D01*
X173592876Y-104793804D01*
X172706275Y-104793804D01*
X172686777Y-104657657D01*
X172627260Y-104526756D01*
X172578616Y-104470302D01*
X172539254Y-104424619D01*
X172539252Y-104424617D01*
X172533396Y-104417821D01*
X172412730Y-104339610D01*
X172274963Y-104298409D01*
X172265987Y-104298354D01*
X172265986Y-104298354D01*
X172206021Y-104297988D01*
X172131170Y-104297530D01*
X171992910Y-104337045D01*
X171871298Y-104413777D01*
X171865355Y-104420506D01*
X171801311Y-104493022D01*
X171776110Y-104521556D01*
X171772296Y-104529679D01*
X171772295Y-104529681D01*
X171719750Y-104641601D01*
X171714999Y-104651720D01*
X171713618Y-104660589D01*
X171695073Y-104779695D01*
X171692876Y-104793804D01*
X156255910Y-104793804D01*
X156213802Y-104720870D01*
X156084327Y-104577073D01*
X156078985Y-104573192D01*
X156078983Y-104573190D01*
X155933127Y-104467220D01*
X155933126Y-104467219D01*
X155927785Y-104463339D01*
X155921757Y-104460655D01*
X155921755Y-104460654D01*
X155757048Y-104387322D01*
X155757047Y-104387322D01*
X155751017Y-104384637D01*
X155656382Y-104364521D01*
X155568205Y-104345778D01*
X155568200Y-104345778D01*
X155561748Y-104344406D01*
X155368252Y-104344406D01*
X155361800Y-104345778D01*
X155361795Y-104345778D01*
X155273618Y-104364521D01*
X155178983Y-104384637D01*
X155172953Y-104387322D01*
X155172952Y-104387322D01*
X155008245Y-104460654D01*
X155008243Y-104460655D01*
X155002215Y-104463339D01*
X154996874Y-104467219D01*
X154996873Y-104467220D01*
X154851017Y-104573190D01*
X154851015Y-104573192D01*
X154845673Y-104577073D01*
X154716198Y-104720870D01*
X154619450Y-104888443D01*
X154617408Y-104894728D01*
X154563778Y-105059784D01*
X154559656Y-105072469D01*
X154558966Y-105079032D01*
X154558966Y-105079033D01*
X154547861Y-105184693D01*
X154539430Y-105264906D01*
X143118161Y-105264906D01*
X143162841Y-105246399D01*
X143288282Y-105150145D01*
X143295177Y-105141159D01*
X143297281Y-105139623D01*
X143299150Y-105137754D01*
X143299441Y-105138045D01*
X143352514Y-105099292D01*
X143395140Y-105091863D01*
X147200000Y-105091863D01*
X147200000Y-103864440D01*
X160744901Y-103864440D01*
X160746065Y-103873342D01*
X160746065Y-103873345D01*
X160760468Y-103983489D01*
X160760469Y-103983493D01*
X160761633Y-103992394D01*
X160813605Y-104110510D01*
X160896639Y-104209291D01*
X161004060Y-104280796D01*
X161127233Y-104319278D01*
X161136203Y-104319442D01*
X161136207Y-104319443D01*
X161194942Y-104320519D01*
X161256255Y-104321643D01*
X161335651Y-104299997D01*
X161372092Y-104290062D01*
X161372093Y-104290062D01*
X161380755Y-104287700D01*
X161388405Y-104283003D01*
X161388407Y-104283002D01*
X161483072Y-104224878D01*
X161483075Y-104224875D01*
X161490724Y-104220179D01*
X161496750Y-104213522D01*
X161571300Y-104131161D01*
X161571303Y-104131157D01*
X161577322Y-104124507D01*
X161633588Y-104008375D01*
X161654997Y-103881120D01*
X161655133Y-103870000D01*
X161636839Y-103742259D01*
X161617625Y-103700000D01*
X163594318Y-103700000D01*
X163614956Y-103856762D01*
X163618116Y-103864391D01*
X163620439Y-103870000D01*
X163675464Y-104002841D01*
X163771718Y-104128282D01*
X163897159Y-104224536D01*
X164043238Y-104285044D01*
X164200000Y-104305682D01*
X164208188Y-104304604D01*
X164348574Y-104286122D01*
X164356762Y-104285044D01*
X164502841Y-104224536D01*
X164628282Y-104128282D01*
X164724536Y-104002841D01*
X164779561Y-103870000D01*
X164781884Y-103864391D01*
X164785044Y-103856762D01*
X164805682Y-103700000D01*
X164785044Y-103543238D01*
X164724536Y-103397159D01*
X164628282Y-103271718D01*
X164502841Y-103175464D01*
X164356762Y-103114956D01*
X164200000Y-103094318D01*
X164043238Y-103114956D01*
X163897159Y-103175464D01*
X163771718Y-103271718D01*
X163675464Y-103397159D01*
X163614956Y-103543238D01*
X163594318Y-103700000D01*
X161617625Y-103700000D01*
X161613902Y-103691812D01*
X161587145Y-103632962D01*
X161587143Y-103632959D01*
X161583428Y-103624788D01*
X161520216Y-103551426D01*
X161505051Y-103533826D01*
X161505049Y-103533824D01*
X161499193Y-103527028D01*
X161390906Y-103456841D01*
X161382311Y-103454271D01*
X161382310Y-103454270D01*
X161275874Y-103422438D01*
X161275872Y-103422438D01*
X161267273Y-103419866D01*
X161258298Y-103419811D01*
X161258297Y-103419811D01*
X161203641Y-103419477D01*
X161138231Y-103419078D01*
X161126475Y-103422438D01*
X161022786Y-103452072D01*
X161022784Y-103452073D01*
X161014155Y-103454539D01*
X160905019Y-103523399D01*
X160819596Y-103620122D01*
X160815782Y-103628245D01*
X160815781Y-103628247D01*
X160808369Y-103644034D01*
X160764754Y-103736932D01*
X160763374Y-103745798D01*
X160746282Y-103855567D01*
X160746282Y-103855571D01*
X160744901Y-103864440D01*
X147200000Y-103864440D01*
X147200000Y-102724906D01*
X151999430Y-102724906D01*
X152019656Y-102917343D01*
X152079450Y-103101369D01*
X152176198Y-103268942D01*
X152180616Y-103273849D01*
X152180617Y-103273850D01*
X152285746Y-103390608D01*
X152305673Y-103412739D01*
X152311015Y-103416620D01*
X152311017Y-103416622D01*
X152456262Y-103522148D01*
X152462215Y-103526473D01*
X152468243Y-103529157D01*
X152468245Y-103529158D01*
X152518260Y-103551426D01*
X152638983Y-103605175D01*
X152733618Y-103625291D01*
X152821795Y-103644034D01*
X152821800Y-103644034D01*
X152828252Y-103645406D01*
X153021748Y-103645406D01*
X153028200Y-103644034D01*
X153028205Y-103644034D01*
X153116383Y-103625290D01*
X153211017Y-103605175D01*
X153331740Y-103551426D01*
X153381755Y-103529158D01*
X153381757Y-103529157D01*
X153387785Y-103526473D01*
X153393738Y-103522148D01*
X153538983Y-103416622D01*
X153538985Y-103416620D01*
X153544327Y-103412739D01*
X153564254Y-103390608D01*
X153669383Y-103273850D01*
X153669384Y-103273849D01*
X153673802Y-103268942D01*
X153770550Y-103101369D01*
X153830344Y-102917343D01*
X153850570Y-102724906D01*
X153830344Y-102532469D01*
X153770550Y-102348443D01*
X153673802Y-102180870D01*
X153544327Y-102037073D01*
X153538985Y-102033192D01*
X153538983Y-102033190D01*
X153393127Y-101927220D01*
X153393126Y-101927219D01*
X153387785Y-101923339D01*
X153381757Y-101920655D01*
X153381755Y-101920654D01*
X153217048Y-101847322D01*
X153217047Y-101847322D01*
X153211017Y-101844637D01*
X153103278Y-101821736D01*
X153028205Y-101805778D01*
X153028200Y-101805778D01*
X153021748Y-101804406D01*
X152828252Y-101804406D01*
X152821800Y-101805778D01*
X152821795Y-101805778D01*
X152746722Y-101821736D01*
X152638983Y-101844637D01*
X152632953Y-101847322D01*
X152632952Y-101847322D01*
X152468245Y-101920654D01*
X152468243Y-101920655D01*
X152462215Y-101923339D01*
X152456874Y-101927219D01*
X152456873Y-101927220D01*
X152311017Y-102033190D01*
X152311015Y-102033192D01*
X152305673Y-102037073D01*
X152176198Y-102180870D01*
X152079450Y-102348443D01*
X152019656Y-102532469D01*
X151999430Y-102724906D01*
X147200000Y-102724906D01*
X147200000Y-100900000D01*
X160594318Y-100900000D01*
X160614956Y-101056762D01*
X160675464Y-101202841D01*
X160743941Y-101292082D01*
X160763393Y-101317432D01*
X160771718Y-101328282D01*
X160897159Y-101424536D01*
X161043238Y-101485044D01*
X161200000Y-101505682D01*
X161208188Y-101504604D01*
X161348574Y-101486122D01*
X161356762Y-101485044D01*
X161502841Y-101424536D01*
X161534817Y-101400000D01*
X165594318Y-101400000D01*
X165614956Y-101556762D01*
X165618116Y-101564391D01*
X165622532Y-101575053D01*
X165675464Y-101702841D01*
X165771718Y-101828282D01*
X165897159Y-101924536D01*
X166043238Y-101985044D01*
X166200000Y-102005682D01*
X166208188Y-102004604D01*
X166348574Y-101986122D01*
X166356762Y-101985044D01*
X166502841Y-101924536D01*
X166628282Y-101828282D01*
X166724536Y-101702841D01*
X166776739Y-101576812D01*
X166783591Y-101560270D01*
X166828139Y-101504989D01*
X166895503Y-101482568D01*
X166964294Y-101500126D01*
X167012672Y-101552088D01*
X167016409Y-101560270D01*
X167023261Y-101576812D01*
X167075464Y-101702841D01*
X167171718Y-101828282D01*
X167297159Y-101924536D01*
X167443238Y-101985044D01*
X167600000Y-102005682D01*
X167608188Y-102004604D01*
X167748574Y-101986122D01*
X167756762Y-101985044D01*
X167902841Y-101924536D01*
X168028282Y-101828282D01*
X168124536Y-101702841D01*
X168176739Y-101576812D01*
X168183591Y-101560270D01*
X168228139Y-101504989D01*
X168295503Y-101482568D01*
X168364294Y-101500126D01*
X168412672Y-101552088D01*
X168416409Y-101560270D01*
X168423261Y-101576812D01*
X168475464Y-101702841D01*
X168571718Y-101828282D01*
X168697159Y-101924536D01*
X168843238Y-101985044D01*
X169000000Y-102005682D01*
X169008188Y-102004604D01*
X169148574Y-101986122D01*
X169156762Y-101985044D01*
X169302841Y-101924536D01*
X169428282Y-101828282D01*
X169524536Y-101702841D01*
X169577468Y-101575053D01*
X169581884Y-101564391D01*
X169585044Y-101556762D01*
X169605682Y-101400000D01*
X169585044Y-101243238D01*
X169524536Y-101097159D01*
X169428282Y-100971718D01*
X169302841Y-100875464D01*
X169160270Y-100816409D01*
X169104989Y-100771861D01*
X169082568Y-100704497D01*
X169100126Y-100635706D01*
X169152088Y-100587328D01*
X169160270Y-100583591D01*
X169194955Y-100569224D01*
X169302841Y-100524536D01*
X169428282Y-100428282D01*
X169524536Y-100302841D01*
X169585044Y-100156762D01*
X169605682Y-100000000D01*
X169585044Y-99843238D01*
X169524536Y-99697159D01*
X169428282Y-99571718D01*
X169302841Y-99475464D01*
X169156762Y-99414956D01*
X169000000Y-99394318D01*
X168843238Y-99414956D01*
X168697159Y-99475464D01*
X168571718Y-99571718D01*
X168475464Y-99697159D01*
X168414956Y-99843238D01*
X168394318Y-100000000D01*
X168414956Y-100156762D01*
X168475464Y-100302841D01*
X168571718Y-100428282D01*
X168697159Y-100524536D01*
X168805045Y-100569224D01*
X168839730Y-100583591D01*
X168895011Y-100628139D01*
X168917432Y-100695503D01*
X168899874Y-100764294D01*
X168847912Y-100812672D01*
X168839730Y-100816409D01*
X168697159Y-100875464D01*
X168571718Y-100971718D01*
X168475464Y-101097159D01*
X168423261Y-101223188D01*
X168416409Y-101239730D01*
X168371861Y-101295011D01*
X168304497Y-101317432D01*
X168235706Y-101299874D01*
X168187328Y-101247912D01*
X168183591Y-101239730D01*
X168176739Y-101223188D01*
X168124536Y-101097159D01*
X168028282Y-100971718D01*
X167902841Y-100875464D01*
X167756762Y-100814956D01*
X167600000Y-100794318D01*
X167443238Y-100814956D01*
X167297159Y-100875464D01*
X167171718Y-100971718D01*
X167075464Y-101097159D01*
X167023261Y-101223188D01*
X167016409Y-101239730D01*
X166971861Y-101295011D01*
X166904497Y-101317432D01*
X166835706Y-101299874D01*
X166787328Y-101247912D01*
X166783591Y-101239730D01*
X166776739Y-101223188D01*
X166724536Y-101097159D01*
X166628282Y-100971718D01*
X166502841Y-100875464D01*
X166356762Y-100814956D01*
X166200000Y-100794318D01*
X166043238Y-100814956D01*
X165897159Y-100875464D01*
X165771718Y-100971718D01*
X165675464Y-101097159D01*
X165614956Y-101243238D01*
X165594318Y-101400000D01*
X161534817Y-101400000D01*
X161628282Y-101328282D01*
X161636608Y-101317432D01*
X161656059Y-101292082D01*
X161724536Y-101202841D01*
X161785044Y-101056762D01*
X161805682Y-100900000D01*
X161785044Y-100743238D01*
X161724536Y-100597159D01*
X161628282Y-100471718D01*
X161621736Y-100466695D01*
X161621733Y-100466692D01*
X161599931Y-100449963D01*
X161558063Y-100392625D01*
X161553841Y-100321754D01*
X161588605Y-100259851D01*
X161599931Y-100250037D01*
X161621733Y-100233308D01*
X161621736Y-100233305D01*
X161628282Y-100228282D01*
X161724536Y-100102841D01*
X161785044Y-99956762D01*
X161805682Y-99800000D01*
X161793098Y-99704413D01*
X161786122Y-99651426D01*
X161785044Y-99643238D01*
X161724536Y-99497159D01*
X161628282Y-99371718D01*
X161502841Y-99275464D01*
X161356762Y-99214956D01*
X161200000Y-99194318D01*
X161043238Y-99214956D01*
X160897159Y-99275464D01*
X160771718Y-99371718D01*
X160675464Y-99497159D01*
X160614956Y-99643238D01*
X160613878Y-99651426D01*
X160606902Y-99704413D01*
X160594318Y-99800000D01*
X160614956Y-99956762D01*
X160675464Y-100102841D01*
X160771718Y-100228282D01*
X160778264Y-100233305D01*
X160778267Y-100233308D01*
X160800069Y-100250037D01*
X160841937Y-100307375D01*
X160846159Y-100378246D01*
X160811395Y-100440149D01*
X160800069Y-100449963D01*
X160778267Y-100466692D01*
X160778264Y-100466695D01*
X160771718Y-100471718D01*
X160675464Y-100597159D01*
X160614956Y-100743238D01*
X160594318Y-100900000D01*
X147200000Y-100900000D01*
X147200000Y-99444346D01*
X150194901Y-99444346D01*
X150196065Y-99453248D01*
X150196065Y-99453251D01*
X150210468Y-99563395D01*
X150210469Y-99563399D01*
X150211633Y-99572300D01*
X150215250Y-99580520D01*
X150248060Y-99655086D01*
X150263605Y-99690416D01*
X150269382Y-99697289D01*
X150269383Y-99697290D01*
X150340859Y-99782321D01*
X150346639Y-99789197D01*
X150454060Y-99860702D01*
X150577233Y-99899184D01*
X150586203Y-99899348D01*
X150586207Y-99899349D01*
X150644942Y-99900425D01*
X150706255Y-99901549D01*
X150785236Y-99880016D01*
X150822092Y-99869968D01*
X150822093Y-99869968D01*
X150830755Y-99867606D01*
X150838405Y-99862909D01*
X150838407Y-99862908D01*
X150933072Y-99804784D01*
X150933075Y-99804781D01*
X150940724Y-99800085D01*
X150946750Y-99793428D01*
X151021300Y-99711067D01*
X151021303Y-99711063D01*
X151027322Y-99704413D01*
X151083588Y-99588281D01*
X151097635Y-99504789D01*
X151104190Y-99465823D01*
X151104997Y-99461026D01*
X151105133Y-99449906D01*
X151086839Y-99322165D01*
X151069284Y-99283555D01*
X151037145Y-99212868D01*
X151037143Y-99212865D01*
X151033428Y-99204694D01*
X150949193Y-99106934D01*
X150840906Y-99036747D01*
X150832311Y-99034177D01*
X150832310Y-99034176D01*
X150725874Y-99002344D01*
X150725872Y-99002344D01*
X150717273Y-98999772D01*
X150708298Y-98999717D01*
X150708297Y-98999717D01*
X150653641Y-98999383D01*
X150588231Y-98998984D01*
X150576475Y-99002344D01*
X150472786Y-99031978D01*
X150472784Y-99031979D01*
X150464155Y-99034445D01*
X150355019Y-99103305D01*
X150269596Y-99200028D01*
X150265782Y-99208151D01*
X150265781Y-99208153D01*
X150239794Y-99263504D01*
X150214754Y-99316838D01*
X150213374Y-99325704D01*
X150196282Y-99435473D01*
X150196282Y-99435477D01*
X150194901Y-99444346D01*
X147200000Y-99444346D01*
X147200000Y-98893804D01*
X171692876Y-98893804D01*
X171694040Y-98902706D01*
X171694040Y-98902709D01*
X171707069Y-99002344D01*
X171711521Y-99036386D01*
X171769434Y-99168004D01*
X171775211Y-99174877D01*
X171775212Y-99174878D01*
X171856180Y-99271201D01*
X171861960Y-99278077D01*
X171981661Y-99357757D01*
X172118914Y-99400638D01*
X172262686Y-99403273D01*
X172305507Y-99391599D01*
X172392756Y-99367812D01*
X172392759Y-99367811D01*
X172401418Y-99365450D01*
X172409068Y-99360753D01*
X172409070Y-99360752D01*
X172493820Y-99308715D01*
X172523959Y-99290210D01*
X172537307Y-99275464D01*
X172609780Y-99195396D01*
X172620456Y-99183601D01*
X172683154Y-99054194D01*
X172707011Y-98912391D01*
X172707162Y-98900000D01*
X172706275Y-98893804D01*
X173592876Y-98893804D01*
X173594040Y-98902706D01*
X173594040Y-98902709D01*
X173607069Y-99002344D01*
X173611521Y-99036386D01*
X173669434Y-99168004D01*
X173675211Y-99174877D01*
X173675212Y-99174878D01*
X173756180Y-99271201D01*
X173761960Y-99278077D01*
X173881661Y-99357757D01*
X174018914Y-99400638D01*
X174162686Y-99403273D01*
X174205507Y-99391599D01*
X174292756Y-99367812D01*
X174292759Y-99367811D01*
X174301418Y-99365450D01*
X174309068Y-99360753D01*
X174309070Y-99360752D01*
X174393820Y-99308715D01*
X174423959Y-99290210D01*
X174437307Y-99275464D01*
X174509780Y-99195396D01*
X174520456Y-99183601D01*
X174583154Y-99054194D01*
X174607011Y-98912391D01*
X174607162Y-98900000D01*
X174586777Y-98757657D01*
X174527260Y-98626756D01*
X174498980Y-98593935D01*
X174439254Y-98524619D01*
X174439252Y-98524617D01*
X174433396Y-98517821D01*
X174312730Y-98439610D01*
X174174963Y-98398409D01*
X174165987Y-98398354D01*
X174165986Y-98398354D01*
X174106021Y-98397988D01*
X174031170Y-98397530D01*
X173892910Y-98437045D01*
X173771298Y-98513777D01*
X173765355Y-98520506D01*
X173761723Y-98524619D01*
X173676110Y-98621556D01*
X173672296Y-98629679D01*
X173672295Y-98629681D01*
X173662644Y-98650238D01*
X173614999Y-98751720D01*
X173613618Y-98760589D01*
X173596293Y-98871861D01*
X173592876Y-98893804D01*
X172706275Y-98893804D01*
X172686777Y-98757657D01*
X172627260Y-98626756D01*
X172598980Y-98593935D01*
X172539254Y-98524619D01*
X172539252Y-98524617D01*
X172533396Y-98517821D01*
X172412730Y-98439610D01*
X172274963Y-98398409D01*
X172265987Y-98398354D01*
X172265986Y-98398354D01*
X172206021Y-98397988D01*
X172131170Y-98397530D01*
X171992910Y-98437045D01*
X171871298Y-98513777D01*
X171865355Y-98520506D01*
X171861723Y-98524619D01*
X171776110Y-98621556D01*
X171772296Y-98629679D01*
X171772295Y-98629681D01*
X171762644Y-98650238D01*
X171714999Y-98751720D01*
X171713618Y-98760589D01*
X171696293Y-98871861D01*
X171692876Y-98893804D01*
X147200000Y-98893804D01*
X147200000Y-98891863D01*
X146587578Y-98891863D01*
X146519457Y-98871861D01*
X146472964Y-98818205D01*
X146462860Y-98747931D01*
X146474186Y-98710925D01*
X146499674Y-98658317D01*
X146499675Y-98658315D01*
X146503588Y-98650238D01*
X146506164Y-98634930D01*
X146524190Y-98527780D01*
X146524997Y-98522983D01*
X146525133Y-98511863D01*
X146509254Y-98400982D01*
X146508112Y-98393008D01*
X146508111Y-98393005D01*
X146506839Y-98384122D01*
X146453428Y-98266651D01*
X146369193Y-98168891D01*
X146260906Y-98098704D01*
X146252311Y-98096134D01*
X146252310Y-98096133D01*
X146145874Y-98064301D01*
X146145872Y-98064301D01*
X146137273Y-98061729D01*
X146128298Y-98061674D01*
X146128297Y-98061674D01*
X146073641Y-98061340D01*
X146008231Y-98060941D01*
X145984190Y-98067812D01*
X145892786Y-98093935D01*
X145892784Y-98093936D01*
X145884155Y-98096402D01*
X145775019Y-98165262D01*
X145689596Y-98261985D01*
X145685782Y-98270108D01*
X145685781Y-98270110D01*
X145659794Y-98325461D01*
X145634754Y-98378795D01*
X145626069Y-98434577D01*
X145616282Y-98497430D01*
X145616282Y-98497434D01*
X145614901Y-98506303D01*
X145616065Y-98515205D01*
X145616065Y-98515208D01*
X145630468Y-98625352D01*
X145630469Y-98625356D01*
X145631633Y-98634257D01*
X145635250Y-98642477D01*
X145667212Y-98715117D01*
X145676339Y-98785525D01*
X145645953Y-98849690D01*
X145585699Y-98887240D01*
X145551883Y-98891863D01*
X139600000Y-98891863D01*
X139600000Y-101565863D01*
X139579998Y-101633984D01*
X139526342Y-101680477D01*
X139474000Y-101691863D01*
X138326000Y-101691863D01*
X138257879Y-101671861D01*
X138211386Y-101618205D01*
X138200000Y-101565863D01*
X138200000Y-98891863D01*
X131600000Y-98891863D01*
X131600000Y-99586965D01*
X131579998Y-99655086D01*
X131526342Y-99701579D01*
X131456068Y-99711683D01*
X131437897Y-99707682D01*
X131325968Y-99674207D01*
X131325966Y-99674207D01*
X131317367Y-99671635D01*
X131308392Y-99671580D01*
X131308391Y-99671580D01*
X131253735Y-99671246D01*
X131188325Y-99670847D01*
X131176569Y-99674207D01*
X131072880Y-99703841D01*
X131072878Y-99703842D01*
X131064249Y-99706308D01*
X130955113Y-99775168D01*
X130949170Y-99781897D01*
X130949169Y-99781898D01*
X130887764Y-99851426D01*
X130869690Y-99871891D01*
X130865876Y-99880014D01*
X130865875Y-99880016D01*
X130839888Y-99935367D01*
X130814848Y-99988701D01*
X130813468Y-99997567D01*
X130796376Y-100107336D01*
X130796376Y-100107340D01*
X130794995Y-100116209D01*
X110200500Y-100116209D01*
X110200500Y-96793804D01*
X171692876Y-96793804D01*
X171694040Y-96802706D01*
X171694040Y-96802709D01*
X171695933Y-96817184D01*
X171711521Y-96936386D01*
X171769434Y-97068004D01*
X171775211Y-97074877D01*
X171775212Y-97074878D01*
X171817925Y-97125691D01*
X171861960Y-97178077D01*
X171981661Y-97257757D01*
X172118914Y-97300638D01*
X172262686Y-97303273D01*
X172305507Y-97291599D01*
X172392756Y-97267812D01*
X172392759Y-97267811D01*
X172401418Y-97265450D01*
X172409068Y-97260753D01*
X172409070Y-97260752D01*
X172486938Y-97212941D01*
X172523959Y-97190210D01*
X172620456Y-97083601D01*
X172683154Y-96954194D01*
X172707011Y-96812391D01*
X172707162Y-96800000D01*
X172706275Y-96793804D01*
X173592876Y-96793804D01*
X173594040Y-96802706D01*
X173594040Y-96802709D01*
X173595933Y-96817184D01*
X173611521Y-96936386D01*
X173669434Y-97068004D01*
X173675211Y-97074877D01*
X173675212Y-97074878D01*
X173717925Y-97125691D01*
X173761960Y-97178077D01*
X173881661Y-97257757D01*
X174018914Y-97300638D01*
X174162686Y-97303273D01*
X174268876Y-97274322D01*
X174339859Y-97275702D01*
X174398828Y-97315239D01*
X174427060Y-97380380D01*
X174418508Y-97434116D01*
X174421438Y-97435012D01*
X174418814Y-97443594D01*
X174414999Y-97451720D01*
X174392876Y-97593804D01*
X174394040Y-97602706D01*
X174394040Y-97602709D01*
X174395933Y-97617184D01*
X174411521Y-97736386D01*
X174469434Y-97868004D01*
X174475211Y-97874877D01*
X174475212Y-97874878D01*
X174488137Y-97890254D01*
X174561960Y-97978077D01*
X174681661Y-98057757D01*
X174818914Y-98100638D01*
X174962686Y-98103273D01*
X175005507Y-98091599D01*
X175092756Y-98067812D01*
X175092759Y-98067811D01*
X175101418Y-98065450D01*
X175109068Y-98060753D01*
X175109070Y-98060752D01*
X175162688Y-98027830D01*
X175223959Y-97990210D01*
X175320456Y-97883601D01*
X175383154Y-97754194D01*
X175407011Y-97612391D01*
X175407162Y-97600000D01*
X175386777Y-97457657D01*
X175327260Y-97326756D01*
X175233396Y-97217821D01*
X175112730Y-97139610D01*
X174974963Y-97098409D01*
X174965987Y-97098354D01*
X174965986Y-97098354D01*
X174906021Y-97097988D01*
X174831170Y-97097530D01*
X174822540Y-97099996D01*
X174822536Y-97099997D01*
X174732635Y-97125691D01*
X174661641Y-97125179D01*
X174602193Y-97086365D01*
X174573167Y-97021573D01*
X174577976Y-96966232D01*
X174579239Y-96962274D01*
X174583154Y-96954194D01*
X174607011Y-96812391D01*
X174607162Y-96800000D01*
X174606275Y-96793804D01*
X175392876Y-96793804D01*
X175394040Y-96802706D01*
X175394040Y-96802709D01*
X175395933Y-96817184D01*
X175411521Y-96936386D01*
X175469434Y-97068004D01*
X175475211Y-97074877D01*
X175475212Y-97074878D01*
X175517925Y-97125691D01*
X175561960Y-97178077D01*
X175681661Y-97257757D01*
X175818914Y-97300638D01*
X175962686Y-97303273D01*
X176005507Y-97291599D01*
X176092756Y-97267812D01*
X176092759Y-97267811D01*
X176101418Y-97265450D01*
X176109068Y-97260753D01*
X176109070Y-97260752D01*
X176186938Y-97212941D01*
X176223959Y-97190210D01*
X176320456Y-97083601D01*
X176383154Y-96954194D01*
X176407011Y-96812391D01*
X176407162Y-96800000D01*
X176386777Y-96657657D01*
X176383062Y-96649485D01*
X176367160Y-96614511D01*
X176327260Y-96526756D01*
X176233396Y-96417821D01*
X176112730Y-96339610D01*
X175974963Y-96298409D01*
X175965987Y-96298354D01*
X175965986Y-96298354D01*
X175906021Y-96297988D01*
X175831170Y-96297530D01*
X175692910Y-96337045D01*
X175571298Y-96413777D01*
X175565355Y-96420506D01*
X175496949Y-96497961D01*
X175476110Y-96521556D01*
X175472296Y-96529679D01*
X175472295Y-96529681D01*
X175418814Y-96643594D01*
X175414999Y-96651720D01*
X175392876Y-96793804D01*
X174606275Y-96793804D01*
X174586777Y-96657657D01*
X174583063Y-96649488D01*
X174583062Y-96649485D01*
X174581716Y-96646525D01*
X174581262Y-96643329D01*
X174580542Y-96640867D01*
X174580897Y-96640763D01*
X174571728Y-96576235D01*
X174601328Y-96511703D01*
X174661118Y-96473418D01*
X174733990Y-96474106D01*
X174810345Y-96497961D01*
X174818914Y-96500638D01*
X174962686Y-96503273D01*
X175005507Y-96491599D01*
X175092756Y-96467812D01*
X175092759Y-96467811D01*
X175101418Y-96465450D01*
X175109068Y-96460753D01*
X175109070Y-96460752D01*
X175193379Y-96408986D01*
X175223959Y-96390210D01*
X175235025Y-96377985D01*
X175314434Y-96290254D01*
X175320456Y-96283601D01*
X175383154Y-96154194D01*
X175387647Y-96127487D01*
X175406205Y-96017184D01*
X175406205Y-96017179D01*
X175407011Y-96012391D01*
X175407162Y-96000000D01*
X175386777Y-95857657D01*
X175327260Y-95726756D01*
X175255341Y-95643289D01*
X175239254Y-95624619D01*
X175239252Y-95624617D01*
X175233396Y-95617821D01*
X175112730Y-95539610D01*
X174974963Y-95498409D01*
X174965987Y-95498354D01*
X174965986Y-95498354D01*
X174906021Y-95497988D01*
X174831170Y-95497530D01*
X174692910Y-95537045D01*
X174571298Y-95613777D01*
X174565355Y-95620506D01*
X174561723Y-95624619D01*
X174476110Y-95721556D01*
X174472296Y-95729679D01*
X174472295Y-95729681D01*
X174443101Y-95791863D01*
X174414999Y-95851720D01*
X174413618Y-95860589D01*
X174398723Y-95956254D01*
X174392876Y-95993804D01*
X174394040Y-96002706D01*
X174394040Y-96002709D01*
X174406070Y-96094704D01*
X174411521Y-96136386D01*
X174415136Y-96144601D01*
X174419638Y-96154834D01*
X174428764Y-96225242D01*
X174398376Y-96289406D01*
X174338122Y-96326956D01*
X174268208Y-96326295D01*
X174174963Y-96298409D01*
X174165987Y-96298354D01*
X174165986Y-96298354D01*
X174106021Y-96297988D01*
X174031170Y-96297530D01*
X173892910Y-96337045D01*
X173771298Y-96413777D01*
X173765355Y-96420506D01*
X173696949Y-96497961D01*
X173676110Y-96521556D01*
X173672296Y-96529679D01*
X173672295Y-96529681D01*
X173618814Y-96643594D01*
X173614999Y-96651720D01*
X173592876Y-96793804D01*
X172706275Y-96793804D01*
X172686777Y-96657657D01*
X172683062Y-96649485D01*
X172667160Y-96614511D01*
X172627260Y-96526756D01*
X172533396Y-96417821D01*
X172412730Y-96339610D01*
X172274963Y-96298409D01*
X172265987Y-96298354D01*
X172265986Y-96298354D01*
X172206021Y-96297988D01*
X172131170Y-96297530D01*
X171992910Y-96337045D01*
X171871298Y-96413777D01*
X171865355Y-96420506D01*
X171796949Y-96497961D01*
X171776110Y-96521556D01*
X171772296Y-96529679D01*
X171772295Y-96529681D01*
X171718814Y-96643594D01*
X171714999Y-96651720D01*
X171692876Y-96793804D01*
X110200500Y-96793804D01*
X110200500Y-95791863D01*
X130294318Y-95791863D01*
X130314956Y-95948625D01*
X130375464Y-96094704D01*
X130471718Y-96220145D01*
X130478264Y-96225168D01*
X130507918Y-96247922D01*
X130597159Y-96316399D01*
X130743238Y-96376907D01*
X130900000Y-96397545D01*
X130908188Y-96396467D01*
X131048574Y-96377985D01*
X131056762Y-96376907D01*
X131202841Y-96316399D01*
X131292082Y-96247922D01*
X131321736Y-96225168D01*
X131328282Y-96220145D01*
X131424536Y-96094704D01*
X131485044Y-95948625D01*
X131505682Y-95791863D01*
X131485044Y-95635101D01*
X131424536Y-95489022D01*
X131328282Y-95363581D01*
X131202841Y-95267327D01*
X131056762Y-95206819D01*
X130900000Y-95186181D01*
X130743238Y-95206819D01*
X130597159Y-95267327D01*
X130471718Y-95363581D01*
X130375464Y-95489022D01*
X130314956Y-95635101D01*
X130294318Y-95791863D01*
X110200500Y-95791863D01*
X110200500Y-93037371D01*
X110203755Y-93008918D01*
X110204043Y-93007676D01*
X110204044Y-93007669D01*
X110205655Y-93000718D01*
X110205656Y-93000000D01*
X110204075Y-92993068D01*
X110203283Y-92985992D01*
X110204180Y-92985892D01*
X110202264Y-92964093D01*
X110203377Y-92941454D01*
X110203596Y-92937002D01*
X111995380Y-92937002D01*
X111995555Y-92941454D01*
X112002984Y-93130532D01*
X112006502Y-93220084D01*
X112057400Y-93498775D01*
X112147058Y-93767514D01*
X112149050Y-93771501D01*
X112149051Y-93771503D01*
X112268204Y-94009965D01*
X112273687Y-94020939D01*
X112434761Y-94253993D01*
X112437783Y-94257262D01*
X112592486Y-94424619D01*
X112627065Y-94462027D01*
X112630519Y-94464839D01*
X112843307Y-94638075D01*
X112843311Y-94638078D01*
X112846764Y-94640889D01*
X113089472Y-94787012D01*
X113093567Y-94788746D01*
X113093569Y-94788747D01*
X113346247Y-94895742D01*
X113346254Y-94895744D01*
X113350348Y-94897478D01*
X113450492Y-94924031D01*
X113619889Y-94968946D01*
X113619893Y-94968947D01*
X113624186Y-94970085D01*
X113628595Y-94970607D01*
X113628601Y-94970608D01*
X113785953Y-94989232D01*
X113905523Y-95003384D01*
X114188745Y-94996709D01*
X114193143Y-94995977D01*
X114463810Y-94950926D01*
X114463814Y-94950925D01*
X114468200Y-94950195D01*
X114472441Y-94948854D01*
X114472444Y-94948853D01*
X114734068Y-94866112D01*
X114734070Y-94866111D01*
X114738314Y-94864769D01*
X114742325Y-94862843D01*
X114742330Y-94862841D01*
X114886099Y-94793804D01*
X171692876Y-94793804D01*
X171694040Y-94802706D01*
X171694040Y-94802709D01*
X171702331Y-94866112D01*
X171711521Y-94936386D01*
X171769434Y-95068004D01*
X171775211Y-95074877D01*
X171775212Y-95074878D01*
X171788137Y-95090254D01*
X171861960Y-95178077D01*
X171981661Y-95257757D01*
X172118914Y-95300638D01*
X172262686Y-95303273D01*
X172305507Y-95291599D01*
X172392756Y-95267812D01*
X172392759Y-95267811D01*
X172401418Y-95265450D01*
X172409068Y-95260753D01*
X172409070Y-95260752D01*
X172498664Y-95205741D01*
X172523959Y-95190210D01*
X172620456Y-95083601D01*
X172662505Y-94996814D01*
X172679241Y-94962271D01*
X172679242Y-94962269D01*
X172683154Y-94954194D01*
X172698199Y-94864769D01*
X172706205Y-94817184D01*
X172706205Y-94817179D01*
X172707011Y-94812391D01*
X172707162Y-94800000D01*
X172706275Y-94793804D01*
X173592876Y-94793804D01*
X173594040Y-94802706D01*
X173594040Y-94802709D01*
X173602331Y-94866112D01*
X173611521Y-94936386D01*
X173669434Y-95068004D01*
X173675211Y-95074877D01*
X173675212Y-95074878D01*
X173688137Y-95090254D01*
X173761960Y-95178077D01*
X173881661Y-95257757D01*
X174018914Y-95300638D01*
X174162686Y-95303273D01*
X174205507Y-95291599D01*
X174292756Y-95267812D01*
X174292759Y-95267811D01*
X174301418Y-95265450D01*
X174309068Y-95260753D01*
X174309070Y-95260752D01*
X174398664Y-95205741D01*
X174423959Y-95190210D01*
X174520456Y-95083601D01*
X174562505Y-94996814D01*
X174579241Y-94962271D01*
X174579242Y-94962269D01*
X174583154Y-94954194D01*
X174598199Y-94864769D01*
X174606205Y-94817184D01*
X174606205Y-94817179D01*
X174607011Y-94812391D01*
X174607162Y-94800000D01*
X174586777Y-94657657D01*
X174581011Y-94644974D01*
X174552273Y-94581769D01*
X174527260Y-94526756D01*
X174471486Y-94462027D01*
X174439254Y-94424619D01*
X174439252Y-94424617D01*
X174433396Y-94417821D01*
X174312730Y-94339610D01*
X174174963Y-94298409D01*
X174165987Y-94298354D01*
X174165986Y-94298354D01*
X174106021Y-94297988D01*
X174031170Y-94297530D01*
X173892910Y-94337045D01*
X173817372Y-94384707D01*
X173799901Y-94395730D01*
X173771298Y-94413777D01*
X173765355Y-94420506D01*
X173707397Y-94486131D01*
X173676110Y-94521556D01*
X173672296Y-94529679D01*
X173672295Y-94529681D01*
X173623005Y-94634667D01*
X173614999Y-94651720D01*
X173592876Y-94793804D01*
X172706275Y-94793804D01*
X172686777Y-94657657D01*
X172681011Y-94644974D01*
X172652273Y-94581769D01*
X172627260Y-94526756D01*
X172571486Y-94462027D01*
X172539254Y-94424619D01*
X172539252Y-94424617D01*
X172533396Y-94417821D01*
X172412730Y-94339610D01*
X172274963Y-94298409D01*
X172265987Y-94298354D01*
X172265986Y-94298354D01*
X172206021Y-94297988D01*
X172131170Y-94297530D01*
X171992910Y-94337045D01*
X171917372Y-94384707D01*
X171899901Y-94395730D01*
X171871298Y-94413777D01*
X171865355Y-94420506D01*
X171807397Y-94486131D01*
X171776110Y-94521556D01*
X171772296Y-94529679D01*
X171772295Y-94529681D01*
X171723005Y-94634667D01*
X171714999Y-94651720D01*
X171692876Y-94793804D01*
X114886099Y-94793804D01*
X114989678Y-94744066D01*
X114989679Y-94744065D01*
X114993697Y-94742136D01*
X114997403Y-94739660D01*
X115225545Y-94587221D01*
X115225549Y-94587218D01*
X115229253Y-94584743D01*
X115440281Y-94395730D01*
X115559557Y-94253834D01*
X161549500Y-94253834D01*
X161552481Y-94285369D01*
X161597366Y-94413184D01*
X161602958Y-94420754D01*
X161602959Y-94420757D01*
X161651246Y-94486131D01*
X161677850Y-94522150D01*
X161685421Y-94527742D01*
X161779243Y-94597041D01*
X161779246Y-94597042D01*
X161786816Y-94602634D01*
X161914631Y-94647519D01*
X161922277Y-94648242D01*
X161922278Y-94648242D01*
X161928248Y-94648806D01*
X161946166Y-94650500D01*
X163253834Y-94650500D01*
X163271752Y-94648806D01*
X163277722Y-94648242D01*
X163277723Y-94648242D01*
X163285369Y-94647519D01*
X163413184Y-94602634D01*
X163420754Y-94597042D01*
X163420757Y-94597041D01*
X163514579Y-94527742D01*
X163522150Y-94522150D01*
X163548754Y-94486131D01*
X163597041Y-94420757D01*
X163597042Y-94420754D01*
X163602634Y-94413184D01*
X163647519Y-94285369D01*
X163650500Y-94253834D01*
X163650500Y-93651841D01*
X166549500Y-93651841D01*
X166564520Y-93805030D01*
X166624065Y-94002251D01*
X166720782Y-94184151D01*
X166774757Y-94250331D01*
X166847094Y-94339025D01*
X166847097Y-94339028D01*
X166850989Y-94343800D01*
X166855736Y-94347727D01*
X166855738Y-94347729D01*
X167004975Y-94471189D01*
X167004979Y-94471191D01*
X167009725Y-94475118D01*
X167190945Y-94573103D01*
X167387746Y-94634023D01*
X167393871Y-94634667D01*
X167393872Y-94634667D01*
X167586502Y-94654913D01*
X167586504Y-94654913D01*
X167592631Y-94655557D01*
X167680956Y-94647519D01*
X167791658Y-94637445D01*
X167791661Y-94637444D01*
X167797797Y-94636886D01*
X167995428Y-94578720D01*
X168177998Y-94483274D01*
X168182799Y-94479414D01*
X168182802Y-94479412D01*
X168333746Y-94358050D01*
X168333747Y-94358050D01*
X168338553Y-94354185D01*
X168470976Y-94196370D01*
X168473944Y-94190972D01*
X168473947Y-94190967D01*
X168567257Y-94021235D01*
X168570224Y-94015838D01*
X168632516Y-93819468D01*
X168633474Y-93810932D01*
X168647772Y-93683458D01*
X168650500Y-93659136D01*
X168650500Y-93298159D01*
X168635480Y-93144970D01*
X168575935Y-92947749D01*
X168570221Y-92937002D01*
X178995380Y-92937002D01*
X178995555Y-92941454D01*
X179002984Y-93130532D01*
X179006502Y-93220084D01*
X179057400Y-93498775D01*
X179147058Y-93767514D01*
X179149050Y-93771501D01*
X179149051Y-93771503D01*
X179268204Y-94009965D01*
X179273687Y-94020939D01*
X179434761Y-94253993D01*
X179437783Y-94257262D01*
X179592486Y-94424619D01*
X179627065Y-94462027D01*
X179630519Y-94464839D01*
X179843307Y-94638075D01*
X179843311Y-94638078D01*
X179846764Y-94640889D01*
X180089472Y-94787012D01*
X180093567Y-94788746D01*
X180093569Y-94788747D01*
X180346247Y-94895742D01*
X180346254Y-94895744D01*
X180350348Y-94897478D01*
X180450492Y-94924031D01*
X180619889Y-94968946D01*
X180619893Y-94968947D01*
X180624186Y-94970085D01*
X180628595Y-94970607D01*
X180628601Y-94970608D01*
X180785953Y-94989232D01*
X180905523Y-95003384D01*
X181188745Y-94996709D01*
X181193143Y-94995977D01*
X181463810Y-94950926D01*
X181463814Y-94950925D01*
X181468200Y-94950195D01*
X181472441Y-94948854D01*
X181472444Y-94948853D01*
X181734068Y-94866112D01*
X181734070Y-94866111D01*
X181738314Y-94864769D01*
X181742325Y-94862843D01*
X181742330Y-94862841D01*
X181989678Y-94744066D01*
X181989679Y-94744065D01*
X181993697Y-94742136D01*
X181997403Y-94739660D01*
X182225545Y-94587221D01*
X182225549Y-94587218D01*
X182229253Y-94584743D01*
X182440281Y-94395730D01*
X182622573Y-94178868D01*
X182772489Y-93938485D01*
X182887040Y-93679376D01*
X182963939Y-93406712D01*
X182978105Y-93301242D01*
X183001225Y-93129115D01*
X183001226Y-93129107D01*
X183001652Y-93125933D01*
X183001753Y-93122722D01*
X183005509Y-93003222D01*
X183005509Y-93003217D01*
X183005610Y-93000000D01*
X182985601Y-92717407D01*
X182980394Y-92693218D01*
X182926911Y-92444800D01*
X182926911Y-92444798D01*
X182925975Y-92440453D01*
X182827920Y-92174663D01*
X182693393Y-91925340D01*
X182525078Y-91697460D01*
X182478554Y-91650199D01*
X182329465Y-91498751D01*
X182326334Y-91495570D01*
X182322794Y-91492869D01*
X182322788Y-91492863D01*
X182104667Y-91326398D01*
X182104663Y-91326395D01*
X182101126Y-91323696D01*
X181896192Y-91208928D01*
X181857837Y-91187448D01*
X181857832Y-91187445D01*
X181853947Y-91185270D01*
X181849789Y-91183662D01*
X181849784Y-91183659D01*
X181593885Y-91084659D01*
X181593879Y-91084657D01*
X181589730Y-91083052D01*
X181585398Y-91082048D01*
X181585395Y-91082047D01*
X181510141Y-91064604D01*
X181313747Y-91019082D01*
X181031503Y-90994637D01*
X181027068Y-90994881D01*
X181027064Y-90994881D01*
X180753073Y-91009960D01*
X180753066Y-91009961D01*
X180748630Y-91010205D01*
X180610743Y-91037632D01*
X180475146Y-91064604D01*
X180475141Y-91064605D01*
X180470774Y-91065474D01*
X180466571Y-91066950D01*
X180207684Y-91157864D01*
X180207681Y-91157865D01*
X180203476Y-91159342D01*
X180199523Y-91161395D01*
X180199517Y-91161398D01*
X180118243Y-91203617D01*
X179952072Y-91289936D01*
X179948457Y-91292519D01*
X179948451Y-91292523D01*
X179901048Y-91326398D01*
X179721576Y-91454651D01*
X179718349Y-91457729D01*
X179718347Y-91457731D01*
X179619705Y-91551831D01*
X179516588Y-91650199D01*
X179341199Y-91872680D01*
X179310612Y-91925340D01*
X179201141Y-92113807D01*
X179201138Y-92113813D01*
X179198907Y-92117654D01*
X179197237Y-92121777D01*
X179119738Y-92313114D01*
X179092552Y-92380232D01*
X179091481Y-92384545D01*
X179091479Y-92384550D01*
X179025328Y-92650856D01*
X179024255Y-92655177D01*
X179023801Y-92659605D01*
X179023801Y-92659607D01*
X178996224Y-92928765D01*
X178995380Y-92937002D01*
X168570221Y-92937002D01*
X168479218Y-92765849D01*
X168385432Y-92650856D01*
X168352906Y-92610975D01*
X168352903Y-92610972D01*
X168349011Y-92606200D01*
X168331786Y-92591950D01*
X168195025Y-92478811D01*
X168195021Y-92478809D01*
X168190275Y-92474882D01*
X168009055Y-92376897D01*
X167812254Y-92315977D01*
X167806129Y-92315333D01*
X167806128Y-92315333D01*
X167613498Y-92295087D01*
X167613496Y-92295087D01*
X167607369Y-92294443D01*
X167526988Y-92301758D01*
X167408342Y-92312555D01*
X167408339Y-92312556D01*
X167402203Y-92313114D01*
X167204572Y-92371280D01*
X167199107Y-92374137D01*
X167179189Y-92384550D01*
X167022002Y-92466726D01*
X167017201Y-92470586D01*
X167017198Y-92470588D01*
X166866254Y-92591950D01*
X166861447Y-92595815D01*
X166729024Y-92753630D01*
X166726056Y-92759028D01*
X166726053Y-92759033D01*
X166632743Y-92928765D01*
X166629776Y-92934162D01*
X166567484Y-93130532D01*
X166566798Y-93136649D01*
X166566797Y-93136653D01*
X166564599Y-93156254D01*
X166549500Y-93290864D01*
X166549500Y-93651841D01*
X163650500Y-93651841D01*
X163650500Y-92696166D01*
X163647519Y-92664631D01*
X163602634Y-92536816D01*
X163597042Y-92529246D01*
X163597041Y-92529243D01*
X163527742Y-92435421D01*
X163522150Y-92427850D01*
X163497955Y-92409979D01*
X163420757Y-92352959D01*
X163420754Y-92352958D01*
X163413184Y-92347366D01*
X163285369Y-92302481D01*
X163277723Y-92301758D01*
X163277722Y-92301758D01*
X163271752Y-92301194D01*
X163253834Y-92299500D01*
X161946166Y-92299500D01*
X161928248Y-92301194D01*
X161922278Y-92301758D01*
X161922277Y-92301758D01*
X161914631Y-92302481D01*
X161786816Y-92347366D01*
X161779246Y-92352958D01*
X161779243Y-92352959D01*
X161702045Y-92409979D01*
X161677850Y-92427850D01*
X161672258Y-92435421D01*
X161602959Y-92529243D01*
X161602958Y-92529246D01*
X161597366Y-92536816D01*
X161552481Y-92664631D01*
X161549500Y-92696166D01*
X161549500Y-94253834D01*
X115559557Y-94253834D01*
X115622573Y-94178868D01*
X115772489Y-93938485D01*
X115887040Y-93679376D01*
X115963939Y-93406712D01*
X115978105Y-93301242D01*
X116001225Y-93129115D01*
X116001226Y-93129107D01*
X116001652Y-93125933D01*
X116001753Y-93122722D01*
X116005509Y-93003222D01*
X116005509Y-93003217D01*
X116005610Y-93000000D01*
X116005034Y-92991863D01*
X130294318Y-92991863D01*
X130314956Y-93148625D01*
X130375464Y-93294704D01*
X130380491Y-93301255D01*
X130461411Y-93406712D01*
X130471718Y-93420145D01*
X130597159Y-93516399D01*
X130743238Y-93576907D01*
X130900000Y-93597545D01*
X130908188Y-93596467D01*
X131048574Y-93577985D01*
X131056762Y-93576907D01*
X131202841Y-93516399D01*
X131328282Y-93420145D01*
X131338590Y-93406712D01*
X131419509Y-93301255D01*
X131424536Y-93294704D01*
X131485044Y-93148625D01*
X131505682Y-92991863D01*
X131485044Y-92835101D01*
X131424536Y-92689022D01*
X131328282Y-92563581D01*
X131202841Y-92467327D01*
X131056762Y-92406819D01*
X130900000Y-92386181D01*
X130743238Y-92406819D01*
X130597159Y-92467327D01*
X130471718Y-92563581D01*
X130375464Y-92689022D01*
X130314956Y-92835101D01*
X130294318Y-92991863D01*
X116005034Y-92991863D01*
X115985601Y-92717407D01*
X115980394Y-92693218D01*
X115926911Y-92444800D01*
X115926911Y-92444798D01*
X115925975Y-92440453D01*
X115827920Y-92174663D01*
X115693393Y-91925340D01*
X115525078Y-91697460D01*
X115478554Y-91650199D01*
X115329465Y-91498751D01*
X115326334Y-91495570D01*
X115322794Y-91492869D01*
X115322788Y-91492863D01*
X115104667Y-91326398D01*
X115104663Y-91326395D01*
X115101126Y-91323696D01*
X114896192Y-91208928D01*
X114857837Y-91187448D01*
X114857832Y-91187445D01*
X114853947Y-91185270D01*
X114849789Y-91183662D01*
X114849784Y-91183659D01*
X114593885Y-91084659D01*
X114593879Y-91084657D01*
X114589730Y-91083052D01*
X114585398Y-91082048D01*
X114585395Y-91082047D01*
X114510141Y-91064604D01*
X114313747Y-91019082D01*
X114031503Y-90994637D01*
X114027068Y-90994881D01*
X114027064Y-90994881D01*
X113753073Y-91009960D01*
X113753066Y-91009961D01*
X113748630Y-91010205D01*
X113610743Y-91037632D01*
X113475146Y-91064604D01*
X113475141Y-91064605D01*
X113470774Y-91065474D01*
X113466571Y-91066950D01*
X113207684Y-91157864D01*
X113207681Y-91157865D01*
X113203476Y-91159342D01*
X113199523Y-91161395D01*
X113199517Y-91161398D01*
X113118243Y-91203617D01*
X112952072Y-91289936D01*
X112948457Y-91292519D01*
X112948451Y-91292523D01*
X112901048Y-91326398D01*
X112721576Y-91454651D01*
X112718349Y-91457729D01*
X112718347Y-91457731D01*
X112619705Y-91551831D01*
X112516588Y-91650199D01*
X112341199Y-91872680D01*
X112310612Y-91925340D01*
X112201141Y-92113807D01*
X112201138Y-92113813D01*
X112198907Y-92117654D01*
X112197237Y-92121777D01*
X112119738Y-92313114D01*
X112092552Y-92380232D01*
X112091481Y-92384545D01*
X112091479Y-92384550D01*
X112025328Y-92650856D01*
X112024255Y-92655177D01*
X112023801Y-92659605D01*
X112023801Y-92659607D01*
X111996224Y-92928765D01*
X111995380Y-92937002D01*
X110203596Y-92937002D01*
X110218493Y-92633760D01*
X110219704Y-92621461D01*
X110221106Y-92612013D01*
X110272598Y-92264878D01*
X110275009Y-92252753D01*
X110362603Y-91903060D01*
X110366193Y-91891228D01*
X110487632Y-91551831D01*
X110492363Y-91540407D01*
X110646494Y-91214522D01*
X110652323Y-91203617D01*
X110662015Y-91187448D01*
X110837651Y-90894417D01*
X110844521Y-90884136D01*
X110921058Y-90780938D01*
X111059264Y-90594589D01*
X111067089Y-90585052D01*
X111309196Y-90317929D01*
X111317929Y-90309196D01*
X111585052Y-90067089D01*
X111594589Y-90059264D01*
X111884136Y-89844521D01*
X111894417Y-89837651D01*
X112203617Y-89652323D01*
X112214518Y-89646496D01*
X112313556Y-89599655D01*
X112540407Y-89492363D01*
X112551831Y-89487632D01*
X112891228Y-89366193D01*
X112903060Y-89362603D01*
X113076923Y-89319052D01*
X113252756Y-89275008D01*
X113264878Y-89272598D01*
X113621466Y-89219704D01*
X113633760Y-89218493D01*
X113926710Y-89204100D01*
X113963806Y-89202278D01*
X113971622Y-89202971D01*
X113971623Y-89202451D01*
X113985812Y-89202476D01*
X113999641Y-89205656D01*
X114013480Y-89202525D01*
X114018311Y-89202533D01*
X114036504Y-89200500D01*
X180962920Y-89200500D01*
X180980242Y-89202466D01*
G37*
%TD.AperFunction*%
%TD*%
M02*
