%TF.GenerationSoftware,KiCad,Pcbnew,(6.0.5)*%
%TF.CreationDate,2023-02-17T00:10:57+08:00*%
%TF.ProjectId,EmoeNAP,456d6f65-4e41-4502-9e6b-696361645f70,rev?*%
%TF.SameCoordinates,Original*%
%TF.FileFunction,Legend,Top*%
%TF.FilePolarity,Positive*%
%FSLAX46Y46*%
G04 Gerber Fmt 4.6, Leading zero omitted, Abs format (unit mm)*
G04 Created by KiCad (PCBNEW (6.0.5)) date 2023-02-17 00:10:57*
%MOMM*%
%LPD*%
G01*
G04 APERTURE LIST*
%ADD10C,0.120000*%
%ADD11C,0.150000*%
G04 APERTURE END LIST*
%TO.C,kibuzzard-63EE53DB*%
G36*
X146513545Y-123109016D02*
G01*
X146582682Y-123201869D01*
X146639249Y-123300683D01*
X146683246Y-123405458D01*
X146714672Y-123516194D01*
X146733527Y-123632891D01*
X146739813Y-123755550D01*
X146733527Y-123878630D01*
X146714672Y-123995684D01*
X146683246Y-124106711D01*
X146639249Y-124211713D01*
X146582682Y-124310689D01*
X146513545Y-124403639D01*
X146431838Y-124490562D01*
X146271500Y-124490562D01*
X146352786Y-124403639D01*
X146421567Y-124310689D01*
X146477843Y-124211713D01*
X146521612Y-124106711D01*
X146552876Y-123995684D01*
X146571635Y-123878630D01*
X146577888Y-123755550D01*
X146571635Y-123632891D01*
X146552876Y-123516194D01*
X146521612Y-123405458D01*
X146477843Y-123300683D01*
X146421567Y-123201869D01*
X146352786Y-123109016D01*
X146271500Y-123022125D01*
X146431838Y-123022125D01*
X146513545Y-123109016D01*
G37*
G36*
X141866540Y-123075042D02*
G01*
X141955440Y-123090917D01*
X142040812Y-123117375D01*
X142040812Y-123276125D01*
X141918178Y-123224928D01*
X141794750Y-123207862D01*
X141725297Y-123218181D01*
X141672512Y-123249137D01*
X141639175Y-123298350D01*
X141628063Y-123363437D01*
X141642174Y-123444047D01*
X141684507Y-123508076D01*
X141755062Y-123555525D01*
X141863189Y-123610029D01*
X141946268Y-123665592D01*
X142004300Y-123722212D01*
X142055497Y-123820241D01*
X142072563Y-123942875D01*
X142058910Y-124057175D01*
X142017952Y-124146075D01*
X141949690Y-124209575D01*
X141854122Y-124247675D01*
X141731250Y-124260375D01*
X141632825Y-124251908D01*
X141542867Y-124226508D01*
X141461375Y-124184175D01*
X141461375Y-124019075D01*
X141545160Y-124076401D01*
X141633531Y-124110797D01*
X141726487Y-124122263D01*
X141797131Y-124111348D01*
X141850312Y-124078606D01*
X141883650Y-124024830D01*
X141894762Y-123950812D01*
X141886230Y-123880169D01*
X141860631Y-123823812D01*
X141815189Y-123777378D01*
X141747125Y-123736500D01*
X141649847Y-123685700D01*
X141573911Y-123632783D01*
X141519319Y-123577750D01*
X141469908Y-123484087D01*
X141453437Y-123371375D01*
X141474273Y-123244375D01*
X141536781Y-123149125D01*
X141600193Y-123105028D01*
X141679303Y-123078569D01*
X141774112Y-123069750D01*
X141866540Y-123075042D01*
G37*
G36*
X138456237Y-124228625D02*
G01*
X138456237Y-124593750D01*
X138281612Y-124593750D01*
X138281612Y-124095275D01*
X138456237Y-124095275D01*
X138575300Y-124131787D01*
X138641280Y-124113035D01*
X138688409Y-124056778D01*
X138716687Y-123963016D01*
X138726112Y-123831750D01*
X138715992Y-123692248D01*
X138685631Y-123600769D01*
X138633839Y-123550167D01*
X138559425Y-123533300D01*
X138456237Y-123550762D01*
X138456237Y-124095275D01*
X138281612Y-124095275D01*
X138281612Y-123453925D01*
X138366632Y-123425703D01*
X138456590Y-123408769D01*
X138551487Y-123403125D01*
X138662172Y-123414149D01*
X138750807Y-123447222D01*
X138817394Y-123502344D01*
X138863696Y-123583042D01*
X138891477Y-123692844D01*
X138900737Y-123831750D01*
X138892271Y-123962719D01*
X138866871Y-124069875D01*
X138824537Y-124153219D01*
X138765271Y-124212750D01*
X138689071Y-124248469D01*
X138595937Y-124260375D01*
X138575300Y-124258107D01*
X138523706Y-124252437D01*
X138456237Y-124228625D01*
G37*
G36*
X136078162Y-123593625D02*
G01*
X136081337Y-123593625D01*
X136352800Y-123085625D01*
X136543300Y-123085625D01*
X136240087Y-123638075D01*
X136551237Y-124244500D01*
X136359150Y-124244500D01*
X136081337Y-123688875D01*
X136078162Y-123688875D01*
X136078162Y-124244500D01*
X135900362Y-124244500D01*
X135900362Y-123085625D01*
X136078162Y-123085625D01*
X136078162Y-123593625D01*
G37*
G36*
X143556081Y-123074512D02*
G01*
X143631487Y-123088800D01*
X143631487Y-123218975D01*
X143507663Y-123196750D01*
X143437812Y-123209450D01*
X143409238Y-123262631D01*
X143403284Y-123317202D01*
X143401300Y-123399950D01*
X143401300Y-123450750D01*
X143631487Y-123450750D01*
X143631487Y-123579337D01*
X143401300Y-123579337D01*
X143401300Y-124244500D01*
X143226675Y-124244500D01*
X143226675Y-123579337D01*
X143052050Y-123579337D01*
X143052050Y-123450750D01*
X143226675Y-123450750D01*
X143226675Y-123358675D01*
X143240566Y-123221356D01*
X143282237Y-123133250D01*
X143357644Y-123085625D01*
X143472737Y-123069750D01*
X143556081Y-123074512D01*
G37*
G36*
X133898525Y-124115913D02*
G01*
X134111250Y-124115913D01*
X134111250Y-124244500D01*
X133720725Y-124244500D01*
X133720725Y-123214212D01*
X133508000Y-123214212D01*
X133508000Y-123085625D01*
X133898525Y-123085625D01*
X133898525Y-124115913D01*
G37*
G36*
X134692275Y-124115913D02*
G01*
X134905000Y-124115913D01*
X134905000Y-124244500D01*
X134514475Y-124244500D01*
X134514475Y-123214212D01*
X134301750Y-123214212D01*
X134301750Y-123085625D01*
X134692275Y-123085625D01*
X134692275Y-124115913D01*
G37*
G36*
X132499937Y-123223737D02*
G01*
X132322137Y-123223737D01*
X132322137Y-124106387D01*
X132499937Y-124106387D01*
X132499937Y-124244500D01*
X131960187Y-124244500D01*
X131960187Y-124106387D01*
X132137987Y-124106387D01*
X132137987Y-123223737D01*
X131960187Y-123223737D01*
X131960187Y-123085625D01*
X132499937Y-123085625D01*
X132499937Y-123223737D01*
G37*
G36*
X144013480Y-124003398D02*
G01*
X144052969Y-124077019D01*
X144114683Y-124118095D01*
X144199813Y-124131787D01*
X144297444Y-124121072D01*
X144406188Y-124088925D01*
X144406188Y-124220688D01*
X144289903Y-124250453D01*
X144179175Y-124260375D01*
X144082305Y-124251628D01*
X144000338Y-124225385D01*
X143933274Y-124181648D01*
X143881114Y-124120416D01*
X143843856Y-124041689D01*
X143821502Y-123945467D01*
X143814050Y-123831750D01*
X143818540Y-123768250D01*
X143995025Y-123768250D01*
X144277600Y-123768250D01*
X144268075Y-123656927D01*
X144242675Y-123583306D01*
X144142663Y-123528537D01*
X144080353Y-123541634D01*
X144036300Y-123580925D01*
X144008519Y-123653950D01*
X143995025Y-123768250D01*
X143818540Y-123768250D01*
X143823310Y-123700781D01*
X143851092Y-123593625D01*
X143897394Y-123510281D01*
X143962217Y-123450750D01*
X144045560Y-123415031D01*
X144147425Y-123403125D01*
X144240382Y-123414326D01*
X144316053Y-123447928D01*
X144374437Y-123503931D01*
X144415889Y-123584806D01*
X144440760Y-123693020D01*
X144449050Y-123828575D01*
X144445875Y-123892075D01*
X143995025Y-123892075D01*
X144013480Y-124003398D01*
G37*
G36*
X137663480Y-124003398D02*
G01*
X137702969Y-124077019D01*
X137764683Y-124118095D01*
X137849812Y-124131787D01*
X137947444Y-124121072D01*
X138056187Y-124088925D01*
X138056187Y-124220688D01*
X137939903Y-124250453D01*
X137829175Y-124260375D01*
X137717609Y-124248469D01*
X137626328Y-124212750D01*
X137555331Y-124153219D01*
X137504619Y-124069875D01*
X137474192Y-123962719D01*
X137464050Y-123831750D01*
X137468540Y-123768250D01*
X137645025Y-123768250D01*
X137927600Y-123768250D01*
X137918075Y-123656927D01*
X137892675Y-123583306D01*
X137792662Y-123528537D01*
X137730353Y-123541634D01*
X137686300Y-123580925D01*
X137658519Y-123653950D01*
X137645025Y-123768250D01*
X137468540Y-123768250D01*
X137473310Y-123700781D01*
X137501092Y-123593625D01*
X137547394Y-123510281D01*
X137612217Y-123450750D01*
X137695560Y-123415031D01*
X137797425Y-123403125D01*
X137890382Y-123414326D01*
X137966053Y-123447928D01*
X138024437Y-123503931D01*
X138065889Y-123584806D01*
X138090760Y-123693020D01*
X138099050Y-123828575D01*
X138095875Y-123892075D01*
X137645025Y-123892075D01*
X137663480Y-124003398D01*
G37*
G36*
X136869730Y-124003398D02*
G01*
X136909219Y-124077019D01*
X136970933Y-124118095D01*
X137056062Y-124131787D01*
X137153694Y-124121072D01*
X137262437Y-124088925D01*
X137262437Y-124220688D01*
X137146153Y-124250453D01*
X137035425Y-124260375D01*
X136923859Y-124248469D01*
X136832578Y-124212750D01*
X136761581Y-124153219D01*
X136710869Y-124069875D01*
X136680442Y-123962719D01*
X136670300Y-123831750D01*
X136674790Y-123768250D01*
X136851275Y-123768250D01*
X137133850Y-123768250D01*
X137124325Y-123656927D01*
X137098925Y-123583306D01*
X136998912Y-123528537D01*
X136936603Y-123541634D01*
X136892550Y-123580925D01*
X136864769Y-123653950D01*
X136851275Y-123768250D01*
X136674790Y-123768250D01*
X136679560Y-123700781D01*
X136707342Y-123593625D01*
X136753644Y-123510281D01*
X136818467Y-123450750D01*
X136901810Y-123415031D01*
X137003675Y-123403125D01*
X137096632Y-123414326D01*
X137172303Y-123447928D01*
X137230687Y-123503931D01*
X137272139Y-123584806D01*
X137297010Y-123693020D01*
X137305300Y-123828575D01*
X137302125Y-123892075D01*
X136851275Y-123892075D01*
X136869730Y-124003398D01*
G37*
G36*
X142388651Y-124229331D02*
G01*
X142324181Y-124190525D01*
X142260483Y-124106387D01*
X142239250Y-123993675D01*
X142407525Y-123993675D01*
X142448800Y-124099244D01*
X142564687Y-124136550D01*
X142669462Y-124115913D01*
X142669462Y-123831750D01*
X142625012Y-123831750D01*
X142526389Y-123841672D01*
X142459119Y-123871437D01*
X142420423Y-123921841D01*
X142407525Y-123993675D01*
X142239250Y-123993675D01*
X142263261Y-123873223D01*
X142335294Y-123784919D01*
X142410171Y-123744790D01*
X142506744Y-123720713D01*
X142625012Y-123712687D01*
X142669462Y-123712687D01*
X142669462Y-123685700D01*
X142644856Y-123562669D01*
X142536112Y-123533300D01*
X142456737Y-123539650D01*
X142371012Y-123558700D01*
X142278937Y-123590450D01*
X142278937Y-123453925D01*
X142371365Y-123425703D01*
X142460265Y-123408769D01*
X142545637Y-123403125D01*
X142691886Y-123419000D01*
X142781381Y-123466625D01*
X142815336Y-123522717D01*
X142835709Y-123606325D01*
X142842500Y-123717450D01*
X142842500Y-124209575D01*
X142753776Y-124237797D01*
X142661172Y-124254731D01*
X142564687Y-124260375D01*
X142468820Y-124252614D01*
X142388651Y-124229331D01*
G37*
G36*
X140043737Y-123982562D02*
G01*
X140073106Y-124099244D01*
X140180262Y-124130200D01*
X140288212Y-124098450D01*
X140286625Y-123419000D01*
X140461250Y-123419000D01*
X140461250Y-124193700D01*
X140378171Y-124230742D01*
X140285567Y-124252967D01*
X140183437Y-124260375D01*
X140076546Y-124253849D01*
X139995054Y-124234269D01*
X139938962Y-124201637D01*
X139890147Y-124117500D01*
X139873875Y-123982562D01*
X139873875Y-123419000D01*
X140043737Y-123419000D01*
X140043737Y-123982562D01*
G37*
G36*
X133090487Y-123482500D02*
G01*
X132955550Y-123482500D01*
X132907925Y-123006250D01*
X133138112Y-123006250D01*
X133090487Y-123482500D01*
G37*
G36*
X145842875Y-123625375D02*
G01*
X145604750Y-123625375D01*
X145604750Y-123355500D01*
X145842875Y-123355500D01*
X145842875Y-123625375D01*
G37*
G36*
X145842875Y-124244500D02*
G01*
X145604750Y-124244500D01*
X145604750Y-123974625D01*
X145842875Y-123974625D01*
X145842875Y-124244500D01*
G37*
%TO.C,kibuzzard-63EE5345*%
G36*
X131283200Y-90858775D02*
G01*
X131183981Y-90839527D01*
X131114925Y-90781781D01*
X131084939Y-90718193D01*
X131066947Y-90630087D01*
X131060950Y-90517462D01*
X131216525Y-90517462D01*
X131221288Y-90624420D01*
X131235575Y-90688119D01*
X131300662Y-90730188D01*
X131367337Y-90692088D01*
X131367337Y-90353950D01*
X131297488Y-90304737D01*
X131233987Y-90346806D01*
X131220891Y-90410505D01*
X131216525Y-90517462D01*
X131060950Y-90517462D01*
X131066683Y-90408013D01*
X131083881Y-90320965D01*
X131112544Y-90256319D01*
X131177036Y-90196192D01*
X131267325Y-90176150D01*
X131376862Y-90215837D01*
X131380037Y-90215837D01*
X131380037Y-90198375D01*
X131342731Y-90092013D01*
X131238750Y-90053913D01*
X131127030Y-90079709D01*
X131049044Y-90157100D01*
X131015089Y-90242825D01*
X130994716Y-90362417D01*
X130987925Y-90515875D01*
X130995157Y-90669333D01*
X131016853Y-90788925D01*
X131053012Y-90874650D01*
X131135166Y-90952041D01*
X131251450Y-90977838D01*
X131351066Y-90964344D01*
X131453062Y-90923863D01*
X131453062Y-91068325D01*
X131345906Y-91100472D01*
X131230812Y-91111188D01*
X131111133Y-91095577D01*
X131012443Y-91048746D01*
X130934744Y-90970694D01*
X130890641Y-90889582D01*
X130859139Y-90786742D01*
X130840238Y-90662173D01*
X130833937Y-90515875D01*
X130840089Y-90370867D01*
X130858544Y-90246992D01*
X130889302Y-90144251D01*
X130932362Y-90062644D01*
X131008739Y-89983710D01*
X131106635Y-89936349D01*
X131226050Y-89920563D01*
X131336350Y-89933262D01*
X131422138Y-89971362D01*
X131483415Y-90034862D01*
X131520182Y-90123763D01*
X131532437Y-90238063D01*
X131532437Y-90755588D01*
X131458883Y-90812914D01*
X131375804Y-90847310D01*
X131300662Y-90856613D01*
X131283200Y-90858775D01*
G37*
G36*
X134374062Y-90706375D02*
G01*
X134377237Y-90706375D01*
X134542337Y-90103125D01*
X134723313Y-90103125D01*
X134343900Y-91277875D01*
X134169275Y-91277875D01*
X134299450Y-90912750D01*
X134024812Y-90103125D01*
X134197850Y-90103125D01*
X134374062Y-90706375D01*
G37*
G36*
X134985426Y-90901108D02*
G01*
X134918575Y-90846869D01*
X134871832Y-90766700D01*
X134843786Y-90656369D01*
X134834437Y-90515875D01*
X135009062Y-90515875D01*
X135019381Y-90659147D01*
X135050337Y-90752412D01*
X135102328Y-90803609D01*
X135175750Y-90820675D01*
X135278937Y-90800038D01*
X135278937Y-90271400D01*
X135221391Y-90230919D01*
X135147175Y-90217425D01*
X135086255Y-90234292D01*
X135043194Y-90284894D01*
X135017595Y-90376373D01*
X135009062Y-90515875D01*
X134834437Y-90515875D01*
X134842463Y-90377762D01*
X134866540Y-90268225D01*
X134906669Y-90187262D01*
X134963378Y-90131700D01*
X135037197Y-90098362D01*
X135128125Y-90087250D01*
X135205516Y-90095981D01*
X135278937Y-90122175D01*
X135278937Y-89738000D01*
X135453562Y-89738000D01*
X135453562Y-90893700D01*
X135372071Y-90921922D01*
X135282112Y-90938856D01*
X135183688Y-90944500D01*
X135175750Y-90943716D01*
X135073797Y-90933652D01*
X134985426Y-90901108D01*
G37*
G36*
X140566900Y-90906400D02*
G01*
X140539913Y-90892906D01*
X140480580Y-90821072D01*
X140435931Y-90708756D01*
X140427112Y-90666687D01*
X140587538Y-90666687D01*
X140636750Y-90778606D01*
X140716125Y-90811150D01*
X140799469Y-90774638D01*
X140827448Y-90721456D01*
X140849475Y-90634937D01*
X140860058Y-90557326D01*
X140866408Y-90462076D01*
X140868525Y-90349188D01*
X140867334Y-90263066D01*
X140863763Y-90188850D01*
X140587538Y-90666687D01*
X140427112Y-90666687D01*
X140415206Y-90609890D01*
X140402770Y-90490034D01*
X140398625Y-90349188D01*
X140563725Y-90349188D01*
X140566900Y-90480950D01*
X140838363Y-90009462D01*
X140790737Y-89915006D01*
X140716125Y-89887225D01*
X140632781Y-89923737D01*
X140604802Y-89976919D01*
X140582775Y-90063438D01*
X140572192Y-90141049D01*
X140565842Y-90236299D01*
X140563725Y-90349188D01*
X140398625Y-90349188D01*
X140402770Y-90208341D01*
X140415206Y-90088485D01*
X140435931Y-89989619D01*
X140480580Y-89877303D01*
X140539913Y-89805469D01*
X140617303Y-89766773D01*
X140716125Y-89753875D01*
X140814947Y-89766773D01*
X140892337Y-89805469D01*
X140951670Y-89877303D01*
X140996319Y-89989619D01*
X141017044Y-90088485D01*
X141029480Y-90208341D01*
X141033625Y-90349188D01*
X141029480Y-90490034D01*
X141017044Y-90609890D01*
X140996319Y-90708756D01*
X140951670Y-90821072D01*
X140892337Y-90892906D01*
X140814947Y-90931602D01*
X140716125Y-90944500D01*
X140617303Y-90931602D01*
X140566900Y-90906400D01*
G37*
G36*
X142416734Y-89771536D02*
G01*
X142513175Y-89824519D01*
X142572706Y-89908855D01*
X142592550Y-90020575D01*
X142580644Y-90122274D01*
X142544925Y-90203534D01*
X142485394Y-90264355D01*
X142402050Y-90304737D01*
X142402050Y-90306325D01*
X142492339Y-90339266D01*
X142556831Y-90398400D01*
X142595527Y-90483728D01*
X142608425Y-90595250D01*
X142598503Y-90701965D01*
X142568738Y-90789278D01*
X142519128Y-90857188D01*
X142449675Y-90905694D01*
X142360378Y-90934799D01*
X142251238Y-90944500D01*
X142121856Y-90931800D01*
X141997238Y-90893700D01*
X141997238Y-90741300D01*
X142112728Y-90790116D01*
X142230600Y-90806388D01*
X142318111Y-90792695D01*
X142380619Y-90751619D01*
X142418123Y-90683158D01*
X142430625Y-90587313D01*
X142416338Y-90493055D01*
X142373475Y-90429356D01*
X142295688Y-90393042D01*
X142176625Y-90380938D01*
X142144875Y-90380938D01*
X142144875Y-90241238D01*
X142176625Y-90241238D01*
X142287353Y-90229331D01*
X142362363Y-90193612D01*
X142405225Y-90132097D01*
X142419513Y-90042800D01*
X142401168Y-89958133D01*
X142346135Y-89907333D01*
X142254413Y-89890400D01*
X142142494Y-89907069D01*
X142019463Y-89957075D01*
X142019463Y-89809437D01*
X142111185Y-89778569D01*
X142200085Y-89760049D01*
X142286162Y-89753875D01*
X142416734Y-89771536D01*
G37*
G36*
X138215813Y-90134875D02*
G01*
X138305109Y-90099156D01*
X138398375Y-90087250D01*
X138509500Y-90104117D01*
X138585700Y-90154719D01*
X138629753Y-90243817D01*
X138644438Y-90376175D01*
X138644438Y-90928625D01*
X138474575Y-90928625D01*
X138476162Y-90420625D01*
X138469812Y-90317834D01*
X138450762Y-90257112D01*
X138353925Y-90217425D01*
X138280503Y-90233300D01*
X138215813Y-90280925D01*
X138215813Y-90928625D01*
X138041188Y-90928625D01*
X138041188Y-89738000D01*
X138215813Y-89738000D01*
X138215813Y-90134875D01*
G37*
G36*
X136167144Y-89758637D02*
G01*
X136242550Y-89772925D01*
X136242550Y-89903100D01*
X136118725Y-89880875D01*
X136048875Y-89893575D01*
X136020300Y-89946756D01*
X136014347Y-90001327D01*
X136012363Y-90084075D01*
X136012363Y-90134875D01*
X136242550Y-90134875D01*
X136242550Y-90263462D01*
X136012363Y-90263462D01*
X136012363Y-90928625D01*
X135837738Y-90928625D01*
X135837738Y-90263462D01*
X135663113Y-90263462D01*
X135663113Y-90134875D01*
X135837738Y-90134875D01*
X135837738Y-90042800D01*
X135851628Y-89905481D01*
X135893300Y-89817375D01*
X135968706Y-89769750D01*
X136083800Y-89753875D01*
X136167144Y-89758637D01*
G37*
G36*
X132859588Y-90800038D02*
G01*
X133072312Y-90800038D01*
X133072312Y-90928625D01*
X132681787Y-90928625D01*
X132681787Y-89898337D01*
X132469062Y-89898337D01*
X132469062Y-89769750D01*
X132859588Y-89769750D01*
X132859588Y-90800038D01*
G37*
G36*
X141627152Y-89773520D02*
G01*
X141715456Y-89832456D01*
X141769630Y-89929492D01*
X141787687Y-90063438D01*
X141777722Y-90163979D01*
X141747824Y-90270871D01*
X141697994Y-90384113D01*
X141646251Y-90474798D01*
X141580717Y-90572231D01*
X141501392Y-90676411D01*
X141408275Y-90787338D01*
X141408275Y-90790512D01*
X141795625Y-90790512D01*
X141795625Y-90928625D01*
X141224125Y-90928625D01*
X141224125Y-90790512D01*
X141326049Y-90672033D01*
X141412292Y-90558802D01*
X141482855Y-90450820D01*
X141537737Y-90348086D01*
X141576939Y-90250601D01*
X141600460Y-90158364D01*
X141608300Y-90071375D01*
X141599767Y-89990412D01*
X141574169Y-89934850D01*
X141470188Y-89891987D01*
X141395575Y-89902394D01*
X141313554Y-89933615D01*
X141224125Y-89985650D01*
X141224125Y-89836425D01*
X141311967Y-89790564D01*
X141406158Y-89763047D01*
X141506700Y-89753875D01*
X141627152Y-89773520D01*
G37*
G36*
X140039652Y-89773520D02*
G01*
X140127956Y-89832456D01*
X140182130Y-89929492D01*
X140200187Y-90063438D01*
X140190222Y-90163979D01*
X140160324Y-90270871D01*
X140110494Y-90384113D01*
X140058751Y-90474798D01*
X139993217Y-90572231D01*
X139913892Y-90676411D01*
X139820775Y-90787338D01*
X139820775Y-90790512D01*
X140208125Y-90790512D01*
X140208125Y-90928625D01*
X139636625Y-90928625D01*
X139636625Y-90790512D01*
X139738549Y-90672033D01*
X139824792Y-90558802D01*
X139895355Y-90450820D01*
X139950237Y-90348086D01*
X139989439Y-90250601D01*
X140012960Y-90158364D01*
X140020800Y-90071375D01*
X140012267Y-89990412D01*
X139986669Y-89934850D01*
X139882688Y-89891987D01*
X139808075Y-89902394D01*
X139726054Y-89933615D01*
X139636625Y-89985650D01*
X139636625Y-89836425D01*
X139724467Y-89790564D01*
X139818658Y-89763047D01*
X139919200Y-89753875D01*
X140039652Y-89773520D01*
G37*
G36*
X144008402Y-89773520D02*
G01*
X144096706Y-89832456D01*
X144150880Y-89929492D01*
X144168938Y-90063438D01*
X144158972Y-90163979D01*
X144129074Y-90270871D01*
X144079244Y-90384113D01*
X144027501Y-90474798D01*
X143961967Y-90572231D01*
X143882642Y-90676411D01*
X143789525Y-90787338D01*
X143789525Y-90790512D01*
X144176875Y-90790512D01*
X144176875Y-90928625D01*
X143605375Y-90928625D01*
X143605375Y-90790512D01*
X143707299Y-90672033D01*
X143793542Y-90558802D01*
X143864105Y-90450820D01*
X143918987Y-90348086D01*
X143958189Y-90250601D01*
X143981710Y-90158364D01*
X143989550Y-90071375D01*
X143981017Y-89990412D01*
X143955419Y-89934850D01*
X143851438Y-89891987D01*
X143776825Y-89902394D01*
X143694804Y-89933615D01*
X143605375Y-89985650D01*
X143605375Y-89836425D01*
X143693217Y-89790564D01*
X143787408Y-89763047D01*
X143887950Y-89753875D01*
X144008402Y-89773520D01*
G37*
G36*
X146566063Y-89907862D02*
G01*
X146525042Y-90007640D01*
X146485237Y-90110827D01*
X146446647Y-90217425D01*
X146409272Y-90327433D01*
X146373113Y-90440851D01*
X146338168Y-90557679D01*
X146304439Y-90677918D01*
X146271924Y-90801566D01*
X146240625Y-90928625D01*
X146054887Y-90928625D01*
X146087519Y-90806309D01*
X146121915Y-90686306D01*
X146158075Y-90568615D01*
X146195999Y-90453237D01*
X146235686Y-90340172D01*
X146277138Y-90229419D01*
X146320353Y-90120979D01*
X146365332Y-90014852D01*
X146412075Y-89911037D01*
X146412075Y-89907862D01*
X145978688Y-89907862D01*
X145978688Y-89769750D01*
X146566063Y-89769750D01*
X146566063Y-89907862D01*
G37*
G36*
X132265863Y-89907862D02*
G01*
X131903912Y-89907862D01*
X131903912Y-90238063D01*
X132249987Y-90238063D01*
X132249987Y-90373000D01*
X131903912Y-90373000D01*
X131903912Y-90928625D01*
X131726113Y-90928625D01*
X131726113Y-89769750D01*
X132265863Y-89769750D01*
X132265863Y-89907862D01*
G37*
G36*
X145651662Y-90928625D02*
G01*
X145473863Y-90928625D01*
X145473863Y-89936437D01*
X145470688Y-89934850D01*
X145197638Y-90087250D01*
X145197638Y-89931675D01*
X145475450Y-89769750D01*
X145651662Y-89769750D01*
X145651662Y-90928625D01*
G37*
G36*
X133386108Y-90899344D02*
G01*
X133321550Y-90842900D01*
X133275689Y-90761408D01*
X133248172Y-90652400D01*
X133239000Y-90515875D01*
X133416800Y-90515875D01*
X133425730Y-90661330D01*
X133452519Y-90751619D01*
X133500342Y-90798648D01*
X133572375Y-90814325D01*
X133644408Y-90798648D01*
X133692231Y-90751619D01*
X133719020Y-90661330D01*
X133727950Y-90515875D01*
X133719020Y-90370420D01*
X133692231Y-90280131D01*
X133644408Y-90233102D01*
X133572375Y-90217425D01*
X133500342Y-90233102D01*
X133452519Y-90280131D01*
X133425730Y-90370420D01*
X133416800Y-90515875D01*
X133239000Y-90515875D01*
X133248172Y-90379350D01*
X133275689Y-90270342D01*
X133321550Y-90188850D01*
X133386108Y-90132406D01*
X133469717Y-90098539D01*
X133572375Y-90087250D01*
X133675033Y-90098539D01*
X133758642Y-90132406D01*
X133823200Y-90188850D01*
X133869061Y-90270342D01*
X133896578Y-90379350D01*
X133905750Y-90515875D01*
X133896578Y-90652400D01*
X133869061Y-90761408D01*
X133823200Y-90842900D01*
X133758642Y-90899344D01*
X133675033Y-90933211D01*
X133572375Y-90944500D01*
X133469717Y-90933211D01*
X133386108Y-90899344D01*
G37*
G36*
X137640256Y-90091131D02*
G01*
X137728097Y-90102772D01*
X137811000Y-90122175D01*
X137811000Y-90253937D01*
X137684000Y-90224172D01*
X137563350Y-90214250D01*
X137459766Y-90240047D01*
X137425238Y-90317437D01*
X137453019Y-90388875D01*
X137547475Y-90433325D01*
X137688961Y-90477775D01*
X137776869Y-90531750D01*
X137822708Y-90604775D01*
X137837988Y-90706375D01*
X137817945Y-90807578D01*
X137757819Y-90882587D01*
X137661180Y-90929022D01*
X137531600Y-90944500D01*
X137434233Y-90938856D01*
X137343217Y-90921922D01*
X137258550Y-90893700D01*
X137258550Y-90754000D01*
X137385153Y-90800434D01*
X137504613Y-90815913D01*
X137625263Y-90789719D01*
X137661775Y-90706375D01*
X137633200Y-90627000D01*
X137528425Y-90579375D01*
X137399441Y-90535520D01*
X137314112Y-90480156D01*
X137266488Y-90408917D01*
X137250613Y-90317437D01*
X137269266Y-90219211D01*
X137325225Y-90146781D01*
X137418094Y-90102133D01*
X137547475Y-90087250D01*
X137640256Y-90091131D01*
G37*
G36*
X136890250Y-90928625D02*
G01*
X136712450Y-90928625D01*
X136712450Y-90231713D01*
X136501313Y-90231713D01*
X136501313Y-90103125D01*
X136890250Y-90103125D01*
X136890250Y-90928625D01*
G37*
G36*
X143227550Y-90928625D02*
G01*
X142973550Y-90928625D01*
X142973550Y-90658750D01*
X143227550Y-90658750D01*
X143227550Y-90928625D01*
G37*
G36*
X144815050Y-90928625D02*
G01*
X144561050Y-90928625D01*
X144561050Y-90658750D01*
X144815050Y-90658750D01*
X144815050Y-90928625D01*
G37*
G36*
X136890250Y-89920563D02*
G01*
X136680700Y-89920563D01*
X136680700Y-89722125D01*
X136890250Y-89722125D01*
X136890250Y-89920563D01*
G37*
%TO.C,kibuzzard-63EE5216*%
G36*
X128531201Y-103192855D02*
G01*
X128513563Y-103280344D01*
X127386437Y-103280344D01*
X127362625Y-103154137D01*
X127354687Y-103023169D01*
X127491213Y-103023169D01*
X127503913Y-103102544D01*
X128396088Y-103102544D01*
X128408788Y-103013644D01*
X128395889Y-102927720D01*
X128357194Y-102866800D01*
X128290320Y-102830486D01*
X128192888Y-102818381D01*
X128094066Y-102831478D01*
X128026200Y-102870769D01*
X127986909Y-102938238D01*
X127973813Y-103035869D01*
X127973813Y-103102544D01*
X127838875Y-103102544D01*
X127838875Y-103056506D01*
X127827961Y-102962844D01*
X127795219Y-102897756D01*
X127738267Y-102859656D01*
X127654725Y-102846956D01*
X127563885Y-102866535D01*
X127509381Y-102925273D01*
X127491213Y-103023169D01*
X127354687Y-103023169D01*
X127366244Y-102898582D01*
X127400915Y-102801681D01*
X127458701Y-102732466D01*
X127539600Y-102690937D01*
X127643613Y-102677094D01*
X127733306Y-102689595D01*
X127808713Y-102727100D01*
X127865069Y-102785242D01*
X127897613Y-102859656D01*
X127899200Y-102859656D01*
X127932934Y-102775320D01*
X127999213Y-102706463D01*
X128089700Y-102660623D01*
X128196063Y-102645344D01*
X128302778Y-102655574D01*
X128390090Y-102686266D01*
X128458000Y-102737419D01*
X128506507Y-102809033D01*
X128535611Y-102901108D01*
X128545313Y-103013644D01*
X128541840Y-103102544D01*
X128541785Y-103103955D01*
X128531201Y-103192855D01*
G37*
G36*
X128331176Y-101085096D02*
G01*
X128412668Y-101109702D01*
X128472288Y-101150713D01*
X128512857Y-101210597D01*
X128537199Y-101291824D01*
X128545313Y-101394394D01*
X128537199Y-101496964D01*
X128512857Y-101578191D01*
X128472288Y-101638075D01*
X128412668Y-101679085D01*
X128331176Y-101703692D01*
X128227812Y-101711894D01*
X127370563Y-101711894D01*
X127370563Y-101532506D01*
X128196063Y-101532506D01*
X128298853Y-101524569D01*
X128362750Y-101500756D01*
X128396088Y-101457497D01*
X128407200Y-101391219D01*
X128363544Y-101281681D01*
X128299845Y-101257869D01*
X128196063Y-101249931D01*
X127370563Y-101249931D01*
X127370563Y-101076894D01*
X128227812Y-101076894D01*
X128331176Y-101085096D01*
G37*
G36*
X127508675Y-100697481D02*
G01*
X127838875Y-100697481D01*
X127838875Y-100335531D01*
X127973813Y-100335531D01*
X127973813Y-100697481D01*
X128391325Y-100697481D01*
X128391325Y-100319656D01*
X128529438Y-100319656D01*
X128529438Y-100875281D01*
X127370563Y-100875281D01*
X127370563Y-100319656D01*
X127508675Y-100319656D01*
X127508675Y-100697481D01*
G37*
G36*
X128529438Y-102434206D02*
G01*
X127370563Y-102434206D01*
X127370563Y-102256406D01*
X128391325Y-102256406D01*
X128391325Y-101886519D01*
X128529438Y-101886519D01*
X128529438Y-102434206D01*
G37*
%TO.C,kibuzzard-63EE520C*%
G36*
X121613563Y-101743594D02*
G01*
X120486437Y-101743594D01*
X120462625Y-101619372D01*
X120454687Y-101494356D01*
X120592800Y-101494356D01*
X120607088Y-101565794D01*
X121494500Y-101565794D01*
X121508788Y-101494356D01*
X121483388Y-101383430D01*
X121407188Y-101307825D01*
X121320581Y-101275634D01*
X121196226Y-101256319D01*
X121034125Y-101249881D01*
X120887369Y-101256408D01*
X120773069Y-101275987D01*
X120691225Y-101308619D01*
X120617406Y-101384422D01*
X120592800Y-101494356D01*
X120454687Y-101494356D01*
X120469063Y-101360036D01*
X120512190Y-101253409D01*
X120584069Y-101174475D01*
X120660715Y-101131761D01*
X120761273Y-101101252D01*
X120885743Y-101082946D01*
X121034125Y-101076844D01*
X121177882Y-101082047D01*
X121300119Y-101097658D01*
X121400838Y-101123675D01*
X121515733Y-101181023D01*
X121590544Y-101259406D01*
X121631620Y-101362594D01*
X121645313Y-101494356D01*
X121637375Y-101624134D01*
X121613563Y-101743594D01*
G37*
G36*
X121629438Y-103323156D02*
G01*
X120486437Y-103323156D01*
X120468799Y-103234609D01*
X120458215Y-103144651D01*
X120454687Y-103053281D01*
X120592800Y-103053281D01*
X120605500Y-103145356D01*
X121010313Y-103145356D01*
X121010313Y-103083444D01*
X120998406Y-102980256D01*
X120962688Y-102911994D01*
X120898394Y-102873894D01*
X120800763Y-102861194D01*
X120707298Y-102873100D01*
X120642806Y-102908819D01*
X120605302Y-102968747D01*
X120592800Y-103053281D01*
X120454687Y-103053281D01*
X120463948Y-102938540D01*
X120491729Y-102846201D01*
X120538031Y-102776262D01*
X120604265Y-102727315D01*
X120691842Y-102697946D01*
X120800763Y-102688156D01*
X120904545Y-102699269D01*
X120988881Y-102732606D01*
X121053770Y-102788169D01*
X121099213Y-102865956D01*
X121102388Y-102865956D01*
X121180969Y-102805631D01*
X121305588Y-102754831D01*
X121629438Y-102656406D01*
X121629438Y-102838969D01*
X121296063Y-102931044D01*
X121224030Y-102957039D01*
X121179381Y-102987400D01*
X121148425Y-103083444D01*
X121148425Y-103145356D01*
X121629438Y-103145356D01*
X121629438Y-103323156D01*
G37*
G36*
X120608675Y-102319856D02*
G01*
X120938875Y-102319856D01*
X120938875Y-101957906D01*
X121073813Y-101957906D01*
X121073813Y-102319856D01*
X121491325Y-102319856D01*
X121491325Y-101942031D01*
X121629438Y-101942031D01*
X121629438Y-102497656D01*
X120470563Y-102497656D01*
X120470563Y-101942031D01*
X120608675Y-101942031D01*
X120608675Y-102319856D01*
G37*
%TO.C,kibuzzard-63EE51DC*%
G36*
X119829438Y-112685888D02*
G01*
X119829438Y-112863688D01*
X118670563Y-112590637D01*
X118670563Y-112490625D01*
X118845188Y-112490625D01*
X119389700Y-112598575D01*
X119389700Y-112381087D01*
X118845188Y-112489038D01*
X118845188Y-112490625D01*
X118670563Y-112490625D01*
X118670563Y-112384262D01*
X119829438Y-112109625D01*
X119829438Y-112293775D01*
X119524638Y-112354100D01*
X119524638Y-112625563D01*
X119829438Y-112685888D01*
G37*
G36*
X119829438Y-113971763D02*
G01*
X119829438Y-114178138D01*
X118670563Y-114435313D01*
X118670563Y-114252750D01*
X119670688Y-114071775D01*
X119670688Y-114070187D01*
X118670563Y-113889213D01*
X118670563Y-113713000D01*
X119829438Y-113971763D01*
G37*
G36*
X119813563Y-108831437D02*
G01*
X118686437Y-108831437D01*
X118662625Y-108707216D01*
X118654687Y-108582200D01*
X118792800Y-108582200D01*
X118807088Y-108653637D01*
X119694500Y-108653637D01*
X119708788Y-108582200D01*
X119683388Y-108471273D01*
X119607188Y-108395669D01*
X119520581Y-108363478D01*
X119396226Y-108344163D01*
X119234125Y-108337725D01*
X119087369Y-108344251D01*
X118973069Y-108363831D01*
X118891225Y-108396462D01*
X118817406Y-108472266D01*
X118792800Y-108582200D01*
X118654687Y-108582200D01*
X118669063Y-108447880D01*
X118712190Y-108341253D01*
X118784069Y-108262319D01*
X118860715Y-108219605D01*
X118961273Y-108189095D01*
X119085743Y-108170789D01*
X119234125Y-108164687D01*
X119377882Y-108169891D01*
X119500119Y-108185501D01*
X119600838Y-108211519D01*
X119715733Y-108268867D01*
X119790544Y-108347250D01*
X119831620Y-108450437D01*
X119845313Y-108582200D01*
X119837375Y-108711978D01*
X119813563Y-108831437D01*
G37*
G36*
X119820618Y-109864194D02*
G01*
X119839139Y-109954153D01*
X119845313Y-110049050D01*
X119835887Y-110142068D01*
X119807609Y-110222683D01*
X119760480Y-110290896D01*
X119694500Y-110346706D01*
X119609668Y-110390114D01*
X119505984Y-110421120D01*
X119383449Y-110439724D01*
X119242063Y-110445925D01*
X119099882Y-110439228D01*
X118978141Y-110419136D01*
X118876838Y-110385650D01*
X118795975Y-110338769D01*
X118717482Y-110255425D01*
X118670386Y-110148269D01*
X118654687Y-110017300D01*
X118663419Y-109916097D01*
X118689613Y-109818863D01*
X118832488Y-109818863D01*
X118803913Y-109920066D01*
X118794388Y-110017300D01*
X118819589Y-110130409D01*
X118895194Y-110209387D01*
X118978538Y-110243783D01*
X119094160Y-110264421D01*
X119242063Y-110271300D01*
X119393404Y-110264774D01*
X119512996Y-110245194D01*
X119600838Y-110212563D01*
X119681800Y-110141125D01*
X119708788Y-110044287D01*
X119689738Y-109949037D01*
X119273813Y-109949037D01*
X119273813Y-110149062D01*
X119138875Y-110149062D01*
X119138875Y-109779175D01*
X119789750Y-109779175D01*
X119820618Y-109864194D01*
G37*
G36*
X119831201Y-113490574D02*
G01*
X119813563Y-113578063D01*
X118686437Y-113578063D01*
X118662625Y-113451856D01*
X118654687Y-113320887D01*
X118791213Y-113320887D01*
X118803913Y-113400263D01*
X119696088Y-113400263D01*
X119708788Y-113311362D01*
X119695889Y-113225439D01*
X119657194Y-113164519D01*
X119590320Y-113128205D01*
X119492888Y-113116100D01*
X119394066Y-113129197D01*
X119326200Y-113168487D01*
X119286909Y-113235956D01*
X119273813Y-113333587D01*
X119273813Y-113400263D01*
X119138875Y-113400263D01*
X119138875Y-113354225D01*
X119127961Y-113260562D01*
X119095219Y-113195475D01*
X119038267Y-113157375D01*
X118954725Y-113144675D01*
X118863885Y-113164254D01*
X118809381Y-113222992D01*
X118791213Y-113320887D01*
X118654687Y-113320887D01*
X118666244Y-113196301D01*
X118700915Y-113099399D01*
X118758701Y-113030184D01*
X118839600Y-112988655D01*
X118943613Y-112974812D01*
X119033306Y-112987314D01*
X119108713Y-113024819D01*
X119165069Y-113082961D01*
X119197613Y-113157375D01*
X119199200Y-113157375D01*
X119232934Y-113073039D01*
X119299213Y-113004181D01*
X119389700Y-112958342D01*
X119496063Y-112943062D01*
X119602778Y-112953293D01*
X119690090Y-112983985D01*
X119758000Y-113035137D01*
X119806507Y-113106751D01*
X119835611Y-113198826D01*
X119845313Y-113311362D01*
X119841840Y-113400263D01*
X119841785Y-113401674D01*
X119831201Y-113490574D01*
G37*
G36*
X118808675Y-111603212D02*
G01*
X119829438Y-111603212D01*
X119829438Y-111781012D01*
X118808675Y-111781012D01*
X118808675Y-112017550D01*
X118670563Y-112017550D01*
X118670563Y-111366675D01*
X118808675Y-111366675D01*
X118808675Y-111603212D01*
G37*
G36*
X119829438Y-109187037D02*
G01*
X118988063Y-109434687D01*
X118988063Y-109437862D01*
X119829438Y-109437862D01*
X119829438Y-109612487D01*
X118670563Y-109612487D01*
X118670563Y-109428337D01*
X119511938Y-109180687D01*
X119511938Y-109175925D01*
X118670563Y-109175925D01*
X118670563Y-109009237D01*
X119829438Y-109009237D01*
X119829438Y-109187037D01*
G37*
%TO.C,kibuzzard-63EE51C1*%
G36*
X119729438Y-104197706D02*
G01*
X119729438Y-104404081D01*
X118570563Y-104661256D01*
X118570563Y-104478694D01*
X119570688Y-104297719D01*
X119570688Y-104296131D01*
X118570563Y-104115156D01*
X118570563Y-103938944D01*
X119729438Y-104197706D01*
G37*
G36*
X119713563Y-101438631D02*
G01*
X118586437Y-101438631D01*
X118562625Y-101314409D01*
X118554687Y-101189394D01*
X118692800Y-101189394D01*
X118707088Y-101260831D01*
X119594500Y-101260831D01*
X119608788Y-101189394D01*
X119583388Y-101078467D01*
X119507188Y-101002863D01*
X119420581Y-100970672D01*
X119296226Y-100951357D01*
X119134125Y-100944919D01*
X118987369Y-100951445D01*
X118873069Y-100971024D01*
X118791225Y-101003656D01*
X118717406Y-101079459D01*
X118692800Y-101189394D01*
X118554687Y-101189394D01*
X118569063Y-101055074D01*
X118612190Y-100948447D01*
X118684069Y-100869512D01*
X118760715Y-100826799D01*
X118861273Y-100796289D01*
X118985743Y-100777983D01*
X119134125Y-100771881D01*
X119277882Y-100777085D01*
X119400119Y-100792695D01*
X119500838Y-100818712D01*
X119615733Y-100876061D01*
X119690544Y-100954444D01*
X119731620Y-101057631D01*
X119745313Y-101189394D01*
X119737375Y-101319172D01*
X119713563Y-101438631D01*
G37*
G36*
X119720618Y-102471388D02*
G01*
X119739139Y-102561347D01*
X119745313Y-102656244D01*
X119735887Y-102749261D01*
X119707609Y-102829877D01*
X119660480Y-102898089D01*
X119594500Y-102953900D01*
X119509668Y-102997308D01*
X119405984Y-103028314D01*
X119283449Y-103046918D01*
X119142063Y-103053119D01*
X118999882Y-103046421D01*
X118878141Y-103026330D01*
X118776838Y-102992843D01*
X118695975Y-102945963D01*
X118617482Y-102862619D01*
X118570386Y-102755462D01*
X118554687Y-102624494D01*
X118563419Y-102523291D01*
X118589613Y-102426056D01*
X118732488Y-102426056D01*
X118703913Y-102527259D01*
X118694388Y-102624494D01*
X118719589Y-102737603D01*
X118795194Y-102816581D01*
X118878538Y-102850977D01*
X118994160Y-102871615D01*
X119142063Y-102878494D01*
X119293404Y-102871967D01*
X119412996Y-102852388D01*
X119500838Y-102819756D01*
X119581800Y-102748319D01*
X119608788Y-102651481D01*
X119589738Y-102556231D01*
X119173813Y-102556231D01*
X119173813Y-102756256D01*
X119038875Y-102756256D01*
X119038875Y-102386369D01*
X119689750Y-102386369D01*
X119720618Y-102471388D01*
G37*
G36*
X119729438Y-101794231D02*
G01*
X118888063Y-102041881D01*
X118888063Y-102045056D01*
X119729438Y-102045056D01*
X119729438Y-102219681D01*
X118570563Y-102219681D01*
X118570563Y-102035531D01*
X119411938Y-101787881D01*
X119411938Y-101783119D01*
X118570563Y-101783119D01*
X118570563Y-101616431D01*
X119729438Y-101616431D01*
X119729438Y-101794231D01*
G37*
G36*
X119485668Y-104805366D02*
G01*
X119584093Y-104832883D01*
X119656413Y-104878744D01*
X119705801Y-104944537D01*
X119735435Y-105031849D01*
X119745313Y-105140681D01*
X119733406Y-105258553D01*
X119697688Y-105367694D01*
X119546875Y-105367694D01*
X119592119Y-105259347D01*
X119607200Y-105153381D01*
X119593508Y-105072419D01*
X119552431Y-105016856D01*
X119477223Y-104984709D01*
X119361138Y-104973994D01*
X119251005Y-104981534D01*
X119177781Y-105004156D01*
X119123013Y-105097819D01*
X119138888Y-105158541D01*
X119186513Y-105213706D01*
X119186513Y-105359756D01*
X118570563Y-105343881D01*
X118570563Y-104827944D01*
X118707088Y-104827944D01*
X118707088Y-105181956D01*
X119027763Y-105193069D01*
X119027763Y-105189894D01*
X118997997Y-105125600D01*
X118988075Y-105050194D01*
X119002998Y-104958754D01*
X119047765Y-104887634D01*
X119122377Y-104836834D01*
X119226835Y-104806354D01*
X119361138Y-104796194D01*
X119485668Y-104805366D01*
G37*
G36*
X119316687Y-105801081D02*
G01*
X119650063Y-105801081D01*
X119650063Y-105970944D01*
X119316687Y-105970944D01*
X119316687Y-106228119D01*
X119184925Y-106228119D01*
X119184925Y-105970944D01*
X118856312Y-105970944D01*
X118856312Y-105801081D01*
X119184925Y-105801081D01*
X119184925Y-105545494D01*
X119316687Y-105545494D01*
X119316687Y-105801081D01*
G37*
%TO.C,kibuzzard-63EE512D*%
G36*
X119330869Y-123321731D02*
G01*
X119330869Y-122959781D01*
X119478506Y-122959781D01*
X119481681Y-123042013D01*
X119491206Y-123122976D01*
X119507081Y-123202668D01*
X120535781Y-123202668D01*
X120535781Y-123042648D01*
X120178594Y-123042648D01*
X120185738Y-122959781D01*
X120176213Y-122857943D01*
X120147638Y-122775313D01*
X120100013Y-122711893D01*
X120031591Y-122667046D01*
X119940628Y-122640138D01*
X119827121Y-122631168D01*
X119715599Y-122639899D01*
X119626779Y-122666093D01*
X119560659Y-122709749D01*
X119515019Y-122772456D01*
X119487634Y-122855799D01*
X119478506Y-122959781D01*
X119330869Y-122959781D01*
X119330869Y-122219688D01*
X119778544Y-122219688D01*
X119788704Y-122312081D01*
X119819184Y-122387328D01*
X119869984Y-122445431D01*
X119943326Y-122486706D01*
X120041434Y-122511471D01*
X120164306Y-122519726D01*
X120287179Y-122511471D01*
X120385286Y-122486706D01*
X120458629Y-122445431D01*
X120509429Y-122387328D01*
X120539909Y-122312081D01*
X120550069Y-122219688D01*
X120539909Y-122127296D01*
X120509429Y-122052048D01*
X120458629Y-121993946D01*
X120385286Y-121952671D01*
X120287179Y-121927906D01*
X120164306Y-121919651D01*
X120041434Y-121927906D01*
X119943326Y-121952671D01*
X119869984Y-121993946D01*
X119819184Y-122052048D01*
X119788704Y-122127296D01*
X119778544Y-122219688D01*
X119330869Y-122219688D01*
X119330869Y-121169557D01*
X119792831Y-121169557D01*
X119792831Y-121299573D01*
X120407194Y-121351008D01*
X120407194Y-121355294D01*
X119792831Y-121436733D01*
X119792831Y-121558177D01*
X120357188Y-121645331D01*
X120357188Y-121648188D01*
X119792831Y-121693908D01*
X119792831Y-121841069D01*
X120535781Y-121748201D01*
X120535781Y-121601039D01*
X119951423Y-121515314D01*
X119951423Y-121512457D01*
X120535781Y-121436733D01*
X120535781Y-121262426D01*
X119792831Y-121169557D01*
X119330869Y-121169557D01*
X119330869Y-120780937D01*
X119778544Y-120780937D01*
X119789259Y-120872615D01*
X119821406Y-120947624D01*
X119874984Y-121005965D01*
X119949994Y-121047637D01*
X120046434Y-121072640D01*
X120164306Y-121080974D01*
X120266651Y-121074268D01*
X120353251Y-121054149D01*
X120424105Y-121020617D01*
X120479214Y-120973672D01*
X120518578Y-120913315D01*
X120542196Y-120839545D01*
X120550069Y-120752362D01*
X120541139Y-120652707D01*
X120514350Y-120548051D01*
X120395764Y-120548051D01*
X120424696Y-120645920D01*
X120434340Y-120733788D01*
X120422017Y-120810405D01*
X120385048Y-120865948D01*
X120318790Y-120901488D01*
X120218599Y-120918097D01*
X120218599Y-120512332D01*
X120161449Y-120509474D01*
X120039449Y-120516936D01*
X119942056Y-120539319D01*
X119869269Y-120576626D01*
X119818866Y-120629172D01*
X119788624Y-120697276D01*
X119778544Y-120780937D01*
X119330869Y-120780937D01*
X119330869Y-119823674D01*
X119778544Y-119823674D01*
X119781516Y-119921172D01*
X119790431Y-120017070D01*
X119805290Y-120111367D01*
X119826093Y-120204065D01*
X119852839Y-120295162D01*
X120535781Y-120295162D01*
X120535781Y-120137999D01*
X119938564Y-120139428D01*
X119915545Y-120038304D01*
X119901734Y-119933053D01*
X119897130Y-119823674D01*
X119778544Y-119823674D01*
X119330869Y-119823674D01*
X119330869Y-118630668D01*
X119478506Y-118630668D01*
X119486444Y-118715996D01*
X119510256Y-118787196D01*
X119549944Y-118844266D01*
X119635669Y-118900523D01*
X119749969Y-118919276D01*
X119851410Y-118904452D01*
X119935706Y-118859982D01*
X119985236Y-118810849D01*
X120032861Y-118742507D01*
X120078581Y-118654957D01*
X120115372Y-118593699D01*
X120157163Y-118552801D01*
X120207883Y-118529763D01*
X120271463Y-118522083D01*
X120338078Y-118532084D01*
X120386477Y-118562088D01*
X120415945Y-118609951D01*
X120425768Y-118673531D01*
X120415449Y-118757192D01*
X120384493Y-118836726D01*
X120332899Y-118912132D01*
X120481489Y-118912132D01*
X120519589Y-118838789D01*
X120542449Y-118757827D01*
X120550069Y-118669244D01*
X120538639Y-118558659D01*
X120504349Y-118472648D01*
X120447199Y-118411212D01*
X120367189Y-118374350D01*
X120264319Y-118362063D01*
X120153948Y-118377422D01*
X120065723Y-118423499D01*
X120014764Y-118475728D01*
X119964758Y-118550499D01*
X119915704Y-118647813D01*
X119873000Y-118711313D01*
X119815374Y-118749413D01*
X119742825Y-118762113D01*
X119684246Y-118752112D01*
X119639955Y-118722108D01*
X119612094Y-118674602D01*
X119602808Y-118612094D01*
X119618167Y-118501009D01*
X119664244Y-118390638D01*
X119521369Y-118390638D01*
X119497556Y-118467473D01*
X119483269Y-118547483D01*
X119478506Y-118630668D01*
X119330869Y-118630668D01*
X119330869Y-117597682D01*
X119792831Y-117597682D01*
X119792831Y-117727698D01*
X120407194Y-117779133D01*
X120407194Y-117783419D01*
X119792831Y-117864858D01*
X119792831Y-117986302D01*
X120357188Y-118073456D01*
X120357188Y-118076313D01*
X119792831Y-118122033D01*
X119792831Y-118269194D01*
X120535781Y-118176326D01*
X120535781Y-118029164D01*
X119951423Y-117943439D01*
X119951423Y-117940582D01*
X120535781Y-117864858D01*
X120535781Y-117690551D01*
X119792831Y-117597682D01*
X119330869Y-117597682D01*
X119330869Y-117440519D01*
X119792831Y-117440519D01*
X119908560Y-117440519D01*
X119908560Y-117250496D01*
X120535781Y-117250496D01*
X120535781Y-117090476D01*
X119792831Y-117090476D01*
X119792831Y-117440519D01*
X119330869Y-117440519D01*
X119330869Y-117279071D01*
X119449931Y-117279071D01*
X119628525Y-117279071D01*
X119628525Y-117090476D01*
X119449931Y-117090476D01*
X119449931Y-117279071D01*
X119330869Y-117279071D01*
X119330869Y-116636133D01*
X119549944Y-116636133D01*
X119821406Y-116636133D01*
X119821406Y-116783294D01*
X119937135Y-116783294D01*
X119937135Y-116636133D01*
X120321469Y-116636133D01*
X120432197Y-116623453D01*
X120501491Y-116585412D01*
X120537924Y-116514868D01*
X120550069Y-116404676D01*
X120545783Y-116325737D01*
X120532924Y-116254657D01*
X120402908Y-116254657D01*
X120418981Y-116315736D01*
X120424339Y-116376101D01*
X120400764Y-116461826D01*
X120292894Y-116480399D01*
X119937135Y-116480399D01*
X119937135Y-116240369D01*
X119821406Y-116240369D01*
X119821406Y-116480399D01*
X119549944Y-116480399D01*
X119549944Y-116636133D01*
X119330869Y-116636133D01*
X119330869Y-115730306D01*
X119778544Y-115730306D01*
X119786416Y-115819384D01*
X119810035Y-115894758D01*
X119849398Y-115956427D01*
X119904507Y-116004392D01*
X119975361Y-116038653D01*
X120061961Y-116059210D01*
X120164306Y-116066062D01*
X120281464Y-116056219D01*
X120377666Y-116026692D01*
X120452914Y-115977479D01*
X120506889Y-115910328D01*
X120539274Y-115826984D01*
X120550069Y-115727448D01*
X120541139Y-115637794D01*
X120514350Y-115551712D01*
X120397193Y-115551712D01*
X120428268Y-115631722D01*
X120438626Y-115708874D01*
X120421481Y-115790670D01*
X120370046Y-115853178D01*
X120284321Y-115892826D01*
X120164306Y-115906042D01*
X120047685Y-115894612D01*
X119963567Y-115860322D01*
X119912668Y-115805672D01*
X119895701Y-115733163D01*
X119899988Y-115694587D01*
X120064294Y-115694587D01*
X120064294Y-115544568D01*
X119807119Y-115544568D01*
X119785687Y-115632436D01*
X119778544Y-115730306D01*
X119330869Y-115730306D01*
X119330869Y-115340257D01*
X119464219Y-115340257D01*
X120535781Y-115340257D01*
X120535781Y-115183094D01*
X119952851Y-115183094D01*
X119909989Y-115124873D01*
X119895701Y-115058793D01*
X119931420Y-114971639D01*
X119986070Y-114954494D01*
X120078581Y-114948779D01*
X120535781Y-114950208D01*
X120535781Y-114797332D01*
X120038576Y-114797332D01*
X119919454Y-114810548D01*
X119839266Y-114850196D01*
X119793724Y-114918776D01*
X119778544Y-115018788D01*
X119789259Y-115102727D01*
X119821406Y-115183094D01*
X119464219Y-115183094D01*
X119464219Y-115340257D01*
X119330869Y-115340257D01*
X119330869Y-114678269D01*
X120669131Y-114678269D01*
X120669131Y-123321731D01*
X119330869Y-123321731D01*
G37*
G36*
X120295215Y-122087707D02*
G01*
X120376476Y-122111818D01*
X120418802Y-122154859D01*
X120432911Y-122219688D01*
X120418802Y-122284518D01*
X120376476Y-122327559D01*
X120295215Y-122351669D01*
X120164306Y-122359706D01*
X120033397Y-122351669D01*
X119952137Y-122327559D01*
X119909810Y-122284518D01*
X119895701Y-122219688D01*
X119909810Y-122154859D01*
X119952137Y-122111818D01*
X120033397Y-122087707D01*
X120164306Y-122079671D01*
X120295215Y-122087707D01*
G37*
G36*
X119936956Y-122797439D02*
G01*
X120009287Y-122829050D01*
X120049470Y-122882807D01*
X120062865Y-122959781D01*
X120052864Y-123042648D01*
X119614238Y-123042648D01*
X119602808Y-122959781D01*
X119616023Y-122882807D01*
X119655671Y-122829050D01*
X119724966Y-122797439D01*
X119827121Y-122786902D01*
X119936956Y-122797439D01*
G37*
G36*
X120107156Y-120918097D02*
G01*
X120004286Y-120905953D01*
X119938564Y-120880949D01*
X119903202Y-120841302D01*
X119891415Y-120785223D01*
X119940707Y-120695212D01*
X120006965Y-120672352D01*
X120107156Y-120663779D01*
X120107156Y-120918097D01*
G37*
D10*
%TO.C,C19*%
X173411252Y-95064999D02*
X172888748Y-95064999D01*
X173411252Y-96534999D02*
X172888748Y-96534999D01*
%TO.C,J8*%
X111390000Y-101000000D02*
X112390000Y-101000000D01*
X112390000Y-101000000D02*
X112390000Y-102200000D01*
X111790000Y-103000000D02*
X112390000Y-103000000D01*
X118010000Y-98740000D02*
X111390000Y-98740000D01*
X114700000Y-98740000D02*
X114700000Y-99750000D01*
X117300000Y-99750000D02*
X113000000Y-99750000D01*
X112390000Y-102200000D02*
X111790000Y-102200000D01*
X111390000Y-104200000D02*
X111390000Y-106460000D01*
X113000000Y-105450000D02*
X117300000Y-105450000D01*
X112390000Y-103000000D02*
X112390000Y-104200000D01*
X117300000Y-105450000D02*
X117300000Y-99750000D01*
X114700000Y-106460000D02*
X114700000Y-105450000D01*
X111090000Y-105510000D02*
X111090000Y-106760000D01*
X111390000Y-106460000D02*
X118010000Y-106460000D01*
X111790000Y-102200000D02*
X111790000Y-103000000D01*
X111090000Y-106760000D02*
X112340000Y-106760000D01*
X111390000Y-98740000D02*
X111390000Y-101000000D01*
X112390000Y-104200000D02*
X111390000Y-104200000D01*
X118010000Y-106460000D02*
X118010000Y-98740000D01*
X113000000Y-99750000D02*
X113000000Y-105450000D01*
%TO.C,R19*%
X176635000Y-118372936D02*
X176635000Y-118827064D01*
X175165000Y-118372936D02*
X175165000Y-118827064D01*
%TO.C,C16*%
X169340001Y-106722836D02*
X169340001Y-106507164D01*
X168620001Y-106722836D02*
X168620001Y-106507164D01*
%TO.C,R22*%
X170360000Y-117278641D02*
X170360000Y-116971359D01*
X169600000Y-117278641D02*
X169600000Y-116971359D01*
%TO.C,C45*%
X132587835Y-120119813D02*
X132372163Y-120119813D01*
X132587835Y-119399813D02*
X132372163Y-119399813D01*
%TO.C,J1*%
X113000000Y-114350000D02*
X117300000Y-114350000D01*
X111390000Y-107640000D02*
X111390000Y-109900000D01*
X117300000Y-114350000D02*
X117300000Y-108650000D01*
X114700000Y-107640000D02*
X114700000Y-108650000D01*
X118010000Y-107640000D02*
X111390000Y-107640000D01*
X111390000Y-109900000D02*
X112390000Y-109900000D01*
X112390000Y-111100000D02*
X111790000Y-111100000D01*
X113000000Y-108650000D02*
X113000000Y-114350000D01*
X114700000Y-115360000D02*
X114700000Y-114350000D01*
X111790000Y-111100000D02*
X111790000Y-111900000D01*
X111390000Y-115360000D02*
X118010000Y-115360000D01*
X111090000Y-115660000D02*
X112340000Y-115660000D01*
X112390000Y-113100000D02*
X111390000Y-113100000D01*
X118010000Y-115360000D02*
X118010000Y-107640000D01*
X111090000Y-114410000D02*
X111090000Y-115660000D01*
X111390000Y-113100000D02*
X111390000Y-115360000D01*
X112390000Y-111900000D02*
X112390000Y-113100000D01*
X117300000Y-108650000D02*
X113000000Y-108650000D01*
X112390000Y-109900000D02*
X112390000Y-111100000D01*
X111790000Y-111900000D02*
X112390000Y-111900000D01*
%TO.C,U1*%
X142500000Y-105289999D02*
X144000000Y-105289999D01*
X141000000Y-108509999D02*
X144000000Y-108509999D01*
%TO.C,R36*%
X164300000Y-117278641D02*
X164300000Y-116971359D01*
X165060000Y-117278641D02*
X165060000Y-116971359D01*
%TO.C,C24*%
X166620000Y-106732836D02*
X166620000Y-106517164D01*
X167340000Y-106732836D02*
X167340000Y-106517164D01*
%TO.C,R39*%
X164060001Y-106778641D02*
X164060001Y-106471359D01*
X163300001Y-106778641D02*
X163300001Y-106471359D01*
%TO.C,R35*%
X133320000Y-112986265D02*
X133320000Y-113293547D01*
X134080000Y-112986265D02*
X134080000Y-113293547D01*
%TO.C,R37*%
X164060000Y-116971359D02*
X164060000Y-117278641D01*
X163300000Y-116971359D02*
X163300000Y-117278641D01*
%TO.C,C4*%
X173411252Y-119215000D02*
X172888748Y-119215000D01*
X173411252Y-120685000D02*
X172888748Y-120685000D01*
%TO.C,C14*%
X168620000Y-117017164D02*
X168620000Y-117232836D01*
X169340000Y-117017164D02*
X169340000Y-117232836D01*
%TO.C,R44*%
X133580000Y-106071047D02*
X133580000Y-105763765D01*
X132820000Y-106071047D02*
X132820000Y-105763765D01*
%TO.C,U8*%
X135310000Y-111017406D02*
X135310000Y-108017406D01*
X132090000Y-109517406D02*
X132090000Y-108017406D01*
%TO.C,R41*%
X135594906Y-106071047D02*
X135594906Y-105763765D01*
X134834906Y-106071047D02*
X134834906Y-105763765D01*
%TO.C,kibuzzard-6378A997*%
G36*
X159463432Y-118472937D02*
G01*
X159523618Y-118505619D01*
X159558444Y-118560448D01*
X159570052Y-118637779D01*
X159558623Y-118717789D01*
X159178575Y-118717789D01*
X159178575Y-118657781D01*
X159190362Y-118569913D01*
X159225724Y-118509191D01*
X159286803Y-118473830D01*
X159375742Y-118462042D01*
X159463432Y-118472937D01*
G37*
G36*
X158973470Y-120635171D02*
G01*
X159035383Y-120678034D01*
X159075705Y-120749471D01*
X159037288Y-120819321D01*
X158975375Y-120861231D01*
X158889967Y-120875201D01*
X158825317Y-120867165D01*
X158779954Y-120843054D01*
X158744235Y-120743756D01*
X158781382Y-120653031D01*
X158827102Y-120628920D01*
X158889967Y-120620884D01*
X158973470Y-120635171D01*
G37*
G36*
X159150000Y-121612754D02*
G01*
X158488012Y-121171429D01*
X158488012Y-120752329D01*
X158621362Y-120752329D01*
X158638507Y-120870201D01*
X158689942Y-120958069D01*
X158771381Y-121012718D01*
X158878538Y-121030935D01*
X158955333Y-121021112D01*
X159028556Y-120991644D01*
X159091778Y-120946103D01*
X159138570Y-120888060D01*
X159139999Y-120888060D01*
X159187237Y-120959944D01*
X159247512Y-121011290D01*
X159320825Y-121042097D01*
X159407175Y-121052366D01*
X159492344Y-121043794D01*
X159563068Y-121018076D01*
X159619344Y-120975214D01*
X159660222Y-120916476D01*
X159684749Y-120843134D01*
X159692925Y-120755186D01*
X159684749Y-120666921D01*
X159660222Y-120592626D01*
X159619344Y-120532301D01*
X159563068Y-120487851D01*
X159492344Y-120461181D01*
X159407175Y-120452291D01*
X159314663Y-120463543D01*
X159234296Y-120497297D01*
X159169288Y-120551411D01*
X159122854Y-120623741D01*
X159119996Y-120623741D01*
X159074098Y-120561233D01*
X159016412Y-120513728D01*
X158950154Y-120483724D01*
X158878538Y-120473723D01*
X158770488Y-120491939D01*
X158689228Y-120546589D01*
X158638329Y-120634457D01*
X158621362Y-120752329D01*
X158488012Y-120752329D01*
X158488012Y-120037954D01*
X158621362Y-120037954D01*
X158632971Y-120126893D01*
X158667797Y-120196545D01*
X158732448Y-120249945D01*
X158833532Y-120290128D01*
X158922511Y-120308781D01*
X159030382Y-120319973D01*
X159157144Y-120323704D01*
X159283906Y-120319973D01*
X159391776Y-120308781D01*
X159480756Y-120290128D01*
X159581840Y-120249945D01*
X159646491Y-120196545D01*
X159681316Y-120126893D01*
X159692925Y-120037954D01*
X159681316Y-119949014D01*
X159646491Y-119879362D01*
X159581840Y-119825963D01*
X159480756Y-119785779D01*
X159391776Y-119767126D01*
X159283906Y-119755934D01*
X159157144Y-119752204D01*
X159030382Y-119755934D01*
X158922511Y-119767126D01*
X158833532Y-119785779D01*
X158732448Y-119825963D01*
X158667797Y-119879362D01*
X158632971Y-119949014D01*
X158621362Y-120037954D01*
X158488012Y-120037954D01*
X158488012Y-119216422D01*
X158607075Y-119216422D01*
X158952833Y-119216422D01*
X158929258Y-119282502D01*
X158921400Y-119352154D01*
X158931401Y-119433989D01*
X158961405Y-119500426D01*
X159011411Y-119551464D01*
X159084278Y-119587580D01*
X159182861Y-119609249D01*
X159307162Y-119616473D01*
X159433607Y-119608059D01*
X159532905Y-119582817D01*
X159605057Y-119540749D01*
X159653873Y-119480583D01*
X159683162Y-119401049D01*
X159692925Y-119302148D01*
X159687845Y-119213565D01*
X159672605Y-119132603D01*
X159647205Y-119059260D01*
X158607075Y-119059260D01*
X158607075Y-119216422D01*
X158488012Y-119216422D01*
X158488012Y-118646351D01*
X158621362Y-118646351D01*
X158628506Y-118764223D01*
X158649937Y-118877809D01*
X159664350Y-118877809D01*
X159680225Y-118799069D01*
X159689750Y-118719059D01*
X159692925Y-118637779D01*
X159684194Y-118536496D01*
X159658000Y-118453629D01*
X159614344Y-118389176D01*
X159553225Y-118343139D01*
X159474644Y-118315516D01*
X159378600Y-118306309D01*
X159282874Y-118320060D01*
X159201435Y-118361316D01*
X159141785Y-118423288D01*
X159111424Y-118499190D01*
X159109995Y-118499190D01*
X159080706Y-118432217D01*
X159029985Y-118379889D01*
X158962119Y-118346135D01*
X158881395Y-118334884D01*
X158787783Y-118347342D01*
X158714974Y-118384719D01*
X158662968Y-118447012D01*
X158631764Y-118534223D01*
X158621362Y-118646351D01*
X158488012Y-118646351D01*
X158488012Y-118187246D01*
X159811988Y-118187246D01*
X159811988Y-121171429D01*
X159150000Y-121612754D01*
G37*
G36*
X159258744Y-119902699D02*
G01*
X159344469Y-119908414D01*
X159414319Y-119917939D01*
X159492186Y-119937763D01*
X159540049Y-119962944D01*
X159572910Y-120037954D01*
X159543621Y-120109391D01*
X159442894Y-120153682D01*
X159012840Y-119905080D01*
X159079634Y-119901865D01*
X159157144Y-119900794D01*
X159258744Y-119902699D01*
G37*
G36*
X159275730Y-120172256D02*
G01*
X159157144Y-120175114D01*
X159055544Y-120173209D01*
X158969819Y-120167494D01*
X158899969Y-120157969D01*
X158822102Y-120138145D01*
X158774239Y-120112963D01*
X158741378Y-120037954D01*
X158766381Y-119970803D01*
X158851391Y-119927940D01*
X159275730Y-120172256D01*
G37*
G36*
X158966584Y-118499190D02*
G01*
X159017841Y-118533480D01*
X159047309Y-118592059D01*
X159057131Y-118676355D01*
X159057131Y-118717789D01*
X158755665Y-118717789D01*
X158744235Y-118646351D01*
X158760586Y-118558245D01*
X158809640Y-118505381D01*
X158891396Y-118487760D01*
X158966584Y-118499190D01*
G37*
G36*
X159491789Y-120625964D02*
G01*
X159549415Y-120675494D01*
X159568624Y-120758044D01*
X159557730Y-120820194D01*
X159525047Y-120866629D01*
X159470933Y-120895561D01*
X159395745Y-120905205D01*
X159304623Y-120889965D01*
X159236995Y-120844245D01*
X159192863Y-120768045D01*
X159236995Y-120679939D01*
X159304623Y-120627075D01*
X159395745Y-120609454D01*
X159491789Y-120625964D01*
G37*
G36*
X159581483Y-119309291D02*
G01*
X159566123Y-119375371D01*
X159520046Y-119422162D01*
X159436107Y-119450023D01*
X159307162Y-119459310D01*
X159181611Y-119451630D01*
X159099279Y-119428592D01*
X159053738Y-119389837D01*
X159038557Y-119335009D01*
X159050702Y-119268215D01*
X159087135Y-119216422D01*
X159562909Y-119216422D01*
X159581483Y-119309291D01*
G37*
%TO.C,C44*%
X146959999Y-119161976D02*
X146959999Y-119377648D01*
X146239999Y-119161976D02*
X146239999Y-119377648D01*
%TO.C,R6*%
X139053640Y-106520000D02*
X138746358Y-106520000D01*
X139053640Y-107280000D02*
X138746358Y-107280000D01*
%TO.C,C61*%
X137963668Y-110627635D02*
X140728456Y-113392423D01*
X142050746Y-112070133D02*
X139285958Y-109305345D01*
X139285958Y-109305345D02*
X137963668Y-110627635D01*
%TO.C,R34*%
X132069906Y-112996265D02*
X132069906Y-113303547D01*
X131309906Y-112996265D02*
X131309906Y-113303547D01*
%TO.C,R30*%
X132628640Y-117129906D02*
X132321358Y-117129906D01*
X132628640Y-116369906D02*
X132321358Y-116369906D01*
%TO.C,J2*%
X179310000Y-111900000D02*
X179310000Y-111300000D01*
X182310000Y-113300000D02*
X182310000Y-114100000D01*
X182310000Y-114100000D02*
X182110000Y-114100000D01*
X182110000Y-111100000D02*
X182310000Y-111100000D01*
X179310000Y-114100000D02*
X179310000Y-113300000D01*
X179510000Y-114100000D02*
X179310000Y-114100000D01*
X179310000Y-111300000D02*
X179510000Y-111100000D01*
X179310000Y-111900000D02*
X178810000Y-111900000D01*
X182310000Y-111100000D02*
X182310000Y-111900000D01*
X179310000Y-113300000D02*
X178810000Y-113300000D01*
%TO.C,R14*%
X145946357Y-106780001D02*
X146253639Y-106780001D01*
X145946357Y-106020001D02*
X146253639Y-106020001D01*
%TO.C,C26*%
X141290093Y-92377406D02*
X141290093Y-99137406D01*
X144710093Y-99137406D02*
X144710093Y-92377406D01*
X144710093Y-92377406D02*
X141290093Y-92377406D01*
%TO.C,R38*%
X165060000Y-106471360D02*
X165060000Y-106778642D01*
X164300000Y-106471360D02*
X164300000Y-106778642D01*
%TO.C,U11*%
X122890000Y-106100000D02*
X122890000Y-105300000D01*
X126010000Y-106100000D02*
X126010000Y-106900000D01*
X126010000Y-106100000D02*
X126010000Y-105300000D01*
X122890000Y-106100000D02*
X122890000Y-107900000D01*
%TO.C,C6*%
X173411252Y-116585000D02*
X172888748Y-116585000D01*
X173411252Y-115115000D02*
X172888748Y-115115000D01*
%TO.C,R43*%
X176635000Y-108372936D02*
X176635000Y-108827064D01*
X175165000Y-108372936D02*
X175165000Y-108827064D01*
%TO.C,C71*%
X125810000Y-102712164D02*
X125810000Y-102927836D01*
X125090000Y-102712164D02*
X125090000Y-102927836D01*
%TO.C,R20*%
X144979999Y-119116171D02*
X144979999Y-119423453D01*
X144219999Y-119116171D02*
X144219999Y-119423453D01*
%TO.C,R17*%
X146479999Y-112223453D02*
X146479999Y-111916171D01*
X145719999Y-112223453D02*
X145719999Y-111916171D01*
%TO.C,kibuzzard-6378A7EA*%
G36*
X179510724Y-116411016D02*
G01*
X179450558Y-116362201D01*
X179408489Y-116290049D01*
X179383248Y-116190751D01*
X179374834Y-116064306D01*
X179531997Y-116064306D01*
X179541284Y-116193251D01*
X179569144Y-116277190D01*
X179615936Y-116323267D01*
X179682016Y-116338626D01*
X179774884Y-116320053D01*
X179774884Y-115844279D01*
X179723092Y-115807846D01*
X179656298Y-115795701D01*
X179601470Y-115810882D01*
X179562715Y-115856423D01*
X179539676Y-115938755D01*
X179531997Y-116064306D01*
X179374834Y-116064306D01*
X179382057Y-115940005D01*
X179403727Y-115841421D01*
X179439842Y-115768555D01*
X179490881Y-115718549D01*
X179557317Y-115688545D01*
X179639153Y-115678544D01*
X179708805Y-115686402D01*
X179774884Y-115709976D01*
X179774884Y-115364219D01*
X179932047Y-115364219D01*
X179932047Y-116404349D01*
X179858704Y-116429749D01*
X179777742Y-116444989D01*
X179689159Y-116450069D01*
X179682016Y-116449364D01*
X179590258Y-116440306D01*
X179510724Y-116411016D01*
G37*
G36*
X180271554Y-116218790D02*
G01*
X180307094Y-116285048D01*
X180362636Y-116322017D01*
X180439253Y-116334340D01*
X180527121Y-116324696D01*
X180624991Y-116295764D01*
X180624991Y-116414350D01*
X180520335Y-116441139D01*
X180420679Y-116450069D01*
X180333496Y-116442196D01*
X180259726Y-116418578D01*
X180199369Y-116379214D01*
X180152424Y-116324105D01*
X180118892Y-116253251D01*
X180098773Y-116166651D01*
X180092067Y-116064306D01*
X180096108Y-116007156D01*
X180254944Y-116007156D01*
X180509262Y-116007156D01*
X180500689Y-115906965D01*
X180477829Y-115840707D01*
X180387818Y-115791415D01*
X180331740Y-115803202D01*
X180292092Y-115838564D01*
X180267089Y-115904286D01*
X180254944Y-116007156D01*
X180096108Y-116007156D01*
X180100401Y-115946434D01*
X180125404Y-115849994D01*
X180167076Y-115774984D01*
X180225417Y-115721406D01*
X180300426Y-115689259D01*
X180392104Y-115678544D01*
X180475766Y-115688624D01*
X180543869Y-115718866D01*
X180596416Y-115769269D01*
X180633722Y-115842056D01*
X180656106Y-115939449D01*
X180663567Y-116061449D01*
X180660709Y-116118599D01*
X180254944Y-116118599D01*
X180271554Y-116218790D01*
G37*
G36*
X178098961Y-116185750D02*
G01*
X178101818Y-116185750D01*
X178180399Y-115564244D01*
X178307558Y-115564244D01*
X178383282Y-116285763D01*
X178386139Y-116285763D01*
X178439003Y-115392794D01*
X178581878Y-115392794D01*
X178489009Y-116435781D01*
X178303272Y-116435781D01*
X178231834Y-115735694D01*
X178227548Y-115735694D01*
X178143252Y-116435781D01*
X177988947Y-116435781D01*
X177896078Y-115392794D01*
X178048954Y-115392794D01*
X178098961Y-116185750D01*
G37*
G36*
X182607222Y-115684418D02*
G01*
X182685089Y-115702039D01*
X182737397Y-115731408D01*
X182781867Y-115808917D01*
X182796691Y-115935719D01*
X182796691Y-116435781D01*
X182642386Y-116435781D01*
X182642386Y-115928575D01*
X182613811Y-115824276D01*
X182508083Y-115795701D01*
X182410928Y-115827134D01*
X182410928Y-116435781D01*
X182253766Y-116435781D01*
X182253766Y-115738551D01*
X182328537Y-115705214D01*
X182411881Y-115685211D01*
X182503797Y-115678544D01*
X182607222Y-115684418D01*
G37*
G36*
X180986623Y-116446894D02*
G01*
X180906613Y-116437369D01*
X180827873Y-116421494D01*
X180827873Y-116315766D01*
X180987893Y-116315766D01*
X181067903Y-116327196D01*
X181145234Y-116315588D01*
X181200062Y-116280762D01*
X181232745Y-116220576D01*
X181243639Y-116132886D01*
X181231852Y-116043947D01*
X181196491Y-115982868D01*
X181135769Y-115947506D01*
X181047901Y-115935719D01*
X180987893Y-115935719D01*
X180987893Y-116315766D01*
X180827873Y-116315766D01*
X180827873Y-115814275D01*
X180987893Y-115814275D01*
X181029327Y-115814275D01*
X181113623Y-115804452D01*
X181172202Y-115774984D01*
X181206492Y-115723728D01*
X181217922Y-115648540D01*
X181200301Y-115566784D01*
X181147437Y-115517730D01*
X181059331Y-115501379D01*
X180987893Y-115512809D01*
X180987893Y-115814275D01*
X180827873Y-115814275D01*
X180827873Y-115407081D01*
X180941459Y-115385650D01*
X181059331Y-115378506D01*
X181171459Y-115388908D01*
X181258670Y-115420111D01*
X181320963Y-115472118D01*
X181358339Y-115544927D01*
X181370798Y-115638539D01*
X181359547Y-115719263D01*
X181325793Y-115787129D01*
X181273465Y-115837849D01*
X181206492Y-115867139D01*
X181206492Y-115868568D01*
X181282394Y-115898928D01*
X181344366Y-115958579D01*
X181385621Y-116040018D01*
X181399373Y-116135744D01*
X181390166Y-116231788D01*
X181362543Y-116310369D01*
X181316506Y-116371488D01*
X181252053Y-116415144D01*
X181169186Y-116441338D01*
X181067903Y-116450069D01*
X180987893Y-116446943D01*
X180986623Y-116446894D01*
G37*
G36*
X179081941Y-115528525D02*
G01*
X178893346Y-115528525D01*
X178893346Y-115349931D01*
X179081941Y-115349931D01*
X179081941Y-115528525D01*
G37*
G36*
X183082599Y-116411016D02*
G01*
X183022433Y-116362201D01*
X182980364Y-116290049D01*
X182955123Y-116190751D01*
X182946709Y-116064306D01*
X183103872Y-116064306D01*
X183113159Y-116193251D01*
X183141019Y-116277190D01*
X183187811Y-116323267D01*
X183253891Y-116338626D01*
X183346759Y-116320053D01*
X183346759Y-115844279D01*
X183294967Y-115807846D01*
X183228173Y-115795701D01*
X183173345Y-115810882D01*
X183134590Y-115856423D01*
X183111551Y-115938755D01*
X183103872Y-116064306D01*
X182946709Y-116064306D01*
X182953933Y-115940005D01*
X182975602Y-115841421D01*
X183011718Y-115768555D01*
X183062756Y-115718549D01*
X183129192Y-115688545D01*
X183211028Y-115678544D01*
X183280680Y-115686402D01*
X183346759Y-115709976D01*
X183346759Y-115364219D01*
X183503922Y-115364219D01*
X183503922Y-116404349D01*
X183430579Y-116429749D01*
X183349617Y-116444989D01*
X183261034Y-116450069D01*
X183253891Y-116449364D01*
X183162133Y-116440306D01*
X183082599Y-116411016D01*
G37*
G36*
X181666708Y-116422129D02*
G01*
X181608685Y-116387204D01*
X181551356Y-116311480D01*
X181532247Y-116210039D01*
X181683694Y-116210039D01*
X181720842Y-116305051D01*
X181825141Y-116338626D01*
X181919438Y-116320053D01*
X181919438Y-116064306D01*
X181879433Y-116064306D01*
X181790672Y-116073236D01*
X181730129Y-116100025D01*
X181695303Y-116145388D01*
X181683694Y-116210039D01*
X181532247Y-116210039D01*
X181553857Y-116101632D01*
X181618686Y-116022158D01*
X181686076Y-115986042D01*
X181772991Y-115964373D01*
X181879433Y-115957150D01*
X181919438Y-115957150D01*
X181919438Y-115932861D01*
X181897292Y-115822133D01*
X181799423Y-115795701D01*
X181727986Y-115801416D01*
X181650833Y-115818561D01*
X181567966Y-115847136D01*
X181567966Y-115724264D01*
X181651151Y-115698864D01*
X181731161Y-115683624D01*
X181807996Y-115678544D01*
X181939619Y-115692831D01*
X182020165Y-115735694D01*
X182050724Y-115786176D01*
X182069060Y-115861424D01*
X182075172Y-115961436D01*
X182075172Y-116404349D01*
X181995321Y-116429749D01*
X181911977Y-116444989D01*
X181825141Y-116450069D01*
X181738860Y-116443084D01*
X181666708Y-116422129D01*
G37*
G36*
X179081941Y-116435781D02*
G01*
X178921921Y-116435781D01*
X178921921Y-115808560D01*
X178731897Y-115808560D01*
X178731897Y-115692831D01*
X179081941Y-115692831D01*
X179081941Y-116435781D01*
G37*
%TO.C,U5*%
X143489999Y-114169812D02*
X143489999Y-117169812D01*
X146709999Y-115669812D02*
X146709999Y-117169812D01*
%TO.C,R52*%
X124830000Y-102943642D02*
X124830000Y-102636360D01*
X124070000Y-102943642D02*
X124070000Y-102636360D01*
%TO.C,kibuzzard-6378AAC6*%
G36*
X127742142Y-99242284D02*
G01*
X127798838Y-99282167D01*
X127798838Y-99802993D01*
X127697176Y-99823325D01*
X127624839Y-99806512D01*
X127573617Y-99756071D01*
X127543118Y-99664184D01*
X127532952Y-99523030D01*
X127541358Y-99385590D01*
X127566578Y-99295462D01*
X127609003Y-99245608D01*
X127669023Y-99228990D01*
X127742142Y-99242284D01*
G37*
G36*
X126337853Y-97816717D02*
G01*
X126233078Y-97837355D01*
X126117191Y-97800049D01*
X126075916Y-97694480D01*
X126088814Y-97622645D01*
X126127510Y-97572242D01*
X126194780Y-97542477D01*
X126293403Y-97532555D01*
X126337853Y-97532555D01*
X126337853Y-97816717D01*
G37*
G36*
X126222286Y-99278257D02*
G01*
X126247311Y-99350790D01*
X126256695Y-99460468D01*
X125978296Y-99460468D01*
X125991591Y-99347857D01*
X126018961Y-99275911D01*
X126062363Y-99237201D01*
X126123752Y-99224298D01*
X126222286Y-99278257D01*
G37*
G36*
X122310624Y-99496441D02*
G01*
X122096351Y-99496441D01*
X122202705Y-98959975D01*
X122204269Y-98959975D01*
X122310624Y-99496441D01*
G37*
G36*
X127866219Y-97247599D02*
G01*
X127923766Y-97288080D01*
X127923766Y-97816717D01*
X127820578Y-97837355D01*
X127747156Y-97820289D01*
X127695166Y-97769092D01*
X127664210Y-97675827D01*
X127653891Y-97532555D01*
X127662424Y-97393053D01*
X127688022Y-97301574D01*
X127731083Y-97250972D01*
X127792003Y-97234105D01*
X127866219Y-97247599D01*
G37*
G36*
X119937976Y-99798300D02*
G01*
X119848826Y-99810813D01*
X119780008Y-99797714D01*
X119726831Y-99758417D01*
X119692813Y-99694878D01*
X119681474Y-99609052D01*
X119696919Y-99516578D01*
X119743253Y-99445610D01*
X119816959Y-99400448D01*
X119914516Y-99385394D01*
X119937976Y-99385394D01*
X119937976Y-99798300D01*
G37*
G36*
X119369317Y-96622388D02*
G01*
X128230683Y-96622388D01*
X128230683Y-100077612D01*
X119369317Y-100077612D01*
X119369317Y-99620000D01*
X119501609Y-99620000D01*
X119511254Y-99719403D01*
X119540189Y-99800733D01*
X119588413Y-99863990D01*
X119655928Y-99909174D01*
X119742732Y-99936284D01*
X119848826Y-99945320D01*
X119935717Y-99941845D01*
X120023303Y-99931418D01*
X120032132Y-99929680D01*
X120400932Y-99929680D01*
X120940525Y-99929680D01*
X121128210Y-99929680D01*
X121300254Y-99929680D01*
X121300254Y-99100739D01*
X121303383Y-99100739D01*
X121547373Y-99929680D01*
X121722545Y-99929680D01*
X121835156Y-99929680D01*
X122010328Y-99929680D01*
X122069762Y-99629384D01*
X122337213Y-99629384D01*
X122396646Y-99929680D01*
X122578075Y-99929680D01*
X122374214Y-99069458D01*
X123474269Y-99069458D01*
X123490496Y-99180505D01*
X123539177Y-99272783D01*
X123592962Y-99327003D01*
X123667776Y-99379138D01*
X123763617Y-99429187D01*
X123830675Y-99469461D01*
X123875445Y-99515209D01*
X123900665Y-99570733D01*
X123909072Y-99640333D01*
X123898124Y-99713256D01*
X123865279Y-99766238D01*
X123812884Y-99798496D01*
X123743284Y-99809249D01*
X123651701Y-99797953D01*
X123564636Y-99764065D01*
X123482089Y-99707586D01*
X123482089Y-99870246D01*
X123562377Y-99911954D01*
X123651006Y-99936979D01*
X123747976Y-99945320D01*
X123869033Y-99932808D01*
X123876879Y-99929680D01*
X124264109Y-99929680D01*
X124436153Y-99929680D01*
X124436153Y-99291552D01*
X124499888Y-99244631D01*
X124572225Y-99228990D01*
X124667631Y-99268091D01*
X124686400Y-99327916D01*
X124692656Y-99429187D01*
X124691092Y-99929680D01*
X124858444Y-99929680D01*
X124858444Y-99385394D01*
X124843977Y-99254992D01*
X124800575Y-99167211D01*
X124725501Y-99117357D01*
X124719058Y-99116379D01*
X125093050Y-99116379D01*
X125093050Y-99243067D01*
X125301067Y-99243067D01*
X125301067Y-99929680D01*
X125476240Y-99929680D01*
X125476240Y-99523030D01*
X125799996Y-99523030D01*
X125809988Y-99652063D01*
X125839966Y-99757635D01*
X125889928Y-99839748D01*
X125959875Y-99898399D01*
X126049808Y-99933590D01*
X126159725Y-99945320D01*
X126268817Y-99935545D01*
X126383383Y-99906219D01*
X126383383Y-99776404D01*
X126276246Y-99808076D01*
X126180057Y-99818633D01*
X126096186Y-99805143D01*
X126035384Y-99764674D01*
X125996478Y-99692141D01*
X125978296Y-99582463D01*
X126422484Y-99582463D01*
X126425612Y-99519901D01*
X126417444Y-99386350D01*
X126392941Y-99279735D01*
X126352102Y-99200055D01*
X126294580Y-99144880D01*
X126233078Y-99117569D01*
X126220027Y-99111774D01*
X126128444Y-99100739D01*
X126028085Y-99112469D01*
X125945973Y-99147660D01*
X125882108Y-99206312D01*
X125836490Y-99288424D01*
X125809119Y-99393996D01*
X125799996Y-99523030D01*
X125476240Y-99523030D01*
X125476240Y-99116379D01*
X125093050Y-99116379D01*
X124719058Y-99116379D01*
X124685266Y-99111250D01*
X124616018Y-99100739D01*
X124524131Y-99112469D01*
X124436153Y-99147660D01*
X124436153Y-98756650D01*
X124264109Y-98756650D01*
X124264109Y-99929680D01*
X123876879Y-99929680D01*
X123963188Y-99895271D01*
X124030442Y-99832709D01*
X124070794Y-99745123D01*
X124084245Y-99632512D01*
X124067431Y-99511690D01*
X124016991Y-99415111D01*
X123959817Y-99359327D01*
X123877965Y-99304585D01*
X123771437Y-99250887D01*
X123701924Y-99204139D01*
X123660216Y-99141056D01*
X123646314Y-99061638D01*
X123690107Y-98949027D01*
X123742111Y-98918528D01*
X123810538Y-98908362D01*
X123932142Y-98925175D01*
X124052964Y-98975616D01*
X124052964Y-98819212D01*
X123968853Y-98793144D01*
X123881267Y-98777504D01*
X123790205Y-98772291D01*
X123696797Y-98780980D01*
X123618856Y-98807047D01*
X123556381Y-98850493D01*
X123494797Y-98944335D01*
X123474269Y-99069458D01*
X122374214Y-99069458D01*
X122307496Y-98787931D01*
X122104171Y-98787931D01*
X121835156Y-99929680D01*
X121722545Y-99929680D01*
X121722545Y-98787931D01*
X121558321Y-98787931D01*
X121558321Y-99616872D01*
X121553629Y-99616872D01*
X121330878Y-98860091D01*
X121309639Y-98787931D01*
X121128210Y-98787931D01*
X121128210Y-99929680D01*
X120940525Y-99929680D01*
X120940525Y-99793608D01*
X120576104Y-99793608D01*
X120576104Y-98787931D01*
X120400932Y-98787931D01*
X120400932Y-99929680D01*
X120032132Y-99929680D01*
X120111585Y-99914039D01*
X120111585Y-99385394D01*
X120228887Y-99385394D01*
X120228887Y-99252451D01*
X120111585Y-99252451D01*
X120111585Y-99061638D01*
X119937976Y-99061638D01*
X119937976Y-99252451D01*
X119920772Y-99252451D01*
X119837291Y-99240329D01*
X119774534Y-99203966D01*
X119735238Y-99145314D01*
X119722139Y-99066330D01*
X119741081Y-98976832D01*
X119797908Y-98923134D01*
X119892619Y-98905234D01*
X119967693Y-98910317D01*
X120039639Y-98925567D01*
X120039639Y-98787931D01*
X119946969Y-98776201D01*
X119853518Y-98772291D01*
X119722139Y-98790082D01*
X119625168Y-98843454D01*
X119565344Y-98928499D01*
X119545402Y-99041305D01*
X119555960Y-99123417D01*
X119587631Y-99197709D01*
X119638463Y-99260662D01*
X119706498Y-99308756D01*
X119706498Y-99311884D01*
X119616859Y-99364573D01*
X119552831Y-99433488D01*
X119514415Y-99518631D01*
X119501609Y-99620000D01*
X119369317Y-99620000D01*
X119369317Y-98741010D01*
X125269786Y-98741010D01*
X125269786Y-98936515D01*
X125476240Y-98936515D01*
X125476240Y-98787931D01*
X126594528Y-98787931D01*
X126594528Y-98914618D01*
X126804109Y-98914618D01*
X126804109Y-99929680D01*
X127188863Y-99929680D01*
X127188863Y-99802993D01*
X126979282Y-99802993D01*
X126979282Y-99523030D01*
X127360907Y-99523030D01*
X127370118Y-99661447D01*
X127397749Y-99770148D01*
X127443801Y-99849132D01*
X127509665Y-99902570D01*
X127596730Y-99934633D01*
X127704996Y-99945320D01*
X127801966Y-99939759D01*
X127890595Y-99923076D01*
X127970883Y-99895271D01*
X127970883Y-98756650D01*
X127798838Y-98756650D01*
X127798838Y-99135148D01*
X127726501Y-99109341D01*
X127650254Y-99100739D01*
X127560670Y-99111687D01*
X127487942Y-99144532D01*
X127432071Y-99199273D01*
X127392536Y-99279039D01*
X127368814Y-99386958D01*
X127360907Y-99523030D01*
X126979282Y-99523030D01*
X126979282Y-98787931D01*
X126594528Y-98787931D01*
X125476240Y-98787931D01*
X125476240Y-98741010D01*
X125269786Y-98741010D01*
X119369317Y-98741010D01*
X119369317Y-98294555D01*
X121156253Y-98294555D01*
X121330878Y-98294555D01*
X121330878Y-97929430D01*
X121398347Y-97953242D01*
X121470578Y-97961180D01*
X121563712Y-97949274D01*
X121639912Y-97913555D01*
X121699178Y-97854024D01*
X121741512Y-97770680D01*
X121762208Y-97683367D01*
X121954766Y-97683367D01*
X121971038Y-97818305D01*
X122019853Y-97902442D01*
X122075945Y-97935074D01*
X122157437Y-97954653D01*
X122264328Y-97961180D01*
X122366458Y-97953771D01*
X122459062Y-97931546D01*
X122542141Y-97894505D01*
X122542141Y-97280142D01*
X122732641Y-97280142D01*
X122896153Y-97280142D01*
X122896153Y-97707180D01*
X122910242Y-97830211D01*
X122952510Y-97907205D01*
X123030892Y-97947686D01*
X123153328Y-97961180D01*
X123241038Y-97956417D01*
X123320016Y-97942130D01*
X123320016Y-97797667D01*
X123252150Y-97815527D01*
X123185078Y-97821480D01*
X123089828Y-97795286D01*
X123069191Y-97675430D01*
X123069191Y-97357930D01*
X124288391Y-97357930D01*
X124294592Y-97499317D01*
X124313196Y-97621852D01*
X124344201Y-97725535D01*
X124387610Y-97810367D01*
X124443420Y-97876348D01*
X124511633Y-97923477D01*
X124592248Y-97951754D01*
X124685266Y-97961180D01*
X124780163Y-97955006D01*
X124870121Y-97936485D01*
X124955141Y-97905617D01*
X124955141Y-97683367D01*
X125129766Y-97683367D01*
X125146038Y-97818305D01*
X125194853Y-97902442D01*
X125250945Y-97935074D01*
X125332437Y-97954653D01*
X125439328Y-97961180D01*
X125541458Y-97953771D01*
X125634062Y-97931546D01*
X125717141Y-97894505D01*
X125717141Y-97694480D01*
X125907641Y-97694480D01*
X125928874Y-97807192D01*
X125992572Y-97891330D01*
X126057042Y-97930135D01*
X126137211Y-97953419D01*
X126233078Y-97961180D01*
X126329563Y-97955535D01*
X126385509Y-97945305D01*
X126768066Y-97945305D01*
X126942691Y-97945305D01*
X126941703Y-97532555D01*
X127479266Y-97532555D01*
X127488614Y-97673049D01*
X127516660Y-97783380D01*
X127563403Y-97863549D01*
X127630255Y-97917788D01*
X127718626Y-97950332D01*
X127828516Y-97961180D01*
X127926941Y-97955535D01*
X128016899Y-97938602D01*
X128098391Y-97910380D01*
X128098391Y-96754680D01*
X127923766Y-96754680D01*
X127923766Y-97138855D01*
X127850344Y-97112661D01*
X127772953Y-97103930D01*
X127682025Y-97115042D01*
X127608206Y-97148380D01*
X127551497Y-97203942D01*
X127511369Y-97284905D01*
X127487292Y-97394442D01*
X127479266Y-97532555D01*
X126941703Y-97532555D01*
X126941103Y-97281730D01*
X127053463Y-97256153D01*
X127170409Y-97240808D01*
X127291941Y-97235692D01*
X127291941Y-97103930D01*
X127183610Y-97107232D01*
X127077057Y-97117138D01*
X126972282Y-97133648D01*
X126869285Y-97156762D01*
X126768066Y-97186480D01*
X126768066Y-97945305D01*
X126385509Y-97945305D01*
X126422167Y-97938602D01*
X126510891Y-97910380D01*
X126510891Y-97418255D01*
X126504100Y-97307130D01*
X126483727Y-97223521D01*
X126449772Y-97167430D01*
X126360277Y-97119805D01*
X126214028Y-97103930D01*
X126128656Y-97109574D01*
X126039756Y-97126508D01*
X125947328Y-97154730D01*
X125947328Y-97291255D01*
X126039403Y-97259505D01*
X126125128Y-97240455D01*
X126204503Y-97234105D01*
X126313247Y-97263474D01*
X126337853Y-97386505D01*
X126337853Y-97413492D01*
X126293403Y-97413492D01*
X126175135Y-97421518D01*
X126078562Y-97445595D01*
X126003685Y-97485724D01*
X125931652Y-97574028D01*
X125907641Y-97694480D01*
X125717141Y-97694480D01*
X125717141Y-97119805D01*
X125542516Y-97119805D01*
X125544103Y-97799255D01*
X125436153Y-97831005D01*
X125328997Y-97800049D01*
X125299628Y-97683367D01*
X125299628Y-97119805D01*
X125129766Y-97119805D01*
X125129766Y-97683367D01*
X124955141Y-97683367D01*
X124955141Y-97254742D01*
X124585253Y-97254742D01*
X124585253Y-97389680D01*
X124785278Y-97389680D01*
X124785278Y-97805605D01*
X124690028Y-97824655D01*
X124593191Y-97797667D01*
X124521753Y-97716705D01*
X124489121Y-97628863D01*
X124469542Y-97509271D01*
X124463016Y-97357930D01*
X124469895Y-97210028D01*
X124490533Y-97094405D01*
X124524928Y-97011061D01*
X124603906Y-96935456D01*
X124717016Y-96910255D01*
X124814250Y-96919780D01*
X124915453Y-96948355D01*
X124915453Y-96805480D01*
X124818219Y-96779286D01*
X124717016Y-96770555D01*
X124586047Y-96786253D01*
X124478891Y-96833349D01*
X124395547Y-96911842D01*
X124348666Y-96992706D01*
X124315180Y-97094008D01*
X124295088Y-97215749D01*
X124288391Y-97357930D01*
X123069191Y-97357930D01*
X123069191Y-97280142D01*
X123335891Y-97280142D01*
X123335891Y-97151555D01*
X123069191Y-97151555D01*
X123069191Y-96849930D01*
X122896153Y-96849930D01*
X122896153Y-97151555D01*
X122732641Y-97151555D01*
X122732641Y-97280142D01*
X122542141Y-97280142D01*
X122542141Y-97119805D01*
X122367516Y-97119805D01*
X122369103Y-97799255D01*
X122261153Y-97831005D01*
X122153997Y-97800049D01*
X122124628Y-97683367D01*
X122124628Y-97119805D01*
X121954766Y-97119805D01*
X121954766Y-97683367D01*
X121762208Y-97683367D01*
X121766912Y-97663524D01*
X121775378Y-97532555D01*
X121766118Y-97393649D01*
X121738337Y-97283846D01*
X121692035Y-97203149D01*
X121625448Y-97148027D01*
X121536812Y-97114954D01*
X121426128Y-97103930D01*
X121331231Y-97109574D01*
X121241273Y-97126508D01*
X121156253Y-97154730D01*
X121156253Y-98294555D01*
X119369317Y-98294555D01*
X119369317Y-97945305D01*
X119597328Y-97945305D01*
X120137078Y-97945305D01*
X120359328Y-97945305D01*
X120533953Y-97945305D01*
X120533953Y-97269030D01*
X120641903Y-97234105D01*
X120759378Y-97265855D01*
X120791128Y-97381742D01*
X120791128Y-97945305D01*
X120962578Y-97945305D01*
X120962578Y-97389680D01*
X120946108Y-97248789D01*
X120896697Y-97162667D01*
X120838577Y-97130035D01*
X120752058Y-97110456D01*
X120637141Y-97103930D01*
X120535012Y-97111338D01*
X120442408Y-97133563D01*
X120359328Y-97170605D01*
X120359328Y-97945305D01*
X120137078Y-97945305D01*
X120137078Y-97807192D01*
X119959278Y-97807192D01*
X119959278Y-96924542D01*
X120137078Y-96924542D01*
X120137078Y-96786430D01*
X119597328Y-96786430D01*
X119597328Y-96924542D01*
X119775128Y-96924542D01*
X119775128Y-97807192D01*
X119597328Y-97807192D01*
X119597328Y-97945305D01*
X119369317Y-97945305D01*
X119369317Y-96622388D01*
G37*
G36*
X121508480Y-97250972D02*
G01*
X121560272Y-97301574D01*
X121590633Y-97393053D01*
X121600753Y-97532555D01*
X121591328Y-97663821D01*
X121563050Y-97757583D01*
X121515921Y-97813840D01*
X121449941Y-97832592D01*
X121330878Y-97796080D01*
X121330878Y-97251567D01*
X121434066Y-97234105D01*
X121508480Y-97250972D01*
G37*
%TO.C,C60*%
X165470000Y-117232836D02*
X165470000Y-117017164D01*
X166190000Y-117232836D02*
X166190000Y-117017164D01*
%TO.C,C5*%
X173411252Y-118635000D02*
X172888748Y-118635000D01*
X173411252Y-117165000D02*
X172888748Y-117165000D01*
%TO.C,C40*%
X173411252Y-106585000D02*
X172888748Y-106585000D01*
X173411252Y-105115000D02*
X172888748Y-105115000D01*
%TO.C,R26*%
X167600000Y-106768641D02*
X167600000Y-106461359D01*
X168360000Y-106768641D02*
X168360000Y-106461359D01*
%TO.C,R42*%
X133820000Y-106071047D02*
X133820000Y-105763765D01*
X134580000Y-106071047D02*
X134580000Y-105763765D01*
%TO.C,C22*%
X173411252Y-94484999D02*
X172888748Y-94484999D01*
X173411252Y-93014999D02*
X172888748Y-93014999D01*
%TO.C,R40*%
X133079999Y-112986265D02*
X133079999Y-113293547D01*
X132319999Y-112986265D02*
X132319999Y-113293547D01*
%TO.C,C57*%
X135059999Y-113227742D02*
X135059999Y-113012070D01*
X134339999Y-113227742D02*
X134339999Y-113012070D01*
%TO.C,R31*%
X132633641Y-118139814D02*
X132326359Y-118139814D01*
X132633641Y-117379814D02*
X132326359Y-117379814D01*
%TO.C,C30*%
X136910093Y-99137406D02*
X136910093Y-92377406D01*
X133490093Y-92377406D02*
X133490093Y-99137406D01*
X136910093Y-92377406D02*
X133490093Y-92377406D01*
%TO.C,U7*%
X136190001Y-119869813D02*
X134690001Y-119869813D01*
X137690001Y-116649813D02*
X134690001Y-116649813D01*
%TO.C,kibuzzard-6378A91A*%
G36*
X157651600Y-107471554D02*
G01*
X157737325Y-107477269D01*
X157807175Y-107486794D01*
X157885042Y-107506618D01*
X157932905Y-107531800D01*
X157965766Y-107606809D01*
X157940763Y-107673961D01*
X157855753Y-107716823D01*
X157431414Y-107472507D01*
X157550000Y-107469649D01*
X157651600Y-107471554D01*
G37*
G36*
X157694304Y-108454058D02*
G01*
X157627510Y-108457273D01*
X157550000Y-108458344D01*
X157448400Y-108456439D01*
X157362675Y-108450724D01*
X157292825Y-108441199D01*
X157214958Y-108421375D01*
X157167095Y-108396194D01*
X157134234Y-108321184D01*
X157163523Y-108249747D01*
X157264250Y-108205456D01*
X157694304Y-108454058D01*
G37*
G36*
X158204844Y-105037441D02*
G01*
X158204844Y-108725997D01*
X157550000Y-109162559D01*
X156895156Y-108725997D01*
X156895156Y-108321184D01*
X157014219Y-108321184D01*
X157025827Y-108410124D01*
X157060653Y-108479776D01*
X157125304Y-108533175D01*
X157226388Y-108573359D01*
X157315368Y-108592012D01*
X157423238Y-108603204D01*
X157550000Y-108606934D01*
X157676762Y-108603204D01*
X157784632Y-108592012D01*
X157873612Y-108573359D01*
X157974696Y-108533175D01*
X158039347Y-108479776D01*
X158074173Y-108410124D01*
X158085781Y-108321184D01*
X158074173Y-108232245D01*
X158039347Y-108162593D01*
X157974696Y-108109194D01*
X157873612Y-108069010D01*
X157784632Y-108050357D01*
X157676762Y-108039165D01*
X157550000Y-108035434D01*
X157423238Y-108039165D01*
X157315368Y-108050357D01*
X157226388Y-108069010D01*
X157125304Y-108109194D01*
X157060653Y-108162593D01*
X157025827Y-108232245D01*
X157014219Y-108321184D01*
X156895156Y-108321184D01*
X156895156Y-107606809D01*
X157014219Y-107606809D01*
X157025827Y-107695749D01*
X157060653Y-107765401D01*
X157125304Y-107818800D01*
X157226388Y-107858984D01*
X157315368Y-107877637D01*
X157423238Y-107888829D01*
X157550000Y-107892559D01*
X157676762Y-107888829D01*
X157784632Y-107877637D01*
X157873612Y-107858984D01*
X157974696Y-107818800D01*
X158039347Y-107765401D01*
X158074173Y-107695749D01*
X158085781Y-107606809D01*
X158074173Y-107517870D01*
X158039347Y-107448218D01*
X157974696Y-107394819D01*
X157873612Y-107354635D01*
X157784632Y-107335982D01*
X157676762Y-107324790D01*
X157550000Y-107321059D01*
X157423238Y-107324790D01*
X157315368Y-107335982D01*
X157226388Y-107354635D01*
X157125304Y-107394819D01*
X157060653Y-107448218D01*
X157025827Y-107517870D01*
X157014219Y-107606809D01*
X156895156Y-107606809D01*
X156895156Y-106849572D01*
X157014219Y-106849572D01*
X157023109Y-106947521D01*
X157049779Y-107026102D01*
X157094229Y-107085316D01*
X157159316Y-107126591D01*
X157247899Y-107151356D01*
X157359976Y-107159611D01*
X157480848Y-107150467D01*
X157574860Y-107123035D01*
X157642011Y-107077315D01*
X157682302Y-107013307D01*
X157695732Y-106931011D01*
X157686803Y-106863145D01*
X157660014Y-106805281D01*
X157660014Y-106802423D01*
X157948621Y-106812424D01*
X157948621Y-107131036D01*
X158071494Y-107131036D01*
X158071494Y-106666692D01*
X157517139Y-106652404D01*
X157517139Y-106783849D01*
X157560001Y-106833498D01*
X157574289Y-106888148D01*
X157524997Y-106972444D01*
X157459096Y-106992804D01*
X157359976Y-106999591D01*
X157255499Y-106989947D01*
X157187812Y-106961014D01*
X157150843Y-106911008D01*
X157138520Y-106838142D01*
X157152093Y-106742773D01*
X157192812Y-106645261D01*
X157057081Y-106645261D01*
X157024934Y-106743487D01*
X157014219Y-106849572D01*
X156895156Y-106849572D01*
X156895156Y-106456666D01*
X157235675Y-106456666D01*
X157352832Y-106456666D01*
X157561430Y-106456666D01*
X157678587Y-106456666D01*
X157678587Y-105899453D01*
X157561430Y-105899453D01*
X157561430Y-106456666D01*
X157352832Y-106456666D01*
X157352832Y-105899453D01*
X157235675Y-105899453D01*
X157235675Y-106456666D01*
X156895156Y-106456666D01*
X156895156Y-105513691D01*
X157014219Y-105513691D01*
X157019775Y-105599098D01*
X157036444Y-105680061D01*
X157064225Y-105756578D01*
X157650012Y-105756578D01*
X157650012Y-105423679D01*
X157528569Y-105423679D01*
X157528569Y-105603702D01*
X157154236Y-105603702D01*
X157137091Y-105517977D01*
X157161380Y-105430823D01*
X157234246Y-105366529D01*
X157313304Y-105337161D01*
X157420936Y-105319539D01*
X157557144Y-105313666D01*
X157690256Y-105319857D01*
X157794316Y-105338431D01*
X157869326Y-105369387D01*
X157937370Y-105440467D01*
X157960051Y-105542266D01*
X157951479Y-105629777D01*
X157925761Y-105720859D01*
X158054349Y-105720859D01*
X158077923Y-105633348D01*
X158085781Y-105542266D01*
X158071652Y-105424394D01*
X158029266Y-105327953D01*
X157958622Y-105252944D01*
X157885846Y-105210751D01*
X157794673Y-105180613D01*
X157685106Y-105162531D01*
X157557144Y-105156503D01*
X157429896Y-105162084D01*
X157319614Y-105178827D01*
X157226299Y-105206733D01*
X157149950Y-105245800D01*
X157090568Y-105296029D01*
X157048152Y-105357421D01*
X157022702Y-105429975D01*
X157014219Y-105513691D01*
X156895156Y-105513691D01*
X156895156Y-105037441D01*
X158204844Y-105037441D01*
G37*
G36*
X157694304Y-107739683D02*
G01*
X157627510Y-107742898D01*
X157550000Y-107743969D01*
X157448400Y-107742064D01*
X157362675Y-107736349D01*
X157292825Y-107726824D01*
X157214958Y-107707000D01*
X157167095Y-107681819D01*
X157134234Y-107606809D01*
X157163523Y-107535372D01*
X157264250Y-107491081D01*
X157694304Y-107739683D01*
G37*
G36*
X157651600Y-108185929D02*
G01*
X157737325Y-108191644D01*
X157807175Y-108201169D01*
X157885042Y-108220993D01*
X157932905Y-108246175D01*
X157965766Y-108321184D01*
X157940763Y-108388336D01*
X157855753Y-108431198D01*
X157431414Y-108186882D01*
X157550000Y-108184024D01*
X157651600Y-108185929D01*
G37*
%TO.C,U10*%
X127950000Y-110724906D02*
X127950000Y-123324906D01*
X126950000Y-109724906D02*
X121950000Y-109724906D01*
X120950000Y-110724906D02*
X120950000Y-123324906D01*
%TO.C,R23*%
X168360000Y-116971359D02*
X168360000Y-117278641D01*
X167600000Y-116971359D02*
X167600000Y-117278641D01*
%TO.C,C23*%
X145190092Y-92377406D02*
X145190092Y-99137406D01*
X148610092Y-92377406D02*
X145190092Y-92377406D01*
X148610092Y-99137406D02*
X148610092Y-92377406D01*
D11*
%TO.C,J7*%
X120100000Y-104320000D02*
X120600000Y-103820000D01*
X121900000Y-104320000D02*
X121900000Y-107920000D01*
X120600000Y-103820000D02*
X121400000Y-103820000D01*
X121400000Y-103820000D02*
X121900000Y-104320000D01*
X121400000Y-108420000D02*
X120600000Y-108420000D01*
X120600000Y-108420000D02*
X120100000Y-107920000D01*
X121900000Y-107920000D02*
X121400000Y-108420000D01*
X120100000Y-107920000D02*
X120100000Y-104320000D01*
D10*
%TO.C,U4*%
X156750000Y-109724906D02*
X151750000Y-109724906D01*
X157750000Y-110724906D02*
X157750000Y-123324906D01*
X150750000Y-110724906D02*
X150750000Y-123324906D01*
%TO.C,kibuzzard-6378A8E8*%
G36*
X156853915Y-101595156D02*
G01*
X159809522Y-101595156D01*
X160246085Y-102250000D01*
X159809522Y-102904844D01*
X156853915Y-102904844D01*
X156853915Y-102242856D01*
X156972977Y-102242856D01*
X156978559Y-102370104D01*
X156995302Y-102480386D01*
X157023207Y-102573701D01*
X157062274Y-102650050D01*
X157112504Y-102709432D01*
X157173895Y-102751848D01*
X157246449Y-102777298D01*
X157330165Y-102785781D01*
X157415572Y-102780225D01*
X157457979Y-102771494D01*
X158451734Y-102771494D01*
X158966084Y-102771494D01*
X158966084Y-102742919D01*
X159176110Y-102742919D01*
X159274337Y-102775066D01*
X159380421Y-102785781D01*
X159478370Y-102776891D01*
X159556951Y-102750221D01*
X159616165Y-102705771D01*
X159657440Y-102640684D01*
X159682205Y-102552101D01*
X159690460Y-102440024D01*
X159681316Y-102319152D01*
X159653884Y-102225140D01*
X159608164Y-102157989D01*
X159544156Y-102117698D01*
X159461860Y-102104268D01*
X159393994Y-102113197D01*
X159336130Y-102139986D01*
X159333272Y-102139986D01*
X159343274Y-101851379D01*
X159661885Y-101851379D01*
X159661885Y-101728506D01*
X159197541Y-101728506D01*
X159183254Y-102282861D01*
X159314699Y-102282861D01*
X159364348Y-102239999D01*
X159418997Y-102225711D01*
X159503294Y-102275003D01*
X159523653Y-102340904D01*
X159530440Y-102440024D01*
X159520796Y-102544501D01*
X159491864Y-102612188D01*
X159441857Y-102649157D01*
X159368991Y-102661480D01*
X159273622Y-102647907D01*
X159176110Y-102607188D01*
X159176110Y-102742919D01*
X158966084Y-102742919D01*
X158966084Y-102647193D01*
X158617469Y-102647193D01*
X158617469Y-102644335D01*
X158701274Y-102544501D01*
X158772667Y-102450739D01*
X158831647Y-102363050D01*
X158878216Y-102281433D01*
X158923062Y-102179515D01*
X158949971Y-102083313D01*
X158958940Y-101992825D01*
X158942688Y-101872274D01*
X158893932Y-101784942D01*
X158814458Y-101731900D01*
X158706051Y-101714219D01*
X158615564Y-101722474D01*
X158530791Y-101747239D01*
X158451734Y-101788514D01*
X158451734Y-101922816D01*
X158532220Y-101875985D01*
X158606039Y-101847886D01*
X158673190Y-101838520D01*
X158766773Y-101877096D01*
X158789812Y-101927103D01*
X158797491Y-101999969D01*
X158790435Y-102078258D01*
X158769266Y-102161272D01*
X158733985Y-102249009D01*
X158684591Y-102341469D01*
X158621084Y-102438653D01*
X158543465Y-102540561D01*
X158451734Y-102647193D01*
X158451734Y-102771494D01*
X157457979Y-102771494D01*
X157496535Y-102763556D01*
X157573052Y-102735775D01*
X157573052Y-102564325D01*
X157715927Y-102564325D01*
X158273140Y-102564325D01*
X158273140Y-102447168D01*
X157715927Y-102447168D01*
X157715927Y-102564325D01*
X157573052Y-102564325D01*
X157573052Y-102238570D01*
X157715927Y-102238570D01*
X158273140Y-102238570D01*
X158273140Y-102121413D01*
X157715927Y-102121413D01*
X157715927Y-102238570D01*
X157573052Y-102238570D01*
X157573052Y-102149988D01*
X157240154Y-102149988D01*
X157240154Y-102271431D01*
X157420176Y-102271431D01*
X157420176Y-102645764D01*
X157334451Y-102662909D01*
X157247297Y-102638620D01*
X157183004Y-102565754D01*
X157153635Y-102486696D01*
X157136014Y-102379064D01*
X157130140Y-102242856D01*
X157136331Y-102109744D01*
X157154905Y-102005684D01*
X157185861Y-101930674D01*
X157256942Y-101862630D01*
X157358740Y-101839949D01*
X157446251Y-101848521D01*
X157537334Y-101874239D01*
X157537334Y-101745651D01*
X157449823Y-101722077D01*
X157358740Y-101714219D01*
X157240868Y-101728348D01*
X157144427Y-101770734D01*
X157069418Y-101841378D01*
X157027225Y-101914154D01*
X156997088Y-102005327D01*
X156979005Y-102114894D01*
X156972977Y-102242856D01*
X156853915Y-102242856D01*
X156853915Y-101595156D01*
G37*
%TO.C,kibuzzard-6378A691*%
G36*
X151443479Y-101539490D02*
G01*
X151443479Y-108860510D01*
X149956521Y-108860510D01*
X149956521Y-108728219D01*
X150104687Y-108728219D01*
X150723812Y-108728219D01*
X150833945Y-108717305D01*
X150900819Y-108684563D01*
X150934752Y-108621658D01*
X150946062Y-108520256D01*
X150936141Y-108437309D01*
X150906375Y-108363094D01*
X150936141Y-108302372D01*
X150946062Y-108221806D01*
X150930981Y-108103141D01*
X150885737Y-107997969D01*
X150104687Y-107997969D01*
X150104687Y-108164656D01*
X150793662Y-108164656D01*
X150815887Y-108228156D01*
X150799219Y-108274194D01*
X150739687Y-108286894D01*
X150104687Y-108286894D01*
X150104687Y-108445644D01*
X150793662Y-108445644D01*
X150815887Y-108510731D01*
X150800012Y-108555181D01*
X150739687Y-108567881D01*
X150104687Y-108567881D01*
X150104687Y-108728219D01*
X149956521Y-108728219D01*
X149956521Y-107712219D01*
X150104687Y-107712219D01*
X150930187Y-107712219D01*
X151112750Y-107712219D01*
X151311188Y-107712219D01*
X151311188Y-107502669D01*
X151112750Y-107502669D01*
X151112750Y-107712219D01*
X150930187Y-107712219D01*
X150930187Y-107323281D01*
X150801600Y-107323281D01*
X150801600Y-107534419D01*
X150104687Y-107534419D01*
X150104687Y-107712219D01*
X149956521Y-107712219D01*
X149956521Y-106707331D01*
X150104687Y-106707331D01*
X150768262Y-106705744D01*
X150793839Y-106818103D01*
X150809185Y-106935049D01*
X150814300Y-107056581D01*
X150946062Y-107056581D01*
X150942760Y-106948250D01*
X150932854Y-106841697D01*
X150916344Y-106736922D01*
X150893230Y-106633925D01*
X150863512Y-106532706D01*
X150104687Y-106532706D01*
X150104687Y-106707331D01*
X149956521Y-106707331D01*
X149956521Y-106070744D01*
X150104687Y-106070744D01*
X151125450Y-106070744D01*
X151125450Y-106307281D01*
X151263562Y-106307281D01*
X151263562Y-105656406D01*
X151125450Y-105656406D01*
X151125450Y-105892944D01*
X150104687Y-105892944D01*
X150104687Y-106070744D01*
X149956521Y-106070744D01*
X149956521Y-104695969D01*
X150104687Y-104695969D01*
X150660312Y-104695969D01*
X150801203Y-104679498D01*
X150887325Y-104630088D01*
X150919957Y-104571967D01*
X150939536Y-104485449D01*
X150946062Y-104370531D01*
X150938654Y-104268402D01*
X150916429Y-104175798D01*
X150879387Y-104092719D01*
X150104687Y-104092719D01*
X150104687Y-104267344D01*
X150780962Y-104267344D01*
X150815887Y-104375294D01*
X150784137Y-104492769D01*
X150668250Y-104524519D01*
X150104687Y-104524519D01*
X150104687Y-104695969D01*
X149956521Y-104695969D01*
X149956521Y-103743469D01*
X150104687Y-103743469D01*
X150930187Y-103743469D01*
X151112750Y-103743469D01*
X151311188Y-103743469D01*
X151311188Y-103533919D01*
X151112750Y-103533919D01*
X151112750Y-103743469D01*
X150930187Y-103743469D01*
X150930187Y-103354531D01*
X150801600Y-103354531D01*
X150801600Y-103565669D01*
X150104687Y-103565669D01*
X150104687Y-103743469D01*
X149956521Y-103743469D01*
X149956521Y-102822719D01*
X150088812Y-102822719D01*
X150094457Y-102919203D01*
X150111390Y-103011808D01*
X150139612Y-103100531D01*
X150631737Y-103100531D01*
X150742862Y-103093740D01*
X150826471Y-103073367D01*
X150882562Y-103039413D01*
X150930187Y-102949917D01*
X150946062Y-102803669D01*
X150940418Y-102718297D01*
X150923485Y-102629397D01*
X150895262Y-102536969D01*
X150758737Y-102536969D01*
X150790487Y-102629044D01*
X150809537Y-102714769D01*
X150815887Y-102794144D01*
X150786519Y-102902888D01*
X150663487Y-102927494D01*
X150636500Y-102927494D01*
X150636500Y-102883044D01*
X150628474Y-102764775D01*
X150604397Y-102668202D01*
X150564269Y-102593325D01*
X150475964Y-102521292D01*
X150355512Y-102497281D01*
X150242800Y-102518514D01*
X150158662Y-102582213D01*
X150119857Y-102646683D01*
X150096574Y-102726851D01*
X150088812Y-102822719D01*
X149956521Y-102822719D01*
X149956521Y-102068656D01*
X150088812Y-102068656D01*
X150094986Y-102163553D01*
X150113507Y-102253512D01*
X150144375Y-102338531D01*
X150795250Y-102338531D01*
X150795250Y-101968644D01*
X150660312Y-101968644D01*
X150660312Y-102168669D01*
X150244387Y-102168669D01*
X150225337Y-102073419D01*
X150252325Y-101976581D01*
X150333287Y-101905144D01*
X150421129Y-101872512D01*
X150540721Y-101852933D01*
X150692062Y-101846406D01*
X150839965Y-101853285D01*
X150955587Y-101873923D01*
X151038931Y-101908319D01*
X151114536Y-101987297D01*
X151139737Y-102100406D01*
X151130212Y-102197641D01*
X151101637Y-102298844D01*
X151244512Y-102298844D01*
X151270706Y-102201609D01*
X151279437Y-102100406D01*
X151263739Y-101969438D01*
X151216643Y-101862281D01*
X151138150Y-101778938D01*
X151057287Y-101732057D01*
X150955984Y-101698570D01*
X150834243Y-101678479D01*
X150692062Y-101671781D01*
X150550676Y-101677982D01*
X150428141Y-101696586D01*
X150324457Y-101727592D01*
X150239625Y-101771000D01*
X150173645Y-101826811D01*
X150126516Y-101895023D01*
X150098238Y-101975639D01*
X150088812Y-102068656D01*
X149956521Y-102068656D01*
X149956521Y-101539490D01*
X151443479Y-101539490D01*
G37*
G36*
X150427347Y-102678455D02*
G01*
X150477750Y-102717150D01*
X150507516Y-102784420D01*
X150517437Y-102883044D01*
X150517437Y-102927494D01*
X150233275Y-102927494D01*
X150212637Y-102822719D01*
X150249944Y-102706831D01*
X150355512Y-102665556D01*
X150427347Y-102678455D01*
G37*
%TO.C,C37*%
X162320000Y-117017164D02*
X162320000Y-117232836D01*
X163040000Y-117017164D02*
X163040000Y-117232836D01*
%TO.C,C17*%
X173411252Y-98585000D02*
X172888748Y-98585000D01*
X173411252Y-97115000D02*
X172888748Y-97115000D01*
%TO.C,C49*%
X166190000Y-106732836D02*
X166190000Y-106517164D01*
X165470000Y-106732836D02*
X165470000Y-106517164D01*
D11*
%TO.C,J6*%
X128300000Y-103820001D02*
X128800000Y-104320001D01*
X127500000Y-103820001D02*
X128300000Y-103820001D01*
X127500000Y-108420001D02*
X127000000Y-107920001D01*
X128800000Y-107920001D02*
X128300000Y-108420001D01*
X127000000Y-107920001D02*
X127000000Y-104320001D01*
X128800000Y-104320001D02*
X128800000Y-107920001D01*
X127000000Y-104320001D02*
X127500000Y-103820001D01*
X128300000Y-108420001D02*
X127500000Y-108420001D01*
D10*
%TO.C,R18*%
X143979999Y-119116171D02*
X143979999Y-119423453D01*
X143219999Y-119116171D02*
X143219999Y-119423453D01*
%TO.C,J4*%
X122000000Y-92449906D02*
X122200000Y-92449906D01*
X125000000Y-94649906D02*
X125500000Y-94649906D01*
X122000000Y-95449906D02*
X122000000Y-94649906D01*
X125000000Y-94649906D02*
X125000000Y-95249906D01*
X122200000Y-95449906D02*
X122000000Y-95449906D01*
X122000000Y-93249906D02*
X122000000Y-92449906D01*
X125000000Y-92449906D02*
X125000000Y-93249906D01*
X124800000Y-92449906D02*
X125000000Y-92449906D01*
X125000000Y-93249906D02*
X125500000Y-93249906D01*
X125000000Y-95249906D02*
X124800000Y-95449906D01*
%TO.C,C21*%
X166620000Y-117017164D02*
X166620000Y-117232836D01*
X167340000Y-117017164D02*
X167340000Y-117232836D01*
%TO.C,kibuzzard-63ED0A5F*%
G36*
X161177279Y-122595523D02*
G01*
X161125703Y-122564478D01*
X161074744Y-122497168D01*
X161057758Y-122406998D01*
X161192378Y-122406998D01*
X161225398Y-122491453D01*
X161318108Y-122521298D01*
X161401928Y-122504788D01*
X161401928Y-122277458D01*
X161366368Y-122277458D01*
X161287469Y-122285396D01*
X161233653Y-122309208D01*
X161202697Y-122349531D01*
X161192378Y-122406998D01*
X161057758Y-122406998D01*
X161076967Y-122310637D01*
X161134593Y-122239993D01*
X161194494Y-122207891D01*
X161271753Y-122188629D01*
X161366368Y-122182208D01*
X161401928Y-122182208D01*
X161401928Y-122160618D01*
X161382243Y-122062193D01*
X161295248Y-122038698D01*
X161231748Y-122043778D01*
X161163168Y-122059018D01*
X161089508Y-122084418D01*
X161089508Y-121975198D01*
X161163450Y-121952621D01*
X161234570Y-121939074D01*
X161302868Y-121934558D01*
X161419867Y-121947258D01*
X161491463Y-121985358D01*
X161518627Y-122030232D01*
X161534925Y-122097118D01*
X161540358Y-122186018D01*
X161540358Y-122579718D01*
X161469379Y-122602296D01*
X161395296Y-122615843D01*
X161318108Y-122620358D01*
X161241414Y-122614149D01*
X161177279Y-122595523D01*
G37*
G36*
X164242361Y-124152617D02*
G01*
X164192155Y-124086301D01*
X164175420Y-123997464D01*
X164308051Y-123997464D01*
X164340583Y-124080671D01*
X164431923Y-124110075D01*
X164514504Y-124093809D01*
X164514504Y-123869838D01*
X164479469Y-123869838D01*
X164401737Y-123877658D01*
X164348716Y-123901119D01*
X164318217Y-123940846D01*
X164308051Y-123997464D01*
X164175420Y-123997464D01*
X164194345Y-123902527D01*
X164251120Y-123832927D01*
X164310136Y-123801298D01*
X164386253Y-123782321D01*
X164479469Y-123775996D01*
X164514504Y-123775996D01*
X164514504Y-123754725D01*
X164495110Y-123657754D01*
X164409400Y-123634607D01*
X164313681Y-123645868D01*
X164206701Y-123679651D01*
X164206701Y-123572045D01*
X164279550Y-123549801D01*
X164349619Y-123536454D01*
X164416908Y-123532006D01*
X164532177Y-123544518D01*
X164602716Y-123582055D01*
X164629478Y-123626265D01*
X164645536Y-123692163D01*
X164650888Y-123779750D01*
X164650888Y-124167631D01*
X164580958Y-124189875D01*
X164507970Y-124203222D01*
X164431923Y-124207671D01*
X164323222Y-124193907D01*
X164242361Y-124152617D01*
G37*
G36*
X167708748Y-121998058D02*
G01*
X167600798Y-121998058D01*
X167562698Y-121617058D01*
X167746848Y-121617058D01*
X167708748Y-121998058D01*
G37*
G36*
X168819992Y-123569543D02*
G01*
X169030198Y-123569543D01*
X169030198Y-123670892D01*
X168819992Y-123670892D01*
X168819992Y-123982449D01*
X168836258Y-124076917D01*
X168911331Y-124097562D01*
X168964196Y-124092870D01*
X169017686Y-124078794D01*
X169017686Y-124192656D01*
X168955437Y-124203917D01*
X168886307Y-124207671D01*
X168789806Y-124197035D01*
X168728026Y-124165129D01*
X168694712Y-124104444D01*
X168683607Y-124007474D01*
X168683607Y-123670892D01*
X168554730Y-123670892D01*
X168554730Y-123569543D01*
X168683607Y-123569543D01*
X168683607Y-123331809D01*
X168819992Y-123331809D01*
X168819992Y-123569543D01*
G37*
G36*
X175193139Y-123538262D02*
G01*
X175270090Y-123557030D01*
X175270090Y-123782252D01*
X175138711Y-123782252D01*
X175138711Y-123638360D01*
X175104927Y-123634607D01*
X175041427Y-123649465D01*
X174993568Y-123694040D01*
X174963538Y-123767706D01*
X174953528Y-123869838D01*
X174965102Y-123974942D01*
X174999824Y-124050016D01*
X175054565Y-124095060D01*
X175126198Y-124110075D01*
X175193765Y-124101003D01*
X175263834Y-124073789D01*
X175263834Y-124176390D01*
X175188447Y-124199850D01*
X175109932Y-124207671D01*
X175022763Y-124198217D01*
X174949775Y-124169856D01*
X174890967Y-124122587D01*
X174847869Y-124056689D01*
X174822010Y-123972439D01*
X174813391Y-123869838D01*
X174821558Y-123766612D01*
X174846062Y-123682153D01*
X174886900Y-123616464D01*
X174944075Y-123569543D01*
X175017585Y-123541390D01*
X175107430Y-123532006D01*
X175193139Y-123538262D01*
G37*
G36*
X162038317Y-124157621D02*
G01*
X162030911Y-124243931D01*
X162008696Y-124316962D01*
X161971669Y-124376715D01*
X161919833Y-124423189D01*
X161853185Y-124456385D01*
X161771728Y-124476302D01*
X161675459Y-124482942D01*
X161675459Y-124377838D01*
X161773681Y-124364700D01*
X161843125Y-124325286D01*
X161884415Y-124257407D01*
X161898179Y-124158873D01*
X161898179Y-123645868D01*
X161731765Y-123645868D01*
X161731765Y-123544518D01*
X162038317Y-123544518D01*
X162038317Y-124157621D01*
G37*
G36*
X166149446Y-124172080D02*
G01*
X166098563Y-124127592D01*
X166062416Y-124063362D01*
X166040728Y-123977444D01*
X166033499Y-123869838D01*
X166173637Y-123869838D01*
X166180675Y-123984482D01*
X166201790Y-124055646D01*
X166239483Y-124092714D01*
X166296258Y-124105070D01*
X166353032Y-124092714D01*
X166390725Y-124055646D01*
X166411840Y-123984482D01*
X166418878Y-123869838D01*
X166411840Y-123755194D01*
X166390725Y-123684030D01*
X166353032Y-123646963D01*
X166296258Y-123634607D01*
X166239483Y-123646963D01*
X166201790Y-123684030D01*
X166180675Y-123755194D01*
X166173637Y-123869838D01*
X166033499Y-123869838D01*
X166040728Y-123762232D01*
X166062416Y-123676314D01*
X166098563Y-123612084D01*
X166149446Y-123567596D01*
X166215345Y-123540903D01*
X166296258Y-123532006D01*
X166377170Y-123540903D01*
X166443069Y-123567596D01*
X166493952Y-123612084D01*
X166530099Y-123676314D01*
X166551787Y-123762232D01*
X166559016Y-123869838D01*
X166551787Y-123977444D01*
X166530099Y-124063362D01*
X166493952Y-124127592D01*
X166443069Y-124172080D01*
X166377170Y-124198773D01*
X166296258Y-124207671D01*
X166215345Y-124198773D01*
X166149446Y-124172080D01*
G37*
G36*
X173241844Y-124093809D02*
G01*
X173409509Y-124093809D01*
X173409509Y-124195158D01*
X173101706Y-124195158D01*
X173101706Y-123383109D01*
X172934041Y-123383109D01*
X172934041Y-123281759D01*
X173241844Y-123281759D01*
X173241844Y-124093809D01*
G37*
G36*
X176371174Y-123913631D02*
G01*
X176239794Y-123913631D01*
X176221026Y-123281759D01*
X176389942Y-123281759D01*
X176371174Y-123913631D01*
G37*
G36*
X169633292Y-121939779D02*
G01*
X169702507Y-121955443D01*
X169749003Y-121981548D01*
X169788532Y-122050446D01*
X169801708Y-122163158D01*
X169801708Y-122607658D01*
X169664548Y-122607658D01*
X169664548Y-122156808D01*
X169639148Y-122064098D01*
X169545168Y-122038698D01*
X169458808Y-122066638D01*
X169458808Y-122607658D01*
X169319108Y-122607658D01*
X169319108Y-121987898D01*
X169385571Y-121958265D01*
X169459654Y-121940485D01*
X169541358Y-121934558D01*
X169633292Y-121939779D01*
G37*
G36*
X160568902Y-124005128D02*
G01*
X160600026Y-124063153D01*
X160648668Y-124095529D01*
X160715765Y-124106321D01*
X160792716Y-124097875D01*
X160878425Y-124072538D01*
X160878425Y-124176390D01*
X160786772Y-124199850D01*
X160699499Y-124207671D01*
X160611565Y-124198286D01*
X160539619Y-124170134D01*
X160483661Y-124123213D01*
X160443692Y-124057523D01*
X160419710Y-123973065D01*
X160411716Y-123869838D01*
X160415254Y-123819789D01*
X160554356Y-123819789D01*
X160777075Y-123819789D01*
X160769568Y-123732046D01*
X160749548Y-123674020D01*
X160670721Y-123630853D01*
X160621610Y-123641176D01*
X160586888Y-123672144D01*
X160564992Y-123729700D01*
X160554356Y-123819789D01*
X160415254Y-123819789D01*
X160419014Y-123766612D01*
X160440911Y-123682153D01*
X160477405Y-123616464D01*
X160528497Y-123569543D01*
X160594187Y-123541390D01*
X160674474Y-123532006D01*
X160747741Y-123540834D01*
X160807383Y-123567318D01*
X160853400Y-123611459D01*
X160886071Y-123675202D01*
X160905674Y-123760494D01*
X160912208Y-123867336D01*
X160909706Y-123917385D01*
X160554356Y-123917385D01*
X160568902Y-124005128D01*
G37*
G36*
X166225388Y-122607658D02*
G01*
X166083148Y-122607658D01*
X166166036Y-122255868D01*
X166295238Y-122255868D01*
X166469228Y-122255868D01*
X166382868Y-121820258D01*
X166381598Y-121820258D01*
X166295238Y-122255868D01*
X166166036Y-122255868D01*
X166301588Y-121680558D01*
X166466688Y-121680558D01*
X166686398Y-122607658D01*
X166539078Y-122607658D01*
X166490818Y-122363818D01*
X166273648Y-122363818D01*
X166225388Y-122607658D01*
G37*
G36*
X162477142Y-122414777D02*
G01*
X162508733Y-122473673D01*
X162558104Y-122506535D01*
X162626208Y-122517488D01*
X162704313Y-122508916D01*
X162791308Y-122483198D01*
X162791308Y-122588608D01*
X162698280Y-122612421D01*
X162609698Y-122620358D01*
X162532202Y-122613360D01*
X162466628Y-122592367D01*
X162412977Y-122557377D01*
X162371249Y-122508391D01*
X162341443Y-122445409D01*
X162323559Y-122368432D01*
X162317598Y-122277458D01*
X162321190Y-122226658D01*
X162462378Y-122226658D01*
X162688438Y-122226658D01*
X162680818Y-122137600D01*
X162660498Y-122078703D01*
X162580488Y-122034888D01*
X162530640Y-122045366D01*
X162495398Y-122076798D01*
X162473173Y-122135218D01*
X162462378Y-122226658D01*
X162321190Y-122226658D01*
X162325006Y-122172683D01*
X162347231Y-122086958D01*
X162384273Y-122020283D01*
X162436131Y-121972658D01*
X162502806Y-121944083D01*
X162584298Y-121934558D01*
X162658663Y-121943519D01*
X162719200Y-121970401D01*
X162765908Y-122015203D01*
X162799069Y-122079903D01*
X162818966Y-122166474D01*
X162825598Y-122274918D01*
X162823058Y-122325718D01*
X162462378Y-122325718D01*
X162477142Y-122414777D01*
G37*
G36*
X161363138Y-123537150D02*
G01*
X161431330Y-123552581D01*
X161477139Y-123578301D01*
X161516084Y-123646181D01*
X161529065Y-123757227D01*
X161529065Y-124195158D01*
X161393932Y-124195158D01*
X161393932Y-123750971D01*
X161368908Y-123659631D01*
X161276317Y-123634607D01*
X161191233Y-123662134D01*
X161191233Y-124195158D01*
X161053597Y-124195158D01*
X161053597Y-123584557D01*
X161119079Y-123555362D01*
X161192067Y-123537845D01*
X161272563Y-123532006D01*
X161363138Y-123537150D01*
G37*
G36*
X167450675Y-124005128D02*
G01*
X167481799Y-124063153D01*
X167530441Y-124095529D01*
X167597538Y-124106321D01*
X167674489Y-124097875D01*
X167760198Y-124072538D01*
X167760198Y-124176390D01*
X167668546Y-124199850D01*
X167581272Y-124207671D01*
X167493339Y-124198286D01*
X167421393Y-124170134D01*
X167365435Y-124123213D01*
X167325465Y-124057523D01*
X167301483Y-123973065D01*
X167293489Y-123869838D01*
X167297028Y-123819789D01*
X167436129Y-123819789D01*
X167658849Y-123819789D01*
X167651341Y-123732046D01*
X167631322Y-123674020D01*
X167552494Y-123630853D01*
X167503383Y-123641176D01*
X167468661Y-123672144D01*
X167446765Y-123729700D01*
X167436129Y-123819789D01*
X167297028Y-123819789D01*
X167300788Y-123766612D01*
X167322684Y-123682153D01*
X167359179Y-123616464D01*
X167410271Y-123569543D01*
X167475960Y-123541390D01*
X167556248Y-123532006D01*
X167629514Y-123540834D01*
X167689156Y-123567318D01*
X167735174Y-123611459D01*
X167767845Y-123675202D01*
X167787447Y-123760494D01*
X167793982Y-123867336D01*
X167791479Y-123917385D01*
X167436129Y-123917385D01*
X167450675Y-124005128D01*
G37*
G36*
X165168748Y-121998058D02*
G01*
X165060798Y-121998058D01*
X165022698Y-121617058D01*
X165206848Y-121617058D01*
X165168748Y-121998058D01*
G37*
G36*
X172665026Y-123400626D02*
G01*
X172499863Y-123400626D01*
X172499863Y-123244222D01*
X172665026Y-123244222D01*
X172665026Y-123400626D01*
G37*
G36*
X162395752Y-124172080D02*
G01*
X162344868Y-124127592D01*
X162308722Y-124063362D01*
X162287034Y-123977444D01*
X162279804Y-123869838D01*
X162419942Y-123869838D01*
X162426980Y-123984482D01*
X162448095Y-124055646D01*
X162485788Y-124092714D01*
X162542563Y-124105070D01*
X162599338Y-124092714D01*
X162637031Y-124055646D01*
X162658145Y-123984482D01*
X162665184Y-123869838D01*
X162658145Y-123755194D01*
X162637031Y-123684030D01*
X162599338Y-123646963D01*
X162542563Y-123634607D01*
X162485788Y-123646963D01*
X162448095Y-123684030D01*
X162426980Y-123755194D01*
X162419942Y-123869838D01*
X162279804Y-123869838D01*
X162287034Y-123762232D01*
X162308722Y-123676314D01*
X162344868Y-123612084D01*
X162395752Y-123567596D01*
X162461650Y-123540903D01*
X162542563Y-123532006D01*
X162623476Y-123540903D01*
X162689374Y-123567596D01*
X162740258Y-123612084D01*
X162776404Y-123676314D01*
X162798092Y-123762232D01*
X162805322Y-123869838D01*
X162798092Y-123977444D01*
X162776404Y-124063362D01*
X162740258Y-124127592D01*
X162689374Y-124172080D01*
X162623476Y-124198773D01*
X162542563Y-124207671D01*
X162461650Y-124198773D01*
X162395752Y-124172080D01*
G37*
G36*
X168244912Y-123537150D02*
G01*
X168313104Y-123552581D01*
X168358913Y-123578301D01*
X168397857Y-123646181D01*
X168410839Y-123757227D01*
X168410839Y-124195158D01*
X168275706Y-124195158D01*
X168275706Y-123750971D01*
X168250681Y-123659631D01*
X168158090Y-123634607D01*
X168073006Y-123662134D01*
X168073006Y-124195158D01*
X167935371Y-124195158D01*
X167935371Y-123584557D01*
X168000852Y-123555362D01*
X168073840Y-123537845D01*
X168154336Y-123532006D01*
X168244912Y-123537150D01*
G37*
G36*
X176389942Y-124195158D02*
G01*
X176221026Y-124195158D01*
X176221026Y-124019986D01*
X176389942Y-124019986D01*
X176389942Y-124195158D01*
G37*
G36*
X172040036Y-123538887D02*
G01*
X172139509Y-123559533D01*
X172139509Y-123663385D01*
X172039410Y-123639924D01*
X171944317Y-123632104D01*
X171862674Y-123652437D01*
X171835459Y-123713434D01*
X171857356Y-123769740D01*
X171931804Y-123804774D01*
X172043320Y-123839809D01*
X172112607Y-123882350D01*
X172148737Y-123939907D01*
X172160780Y-124019986D01*
X172144983Y-124099752D01*
X172097592Y-124158873D01*
X172021424Y-124195471D01*
X171919292Y-124207671D01*
X171842550Y-124203222D01*
X171770813Y-124189875D01*
X171704080Y-124167631D01*
X171704080Y-124057523D01*
X171803866Y-124094121D01*
X171898021Y-124106321D01*
X171993115Y-124085676D01*
X172021893Y-124019986D01*
X171999371Y-123957424D01*
X171916790Y-123919887D01*
X171815127Y-123885322D01*
X171747873Y-123841685D01*
X171710336Y-123785536D01*
X171697824Y-123713434D01*
X171712526Y-123636014D01*
X171756632Y-123578927D01*
X171829829Y-123543736D01*
X171931804Y-123532006D01*
X172040036Y-123538887D01*
G37*
G36*
X170843858Y-123273001D02*
G01*
X170903292Y-123284262D01*
X170903292Y-123386863D01*
X170805696Y-123369346D01*
X170750642Y-123379355D01*
X170728120Y-123421272D01*
X170723427Y-123464283D01*
X170721863Y-123529503D01*
X170721863Y-123569543D01*
X170903292Y-123569543D01*
X170903292Y-123670892D01*
X170721863Y-123670892D01*
X170721863Y-124195158D01*
X170584228Y-124195158D01*
X170584228Y-123670892D01*
X170446592Y-123670892D01*
X170446592Y-123569543D01*
X170584228Y-123569543D01*
X170584228Y-123496971D01*
X170595176Y-123388740D01*
X170628021Y-123319296D01*
X170687455Y-123281759D01*
X170778169Y-123269247D01*
X170843858Y-123273001D01*
G37*
G36*
X172665026Y-124195158D02*
G01*
X172524888Y-124195158D01*
X172524888Y-123645868D01*
X172358474Y-123645868D01*
X172358474Y-123544518D01*
X172665026Y-123544518D01*
X172665026Y-124195158D01*
G37*
G36*
X165854548Y-122353658D02*
G01*
X165858358Y-122353658D01*
X165858358Y-121680558D01*
X165991708Y-121680558D01*
X165991708Y-122607658D01*
X165849468Y-122607658D01*
X165651348Y-121934558D01*
X165648808Y-121934558D01*
X165648808Y-122607658D01*
X165509108Y-122607658D01*
X165509108Y-121680558D01*
X165656428Y-121680558D01*
X165854548Y-122353658D01*
G37*
G36*
X167125668Y-123540921D02*
G01*
X167175248Y-123567666D01*
X167201054Y-123620374D01*
X167209657Y-123707178D01*
X167209657Y-124195158D01*
X167083282Y-124195158D01*
X167083282Y-123694666D01*
X167073272Y-123647119D01*
X167038238Y-123634607D01*
X166986937Y-123652124D01*
X166986937Y-124195158D01*
X166861814Y-124195158D01*
X166861814Y-123694666D01*
X166851804Y-123647745D01*
X166815519Y-123634607D01*
X166765469Y-123652124D01*
X166765469Y-124195158D01*
X166634090Y-124195158D01*
X166634090Y-123579552D01*
X166716984Y-123543892D01*
X166810514Y-123532006D01*
X166874014Y-123539826D01*
X166921873Y-123563286D01*
X166980368Y-123539826D01*
X167045745Y-123532006D01*
X167125668Y-123540921D01*
G37*
G36*
X168797279Y-122595523D02*
G01*
X168745703Y-122564478D01*
X168694744Y-122497168D01*
X168677758Y-122406998D01*
X168812378Y-122406998D01*
X168845398Y-122491453D01*
X168938108Y-122521298D01*
X169021928Y-122504788D01*
X169021928Y-122277458D01*
X168986368Y-122277458D01*
X168907469Y-122285396D01*
X168853653Y-122309208D01*
X168822697Y-122349531D01*
X168812378Y-122406998D01*
X168677758Y-122406998D01*
X168696967Y-122310637D01*
X168754593Y-122239993D01*
X168814494Y-122207891D01*
X168891753Y-122188629D01*
X168986368Y-122182208D01*
X169021928Y-122182208D01*
X169021928Y-122160618D01*
X169002243Y-122062193D01*
X168915248Y-122038698D01*
X168851748Y-122043778D01*
X168783168Y-122059018D01*
X168709508Y-122084418D01*
X168709508Y-121975198D01*
X168783450Y-121952621D01*
X168854570Y-121939074D01*
X168922868Y-121934558D01*
X169039867Y-121947258D01*
X169111463Y-121985358D01*
X169138627Y-122030232D01*
X169154925Y-122097118D01*
X169160358Y-122186018D01*
X169160358Y-122579718D01*
X169089379Y-122602296D01*
X169015296Y-122615843D01*
X168938108Y-122620358D01*
X168861414Y-122614149D01*
X168797279Y-122595523D01*
G37*
G36*
X163174435Y-124019986D02*
G01*
X163176937Y-124019986D01*
X163307065Y-123544518D01*
X163449706Y-123544518D01*
X163150661Y-124470429D01*
X163013026Y-124470429D01*
X163115627Y-124182646D01*
X162899164Y-123544518D01*
X163035548Y-123544518D01*
X163174435Y-124019986D01*
G37*
G36*
X161845158Y-122213958D02*
G01*
X162058518Y-121947258D01*
X162219808Y-121947258D01*
X161955648Y-122264758D01*
X162219808Y-122607658D01*
X162055978Y-122607658D01*
X161845158Y-122319368D01*
X161845158Y-122607658D01*
X161705458Y-122607658D01*
X161705458Y-121655158D01*
X161845158Y-121655158D01*
X161845158Y-122213958D01*
G37*
G36*
X163717279Y-122595523D02*
G01*
X163665703Y-122564478D01*
X163614744Y-122497168D01*
X163597758Y-122406998D01*
X163732378Y-122406998D01*
X163765398Y-122491453D01*
X163858108Y-122521298D01*
X163941928Y-122504788D01*
X163941928Y-122277458D01*
X163906368Y-122277458D01*
X163827469Y-122285396D01*
X163773653Y-122309208D01*
X163742697Y-122349531D01*
X163732378Y-122406998D01*
X163597758Y-122406998D01*
X163616967Y-122310637D01*
X163674593Y-122239993D01*
X163734494Y-122207891D01*
X163811753Y-122188629D01*
X163906368Y-122182208D01*
X163941928Y-122182208D01*
X163941928Y-122160618D01*
X163922243Y-122062193D01*
X163835248Y-122038698D01*
X163771748Y-122043778D01*
X163703168Y-122059018D01*
X163629508Y-122084418D01*
X163629508Y-121975198D01*
X163703450Y-121952621D01*
X163774570Y-121939074D01*
X163842868Y-121934558D01*
X163959867Y-121947258D01*
X164031463Y-121985358D01*
X164058627Y-122030232D01*
X164074925Y-122097118D01*
X164080358Y-122186018D01*
X164080358Y-122579718D01*
X164009379Y-122602296D01*
X163935296Y-122615843D01*
X163858108Y-122620358D01*
X163781414Y-122614149D01*
X163717279Y-122595523D01*
G37*
G36*
X162038317Y-123400626D02*
G01*
X161873154Y-123400626D01*
X161873154Y-123244222D01*
X162038317Y-123244222D01*
X162038317Y-123400626D01*
G37*
G36*
X175583680Y-124005128D02*
G01*
X175614804Y-124063153D01*
X175663446Y-124095529D01*
X175730543Y-124106321D01*
X175807494Y-124097875D01*
X175893203Y-124072538D01*
X175893203Y-124176390D01*
X175801551Y-124199850D01*
X175714277Y-124207671D01*
X175626343Y-124198286D01*
X175554398Y-124170134D01*
X175498440Y-124123213D01*
X175458470Y-124057523D01*
X175434488Y-123973065D01*
X175426494Y-123869838D01*
X175430033Y-123819789D01*
X175569134Y-123819789D01*
X175791854Y-123819789D01*
X175784346Y-123732046D01*
X175764326Y-123674020D01*
X175685499Y-123630853D01*
X175636388Y-123641176D01*
X175601666Y-123672144D01*
X175579770Y-123729700D01*
X175569134Y-123819789D01*
X175430033Y-123819789D01*
X175433793Y-123766612D01*
X175455689Y-123682153D01*
X175492184Y-123616464D01*
X175543276Y-123569543D01*
X175608965Y-123541390D01*
X175689253Y-123532006D01*
X175762519Y-123540834D01*
X175822161Y-123567318D01*
X175868179Y-123611459D01*
X175900850Y-123675202D01*
X175920452Y-123760494D01*
X175926987Y-123867336D01*
X175924484Y-123917385D01*
X175569134Y-123917385D01*
X175583680Y-124005128D01*
G37*
G36*
X166923888Y-122607658D02*
G01*
X166781648Y-122607658D01*
X166781648Y-122178398D01*
X166923888Y-122178398D01*
X166997548Y-122187288D01*
X167065969Y-122175382D01*
X167113753Y-122139663D01*
X167141852Y-122075370D01*
X167151218Y-121977738D01*
X167141852Y-121886933D01*
X167113753Y-121825338D01*
X167065969Y-121790096D01*
X166997548Y-121778348D01*
X166923888Y-121788508D01*
X166923888Y-122178398D01*
X166781648Y-122178398D01*
X166781648Y-121693258D01*
X166852486Y-121679147D01*
X166924452Y-121670681D01*
X166997548Y-121667858D01*
X167089976Y-121675972D01*
X167164059Y-121700314D01*
X167219798Y-121740883D01*
X167258603Y-121799656D01*
X167281887Y-121878608D01*
X167289648Y-121977738D01*
X167281675Y-122078633D01*
X167257757Y-122159489D01*
X167217893Y-122220308D01*
X167161519Y-122262642D01*
X167088071Y-122288042D01*
X166997548Y-122296508D01*
X166923888Y-122290158D01*
X166923888Y-122607658D01*
G37*
G36*
X174501069Y-123537150D02*
G01*
X174569261Y-123552581D01*
X174615070Y-123578301D01*
X174654015Y-123646181D01*
X174666996Y-123757227D01*
X174666996Y-124195158D01*
X174531863Y-124195158D01*
X174531863Y-123750971D01*
X174506839Y-123659631D01*
X174414248Y-123634607D01*
X174329164Y-123662134D01*
X174329164Y-124195158D01*
X174191528Y-124195158D01*
X174191528Y-123584557D01*
X174257010Y-123555362D01*
X174329998Y-123537845D01*
X174410494Y-123532006D01*
X174501069Y-123537150D01*
G37*
G36*
X165874436Y-123540921D02*
G01*
X165924016Y-123567666D01*
X165949823Y-123620374D01*
X165958425Y-123707178D01*
X165958425Y-124195158D01*
X165832051Y-124195158D01*
X165832051Y-123694666D01*
X165822041Y-123647119D01*
X165787006Y-123634607D01*
X165735706Y-123652124D01*
X165735706Y-124195158D01*
X165610583Y-124195158D01*
X165610583Y-123694666D01*
X165600573Y-123647745D01*
X165564287Y-123634607D01*
X165514238Y-123652124D01*
X165514238Y-124195158D01*
X165382858Y-124195158D01*
X165382858Y-123579552D01*
X165465753Y-123543892D01*
X165559282Y-123532006D01*
X165622782Y-123539826D01*
X165670642Y-123563286D01*
X165729137Y-123539826D01*
X165794514Y-123532006D01*
X165874436Y-123540921D01*
G37*
G36*
X173706833Y-124005128D02*
G01*
X173737957Y-124063153D01*
X173786599Y-124095529D01*
X173853696Y-124106321D01*
X173930647Y-124097875D01*
X174016356Y-124072538D01*
X174016356Y-124176390D01*
X173924703Y-124199850D01*
X173837430Y-124207671D01*
X173749496Y-124198286D01*
X173677550Y-124170134D01*
X173621592Y-124123213D01*
X173581623Y-124057523D01*
X173557641Y-123973065D01*
X173549647Y-123869838D01*
X173553186Y-123819789D01*
X173692287Y-123819789D01*
X173915006Y-123819789D01*
X173907499Y-123732046D01*
X173887479Y-123674020D01*
X173808652Y-123630853D01*
X173759541Y-123641176D01*
X173724819Y-123672144D01*
X173702923Y-123729700D01*
X173692287Y-123819789D01*
X173553186Y-123819789D01*
X173556946Y-123766612D01*
X173578842Y-123682153D01*
X173615336Y-123616464D01*
X173666428Y-123569543D01*
X173732118Y-123541390D01*
X173812405Y-123532006D01*
X173885672Y-123540834D01*
X173945314Y-123567318D01*
X173991331Y-123611459D01*
X174024002Y-123675202D01*
X174043605Y-123760494D01*
X174050139Y-123867336D01*
X174047637Y-123917385D01*
X173692287Y-123917385D01*
X173706833Y-124005128D01*
G37*
G36*
X169903141Y-124172080D02*
G01*
X169852258Y-124127592D01*
X169816111Y-124063362D01*
X169794423Y-123977444D01*
X169787193Y-123869838D01*
X169927331Y-123869838D01*
X169934370Y-123984482D01*
X169955484Y-124055646D01*
X169993177Y-124092714D01*
X170049952Y-124105070D01*
X170106727Y-124092714D01*
X170144420Y-124055646D01*
X170165535Y-123984482D01*
X170172573Y-123869838D01*
X170165535Y-123755194D01*
X170144420Y-123684030D01*
X170106727Y-123646963D01*
X170049952Y-123634607D01*
X169993177Y-123646963D01*
X169955484Y-123684030D01*
X169934370Y-123755194D01*
X169927331Y-123869838D01*
X169787193Y-123869838D01*
X169794423Y-123762232D01*
X169816111Y-123676314D01*
X169852258Y-123612084D01*
X169903141Y-123567596D01*
X169969039Y-123540903D01*
X170049952Y-123532006D01*
X170130865Y-123540903D01*
X170196763Y-123567596D01*
X170247647Y-123612084D01*
X170283793Y-123676314D01*
X170305481Y-123762232D01*
X170312711Y-123869838D01*
X170305481Y-123977444D01*
X170283793Y-124063362D01*
X170247647Y-124127592D01*
X170196763Y-124172080D01*
X170130865Y-124198773D01*
X170049952Y-124207671D01*
X169969039Y-124198773D01*
X169903141Y-124172080D01*
G37*
G36*
X170055849Y-122585645D02*
G01*
X170002368Y-122542253D01*
X169964973Y-122478118D01*
X169942537Y-122389853D01*
X169935058Y-122277458D01*
X170074758Y-122277458D01*
X170083013Y-122392076D01*
X170107778Y-122466688D01*
X170149370Y-122507646D01*
X170208108Y-122521298D01*
X170290658Y-122504788D01*
X170290658Y-122081878D01*
X170244620Y-122049493D01*
X170185248Y-122038698D01*
X170136512Y-122052192D01*
X170102063Y-122092673D01*
X170081584Y-122165857D01*
X170074758Y-122277458D01*
X169935058Y-122277458D01*
X169941478Y-122166968D01*
X169960740Y-122079338D01*
X169992843Y-122014568D01*
X170038210Y-121970118D01*
X170097265Y-121943448D01*
X170170008Y-121934558D01*
X170231920Y-121941543D01*
X170290658Y-121962498D01*
X170290658Y-121655158D01*
X170430358Y-121655158D01*
X170430358Y-122579718D01*
X170365164Y-122602296D01*
X170293198Y-122615843D01*
X170214458Y-122620358D01*
X170208108Y-122619732D01*
X170126546Y-122611680D01*
X170055849Y-122585645D01*
G37*
G36*
X160930758Y-121791048D02*
G01*
X160741528Y-121791048D01*
X160741528Y-122607658D01*
X160599288Y-122607658D01*
X160599288Y-121791048D01*
X160410058Y-121791048D01*
X160410058Y-121680558D01*
X160930758Y-121680558D01*
X160930758Y-121791048D01*
G37*
%TO.C,RISO2*%
X175165000Y-98322936D02*
X175165000Y-98777064D01*
X176635000Y-98322936D02*
X176635000Y-98777064D01*
%TO.C,R51*%
X123070000Y-102943641D02*
X123070000Y-102636359D01*
X123830000Y-102943641D02*
X123830000Y-102636359D01*
%TO.C,J5*%
X182060000Y-105200000D02*
X182260000Y-105200000D01*
X179460000Y-108200000D02*
X179260000Y-108200000D01*
X182260000Y-108200000D02*
X182060000Y-108200000D01*
X182260000Y-105200000D02*
X182260000Y-106000000D01*
X179260000Y-106000000D02*
X179260000Y-105400000D01*
X179260000Y-106000000D02*
X178760000Y-106000000D01*
X179260000Y-105400000D02*
X179460000Y-105200000D01*
X182260000Y-107400000D02*
X182260000Y-108200000D01*
X179260000Y-108200000D02*
X179260000Y-107400000D01*
X179260000Y-107400000D02*
X178760000Y-107400000D01*
%TO.C,R12*%
X145946358Y-108019905D02*
X146253640Y-108019905D01*
X145946358Y-108779905D02*
X146253640Y-108779905D01*
%TO.C,C7*%
X173411252Y-114534999D02*
X172888748Y-114534999D01*
X173411252Y-113064999D02*
X172888748Y-113064999D01*
%TO.C,J3*%
X179210000Y-100300000D02*
X178710000Y-100300000D01*
X179210000Y-102500000D02*
X179210000Y-101700000D01*
X182210000Y-102500000D02*
X182010000Y-102500000D01*
X182210000Y-99500000D02*
X182210000Y-100300000D01*
X179210000Y-101700000D02*
X178710000Y-101700000D01*
X179210000Y-99700000D02*
X179410000Y-99500000D01*
X179210000Y-100300000D02*
X179210000Y-99700000D01*
X182010000Y-99500000D02*
X182210000Y-99500000D01*
X179410000Y-102500000D02*
X179210000Y-102500000D01*
X182210000Y-101700000D02*
X182210000Y-102500000D01*
%TO.C,kibuzzard-6378A94A*%
G36*
X159769131Y-111337729D02*
G01*
X159769131Y-114216184D01*
X159100000Y-114662271D01*
X158430869Y-114216184D01*
X158430869Y-113932815D01*
X158549931Y-113932815D01*
X158554217Y-114011753D01*
X158567076Y-114082834D01*
X158697092Y-114082834D01*
X158681019Y-114021755D01*
X158675661Y-113961390D01*
X158699236Y-113875665D01*
X158807106Y-113857091D01*
X159162865Y-113857091D01*
X159162865Y-114097121D01*
X159278594Y-114097121D01*
X159278594Y-113857091D01*
X159550056Y-113857091D01*
X159550056Y-113701358D01*
X159278594Y-113701358D01*
X159278594Y-113554196D01*
X159162865Y-113554196D01*
X159162865Y-113701358D01*
X158778531Y-113701358D01*
X158667803Y-113714038D01*
X158598509Y-113752078D01*
X158562076Y-113822623D01*
X158549931Y-113932815D01*
X158430869Y-113932815D01*
X158430869Y-113382746D01*
X158564219Y-113382746D01*
X158679947Y-113382746D01*
X158679947Y-113191294D01*
X159607206Y-113191294D01*
X159607206Y-112839821D01*
X159491477Y-112839821D01*
X159491477Y-113031274D01*
X158564219Y-113031274D01*
X158564219Y-113382746D01*
X158430869Y-113382746D01*
X158430869Y-112532640D01*
X158564219Y-112532640D01*
X159307169Y-112532640D01*
X159471475Y-112532640D01*
X159650069Y-112532640D01*
X159650069Y-112344045D01*
X159471475Y-112344045D01*
X159471475Y-112532640D01*
X159307169Y-112532640D01*
X159307169Y-112182596D01*
X159191440Y-112182596D01*
X159191440Y-112372620D01*
X158564219Y-112372620D01*
X158564219Y-112532640D01*
X158430869Y-112532640D01*
X158430869Y-111616811D01*
X158564219Y-111616811D01*
X159064281Y-111616811D01*
X159064281Y-111928279D01*
X159185725Y-111928279D01*
X159185725Y-111616811D01*
X159482905Y-111616811D01*
X159482905Y-111942566D01*
X159607206Y-111942566D01*
X159607206Y-111456791D01*
X158564219Y-111456791D01*
X158564219Y-111616811D01*
X158430869Y-111616811D01*
X158430869Y-111337729D01*
X159769131Y-111337729D01*
G37*
%TO.C,R25*%
X169599999Y-106461359D02*
X169599999Y-106768641D01*
X170359999Y-106461359D02*
X170359999Y-106768641D01*
%TO.C,R29*%
X175165000Y-95327064D02*
X175165000Y-94872936D01*
X176635000Y-95327064D02*
X176635000Y-94872936D01*
%TO.C,C56*%
X139897837Y-116899813D02*
X139682165Y-116899813D01*
X139897837Y-117619813D02*
X139682165Y-117619813D01*
%TO.C,R32*%
X140567349Y-101772406D02*
X141021477Y-101772406D01*
X140567349Y-100302406D02*
X141021477Y-100302406D01*
%TO.C,C34*%
X162040000Y-106732836D02*
X162040000Y-106517164D01*
X161320000Y-106732836D02*
X161320000Y-106517164D01*
%TO.C,R13*%
X145946358Y-107020001D02*
X146253640Y-107020001D01*
X145946358Y-107780001D02*
X146253640Y-107780001D01*
%TO.C,TP2*%
X159850000Y-115749906D02*
G75*
G03*
X159850000Y-115749906I-700000J0D01*
G01*
%TO.C,TP3*%
X159900000Y-104249906D02*
G75*
G03*
X159900000Y-104249906I-700000J0D01*
G01*
%TO.C,C13*%
X173411252Y-100635000D02*
X172888748Y-100635000D01*
X173411252Y-99165000D02*
X172888748Y-99165000D01*
%TO.C,C42*%
X173411252Y-109215000D02*
X172888748Y-109215000D01*
X173411252Y-110685000D02*
X172888748Y-110685000D01*
%TO.C,kibuzzard-6378A7F5*%
G36*
X178031840Y-108585746D02*
G01*
X177930756Y-108625930D01*
X177841776Y-108644583D01*
X177733906Y-108655775D01*
X177607144Y-108659506D01*
X177480382Y-108655775D01*
X177372511Y-108644583D01*
X177283532Y-108625930D01*
X177182448Y-108585746D01*
X177117797Y-108532347D01*
X177082971Y-108462695D01*
X177071362Y-108373756D01*
X177191378Y-108373756D01*
X177224239Y-108448765D01*
X177272102Y-108473947D01*
X177349969Y-108493771D01*
X177419819Y-108503296D01*
X177505544Y-108509011D01*
X177607144Y-108510916D01*
X177725730Y-108508058D01*
X177301391Y-108263742D01*
X177216381Y-108306604D01*
X177191378Y-108373756D01*
X177071362Y-108373756D01*
X177082971Y-108284816D01*
X177104938Y-108240882D01*
X177462840Y-108240882D01*
X177892894Y-108489484D01*
X177993621Y-108445193D01*
X178022910Y-108373756D01*
X177990049Y-108298746D01*
X177942186Y-108273565D01*
X177864319Y-108253741D01*
X177794469Y-108244216D01*
X177708744Y-108238501D01*
X177607144Y-108236596D01*
X177529634Y-108237667D01*
X177462840Y-108240882D01*
X177104938Y-108240882D01*
X177117797Y-108215164D01*
X177182448Y-108161765D01*
X177283532Y-108121581D01*
X177372511Y-108102928D01*
X177480382Y-108091736D01*
X177607144Y-108088006D01*
X177733906Y-108091736D01*
X177841776Y-108102928D01*
X177930756Y-108121581D01*
X178031840Y-108161765D01*
X178096491Y-108215164D01*
X178131316Y-108284816D01*
X178142925Y-108373756D01*
X178131316Y-108462695D01*
X178108635Y-108508058D01*
X178096491Y-108532347D01*
X178031840Y-108585746D01*
G37*
G36*
X178128638Y-103837474D02*
G01*
X178128638Y-104023212D01*
X177428550Y-104094649D01*
X177428550Y-104098936D01*
X178128638Y-104183232D01*
X178128638Y-104337537D01*
X177085650Y-104430406D01*
X177085650Y-104277529D01*
X177878606Y-104227523D01*
X177878606Y-104224666D01*
X177257100Y-104146084D01*
X177257100Y-104018926D01*
X177978619Y-103943202D01*
X177978619Y-103940344D01*
X177085650Y-103887481D01*
X177085650Y-103744606D01*
X178128638Y-103837474D01*
G37*
G36*
X178010051Y-106304926D02*
G01*
X178012909Y-106304926D01*
X178012909Y-105977742D01*
X178128638Y-105977742D01*
X178128638Y-106484948D01*
X178012909Y-106484948D01*
X177504274Y-106157764D01*
X177501416Y-106157764D01*
X177501416Y-106484948D01*
X177385687Y-106484948D01*
X177385687Y-105977742D01*
X177501416Y-105977742D01*
X178010051Y-106304926D01*
G37*
G36*
X178130225Y-104991746D02*
G01*
X178114350Y-105070486D01*
X177099937Y-105070486D01*
X177078506Y-104956900D01*
X177071362Y-104839028D01*
X177194235Y-104839028D01*
X177205665Y-104910466D01*
X178008623Y-104910466D01*
X178020052Y-104830456D01*
X178008444Y-104753125D01*
X177973618Y-104698296D01*
X177913432Y-104665614D01*
X177825742Y-104654719D01*
X177736803Y-104666507D01*
X177675724Y-104701868D01*
X177640362Y-104762590D01*
X177628575Y-104850458D01*
X177628575Y-104910466D01*
X177507131Y-104910466D01*
X177507131Y-104869032D01*
X177497309Y-104784736D01*
X177467841Y-104726157D01*
X177416584Y-104691867D01*
X177341396Y-104680437D01*
X177259640Y-104698058D01*
X177210586Y-104750922D01*
X177194235Y-104839028D01*
X177071362Y-104839028D01*
X177081764Y-104726900D01*
X177112968Y-104639689D01*
X177164974Y-104577395D01*
X177237783Y-104540019D01*
X177331395Y-104527561D01*
X177412119Y-104538812D01*
X177479985Y-104572566D01*
X177530706Y-104624894D01*
X177559995Y-104691867D01*
X177561424Y-104691867D01*
X177591785Y-104615965D01*
X177651435Y-104553992D01*
X177732874Y-104512737D01*
X177828600Y-104498986D01*
X177924644Y-104508193D01*
X178003225Y-104535816D01*
X178064344Y-104581853D01*
X178108000Y-104646306D01*
X178134194Y-104729173D01*
X178142925Y-104830456D01*
X178139800Y-104910466D01*
X178139750Y-104911736D01*
X178130225Y-104991746D01*
G37*
G36*
X178031840Y-109300121D02*
G01*
X177930756Y-109340305D01*
X177841776Y-109358958D01*
X177733906Y-109370150D01*
X177607144Y-109373881D01*
X177480382Y-109370150D01*
X177372511Y-109358958D01*
X177283532Y-109340305D01*
X177182448Y-109300121D01*
X177117797Y-109246722D01*
X177082971Y-109177070D01*
X177071362Y-109088131D01*
X177191378Y-109088131D01*
X177224239Y-109163140D01*
X177272102Y-109188322D01*
X177349969Y-109208146D01*
X177419819Y-109217671D01*
X177505544Y-109223386D01*
X177607144Y-109225291D01*
X177725730Y-109222433D01*
X177301391Y-108978117D01*
X177216381Y-109020979D01*
X177191378Y-109088131D01*
X177071362Y-109088131D01*
X177082971Y-108999191D01*
X177104938Y-108955257D01*
X177462840Y-108955257D01*
X177892894Y-109203859D01*
X177993621Y-109159568D01*
X178022910Y-109088131D01*
X177990049Y-109013121D01*
X177942186Y-108987940D01*
X177864319Y-108968116D01*
X177794469Y-108958591D01*
X177708744Y-108952876D01*
X177607144Y-108950971D01*
X177529634Y-108952042D01*
X177462840Y-108955257D01*
X177104938Y-108955257D01*
X177117797Y-108929539D01*
X177182448Y-108876140D01*
X177283532Y-108835956D01*
X177372511Y-108817303D01*
X177480382Y-108806111D01*
X177607144Y-108802381D01*
X177733906Y-108806111D01*
X177841776Y-108817303D01*
X177930756Y-108835956D01*
X178031840Y-108876140D01*
X178096491Y-108929539D01*
X178131316Y-108999191D01*
X178142925Y-109088131D01*
X178131316Y-109177070D01*
X178108635Y-109222433D01*
X178096491Y-109246722D01*
X178031840Y-109300121D01*
G37*
G36*
X178128638Y-106820704D02*
G01*
X177628575Y-106820704D01*
X177628575Y-107075022D01*
X178128638Y-107075022D01*
X178128638Y-107230756D01*
X177085650Y-107230756D01*
X177085650Y-107075022D01*
X177507131Y-107075022D01*
X177507131Y-106820704D01*
X177085650Y-106820704D01*
X177085650Y-106659256D01*
X178128638Y-106659256D01*
X178128638Y-106820704D01*
G37*
G36*
X178128638Y-107529364D02*
G01*
X177804311Y-107766537D01*
X178128638Y-107766537D01*
X178128638Y-107923699D01*
X177057075Y-107923699D01*
X177057075Y-107766537D01*
X177685725Y-107766537D01*
X177385687Y-107526507D01*
X177385687Y-107345056D01*
X177742875Y-107642236D01*
X178128638Y-107345056D01*
X178128638Y-107529364D01*
G37*
G36*
X178128638Y-109806792D02*
G01*
X177235669Y-109806792D01*
X177234240Y-109809649D01*
X177371400Y-110055394D01*
X177231382Y-110055394D01*
X177085650Y-109805363D01*
X177085650Y-109646772D01*
X178128638Y-109646772D01*
X178128638Y-109806792D01*
G37*
%TO.C,C33*%
X162040000Y-117017164D02*
X162040000Y-117232836D01*
X161320000Y-117017164D02*
X161320000Y-117232836D01*
%TO.C,kibuzzard-6378A7DC*%
G36*
X179029102Y-97842875D02*
G01*
X179031959Y-97842875D01*
X179117684Y-97178506D01*
X179297707Y-97178506D01*
X179350571Y-98221494D01*
X179197694Y-98221494D01*
X179176263Y-97335669D01*
X179174834Y-97335669D01*
X179086252Y-97978606D01*
X178950521Y-97978606D01*
X178869082Y-97335669D01*
X178864796Y-97335669D01*
X178840507Y-98221494D01*
X178700489Y-98221494D01*
X178754782Y-97178506D01*
X178941948Y-97178506D01*
X179029102Y-97842875D01*
G37*
G36*
X178467603Y-98221494D02*
G01*
X178307583Y-98221494D01*
X178307583Y-97328525D01*
X178304726Y-97327096D01*
X178058981Y-97464256D01*
X178058981Y-97324239D01*
X178309012Y-97178506D01*
X178467603Y-97178506D01*
X178467603Y-98221494D01*
G37*
G36*
X182458102Y-97971463D02*
G01*
X182460959Y-97971463D01*
X182539541Y-97349956D01*
X182666699Y-97349956D01*
X182742423Y-98071475D01*
X182745281Y-98071475D01*
X182798144Y-97178506D01*
X182941019Y-97178506D01*
X182848151Y-98221494D01*
X182662413Y-98221494D01*
X182590976Y-97521406D01*
X182586689Y-97521406D01*
X182502393Y-98221494D01*
X182348088Y-98221494D01*
X182255219Y-97178506D01*
X182408096Y-97178506D01*
X182458102Y-97971463D01*
G37*
G36*
X181773889Y-98232606D02*
G01*
X181693879Y-98223081D01*
X181615139Y-98207206D01*
X181615139Y-98101479D01*
X181775159Y-98101479D01*
X181855169Y-98112909D01*
X181932500Y-98101300D01*
X181987329Y-98066474D01*
X182020011Y-98006288D01*
X182030906Y-97918599D01*
X182019118Y-97829659D01*
X181983757Y-97768580D01*
X181923035Y-97733218D01*
X181835167Y-97721431D01*
X181775159Y-97721431D01*
X181775159Y-98101479D01*
X181615139Y-98101479D01*
X181615139Y-97599988D01*
X181775159Y-97599988D01*
X181816593Y-97599988D01*
X181900889Y-97590165D01*
X181959468Y-97560697D01*
X181993758Y-97509440D01*
X182005188Y-97434253D01*
X181987567Y-97352496D01*
X181934703Y-97303443D01*
X181846597Y-97287091D01*
X181775159Y-97298521D01*
X181775159Y-97599988D01*
X181615139Y-97599988D01*
X181615139Y-97192794D01*
X181728725Y-97171362D01*
X181846597Y-97164219D01*
X181958725Y-97174620D01*
X182045936Y-97205824D01*
X182108230Y-97257830D01*
X182145606Y-97330640D01*
X182158064Y-97424251D01*
X182146813Y-97504976D01*
X182113059Y-97572841D01*
X182060731Y-97623562D01*
X181993758Y-97652851D01*
X181993758Y-97654280D01*
X182069660Y-97684641D01*
X182131632Y-97744291D01*
X182172888Y-97825730D01*
X182186639Y-97921456D01*
X182177432Y-98017500D01*
X182149809Y-98096081D01*
X182103772Y-98157200D01*
X182039319Y-98200856D01*
X181956452Y-98227050D01*
X181855169Y-98235781D01*
X181775159Y-98232656D01*
X181773889Y-98232606D01*
G37*
G36*
X179610603Y-97599988D02*
G01*
X179864921Y-97599988D01*
X179864921Y-97178506D01*
X180026369Y-97178506D01*
X180026369Y-98221494D01*
X179864921Y-98221494D01*
X179864921Y-97721431D01*
X179610603Y-97721431D01*
X179610603Y-98221494D01*
X179454869Y-98221494D01*
X179454869Y-97178506D01*
X179610603Y-97178506D01*
X179610603Y-97599988D01*
G37*
G36*
X180707883Y-97594273D02*
G01*
X180380699Y-98102908D01*
X180380699Y-98105765D01*
X180707883Y-98105765D01*
X180707883Y-98221494D01*
X180200677Y-98221494D01*
X180200677Y-98105765D01*
X180527861Y-97597130D01*
X180527861Y-97594273D01*
X180200677Y-97594273D01*
X180200677Y-97478544D01*
X180707883Y-97478544D01*
X180707883Y-97594273D01*
G37*
%TO.C,TP1*%
X159900000Y-109600000D02*
G75*
G03*
X159900000Y-109600000I-700000J0D01*
G01*
%TO.C,C41*%
X173411252Y-108635000D02*
X172888748Y-108635000D01*
X173411252Y-107165000D02*
X172888748Y-107165000D01*
%TO.C,R27*%
X139636358Y-117879813D02*
X139943640Y-117879813D01*
X139636358Y-118639813D02*
X139943640Y-118639813D01*
%TO.C,R28*%
X139636359Y-119639813D02*
X139943641Y-119639813D01*
X139636359Y-118879813D02*
X139943641Y-118879813D01*
%TO.C,C39*%
X163040000Y-106732836D02*
X163040000Y-106517164D01*
X162320000Y-106732836D02*
X162320000Y-106517164D01*
%TO.C,R24*%
X139636358Y-120654906D02*
X139943640Y-120654906D01*
X139636358Y-119894906D02*
X139943640Y-119894906D01*
%TO.C,kibuzzard-6378A590*%
G36*
X170209288Y-120908875D02*
G01*
X169853688Y-120908875D01*
X169853688Y-119835725D01*
X170209288Y-119835725D01*
X170393438Y-119857950D01*
X170564491Y-119828184D01*
X170683950Y-119738888D01*
X170754197Y-119578153D01*
X170777613Y-119334075D01*
X170754197Y-119107063D01*
X170683950Y-118953075D01*
X170564491Y-118864969D01*
X170393438Y-118835600D01*
X170209288Y-118861000D01*
X170209288Y-119835725D01*
X169853688Y-119835725D01*
X169853688Y-118622875D01*
X170030782Y-118587597D01*
X170210699Y-118566431D01*
X170393438Y-118559375D01*
X170624507Y-118579660D01*
X170809715Y-118640514D01*
X170949063Y-118741938D01*
X171046076Y-118888869D01*
X171104285Y-119086249D01*
X171123688Y-119334075D01*
X171103756Y-119586311D01*
X171043960Y-119788453D01*
X170944300Y-119940500D01*
X170803365Y-120046333D01*
X170619744Y-120109833D01*
X170393438Y-120131000D01*
X170209288Y-120115125D01*
X170209288Y-120908875D01*
G37*
G36*
X163728054Y-120850314D02*
G01*
X163598938Y-120737425D01*
X163507215Y-120574442D01*
X163452182Y-120356425D01*
X163433838Y-120083375D01*
X163789438Y-120083375D01*
X163807297Y-120374284D01*
X163860875Y-120554862D01*
X163956522Y-120648922D01*
X164100588Y-120680275D01*
X164244653Y-120648922D01*
X164340300Y-120554862D01*
X164393878Y-120374284D01*
X164411738Y-120083375D01*
X164393878Y-119792466D01*
X164340300Y-119611888D01*
X164244653Y-119517828D01*
X164100588Y-119486475D01*
X163956522Y-119517828D01*
X163860875Y-119611888D01*
X163807297Y-119792466D01*
X163789438Y-120083375D01*
X163433838Y-120083375D01*
X163452182Y-119810325D01*
X163507215Y-119592308D01*
X163598938Y-119429325D01*
X163728054Y-119316436D01*
X163895271Y-119248703D01*
X164100588Y-119226125D01*
X164305904Y-119248703D01*
X164473121Y-119316436D01*
X164602238Y-119429325D01*
X164693960Y-119592308D01*
X164748993Y-119810325D01*
X164767338Y-120083375D01*
X164748993Y-120356425D01*
X164693960Y-120574442D01*
X164602238Y-120737425D01*
X164473121Y-120850314D01*
X164305904Y-120918047D01*
X164100588Y-120940625D01*
X163895271Y-120918047D01*
X163728054Y-120850314D01*
G37*
G36*
X161487562Y-118867350D02*
G01*
X160731913Y-118867350D01*
X160731913Y-119527750D01*
X161455812Y-119527750D01*
X161455812Y-119797625D01*
X160731913Y-119797625D01*
X160731913Y-120632650D01*
X161487562Y-120632650D01*
X161487562Y-120908875D01*
X160376312Y-120908875D01*
X160376312Y-118591125D01*
X161487562Y-118591125D01*
X161487562Y-118867350D01*
G37*
G36*
X165442422Y-120426672D02*
G01*
X165521400Y-120573913D01*
X165644828Y-120656066D01*
X165815088Y-120683450D01*
X166010350Y-120662019D01*
X166227838Y-120597725D01*
X166227838Y-120861250D01*
X165995269Y-120920781D01*
X165773813Y-120940625D01*
X165580073Y-120923130D01*
X165416139Y-120870645D01*
X165282011Y-120783171D01*
X165177690Y-120660707D01*
X165103175Y-120503253D01*
X165058466Y-120310809D01*
X165043563Y-120083375D01*
X165052542Y-119956375D01*
X165405513Y-119956375D01*
X165970663Y-119956375D01*
X165951613Y-119733728D01*
X165900813Y-119586488D01*
X165700788Y-119476950D01*
X165576169Y-119503144D01*
X165488063Y-119581725D01*
X165432500Y-119727775D01*
X165405513Y-119956375D01*
X165052542Y-119956375D01*
X165062083Y-119821438D01*
X165117646Y-119607125D01*
X165210250Y-119440438D01*
X165339896Y-119321375D01*
X165506583Y-119249938D01*
X165710313Y-119226125D01*
X165896226Y-119248526D01*
X166047568Y-119315731D01*
X166164338Y-119427738D01*
X166247240Y-119589486D01*
X166296982Y-119805915D01*
X166313563Y-120077025D01*
X166307213Y-120204025D01*
X165405513Y-120204025D01*
X165442422Y-120426672D01*
G37*
G36*
X168463038Y-120908875D02*
G01*
X168107438Y-120908875D01*
X168314657Y-120029400D01*
X168637663Y-120029400D01*
X169072638Y-120029400D01*
X168856738Y-118940375D01*
X168853563Y-118940375D01*
X168637663Y-120029400D01*
X168314657Y-120029400D01*
X168653538Y-118591125D01*
X169066288Y-118591125D01*
X169615563Y-120908875D01*
X169247263Y-120908875D01*
X169126613Y-120299275D01*
X168583688Y-120299275D01*
X168463038Y-120908875D01*
G37*
G36*
X167535938Y-120273875D02*
G01*
X167545463Y-120273875D01*
X167545463Y-118591125D01*
X167878838Y-118591125D01*
X167878838Y-120908875D01*
X167523238Y-120908875D01*
X167027938Y-119226125D01*
X167021588Y-119226125D01*
X167021588Y-120908875D01*
X166672338Y-120908875D01*
X166672338Y-118591125D01*
X167040638Y-118591125D01*
X167535938Y-120273875D01*
G37*
G36*
X163030216Y-119248747D02*
G01*
X163156025Y-119316613D01*
X163221509Y-119450359D01*
X163243338Y-119670625D01*
X163243338Y-120908875D01*
X162922663Y-120908875D01*
X162922663Y-119638875D01*
X162897263Y-119518225D01*
X162808363Y-119486475D01*
X162678188Y-119530925D01*
X162678188Y-120908875D01*
X162360688Y-120908875D01*
X162360688Y-119638875D01*
X162335287Y-119519813D01*
X162243213Y-119486475D01*
X162116213Y-119530925D01*
X162116213Y-120908875D01*
X161782838Y-120908875D01*
X161782838Y-119346775D01*
X161993181Y-119256288D01*
X162230513Y-119226125D01*
X162391644Y-119245969D01*
X162513088Y-119305500D01*
X162661519Y-119245969D01*
X162827413Y-119226125D01*
X163030216Y-119248747D01*
G37*
%TO.C,TP4*%
X159850000Y-122500000D02*
G75*
G03*
X159850000Y-122500000I-700000J0D01*
G01*
%TO.C,RISO3*%
X137471477Y-100296332D02*
X137017349Y-100296332D01*
X137471477Y-101766332D02*
X137017349Y-101766332D01*
%TO.C,RISO1*%
X175165000Y-115377064D02*
X175165000Y-114922936D01*
X176635000Y-115377064D02*
X176635000Y-114922936D01*
%TO.C,R21*%
X145219999Y-119116171D02*
X145219999Y-119423453D01*
X145979999Y-119116171D02*
X145979999Y-119423453D01*
%TO.C,R33*%
X132633641Y-119139812D02*
X132326359Y-119139812D01*
X132633641Y-118379812D02*
X132326359Y-118379812D01*
%TO.C,R9*%
X139053641Y-106280000D02*
X138746359Y-106280000D01*
X139053641Y-105520000D02*
X138746359Y-105520000D01*
%TO.C,R16*%
X144719999Y-112223453D02*
X144719999Y-111916171D01*
X145479999Y-112223453D02*
X145479999Y-111916171D01*
%TO.C,C43*%
X145992163Y-105040001D02*
X146207835Y-105040001D01*
X145992163Y-105760001D02*
X146207835Y-105760001D01*
%TO.C,RV1*%
X156525000Y-108739906D02*
X156525000Y-101789906D01*
X151785000Y-101789906D02*
X152430000Y-101789906D01*
X151785000Y-108739906D02*
X152430000Y-108739906D01*
X153420000Y-101789906D02*
X156525000Y-101789906D01*
X153420000Y-108739906D02*
X156525000Y-108739906D01*
X151785000Y-108739906D02*
X151785000Y-101789906D01*
%TO.C,C31*%
X133010093Y-99137406D02*
X133010093Y-92377406D01*
X133010093Y-92377406D02*
X129590093Y-92377406D01*
X129590093Y-92377406D02*
X129590093Y-99137406D01*
%TO.C,R3*%
X139053640Y-104519906D02*
X138746358Y-104519906D01*
X139053640Y-105279906D02*
X138746358Y-105279906D01*
%TO.C,R15*%
X147479999Y-112213546D02*
X147479999Y-111906264D01*
X146719999Y-112213546D02*
X146719999Y-111906264D01*
%TO.C,C46*%
X132560000Y-106005243D02*
X132560000Y-105789571D01*
X131840000Y-106005243D02*
X131840000Y-105789571D01*
%TO.C,C62*%
X139630502Y-115494468D02*
X140952792Y-114172178D01*
X136865714Y-112729680D02*
X139630502Y-115494468D01*
X140952792Y-114172178D02*
X138188004Y-111407390D01*
%TO.C,C1*%
X151440000Y-97739906D02*
X151440000Y-101159906D01*
X158200000Y-97739906D02*
X151440000Y-97739906D01*
X151440000Y-101159906D02*
X158200000Y-101159906D01*
%TO.C,RISO4*%
X175165000Y-105377064D02*
X175165000Y-104922936D01*
X176635000Y-105377064D02*
X176635000Y-104922936D01*
%TO.C,C55*%
X144459999Y-111941976D02*
X144459999Y-112157648D01*
X143739999Y-111941976D02*
X143739999Y-112157648D01*
%TO.C,U6*%
X170265000Y-111875000D02*
X170265000Y-108425000D01*
X161395000Y-111875000D02*
X161395000Y-113825000D01*
X161395000Y-111875000D02*
X161395000Y-109925000D01*
X170265000Y-111875000D02*
X170265000Y-113825000D01*
%TO.C,C28*%
X140810094Y-99137406D02*
X140810094Y-92377406D01*
X140810094Y-92377406D02*
X137390094Y-92377406D01*
X137390094Y-92377406D02*
X137390094Y-99137406D01*
%TO.C,C38*%
X173411252Y-103065000D02*
X172888748Y-103065000D01*
X173411252Y-104535000D02*
X172888748Y-104535000D01*
%TO.C,C54*%
X138792163Y-107540000D02*
X139007835Y-107540000D01*
X138792163Y-108260000D02*
X139007835Y-108260000D01*
%TO.C,kibuzzard-6378AA98*%
G36*
X150388626Y-122178925D02*
G01*
X150355051Y-122283224D01*
X150260039Y-122320371D01*
X150195388Y-122308763D01*
X150150025Y-122273937D01*
X150123236Y-122213394D01*
X150114306Y-122124633D01*
X150114306Y-122084628D01*
X150370053Y-122084628D01*
X150388626Y-122178925D01*
G37*
G36*
X149280869Y-123333831D02*
G01*
X149280869Y-122829006D01*
X149428506Y-122829006D01*
X149442635Y-122946878D01*
X149485021Y-123043319D01*
X149555665Y-123118328D01*
X149628442Y-123160521D01*
X149719614Y-123190659D01*
X149829181Y-123208741D01*
X149957144Y-123214769D01*
X150084392Y-123209188D01*
X150194673Y-123192445D01*
X150287989Y-123164539D01*
X150364338Y-123125472D01*
X150423720Y-123075242D01*
X150466136Y-123013851D01*
X150491586Y-122941297D01*
X150500069Y-122857581D01*
X150494513Y-122772174D01*
X150477844Y-122691211D01*
X150450063Y-122614694D01*
X149864275Y-122614694D01*
X149864275Y-122947593D01*
X149985719Y-122947593D01*
X149985719Y-122767570D01*
X150360051Y-122767570D01*
X150377196Y-122853295D01*
X150352908Y-122940449D01*
X150280041Y-123004743D01*
X150200984Y-123034111D01*
X150093351Y-123051733D01*
X149957144Y-123057606D01*
X149824032Y-123051415D01*
X149719971Y-123032841D01*
X149644962Y-123001885D01*
X149576918Y-122930805D01*
X149554236Y-122829006D01*
X149562809Y-122741495D01*
X149588526Y-122650413D01*
X149459939Y-122650413D01*
X149436364Y-122737923D01*
X149428506Y-122829006D01*
X149280869Y-122829006D01*
X149280869Y-122196070D01*
X149728544Y-122196070D01*
X149733624Y-122272905D01*
X149748864Y-122352915D01*
X149774264Y-122436100D01*
X149897136Y-122436100D01*
X149868561Y-122353233D01*
X149851416Y-122276080D01*
X149845701Y-122204643D01*
X149872133Y-122106773D01*
X149982861Y-122084628D01*
X150007150Y-122084628D01*
X150007150Y-122124633D01*
X150014373Y-122231074D01*
X150036042Y-122317990D01*
X150072158Y-122385379D01*
X150151632Y-122450209D01*
X150260039Y-122471819D01*
X150361480Y-122452709D01*
X150437204Y-122395381D01*
X150472129Y-122337358D01*
X150493084Y-122265206D01*
X150500069Y-122178925D01*
X150494989Y-122092089D01*
X150479749Y-122008745D01*
X150454349Y-121928894D01*
X150011436Y-121928894D01*
X149911424Y-121935006D01*
X149836176Y-121953341D01*
X149785694Y-121983901D01*
X149742831Y-122064446D01*
X149728544Y-122196070D01*
X149280869Y-122196070D01*
X149280869Y-121700294D01*
X149742831Y-121700294D01*
X149858560Y-121700294D01*
X149858560Y-121510270D01*
X150485781Y-121510270D01*
X150485781Y-121350250D01*
X149742831Y-121350250D01*
X149742831Y-121700294D01*
X149280869Y-121700294D01*
X149280869Y-121538845D01*
X149399931Y-121538845D01*
X149578525Y-121538845D01*
X149578525Y-121350250D01*
X149399931Y-121350250D01*
X149399931Y-121538845D01*
X149280869Y-121538845D01*
X149280869Y-120785894D01*
X149728544Y-120785894D01*
X149735211Y-120877810D01*
X149755214Y-120961154D01*
X149788551Y-121035925D01*
X150485781Y-121035925D01*
X150485781Y-120878763D01*
X149877134Y-120878763D01*
X149845701Y-120781608D01*
X149874276Y-120675880D01*
X149978575Y-120647305D01*
X150485781Y-120647305D01*
X150485781Y-120493000D01*
X149985719Y-120493000D01*
X149858917Y-120507823D01*
X149781408Y-120552293D01*
X149752039Y-120604601D01*
X149734418Y-120682468D01*
X149728544Y-120785894D01*
X149280869Y-120785894D01*
X149280869Y-119318568D01*
X149428506Y-119318568D01*
X149436444Y-119403896D01*
X149460256Y-119475095D01*
X149499944Y-119532166D01*
X149585669Y-119588423D01*
X149699969Y-119607175D01*
X149801410Y-119592352D01*
X149885706Y-119547882D01*
X149935236Y-119498749D01*
X149982861Y-119430407D01*
X150028581Y-119342856D01*
X150065372Y-119281599D01*
X150107163Y-119240701D01*
X150157883Y-119217662D01*
X150221463Y-119209983D01*
X150288078Y-119219984D01*
X150336477Y-119249988D01*
X150365945Y-119297851D01*
X150375768Y-119361430D01*
X150365449Y-119445091D01*
X150334493Y-119524625D01*
X150282899Y-119600031D01*
X150431489Y-119600031D01*
X150469589Y-119526689D01*
X150492449Y-119445726D01*
X150500069Y-119357144D01*
X150488639Y-119246559D01*
X150454349Y-119160548D01*
X150397199Y-119099112D01*
X150317189Y-119062250D01*
X150214319Y-119049963D01*
X150103948Y-119065322D01*
X150015723Y-119111399D01*
X149964764Y-119163627D01*
X149914758Y-119238399D01*
X149865704Y-119335713D01*
X149823000Y-119399213D01*
X149765374Y-119437313D01*
X149692825Y-119450013D01*
X149634246Y-119440011D01*
X149589955Y-119410008D01*
X149562094Y-119362502D01*
X149552808Y-119299994D01*
X149568167Y-119188908D01*
X149614244Y-119078538D01*
X149471369Y-119078538D01*
X149447556Y-119155372D01*
X149433269Y-119235383D01*
X149428506Y-119318568D01*
X149280869Y-119318568D01*
X149280869Y-118285581D01*
X149742831Y-118285581D01*
X149742831Y-118415598D01*
X150357194Y-118467033D01*
X150357194Y-118471319D01*
X149742831Y-118552758D01*
X149742831Y-118674201D01*
X150307188Y-118761355D01*
X150307188Y-118764213D01*
X149742831Y-118809933D01*
X149742831Y-118957094D01*
X150485781Y-118864225D01*
X150485781Y-118717064D01*
X149901423Y-118631339D01*
X149901423Y-118628481D01*
X150485781Y-118552758D01*
X150485781Y-118378450D01*
X149742831Y-118285581D01*
X149280869Y-118285581D01*
X149280869Y-118128419D01*
X149742831Y-118128419D01*
X149858560Y-118128419D01*
X149858560Y-117938395D01*
X150485781Y-117938395D01*
X150485781Y-117778375D01*
X149742831Y-117778375D01*
X149742831Y-118128419D01*
X149280869Y-118128419D01*
X149280869Y-117966970D01*
X149399931Y-117966970D01*
X149578525Y-117966970D01*
X149578525Y-117778375D01*
X149399931Y-117778375D01*
X149399931Y-117966970D01*
X149280869Y-117966970D01*
X149280869Y-117324033D01*
X149499944Y-117324033D01*
X149771406Y-117324033D01*
X149771406Y-117471194D01*
X149887135Y-117471194D01*
X149887135Y-117324033D01*
X150271469Y-117324033D01*
X150382197Y-117311352D01*
X150451491Y-117273312D01*
X150487924Y-117202767D01*
X150500069Y-117092575D01*
X150495783Y-117013637D01*
X150482924Y-116942556D01*
X150352908Y-116942556D01*
X150368981Y-117003635D01*
X150374339Y-117064000D01*
X150350764Y-117149725D01*
X150242894Y-117168299D01*
X149887135Y-117168299D01*
X149887135Y-116928269D01*
X149771406Y-116928269D01*
X149771406Y-117168299D01*
X149499944Y-117168299D01*
X149499944Y-117324033D01*
X149280869Y-117324033D01*
X149280869Y-116418205D01*
X149728544Y-116418205D01*
X149736416Y-116507283D01*
X149760035Y-116582657D01*
X149799398Y-116644327D01*
X149854507Y-116692292D01*
X149925361Y-116726553D01*
X150011961Y-116747109D01*
X150114306Y-116753961D01*
X150231464Y-116744119D01*
X150327666Y-116714591D01*
X150402914Y-116665379D01*
X150456889Y-116598228D01*
X150489274Y-116514884D01*
X150500069Y-116415348D01*
X150491139Y-116325693D01*
X150464350Y-116239611D01*
X150347193Y-116239611D01*
X150378268Y-116319621D01*
X150388626Y-116396774D01*
X150371481Y-116478570D01*
X150320046Y-116541077D01*
X150234321Y-116580725D01*
X150114306Y-116593941D01*
X149997685Y-116582511D01*
X149913567Y-116548221D01*
X149862668Y-116493572D01*
X149845701Y-116421063D01*
X149849988Y-116382486D01*
X150014294Y-116382486D01*
X150014294Y-116232467D01*
X149757119Y-116232467D01*
X149735687Y-116320336D01*
X149728544Y-116418205D01*
X149280869Y-116418205D01*
X149280869Y-116028156D01*
X149414219Y-116028156D01*
X150485781Y-116028156D01*
X150485781Y-115870994D01*
X149902851Y-115870994D01*
X149859989Y-115812772D01*
X149845701Y-115746693D01*
X149881420Y-115659539D01*
X149936070Y-115642394D01*
X150028581Y-115636679D01*
X150485781Y-115638108D01*
X150485781Y-115485231D01*
X149988576Y-115485231D01*
X149869454Y-115498447D01*
X149789266Y-115538095D01*
X149743724Y-115606675D01*
X149728544Y-115706688D01*
X149739259Y-115790627D01*
X149771406Y-115870994D01*
X149414219Y-115870994D01*
X149414219Y-116028156D01*
X149280869Y-116028156D01*
X149280869Y-115366169D01*
X150619131Y-115366169D01*
X150619131Y-123333831D01*
X149280869Y-123333831D01*
G37*
%TO.C,G\u002A\u002A\u002A*%
G36*
X158780856Y-96142523D02*
G01*
X158777631Y-96185798D01*
X158755767Y-96291170D01*
X158718929Y-96443909D01*
X158670784Y-96629282D01*
X158614996Y-96832560D01*
X158571199Y-96985000D01*
X158520152Y-97044465D01*
X158479776Y-97055000D01*
X158433567Y-97033586D01*
X158391440Y-96960783D01*
X158346438Y-96823750D01*
X158338065Y-96793376D01*
X158299489Y-96667855D01*
X158265043Y-96585267D01*
X158241875Y-96562563D01*
X158241080Y-96563376D01*
X158216191Y-96616307D01*
X158178506Y-96721068D01*
X158145413Y-96825000D01*
X158097929Y-96960780D01*
X158053549Y-97032448D01*
X158002730Y-97054885D01*
X157997955Y-97055000D01*
X157933970Y-97046715D01*
X157920000Y-97035757D01*
X157910384Y-96991678D01*
X157884272Y-96886526D01*
X157845767Y-96736528D01*
X157803686Y-96575757D01*
X157754434Y-96385568D01*
X157725363Y-96259447D01*
X157715144Y-96184406D01*
X157722449Y-96147458D01*
X157745948Y-96135618D01*
X157758586Y-96135000D01*
X157797319Y-96150200D01*
X157830618Y-96204784D01*
X157864118Y-96312225D01*
X157901514Y-96476727D01*
X157936529Y-96631979D01*
X157968718Y-96754385D01*
X157992901Y-96824992D01*
X157999298Y-96834566D01*
X158022338Y-96807731D01*
X158057886Y-96721912D01*
X158098327Y-96595551D01*
X158099104Y-96592839D01*
X158146773Y-96446151D01*
X158189712Y-96364973D01*
X158235635Y-96335788D01*
X158246252Y-96335000D01*
X158295166Y-96355886D01*
X158338198Y-96427715D01*
X158383376Y-96564236D01*
X158386390Y-96575000D01*
X158425292Y-96699919D01*
X158460295Y-96786720D01*
X158481469Y-96815000D01*
X158502631Y-96778870D01*
X158534325Y-96682625D01*
X158570827Y-96544480D01*
X158583485Y-96490454D01*
X158635802Y-96299460D01*
X158689500Y-96177455D01*
X158742351Y-96128368D01*
X158780856Y-96142523D01*
G37*
G36*
X157390000Y-92655878D02*
G01*
X157662010Y-92661720D01*
X157870744Y-92681187D01*
X158032403Y-92718787D01*
X158163190Y-92779028D01*
X158279308Y-92866417D01*
X158333714Y-92918443D01*
X158444861Y-93048768D01*
X158520826Y-93189366D01*
X158574661Y-93368077D01*
X158597494Y-93481185D01*
X158621274Y-93694812D01*
X158605507Y-93890304D01*
X158595980Y-93939486D01*
X158553196Y-94114796D01*
X158503472Y-94241297D01*
X158431646Y-94349754D01*
X158346291Y-94446096D01*
X158227942Y-94544702D01*
X158079381Y-94615817D01*
X157888332Y-94662515D01*
X157642517Y-94687873D01*
X157352739Y-94695000D01*
X156880000Y-94695000D01*
X156880000Y-94375000D01*
X157320000Y-94375000D01*
X157596930Y-94375000D01*
X157754472Y-94370725D01*
X157859437Y-94353282D01*
X157939003Y-94315740D01*
X157994260Y-94273690D01*
X158119082Y-94119799D01*
X158184627Y-93916476D01*
X158191973Y-93660761D01*
X158146270Y-93398767D01*
X158052811Y-93200590D01*
X157910484Y-93065047D01*
X157718174Y-92990958D01*
X157545278Y-92975000D01*
X157320000Y-92975000D01*
X157320000Y-94375000D01*
X156880000Y-94375000D01*
X156880000Y-92655000D01*
X157390000Y-92655878D01*
G37*
G36*
X168393279Y-96140178D02*
G01*
X168420371Y-96153327D01*
X168390063Y-96184588D01*
X168389521Y-96185000D01*
X168342421Y-96259413D01*
X168312236Y-96383447D01*
X168308865Y-96415000D01*
X168293976Y-96595000D01*
X168286988Y-96387932D01*
X168275843Y-96257046D01*
X168249566Y-96187413D01*
X168210000Y-96162573D01*
X168200057Y-96150524D01*
X168257092Y-96141617D01*
X168297645Y-96139640D01*
X168393279Y-96140178D01*
G37*
G36*
X162701818Y-96135000D02*
G01*
X162844937Y-96142124D01*
X162939414Y-96169752D01*
X163015827Y-96227266D01*
X163021818Y-96233181D01*
X163090032Y-96330668D01*
X163119942Y-96431375D01*
X163120000Y-96435000D01*
X163083658Y-96560247D01*
X162989180Y-96663540D01*
X162858389Y-96725520D01*
X162781818Y-96735000D01*
X162691022Y-96739737D01*
X162650672Y-96769331D01*
X162640321Y-96846850D01*
X162640000Y-96895000D01*
X162633291Y-96999677D01*
X162606175Y-97045941D01*
X162560000Y-97055000D01*
X162525627Y-97050121D01*
X162502812Y-97026462D01*
X162489202Y-96970489D01*
X162482443Y-96868667D01*
X162480180Y-96707461D01*
X162480040Y-96619829D01*
X162640000Y-96619829D01*
X162790000Y-96607414D01*
X162886107Y-96594554D01*
X162928770Y-96560887D01*
X162939673Y-96481486D01*
X162940000Y-96435000D01*
X162935401Y-96332104D01*
X162907148Y-96284258D01*
X162833556Y-96266538D01*
X162790000Y-96262585D01*
X162640000Y-96250170D01*
X162640000Y-96619829D01*
X162480040Y-96619829D01*
X162480000Y-96595000D01*
X162480000Y-96135000D01*
X162701818Y-96135000D01*
G37*
G36*
X153632128Y-96138528D02*
G01*
X153719196Y-96151216D01*
X153755917Y-96176215D01*
X153760000Y-96195000D01*
X153738589Y-96232731D01*
X153664459Y-96251160D01*
X153560000Y-96255000D01*
X153360000Y-96255000D01*
X153360000Y-96395000D01*
X153366192Y-96488832D01*
X153401127Y-96527313D01*
X153489343Y-96534982D01*
X153500000Y-96535000D01*
X153603546Y-96548010D01*
X153639746Y-96589535D01*
X153640000Y-96595000D01*
X153609641Y-96639377D01*
X153512750Y-96654891D01*
X153500000Y-96655000D01*
X153410362Y-96659843D01*
X153370527Y-96689751D01*
X153360313Y-96767787D01*
X153360000Y-96815000D01*
X153360000Y-96975000D01*
X153560000Y-96975000D01*
X153674088Y-96982194D01*
X153746503Y-97000591D01*
X153760000Y-97015000D01*
X153723003Y-97035519D01*
X153623844Y-97049697D01*
X153480271Y-97054999D01*
X153480000Y-97055000D01*
X153200000Y-97055000D01*
X153200000Y-96135000D01*
X153480000Y-96135000D01*
X153632128Y-96138528D01*
G37*
G36*
X159942131Y-96346226D02*
G01*
X160006434Y-96201760D01*
X160062339Y-96134390D01*
X160115198Y-96143820D01*
X160170363Y-96229756D01*
X160233187Y-96391902D01*
X160282845Y-96545000D01*
X160337184Y-96718210D01*
X160383870Y-96865291D01*
X160417076Y-96967988D01*
X160429666Y-97005000D01*
X160414835Y-97047439D01*
X160383289Y-97055000D01*
X160321894Y-97021483D01*
X160280000Y-96955000D01*
X160244168Y-96891543D01*
X160183321Y-96862314D01*
X160070855Y-96855010D01*
X160063772Y-96855000D01*
X159951092Y-96860536D01*
X159895390Y-96884232D01*
X159873996Y-96936724D01*
X159872782Y-96944591D01*
X159843599Y-97002778D01*
X159790892Y-97046076D01*
X159740946Y-97059614D01*
X159720000Y-97031015D01*
X159731951Y-96983220D01*
X159764399Y-96876051D01*
X159812235Y-96725926D01*
X159817584Y-96709640D01*
X159960000Y-96709640D01*
X159994811Y-96727457D01*
X160078667Y-96734998D01*
X160080000Y-96735000D01*
X160164309Y-96727643D01*
X160199992Y-96709922D01*
X160200000Y-96709640D01*
X160187919Y-96641510D01*
X160158766Y-96545127D01*
X160123173Y-96450139D01*
X160091771Y-96386196D01*
X160080000Y-96375000D01*
X160055568Y-96408687D01*
X160021006Y-96489985D01*
X159986944Y-96589243D01*
X159964015Y-96676814D01*
X159960000Y-96709640D01*
X159817584Y-96709640D01*
X159864078Y-96568082D01*
X159942131Y-96346226D01*
G37*
G36*
X166926338Y-96150337D02*
G01*
X166945505Y-96204639D01*
X166958221Y-96310334D01*
X166966610Y-96479854D01*
X166968600Y-96545000D01*
X166980000Y-96955000D01*
X167150000Y-96967299D01*
X167270097Y-96984105D01*
X167316132Y-97007435D01*
X167293031Y-97031119D01*
X167205717Y-97048987D01*
X167080000Y-97055000D01*
X166840000Y-97055000D01*
X166840000Y-96595000D01*
X166841688Y-96392217D01*
X166847791Y-96257151D01*
X166859868Y-96177571D01*
X166879476Y-96141243D01*
X166898600Y-96135000D01*
X166926338Y-96150337D01*
G37*
G36*
X163265332Y-96393223D02*
G01*
X163315490Y-96260847D01*
X163360467Y-96206578D01*
X163485908Y-96149513D01*
X163639509Y-96138528D01*
X163784132Y-96173484D01*
X163841726Y-96208354D01*
X163910208Y-96308249D01*
X163950544Y-96457093D01*
X163962222Y-96628763D01*
X163944730Y-96797133D01*
X163897556Y-96936077D01*
X163857082Y-96992202D01*
X163769459Y-97035382D01*
X163639265Y-97054495D01*
X163499967Y-97049441D01*
X163385034Y-97020122D01*
X163344428Y-96993714D01*
X163281633Y-96885042D01*
X163247873Y-96731369D01*
X163243790Y-96597291D01*
X163400000Y-96597291D01*
X163403709Y-96757660D01*
X163417365Y-96856395D01*
X163444763Y-96911629D01*
X163470000Y-96931796D01*
X163587846Y-96971506D01*
X163707472Y-96941390D01*
X163722629Y-96933592D01*
X163766220Y-96896432D01*
X163789942Y-96830448D01*
X163799156Y-96715083D01*
X163800000Y-96636864D01*
X163795739Y-96457782D01*
X163778990Y-96344311D01*
X163743798Y-96282332D01*
X163684208Y-96257722D01*
X163638991Y-96255000D01*
X163523250Y-96260932D01*
X163452384Y-96289126D01*
X163415506Y-96355172D01*
X163401729Y-96474665D01*
X163400000Y-96597291D01*
X163243790Y-96597291D01*
X163242616Y-96558747D01*
X163265332Y-96393223D01*
G37*
G36*
X152966347Y-96147289D02*
G01*
X152983890Y-96192459D01*
X152994254Y-96282964D01*
X152999061Y-96431260D01*
X153000000Y-96595000D01*
X152998397Y-96796998D01*
X152992505Y-96931496D01*
X152980700Y-97010947D01*
X152961357Y-97047806D01*
X152940000Y-97055000D01*
X152902268Y-97033589D01*
X152883839Y-96959459D01*
X152880000Y-96855000D01*
X152880000Y-96655000D01*
X152480000Y-96655000D01*
X152480000Y-96855000D01*
X152473576Y-96980772D01*
X152451337Y-97042201D01*
X152420000Y-97055000D01*
X152393652Y-97042710D01*
X152376109Y-96997540D01*
X152365745Y-96907035D01*
X152360938Y-96758739D01*
X152360000Y-96595000D01*
X152361602Y-96393001D01*
X152367494Y-96258503D01*
X152379299Y-96179052D01*
X152398642Y-96142193D01*
X152420000Y-96135000D01*
X152457731Y-96156410D01*
X152476160Y-96230540D01*
X152480000Y-96335000D01*
X152480000Y-96535000D01*
X152880000Y-96535000D01*
X152880000Y-96335000D01*
X152886423Y-96209227D01*
X152908662Y-96147798D01*
X152940000Y-96135000D01*
X152966347Y-96147289D01*
G37*
G36*
X161000725Y-93185000D02*
G01*
X161068068Y-93401531D01*
X161133953Y-93611817D01*
X161191301Y-93793369D01*
X161233037Y-93923699D01*
X161236716Y-93935000D01*
X161308543Y-94155000D01*
X161430850Y-93755000D01*
X161497809Y-93535185D01*
X161570743Y-93294446D01*
X161637231Y-93073825D01*
X161657864Y-93005000D01*
X161762571Y-92655000D01*
X161961285Y-92655000D01*
X162075198Y-92660436D01*
X162147549Y-92674327D01*
X162160957Y-92685000D01*
X162149015Y-92729549D01*
X162114881Y-92839578D01*
X162061902Y-93004750D01*
X161993421Y-93214728D01*
X161912783Y-93459175D01*
X161830957Y-93704955D01*
X161500000Y-94694910D01*
X161308744Y-94694955D01*
X161179904Y-94684749D01*
X161107834Y-94656761D01*
X161099631Y-94645000D01*
X160997710Y-94357893D01*
X160894866Y-94065054D01*
X160794563Y-93776648D01*
X160700262Y-93502840D01*
X160615428Y-93253794D01*
X160543522Y-93039674D01*
X160488007Y-92870645D01*
X160452347Y-92756872D01*
X160440000Y-92708746D01*
X160470180Y-92673298D01*
X160566346Y-92656832D01*
X160638279Y-92655000D01*
X160836559Y-92655000D01*
X161000725Y-93185000D01*
G37*
G36*
X164486608Y-96146813D02*
G01*
X164630222Y-96185591D01*
X164704888Y-96256725D01*
X164719387Y-96325000D01*
X164694063Y-96368930D01*
X164639518Y-96367847D01*
X164590378Y-96324945D01*
X164584601Y-96312566D01*
X164537557Y-96269419D01*
X164433847Y-96260941D01*
X164410321Y-96262566D01*
X164305671Y-96281443D01*
X164257818Y-96324060D01*
X164247552Y-96362444D01*
X164254111Y-96424730D01*
X164308454Y-96465958D01*
X164387552Y-96492221D01*
X164497986Y-96519678D01*
X164578635Y-96534134D01*
X164589077Y-96534776D01*
X164644277Y-96565409D01*
X164703487Y-96634708D01*
X164747029Y-96767634D01*
X164719133Y-96904908D01*
X164657082Y-96992202D01*
X164562088Y-97040318D01*
X164430072Y-97055731D01*
X164296312Y-97039217D01*
X164196084Y-96991553D01*
X164186199Y-96981850D01*
X164132765Y-96895299D01*
X164124450Y-96819090D01*
X164161974Y-96777274D01*
X164180000Y-96775000D01*
X164232825Y-96807087D01*
X164240000Y-96835857D01*
X164272770Y-96896689D01*
X164334940Y-96939972D01*
X164451294Y-96961184D01*
X164543483Y-96922276D01*
X164591146Y-96835718D01*
X164592397Y-96782309D01*
X164572872Y-96713100D01*
X164520106Y-96669095D01*
X164412544Y-96633761D01*
X164391992Y-96628592D01*
X164249084Y-96589810D01*
X164167531Y-96552139D01*
X164130272Y-96500839D01*
X164120249Y-96421168D01*
X164120000Y-96393561D01*
X164152155Y-96259180D01*
X164244426Y-96173643D01*
X164390522Y-96141184D01*
X164486608Y-96146813D01*
G37*
G36*
X161780532Y-96155543D02*
G01*
X161888408Y-96194099D01*
X161951907Y-96257070D01*
X161960000Y-96294009D01*
X161941418Y-96363796D01*
X161891800Y-96362824D01*
X161840000Y-96315000D01*
X161764492Y-96269782D01*
X161661165Y-96255335D01*
X161563505Y-96271152D01*
X161504997Y-96316731D01*
X161503589Y-96320069D01*
X161504008Y-96406819D01*
X161580783Y-96470741D01*
X161734119Y-96512004D01*
X161741184Y-96513086D01*
X161888091Y-96555826D01*
X161970565Y-96637120D01*
X161999579Y-96768811D01*
X162000000Y-96792370D01*
X161972091Y-96898012D01*
X161920000Y-96975000D01*
X161815110Y-97034296D01*
X161677325Y-97057032D01*
X161539698Y-97042750D01*
X161435282Y-96990991D01*
X161426199Y-96981850D01*
X161374074Y-96898493D01*
X161360000Y-96841850D01*
X161384039Y-96785302D01*
X161436412Y-96781141D01*
X161487496Y-96826601D01*
X161499970Y-96854907D01*
X161560786Y-96935562D01*
X161657992Y-96964201D01*
X161764035Y-96936882D01*
X161813083Y-96899693D01*
X161868612Y-96810008D01*
X161845608Y-96731848D01*
X161744868Y-96666375D01*
X161628023Y-96628592D01*
X161509672Y-96595683D01*
X161422700Y-96566000D01*
X161401992Y-96556231D01*
X161369305Y-96496248D01*
X161361355Y-96396458D01*
X161376615Y-96292621D01*
X161413560Y-96220498D01*
X161416430Y-96217962D01*
X161521964Y-96164316D01*
X161650857Y-96144563D01*
X161780532Y-96155543D01*
G37*
G36*
X167746812Y-96143172D02*
G01*
X167908561Y-96157775D01*
X168005809Y-96183325D01*
X168030145Y-96205000D01*
X168014529Y-96235592D01*
X167936015Y-96251444D01*
X167823333Y-96255000D01*
X167600000Y-96255000D01*
X167600000Y-96392585D01*
X167606633Y-96484002D01*
X167642494Y-96525407D01*
X167731522Y-96541243D01*
X167746908Y-96542585D01*
X167862664Y-96565643D01*
X167911154Y-96600790D01*
X167890429Y-96634690D01*
X167798541Y-96654010D01*
X167763333Y-96655000D01*
X167600000Y-96655000D01*
X167600000Y-96975000D01*
X167820000Y-96975000D01*
X167940479Y-96981575D01*
X168020388Y-96998538D01*
X168040000Y-97015000D01*
X168003003Y-97035519D01*
X167903844Y-97049697D01*
X167760271Y-97054999D01*
X167760000Y-97055000D01*
X167480000Y-97055000D01*
X167480000Y-96131344D01*
X167746812Y-96143172D01*
G37*
G36*
X166272299Y-92825000D02*
G01*
X166260000Y-92995000D01*
X165200000Y-93017322D01*
X165200000Y-93455000D01*
X166120000Y-93455000D01*
X166120000Y-93815000D01*
X165200000Y-93815000D01*
X165200000Y-94332742D01*
X166300000Y-94355000D01*
X166312299Y-94525000D01*
X166324599Y-94695000D01*
X164800000Y-94695000D01*
X164800000Y-92655000D01*
X166284599Y-92655000D01*
X166272299Y-92825000D01*
G37*
G36*
X163080000Y-91815000D02*
G01*
X164000000Y-91815000D01*
X164000000Y-92175000D01*
X162680000Y-92175000D01*
X162680000Y-90095000D01*
X163080000Y-90095000D01*
X163080000Y-91815000D01*
G37*
G36*
X160600000Y-92175000D02*
G01*
X160212684Y-92175000D01*
X159756342Y-91465680D01*
X159300000Y-90756361D01*
X159289077Y-91465680D01*
X159278154Y-92175000D01*
X158878649Y-92175000D01*
X158889324Y-91145000D01*
X158900000Y-90115000D01*
X159300000Y-90115000D01*
X159540000Y-90483108D01*
X159666815Y-90678147D01*
X159804403Y-90890603D01*
X159930682Y-91086347D01*
X159980000Y-91163108D01*
X160180000Y-91475000D01*
X160190944Y-90785000D01*
X160201889Y-90095000D01*
X160600000Y-90095000D01*
X160600000Y-92175000D01*
G37*
G36*
X160280000Y-92975000D02*
G01*
X159200000Y-92975000D01*
X159200000Y-93415000D01*
X160160000Y-93415000D01*
X160160000Y-93775000D01*
X159200000Y-93775000D01*
X159200000Y-94335000D01*
X160320000Y-94335000D01*
X160320000Y-94695000D01*
X158760000Y-94695000D01*
X158760000Y-92655000D01*
X160280000Y-92655000D01*
X160280000Y-92975000D01*
G37*
G36*
X165806347Y-96147289D02*
G01*
X165823890Y-96192459D01*
X165834254Y-96282964D01*
X165839061Y-96431260D01*
X165840000Y-96595000D01*
X165838397Y-96796998D01*
X165832505Y-96931496D01*
X165820700Y-97010947D01*
X165801357Y-97047806D01*
X165780000Y-97055000D01*
X165753652Y-97042710D01*
X165736109Y-96997540D01*
X165725745Y-96907035D01*
X165720938Y-96758739D01*
X165720000Y-96595000D01*
X165721602Y-96393001D01*
X165727494Y-96258503D01*
X165739299Y-96179052D01*
X165758642Y-96142193D01*
X165780000Y-96135000D01*
X165806347Y-96147289D01*
G37*
G36*
X168584155Y-96153166D02*
G01*
X168631851Y-96235932D01*
X168640268Y-96255647D01*
X168682000Y-96334142D01*
X168721827Y-96345806D01*
X168745121Y-96330749D01*
X168790143Y-96309427D01*
X168795831Y-96341657D01*
X168761716Y-96411063D01*
X168748000Y-96430822D01*
X168708938Y-96473135D01*
X168677916Y-96457566D01*
X168640101Y-96388468D01*
X168584201Y-96275000D01*
X168557776Y-96435000D01*
X168542989Y-96518301D01*
X168534378Y-96537985D01*
X168529438Y-96488589D01*
X168525676Y-96365000D01*
X168529640Y-96219062D01*
X168549609Y-96147997D01*
X168584155Y-96153166D01*
G37*
G36*
X154005374Y-96544084D02*
G01*
X154067771Y-96359919D01*
X154114815Y-96240360D01*
X154153086Y-96173081D01*
X154189165Y-96145755D01*
X154218899Y-96144084D01*
X154261303Y-96165751D01*
X154303683Y-96226505D01*
X154352130Y-96338422D01*
X154412735Y-96513579D01*
X154426125Y-96555000D01*
X154479684Y-96725704D01*
X154522850Y-96870403D01*
X154550260Y-96970692D01*
X154557226Y-97005000D01*
X154538513Y-97052254D01*
X154491099Y-97049839D01*
X154440577Y-97006841D01*
X154416425Y-96955000D01*
X154390170Y-96891742D01*
X154337123Y-96862598D01*
X154232246Y-96855049D01*
X154216425Y-96855000D01*
X154104298Y-96860933D01*
X154046762Y-96887081D01*
X154018781Y-96945961D01*
X154016425Y-96955000D01*
X153967347Y-97037608D01*
X153912330Y-97055000D01*
X153855056Y-97035244D01*
X153852041Y-97005000D01*
X153871640Y-96948092D01*
X153910035Y-96833232D01*
X153960085Y-96681911D01*
X154104047Y-96681911D01*
X154114105Y-96724307D01*
X154168581Y-96734732D01*
X154203224Y-96735000D01*
X154292275Y-96718466D01*
X154320000Y-96680968D01*
X154307286Y-96596072D01*
X154276620Y-96503500D01*
X154239212Y-96429049D01*
X154206273Y-96398512D01*
X154198747Y-96401969D01*
X154168647Y-96459590D01*
X154133949Y-96560145D01*
X154126941Y-96585000D01*
X154104047Y-96681911D01*
X153960085Y-96681911D01*
X153961206Y-96678521D01*
X154005374Y-96544084D01*
G37*
G36*
X164101048Y-92654088D02*
G01*
X164314783Y-92742003D01*
X164496426Y-92883245D01*
X164622043Y-93058951D01*
X164674997Y-93181715D01*
X164671395Y-93253710D01*
X164603781Y-93287323D01*
X164480000Y-93295000D01*
X164365908Y-93288044D01*
X164293494Y-93270260D01*
X164280000Y-93256333D01*
X164253798Y-93207772D01*
X164187012Y-93127023D01*
X164138666Y-93076333D01*
X163990685Y-92966812D01*
X163845925Y-92927988D01*
X163709264Y-92950579D01*
X163585581Y-93025298D01*
X163479756Y-93142861D01*
X163396667Y-93293983D01*
X163341193Y-93469380D01*
X163318213Y-93659766D01*
X163332606Y-93855858D01*
X163389250Y-94048370D01*
X163493025Y-94228018D01*
X163517394Y-94258642D01*
X163603087Y-94341985D01*
X163702292Y-94385695D01*
X163823303Y-94404356D01*
X163955087Y-94410105D01*
X164045874Y-94389107D01*
X164132872Y-94331463D01*
X164149679Y-94317546D01*
X164236723Y-94230741D01*
X164294150Y-94148809D01*
X164300557Y-94133243D01*
X164330996Y-94084985D01*
X164396704Y-94061421D01*
X164519364Y-94055006D01*
X164525391Y-94055000D01*
X164642806Y-94057626D01*
X164697706Y-94071585D01*
X164707544Y-94105997D01*
X164697628Y-94145000D01*
X164587833Y-94378004D01*
X164419690Y-94556379D01*
X164194598Y-94678700D01*
X164164031Y-94689475D01*
X163939380Y-94731848D01*
X163699832Y-94723043D01*
X163481850Y-94665133D01*
X163445671Y-94648646D01*
X163248126Y-94507603D01*
X163093513Y-94306631D01*
X162986515Y-94056070D01*
X162931817Y-93766255D01*
X162929141Y-93508627D01*
X162948970Y-93321499D01*
X162986600Y-93178971D01*
X163051809Y-93046045D01*
X163064158Y-93025452D01*
X163218427Y-92842003D01*
X163413912Y-92713457D01*
X163635952Y-92639500D01*
X163869884Y-92619815D01*
X164101048Y-92654088D01*
G37*
G36*
X160706789Y-96143317D02*
G01*
X160889783Y-96156928D01*
X160998767Y-96180690D01*
X161030123Y-96205000D01*
X161009367Y-96243071D01*
X160923333Y-96255000D01*
X160800000Y-96255000D01*
X160800000Y-96655000D01*
X160798902Y-96837055D01*
X160793677Y-96953599D01*
X160781430Y-97019113D01*
X160759264Y-97048075D01*
X160724284Y-97054967D01*
X160720000Y-97055000D01*
X160683588Y-97049510D01*
X160660280Y-97023387D01*
X160647177Y-96962151D01*
X160641384Y-96851323D01*
X160640006Y-96676422D01*
X160640000Y-96655000D01*
X160640000Y-96255000D01*
X160520000Y-96255000D01*
X160425870Y-96237895D01*
X160400000Y-96193317D01*
X160412738Y-96161977D01*
X160461063Y-96144963D01*
X160560136Y-96139805D01*
X160706789Y-96143317D01*
G37*
G36*
X166242629Y-96135000D02*
G01*
X166440214Y-96155336D01*
X166577631Y-96213355D01*
X166650101Y-96304571D01*
X166652845Y-96424501D01*
X166626091Y-96494807D01*
X166590505Y-96581151D01*
X166597942Y-96631494D01*
X166623896Y-96658233D01*
X166673640Y-96746728D01*
X166666577Y-96864589D01*
X166617731Y-96966099D01*
X166571566Y-97015677D01*
X166505990Y-97042713D01*
X166398057Y-97053583D01*
X166297731Y-97055000D01*
X166040000Y-97055000D01*
X166040000Y-96812700D01*
X166160000Y-96812700D01*
X166164699Y-96916309D01*
X166189585Y-96962742D01*
X166250839Y-96974723D01*
X166275568Y-96975000D01*
X166392852Y-96949226D01*
X166485568Y-96897505D01*
X166549049Y-96815428D01*
X166538354Y-96743138D01*
X166459299Y-96689190D01*
X166325926Y-96662700D01*
X166160000Y-96650400D01*
X166160000Y-96812700D01*
X166040000Y-96812700D01*
X166040000Y-96539599D01*
X166160000Y-96539599D01*
X166330000Y-96527299D01*
X166436837Y-96514962D01*
X166485931Y-96487123D01*
X166499518Y-96426478D01*
X166500000Y-96395000D01*
X166493472Y-96319112D01*
X166459066Y-96281968D01*
X166374544Y-96266263D01*
X166330000Y-96262700D01*
X166160000Y-96250400D01*
X166160000Y-96539599D01*
X166040000Y-96539599D01*
X166040000Y-96135000D01*
X166242629Y-96135000D01*
G37*
G36*
X154915568Y-96135000D02*
G01*
X155096157Y-96144872D01*
X155217956Y-96182724D01*
X155291895Y-96260909D01*
X155328902Y-96391777D01*
X155339907Y-96587682D01*
X155340000Y-96614690D01*
X155333874Y-96807558D01*
X155307113Y-96934416D01*
X155247141Y-97008848D01*
X155141382Y-97044437D01*
X154977260Y-97054768D01*
X154932354Y-97055000D01*
X154680000Y-97055000D01*
X154680000Y-96975000D01*
X154840000Y-96975000D01*
X154952354Y-96975000D01*
X155063687Y-96956155D01*
X155137581Y-96921714D01*
X155188887Y-96843935D01*
X155222301Y-96716150D01*
X155234376Y-96567041D01*
X155221664Y-96425287D01*
X155204501Y-96365000D01*
X155164596Y-96292565D01*
X155101217Y-96261232D01*
X155000990Y-96255000D01*
X154840000Y-96255000D01*
X154840000Y-96975000D01*
X154680000Y-96975000D01*
X154680000Y-96135000D01*
X154915568Y-96135000D01*
G37*
G36*
X161053653Y-91110774D02*
G01*
X161387306Y-90115000D01*
X161593653Y-90102909D01*
X161709710Y-90098845D01*
X161784561Y-90101476D01*
X161800000Y-90106511D01*
X161813654Y-90146602D01*
X161852092Y-90251312D01*
X161911528Y-90410539D01*
X161988173Y-90614178D01*
X162078241Y-90852125D01*
X162164350Y-91078601D01*
X162264368Y-91341777D01*
X162355495Y-91582759D01*
X162433654Y-91790674D01*
X162494771Y-91954647D01*
X162534770Y-92063805D01*
X162549015Y-92105000D01*
X162550199Y-92146839D01*
X162510795Y-92167859D01*
X162413793Y-92174712D01*
X162370024Y-92175000D01*
X162170719Y-92175000D01*
X162083210Y-91935000D01*
X161995702Y-91695000D01*
X161246666Y-91695000D01*
X161093746Y-92155000D01*
X160906873Y-92167191D01*
X160797384Y-92167382D01*
X160730129Y-92154105D01*
X160720000Y-92142966D01*
X160732242Y-92096670D01*
X160766731Y-91984969D01*
X160820109Y-91818247D01*
X160889019Y-91606891D01*
X160963100Y-91382503D01*
X161320000Y-91382503D01*
X161356614Y-91398520D01*
X161452972Y-91410126D01*
X161588841Y-91414974D01*
X161600000Y-91415000D01*
X161738002Y-91410457D01*
X161838005Y-91398501D01*
X161879778Y-91381643D01*
X161880000Y-91380257D01*
X161867927Y-91313136D01*
X161835958Y-91201840D01*
X161790468Y-91063684D01*
X161737828Y-90915983D01*
X161684413Y-90776052D01*
X161636596Y-90661205D01*
X161600751Y-90588757D01*
X161583583Y-90575000D01*
X161549023Y-90670142D01*
X161502734Y-90804887D01*
X161451141Y-90959544D01*
X161400671Y-91114425D01*
X161357752Y-91249840D01*
X161328810Y-91346101D01*
X161320000Y-91382503D01*
X160963100Y-91382503D01*
X160970104Y-91361287D01*
X161053653Y-91110774D01*
G37*
G36*
X162720000Y-94695000D02*
G01*
X162280000Y-94695000D01*
X162280000Y-92655000D01*
X162720000Y-92655000D01*
X162720000Y-94695000D01*
G37*
G36*
X157268240Y-91135000D02*
G01*
X157355069Y-90877722D01*
X157435231Y-90643151D01*
X157504701Y-90442833D01*
X157559452Y-90288316D01*
X157595457Y-90191146D01*
X157606478Y-90165000D01*
X157661555Y-90116019D01*
X157770519Y-90096149D01*
X157820000Y-90095000D01*
X157950615Y-90106883D01*
X158021646Y-90146316D01*
X158034271Y-90165000D01*
X158063586Y-90231322D01*
X158113908Y-90356778D01*
X158180632Y-90528925D01*
X158259150Y-90735323D01*
X158344857Y-90963528D01*
X158433147Y-91201099D01*
X158519413Y-91435593D01*
X158599048Y-91654569D01*
X158667447Y-91845584D01*
X158720003Y-91996196D01*
X158752109Y-92093964D01*
X158760000Y-92125257D01*
X158735077Y-92159013D01*
X158651970Y-92170041D01*
X158573126Y-92167191D01*
X158386253Y-92155000D01*
X158233333Y-91695000D01*
X157846666Y-91695055D01*
X157460000Y-91695110D01*
X157389489Y-91935055D01*
X157318979Y-92175000D01*
X157115210Y-92175000D01*
X156996265Y-92171627D01*
X156940790Y-92157170D01*
X156932387Y-92125119D01*
X156938889Y-92105000D01*
X156958996Y-92048400D01*
X157000561Y-91927467D01*
X157059667Y-91753736D01*
X157132397Y-91538743D01*
X157184723Y-91383409D01*
X157560000Y-91383409D01*
X157596486Y-91399497D01*
X157691950Y-91410875D01*
X157820000Y-91415000D01*
X157961619Y-91412127D01*
X158040600Y-91400282D01*
X158074198Y-91374618D01*
X158080000Y-91342006D01*
X158066914Y-91268521D01*
X158032918Y-91144540D01*
X157985899Y-90994204D01*
X157933748Y-90841653D01*
X157884353Y-90711026D01*
X157846914Y-90628775D01*
X157824474Y-90611596D01*
X157796719Y-90641937D01*
X157759226Y-90728662D01*
X157707570Y-90880635D01*
X157683918Y-90955384D01*
X157632404Y-91123061D01*
X157591362Y-91262127D01*
X157565871Y-91355035D01*
X157560000Y-91383409D01*
X157184723Y-91383409D01*
X157214834Y-91294022D01*
X157268240Y-91135000D01*
G37*
G36*
X157239787Y-96148016D02*
G01*
X157275108Y-96170566D01*
X157280000Y-96193172D01*
X157260293Y-96231730D01*
X157190614Y-96250669D01*
X157080000Y-96255000D01*
X156880000Y-96255000D01*
X156880000Y-96392585D01*
X156886633Y-96484002D01*
X156922494Y-96525407D01*
X157011522Y-96541243D01*
X157026908Y-96542585D01*
X157142664Y-96565643D01*
X157191154Y-96600790D01*
X157170429Y-96634690D01*
X157078541Y-96654010D01*
X157043333Y-96655000D01*
X156880000Y-96655000D01*
X156880000Y-96855000D01*
X156875871Y-96974813D01*
X156858131Y-97034578D01*
X156818748Y-97054048D01*
X156798689Y-97055000D01*
X156763584Y-97050707D01*
X156740893Y-97028690D01*
X156728486Y-96975240D01*
X156724228Y-96876650D01*
X156725989Y-96719212D01*
X156728689Y-96605000D01*
X156740000Y-96155000D01*
X157010000Y-96143172D01*
X157156717Y-96139865D01*
X157239787Y-96148016D01*
G37*
G36*
X161227068Y-96160685D02*
G01*
X161233900Y-96246294D01*
X161232534Y-96261919D01*
X161209375Y-96365339D01*
X161176039Y-96398259D01*
X161145819Y-96358960D01*
X161132843Y-96274800D01*
X161138981Y-96173527D01*
X161174544Y-96135957D01*
X161185377Y-96135000D01*
X161227068Y-96160685D01*
G37*
G36*
X167294574Y-90139139D02*
G01*
X167507948Y-90240053D01*
X167686080Y-90397467D01*
X167783571Y-90543013D01*
X167834924Y-90665711D01*
X167829213Y-90738553D01*
X167763082Y-90770976D01*
X167701052Y-90775000D01*
X167606397Y-90762180D01*
X167516196Y-90714724D01*
X167406533Y-90619135D01*
X167382105Y-90595000D01*
X167273793Y-90493615D01*
X167189539Y-90439240D01*
X167101682Y-90417854D01*
X167026967Y-90415000D01*
X166823607Y-90451202D01*
X166654316Y-90553847D01*
X166526388Y-90713990D01*
X166447116Y-90922687D01*
X166423483Y-91155000D01*
X166456092Y-91414920D01*
X166546196Y-91620680D01*
X166692894Y-91770892D01*
X166881393Y-91860143D01*
X167033058Y-91884339D01*
X167172871Y-91857352D01*
X167291844Y-91795256D01*
X167409127Y-91697889D01*
X167504030Y-91586828D01*
X167555862Y-91483654D01*
X167560000Y-91453608D01*
X167550860Y-91409654D01*
X167511295Y-91385903D01*
X167423085Y-91376387D01*
X167320000Y-91375000D01*
X167080000Y-91375000D01*
X167080000Y-91095000D01*
X167922390Y-91095000D01*
X167900000Y-92115000D01*
X167750000Y-92127414D01*
X167651827Y-92130369D01*
X167609595Y-92107267D01*
X167600052Y-92043401D01*
X167600000Y-92032535D01*
X167595242Y-91958980D01*
X167566421Y-91952609D01*
X167510000Y-91989929D01*
X167277015Y-92126068D01*
X167053166Y-92188959D01*
X166825098Y-92182129D01*
X166800000Y-92177438D01*
X166545875Y-92089097D01*
X166339182Y-91938793D01*
X166184242Y-91731957D01*
X166085382Y-91474019D01*
X166049605Y-91235000D01*
X166063326Y-90924539D01*
X166146100Y-90654051D01*
X166298334Y-90422425D01*
X166377289Y-90341769D01*
X166587316Y-90196037D01*
X166819826Y-90115065D01*
X167060389Y-90096788D01*
X167294574Y-90139139D01*
G37*
G36*
X156120000Y-90135000D02*
G01*
X156120000Y-94735000D01*
X151520000Y-94735000D01*
X151520000Y-92495000D01*
X152480000Y-92495000D01*
X152480550Y-92848437D01*
X152482122Y-93175734D01*
X152484596Y-93468526D01*
X152487853Y-93718451D01*
X152491774Y-93917144D01*
X152496239Y-94056242D01*
X152501129Y-94127382D01*
X152503384Y-94135000D01*
X152542966Y-94115623D01*
X152641831Y-94061161D01*
X152790320Y-93977110D01*
X152978776Y-93868971D01*
X153197541Y-93742243D01*
X153373384Y-93639657D01*
X153652168Y-93476370D01*
X153948070Y-93302755D01*
X154241045Y-93130594D01*
X154511047Y-92971668D01*
X154738032Y-92837760D01*
X154794832Y-92804175D01*
X155369664Y-92464035D01*
X155194832Y-92363465D01*
X155066115Y-92289971D01*
X154891227Y-92190916D01*
X154679248Y-92071376D01*
X154439262Y-91936426D01*
X154180350Y-91791144D01*
X153911595Y-91640604D01*
X153642079Y-91489883D01*
X153380884Y-91344056D01*
X153137092Y-91208199D01*
X152919785Y-91087389D01*
X152738046Y-90986701D01*
X152600957Y-90911210D01*
X152517599Y-90865994D01*
X152495767Y-90855000D01*
X152492369Y-90893606D01*
X152489222Y-91003848D01*
X152486407Y-91177363D01*
X152484004Y-91405788D01*
X152482094Y-91680759D01*
X152480757Y-91993912D01*
X152480073Y-92336885D01*
X152480000Y-92495000D01*
X151520000Y-92495000D01*
X151520000Y-90135000D01*
X156120000Y-90135000D01*
G37*
G36*
X167369753Y-92628593D02*
G01*
X167579835Y-92696018D01*
X167748486Y-92811294D01*
X167864220Y-92969553D01*
X167906034Y-93095171D01*
X167916856Y-93168074D01*
X167898278Y-93203089D01*
X167831624Y-93214114D01*
X167745000Y-93215000D01*
X167635665Y-93206899D01*
X167569334Y-93186312D01*
X167560000Y-93173181D01*
X167533983Y-93118884D01*
X167470478Y-93042004D01*
X167461818Y-93033181D01*
X167366074Y-92963845D01*
X167244187Y-92936839D01*
X167184422Y-92935000D01*
X166981638Y-92954792D01*
X166843798Y-93012708D01*
X166773672Y-93106554D01*
X166774030Y-93234139D01*
X166780013Y-93255042D01*
X166815343Y-93319498D01*
X166884104Y-93372540D01*
X166999146Y-93420120D01*
X167173317Y-93468187D01*
X167305659Y-93498452D01*
X167543570Y-93557393D01*
X167715358Y-93618432D01*
X167834751Y-93688535D01*
X167915478Y-93774670D01*
X167943775Y-93822301D01*
X167988915Y-93983107D01*
X167985966Y-94171011D01*
X167938060Y-94351659D01*
X167886983Y-94445192D01*
X167747476Y-94577491D01*
X167555636Y-94672726D01*
X167331701Y-94727495D01*
X167095912Y-94738395D01*
X166868508Y-94702022D01*
X166716291Y-94642020D01*
X166564095Y-94535915D01*
X166444034Y-94403279D01*
X166372624Y-94265109D01*
X166360000Y-94189084D01*
X166368957Y-94129714D01*
X166410329Y-94102609D01*
X166505864Y-94095845D01*
X166530000Y-94095865D01*
X166642406Y-94103588D01*
X166706756Y-94137147D01*
X166754590Y-94214368D01*
X166760000Y-94225865D01*
X166847476Y-94336557D01*
X166975137Y-94405435D01*
X167125176Y-94434468D01*
X167279787Y-94425623D01*
X167421166Y-94380868D01*
X167531506Y-94302172D01*
X167593003Y-94191503D01*
X167600000Y-94133018D01*
X167585909Y-94050003D01*
X167536140Y-93983317D01*
X167439452Y-93926032D01*
X167284600Y-93871219D01*
X167091269Y-93819523D01*
X166830262Y-93746456D01*
X166638853Y-93670087D01*
X166506741Y-93583042D01*
X166423628Y-93477946D01*
X166379214Y-93347423D01*
X166372216Y-93304614D01*
X166385378Y-93119739D01*
X166466560Y-92944855D01*
X166603960Y-92795285D01*
X166785775Y-92686349D01*
X166871242Y-92656760D01*
X167129727Y-92613885D01*
X167369753Y-92628593D01*
G37*
G36*
X165400841Y-96183676D02*
G01*
X165440000Y-96215000D01*
X165498728Y-96286637D01*
X165520000Y-96335000D01*
X165492707Y-96371316D01*
X165435002Y-96368398D01*
X165383141Y-96331229D01*
X165374465Y-96315000D01*
X165317880Y-96269772D01*
X165220618Y-96255000D01*
X165104217Y-96274823D01*
X165031063Y-96325149D01*
X165015633Y-96392264D01*
X165035857Y-96430008D01*
X165102266Y-96470693D01*
X165211950Y-96504769D01*
X165248770Y-96511762D01*
X165366266Y-96538442D01*
X165453455Y-96572046D01*
X165468015Y-96581652D01*
X165509645Y-96660441D01*
X165519361Y-96777128D01*
X165498965Y-96897058D01*
X165450259Y-96985581D01*
X165446850Y-96988800D01*
X165337531Y-97041806D01*
X165194979Y-97055263D01*
X165054913Y-97030183D01*
X164960000Y-96975000D01*
X164900748Y-96893593D01*
X164880827Y-96820001D01*
X164904750Y-96777933D01*
X164921918Y-96775000D01*
X164974046Y-96802798D01*
X165046004Y-96870755D01*
X165055063Y-96881056D01*
X165156320Y-96955025D01*
X165260443Y-96963836D01*
X165345721Y-96910758D01*
X165384462Y-96831462D01*
X165391128Y-96736930D01*
X165345540Y-96676440D01*
X165236147Y-96638696D01*
X165176547Y-96628136D01*
X165017259Y-96580081D01*
X164916388Y-96500883D01*
X164879404Y-96402278D01*
X164911775Y-96296003D01*
X164985394Y-96217903D01*
X165121537Y-96150884D01*
X165269714Y-96139413D01*
X165400841Y-96183676D01*
G37*
G36*
X155877021Y-96402314D02*
G01*
X155905100Y-96278328D01*
X155963242Y-96203635D01*
X156061520Y-96163189D01*
X156166348Y-96146423D01*
X156301693Y-96143581D01*
X156399551Y-96178063D01*
X156440470Y-96207337D01*
X156490763Y-96255166D01*
X156520564Y-96311806D01*
X156535140Y-96398321D01*
X156539759Y-96535770D01*
X156540000Y-96605318D01*
X156534280Y-96801345D01*
X156510857Y-96931062D01*
X156460336Y-97007725D01*
X156373321Y-97044590D01*
X156240418Y-97054915D01*
X156221301Y-97055000D01*
X156075639Y-97045380D01*
X155982734Y-97011681D01*
X155939686Y-96974653D01*
X155899900Y-96911641D01*
X155877668Y-96819090D01*
X155869230Y-96676585D01*
X155869037Y-96621012D01*
X156000000Y-96621012D01*
X156004454Y-96775148D01*
X156020634Y-96868399D01*
X156052765Y-96919529D01*
X156070000Y-96931796D01*
X156191881Y-96970822D01*
X156305389Y-96954526D01*
X156361101Y-96913672D01*
X156401769Y-96821868D01*
X156426059Y-96683850D01*
X156431390Y-96532206D01*
X156415187Y-96399522D01*
X156404501Y-96365000D01*
X156357081Y-96285990D01*
X156278800Y-96257104D01*
X156228990Y-96255000D01*
X156119382Y-96266826D01*
X156050586Y-96311556D01*
X156013918Y-96403069D01*
X156000697Y-96555242D01*
X156000000Y-96621012D01*
X155869037Y-96621012D01*
X155868931Y-96590638D01*
X155877021Y-96402314D01*
G37*
G36*
X168900579Y-96160464D02*
G01*
X168916431Y-96238758D01*
X168920000Y-96351666D01*
X168911493Y-96478777D01*
X168890977Y-96555233D01*
X168865954Y-96573821D01*
X168843926Y-96527326D01*
X168833333Y-96435000D01*
X168827796Y-96319647D01*
X168823490Y-96231488D01*
X168823333Y-96228333D01*
X168845953Y-96161748D01*
X168870000Y-96145000D01*
X168900579Y-96160464D01*
G37*
G36*
X164031205Y-90846449D02*
G01*
X164122288Y-90585032D01*
X164269449Y-90375249D01*
X164468888Y-90221602D01*
X164716804Y-90128593D01*
X164887431Y-90103752D01*
X165049996Y-90097448D01*
X165171547Y-90111034D01*
X165289982Y-90151245D01*
X165373804Y-90190216D01*
X165574969Y-90328741D01*
X165728312Y-90515224D01*
X165833928Y-90736433D01*
X165891912Y-90979135D01*
X165902359Y-91230099D01*
X165865365Y-91476092D01*
X165781025Y-91703882D01*
X165649434Y-91900237D01*
X165470688Y-92051925D01*
X165360000Y-92108402D01*
X165095395Y-92180244D01*
X164824150Y-92187622D01*
X164731265Y-92173770D01*
X164487548Y-92086431D01*
X164287139Y-91936213D01*
X164135491Y-91730710D01*
X164038056Y-91477518D01*
X164000286Y-91184235D01*
X164000004Y-91155392D01*
X164400000Y-91155392D01*
X164425639Y-91416658D01*
X164501555Y-91618754D01*
X164626245Y-91759736D01*
X164798207Y-91837662D01*
X164940000Y-91853634D01*
X165080103Y-91834633D01*
X165210636Y-91786780D01*
X165223201Y-91779572D01*
X165365310Y-91646835D01*
X165457634Y-91454577D01*
X165498183Y-91207430D01*
X165500000Y-91135000D01*
X165477470Y-90886863D01*
X165407099Y-90696850D01*
X165284712Y-90556054D01*
X165203104Y-90501551D01*
X165010049Y-90429484D01*
X164830694Y-90430907D01*
X164672762Y-90499532D01*
X164543976Y-90629074D01*
X164452056Y-90813245D01*
X164404725Y-91045758D01*
X164400000Y-91155392D01*
X164000004Y-91155392D01*
X164000000Y-91155000D01*
X164031205Y-90846449D01*
G37*
G36*
X159554372Y-96139878D02*
G01*
X159577187Y-96163537D01*
X159590797Y-96219510D01*
X159597556Y-96321332D01*
X159599819Y-96482538D01*
X159600000Y-96595000D01*
X159599151Y-96792643D01*
X159595037Y-96923826D01*
X159585302Y-97002084D01*
X159567594Y-97040950D01*
X159539558Y-97053960D01*
X159520000Y-97055000D01*
X159472015Y-97044470D01*
X159448084Y-96999775D01*
X159440342Y-96901259D01*
X159440000Y-96855000D01*
X159440000Y-96655000D01*
X159040000Y-96655000D01*
X159040000Y-96855000D01*
X159033576Y-96980772D01*
X159011337Y-97042201D01*
X158980000Y-97055000D01*
X158953652Y-97042710D01*
X158936109Y-96997540D01*
X158925745Y-96907035D01*
X158920938Y-96758739D01*
X158920000Y-96595000D01*
X158921602Y-96393001D01*
X158927494Y-96258503D01*
X158939299Y-96179052D01*
X158958642Y-96142193D01*
X158980000Y-96135000D01*
X159017731Y-96156410D01*
X159036160Y-96230540D01*
X159040000Y-96335000D01*
X159040000Y-96535000D01*
X159440000Y-96535000D01*
X159440000Y-96335000D01*
X159444211Y-96215039D01*
X159462089Y-96155210D01*
X159501496Y-96135855D01*
X159520000Y-96135000D01*
X159554372Y-96139878D01*
G37*
G36*
X151664861Y-96554357D02*
G01*
X151733788Y-96362900D01*
X151786978Y-96237088D01*
X151830389Y-96165564D01*
X151869978Y-96136972D01*
X151884861Y-96135000D01*
X151947293Y-96141715D01*
X151960000Y-96150080D01*
X151971246Y-96193903D01*
X152000921Y-96294340D01*
X152042925Y-96431859D01*
X152091160Y-96586926D01*
X152139528Y-96740008D01*
X152181929Y-96871571D01*
X152212267Y-96962084D01*
X152220668Y-96985000D01*
X152224281Y-97040698D01*
X152168615Y-97055000D01*
X152093499Y-97019326D01*
X152063574Y-96955000D01*
X152037319Y-96891742D01*
X151984272Y-96862598D01*
X151879395Y-96855049D01*
X151863574Y-96855000D01*
X151751447Y-96860933D01*
X151693911Y-96887081D01*
X151665929Y-96945961D01*
X151663574Y-96955000D01*
X151627156Y-97020757D01*
X151574241Y-97055456D01*
X151530827Y-97048350D01*
X151520000Y-97014357D01*
X151532415Y-96962000D01*
X151566057Y-96851370D01*
X151613807Y-96704890D01*
X151767354Y-96704890D01*
X151791861Y-96730748D01*
X151854154Y-96735081D01*
X151884279Y-96735000D01*
X151968317Y-96727140D01*
X151989824Y-96695591D01*
X151981478Y-96665000D01*
X151952912Y-96572371D01*
X151932032Y-96484167D01*
X151901887Y-96383814D01*
X151868395Y-96363259D01*
X151832039Y-96422391D01*
X151804623Y-96513209D01*
X151773864Y-96638659D01*
X151767354Y-96704890D01*
X151613807Y-96704890D01*
X151615521Y-96699631D01*
X151664861Y-96554357D01*
G37*
%TD*%
M02*
