M48
; DRILL file {KiCad (6.0.5)} date Sat Nov 19 18:23:53 2022
; FORMAT={-:-/ absolute / inch / decimal}
; #@! TF.CreationDate,2022-11-19T18:23:53+08:00
; #@! TF.GenerationSoftware,Kicad,Pcbnew,(6.0.5)
; #@! TF.FileFunction,Plated,1,4,PTH
FMAT,2
INCH
; #@! TA.AperFunction,Plated,PTH,ViaDrill
T1C0.0098
; #@! TA.AperFunction,Plated,PTH,ViaDrill
T2C0.0119
; #@! TA.AperFunction,Plated,PTH,ViaDrill
T3C0.0157
; #@! TA.AperFunction,Plated,PTH,ComponentDrill
T4C0.0295
; #@! TA.AperFunction,Plated,PTH,ComponentDrill
T5C0.0315
; #@! TA.AperFunction,Plated,PTH,ComponentDrill
T6C0.0374
; #@! TA.AperFunction,Plated,PTH,ComponentDrill
T7C0.0413
; #@! TA.AperFunction,Plated,PTH,ComponentDrill
T8C0.1260
%
G90
G05
T1
X5.1658Y-4.4288
X5.1665Y-3.904
X5.1673Y-3.9418
X5.1905Y-4.5332
X5.2283Y-4.5308
X5.25Y-4.2587
X5.2657Y-4.1572
X5.2697Y-3.8808
X5.2972Y-4.3918
X5.3031Y-4.0099
X5.3331Y-4.252
X5.3671Y-4.2507
X5.4449Y-4.4327
X5.4661Y-3.9828
X5.5126Y-4.4292
X5.5335Y-3.978
X5.6728Y-4.3985
X5.6827Y-4.0127
X5.6898Y-4.515
X5.7126Y-4.2497
X5.7508Y-3.8784
X5.7886Y-3.878
X5.8122Y-3.982
X5.8126Y-4.5091
X5.815Y-4.4713
X5.9311Y-3.9154
X6.1193Y-4.7075
X6.128Y-4.3386
X6.1764Y-4.3787
X6.1863Y-4.4279
X6.25Y-4.3577
X6.2657Y-4.5591
X6.2677Y-4.1589
X6.2795Y-4.752
X6.3173Y-4.4209
X6.322Y-4.5272
X6.3246Y-4.4892
X6.3465Y-4.0894
X6.3835Y-4.1327
X6.3835Y-4.626
X6.4622Y-4.2161
X6.4876Y-4.1758
X6.4921Y-4.5945
X6.4961Y-4.6417
X6.5236Y-4.6417
X6.5252Y-4.5803
X6.5669Y-4.6299
X6.6709Y-4.2161
T2
X4.4685Y-4.1575
X4.4685Y-4.2677
X4.6102Y-4.1319
X4.6102Y-4.2913
X4.6457Y-4.1319
X4.6772Y-3.8346
X4.6772Y-3.8819
X4.6772Y-3.9291
X4.6772Y-3.9764
X4.6772Y-4.0236
X4.6772Y-4.0709
X4.6772Y-4.1181
X4.6772Y-4.3071
X4.6772Y-4.3543
X4.6772Y-4.4016
X4.6772Y-4.4488
X4.6772Y-4.4961
X4.6772Y-4.5433
X4.6772Y-4.5906
X4.7244Y-3.811
X4.7244Y-4.6142
X4.7795Y-3.811
X4.7795Y-4.6142
X4.8268Y-3.811
X4.8346Y-4.6142
X4.874Y-3.811
X4.8898Y-4.6142
X4.9213Y-3.811
X4.9449Y-4.6142
X4.9764Y-3.811
X5.0079Y-3.8661
X5.0079Y-3.9134
X5.0079Y-3.9606
X5.0079Y-4.0079
X5.0079Y-4.0551
X5.0079Y-4.3701
X5.0079Y-4.4173
X5.0079Y-4.4646
X5.0079Y-4.5118
X5.0079Y-4.5591
X5.0079Y-4.6142
X5.0551Y-4.3701
X5.063Y-4.0551
X5.1161Y-3.8284
X5.1161Y-3.8678
X5.1161Y-3.9072
X5.1161Y-3.9465
X5.1161Y-3.9859
X5.1161Y-4.0253
X5.1161Y-4.0646
X5.1161Y-4.104
X5.1161Y-4.1434
X5.1161Y-4.1827
X5.1161Y-4.2615
X5.1161Y-4.3009
X5.1161Y-4.3402
X5.1161Y-4.3796
X5.1161Y-4.419
X5.1161Y-4.4583
X5.1161Y-4.4977
X5.1161Y-4.5371
X5.1161Y-4.5764
X5.1555Y-4.5764
X5.1949Y-3.8284
X5.1949Y-4.5764
X5.2106Y-4.1591
X5.2343Y-3.8284
X5.2343Y-3.9721
X5.2343Y-4.5764
X5.2362Y-3.6729
X5.2362Y-3.7595
X5.2579Y-4.4662
X5.2736Y-3.8284
X5.2736Y-4.5764
X5.2835Y-3.6729
X5.2835Y-3.7595
X5.313Y-3.8284
X5.313Y-4.5764
X5.3524Y-3.8284
X5.3524Y-4.5764
X5.3917Y-3.8284
X5.3917Y-4.5764
X5.4311Y-3.8284
X5.4311Y-4.5764
X5.4459Y-4.4869
X5.4705Y-3.8284
X5.4705Y-4.5764
X5.5098Y-3.8284
X5.5098Y-4.5764
X5.5335Y-3.9229
X5.5492Y-3.8284
X5.5492Y-4.5764
X5.5845Y-4.1593
X5.5886Y-3.8284
X5.5886Y-4.5764
X5.6242Y-4.1593
X5.628Y-3.8284
X5.628Y-4.5764
X5.6602Y-4.1824
X5.6673Y-3.8284
X5.6673Y-4.5764
X5.7008Y-4.6572
X5.7008Y-4.7438
X5.7067Y-3.8284
X5.7067Y-4.5764
X5.7113Y-4.1824
X5.7244Y-3.9426
X5.7461Y-3.8284
X5.7461Y-4.5764
X5.748Y-4.6572
X5.748Y-4.7438
X5.75Y-4.4406
X5.7697Y-4.2497
X5.7854Y-3.8284
X5.7854Y-4.5764
X5.8248Y-3.8284
X5.8642Y-3.8284
X5.8642Y-3.8678
X5.8642Y-3.9465
X5.8642Y-3.9859
X5.8642Y-4.065
X5.8642Y-4.104
X5.8642Y-4.1434
X5.8642Y-4.1827
X5.8642Y-4.2221
X5.8642Y-4.2615
X5.8642Y-4.3009
X5.8642Y-4.3402
X5.8642Y-4.3796
X5.8642Y-4.419
X5.8642Y-4.4583
X5.8642Y-4.4977
X5.8642Y-4.5371
X5.8642Y-4.5764
X6.1476Y-4.6575
X6.2264Y-4.065
X6.248Y-4.7402
X6.5297Y-4.1533
X6.7795Y-3.7323
X6.7795Y-3.811
X6.7795Y-3.8937
X6.7795Y-4.126
X6.7795Y-4.2087
X6.7795Y-4.2874
X6.7795Y-4.5197
X6.7795Y-4.6024
X6.7795Y-4.6811
X6.8543Y-3.7323
X6.8543Y-3.811
X6.8543Y-3.8937
X6.8543Y-4.126
X6.8543Y-4.2087
X6.8543Y-4.2874
X6.8543Y-4.5197
X6.8543Y-4.6024
X6.8543Y-4.6811
X6.8858Y-3.7795
X6.8858Y-3.8425
X6.8858Y-4.1811
X6.8858Y-4.2362
X6.8858Y-4.5709
X6.8858Y-4.6299
X6.9213Y-4.6024
X6.9252Y-3.811
X6.9252Y-4.2087
T3
X4.7451Y-3.9833
X4.7451Y-4.1368
X4.7451Y-4.2904
X4.7451Y-4.4439
X4.939Y-3.9823
X4.939Y-4.1358
X4.939Y-4.2894
X4.939Y-4.4429
X5.0347Y-4.3211
X5.1535Y-3.6611
X5.1535Y-3.7713
X5.5783Y-4.1229
X5.6244Y-4.1229
X5.8307Y-4.6414
X5.8307Y-4.7556
X6.3465Y-3.9291
X6.3465Y-3.9724
X6.4016Y-4.5118
X6.4567Y-3.8346
X6.4567Y-3.9291
X6.4646Y-4.0827
X6.5Y-3.8819
X6.5118Y-4.7402
X6.5433Y-3.8346
X6.5433Y-3.9291
X6.5433Y-3.9921
X6.5591Y-4.7402
X6.5669Y-4.0827
X6.5669Y-4.6772
X6.5984Y-3.9921
X6.6339Y-4.4803
X6.6535Y-3.937
X6.6535Y-3.9921
X6.6614Y-4.0827
X6.6614Y-4.6772
X6.9252Y-3.6693
X6.9252Y-4.3504
X6.9252Y-4.7441
X6.9724Y-3.7087
X6.9724Y-4.311
X6.9724Y-4.7047
X7.0512Y-3.9173
X7.0512Y-4.0315
X7.0551Y-4.1417
X7.0551Y-4.2559
X7.0551Y-4.374
X7.0551Y-4.4921
X7.1772Y-3.9173
X7.1772Y-4.0315
X7.1772Y-4.1417
X7.1772Y-4.2559
X7.1811Y-4.374
X7.1811Y-4.4921
T4
X6.061Y-4.5089
X6.061Y-4.6073
X6.061Y-4.7057
T5
X6.0207Y-4.0443
X6.0207Y-4.2443
X6.1207Y-4.1443
T6
X6.4016Y-3.6801
X6.5Y-3.6801
X6.5984Y-3.6801
T7
X5.9902Y-4.3829
X6.1476Y-4.8514
T8
X4.4882Y-3.6614
X4.4882Y-4.7638
X7.126Y-3.6614
X7.126Y-4.7638
T0
M30
