%TF.GenerationSoftware,KiCad,Pcbnew,(6.0.5)*%
%TF.CreationDate,2023-02-17T00:10:57+08:00*%
%TF.ProjectId,EmoeNAP,456d6f65-4e41-4502-9e6b-696361645f70,rev?*%
%TF.SameCoordinates,Original*%
%TF.FileFunction,Soldermask,Bot*%
%TF.FilePolarity,Negative*%
%FSLAX46Y46*%
G04 Gerber Fmt 4.6, Leading zero omitted, Abs format (unit mm)*
G04 Created by KiCad (PCBNEW (6.0.5)) date 2023-02-17 00:10:57*
%MOMM*%
%LPD*%
G01*
G04 APERTURE LIST*
G04 Aperture macros list*
%AMRoundRect*
0 Rectangle with rounded corners*
0 $1 Rounding radius*
0 $2 $3 $4 $5 $6 $7 $8 $9 X,Y pos of 4 corners*
0 Add a 4 corners polygon primitive as box body*
4,1,4,$2,$3,$4,$5,$6,$7,$8,$9,$2,$3,0*
0 Add four circle primitives for the rounded corners*
1,1,$1+$1,$2,$3*
1,1,$1+$1,$4,$5*
1,1,$1+$1,$6,$7*
1,1,$1+$1,$8,$9*
0 Add four rect primitives between the rounded corners*
20,1,$1+$1,$2,$3,$4,$5,0*
20,1,$1+$1,$4,$5,$6,$7,0*
20,1,$1+$1,$6,$7,$8,$9,0*
20,1,$1+$1,$8,$9,$2,$3,0*%
G04 Aperture macros list end*
%ADD10C,0.600000*%
%ADD11RoundRect,0.250000X0.725000X-0.600000X0.725000X0.600000X-0.725000X0.600000X-0.725000X-0.600000X0*%
%ADD12O,1.950000X1.700000*%
%ADD13RoundRect,0.250000X-0.425000X0.450000X-0.425000X-0.450000X0.425000X-0.450000X0.425000X0.450000X0*%
%ADD14C,3.600000*%
%ADD15C,1.500000*%
%ADD16C,2.000000*%
%ADD17C,1.400000*%
%ADD18RoundRect,0.250000X0.425000X-0.450000X0.425000X0.450000X-0.425000X0.450000X-0.425000X-0.450000X0*%
%ADD19RoundRect,0.250000X0.450000X0.425000X-0.450000X0.425000X-0.450000X-0.425000X0.450000X-0.425000X0*%
%ADD20C,1.440000*%
%ADD21RoundRect,0.250000X-0.450000X-0.425000X0.450000X-0.425000X0.450000X0.425000X-0.450000X0.425000X0*%
%ADD22RoundRect,0.135000X-0.135000X-0.185000X0.135000X-0.185000X0.135000X0.185000X-0.135000X0.185000X0*%
%ADD23RoundRect,0.140000X-0.170000X0.140000X-0.170000X-0.140000X0.170000X-0.140000X0.170000X0.140000X0*%
%ADD24RoundRect,0.250000X0.250000X0.475000X-0.250000X0.475000X-0.250000X-0.475000X0.250000X-0.475000X0*%
%ADD25RoundRect,0.200000X-0.275000X0.200000X-0.275000X-0.200000X0.275000X-0.200000X0.275000X0.200000X0*%
%ADD26RoundRect,0.140000X-0.140000X-0.170000X0.140000X-0.170000X0.140000X0.170000X-0.140000X0.170000X0*%
%ADD27RoundRect,0.135000X-0.185000X0.135000X-0.185000X-0.135000X0.185000X-0.135000X0.185000X0.135000X0*%
%ADD28RoundRect,0.135000X0.185000X-0.135000X0.185000X0.135000X-0.185000X0.135000X-0.185000X-0.135000X0*%
%ADD29RoundRect,0.250000X-0.475000X0.250000X-0.475000X-0.250000X0.475000X-0.250000X0.475000X0.250000X0*%
%ADD30RoundRect,0.135000X0.135000X0.185000X-0.135000X0.185000X-0.135000X-0.185000X0.135000X-0.185000X0*%
%ADD31RoundRect,0.062500X-0.062500X0.425000X-0.062500X-0.425000X0.062500X-0.425000X0.062500X0.425000X0*%
%ADD32R,2.000000X1.200000*%
%ADD33RoundRect,0.140000X0.170000X-0.140000X0.170000X0.140000X-0.170000X0.140000X-0.170000X-0.140000X0*%
%ADD34RoundRect,0.250000X-0.925000X0.787500X-0.925000X-0.787500X0.925000X-0.787500X0.925000X0.787500X0*%
%ADD35RoundRect,0.140000X0.140000X0.170000X-0.140000X0.170000X-0.140000X-0.170000X0.140000X-0.170000X0*%
%ADD36RoundRect,0.250000X0.475000X-0.250000X0.475000X0.250000X-0.475000X0.250000X-0.475000X-0.250000X0*%
%ADD37RoundRect,0.150000X0.150000X-0.825000X0.150000X0.825000X-0.150000X0.825000X-0.150000X-0.825000X0*%
%ADD38RoundRect,0.150000X-0.150000X0.512500X-0.150000X-0.512500X0.150000X-0.512500X0.150000X0.512500X0*%
%ADD39RoundRect,0.200000X0.275000X-0.200000X0.275000X0.200000X-0.275000X0.200000X-0.275000X-0.200000X0*%
%ADD40RoundRect,0.200000X0.053033X-0.335876X0.335876X-0.053033X-0.053033X0.335876X-0.335876X0.053033X0*%
G04 APERTURE END LIST*
D10*
X137699999Y-91949906D02*
X128899999Y-91949905D01*
X128899999Y-91949905D02*
X128899999Y-100349906D01*
X140499999Y-91949906D02*
X137699999Y-91949906D01*
X128899999Y-100349906D02*
X143099999Y-100349906D01*
X149299999Y-100349906D02*
X149299999Y-91949906D01*
X143099999Y-100349906D02*
X149299999Y-100349906D01*
X149299999Y-91949906D02*
X140499999Y-91949906D01*
%TO.C,G\u002A\u002A\u002A*%
G36*
X155243085Y-91739765D02*
G01*
X155304925Y-91785766D01*
X155357918Y-91867317D01*
X155405194Y-91995045D01*
X155449879Y-92179576D01*
X155495102Y-92431538D01*
X155543991Y-92761555D01*
X155599674Y-93180256D01*
X155609620Y-93257431D01*
X155680355Y-93805529D01*
X155739743Y-94263613D01*
X155788915Y-94639652D01*
X155829000Y-94941612D01*
X155861130Y-95177460D01*
X155886434Y-95355165D01*
X155906043Y-95482694D01*
X155921088Y-95568013D01*
X155932698Y-95619092D01*
X155942005Y-95643896D01*
X155950139Y-95650393D01*
X155958810Y-95627640D01*
X155975938Y-95521592D01*
X155996771Y-95343874D01*
X156019439Y-95111002D01*
X156042068Y-94839489D01*
X156055911Y-94670315D01*
X156081985Y-94394181D01*
X156108886Y-94153931D01*
X156134145Y-93970800D01*
X156155290Y-93866022D01*
X156162585Y-93844170D01*
X156248125Y-93697772D01*
X156363797Y-93630230D01*
X156493101Y-93651997D01*
X156493699Y-93652319D01*
X156547181Y-93696270D01*
X156599909Y-93776358D01*
X156656580Y-93904793D01*
X156721891Y-94093783D01*
X156800540Y-94355535D01*
X156897226Y-94702260D01*
X156950512Y-94896371D01*
X157027520Y-95173437D01*
X157099508Y-95428925D01*
X157155994Y-95625442D01*
X157258236Y-95974755D01*
X157400018Y-95408156D01*
X157437989Y-95259147D01*
X157504350Y-95021458D01*
X157561574Y-94860878D01*
X157616521Y-94763454D01*
X157676049Y-94715233D01*
X157747019Y-94702260D01*
X157798092Y-94703527D01*
X157867688Y-94716239D01*
X157926295Y-94752658D01*
X157980223Y-94824854D01*
X158035781Y-94944894D01*
X158099279Y-95124848D01*
X158177027Y-95376784D01*
X158275333Y-95712770D01*
X158291783Y-95745407D01*
X158338017Y-95773688D01*
X158429575Y-95790296D01*
X158584601Y-95798132D01*
X158821241Y-95800098D01*
X159341847Y-95800098D01*
X159341847Y-96448821D01*
X158684578Y-96448821D01*
X158409454Y-96445601D01*
X158171624Y-96431398D01*
X158009200Y-96402020D01*
X157909225Y-96353342D01*
X157858742Y-96281243D01*
X157844794Y-96181598D01*
X157836400Y-96110685D01*
X157809949Y-96122236D01*
X157767947Y-96219766D01*
X157712967Y-96397191D01*
X157647577Y-96648429D01*
X157617929Y-96765058D01*
X157559199Y-96972316D01*
X157504510Y-97138233D01*
X157462702Y-97234774D01*
X157449350Y-97254033D01*
X157339285Y-97331684D01*
X157208428Y-97339968D01*
X157098089Y-97274396D01*
X157071434Y-97219663D01*
X157020549Y-97080740D01*
X156953658Y-96877206D01*
X156876332Y-96626101D01*
X156794139Y-96344467D01*
X156722716Y-96094928D01*
X156651343Y-95849471D01*
X156593057Y-95653261D01*
X156552501Y-95521909D01*
X156534319Y-95471025D01*
X156532843Y-95472671D01*
X156521967Y-95536783D01*
X156504550Y-95682372D01*
X156482136Y-95894971D01*
X156456267Y-96160113D01*
X156428487Y-96463331D01*
X156398603Y-96795412D01*
X156367086Y-97138197D01*
X156337204Y-97456308D01*
X156311301Y-97724825D01*
X156291718Y-97918833D01*
X156284820Y-97980549D01*
X156241795Y-98242441D01*
X156182863Y-98417062D01*
X156103310Y-98514463D01*
X155998429Y-98544696D01*
X155934017Y-98536287D01*
X155869246Y-98497454D01*
X155814756Y-98416461D01*
X155766635Y-98281864D01*
X155720971Y-98082222D01*
X155673850Y-97806093D01*
X155621359Y-97442034D01*
X155583051Y-97162632D01*
X155514626Y-96663017D01*
X155457900Y-96247707D01*
X155411581Y-95906935D01*
X155374377Y-95630935D01*
X155344995Y-95409943D01*
X155322143Y-95234192D01*
X155304529Y-95093918D01*
X155290861Y-94979354D01*
X155279846Y-94880734D01*
X155270192Y-94788294D01*
X155269218Y-94778799D01*
X155249116Y-94616131D01*
X155229157Y-94506254D01*
X155213527Y-94472492D01*
X155211679Y-94475079D01*
X155202715Y-94503763D01*
X155190845Y-94566487D01*
X155175293Y-94669770D01*
X155155285Y-94820132D01*
X155130046Y-95024092D01*
X155098801Y-95288169D01*
X155060775Y-95618883D01*
X155015194Y-96022752D01*
X154961282Y-96506297D01*
X154898266Y-97076036D01*
X154825369Y-97738489D01*
X154806159Y-97912777D01*
X154749336Y-98419080D01*
X154700553Y-98836459D01*
X154658665Y-99172894D01*
X154622530Y-99436362D01*
X154591003Y-99634841D01*
X154562941Y-99776309D01*
X154537201Y-99868744D01*
X154512637Y-99920123D01*
X154417460Y-100012780D01*
X154301254Y-100030181D01*
X154182426Y-99947926D01*
X154171530Y-99935310D01*
X154155404Y-99911701D01*
X154139782Y-99877663D01*
X154123658Y-99826382D01*
X154106026Y-99751047D01*
X154085880Y-99644841D01*
X154062214Y-99500952D01*
X154034022Y-99312565D01*
X154000296Y-99072868D01*
X153960033Y-98775045D01*
X153912225Y-98412283D01*
X153855866Y-97977769D01*
X153789950Y-97464688D01*
X153713471Y-96866226D01*
X153625424Y-96175570D01*
X153617637Y-96114532D01*
X153571796Y-95758257D01*
X153529934Y-95437911D01*
X153493746Y-95166113D01*
X153464930Y-94955480D01*
X153445182Y-94818633D01*
X153436199Y-94768190D01*
X153435518Y-94768322D01*
X153418569Y-94819718D01*
X153384885Y-94948418D01*
X153339002Y-95136440D01*
X153285455Y-95365803D01*
X153239395Y-95567005D01*
X153162794Y-95901615D01*
X153086059Y-96236818D01*
X153020391Y-96523674D01*
X152947483Y-96840407D01*
X152891193Y-97078163D01*
X152848249Y-97246994D01*
X152814404Y-97361221D01*
X152785409Y-97435163D01*
X152757017Y-97483137D01*
X152724980Y-97519464D01*
X152656122Y-97575539D01*
X152563430Y-97599808D01*
X152471219Y-97553090D01*
X152373135Y-97428973D01*
X152262825Y-97221044D01*
X152133934Y-96922888D01*
X151910972Y-96373969D01*
X151008252Y-96345273D01*
X151008252Y-95700295D01*
X151580178Y-95700295D01*
X151855105Y-95704027D01*
X152055010Y-95721543D01*
X152191556Y-95762038D01*
X152283094Y-95834708D01*
X152347977Y-95948750D01*
X152404557Y-96113357D01*
X152414230Y-96144823D01*
X152452587Y-96250381D01*
X152480855Y-96272953D01*
X152510201Y-96224264D01*
X152510369Y-96223854D01*
X152531256Y-96152345D01*
X152570983Y-95998319D01*
X152626100Y-95776288D01*
X152693157Y-95500764D01*
X152768704Y-95186257D01*
X152849290Y-94847279D01*
X152931466Y-94498341D01*
X153011782Y-94153955D01*
X153086787Y-93828632D01*
X153153030Y-93536884D01*
X153207064Y-93293222D01*
X153240450Y-93163973D01*
X153324472Y-92975615D01*
X153433359Y-92880116D01*
X153569865Y-92874296D01*
X153641810Y-92906329D01*
X153711703Y-92986299D01*
X153765974Y-93124146D01*
X153809778Y-93333845D01*
X153848267Y-93629372D01*
X153849198Y-93637859D01*
X153872754Y-93842931D01*
X153904859Y-94109455D01*
X153943770Y-94424058D01*
X153987742Y-94773366D01*
X154035031Y-95144006D01*
X154083892Y-95522603D01*
X154132581Y-95895784D01*
X154179354Y-96250175D01*
X154222465Y-96572403D01*
X154260172Y-96849093D01*
X154290728Y-97066871D01*
X154312391Y-97212365D01*
X154323415Y-97272201D01*
X154335045Y-97286490D01*
X154347731Y-97242697D01*
X154349047Y-97226592D01*
X154359367Y-97122614D01*
X154378876Y-96934909D01*
X154406414Y-96674375D01*
X154440819Y-96351907D01*
X154480931Y-95978403D01*
X154525589Y-95564759D01*
X154573633Y-95121872D01*
X154585229Y-95015176D01*
X154635638Y-94550166D01*
X154684455Y-94098073D01*
X154730139Y-93673281D01*
X154771149Y-93290171D01*
X154805945Y-92963127D01*
X154832986Y-92706531D01*
X154850732Y-92534766D01*
X154874906Y-92328979D01*
X154926647Y-92043027D01*
X154991785Y-91849075D01*
X155072120Y-91742509D01*
X155169457Y-91718716D01*
X155243085Y-91739765D01*
G37*
G36*
X124053287Y-98082938D02*
G01*
X124105245Y-98083773D01*
X124145705Y-98084997D01*
X124172429Y-98086568D01*
X124183178Y-98088446D01*
X124184245Y-98090865D01*
X124177524Y-98101803D01*
X124158579Y-98115673D01*
X124152951Y-98119256D01*
X124130619Y-98138624D01*
X124117017Y-98158490D01*
X124114667Y-98172747D01*
X124112556Y-98202986D01*
X124110856Y-98245981D01*
X124109570Y-98298915D01*
X124108697Y-98358975D01*
X124108240Y-98423346D01*
X124108199Y-98489211D01*
X124108576Y-98553757D01*
X124109372Y-98614169D01*
X124110587Y-98667630D01*
X124112224Y-98711327D01*
X124114283Y-98742445D01*
X124116766Y-98758168D01*
X124117559Y-98760053D01*
X124132772Y-98779853D01*
X124155471Y-98796348D01*
X124174048Y-98805908D01*
X124186765Y-98813775D01*
X124189493Y-98819620D01*
X124185761Y-98827016D01*
X124185171Y-98827590D01*
X124173152Y-98830417D01*
X124145930Y-98832552D01*
X124102905Y-98834009D01*
X124043477Y-98834802D01*
X123967046Y-98834945D01*
X123873011Y-98834452D01*
X123566339Y-98832055D01*
X123531428Y-98746666D01*
X123521008Y-98720194D01*
X123507897Y-98680505D01*
X123504236Y-98656247D01*
X123510055Y-98647309D01*
X123525382Y-98653581D01*
X123550247Y-98674953D01*
X123568329Y-98691430D01*
X123595814Y-98710944D01*
X123626559Y-98724740D01*
X123664292Y-98733944D01*
X123712741Y-98739685D01*
X123775637Y-98743088D01*
X123809646Y-98744022D01*
X123860051Y-98743934D01*
X123897365Y-98741760D01*
X123919075Y-98737596D01*
X123944120Y-98727773D01*
X123944120Y-98481427D01*
X123845079Y-98481427D01*
X123794456Y-98481852D01*
X123750145Y-98483776D01*
X123718636Y-98487840D01*
X123697032Y-98494674D01*
X123682440Y-98504910D01*
X123671964Y-98519180D01*
X123671435Y-98520094D01*
X123656527Y-98537777D01*
X123641305Y-98545120D01*
X123639690Y-98545071D01*
X123633298Y-98542502D01*
X123629133Y-98533837D01*
X123626732Y-98516048D01*
X123625632Y-98486106D01*
X123625368Y-98440983D01*
X123625392Y-98430466D01*
X123626516Y-98382011D01*
X123629595Y-98350139D01*
X123635015Y-98333521D01*
X123643161Y-98330824D01*
X123654420Y-98340718D01*
X123666845Y-98355832D01*
X123680659Y-98370930D01*
X123694346Y-98380835D01*
X123711572Y-98386638D01*
X123736007Y-98389431D01*
X123771317Y-98390306D01*
X123821173Y-98390355D01*
X123944120Y-98390355D01*
X123944120Y-98291291D01*
X123944116Y-98286643D01*
X123943387Y-98240746D01*
X123941150Y-98209827D01*
X123937047Y-98190931D01*
X123930719Y-98181105D01*
X123918188Y-98176286D01*
X123892728Y-98173387D01*
X123852725Y-98172457D01*
X123796387Y-98173395D01*
X123742138Y-98175578D01*
X123696790Y-98179725D01*
X123662065Y-98186877D01*
X123634010Y-98198234D01*
X123608670Y-98214994D01*
X123582091Y-98238356D01*
X123569162Y-98249823D01*
X123552868Y-98259293D01*
X123542213Y-98256201D01*
X123539426Y-98250597D01*
X123540265Y-98234413D01*
X123547932Y-98206926D01*
X123563008Y-98165602D01*
X123594064Y-98085264D01*
X123884623Y-98082857D01*
X123923830Y-98082606D01*
X123992069Y-98082535D01*
X124053287Y-98082938D01*
G37*
G36*
X122667703Y-98612214D02*
G01*
X122689649Y-98663880D01*
X122707874Y-98704566D01*
X122722866Y-98735376D01*
X122735111Y-98757416D01*
X122745097Y-98771791D01*
X122753311Y-98779606D01*
X122760242Y-98781965D01*
X122763950Y-98781140D01*
X122774601Y-98773742D01*
X122790147Y-98757604D01*
X122811618Y-98731435D01*
X122840047Y-98693947D01*
X122876465Y-98643850D01*
X122921904Y-98579853D01*
X122926461Y-98573369D01*
X122957484Y-98528350D01*
X122983974Y-98488395D01*
X123004400Y-98455931D01*
X123017228Y-98433383D01*
X123020926Y-98423176D01*
X123015802Y-98414892D01*
X123001469Y-98393787D01*
X122979823Y-98362754D01*
X122952667Y-98324372D01*
X122921801Y-98281219D01*
X122892969Y-98241493D01*
X122862929Y-98201628D01*
X122839197Y-98172683D01*
X122819635Y-98152267D01*
X122802105Y-98137985D01*
X122784469Y-98127443D01*
X122765802Y-98117367D01*
X122746399Y-98104267D01*
X122740807Y-98094571D01*
X122749900Y-98087823D01*
X122774551Y-98083567D01*
X122815634Y-98081349D01*
X122874023Y-98080710D01*
X122919779Y-98080964D01*
X122960724Y-98082062D01*
X122987338Y-98084205D01*
X123001747Y-98087580D01*
X123006078Y-98092375D01*
X123006055Y-98092864D01*
X122997675Y-98103941D01*
X122978756Y-98114351D01*
X122960151Y-98124978D01*
X122951434Y-98143069D01*
X122952765Y-98147983D01*
X122961961Y-98166950D01*
X122977945Y-98195288D01*
X122998401Y-98229278D01*
X123021014Y-98265200D01*
X123043467Y-98299333D01*
X123063443Y-98327958D01*
X123078628Y-98347356D01*
X123081404Y-98347105D01*
X123092527Y-98336389D01*
X123109391Y-98315048D01*
X123129767Y-98286462D01*
X123151432Y-98254013D01*
X123172157Y-98221083D01*
X123189717Y-98191053D01*
X123201885Y-98167305D01*
X123206436Y-98153220D01*
X123199585Y-98136193D01*
X123179172Y-98118992D01*
X123169977Y-98113580D01*
X123155032Y-98102872D01*
X123150493Y-98094720D01*
X123157660Y-98088793D01*
X123177832Y-98084760D01*
X123212311Y-98082289D01*
X123262394Y-98081050D01*
X123329383Y-98080710D01*
X123334847Y-98080712D01*
X123396279Y-98080960D01*
X123441786Y-98081746D01*
X123473487Y-98083220D01*
X123493505Y-98085531D01*
X123503960Y-98088830D01*
X123506974Y-98093266D01*
X123506973Y-98093399D01*
X123499208Y-98105394D01*
X123480848Y-98116644D01*
X123468387Y-98122751D01*
X123451205Y-98134703D01*
X123432022Y-98152654D01*
X123409238Y-98178448D01*
X123381251Y-98213929D01*
X123346463Y-98260943D01*
X123303271Y-98321335D01*
X123207064Y-98457226D01*
X123246137Y-98512586D01*
X123262317Y-98535513D01*
X123289353Y-98573829D01*
X123319737Y-98616895D01*
X123349452Y-98659018D01*
X123381203Y-98703454D01*
X123405826Y-98735932D01*
X123425602Y-98758653D01*
X123443172Y-98774330D01*
X123461179Y-98785675D01*
X123482262Y-98795401D01*
X123489287Y-98798632D01*
X123508406Y-98811299D01*
X123516081Y-98823070D01*
X123515113Y-98826600D01*
X123508600Y-98830838D01*
X123493807Y-98833720D01*
X123468250Y-98835483D01*
X123429449Y-98836367D01*
X123374919Y-98836609D01*
X123343616Y-98836540D01*
X123297570Y-98835954D01*
X123265998Y-98834579D01*
X123246462Y-98832187D01*
X123236528Y-98828551D01*
X123233758Y-98823445D01*
X123241024Y-98810724D01*
X123258803Y-98798315D01*
X123272559Y-98789978D01*
X123283732Y-98774205D01*
X123283369Y-98752318D01*
X123271225Y-98721867D01*
X123247056Y-98680402D01*
X123242615Y-98673386D01*
X123219275Y-98636421D01*
X123197176Y-98601295D01*
X123180579Y-98574776D01*
X123171723Y-98561145D01*
X123158434Y-98543127D01*
X123150755Y-98536071D01*
X123149689Y-98536705D01*
X123140194Y-98547726D01*
X123123191Y-98570348D01*
X123100699Y-98601826D01*
X123074738Y-98639414D01*
X123064905Y-98653962D01*
X123035704Y-98699220D01*
X123017187Y-98733067D01*
X123008869Y-98757764D01*
X123010261Y-98775570D01*
X123020877Y-98788744D01*
X123040230Y-98799546D01*
X123043713Y-98801163D01*
X123062266Y-98813261D01*
X123069828Y-98824591D01*
X123069685Y-98825451D01*
X123064976Y-98828887D01*
X123052341Y-98831577D01*
X123030065Y-98833600D01*
X122996435Y-98835035D01*
X122949736Y-98835962D01*
X122888253Y-98836460D01*
X122810273Y-98836609D01*
X122753091Y-98836550D01*
X122688318Y-98836232D01*
X122638578Y-98835551D01*
X122602023Y-98834415D01*
X122576806Y-98832730D01*
X122561081Y-98830403D01*
X122553000Y-98827339D01*
X122550717Y-98823445D01*
X122557982Y-98810731D01*
X122575762Y-98798333D01*
X122593235Y-98785247D01*
X122603004Y-98761477D01*
X122600786Y-98727216D01*
X122586744Y-98680712D01*
X122566711Y-98627143D01*
X122260595Y-98627143D01*
X122240923Y-98679509D01*
X122230086Y-98709877D01*
X122221524Y-98742263D01*
X122221437Y-98764746D01*
X122230041Y-98781106D01*
X122247552Y-98795122D01*
X122251703Y-98797807D01*
X122269528Y-98810721D01*
X122277321Y-98820451D01*
X122273719Y-98827432D01*
X122257361Y-98832102D01*
X122226884Y-98834897D01*
X122180926Y-98836253D01*
X122118125Y-98836609D01*
X122066945Y-98836535D01*
X122023457Y-98836109D01*
X121993488Y-98835053D01*
X121974536Y-98833092D01*
X121964097Y-98829948D01*
X121959669Y-98825346D01*
X121958749Y-98819008D01*
X121961508Y-98808490D01*
X121975523Y-98796083D01*
X121981738Y-98794089D01*
X121990102Y-98790806D01*
X121997945Y-98785991D01*
X122005853Y-98778353D01*
X122014410Y-98766603D01*
X122024201Y-98749449D01*
X122035810Y-98725602D01*
X122049823Y-98693771D01*
X122066822Y-98652665D01*
X122087394Y-98600994D01*
X122112123Y-98537468D01*
X122113989Y-98532612D01*
X122295715Y-98532612D01*
X122296014Y-98532859D01*
X122307510Y-98534115D01*
X122333215Y-98535135D01*
X122369743Y-98535820D01*
X122413705Y-98536071D01*
X122531695Y-98536071D01*
X122519406Y-98501919D01*
X122512003Y-98481883D01*
X122499364Y-98448373D01*
X122483657Y-98407155D01*
X122466705Y-98363034D01*
X122466702Y-98363026D01*
X122450483Y-98320926D01*
X122436193Y-98283713D01*
X122425380Y-98255422D01*
X122419588Y-98240087D01*
X122417725Y-98235257D01*
X122411931Y-98227564D01*
X122404935Y-98236026D01*
X122401723Y-98243268D01*
X122393068Y-98265128D01*
X122380658Y-98297636D01*
X122365769Y-98337330D01*
X122349673Y-98380749D01*
X122333647Y-98424434D01*
X122318963Y-98464923D01*
X122306897Y-98498756D01*
X122298723Y-98522473D01*
X122295715Y-98532612D01*
X122113989Y-98532612D01*
X122141593Y-98460797D01*
X122176389Y-98369689D01*
X122217096Y-98262855D01*
X122284747Y-98085264D01*
X122457693Y-98080074D01*
X122510028Y-98214724D01*
X122532959Y-98273647D01*
X122574664Y-98380284D01*
X122610698Y-98471521D01*
X122636580Y-98536071D01*
X122641548Y-98548462D01*
X122667703Y-98612214D01*
G37*
G36*
X124739180Y-97845361D02*
G01*
X124781662Y-97845894D01*
X124813458Y-97846845D01*
X124836176Y-97848267D01*
X124851426Y-97850216D01*
X124860818Y-97852745D01*
X124865960Y-97855911D01*
X124868464Y-97859766D01*
X124869975Y-97863651D01*
X124877476Y-97884242D01*
X124888393Y-97915180D01*
X124900924Y-97951382D01*
X124907097Y-97969586D01*
X124916562Y-97999865D01*
X124920285Y-98018126D01*
X124918761Y-98027839D01*
X124912484Y-98032477D01*
X124903515Y-98033335D01*
X124889788Y-98023097D01*
X124884229Y-98016333D01*
X124865358Y-98000602D01*
X124840023Y-97983925D01*
X124838516Y-97983046D01*
X124818510Y-97972553D01*
X124798369Y-97965401D01*
X124773572Y-97960718D01*
X124739600Y-97957626D01*
X124691934Y-97955252D01*
X124645588Y-97953677D01*
X124613236Y-97953664D01*
X124592138Y-97955560D01*
X124578816Y-97959682D01*
X124569789Y-97966346D01*
X124566015Y-97971346D01*
X124562832Y-97979389D01*
X124560278Y-97992069D01*
X124558285Y-98011083D01*
X124556785Y-98038128D01*
X124555710Y-98074901D01*
X124554993Y-98123099D01*
X124554564Y-98184420D01*
X124554357Y-98260560D01*
X124554303Y-98353218D01*
X124554311Y-98373907D01*
X124554666Y-98482323D01*
X124555549Y-98572602D01*
X124556963Y-98644806D01*
X124558908Y-98698993D01*
X124561385Y-98735225D01*
X124564397Y-98753561D01*
X124578004Y-98776722D01*
X124600826Y-98796137D01*
X124601918Y-98796713D01*
X124619783Y-98810070D01*
X124627160Y-98823182D01*
X124627141Y-98823714D01*
X124624172Y-98828443D01*
X124614543Y-98831887D01*
X124595945Y-98834237D01*
X124566068Y-98835681D01*
X124522600Y-98836408D01*
X124463231Y-98836609D01*
X124434975Y-98836559D01*
X124377931Y-98835861D01*
X124337250Y-98833970D01*
X124311622Y-98830418D01*
X124299738Y-98824737D01*
X124300288Y-98816459D01*
X124311963Y-98805116D01*
X124333453Y-98790240D01*
X124367605Y-98768142D01*
X124369980Y-98373111D01*
X124370257Y-98320911D01*
X124370521Y-98224209D01*
X124370334Y-98144357D01*
X124369681Y-98080437D01*
X124368542Y-98031525D01*
X124366900Y-97996703D01*
X124364736Y-97975050D01*
X124362034Y-97965644D01*
X124360711Y-97964291D01*
X124345552Y-97957946D01*
X124316441Y-97954346D01*
X124271313Y-97953209D01*
X124242704Y-97953538D01*
X124180617Y-97957605D01*
X124131965Y-97966915D01*
X124093663Y-97982222D01*
X124062626Y-98004281D01*
X124051777Y-98013664D01*
X124028568Y-98030152D01*
X124013321Y-98035379D01*
X124008295Y-98028344D01*
X124009631Y-98022858D01*
X124015794Y-98002787D01*
X124025794Y-97972158D01*
X124038335Y-97934995D01*
X124067950Y-97848477D01*
X124464938Y-97846105D01*
X124531516Y-97845723D01*
X124615716Y-97845330D01*
X124684401Y-97845191D01*
X124739180Y-97845361D01*
G37*
G36*
X117646022Y-99227970D02*
G01*
X117694196Y-99228121D01*
X117762443Y-99228467D01*
X117823230Y-99228931D01*
X117874406Y-99229489D01*
X117913821Y-99230115D01*
X117939323Y-99230785D01*
X117948762Y-99231474D01*
X117951017Y-99236804D01*
X117957515Y-99256118D01*
X117966713Y-99285242D01*
X117977267Y-99319713D01*
X117987831Y-99355064D01*
X117997058Y-99386830D01*
X118003602Y-99410546D01*
X118006117Y-99421747D01*
X118002701Y-99429102D01*
X117990337Y-99426231D01*
X117971405Y-99411882D01*
X117948499Y-99387594D01*
X117933407Y-99370902D01*
X117908627Y-99347739D01*
X117887937Y-99333008D01*
X117883487Y-99331015D01*
X117858139Y-99324323D01*
X117825043Y-99319765D01*
X117790584Y-99317773D01*
X117761151Y-99318779D01*
X117743131Y-99323214D01*
X117742821Y-99323462D01*
X117739711Y-99333768D01*
X117737226Y-99358446D01*
X117735340Y-99398264D01*
X117734025Y-99453988D01*
X117733255Y-99526387D01*
X117733005Y-99616226D01*
X117733005Y-99902980D01*
X117755359Y-99925334D01*
X117757026Y-99926965D01*
X117775990Y-99941654D01*
X117791250Y-99947688D01*
X117799689Y-99949096D01*
X117811614Y-99959791D01*
X117810285Y-99975222D01*
X117808917Y-99976312D01*
X117792698Y-99979585D01*
X117759748Y-99981665D01*
X117711206Y-99982503D01*
X117648211Y-99982052D01*
X117623321Y-99981634D01*
X117572722Y-99980503D01*
X117536783Y-99979016D01*
X117512964Y-99976878D01*
X117498726Y-99973796D01*
X117491530Y-99969476D01*
X117488836Y-99963625D01*
X117490289Y-99952403D01*
X117505071Y-99947688D01*
X117506083Y-99947659D01*
X117525969Y-99940739D01*
X117546721Y-99925334D01*
X117569075Y-99902980D01*
X117569075Y-99616226D01*
X117569073Y-99607432D01*
X117568777Y-99519189D01*
X117567960Y-99448318D01*
X117566595Y-99394052D01*
X117564656Y-99355624D01*
X117562116Y-99332267D01*
X117558949Y-99323214D01*
X117556319Y-99321998D01*
X117536309Y-99318753D01*
X117506113Y-99318094D01*
X117471993Y-99319763D01*
X117440212Y-99323503D01*
X117417035Y-99329056D01*
X117399160Y-99339681D01*
X117374056Y-99360155D01*
X117348248Y-99385510D01*
X117348161Y-99385603D01*
X117322444Y-99411405D01*
X117305299Y-99423353D01*
X117296445Y-99420866D01*
X117295599Y-99403369D01*
X117302480Y-99370281D01*
X117316806Y-99321024D01*
X117346068Y-99227252D01*
X117646022Y-99227970D01*
G37*
G36*
X117004417Y-99215222D02*
G01*
X117040145Y-99216802D01*
X117067608Y-99221267D01*
X117093524Y-99230002D01*
X117124611Y-99244392D01*
X117134282Y-99249395D01*
X117185647Y-99286282D01*
X117222930Y-99332331D01*
X117245099Y-99385233D01*
X117251119Y-99442677D01*
X117239958Y-99502352D01*
X117226129Y-99534790D01*
X117202055Y-99568602D01*
X117168245Y-99596805D01*
X117122583Y-99620730D01*
X117062946Y-99641708D01*
X116987217Y-99661071D01*
X116948235Y-99670070D01*
X116898918Y-99682710D01*
X116863040Y-99694212D01*
X116837812Y-99705697D01*
X116820447Y-99718286D01*
X116808158Y-99733100D01*
X116800654Y-99750054D01*
X116796840Y-99784450D01*
X116802888Y-99819852D01*
X116818074Y-99847888D01*
X116835443Y-99862678D01*
X116875429Y-99880890D01*
X116925064Y-99890140D01*
X116980321Y-99890222D01*
X117037175Y-99880925D01*
X117091599Y-99862042D01*
X117093785Y-99861017D01*
X117126172Y-99842128D01*
X117162811Y-99815689D01*
X117196187Y-99787087D01*
X117201414Y-99782138D01*
X117230679Y-99756519D01*
X117249929Y-99744258D01*
X117260326Y-99744583D01*
X117261774Y-99748970D01*
X117260652Y-99768437D01*
X117255258Y-99798899D01*
X117246708Y-99836250D01*
X117236118Y-99876383D01*
X117224603Y-99915191D01*
X117213279Y-99948569D01*
X117203261Y-99972408D01*
X117195666Y-99982603D01*
X117182756Y-99979133D01*
X117167597Y-99964893D01*
X117166934Y-99964016D01*
X117154705Y-99950678D01*
X117142107Y-99948420D01*
X117121115Y-99955644D01*
X117113913Y-99958506D01*
X117082708Y-99969840D01*
X117049964Y-99980586D01*
X117019094Y-99987472D01*
X116961546Y-99991781D01*
X116899167Y-99988538D01*
X116838893Y-99978251D01*
X116787661Y-99961426D01*
X116765984Y-99950813D01*
X116712581Y-99913742D01*
X116675003Y-99867815D01*
X116652908Y-99812517D01*
X116645954Y-99747329D01*
X116647256Y-99717143D01*
X116656708Y-99668442D01*
X116677051Y-99628636D01*
X116710377Y-99592708D01*
X116734447Y-99574454D01*
X116774150Y-99552898D01*
X116825132Y-99533329D01*
X116889703Y-99514895D01*
X116970171Y-99496743D01*
X116997960Y-99490643D01*
X117045768Y-99476964D01*
X117078677Y-99461591D01*
X117098955Y-99443282D01*
X117108870Y-99420797D01*
X117110948Y-99403455D01*
X117103481Y-99369877D01*
X117081209Y-99342797D01*
X117046048Y-99323473D01*
X116999916Y-99313163D01*
X116944730Y-99313124D01*
X116890247Y-99323239D01*
X116820798Y-99351801D01*
X116752844Y-99398120D01*
X116736165Y-99410764D01*
X116715393Y-99422569D01*
X116704027Y-99423170D01*
X116703358Y-99421175D01*
X116704630Y-99405390D01*
X116709789Y-99378234D01*
X116717689Y-99344180D01*
X116727187Y-99307703D01*
X116737138Y-99273277D01*
X116746398Y-99245376D01*
X116753822Y-99228474D01*
X116757642Y-99225158D01*
X116772351Y-99224588D01*
X116787804Y-99231575D01*
X116794963Y-99242941D01*
X116794963Y-99243102D01*
X116797143Y-99252321D01*
X116805763Y-99254364D01*
X116824062Y-99248820D01*
X116855278Y-99235277D01*
X116874285Y-99227475D01*
X116902474Y-99219908D01*
X116936478Y-99216103D01*
X116982452Y-99215081D01*
X117004417Y-99215222D01*
G37*
G36*
X122031606Y-99601864D02*
G01*
X122031909Y-99681467D01*
X122032778Y-99752007D01*
X122034156Y-99811654D01*
X122035990Y-99858578D01*
X122038223Y-99890948D01*
X122040802Y-99906937D01*
X122053666Y-99925692D01*
X122077230Y-99941402D01*
X122096243Y-99952682D01*
X122104464Y-99967899D01*
X122104155Y-99971273D01*
X122100911Y-99976302D01*
X122092062Y-99979822D01*
X122075086Y-99982099D01*
X122047461Y-99983396D01*
X122006666Y-99983981D01*
X121950179Y-99984117D01*
X121913958Y-99983982D01*
X121859779Y-99982978D01*
X121821795Y-99980921D01*
X121798704Y-99977723D01*
X121789207Y-99973296D01*
X121788251Y-99965025D01*
X121799087Y-99952805D01*
X121817620Y-99940293D01*
X121839389Y-99923444D01*
X121840376Y-99922623D01*
X121849819Y-99913964D01*
X121856204Y-99904306D01*
X121860129Y-99890208D01*
X121862191Y-99868226D01*
X121862990Y-99834916D01*
X121863123Y-99786836D01*
X121863123Y-99669918D01*
X121797217Y-99670494D01*
X121785701Y-99670683D01*
X121753655Y-99673168D01*
X121728413Y-99680347D01*
X121707133Y-99694608D01*
X121686971Y-99718342D01*
X121665086Y-99753937D01*
X121638635Y-99803783D01*
X121633849Y-99812986D01*
X121595669Y-99877813D01*
X121557724Y-99926127D01*
X121518683Y-99959369D01*
X121477220Y-99978981D01*
X121447656Y-99986212D01*
X121396211Y-99991861D01*
X121347061Y-99989814D01*
X121307291Y-99980028D01*
X121288221Y-99970598D01*
X121277528Y-99958718D01*
X121284717Y-99946843D01*
X121309860Y-99933666D01*
X121318474Y-99929846D01*
X121349012Y-99911591D01*
X121377468Y-99885457D01*
X121406735Y-99848411D01*
X121439702Y-99797419D01*
X121443443Y-99791313D01*
X121489136Y-99725934D01*
X121535265Y-99676459D01*
X121580800Y-99644007D01*
X121593729Y-99636765D01*
X121599222Y-99630991D01*
X121589907Y-99629211D01*
X121578163Y-99627607D01*
X121546950Y-99617004D01*
X121511826Y-99599474D01*
X121479326Y-99578512D01*
X121455986Y-99557611D01*
X121432022Y-99521273D01*
X121416073Y-99470280D01*
X121415238Y-99444062D01*
X121594495Y-99444062D01*
X121594856Y-99455077D01*
X121605142Y-99501087D01*
X121628320Y-99537440D01*
X121662672Y-99561180D01*
X121685136Y-99567401D01*
X121726932Y-99572509D01*
X121780866Y-99574292D01*
X121867677Y-99574292D01*
X121866769Y-99471836D01*
X121866631Y-99454858D01*
X121865974Y-99404594D01*
X121863761Y-99369143D01*
X121858274Y-99345851D01*
X121847793Y-99332066D01*
X121830601Y-99325135D01*
X121804979Y-99322405D01*
X121769209Y-99321223D01*
X121733000Y-99321070D01*
X121679131Y-99326650D01*
X121639836Y-99340691D01*
X121613626Y-99364241D01*
X121599009Y-99398349D01*
X121594495Y-99444062D01*
X121415238Y-99444062D01*
X121414139Y-99409537D01*
X121420775Y-99370345D01*
X121440857Y-99327614D01*
X121475533Y-99291639D01*
X121526552Y-99260094D01*
X121580800Y-99232772D01*
X121842632Y-99229982D01*
X121875442Y-99229653D01*
X121946709Y-99229148D01*
X122002207Y-99229170D01*
X122043689Y-99229781D01*
X122072905Y-99231043D01*
X122091605Y-99233020D01*
X122101541Y-99235775D01*
X122104464Y-99239370D01*
X122104445Y-99239836D01*
X122096121Y-99251269D01*
X122077230Y-99261826D01*
X122056696Y-99274669D01*
X122040802Y-99296291D01*
X122040793Y-99296313D01*
X122038216Y-99312353D01*
X122035983Y-99344770D01*
X122034151Y-99391734D01*
X122032774Y-99451416D01*
X122031908Y-99521986D01*
X122031710Y-99574292D01*
X122031606Y-99601614D01*
X122031606Y-99601864D01*
G37*
G36*
X118244152Y-99226557D02*
G01*
X118249978Y-99237506D01*
X118244949Y-99249898D01*
X118225780Y-99261487D01*
X118220318Y-99263776D01*
X118201076Y-99279262D01*
X118189138Y-99306843D01*
X118188977Y-99307443D01*
X118185852Y-99327654D01*
X118183322Y-99359825D01*
X118181406Y-99400605D01*
X118180126Y-99446642D01*
X118179504Y-99494585D01*
X118179560Y-99541085D01*
X118180315Y-99582791D01*
X118181792Y-99616351D01*
X118184010Y-99638415D01*
X118186992Y-99645632D01*
X118188523Y-99644429D01*
X118200255Y-99632436D01*
X118221840Y-99609038D01*
X118251741Y-99575943D01*
X118288421Y-99534860D01*
X118330342Y-99487498D01*
X118375967Y-99435566D01*
X118557207Y-99228536D01*
X118673324Y-99228377D01*
X118713270Y-99228545D01*
X118750375Y-99229579D01*
X118773758Y-99231783D01*
X118785940Y-99235425D01*
X118789441Y-99240774D01*
X118789395Y-99241520D01*
X118780774Y-99253470D01*
X118761771Y-99264791D01*
X118739692Y-99277666D01*
X118725342Y-99292619D01*
X118724559Y-99295084D01*
X118722342Y-99313974D01*
X118720410Y-99348559D01*
X118718815Y-99396946D01*
X118717610Y-99457241D01*
X118716849Y-99527551D01*
X118716583Y-99605983D01*
X118716583Y-99902980D01*
X118737610Y-99923057D01*
X118756595Y-99939403D01*
X118775635Y-99952805D01*
X118784697Y-99960701D01*
X118785946Y-99973296D01*
X118777602Y-99977666D01*
X118753802Y-99981307D01*
X118713893Y-99983429D01*
X118656849Y-99984117D01*
X118612484Y-99983989D01*
X118576815Y-99983303D01*
X118554015Y-99981658D01*
X118541246Y-99978658D01*
X118535667Y-99973907D01*
X118534439Y-99967007D01*
X118540436Y-99952927D01*
X118559736Y-99939419D01*
X118571579Y-99934065D01*
X118582781Y-99926612D01*
X118591321Y-99915906D01*
X118597568Y-99899809D01*
X118601889Y-99876185D01*
X118604655Y-99842895D01*
X118606234Y-99797803D01*
X118606994Y-99738771D01*
X118607303Y-99663663D01*
X118607425Y-99611178D01*
X118607540Y-99552868D01*
X118607617Y-99502679D01*
X118607652Y-99463134D01*
X118607642Y-99436757D01*
X118607585Y-99426070D01*
X118606297Y-99426692D01*
X118595491Y-99437383D01*
X118574895Y-99459542D01*
X118545942Y-99491574D01*
X118510065Y-99531888D01*
X118468698Y-99578888D01*
X118423274Y-99630982D01*
X118403053Y-99654267D01*
X118358757Y-99705225D01*
X118318943Y-99750959D01*
X118285099Y-99789762D01*
X118258717Y-99819927D01*
X118241287Y-99839745D01*
X118234299Y-99847509D01*
X118229811Y-99852273D01*
X118215143Y-99868511D01*
X118193191Y-99893123D01*
X118166720Y-99923017D01*
X118146932Y-99944704D01*
X118122438Y-99969363D01*
X118103763Y-99985565D01*
X118093863Y-99990570D01*
X118091355Y-99985176D01*
X118088644Y-99966230D01*
X118086243Y-99932948D01*
X118084118Y-99884556D01*
X118082238Y-99820276D01*
X118080569Y-99739334D01*
X118079079Y-99640954D01*
X118077971Y-99559086D01*
X118076743Y-99482318D01*
X118075339Y-99420531D01*
X118073549Y-99372010D01*
X118071166Y-99335042D01*
X118067980Y-99307912D01*
X118063784Y-99288905D01*
X118058368Y-99276308D01*
X118051524Y-99268407D01*
X118043045Y-99263486D01*
X118032720Y-99259833D01*
X118022888Y-99254411D01*
X118015328Y-99241266D01*
X118017027Y-99236856D01*
X118026017Y-99232596D01*
X118045155Y-99229951D01*
X118077126Y-99228598D01*
X118124615Y-99228218D01*
X118167500Y-99228039D01*
X118203727Y-99227550D01*
X118229367Y-99226826D01*
X118240607Y-99225942D01*
X118244152Y-99226557D01*
G37*
G36*
X120502938Y-99229233D02*
G01*
X120509094Y-99241398D01*
X120508613Y-99248881D01*
X120497296Y-99255540D01*
X120496236Y-99255592D01*
X120479472Y-99262622D01*
X120460199Y-99277894D01*
X120437845Y-99300248D01*
X120437845Y-99591664D01*
X120437933Y-99672744D01*
X120438376Y-99743531D01*
X120439428Y-99799714D01*
X120441341Y-99843156D01*
X120444366Y-99875724D01*
X120448755Y-99899282D01*
X120454760Y-99915694D01*
X120462633Y-99926827D01*
X120472626Y-99934544D01*
X120484990Y-99940712D01*
X120502831Y-99952787D01*
X120508529Y-99965902D01*
X120505572Y-99970845D01*
X120495171Y-99975381D01*
X120474754Y-99978519D01*
X120441590Y-99980642D01*
X120392946Y-99982132D01*
X120380983Y-99982368D01*
X120325622Y-99982118D01*
X120287937Y-99979188D01*
X120267626Y-99973504D01*
X120264392Y-99964991D01*
X120277934Y-99953575D01*
X120295624Y-99941067D01*
X120316639Y-99923057D01*
X120316668Y-99923030D01*
X120322900Y-99916708D01*
X120327758Y-99909613D01*
X120331413Y-99899563D01*
X120334037Y-99884380D01*
X120335800Y-99861883D01*
X120336873Y-99829892D01*
X120337428Y-99786227D01*
X120337635Y-99728707D01*
X120337666Y-99655153D01*
X120337665Y-99649996D01*
X120337431Y-99585744D01*
X120336832Y-99528382D01*
X120335921Y-99480175D01*
X120334754Y-99443387D01*
X120333383Y-99420283D01*
X120331863Y-99413129D01*
X120328364Y-99419708D01*
X120318259Y-99440918D01*
X120302727Y-99474398D01*
X120282845Y-99517763D01*
X120259690Y-99568625D01*
X120234336Y-99624599D01*
X120207860Y-99683298D01*
X120181339Y-99742335D01*
X120155847Y-99799324D01*
X120132462Y-99851879D01*
X120112259Y-99897613D01*
X120096314Y-99934139D01*
X120085703Y-99959072D01*
X120082377Y-99966488D01*
X120070710Y-99985574D01*
X120060711Y-99993224D01*
X120058957Y-99992384D01*
X120051548Y-99982510D01*
X120039606Y-99960942D01*
X120022791Y-99926943D01*
X120000764Y-99879776D01*
X119973184Y-99818704D01*
X119939711Y-99742991D01*
X119900006Y-99651900D01*
X119853729Y-99544694D01*
X119840692Y-99514654D01*
X119822282Y-99473236D01*
X119807047Y-99440175D01*
X119796291Y-99418279D01*
X119791318Y-99410355D01*
X119791306Y-99410356D01*
X119790182Y-99419235D01*
X119789362Y-99443946D01*
X119788864Y-99482132D01*
X119788707Y-99531436D01*
X119788907Y-99589502D01*
X119789483Y-99653973D01*
X119790360Y-99720055D01*
X119791738Y-99785669D01*
X119793763Y-99836647D01*
X119796758Y-99874956D01*
X119801051Y-99902562D01*
X119806965Y-99921433D01*
X119814828Y-99933533D01*
X119824963Y-99940831D01*
X119837697Y-99945292D01*
X119847358Y-99950766D01*
X119854984Y-99966964D01*
X119854535Y-99971543D01*
X119851117Y-99976554D01*
X119842153Y-99980025D01*
X119825109Y-99982236D01*
X119797451Y-99983468D01*
X119756647Y-99984001D01*
X119700162Y-99984117D01*
X119650865Y-99984052D01*
X119608022Y-99983641D01*
X119578673Y-99982583D01*
X119560274Y-99980580D01*
X119550281Y-99977331D01*
X119546150Y-99972539D01*
X119545339Y-99965902D01*
X119547833Y-99955300D01*
X119559414Y-99947688D01*
X119560468Y-99947632D01*
X119576782Y-99940586D01*
X119595843Y-99925334D01*
X119618197Y-99902980D01*
X119618197Y-99300248D01*
X119595843Y-99277894D01*
X119594222Y-99276309D01*
X119575065Y-99261588D01*
X119559414Y-99255540D01*
X119552662Y-99253854D01*
X119545339Y-99241879D01*
X119546011Y-99238763D01*
X119551791Y-99234283D01*
X119565616Y-99231245D01*
X119590026Y-99229393D01*
X119627562Y-99228469D01*
X119680767Y-99228218D01*
X119816194Y-99228218D01*
X119857349Y-99326121D01*
X119875802Y-99369913D01*
X119906725Y-99442802D01*
X119935470Y-99509953D01*
X119961230Y-99569520D01*
X119983202Y-99619656D01*
X120000579Y-99658518D01*
X120012556Y-99684259D01*
X120018329Y-99695034D01*
X120022038Y-99692765D01*
X120030145Y-99679814D01*
X120042907Y-99655143D01*
X120060719Y-99617903D01*
X120083976Y-99567248D01*
X120113073Y-99502330D01*
X120148406Y-99422303D01*
X120190371Y-99326318D01*
X120232933Y-99228612D01*
X120362711Y-99228415D01*
X120380177Y-99228385D01*
X120425172Y-99228264D01*
X120462335Y-99228104D01*
X120488204Y-99227923D01*
X120499319Y-99227737D01*
X120502938Y-99229233D01*
G37*
G36*
X122361736Y-99225319D02*
G01*
X122427357Y-99225649D01*
X122498004Y-99226195D01*
X122777704Y-99228725D01*
X122805373Y-99315099D01*
X122811601Y-99334869D01*
X122825003Y-99381787D01*
X122830986Y-99412688D01*
X122829326Y-99428130D01*
X122819796Y-99428671D01*
X122802171Y-99414872D01*
X122776226Y-99387289D01*
X122759526Y-99369668D01*
X122734345Y-99346917D01*
X122713828Y-99332528D01*
X122710811Y-99331113D01*
X122685966Y-99324093D01*
X122653070Y-99319313D01*
X122618577Y-99317212D01*
X122588943Y-99318227D01*
X122570624Y-99322798D01*
X122568443Y-99326347D01*
X122565616Y-99340711D01*
X122563407Y-99366971D01*
X122561770Y-99406389D01*
X122560658Y-99460229D01*
X122560025Y-99529754D01*
X122559824Y-99616226D01*
X122559824Y-99902980D01*
X122582179Y-99925334D01*
X122583846Y-99926965D01*
X122602809Y-99941654D01*
X122618070Y-99947688D01*
X122626509Y-99949096D01*
X122638434Y-99959791D01*
X122637105Y-99975222D01*
X122635737Y-99976312D01*
X122619517Y-99979585D01*
X122586567Y-99981665D01*
X122538025Y-99982503D01*
X122475031Y-99982052D01*
X122450141Y-99981634D01*
X122399541Y-99980503D01*
X122363602Y-99979016D01*
X122339784Y-99976878D01*
X122325546Y-99973796D01*
X122318350Y-99969476D01*
X122315656Y-99963625D01*
X122317109Y-99952403D01*
X122331890Y-99947688D01*
X122332902Y-99947659D01*
X122352789Y-99940739D01*
X122373541Y-99925334D01*
X122395895Y-99902980D01*
X122395895Y-99327947D01*
X122374212Y-99319703D01*
X122361809Y-99316732D01*
X122329039Y-99315915D01*
X122290633Y-99320599D01*
X122253895Y-99329682D01*
X122226127Y-99342063D01*
X122216259Y-99349287D01*
X122191781Y-99370618D01*
X122167462Y-99395235D01*
X122150729Y-99412559D01*
X122134211Y-99424886D01*
X122125456Y-99422856D01*
X122124254Y-99405848D01*
X122130397Y-99373238D01*
X122143674Y-99324404D01*
X122146009Y-99316471D01*
X122158131Y-99276825D01*
X122167448Y-99251130D01*
X122175599Y-99236248D01*
X122184228Y-99229044D01*
X122194976Y-99226381D01*
X122198552Y-99226129D01*
X122219551Y-99225610D01*
X122255382Y-99225301D01*
X122303594Y-99225204D01*
X122361736Y-99225319D01*
G37*
G36*
X126985927Y-98299283D02*
G01*
X127652354Y-98299283D01*
X127645974Y-98337989D01*
X127640210Y-98365066D01*
X127623391Y-98410740D01*
X127596458Y-98456054D01*
X127557457Y-98504043D01*
X127504433Y-98557743D01*
X127477102Y-98583881D01*
X127435931Y-98624940D01*
X127404332Y-98660070D01*
X127379558Y-98693126D01*
X127358863Y-98727962D01*
X127339500Y-98768433D01*
X127318723Y-98818394D01*
X127301827Y-98858334D01*
X127281287Y-98902264D01*
X127261803Y-98939644D01*
X127245988Y-98965200D01*
X127234916Y-98978954D01*
X127194551Y-99014362D01*
X127148217Y-99037676D01*
X127100970Y-99046074D01*
X127089240Y-99045474D01*
X127072819Y-99041190D01*
X127054857Y-99030776D01*
X127031654Y-99011905D01*
X126999509Y-98982249D01*
X126998758Y-98981539D01*
X126960380Y-98946632D01*
X126930078Y-98923191D01*
X126903916Y-98909086D01*
X126877960Y-98902186D01*
X126848274Y-98900359D01*
X126833530Y-98900761D01*
X126809968Y-98903954D01*
X126788254Y-98911491D01*
X126767376Y-98924747D01*
X126746328Y-98945098D01*
X126724098Y-98973917D01*
X126699679Y-99012579D01*
X126672061Y-99062458D01*
X126640235Y-99124930D01*
X126603192Y-99201368D01*
X126559922Y-99293148D01*
X126521153Y-99370294D01*
X126459665Y-99471381D01*
X126393940Y-99555142D01*
X126323695Y-99621876D01*
X126248649Y-99671878D01*
X126168520Y-99705447D01*
X126167880Y-99705642D01*
X126132182Y-99713165D01*
X126089408Y-99717246D01*
X126043750Y-99718090D01*
X125999401Y-99715900D01*
X125960553Y-99710882D01*
X125931398Y-99703238D01*
X125916131Y-99693172D01*
X125916760Y-99681995D01*
X125922226Y-99658663D01*
X125931349Y-99628265D01*
X125933809Y-99620485D01*
X125943708Y-99579334D01*
X125949297Y-99532618D01*
X125951385Y-99474113D01*
X125951442Y-99467523D01*
X125951304Y-99425167D01*
X125949421Y-99394604D01*
X125944767Y-99370149D01*
X125936320Y-99346121D01*
X125923056Y-99316835D01*
X125923053Y-99316829D01*
X125880767Y-99242372D01*
X125827169Y-99170674D01*
X125768034Y-99109462D01*
X125720127Y-99070302D01*
X125629563Y-99009806D01*
X125527316Y-98955510D01*
X125417285Y-98909393D01*
X125303371Y-98873437D01*
X125264665Y-98863228D01*
X125264815Y-98633622D01*
X125264966Y-98404016D01*
X125307262Y-98363158D01*
X125311741Y-98358808D01*
X125334919Y-98334865D01*
X125352875Y-98312058D01*
X125366345Y-98287624D01*
X125376065Y-98258798D01*
X125382771Y-98222815D01*
X125387199Y-98176911D01*
X125390085Y-98118321D01*
X125392166Y-98044282D01*
X125396719Y-97848477D01*
X125623782Y-97846037D01*
X125673140Y-97845683D01*
X125731287Y-97845758D01*
X125781413Y-97846374D01*
X125820971Y-97847480D01*
X125847412Y-97849021D01*
X125858190Y-97850944D01*
X125858591Y-97851596D01*
X125862650Y-97864619D01*
X125869360Y-97890997D01*
X125877885Y-97926951D01*
X125887390Y-97968704D01*
X125897040Y-98012477D01*
X125906000Y-98054493D01*
X125913434Y-98090974D01*
X125918507Y-98118143D01*
X125920384Y-98132221D01*
X125918133Y-98132945D01*
X125902013Y-98134181D01*
X125873766Y-98135035D01*
X125837432Y-98135354D01*
X125831275Y-98135355D01*
X125794421Y-98135617D01*
X125772079Y-98136938D01*
X125760978Y-98140178D01*
X125757849Y-98146194D01*
X125759424Y-98155845D01*
X125759456Y-98155979D01*
X125763032Y-98172890D01*
X125769041Y-98203369D01*
X125776652Y-98243133D01*
X125785035Y-98287899D01*
X125805702Y-98399463D01*
X125974202Y-98399463D01*
X125980275Y-98433615D01*
X125982630Y-98446304D01*
X125988514Y-98476903D01*
X125996718Y-98518889D01*
X126006499Y-98568470D01*
X126017116Y-98621854D01*
X126025278Y-98662999D01*
X126034292Y-98709169D01*
X126041454Y-98746689D01*
X126046180Y-98772491D01*
X126047885Y-98783507D01*
X126042995Y-98793542D01*
X126029670Y-98809287D01*
X126026298Y-98812435D01*
X126010611Y-98821636D01*
X125987506Y-98826243D01*
X125951645Y-98827501D01*
X125922110Y-98827930D01*
X125903391Y-98830037D01*
X125896066Y-98834861D01*
X125896552Y-98843439D01*
X125898700Y-98852375D01*
X125903816Y-98876459D01*
X125910780Y-98910748D01*
X125918813Y-98951232D01*
X125927134Y-98993903D01*
X125934964Y-99034755D01*
X125941523Y-99069777D01*
X125946030Y-99094963D01*
X125947705Y-99106305D01*
X125951727Y-99107873D01*
X125970957Y-99109377D01*
X126003381Y-99110002D01*
X126046024Y-99109843D01*
X126095911Y-99108996D01*
X126150068Y-99107557D01*
X126205519Y-99105621D01*
X126259291Y-99103283D01*
X126308408Y-99100640D01*
X126349896Y-99097786D01*
X126380780Y-99094818D01*
X126398085Y-99091832D01*
X126421883Y-99081697D01*
X126457091Y-99056445D01*
X126484254Y-99024482D01*
X126498432Y-98990783D01*
X126498999Y-98983617D01*
X126497270Y-98956986D01*
X126491486Y-98914484D01*
X126481572Y-98855659D01*
X126467454Y-98780056D01*
X126449060Y-98687220D01*
X126443469Y-98659545D01*
X126430181Y-98593443D01*
X126418319Y-98533964D01*
X126408324Y-98483352D01*
X126400638Y-98443853D01*
X126395702Y-98417712D01*
X126393959Y-98407173D01*
X126395288Y-98405751D01*
X126409634Y-98402535D01*
X126436388Y-98400300D01*
X126471370Y-98399463D01*
X126485009Y-98399331D01*
X126517748Y-98397753D01*
X126540350Y-98394748D01*
X126548781Y-98390770D01*
X126548643Y-98389120D01*
X126546117Y-98373007D01*
X126540900Y-98343548D01*
X126533629Y-98304274D01*
X126524941Y-98258716D01*
X126501100Y-98135354D01*
X126420208Y-98135354D01*
X126402868Y-98135281D01*
X126370288Y-98134682D01*
X126347740Y-98133609D01*
X126339315Y-98132221D01*
X126338864Y-98129427D01*
X126335553Y-98112065D01*
X126329553Y-98081626D01*
X126321491Y-98041278D01*
X126311994Y-97994192D01*
X126307190Y-97970353D01*
X126298289Y-97925485D01*
X126291147Y-97888533D01*
X126286397Y-97862804D01*
X126284672Y-97851609D01*
X126285404Y-97850522D01*
X126298218Y-97847159D01*
X126323696Y-97844808D01*
X126357530Y-97843923D01*
X126430387Y-97843923D01*
X126430387Y-97406777D01*
X126985927Y-97406777D01*
X126985927Y-98299283D01*
G37*
G36*
X126075394Y-97843926D02*
G01*
X126117979Y-97844136D01*
X126152659Y-97844630D01*
X126175998Y-97845341D01*
X126184559Y-97846200D01*
X126185053Y-97848891D01*
X126188530Y-97866779D01*
X126195058Y-97900026D01*
X126204315Y-97946996D01*
X126215975Y-98006048D01*
X126229716Y-98075546D01*
X126245213Y-98153848D01*
X126262144Y-98239319D01*
X126280184Y-98330317D01*
X126289671Y-98378192D01*
X126307194Y-98466820D01*
X126323433Y-98549225D01*
X126338064Y-98623743D01*
X126350763Y-98688711D01*
X126361206Y-98742466D01*
X126369066Y-98783347D01*
X126374021Y-98809689D01*
X126375744Y-98819830D01*
X126375696Y-98820055D01*
X126365979Y-98822955D01*
X126341781Y-98825322D01*
X126306580Y-98826917D01*
X126263854Y-98827501D01*
X126151964Y-98827501D01*
X126058242Y-98356203D01*
X126050955Y-98319567D01*
X126033247Y-98230650D01*
X126016641Y-98147395D01*
X126001484Y-98071547D01*
X125988127Y-98004849D01*
X125976919Y-97949043D01*
X125968208Y-97905873D01*
X125962345Y-97877082D01*
X125959679Y-97864414D01*
X125959380Y-97863142D01*
X125958222Y-97855068D01*
X125961099Y-97849647D01*
X125970845Y-97846350D01*
X125990297Y-97844649D01*
X126022292Y-97844017D01*
X126069665Y-97843923D01*
X126075394Y-97843926D01*
G37*
G36*
X119372850Y-99229621D02*
G01*
X119416244Y-99230093D01*
X119447773Y-99231095D01*
X119469210Y-99232694D01*
X119482328Y-99234959D01*
X119488899Y-99237956D01*
X119490696Y-99241755D01*
X119488958Y-99248371D01*
X119476621Y-99255540D01*
X119475567Y-99255596D01*
X119459253Y-99262642D01*
X119440192Y-99277894D01*
X119417838Y-99300248D01*
X119417838Y-99902980D01*
X119438865Y-99923057D01*
X119457850Y-99939403D01*
X119476890Y-99952805D01*
X119485952Y-99960701D01*
X119487201Y-99973296D01*
X119481511Y-99976102D01*
X119464934Y-99978734D01*
X119436414Y-99980789D01*
X119394696Y-99982310D01*
X119338529Y-99983343D01*
X119266657Y-99983931D01*
X119177828Y-99984117D01*
X118875141Y-99984117D01*
X118837804Y-99892391D01*
X118821899Y-99850986D01*
X118811780Y-99816996D01*
X118810949Y-99798084D01*
X118819593Y-99793826D01*
X118837895Y-99803797D01*
X118866041Y-99827574D01*
X118883811Y-99842254D01*
X118914358Y-99862209D01*
X118941033Y-99874088D01*
X118954088Y-99876769D01*
X118985737Y-99880279D01*
X119026445Y-99882625D01*
X119072318Y-99883819D01*
X119119467Y-99883876D01*
X119163999Y-99882810D01*
X119202023Y-99880634D01*
X119229647Y-99877362D01*
X119242980Y-99873009D01*
X119245880Y-99867812D01*
X119250361Y-99844552D01*
X119253027Y-99803908D01*
X119253908Y-99745508D01*
X119253908Y-99628936D01*
X119130547Y-99628936D01*
X119124004Y-99628937D01*
X119076102Y-99629138D01*
X119042620Y-99630052D01*
X119020156Y-99632203D01*
X119005306Y-99636111D01*
X118994666Y-99642299D01*
X118984832Y-99651290D01*
X118982860Y-99653298D01*
X118968401Y-99670802D01*
X118962478Y-99683165D01*
X118960933Y-99687549D01*
X118948817Y-99692686D01*
X118943423Y-99690503D01*
X118939284Y-99681283D01*
X118936758Y-99662217D01*
X118935499Y-99630518D01*
X118935156Y-99583400D01*
X118935429Y-99540246D01*
X118936582Y-99507133D01*
X118938965Y-99486931D01*
X118942927Y-99476853D01*
X118948817Y-99474113D01*
X118955108Y-99475190D01*
X118962478Y-99483634D01*
X118962565Y-99484561D01*
X118969714Y-99497869D01*
X118984832Y-99515509D01*
X118986023Y-99516695D01*
X118995777Y-99525339D01*
X119006726Y-99531240D01*
X119022273Y-99534921D01*
X119045824Y-99536904D01*
X119080780Y-99537711D01*
X119130547Y-99537863D01*
X119253908Y-99537863D01*
X119253908Y-99443937D01*
X119253650Y-99395170D01*
X119251106Y-99360526D01*
X119243621Y-99337617D01*
X119228541Y-99324055D01*
X119203211Y-99317450D01*
X119164977Y-99315414D01*
X119111184Y-99315559D01*
X119059998Y-99316533D01*
X119012780Y-99319820D01*
X118976282Y-99326513D01*
X118946465Y-99337768D01*
X118919289Y-99354739D01*
X118890716Y-99378581D01*
X118880592Y-99387346D01*
X118860331Y-99400816D01*
X118849189Y-99400035D01*
X118847028Y-99384547D01*
X118853709Y-99353895D01*
X118869094Y-99307624D01*
X118896269Y-99232772D01*
X119193482Y-99230371D01*
X119243380Y-99229994D01*
X119315820Y-99229611D01*
X119372850Y-99229621D01*
G37*
G36*
X124583954Y-98993001D02*
G01*
X124610305Y-98994203D01*
X124626268Y-98996464D01*
X124634153Y-98999935D01*
X124636268Y-99004769D01*
X124635821Y-99007245D01*
X124625027Y-99019909D01*
X124604334Y-99031851D01*
X124579420Y-99047519D01*
X124563352Y-99068995D01*
X124561804Y-99076393D01*
X124559534Y-99101796D01*
X124557657Y-99141497D01*
X124556166Y-99193174D01*
X124555055Y-99254505D01*
X124554316Y-99323167D01*
X124553943Y-99396838D01*
X124553927Y-99473197D01*
X124554263Y-99549921D01*
X124554943Y-99624688D01*
X124555961Y-99695176D01*
X124557308Y-99759062D01*
X124558979Y-99814025D01*
X124560967Y-99857742D01*
X124563264Y-99887892D01*
X124565863Y-99902152D01*
X124566284Y-99902972D01*
X124582943Y-99922673D01*
X124606514Y-99938581D01*
X124608488Y-99939532D01*
X124628130Y-99953590D01*
X124636071Y-99968380D01*
X124635169Y-99973628D01*
X124630498Y-99977835D01*
X124619641Y-99980662D01*
X124600193Y-99982303D01*
X124569750Y-99982950D01*
X124525907Y-99982798D01*
X124466259Y-99982041D01*
X124400187Y-99980599D01*
X124348936Y-99978207D01*
X124314098Y-99974666D01*
X124294765Y-99969739D01*
X124290028Y-99963192D01*
X124298978Y-99954788D01*
X124320706Y-99944291D01*
X124324215Y-99942740D01*
X124347524Y-99928361D01*
X124362318Y-99912629D01*
X124364394Y-99903797D01*
X124366784Y-99877047D01*
X124368731Y-99833045D01*
X124370237Y-99771598D01*
X124371307Y-99692515D01*
X124371947Y-99595605D01*
X124372159Y-99480677D01*
X124372157Y-99444738D01*
X124372110Y-99353134D01*
X124371947Y-99277556D01*
X124371599Y-99216379D01*
X124370997Y-99167981D01*
X124370073Y-99130736D01*
X124368756Y-99103021D01*
X124366979Y-99083214D01*
X124364672Y-99069688D01*
X124361766Y-99060822D01*
X124358192Y-99054991D01*
X124353882Y-99050571D01*
X124338562Y-99038326D01*
X124316198Y-99024115D01*
X124303113Y-99016498D01*
X124296890Y-99009224D01*
X124302203Y-99003691D01*
X124320386Y-98999627D01*
X124352774Y-98996757D01*
X124400703Y-98994809D01*
X124465508Y-98993507D01*
X124490851Y-98993162D01*
X124544906Y-98992704D01*
X124583954Y-98993001D01*
G37*
G36*
X121336355Y-99227180D02*
G01*
X121346881Y-99239855D01*
X121346524Y-99248508D01*
X121336582Y-99255540D01*
X121321431Y-99260366D01*
X121301762Y-99272933D01*
X121300338Y-99274089D01*
X121294359Y-99279513D01*
X121289655Y-99286282D01*
X121286029Y-99296504D01*
X121283279Y-99312288D01*
X121281207Y-99335742D01*
X121279613Y-99368975D01*
X121278299Y-99414094D01*
X121277063Y-99473208D01*
X121275708Y-99548426D01*
X121274876Y-99594405D01*
X121273510Y-99660766D01*
X121272074Y-99712503D01*
X121270383Y-99751888D01*
X121268250Y-99781193D01*
X121265489Y-99802691D01*
X121261914Y-99818656D01*
X121257340Y-99831359D01*
X121251579Y-99843074D01*
X121228445Y-99878553D01*
X121180463Y-99925515D01*
X121119370Y-99960977D01*
X121046423Y-99984077D01*
X121040228Y-99985244D01*
X121002185Y-99988974D01*
X120954115Y-99989896D01*
X120901655Y-99988281D01*
X120850442Y-99984402D01*
X120806112Y-99978532D01*
X120774302Y-99970941D01*
X120732666Y-99951631D01*
X120683737Y-99912431D01*
X120647215Y-99860027D01*
X120646725Y-99859066D01*
X120640229Y-99845752D01*
X120635095Y-99832701D01*
X120631117Y-99817605D01*
X120628089Y-99798153D01*
X120625805Y-99772036D01*
X120624059Y-99736945D01*
X120622645Y-99690570D01*
X120621357Y-99630602D01*
X120619989Y-99554731D01*
X120619310Y-99516662D01*
X120617940Y-99448227D01*
X120616533Y-99394910D01*
X120614923Y-99354609D01*
X120612947Y-99325218D01*
X120610440Y-99304633D01*
X120607237Y-99290752D01*
X120603174Y-99281471D01*
X120598087Y-99274684D01*
X120583177Y-99261784D01*
X120568488Y-99255540D01*
X120562803Y-99253969D01*
X120556239Y-99241879D01*
X120556375Y-99240332D01*
X120560427Y-99235186D01*
X120572083Y-99231696D01*
X120593994Y-99229568D01*
X120628812Y-99228507D01*
X120679186Y-99228218D01*
X120728968Y-99228541D01*
X120764713Y-99229712D01*
X120787163Y-99231990D01*
X120798806Y-99235631D01*
X120802134Y-99240892D01*
X120796543Y-99250617D01*
X120779531Y-99259238D01*
X120767961Y-99262899D01*
X120755812Y-99270126D01*
X120746442Y-99281983D01*
X120739537Y-99300410D01*
X120734784Y-99327345D01*
X120731868Y-99364729D01*
X120730476Y-99414500D01*
X120730293Y-99478597D01*
X120731006Y-99558960D01*
X120731533Y-99600577D01*
X120732605Y-99665591D01*
X120733927Y-99715899D01*
X120735659Y-99753788D01*
X120737963Y-99781542D01*
X120741000Y-99801449D01*
X120744933Y-99815794D01*
X120749921Y-99826863D01*
X120764340Y-99848459D01*
X120786778Y-99867782D01*
X120817364Y-99880091D01*
X120859346Y-99886592D01*
X120915974Y-99888491D01*
X120956863Y-99887572D01*
X121002465Y-99882413D01*
X121036898Y-99871443D01*
X121064112Y-99853238D01*
X121088059Y-99826371D01*
X121091138Y-99822068D01*
X121096227Y-99813121D01*
X121100173Y-99801668D01*
X121103160Y-99785466D01*
X121105368Y-99762270D01*
X121106980Y-99729837D01*
X121108176Y-99685922D01*
X121109139Y-99628281D01*
X121110050Y-99554670D01*
X121110183Y-99542983D01*
X121110863Y-99465986D01*
X121110779Y-99404961D01*
X121109606Y-99357935D01*
X121107020Y-99322933D01*
X121102698Y-99297984D01*
X121096317Y-99281115D01*
X121087551Y-99270351D01*
X121076078Y-99263721D01*
X121061574Y-99259251D01*
X121046683Y-99252371D01*
X121038921Y-99240892D01*
X121038987Y-99240027D01*
X121043380Y-99235127D01*
X121056374Y-99231644D01*
X121080369Y-99229329D01*
X121117769Y-99227933D01*
X121170975Y-99227207D01*
X121188298Y-99227067D01*
X121235770Y-99226608D01*
X121276716Y-99226107D01*
X121307240Y-99225614D01*
X121323445Y-99225183D01*
X121336355Y-99227180D01*
G37*
G36*
X121748471Y-98075130D02*
G01*
X121799814Y-98084006D01*
X121840355Y-98098221D01*
X121860539Y-98109412D01*
X121911108Y-98148956D01*
X121945505Y-98196657D01*
X121963535Y-98252177D01*
X121965004Y-98315178D01*
X121962000Y-98336696D01*
X121949511Y-98379345D01*
X121927665Y-98414939D01*
X121894692Y-98444873D01*
X121848818Y-98470538D01*
X121788274Y-98493326D01*
X121711287Y-98514632D01*
X121671370Y-98524526D01*
X121622185Y-98537401D01*
X121586461Y-98548163D01*
X121561563Y-98557910D01*
X121544856Y-98567739D01*
X121533704Y-98578748D01*
X121525473Y-98592035D01*
X121514457Y-98623805D01*
X121516218Y-98662961D01*
X121535562Y-98698694D01*
X121558253Y-98719798D01*
X121592231Y-98736193D01*
X121636695Y-98743845D01*
X121694822Y-98743649D01*
X121744154Y-98737832D01*
X121802398Y-98720645D01*
X121857656Y-98690667D01*
X121914672Y-98645787D01*
X121930400Y-98631835D01*
X121954628Y-98611437D01*
X121970962Y-98600921D01*
X121979893Y-98601561D01*
X121981913Y-98614633D01*
X121977512Y-98641409D01*
X121967181Y-98683166D01*
X121951411Y-98741177D01*
X121944373Y-98766202D01*
X121933867Y-98799721D01*
X121925104Y-98820273D01*
X121916613Y-98830954D01*
X121906923Y-98834863D01*
X121892786Y-98833418D01*
X121881242Y-98818092D01*
X121879870Y-98813806D01*
X121876114Y-98806040D01*
X121869213Y-98803133D01*
X121855686Y-98805454D01*
X121832049Y-98813374D01*
X121794819Y-98827262D01*
X121782153Y-98831459D01*
X121731195Y-98841285D01*
X121671737Y-98844839D01*
X121610241Y-98842294D01*
X121553163Y-98833821D01*
X121506964Y-98819594D01*
X121501108Y-98816907D01*
X121450602Y-98784980D01*
X121408413Y-98742888D01*
X121379486Y-98695447D01*
X121369553Y-98662401D01*
X121364402Y-98609407D01*
X121368949Y-98554802D01*
X121383047Y-98506479D01*
X121386275Y-98499503D01*
X121402942Y-98471757D01*
X121425239Y-98447864D01*
X121455235Y-98426776D01*
X121495000Y-98407448D01*
X121546607Y-98388833D01*
X121612124Y-98369886D01*
X121693624Y-98349560D01*
X121726568Y-98341426D01*
X121767988Y-98329099D01*
X121795626Y-98316505D01*
X121812110Y-98301780D01*
X121820071Y-98283058D01*
X121822141Y-98258477D01*
X121820429Y-98238306D01*
X121807358Y-98208138D01*
X121780081Y-98186606D01*
X121737002Y-98172092D01*
X121721316Y-98169182D01*
X121657539Y-98168211D01*
X121592229Y-98182790D01*
X121529256Y-98211725D01*
X121472491Y-98253819D01*
X121461496Y-98263457D01*
X121436757Y-98280064D01*
X121420956Y-98282145D01*
X121415000Y-98269879D01*
X121419801Y-98243445D01*
X121419918Y-98243073D01*
X121427403Y-98218493D01*
X121437684Y-98183928D01*
X121448572Y-98146738D01*
X121455481Y-98124037D01*
X121465460Y-98097843D01*
X121474747Y-98084462D01*
X121485107Y-98080710D01*
X121495444Y-98082944D01*
X121510891Y-98095735D01*
X121515463Y-98102469D01*
X121522876Y-98106210D01*
X121536005Y-98104867D01*
X121558613Y-98097957D01*
X121594461Y-98084998D01*
X121596825Y-98084152D01*
X121640257Y-98074842D01*
X121693046Y-98071955D01*
X121748471Y-98075130D01*
G37*
G36*
X126013349Y-97536274D02*
G01*
X126124529Y-97538832D01*
X126144978Y-97639011D01*
X126152165Y-97674521D01*
X126159142Y-97709702D01*
X126163958Y-97734834D01*
X126165853Y-97746021D01*
X126165763Y-97746320D01*
X126155608Y-97748867D01*
X126131048Y-97750943D01*
X126095515Y-97752339D01*
X126052438Y-97752851D01*
X126047526Y-97752848D01*
X126005043Y-97752527D01*
X125970428Y-97751757D01*
X125947130Y-97750645D01*
X125938598Y-97749300D01*
X125937864Y-97744738D01*
X125934177Y-97725501D01*
X125928087Y-97694999D01*
X125920384Y-97657225D01*
X125910000Y-97607976D01*
X125903930Y-97573602D01*
X125904375Y-97551845D01*
X125913436Y-97539969D01*
X125933218Y-97535239D01*
X125965821Y-97534919D01*
X126013349Y-97536274D01*
G37*
G36*
X123623565Y-99227175D02*
G01*
X123658571Y-99228318D01*
X123680535Y-99230692D01*
X123692239Y-99234624D01*
X123696466Y-99240439D01*
X123694204Y-99249962D01*
X123680286Y-99260006D01*
X123675340Y-99261690D01*
X123661295Y-99268818D01*
X123650868Y-99280015D01*
X123643587Y-99297634D01*
X123638983Y-99324031D01*
X123636589Y-99361560D01*
X123635933Y-99412577D01*
X123636546Y-99479436D01*
X123639028Y-99651257D01*
X123824528Y-99439738D01*
X124010028Y-99228218D01*
X124122789Y-99228218D01*
X124153191Y-99228354D01*
X124192878Y-99229339D01*
X124218209Y-99231502D01*
X124231621Y-99235107D01*
X124235551Y-99240417D01*
X124229326Y-99251541D01*
X124212309Y-99263206D01*
X124208194Y-99265168D01*
X124195705Y-99272988D01*
X124185718Y-99283856D01*
X124177956Y-99299669D01*
X124172144Y-99322321D01*
X124168007Y-99353709D01*
X124165269Y-99395726D01*
X124163654Y-99450270D01*
X124162887Y-99519235D01*
X124162693Y-99604516D01*
X124162785Y-99649457D01*
X124163491Y-99728828D01*
X124164859Y-99794808D01*
X124166850Y-99846192D01*
X124169423Y-99881776D01*
X124172539Y-99900356D01*
X124183934Y-99920533D01*
X124208968Y-99940367D01*
X124227764Y-99953281D01*
X124235551Y-99968382D01*
X124234598Y-99974093D01*
X124229477Y-99978752D01*
X124217369Y-99981572D01*
X124195468Y-99982864D01*
X124160971Y-99982936D01*
X124111073Y-99982097D01*
X124054558Y-99980219D01*
X124014110Y-99976949D01*
X123990056Y-99971977D01*
X123981489Y-99964965D01*
X123987507Y-99955578D01*
X124007204Y-99943479D01*
X124008816Y-99942644D01*
X124024722Y-99933795D01*
X124037144Y-99924257D01*
X124046486Y-99911838D01*
X124053150Y-99894348D01*
X124057539Y-99869598D01*
X124060054Y-99835395D01*
X124061100Y-99789551D01*
X124061079Y-99729876D01*
X124060393Y-99654177D01*
X124057960Y-99421698D01*
X123807686Y-99707461D01*
X123781062Y-99737789D01*
X123728720Y-99796981D01*
X123680466Y-99850988D01*
X123637605Y-99898381D01*
X123601447Y-99937731D01*
X123573299Y-99967607D01*
X123554469Y-99986581D01*
X123546264Y-99993224D01*
X123543758Y-99990469D01*
X123541116Y-99978833D01*
X123538903Y-99956867D01*
X123537065Y-99923257D01*
X123535552Y-99876690D01*
X123534309Y-99815850D01*
X123533286Y-99739425D01*
X123532429Y-99646099D01*
X123529742Y-99298975D01*
X123494072Y-99268150D01*
X123480891Y-99256028D01*
X123466871Y-99240408D01*
X123463584Y-99232144D01*
X123463749Y-99232014D01*
X123475354Y-99230044D01*
X123501257Y-99228431D01*
X123537774Y-99227338D01*
X123581219Y-99226928D01*
X123623565Y-99227175D01*
G37*
G36*
X123215902Y-99219176D02*
G01*
X123238193Y-99223699D01*
X123292729Y-99240905D01*
X123336335Y-99266282D01*
X123373977Y-99302444D01*
X123406384Y-99352380D01*
X123422965Y-99407164D01*
X123422872Y-99462976D01*
X123406120Y-99517001D01*
X123372721Y-99566419D01*
X123368093Y-99571487D01*
X123348400Y-99591107D01*
X123328162Y-99606490D01*
X123303918Y-99619203D01*
X123272204Y-99630811D01*
X123229558Y-99642881D01*
X123172518Y-99656980D01*
X123148899Y-99662622D01*
X123101550Y-99673993D01*
X123067712Y-99682463D01*
X123044406Y-99689050D01*
X123028654Y-99694770D01*
X123017475Y-99700640D01*
X123007890Y-99707675D01*
X122996921Y-99716893D01*
X122982556Y-99730750D01*
X122972219Y-99750638D01*
X122969649Y-99779315D01*
X122969688Y-99782687D01*
X122978447Y-99824791D01*
X123002022Y-99857010D01*
X123039692Y-99878912D01*
X123090738Y-99890066D01*
X123154438Y-99890040D01*
X123175264Y-99887737D01*
X123244607Y-99870211D01*
X123308892Y-99837098D01*
X123370873Y-99787087D01*
X123370886Y-99787074D01*
X123401569Y-99759811D01*
X123423058Y-99745117D01*
X123434205Y-99743775D01*
X123435687Y-99753974D01*
X123432774Y-99778839D01*
X123425769Y-99814687D01*
X123415415Y-99858158D01*
X123402455Y-99905889D01*
X123387631Y-99954518D01*
X123384996Y-99961804D01*
X123372210Y-99980444D01*
X123356660Y-99981186D01*
X123339024Y-99963899D01*
X123328150Y-99951158D01*
X123316005Y-99948736D01*
X123295248Y-99955771D01*
X123284872Y-99959753D01*
X123253494Y-99970398D01*
X123220097Y-99980380D01*
X123183192Y-99986882D01*
X123130653Y-99989514D01*
X123073798Y-99987308D01*
X123019607Y-99980572D01*
X122975059Y-99969610D01*
X122938253Y-99952576D01*
X122890372Y-99916126D01*
X122852379Y-99869512D01*
X122828401Y-99817030D01*
X122818347Y-99758168D01*
X122822636Y-99698016D01*
X122841719Y-99643683D01*
X122874906Y-99598422D01*
X122875489Y-99597846D01*
X122900977Y-99576218D01*
X122931223Y-99558099D01*
X122969561Y-99542089D01*
X123019325Y-99526792D01*
X123083849Y-99510809D01*
X123134393Y-99499044D01*
X123185966Y-99486185D01*
X123223601Y-99474909D01*
X123249486Y-99463954D01*
X123265809Y-99452059D01*
X123274760Y-99437961D01*
X123278525Y-99420398D01*
X123279294Y-99398110D01*
X123272612Y-99368721D01*
X123251353Y-99342722D01*
X123218182Y-99324138D01*
X123175838Y-99313620D01*
X123127061Y-99311817D01*
X123074593Y-99319377D01*
X123021174Y-99336951D01*
X123000304Y-99347605D01*
X122967448Y-99367991D01*
X122935765Y-99390910D01*
X122919589Y-99403390D01*
X122891382Y-99422397D01*
X122874857Y-99428435D01*
X122869492Y-99421747D01*
X122870680Y-99415548D01*
X122875955Y-99394561D01*
X122884480Y-99362919D01*
X122895190Y-99324646D01*
X122896109Y-99321424D01*
X122909105Y-99278837D01*
X122919875Y-99250924D01*
X122929793Y-99234707D01*
X122940237Y-99227209D01*
X122940276Y-99227195D01*
X122956722Y-99225302D01*
X122965243Y-99237791D01*
X122965679Y-99239148D01*
X122971018Y-99250641D01*
X122979870Y-99254297D01*
X122996559Y-99250147D01*
X123025411Y-99238223D01*
X123066526Y-99223976D01*
X123139389Y-99213435D01*
X123215902Y-99219176D01*
G37*
%TD*%
D11*
%TO.C,J8*%
X114700000Y-103850000D03*
D12*
X114700000Y-101350000D03*
%TD*%
D11*
%TO.C,J1*%
X114700000Y-112750000D03*
D12*
X114700000Y-110250000D03*
%TD*%
D13*
%TO.C,C64*%
X161900000Y-116900000D03*
X161900000Y-119600000D03*
%TD*%
D14*
%TO.C,H1*%
X114000000Y-93000000D03*
%TD*%
D15*
%TO.C,U10*%
X124150000Y-114524906D03*
X124150000Y-117024906D03*
X124150000Y-119524906D03*
D16*
X122350000Y-111324906D03*
X126350000Y-123224906D03*
%TD*%
D17*
%TO.C,J7*%
X121000000Y-104850000D03*
X121000000Y-107390000D03*
%TD*%
D15*
%TO.C,U4*%
X153950000Y-114524906D03*
X153950000Y-117024906D03*
X153950000Y-119524906D03*
D16*
X152150000Y-111324906D03*
X156150000Y-123224906D03*
%TD*%
D17*
%TO.C,J6*%
X127900000Y-104850001D03*
X127900000Y-107390001D03*
%TD*%
D14*
%TO.C,H3*%
X114000000Y-121000000D03*
%TD*%
D18*
%TO.C,C53*%
X151600000Y-116950000D03*
X151600000Y-114250000D03*
%TD*%
D19*
%TO.C,C63*%
X167175000Y-113900000D03*
X164475000Y-113900000D03*
%TD*%
D20*
%TO.C,RV1*%
X152925000Y-102724906D03*
X155465000Y-105264906D03*
X152925000Y-107804906D03*
%TD*%
D14*
%TO.C,H4*%
X181000000Y-121000000D03*
%TD*%
%TO.C,H2*%
X181000000Y-93000000D03*
%TD*%
D21*
%TO.C,C52*%
X164475000Y-109820890D03*
X167175000Y-109820890D03*
%TD*%
D22*
%TO.C,R46*%
X118565000Y-121450000D03*
X119585000Y-121450000D03*
%TD*%
D23*
%TO.C,C59*%
X160000000Y-114026203D03*
X160000000Y-114986203D03*
%TD*%
D24*
%TO.C,C10*%
X174100000Y-118950000D03*
X172200000Y-118950000D03*
%TD*%
D25*
%TO.C,RISO7*%
X128050000Y-119325000D03*
X128050000Y-120975000D03*
%TD*%
D26*
%TO.C,C73*%
X128070000Y-113750000D03*
X129030000Y-113750000D03*
%TD*%
D27*
%TO.C,R10*%
X159800001Y-111475560D03*
X159800001Y-112495560D03*
%TD*%
%TO.C,R2*%
X159000000Y-114001406D03*
X159000000Y-115021406D03*
%TD*%
D28*
%TO.C,R1*%
X157100000Y-104845560D03*
X157100000Y-103825560D03*
%TD*%
%TO.C,R4*%
X158000000Y-115021406D03*
X158000000Y-114001406D03*
%TD*%
D26*
%TO.C,C72*%
X126120000Y-112750000D03*
X127080000Y-112750000D03*
%TD*%
D29*
%TO.C,C3*%
X161750000Y-110850000D03*
X161750000Y-112750000D03*
%TD*%
D30*
%TO.C,R53*%
X125160000Y-112750000D03*
X124140000Y-112750000D03*
%TD*%
D22*
%TO.C,R49*%
X117430000Y-112850000D03*
X118450000Y-112850000D03*
%TD*%
D24*
%TO.C,C9*%
X174100000Y-116900000D03*
X172200000Y-116900000D03*
%TD*%
%TO.C,C8*%
X174100000Y-114850000D03*
X172200000Y-114850000D03*
%TD*%
D31*
%TO.C,U3*%
X158000000Y-116812406D03*
X158500000Y-116812406D03*
X159000000Y-116812406D03*
X159500000Y-116812406D03*
X159500000Y-119587406D03*
X159000000Y-119587406D03*
X158500000Y-119587406D03*
X158000000Y-119587406D03*
D32*
X158750000Y-118199906D03*
%TD*%
D28*
%TO.C,R11*%
X159200000Y-104845561D03*
X159200000Y-103825561D03*
%TD*%
D33*
%TO.C,C48*%
X156150000Y-119879906D03*
X156150000Y-118919906D03*
%TD*%
D22*
%TO.C,R45*%
X119890000Y-123500000D03*
X120910000Y-123500000D03*
%TD*%
D34*
%TO.C,C11*%
X131300093Y-93674906D03*
X131300093Y-98599906D03*
%TD*%
D26*
%TO.C,C69*%
X119720000Y-112850000D03*
X120680000Y-112850000D03*
%TD*%
D35*
%TO.C,C66*%
X119580000Y-122450000D03*
X118620000Y-122450000D03*
%TD*%
D36*
%TO.C,C2*%
X155650000Y-112099906D03*
X155650000Y-110199906D03*
%TD*%
D37*
%TO.C,U9*%
X122255000Y-119625000D03*
X120985000Y-119625000D03*
X119715000Y-119625000D03*
X118445000Y-119625000D03*
X118445000Y-114675000D03*
X119715000Y-114675000D03*
X120985000Y-114675000D03*
X122255000Y-114675000D03*
%TD*%
D38*
%TO.C,U12*%
X126150000Y-115312500D03*
X127100000Y-115312500D03*
X128050000Y-115312500D03*
X128050000Y-117587500D03*
X126150000Y-117587500D03*
%TD*%
D24*
%TO.C,C32*%
X174088096Y-108900000D03*
X172188096Y-108900000D03*
%TD*%
D23*
%TO.C,C70*%
X129000000Y-110720000D03*
X129000000Y-111680000D03*
%TD*%
D34*
%TO.C,C18*%
X143000093Y-93674906D03*
X143000093Y-98599906D03*
%TD*%
D28*
%TO.C,R48*%
X118000000Y-110760000D03*
X118000000Y-109740000D03*
%TD*%
D24*
%TO.C,C27*%
X174088096Y-96799999D03*
X172188096Y-96799999D03*
%TD*%
D30*
%TO.C,R47*%
X122160000Y-122450000D03*
X121140000Y-122450000D03*
%TD*%
D24*
%TO.C,C29*%
X174088096Y-98849999D03*
X172188096Y-98849999D03*
%TD*%
D21*
%TO.C,C65*%
X124700000Y-111100000D03*
X127400000Y-111100000D03*
%TD*%
D26*
%TO.C,C67*%
X121170000Y-121450000D03*
X122130000Y-121450000D03*
%TD*%
D39*
%TO.C,RISO6*%
X120350000Y-111625000D03*
X120350000Y-109975000D03*
%TD*%
D24*
%TO.C,C36*%
X174088097Y-104800000D03*
X172188097Y-104800000D03*
%TD*%
D31*
%TO.C,U2*%
X158000000Y-106798060D03*
X158500000Y-106798060D03*
X159000000Y-106798060D03*
X159500000Y-106798060D03*
X159500000Y-109573060D03*
X159000000Y-109573060D03*
X158500000Y-109573060D03*
X158000000Y-109573060D03*
D32*
X158750000Y-108185560D03*
%TD*%
D23*
%TO.C,C47*%
X157750000Y-111505560D03*
X157750000Y-112465560D03*
%TD*%
D34*
%TO.C,C20*%
X146900092Y-93674906D03*
X146900092Y-98599906D03*
%TD*%
%TO.C,C12*%
X135200093Y-93674906D03*
X135200093Y-98599906D03*
%TD*%
D27*
%TO.C,R50*%
X119050000Y-109740000D03*
X119050000Y-110760000D03*
%TD*%
D23*
%TO.C,C58*%
X160250000Y-103855560D03*
X160250000Y-104815560D03*
%TD*%
D24*
%TO.C,C25*%
X174088096Y-94749999D03*
X172188096Y-94749999D03*
%TD*%
D18*
%TO.C,C51*%
X143850000Y-104450000D03*
X143850000Y-101750000D03*
%TD*%
D35*
%TO.C,C68*%
X118430000Y-111850000D03*
X117470000Y-111850000D03*
%TD*%
D30*
%TO.C,R54*%
X127110000Y-113750000D03*
X126090000Y-113750000D03*
%TD*%
D13*
%TO.C,C50*%
X134850000Y-120750000D03*
X134850000Y-123450000D03*
%TD*%
D24*
%TO.C,C35*%
X174088096Y-106849999D03*
X172188096Y-106849999D03*
%TD*%
D27*
%TO.C,R5*%
X157000000Y-114001406D03*
X157000000Y-115021406D03*
%TD*%
D40*
%TO.C,RISO5*%
X124950000Y-121450000D03*
X126116726Y-120283274D03*
%TD*%
D27*
%TO.C,R7*%
X158750000Y-111475561D03*
X158750000Y-112495561D03*
%TD*%
%TO.C,R8*%
X158150000Y-103825561D03*
X158150000Y-104845561D03*
%TD*%
D34*
%TO.C,C15*%
X139100094Y-93674906D03*
X139100094Y-98599906D03*
%TD*%
D30*
%TO.C,R55*%
X129060000Y-112750000D03*
X128040000Y-112750000D03*
%TD*%
M02*
