%TF.GenerationSoftware,KiCad,Pcbnew,(6.0.5)*%
%TF.CreationDate,2023-02-17T00:10:57+08:00*%
%TF.ProjectId,EmoeNAP,456d6f65-4e41-4502-9e6b-696361645f70,rev?*%
%TF.SameCoordinates,Original*%
%TF.FileFunction,Paste,Top*%
%TF.FilePolarity,Positive*%
%FSLAX46Y46*%
G04 Gerber Fmt 4.6, Leading zero omitted, Abs format (unit mm)*
G04 Created by KiCad (PCBNEW (6.0.5)) date 2023-02-17 00:10:57*
%MOMM*%
%LPD*%
G01*
G04 APERTURE LIST*
G04 Aperture macros list*
%AMRoundRect*
0 Rectangle with rounded corners*
0 $1 Rounding radius*
0 $2 $3 $4 $5 $6 $7 $8 $9 X,Y pos of 4 corners*
0 Add a 4 corners polygon primitive as box body*
4,1,4,$2,$3,$4,$5,$6,$7,$8,$9,$2,$3,0*
0 Add four circle primitives for the rounded corners*
1,1,$1+$1,$2,$3*
1,1,$1+$1,$4,$5*
1,1,$1+$1,$6,$7*
1,1,$1+$1,$8,$9*
0 Add four rect primitives between the rounded corners*
20,1,$1+$1,$2,$3,$4,$5,0*
20,1,$1+$1,$4,$5,$6,$7,0*
20,1,$1+$1,$6,$7,$8,$9,0*
20,1,$1+$1,$8,$9,$2,$3,0*%
G04 Aperture macros list end*
%ADD10RoundRect,0.250000X0.250000X0.475000X-0.250000X0.475000X-0.250000X-0.475000X0.250000X-0.475000X0*%
%ADD11RoundRect,0.250000X-0.450000X0.262500X-0.450000X-0.262500X0.450000X-0.262500X0.450000X0.262500X0*%
%ADD12RoundRect,0.140000X0.170000X-0.140000X0.170000X0.140000X-0.170000X0.140000X-0.170000X-0.140000X0*%
%ADD13RoundRect,0.135000X0.185000X-0.135000X0.185000X0.135000X-0.185000X0.135000X-0.185000X-0.135000X0*%
%ADD14RoundRect,0.140000X0.140000X0.170000X-0.140000X0.170000X-0.140000X-0.170000X0.140000X-0.170000X0*%
%ADD15RoundRect,0.202500X-0.282500X-0.202500X0.282500X-0.202500X0.282500X0.202500X-0.282500X0.202500X0*%
%ADD16RoundRect,0.062500X-0.425000X-0.062500X0.425000X-0.062500X0.425000X0.062500X-0.425000X0.062500X0*%
%ADD17RoundRect,0.135000X-0.185000X0.135000X-0.185000X-0.135000X0.185000X-0.135000X0.185000X0.135000X0*%
%ADD18RoundRect,0.140000X-0.170000X0.140000X-0.170000X-0.140000X0.170000X-0.140000X0.170000X0.140000X0*%
%ADD19RoundRect,0.202500X0.202500X-0.282500X0.202500X0.282500X-0.202500X0.282500X-0.202500X-0.282500X0*%
%ADD20RoundRect,0.062500X0.062500X-0.425000X0.062500X0.425000X-0.062500X0.425000X-0.062500X-0.425000X0*%
%ADD21RoundRect,0.135000X0.135000X0.185000X-0.135000X0.185000X-0.135000X-0.185000X0.135000X-0.185000X0*%
%ADD22RoundRect,0.250000X-0.618718X0.017678X0.017678X-0.618718X0.618718X-0.017678X-0.017678X0.618718X0*%
%ADD23R,1.000000X1.000000*%
%ADD24R,2.200000X1.050000*%
%ADD25RoundRect,0.135000X-0.135000X-0.185000X0.135000X-0.185000X0.135000X0.185000X-0.135000X0.185000X0*%
%ADD26RoundRect,0.250000X-0.925000X0.787500X-0.925000X-0.787500X0.925000X-0.787500X0.925000X0.787500X0*%
%ADD27RoundRect,0.150000X0.150000X-0.512500X0.150000X0.512500X-0.150000X0.512500X-0.150000X-0.512500X0*%
%ADD28RoundRect,0.202500X-0.202500X0.282500X-0.202500X-0.282500X0.202500X-0.282500X0.202500X0.282500X0*%
%ADD29RoundRect,0.062500X-0.062500X0.425000X-0.062500X-0.425000X0.062500X-0.425000X0.062500X0.425000X0*%
%ADD30RoundRect,0.202500X0.282500X0.202500X-0.282500X0.202500X-0.282500X-0.202500X0.282500X-0.202500X0*%
%ADD31RoundRect,0.062500X0.425000X0.062500X-0.425000X0.062500X-0.425000X-0.062500X0.425000X-0.062500X0*%
%ADD32RoundRect,0.250000X0.450000X-0.262500X0.450000X0.262500X-0.450000X0.262500X-0.450000X-0.262500X0*%
%ADD33RoundRect,0.250000X-0.262500X-0.450000X0.262500X-0.450000X0.262500X0.450000X-0.262500X0.450000X0*%
%ADD34RoundRect,0.250000X0.262500X0.450000X-0.262500X0.450000X-0.262500X-0.450000X0.262500X-0.450000X0*%
%ADD35RoundRect,0.140000X-0.140000X-0.170000X0.140000X-0.170000X0.140000X0.170000X-0.140000X0.170000X0*%
%ADD36RoundRect,0.250000X0.618718X-0.017678X-0.017678X0.618718X-0.618718X0.017678X0.017678X-0.618718X0*%
%ADD37RoundRect,0.250000X-0.787500X-0.925000X0.787500X-0.925000X0.787500X0.925000X-0.787500X0.925000X0*%
%ADD38RoundRect,0.150000X-0.150000X0.825000X-0.150000X-0.825000X0.150000X-0.825000X0.150000X0.825000X0*%
G04 APERTURE END LIST*
D10*
%TO.C,C19*%
X174100000Y-95799999D03*
X172200000Y-95799999D03*
%TD*%
D11*
%TO.C,R19*%
X175900000Y-117687500D03*
X175900000Y-119512500D03*
%TD*%
D12*
%TO.C,C16*%
X168980001Y-107095000D03*
X168980001Y-106135000D03*
%TD*%
D13*
%TO.C,R22*%
X169980000Y-117635000D03*
X169980000Y-116615000D03*
%TD*%
D14*
%TO.C,C45*%
X132959999Y-119759813D03*
X131999999Y-119759813D03*
%TD*%
D15*
%TO.C,U1*%
X142500000Y-106399999D03*
X142500000Y-107399999D03*
D16*
X141112500Y-106149999D03*
X141112500Y-106649999D03*
X141112500Y-107149999D03*
X141112500Y-107649999D03*
X143887500Y-107649999D03*
X143887500Y-107149999D03*
X143887500Y-106649999D03*
X143887500Y-106149999D03*
%TD*%
D13*
%TO.C,R36*%
X164680000Y-117635000D03*
X164680000Y-116615000D03*
%TD*%
D12*
%TO.C,C24*%
X166980000Y-107105000D03*
X166980000Y-106145000D03*
%TD*%
D13*
%TO.C,R39*%
X163680001Y-107135000D03*
X163680001Y-106115000D03*
%TD*%
D17*
%TO.C,R35*%
X133700000Y-112629906D03*
X133700000Y-113649906D03*
%TD*%
%TO.C,R37*%
X163680000Y-116615000D03*
X163680000Y-117635000D03*
%TD*%
D10*
%TO.C,C4*%
X174100000Y-119950000D03*
X172200000Y-119950000D03*
%TD*%
D18*
%TO.C,C14*%
X168980000Y-116645000D03*
X168980000Y-117605000D03*
%TD*%
D13*
%TO.C,R44*%
X133200000Y-106427406D03*
X133200000Y-105407406D03*
%TD*%
D19*
%TO.C,U8*%
X133200000Y-109517406D03*
X134200000Y-109517406D03*
D20*
X132950000Y-110904906D03*
X133450000Y-110904906D03*
X133950000Y-110904906D03*
X134450000Y-110904906D03*
X134450000Y-108129906D03*
X133950000Y-108129906D03*
X133450000Y-108129906D03*
X132950000Y-108129906D03*
%TD*%
D13*
%TO.C,R41*%
X135214906Y-106427406D03*
X135214906Y-105407406D03*
%TD*%
D18*
%TO.C,C44*%
X146599999Y-118789812D03*
X146599999Y-119749812D03*
%TD*%
D21*
%TO.C,R6*%
X139409999Y-106900000D03*
X138389999Y-106900000D03*
%TD*%
D22*
%TO.C,C61*%
X139303636Y-110645313D03*
X141212824Y-112554501D03*
%TD*%
D17*
%TO.C,R34*%
X131689906Y-112639906D03*
X131689906Y-113659906D03*
%TD*%
D21*
%TO.C,R30*%
X132984999Y-116749906D03*
X131964999Y-116749906D03*
%TD*%
D23*
%TO.C,J2*%
X179310000Y-112600000D03*
D24*
X180810000Y-111125000D03*
X180810000Y-114075000D03*
D23*
X182310000Y-112600000D03*
%TD*%
D25*
%TO.C,R14*%
X145589998Y-106400001D03*
X146609998Y-106400001D03*
%TD*%
D26*
%TO.C,C26*%
X143000093Y-93674906D03*
X143000093Y-98599906D03*
%TD*%
D17*
%TO.C,R38*%
X164680000Y-106115001D03*
X164680000Y-107135001D03*
%TD*%
D27*
%TO.C,U11*%
X123500000Y-107237500D03*
X124450000Y-107237500D03*
X125400000Y-107237500D03*
X125400000Y-104962500D03*
X124450000Y-104962500D03*
X123500000Y-104962500D03*
%TD*%
D10*
%TO.C,C6*%
X174100000Y-115850000D03*
X172200000Y-115850000D03*
%TD*%
D11*
%TO.C,R43*%
X175900000Y-107687500D03*
X175900000Y-109512500D03*
%TD*%
D18*
%TO.C,C71*%
X125450000Y-102340000D03*
X125450000Y-103300000D03*
%TD*%
D17*
%TO.C,R20*%
X144599999Y-118759812D03*
X144599999Y-119779812D03*
%TD*%
D13*
%TO.C,R17*%
X146099999Y-112579812D03*
X146099999Y-111559812D03*
%TD*%
D28*
%TO.C,U5*%
X144599999Y-115669812D03*
X145599999Y-115669812D03*
D29*
X145849999Y-114282312D03*
X145349999Y-114282312D03*
X144849999Y-114282312D03*
X144349999Y-114282312D03*
X144349999Y-117057312D03*
X144849999Y-117057312D03*
X145349999Y-117057312D03*
X145849999Y-117057312D03*
%TD*%
D13*
%TO.C,R52*%
X124450000Y-103300001D03*
X124450000Y-102280001D03*
%TD*%
D12*
%TO.C,C60*%
X165830000Y-117605000D03*
X165830000Y-116645000D03*
%TD*%
D10*
%TO.C,C5*%
X174100000Y-117900000D03*
X172200000Y-117900000D03*
%TD*%
%TO.C,C40*%
X174100000Y-105850000D03*
X172200000Y-105850000D03*
%TD*%
D13*
%TO.C,R26*%
X167980000Y-107125000D03*
X167980000Y-106105000D03*
%TD*%
%TO.C,R42*%
X134200000Y-106427406D03*
X134200000Y-105407406D03*
%TD*%
D10*
%TO.C,C22*%
X174100000Y-93749999D03*
X172200000Y-93749999D03*
%TD*%
D17*
%TO.C,R40*%
X132699999Y-112629906D03*
X132699999Y-113649906D03*
%TD*%
D12*
%TO.C,C57*%
X134699999Y-113599906D03*
X134699999Y-112639906D03*
%TD*%
D21*
%TO.C,R31*%
X132990000Y-117759814D03*
X131970000Y-117759814D03*
%TD*%
D26*
%TO.C,C30*%
X135200093Y-93674906D03*
X135200093Y-98599906D03*
%TD*%
D30*
%TO.C,U7*%
X136190001Y-117759813D03*
X136190001Y-118759813D03*
D31*
X137577501Y-119009813D03*
X137577501Y-118509813D03*
X137577501Y-118009813D03*
X137577501Y-117509813D03*
X134802501Y-117509813D03*
X134802501Y-118009813D03*
X134802501Y-118509813D03*
X134802501Y-119009813D03*
%TD*%
D17*
%TO.C,R23*%
X167980000Y-116615000D03*
X167980000Y-117635000D03*
%TD*%
D26*
%TO.C,C23*%
X146900092Y-93674906D03*
X146900092Y-98599906D03*
%TD*%
D18*
%TO.C,C37*%
X162680000Y-116645000D03*
X162680000Y-117605000D03*
%TD*%
D10*
%TO.C,C17*%
X174100000Y-97850000D03*
X172200000Y-97850000D03*
%TD*%
D12*
%TO.C,C49*%
X165830000Y-107105000D03*
X165830000Y-106145000D03*
%TD*%
D17*
%TO.C,R18*%
X143599999Y-118759812D03*
X143599999Y-119779812D03*
%TD*%
D23*
%TO.C,J4*%
X125000000Y-93949906D03*
D24*
X123500000Y-92474906D03*
X123500000Y-95424906D03*
D23*
X122000000Y-93949906D03*
%TD*%
D18*
%TO.C,C21*%
X166980000Y-116645000D03*
X166980000Y-117605000D03*
%TD*%
D11*
%TO.C,RISO2*%
X175900000Y-97637500D03*
X175900000Y-99462500D03*
%TD*%
D13*
%TO.C,R51*%
X123450000Y-103300000D03*
X123450000Y-102280000D03*
%TD*%
D23*
%TO.C,J5*%
X179260000Y-106700000D03*
X182260000Y-106700000D03*
D24*
X180760000Y-108175000D03*
X180760000Y-105225000D03*
%TD*%
D25*
%TO.C,R12*%
X145589999Y-108399905D03*
X146609999Y-108399905D03*
%TD*%
D10*
%TO.C,C7*%
X174100000Y-113799999D03*
X172200000Y-113799999D03*
%TD*%
D23*
%TO.C,J3*%
X179210000Y-101000000D03*
D24*
X180710000Y-99525000D03*
D23*
X182210000Y-101000000D03*
D24*
X180710000Y-102475000D03*
%TD*%
D17*
%TO.C,R25*%
X169979999Y-106105000D03*
X169979999Y-107125000D03*
%TD*%
D32*
%TO.C,R29*%
X175900000Y-96012500D03*
X175900000Y-94187500D03*
%TD*%
D14*
%TO.C,C56*%
X140270001Y-117259813D03*
X139310001Y-117259813D03*
%TD*%
D33*
%TO.C,R32*%
X139881913Y-101037406D03*
X141706913Y-101037406D03*
%TD*%
D12*
%TO.C,C34*%
X161680000Y-107105000D03*
X161680000Y-106145000D03*
%TD*%
D25*
%TO.C,R13*%
X145589999Y-107400001D03*
X146609999Y-107400001D03*
%TD*%
D10*
%TO.C,C13*%
X174100000Y-99900000D03*
X172200000Y-99900000D03*
%TD*%
%TO.C,C42*%
X174100000Y-109950000D03*
X172200000Y-109950000D03*
%TD*%
D18*
%TO.C,C33*%
X161680000Y-116645000D03*
X161680000Y-117605000D03*
%TD*%
D10*
%TO.C,C41*%
X174100000Y-107900000D03*
X172200000Y-107900000D03*
%TD*%
D25*
%TO.C,R27*%
X139279999Y-118259813D03*
X140299999Y-118259813D03*
%TD*%
%TO.C,R28*%
X139280000Y-119259813D03*
X140300000Y-119259813D03*
%TD*%
D12*
%TO.C,C39*%
X162680000Y-107105000D03*
X162680000Y-106145000D03*
%TD*%
D25*
%TO.C,R24*%
X139279999Y-120274906D03*
X140299999Y-120274906D03*
%TD*%
D34*
%TO.C,RISO3*%
X138156913Y-101031332D03*
X136331913Y-101031332D03*
%TD*%
D32*
%TO.C,RISO1*%
X175900000Y-116062500D03*
X175900000Y-114237500D03*
%TD*%
D17*
%TO.C,R21*%
X145599999Y-118759812D03*
X145599999Y-119779812D03*
%TD*%
D21*
%TO.C,R33*%
X132990000Y-118759812D03*
X131970000Y-118759812D03*
%TD*%
%TO.C,R9*%
X139410000Y-105900000D03*
X138390000Y-105900000D03*
%TD*%
D13*
%TO.C,R16*%
X145099999Y-112579812D03*
X145099999Y-111559812D03*
%TD*%
D35*
%TO.C,C43*%
X145619999Y-105400001D03*
X146579999Y-105400001D03*
%TD*%
D26*
%TO.C,C31*%
X131300093Y-93674906D03*
X131300093Y-98599906D03*
%TD*%
D21*
%TO.C,R3*%
X139409999Y-104899906D03*
X138389999Y-104899906D03*
%TD*%
D13*
%TO.C,R15*%
X147099999Y-112569905D03*
X147099999Y-111549905D03*
%TD*%
D12*
%TO.C,C46*%
X132200000Y-106377407D03*
X132200000Y-105417407D03*
%TD*%
D36*
%TO.C,C62*%
X139612824Y-114154500D03*
X137703636Y-112245312D03*
%TD*%
D37*
%TO.C,C1*%
X152737500Y-99449906D03*
X157662500Y-99449906D03*
%TD*%
D32*
%TO.C,RISO4*%
X175900000Y-106062500D03*
X175900000Y-104237500D03*
%TD*%
D18*
%TO.C,C55*%
X144099999Y-111569812D03*
X144099999Y-112529812D03*
%TD*%
D38*
%TO.C,U6*%
X169640000Y-109400000D03*
X168370000Y-109400000D03*
X167100000Y-109400000D03*
X165830000Y-109400000D03*
X164560000Y-109400000D03*
X163290000Y-109400000D03*
X162020000Y-109400000D03*
X162020000Y-114350000D03*
X163290000Y-114350000D03*
X164560000Y-114350000D03*
X165830000Y-114350000D03*
X167100000Y-114350000D03*
X168370000Y-114350000D03*
X169640000Y-114350000D03*
%TD*%
D26*
%TO.C,C28*%
X139100094Y-93674906D03*
X139100094Y-98599906D03*
%TD*%
D10*
%TO.C,C38*%
X174100000Y-103800000D03*
X172200000Y-103800000D03*
%TD*%
D35*
%TO.C,C54*%
X138419999Y-107900000D03*
X139379999Y-107900000D03*
%TD*%
M02*
