%TF.GenerationSoftware,KiCad,Pcbnew,(6.0.5)*%
%TF.CreationDate,2022-11-19T18:23:49+08:00*%
%TF.ProjectId,EmoeNAP,456d6f65-4e41-4502-9e6b-696361645f70,rev?*%
%TF.SameCoordinates,Original*%
%TF.FileFunction,Soldermask,Top*%
%TF.FilePolarity,Negative*%
%FSLAX46Y46*%
G04 Gerber Fmt 4.6, Leading zero omitted, Abs format (unit mm)*
G04 Created by KiCad (PCBNEW (6.0.5)) date 2022-11-19 18:23:49*
%MOMM*%
%LPD*%
G01*
G04 APERTURE LIST*
G04 Aperture macros list*
%AMRoundRect*
0 Rectangle with rounded corners*
0 $1 Rounding radius*
0 $2 $3 $4 $5 $6 $7 $8 $9 X,Y pos of 4 corners*
0 Add a 4 corners polygon primitive as box body*
4,1,4,$2,$3,$4,$5,$6,$7,$8,$9,$2,$3,0*
0 Add four circle primitives for the rounded corners*
1,1,$1+$1,$2,$3*
1,1,$1+$1,$4,$5*
1,1,$1+$1,$6,$7*
1,1,$1+$1,$8,$9*
0 Add four rect primitives between the rounded corners*
20,1,$1+$1,$2,$3,$4,$5,0*
20,1,$1+$1,$4,$5,$6,$7,0*
20,1,$1+$1,$6,$7,$8,$9,0*
20,1,$1+$1,$8,$9,$2,$3,0*%
G04 Aperture macros list end*
%ADD10C,0.600000*%
%ADD11RoundRect,0.250000X0.250000X0.475000X-0.250000X0.475000X-0.250000X-0.475000X0.250000X-0.475000X0*%
%ADD12RoundRect,0.250000X-0.450000X0.262500X-0.450000X-0.262500X0.450000X-0.262500X0.450000X0.262500X0*%
%ADD13RoundRect,0.140000X0.170000X-0.140000X0.170000X0.140000X-0.170000X0.140000X-0.170000X-0.140000X0*%
%ADD14RoundRect,0.135000X0.185000X-0.135000X0.185000X0.135000X-0.185000X0.135000X-0.185000X-0.135000X0*%
%ADD15RoundRect,0.140000X-0.170000X0.140000X-0.170000X-0.140000X0.170000X-0.140000X0.170000X0.140000X0*%
%ADD16RoundRect,0.062500X0.062500X-0.425000X0.062500X0.425000X-0.062500X0.425000X-0.062500X-0.425000X0*%
%ADD17R,2.000000X1.200000*%
%ADD18RoundRect,0.135000X-0.135000X-0.185000X0.135000X-0.185000X0.135000X0.185000X-0.135000X0.185000X0*%
%ADD19RoundRect,0.135000X-0.185000X0.135000X-0.185000X-0.135000X0.185000X-0.135000X0.185000X0.135000X0*%
%ADD20RoundRect,0.135000X0.135000X0.185000X-0.135000X0.185000X-0.135000X-0.185000X0.135000X-0.185000X0*%
%ADD21RoundRect,0.062500X0.425000X0.062500X-0.425000X0.062500X-0.425000X-0.062500X0.425000X-0.062500X0*%
%ADD22R,1.200000X2.000000*%
%ADD23RoundRect,0.140000X-0.140000X-0.170000X0.140000X-0.170000X0.140000X0.170000X-0.140000X0.170000X0*%
%ADD24RoundRect,0.250000X-0.017678X-0.618718X0.618718X0.017678X0.017678X0.618718X-0.618718X-0.017678X0*%
%ADD25RoundRect,0.250000X-0.450000X-0.425000X0.450000X-0.425000X0.450000X0.425000X-0.450000X0.425000X0*%
%ADD26R,1.000000X1.000000*%
%ADD27R,2.200000X1.050000*%
%ADD28RoundRect,0.250000X-0.787500X-0.925000X0.787500X-0.925000X0.787500X0.925000X-0.787500X0.925000X0*%
%ADD29C,6.400000*%
%ADD30C,3.600000*%
%ADD31RoundRect,0.062500X-0.425000X-0.062500X0.425000X-0.062500X0.425000X0.062500X-0.425000X0.062500X0*%
%ADD32RoundRect,0.140000X0.140000X0.170000X-0.140000X0.170000X-0.140000X-0.170000X0.140000X-0.170000X0*%
%ADD33RoundRect,0.062500X-0.062500X0.425000X-0.062500X-0.425000X0.062500X-0.425000X0.062500X0.425000X0*%
%ADD34RoundRect,0.250000X-0.600000X-0.725000X0.600000X-0.725000X0.600000X0.725000X-0.600000X0.725000X0*%
%ADD35O,1.700000X1.950000*%
%ADD36C,1.500000*%
%ADD37C,2.000000*%
%ADD38RoundRect,0.250000X0.450000X-0.262500X0.450000X0.262500X-0.450000X0.262500X-0.450000X-0.262500X0*%
%ADD39C,1.000000*%
%ADD40RoundRect,0.250000X0.450000X0.425000X-0.450000X0.425000X-0.450000X-0.425000X0.450000X-0.425000X0*%
%ADD41C,1.440000*%
%ADD42RoundRect,0.250000X0.017678X0.618718X-0.618718X-0.017678X-0.017678X-0.618718X0.618718X0.017678X0*%
%ADD43RoundRect,0.150000X-0.150000X0.825000X-0.150000X-0.825000X0.150000X-0.825000X0.150000X0.825000X0*%
G04 APERTURE END LIST*
D10*
X118800000Y-104950000D02*
X113500000Y-104950000D01*
X127200000Y-117200000D02*
X118800000Y-117200000D01*
X130000000Y-97188528D02*
X130000000Y-116188528D01*
X118800000Y-109000000D02*
X113500000Y-109000000D01*
X113500000Y-109000000D02*
X113500000Y-104950000D01*
X118800000Y-109000000D02*
X118800000Y-117200000D01*
X127200000Y-103000000D02*
X130000000Y-103000000D01*
X149000000Y-116188528D02*
X149000000Y-97188528D01*
X127200000Y-117200000D02*
X127200000Y-111000000D01*
X127200000Y-96800000D02*
X118800000Y-96800000D01*
X130000000Y-116188528D02*
X149000000Y-116188528D01*
X130000000Y-111000000D02*
X127200000Y-111000000D01*
X118800000Y-104950000D02*
X118800000Y-96800000D01*
X127200000Y-103000000D02*
X127200000Y-96800000D01*
X130000000Y-97188528D02*
X149000000Y-97188528D01*
%TO.C,G\u002A\u002A\u002A*%
G36*
X113599939Y-100687849D02*
G01*
X113634840Y-100692284D01*
X113667524Y-100698807D01*
X113697615Y-100707293D01*
X113724733Y-100717619D01*
X113748501Y-100729662D01*
X113768540Y-100743297D01*
X113784474Y-100758402D01*
X113795566Y-100774187D01*
X113799358Y-100781617D01*
X113802222Y-100788695D01*
X113804241Y-100796207D01*
X113805493Y-100804938D01*
X113806061Y-100815672D01*
X113806025Y-100829195D01*
X113805465Y-100846291D01*
X113804695Y-100863045D01*
X113803953Y-100879108D01*
X113803373Y-100893536D01*
X113802979Y-100905564D01*
X113802795Y-100914426D01*
X113802845Y-100919357D01*
X113802932Y-100920048D01*
X113804657Y-100919484D01*
X113808417Y-100915556D01*
X113813476Y-100909058D01*
X113814731Y-100907305D01*
X113836554Y-100880120D01*
X113861183Y-100856246D01*
X113887962Y-100836259D01*
X113909271Y-100824062D01*
X113926803Y-100816015D01*
X113943155Y-100810299D01*
X113959804Y-100806594D01*
X113978231Y-100804581D01*
X113999914Y-100803941D01*
X114002500Y-100803940D01*
X114017429Y-100804061D01*
X114028650Y-100804452D01*
X114037456Y-100805271D01*
X114045138Y-100806673D01*
X114052986Y-100808815D01*
X114059076Y-100810773D01*
X114085666Y-100822223D01*
X114110225Y-100838167D01*
X114132646Y-100858483D01*
X114152820Y-100883048D01*
X114170638Y-100911740D01*
X114185994Y-100944438D01*
X114192331Y-100961160D01*
X114195811Y-100970896D01*
X114198671Y-100978656D01*
X114200513Y-100983372D01*
X114200952Y-100984286D01*
X114203281Y-100983403D01*
X114209420Y-100980537D01*
X114218738Y-100975998D01*
X114230603Y-100970095D01*
X114244382Y-100963140D01*
X114252709Y-100958896D01*
X114292310Y-100938889D01*
X114328124Y-100921362D01*
X114360608Y-100906153D01*
X114390221Y-100893101D01*
X114417419Y-100882042D01*
X114442661Y-100872816D01*
X114466404Y-100865260D01*
X114489106Y-100859212D01*
X114511224Y-100854511D01*
X114533216Y-100850993D01*
X114555540Y-100848498D01*
X114567221Y-100847565D01*
X114601173Y-100846435D01*
X114631620Y-100848150D01*
X114659239Y-100852811D01*
X114684705Y-100860519D01*
X114701250Y-100867607D01*
X114725083Y-100881196D01*
X114745674Y-100897609D01*
X114763372Y-100917267D01*
X114778531Y-100940593D01*
X114791500Y-100968009D01*
X114797014Y-100982641D01*
X114804377Y-101005861D01*
X114810231Y-101029568D01*
X114814680Y-101054573D01*
X114817833Y-101081687D01*
X114819797Y-101111719D01*
X114820678Y-101145482D01*
X114820749Y-101162500D01*
X114820625Y-101183454D01*
X114820288Y-101203187D01*
X114819686Y-101222212D01*
X114818767Y-101241045D01*
X114817477Y-101260198D01*
X114815764Y-101280186D01*
X114813575Y-101301525D01*
X114810859Y-101324726D01*
X114807562Y-101350306D01*
X114803631Y-101378778D01*
X114799015Y-101410656D01*
X114793661Y-101446455D01*
X114787776Y-101485000D01*
X114785588Y-101499588D01*
X114783775Y-101512401D01*
X114782437Y-101522650D01*
X114781679Y-101529549D01*
X114781601Y-101532310D01*
X114781606Y-101532316D01*
X114784144Y-101531906D01*
X114790934Y-101530260D01*
X114801424Y-101527528D01*
X114815063Y-101523857D01*
X114831298Y-101519396D01*
X114849578Y-101514294D01*
X114866549Y-101509495D01*
X114950549Y-101485606D01*
X114968399Y-101502113D01*
X114976107Y-101509213D01*
X114982337Y-101514900D01*
X114986251Y-101518412D01*
X114987141Y-101519159D01*
X114986911Y-101521670D01*
X114985810Y-101528565D01*
X114983938Y-101539325D01*
X114981394Y-101553430D01*
X114978279Y-101570360D01*
X114974692Y-101589594D01*
X114970734Y-101610613D01*
X114966504Y-101632897D01*
X114962103Y-101655926D01*
X114957630Y-101679179D01*
X114953185Y-101702137D01*
X114948869Y-101724280D01*
X114944781Y-101745088D01*
X114941021Y-101764041D01*
X114937690Y-101780618D01*
X114934887Y-101794300D01*
X114932712Y-101804567D01*
X114931265Y-101810899D01*
X114930690Y-101812792D01*
X114928063Y-101813938D01*
X114921224Y-101816558D01*
X114910680Y-101820472D01*
X114896935Y-101825500D01*
X114880496Y-101831463D01*
X114861871Y-101838179D01*
X114841563Y-101845470D01*
X114820081Y-101853155D01*
X114797929Y-101861053D01*
X114775615Y-101868986D01*
X114753644Y-101876772D01*
X114732522Y-101884232D01*
X114712756Y-101891186D01*
X114694852Y-101897454D01*
X114679315Y-101902856D01*
X114666653Y-101907211D01*
X114657372Y-101910340D01*
X114651976Y-101912062D01*
X114650811Y-101912345D01*
X114648143Y-101910751D01*
X114642622Y-101906584D01*
X114635167Y-101900556D01*
X114629871Y-101896105D01*
X114610992Y-101880020D01*
X114626833Y-101793135D01*
X114638599Y-101728209D01*
X114649368Y-101667921D01*
X114659174Y-101612017D01*
X114668052Y-101560242D01*
X114676035Y-101512341D01*
X114683157Y-101468062D01*
X114689452Y-101427148D01*
X114694955Y-101389345D01*
X114699699Y-101354400D01*
X114703718Y-101322057D01*
X114707046Y-101292063D01*
X114709717Y-101264161D01*
X114711765Y-101238100D01*
X114713224Y-101213623D01*
X114714129Y-101190476D01*
X114714513Y-101168405D01*
X114714409Y-101147156D01*
X114714237Y-101138750D01*
X114712595Y-101102709D01*
X114709527Y-101071245D01*
X114704950Y-101044117D01*
X114698782Y-101021087D01*
X114690940Y-101001913D01*
X114681343Y-100986357D01*
X114669907Y-100974178D01*
X114656550Y-100965138D01*
X114654151Y-100963929D01*
X114634230Y-100956933D01*
X114610785Y-100953435D01*
X114583860Y-100953428D01*
X114553496Y-100956906D01*
X114519738Y-100963862D01*
X114482627Y-100974290D01*
X114442207Y-100988182D01*
X114407500Y-101001794D01*
X114395307Y-101006882D01*
X114384681Y-101011442D01*
X114376526Y-101015077D01*
X114371746Y-101017389D01*
X114370988Y-101017850D01*
X114370568Y-101019837D01*
X114370168Y-101025212D01*
X114369786Y-101034100D01*
X114369420Y-101046627D01*
X114369069Y-101062919D01*
X114368732Y-101083103D01*
X114368407Y-101107303D01*
X114368091Y-101135647D01*
X114367785Y-101168259D01*
X114367485Y-101205268D01*
X114367191Y-101246797D01*
X114366901Y-101292974D01*
X114366613Y-101343924D01*
X114366384Y-101388129D01*
X114366165Y-101430626D01*
X114365941Y-101471748D01*
X114365714Y-101511218D01*
X114365486Y-101548758D01*
X114365259Y-101584093D01*
X114365036Y-101616945D01*
X114364818Y-101647038D01*
X114364607Y-101674094D01*
X114364406Y-101697838D01*
X114364216Y-101717992D01*
X114364040Y-101734279D01*
X114363880Y-101746423D01*
X114363738Y-101754147D01*
X114363615Y-101757174D01*
X114363605Y-101757207D01*
X114361044Y-101758310D01*
X114354343Y-101760873D01*
X114344075Y-101764690D01*
X114330813Y-101769555D01*
X114315131Y-101775262D01*
X114297604Y-101781607D01*
X114278804Y-101788383D01*
X114259305Y-101795386D01*
X114239682Y-101802409D01*
X114220508Y-101809247D01*
X114202356Y-101815694D01*
X114185801Y-101821545D01*
X114171416Y-101826595D01*
X114159774Y-101830637D01*
X114151450Y-101833467D01*
X114147018Y-101834878D01*
X114146473Y-101835000D01*
X114143304Y-101833614D01*
X114137169Y-101829893D01*
X114129109Y-101824491D01*
X114124191Y-101821010D01*
X114104793Y-101807021D01*
X114106273Y-101746635D01*
X114106702Y-101728076D01*
X114107176Y-101705695D01*
X114107687Y-101679961D01*
X114108228Y-101651343D01*
X114108791Y-101620312D01*
X114109370Y-101587335D01*
X114109957Y-101552882D01*
X114110545Y-101517423D01*
X114111126Y-101481427D01*
X114111693Y-101445362D01*
X114112239Y-101409699D01*
X114112757Y-101374907D01*
X114113239Y-101341453D01*
X114113678Y-101309809D01*
X114114066Y-101280443D01*
X114114397Y-101253825D01*
X114114663Y-101230423D01*
X114114857Y-101210707D01*
X114114971Y-101195147D01*
X114115000Y-101186019D01*
X114114850Y-101159331D01*
X114114342Y-101136578D01*
X114113392Y-101116699D01*
X114111911Y-101098637D01*
X114109814Y-101081333D01*
X114107014Y-101063729D01*
X114103524Y-101045258D01*
X114095021Y-101010727D01*
X114084182Y-100980363D01*
X114071053Y-100954271D01*
X114055680Y-100932561D01*
X114055356Y-100932180D01*
X114042371Y-100920543D01*
X114027109Y-100912986D01*
X114010117Y-100909461D01*
X113991940Y-100909922D01*
X113973125Y-100914320D01*
X113954219Y-100922609D01*
X113935768Y-100934741D01*
X113925662Y-100943360D01*
X113904101Y-100966333D01*
X113883672Y-100993883D01*
X113864505Y-101025692D01*
X113846730Y-101061438D01*
X113830480Y-101100801D01*
X113815883Y-101143461D01*
X113803072Y-101189096D01*
X113792177Y-101237387D01*
X113783328Y-101288014D01*
X113782318Y-101294861D01*
X113781124Y-101304854D01*
X113779781Y-101319320D01*
X113778286Y-101338323D01*
X113776634Y-101361932D01*
X113774821Y-101390212D01*
X113772843Y-101423232D01*
X113770696Y-101461058D01*
X113768374Y-101503757D01*
X113766270Y-101543750D01*
X113764593Y-101576053D01*
X113762992Y-101606900D01*
X113761484Y-101635927D01*
X113760088Y-101662774D01*
X113758825Y-101687079D01*
X113757712Y-101708480D01*
X113756768Y-101726616D01*
X113756012Y-101741124D01*
X113755462Y-101751644D01*
X113755139Y-101757814D01*
X113755055Y-101759375D01*
X113752698Y-101759788D01*
X113746465Y-101759993D01*
X113737478Y-101760008D01*
X113726855Y-101759852D01*
X113715717Y-101759544D01*
X113705183Y-101759102D01*
X113696373Y-101758544D01*
X113694361Y-101758369D01*
X113677473Y-101756774D01*
X113663917Y-101741334D01*
X113650361Y-101725893D01*
X113667830Y-101423571D01*
X113670955Y-101369053D01*
X113673744Y-101319501D01*
X113676197Y-101274891D01*
X113678315Y-101235200D01*
X113680100Y-101200406D01*
X113681553Y-101170486D01*
X113682674Y-101145416D01*
X113683465Y-101125173D01*
X113683928Y-101109735D01*
X113684063Y-101099078D01*
X113683967Y-101094543D01*
X113681277Y-101065659D01*
X113676209Y-101041048D01*
X113668616Y-101020506D01*
X113658352Y-101003832D01*
X113645271Y-100990823D01*
X113629228Y-100981276D01*
X113610075Y-100974990D01*
X113595772Y-100972543D01*
X113582665Y-100971179D01*
X113565431Y-100969718D01*
X113544943Y-100968220D01*
X113522072Y-100966741D01*
X113497689Y-100965339D01*
X113472665Y-100964073D01*
X113459375Y-100963474D01*
X113420000Y-100961779D01*
X113420000Y-100831037D01*
X113420042Y-100804164D01*
X113420164Y-100779459D01*
X113420360Y-100757317D01*
X113420623Y-100738138D01*
X113420945Y-100722317D01*
X113421320Y-100710251D01*
X113421741Y-100702339D01*
X113422201Y-100698977D01*
X113422264Y-100698895D01*
X113427237Y-100697132D01*
X113436295Y-100695170D01*
X113448530Y-100693124D01*
X113463039Y-100691112D01*
X113478915Y-100689248D01*
X113495252Y-100687649D01*
X113511144Y-100686431D01*
X113525000Y-100685733D01*
X113563199Y-100685624D01*
X113599939Y-100687849D01*
G37*
G36*
X116276896Y-101069205D02*
G01*
X116297050Y-101032994D01*
X116306183Y-101018827D01*
X116331290Y-100984761D01*
X116357946Y-100955282D01*
X116386564Y-100930108D01*
X116417558Y-100908956D01*
X116451341Y-100891545D01*
X116488324Y-100877593D01*
X116528489Y-100866912D01*
X116536971Y-100865161D01*
X116544976Y-100863818D01*
X116553353Y-100862831D01*
X116562948Y-100862146D01*
X116574609Y-100861711D01*
X116589184Y-100861473D01*
X116607519Y-100861380D01*
X116617500Y-100861370D01*
X116637408Y-100861396D01*
X116653215Y-100861523D01*
X116665820Y-100861814D01*
X116676121Y-100862335D01*
X116685018Y-100863150D01*
X116693409Y-100864324D01*
X116702193Y-100865922D01*
X116712268Y-100868008D01*
X116713556Y-100868283D01*
X116756771Y-100879916D01*
X116797174Y-100895676D01*
X116834704Y-100915517D01*
X116869300Y-100939390D01*
X116900902Y-100967251D01*
X116929450Y-100999051D01*
X116954884Y-101034744D01*
X116976254Y-101072509D01*
X116990333Y-101103746D01*
X117001922Y-101136851D01*
X117011304Y-101172759D01*
X117018758Y-101212403D01*
X117019162Y-101215000D01*
X117021248Y-101232961D01*
X117022695Y-101254811D01*
X117023518Y-101279485D01*
X117023734Y-101305913D01*
X117023360Y-101333028D01*
X117022412Y-101359765D01*
X117020906Y-101385054D01*
X117018858Y-101407829D01*
X117016285Y-101427023D01*
X117015882Y-101429375D01*
X117014443Y-101437500D01*
X116327500Y-101437500D01*
X116327545Y-101445625D01*
X116328065Y-101453977D01*
X116329433Y-101466028D01*
X116331471Y-101480582D01*
X116333997Y-101496443D01*
X116336831Y-101512418D01*
X116339792Y-101527312D01*
X116340100Y-101528750D01*
X116351337Y-101571767D01*
X116365714Y-101611029D01*
X116383308Y-101646601D01*
X116404195Y-101678546D01*
X116428449Y-101706927D01*
X116456147Y-101731809D01*
X116487364Y-101753255D01*
X116522176Y-101771330D01*
X116560659Y-101786097D01*
X116602889Y-101797620D01*
X116648941Y-101805962D01*
X116672318Y-101808845D01*
X116711015Y-101811782D01*
X116752018Y-101812759D01*
X116794141Y-101811851D01*
X116836196Y-101809135D01*
X116876997Y-101804684D01*
X116915356Y-101798576D01*
X116948750Y-101791231D01*
X116978899Y-101782477D01*
X117005267Y-101772524D01*
X117029023Y-101760874D01*
X117049570Y-101748231D01*
X117059033Y-101742036D01*
X117067015Y-101737206D01*
X117072608Y-101734263D01*
X117074841Y-101733652D01*
X117076926Y-101736011D01*
X117081347Y-101741690D01*
X117087537Y-101749938D01*
X117094927Y-101760005D01*
X117098321Y-101764690D01*
X117119850Y-101794522D01*
X117116185Y-101815368D01*
X117114538Y-101824295D01*
X117112740Y-101831043D01*
X117110095Y-101836320D01*
X117105905Y-101840834D01*
X117099476Y-101845292D01*
X117090111Y-101850404D01*
X117077114Y-101856876D01*
X117073750Y-101858527D01*
X117031309Y-101876909D01*
X116985267Y-101892224D01*
X116936054Y-101904361D01*
X116884100Y-101913209D01*
X116845000Y-101917501D01*
X116833013Y-101918251D01*
X116817195Y-101918832D01*
X116798467Y-101919247D01*
X116777750Y-101919498D01*
X116755965Y-101919585D01*
X116734034Y-101919512D01*
X116712877Y-101919279D01*
X116693416Y-101918888D01*
X116676572Y-101918341D01*
X116663267Y-101917639D01*
X116657500Y-101917159D01*
X116604874Y-101909801D01*
X116555416Y-101898853D01*
X116509205Y-101884357D01*
X116466321Y-101866358D01*
X116426845Y-101844897D01*
X116390856Y-101820017D01*
X116358434Y-101791761D01*
X116329660Y-101760173D01*
X116307834Y-101730283D01*
X116288225Y-101698281D01*
X116271460Y-101666092D01*
X116257321Y-101633021D01*
X116245591Y-101598372D01*
X116236054Y-101561450D01*
X116228493Y-101521562D01*
X116222691Y-101478012D01*
X116219819Y-101448113D01*
X116218563Y-101427746D01*
X116217852Y-101404120D01*
X116217658Y-101378317D01*
X116217954Y-101351418D01*
X116218713Y-101324504D01*
X116219909Y-101298655D01*
X116221514Y-101274954D01*
X116223500Y-101254480D01*
X116224932Y-101243750D01*
X116233974Y-101194694D01*
X116245532Y-101149573D01*
X116249524Y-101137900D01*
X116362500Y-101137900D01*
X116364945Y-101138186D01*
X116372064Y-101138461D01*
X116383529Y-101138722D01*
X116399014Y-101138965D01*
X116418193Y-101139190D01*
X116440738Y-101139392D01*
X116466322Y-101139570D01*
X116494620Y-101139721D01*
X116525303Y-101139842D01*
X116558047Y-101139930D01*
X116592523Y-101139984D01*
X116624872Y-101140000D01*
X116887244Y-101140000D01*
X116883340Y-101130625D01*
X116868944Y-101101850D01*
X116850490Y-101074264D01*
X116828842Y-101048948D01*
X116804862Y-101026989D01*
X116794860Y-101019423D01*
X116766798Y-101002236D01*
X116736111Y-100988471D01*
X116703439Y-100978138D01*
X116669424Y-100971250D01*
X116634705Y-100967817D01*
X116599923Y-100967851D01*
X116565719Y-100971363D01*
X116532733Y-100978364D01*
X116501607Y-100988867D01*
X116472979Y-101002881D01*
X116456641Y-101013429D01*
X116445467Y-101022346D01*
X116432776Y-101033911D01*
X116419821Y-101046852D01*
X116407854Y-101059894D01*
X116398126Y-101071766D01*
X116395011Y-101076094D01*
X116390887Y-101082654D01*
X116385714Y-101091595D01*
X116380030Y-101101898D01*
X116374372Y-101112541D01*
X116369274Y-101122506D01*
X116365275Y-101130772D01*
X116362911Y-101136319D01*
X116362500Y-101137900D01*
X116249524Y-101137900D01*
X116259781Y-101107904D01*
X116276896Y-101069205D01*
G37*
G36*
X115899161Y-100285915D02*
G01*
X115899054Y-100246052D01*
X115899009Y-100225486D01*
X116150404Y-100225486D01*
X116150528Y-100236227D01*
X116150777Y-100243636D01*
X116151122Y-100246818D01*
X116152293Y-100247572D01*
X116155416Y-100248194D01*
X116160852Y-100248691D01*
X116168961Y-100249070D01*
X116180106Y-100249339D01*
X116194648Y-100249506D01*
X116212947Y-100249577D01*
X116235365Y-100249560D01*
X116262263Y-100249464D01*
X116275555Y-100249398D01*
X116398750Y-100248750D01*
X116399463Y-100224535D01*
X116400177Y-100200320D01*
X116443775Y-100199535D01*
X116459575Y-100199218D01*
X116471161Y-100198854D01*
X116479320Y-100198339D01*
X116484839Y-100197569D01*
X116488503Y-100196442D01*
X116491100Y-100194854D01*
X116493061Y-100193058D01*
X116496120Y-100189270D01*
X116497852Y-100184612D01*
X116498609Y-100177614D01*
X116498750Y-100169308D01*
X116498750Y-100151250D01*
X116151250Y-100151250D01*
X116150566Y-100197419D01*
X116150413Y-100212265D01*
X116150404Y-100225486D01*
X115899009Y-100225486D01*
X115898961Y-100203749D01*
X115898884Y-100159240D01*
X115898824Y-100112757D01*
X115898781Y-100064533D01*
X115898756Y-100014800D01*
X115898750Y-99974706D01*
X115898750Y-99957474D01*
X116000365Y-99957474D01*
X116000499Y-99979124D01*
X116000580Y-99986720D01*
X116001250Y-100048750D01*
X116025625Y-100049465D01*
X116050000Y-100050181D01*
X116050000Y-100073423D01*
X116050172Y-100083757D01*
X116050633Y-100092125D01*
X116051302Y-100097322D01*
X116051699Y-100098366D01*
X116054379Y-100098590D01*
X116061731Y-100098793D01*
X116073431Y-100098974D01*
X116089150Y-100099132D01*
X116108563Y-100099266D01*
X116131342Y-100099373D01*
X116157162Y-100099454D01*
X116185695Y-100099506D01*
X116216615Y-100099529D01*
X116249596Y-100099521D01*
X116284310Y-100099481D01*
X116320380Y-100099408D01*
X116587361Y-100098750D01*
X116593008Y-100093103D01*
X116596116Y-100089089D01*
X116598036Y-100083771D01*
X116599147Y-100075742D01*
X116599600Y-100068728D01*
X116600546Y-100050000D01*
X116621344Y-100050000D01*
X116632869Y-100049718D01*
X116640405Y-100048767D01*
X116644937Y-100046990D01*
X116646109Y-100046032D01*
X116647282Y-100044342D01*
X116648187Y-100041527D01*
X116648849Y-100037028D01*
X116649294Y-100030282D01*
X116649546Y-100020732D01*
X116649630Y-100007815D01*
X116649571Y-99990971D01*
X116649413Y-99971657D01*
X116649117Y-99940257D01*
X116700424Y-99940257D01*
X116700462Y-99956616D01*
X116700801Y-99969165D01*
X116701533Y-99978499D01*
X116702749Y-99985214D01*
X116704542Y-99989904D01*
X116707004Y-99993164D01*
X116710225Y-99995589D01*
X116712549Y-99996883D01*
X116717613Y-99998182D01*
X116726277Y-99999068D01*
X116737445Y-99999560D01*
X116750022Y-99999676D01*
X116762913Y-99999435D01*
X116775021Y-99998854D01*
X116785250Y-99997951D01*
X116792507Y-99996745D01*
X116795507Y-99995507D01*
X116796971Y-99991610D01*
X116798164Y-99983864D01*
X116799049Y-99973413D01*
X116799593Y-99961401D01*
X116799761Y-99948973D01*
X116799519Y-99937272D01*
X116798833Y-99927445D01*
X116797747Y-99920917D01*
X116794805Y-99911742D01*
X116791195Y-99905922D01*
X116785743Y-99902619D01*
X116777278Y-99900995D01*
X116769079Y-99900416D01*
X116759456Y-99899772D01*
X116753105Y-99898407D01*
X116749404Y-99895443D01*
X116747730Y-99889997D01*
X116747463Y-99881189D01*
X116747878Y-99870377D01*
X116748750Y-99851250D01*
X116728244Y-99851250D01*
X116715516Y-99851701D01*
X116707370Y-99853038D01*
X116704494Y-99854495D01*
X116703400Y-99856889D01*
X116702521Y-99861955D01*
X116701830Y-99870153D01*
X116701300Y-99881942D01*
X116700902Y-99897783D01*
X116700610Y-99918136D01*
X116700596Y-99919495D01*
X116700424Y-99940257D01*
X116649117Y-99940257D01*
X116648750Y-99901250D01*
X116574465Y-99900587D01*
X116500180Y-99899925D01*
X116499465Y-99875587D01*
X116498750Y-99851250D01*
X116480620Y-99850515D01*
X116470940Y-99850290D01*
X116464749Y-99850807D01*
X116460554Y-99852404D01*
X116456862Y-99855417D01*
X116456245Y-99856026D01*
X116452990Y-99859835D01*
X116451105Y-99864109D01*
X116450230Y-99870307D01*
X116450001Y-99879889D01*
X116450000Y-99881136D01*
X116450000Y-99900000D01*
X116350619Y-99900000D01*
X116349110Y-99886875D01*
X116347788Y-99876522D01*
X116346242Y-99865964D01*
X116345675Y-99862500D01*
X116343750Y-99851250D01*
X116322197Y-99850532D01*
X116300645Y-99849814D01*
X116299435Y-99830964D01*
X116297991Y-99818338D01*
X116295130Y-99809805D01*
X116290178Y-99804518D01*
X116282464Y-99801625D01*
X116275395Y-99800602D01*
X116267370Y-99800207D01*
X116262165Y-99801352D01*
X116257694Y-99804612D01*
X116256436Y-99805836D01*
X116253089Y-99809701D01*
X116251151Y-99813927D01*
X116250247Y-99819984D01*
X116250002Y-99829342D01*
X116250000Y-99831136D01*
X116250000Y-99850000D01*
X116200000Y-99850000D01*
X116199987Y-99833125D01*
X116198977Y-99819739D01*
X116195659Y-99810378D01*
X116189567Y-99804421D01*
X116180235Y-99801244D01*
X116175665Y-99800628D01*
X116167580Y-99800203D01*
X116162367Y-99801256D01*
X116157986Y-99804339D01*
X116156436Y-99805836D01*
X116153068Y-99809735D01*
X116151127Y-99814006D01*
X116150233Y-99820136D01*
X116150001Y-99829614D01*
X116150000Y-99830879D01*
X116150000Y-99849486D01*
X116128873Y-99850368D01*
X116117262Y-99851237D01*
X116108837Y-99852664D01*
X116104501Y-99854496D01*
X116104498Y-99854498D01*
X116102666Y-99858829D01*
X116101238Y-99867250D01*
X116100369Y-99878857D01*
X116100368Y-99878873D01*
X116099486Y-99900000D01*
X116061996Y-99900000D01*
X116045398Y-99900056D01*
X116032047Y-99900551D01*
X116021597Y-99901975D01*
X116013700Y-99904818D01*
X116008009Y-99909571D01*
X116004177Y-99916723D01*
X116001857Y-99926764D01*
X116000702Y-99940185D01*
X116000365Y-99957474D01*
X115898750Y-99957474D01*
X115898750Y-99734344D01*
X116000000Y-99734344D01*
X116000037Y-99757577D01*
X116000143Y-99779263D01*
X116000310Y-99798891D01*
X116000532Y-99815953D01*
X116000799Y-99829938D01*
X116001105Y-99840337D01*
X116001442Y-99846641D01*
X116001719Y-99848385D01*
X116004645Y-99848888D01*
X116011767Y-99849261D01*
X116022281Y-99849489D01*
X116035382Y-99849553D01*
X116050268Y-99849438D01*
X116051094Y-99849427D01*
X116098750Y-99848750D01*
X116099461Y-99824680D01*
X116100173Y-99800611D01*
X116109507Y-99799118D01*
X116118706Y-99798500D01*
X116127867Y-99799091D01*
X116127986Y-99799110D01*
X116135100Y-99799464D01*
X116140399Y-99797025D01*
X116143566Y-99794160D01*
X116150000Y-99787727D01*
X116150000Y-99600000D01*
X116199826Y-99600000D01*
X116200538Y-99693968D01*
X116201250Y-99787937D01*
X116208264Y-99793968D01*
X116216860Y-99798583D01*
X116227078Y-99800124D01*
X116236935Y-99798509D01*
X116242627Y-99795399D01*
X116248308Y-99790799D01*
X116247732Y-99717156D01*
X116247643Y-99697174D01*
X116247681Y-99677685D01*
X116247834Y-99659573D01*
X116248092Y-99643723D01*
X116248443Y-99631018D01*
X116248876Y-99622344D01*
X116248922Y-99621756D01*
X116250687Y-99600000D01*
X116299826Y-99600000D01*
X116300538Y-99693968D01*
X116301250Y-99787937D01*
X116308264Y-99793968D01*
X116312919Y-99797297D01*
X116318192Y-99799136D01*
X116325729Y-99799894D01*
X116332639Y-99800000D01*
X116350000Y-99800000D01*
X116350000Y-99819522D01*
X116350064Y-99829642D01*
X116350700Y-99837105D01*
X116352571Y-99842331D01*
X116356341Y-99845743D01*
X116362671Y-99847762D01*
X116372227Y-99848810D01*
X116385670Y-99849308D01*
X116397235Y-99849546D01*
X116412228Y-99849823D01*
X116423056Y-99849901D01*
X116430553Y-99849680D01*
X116435551Y-99849061D01*
X116438885Y-99847946D01*
X116441388Y-99846236D01*
X116443692Y-99844034D01*
X116450000Y-99837727D01*
X116450000Y-99700000D01*
X116499925Y-99700000D01*
X116500587Y-99774375D01*
X116501250Y-99848750D01*
X116648750Y-99848750D01*
X116648750Y-99601250D01*
X116624464Y-99600535D01*
X116600178Y-99599821D01*
X116599464Y-99575535D01*
X116598750Y-99551250D01*
X116051250Y-99551250D01*
X116049818Y-99600000D01*
X116037162Y-99600000D01*
X116022907Y-99601736D01*
X116011745Y-99606793D01*
X116004265Y-99614801D01*
X116003245Y-99616903D01*
X116002400Y-99619745D01*
X116001714Y-99623782D01*
X116001171Y-99629467D01*
X116000754Y-99637254D01*
X116000448Y-99647599D01*
X116000236Y-99660955D01*
X116000101Y-99677776D01*
X116000029Y-99698518D01*
X116000001Y-99723633D01*
X116000000Y-99734344D01*
X115898750Y-99734344D01*
X115898750Y-99452328D01*
X115853750Y-99453750D01*
X115851232Y-100533750D01*
X115850000Y-99455000D01*
X115700000Y-99455000D01*
X115700000Y-100249341D01*
X115689375Y-100251132D01*
X115680400Y-100252630D01*
X115671907Y-100254026D01*
X115670609Y-100254236D01*
X115658451Y-100254533D01*
X115647465Y-100251767D01*
X115640438Y-100247371D01*
X115638520Y-100245354D01*
X115637116Y-100242905D01*
X115636144Y-100239273D01*
X115635527Y-100233710D01*
X115635183Y-100225467D01*
X115635034Y-100213794D01*
X115635000Y-100197944D01*
X115634999Y-100196152D01*
X115635000Y-100150000D01*
X115600000Y-100150000D01*
X115600000Y-100082307D01*
X115599999Y-100014615D01*
X115592692Y-100007307D01*
X115588363Y-100003428D01*
X115584059Y-100001231D01*
X115578170Y-100000245D01*
X115569090Y-100000001D01*
X115567692Y-100000000D01*
X115550000Y-100000000D01*
X115550000Y-99949962D01*
X115549999Y-99899925D01*
X115475625Y-99900587D01*
X115401250Y-99901250D01*
X115400563Y-99941730D01*
X115399877Y-99982210D01*
X115408651Y-99990985D01*
X115414137Y-99995955D01*
X115419237Y-99998711D01*
X115425913Y-100000018D01*
X115433088Y-100000504D01*
X115448750Y-100001250D01*
X115451250Y-100098750D01*
X115468045Y-100099487D01*
X115477556Y-100100163D01*
X115483805Y-100101556D01*
X115488526Y-100104257D01*
X115492379Y-100107764D01*
X115499918Y-100115303D01*
X115500584Y-100182026D01*
X115501250Y-100248750D01*
X115548750Y-100251250D01*
X115548750Y-100398750D01*
X115483100Y-100399416D01*
X115462839Y-100399587D01*
X115446974Y-100399620D01*
X115434903Y-100399489D01*
X115426023Y-100399163D01*
X115419731Y-100398617D01*
X115415424Y-100397821D01*
X115412500Y-100396747D01*
X115411335Y-100396076D01*
X115406131Y-100393688D01*
X115402609Y-100393682D01*
X115401438Y-100396850D01*
X115400572Y-100404219D01*
X115400083Y-100414995D01*
X115400000Y-100422647D01*
X115400000Y-100450000D01*
X115450000Y-100450000D01*
X115450000Y-100500000D01*
X115560238Y-100500000D01*
X115566369Y-100493384D01*
X115570433Y-100488502D01*
X115572451Y-100485103D01*
X115572500Y-100484803D01*
X115574720Y-100482076D01*
X115581122Y-100481371D01*
X115591314Y-100482683D01*
X115601566Y-100485084D01*
X115612924Y-100487655D01*
X115622647Y-100488978D01*
X115628933Y-100488880D01*
X115638298Y-100484751D01*
X115645435Y-100476985D01*
X115648759Y-100468750D01*
X115650941Y-100461147D01*
X115653199Y-100455470D01*
X115654715Y-100449409D01*
X115653005Y-100444879D01*
X115650181Y-100436378D01*
X115650099Y-100425882D01*
X115652570Y-100415445D01*
X115656377Y-100408360D01*
X115660426Y-100403596D01*
X115664413Y-100401096D01*
X115670139Y-100400140D01*
X115677239Y-100400000D01*
X115683540Y-100400005D01*
X115688556Y-100400362D01*
X115692435Y-100401581D01*
X115695322Y-100404173D01*
X115697363Y-100408649D01*
X115698705Y-100415520D01*
X115699494Y-100425297D01*
X115699875Y-100438490D01*
X115699995Y-100455610D01*
X115700000Y-100477169D01*
X115700000Y-100550000D01*
X114549818Y-100550000D01*
X114551250Y-100501250D01*
X114575630Y-100500534D01*
X114600011Y-100499818D01*
X114599708Y-100247882D01*
X114700000Y-100247882D01*
X114749375Y-100246318D01*
X114782839Y-100245406D01*
X114812317Y-100244908D01*
X114837665Y-100244823D01*
X114858743Y-100245144D01*
X114875407Y-100245869D01*
X114887516Y-100246993D01*
X114894927Y-100248513D01*
X114897498Y-100250424D01*
X114897500Y-100250468D01*
X114899050Y-100251661D01*
X114900000Y-100251250D01*
X114901302Y-100252747D01*
X114902147Y-100258887D01*
X114902493Y-100269329D01*
X114902500Y-100271250D01*
X114902256Y-100281235D01*
X114901588Y-100288215D01*
X114900595Y-100291341D01*
X114900200Y-100291373D01*
X114897259Y-100292125D01*
X114893243Y-100295879D01*
X114892965Y-100296226D01*
X114889971Y-100299451D01*
X114886403Y-100301334D01*
X114880910Y-100302230D01*
X114872139Y-100302492D01*
X114869015Y-100302500D01*
X114850000Y-100302500D01*
X114850000Y-100349583D01*
X114850088Y-100364452D01*
X114850335Y-100377578D01*
X114850711Y-100388151D01*
X114851186Y-100395361D01*
X114851733Y-100398399D01*
X114851746Y-100398412D01*
X114855127Y-100399339D01*
X114862041Y-100399773D01*
X114871221Y-100399776D01*
X114881399Y-100399409D01*
X114891031Y-100398750D01*
X114910000Y-100398750D01*
X114911250Y-100400000D01*
X114912500Y-100398750D01*
X114911250Y-100397500D01*
X114910000Y-100398750D01*
X114891031Y-100398750D01*
X114891309Y-100398731D01*
X114899684Y-100397803D01*
X114905256Y-100396686D01*
X114906827Y-100395781D01*
X114905943Y-100392045D01*
X114902656Y-100387656D01*
X114900451Y-100384989D01*
X114898978Y-100381570D01*
X114898092Y-100376413D01*
X114897649Y-100368534D01*
X114897506Y-100356949D01*
X114897505Y-100356250D01*
X115147500Y-100356250D01*
X115147864Y-100364743D01*
X115148814Y-100371097D01*
X115150000Y-100373750D01*
X115151479Y-100376968D01*
X115152376Y-100383363D01*
X115152500Y-100387099D01*
X115152500Y-100398904D01*
X115170274Y-100399630D01*
X115180015Y-100399820D01*
X115186288Y-100399208D01*
X115190598Y-100397483D01*
X115194024Y-100394742D01*
X115196185Y-100392543D01*
X115197750Y-100390103D01*
X115198165Y-100388750D01*
X115400000Y-100388750D01*
X115401250Y-100390000D01*
X115402500Y-100388750D01*
X115401250Y-100387500D01*
X115400000Y-100388750D01*
X115198165Y-100388750D01*
X115198815Y-100386634D01*
X115199476Y-100381351D01*
X115199830Y-100373468D01*
X115199973Y-100362199D01*
X115199999Y-100346757D01*
X115200000Y-100345814D01*
X115199909Y-100329205D01*
X115199614Y-100317074D01*
X115199076Y-100308902D01*
X115198258Y-100304170D01*
X115197123Y-100302359D01*
X115196875Y-100302303D01*
X115190082Y-100302154D01*
X115181094Y-100302306D01*
X115171587Y-100302687D01*
X115163235Y-100303225D01*
X115157715Y-100303846D01*
X115156875Y-100304034D01*
X115154415Y-100305681D01*
X115153068Y-100309527D01*
X115152544Y-100316712D01*
X115152500Y-100321270D01*
X115152135Y-100329759D01*
X115151183Y-100336106D01*
X115150000Y-100338750D01*
X115148704Y-100341876D01*
X115147800Y-100348499D01*
X115147500Y-100356250D01*
X114897505Y-100356250D01*
X114897500Y-100352402D01*
X114897500Y-100322304D01*
X114908052Y-100311777D01*
X114910893Y-100308750D01*
X115100000Y-100308750D01*
X115100226Y-100314537D01*
X115100783Y-100317425D01*
X115100900Y-100317500D01*
X115103069Y-100315937D01*
X115107634Y-100311939D01*
X115111078Y-100308750D01*
X115120356Y-100300000D01*
X115110178Y-100300000D01*
X115103701Y-100300251D01*
X115100794Y-100301825D01*
X115100027Y-100305951D01*
X115100000Y-100308750D01*
X114910893Y-100308750D01*
X114913582Y-100305885D01*
X114914939Y-100304165D01*
X114945281Y-100304165D01*
X114947232Y-100305000D01*
X114949983Y-100303016D01*
X114950855Y-100301377D01*
X114950744Y-100298840D01*
X114948622Y-100299144D01*
X114945555Y-100301566D01*
X114945281Y-100304165D01*
X114914939Y-100304165D01*
X114917188Y-100301316D01*
X114918052Y-100299375D01*
X114919955Y-100298291D01*
X114925422Y-100297614D01*
X114929499Y-100297500D01*
X114937224Y-100296908D01*
X114943020Y-100295410D01*
X114944499Y-100294500D01*
X114946120Y-100290265D01*
X114947153Y-100281857D01*
X114947500Y-100270602D01*
X114947774Y-100259772D01*
X114948449Y-100254165D01*
X114995281Y-100254165D01*
X114997232Y-100255000D01*
X114999983Y-100253016D01*
X115000855Y-100251377D01*
X115000744Y-100248840D01*
X114998622Y-100249144D01*
X114995555Y-100251566D01*
X114995281Y-100254165D01*
X114948449Y-100254165D01*
X114948568Y-100253179D01*
X114949835Y-100251176D01*
X114950000Y-100251250D01*
X114952309Y-100251194D01*
X114952500Y-100250396D01*
X114954746Y-100248019D01*
X114960472Y-100245984D01*
X114968157Y-100244551D01*
X114976282Y-100243981D01*
X114983327Y-100244534D01*
X114984730Y-100244874D01*
X114990969Y-100246193D01*
X114995081Y-100246156D01*
X114995355Y-100246030D01*
X114996365Y-100243064D01*
X114997062Y-100236582D01*
X114997426Y-100228060D01*
X114997434Y-100218973D01*
X114997064Y-100210797D01*
X114996295Y-100205007D01*
X114995982Y-100203954D01*
X114994809Y-100202490D01*
X114992121Y-100201430D01*
X114987227Y-100200714D01*
X114979434Y-100200278D01*
X114968049Y-100200060D01*
X114952379Y-100200000D01*
X114951804Y-100200000D01*
X114934475Y-100199991D01*
X114921512Y-100199689D01*
X114912283Y-100198684D01*
X114906154Y-100196564D01*
X114902494Y-100192917D01*
X114900669Y-100187332D01*
X114900048Y-100179397D01*
X114899997Y-100168701D01*
X114900000Y-100166303D01*
X114900458Y-100151884D01*
X114901679Y-100135907D01*
X114903427Y-100121215D01*
X114904029Y-100117423D01*
X114905584Y-100105568D01*
X114906619Y-100091840D01*
X114907148Y-100077244D01*
X114907181Y-100062787D01*
X114906937Y-100055565D01*
X115150000Y-100055565D01*
X115150086Y-100070267D01*
X115150326Y-100083213D01*
X115150691Y-100093587D01*
X115151153Y-100100571D01*
X115151666Y-100103333D01*
X115155158Y-100104404D01*
X115161796Y-100104923D01*
X115169907Y-100104932D01*
X115177814Y-100104469D01*
X115183844Y-100103577D01*
X115186250Y-100102500D01*
X115189776Y-100100399D01*
X115192647Y-100100000D01*
X115194394Y-100099752D01*
X115195663Y-100098549D01*
X115196530Y-100095706D01*
X115197070Y-100090534D01*
X115197361Y-100082347D01*
X115197479Y-100070456D01*
X115197500Y-100056250D01*
X115197500Y-100012500D01*
X115177704Y-100012500D01*
X115167799Y-100012315D01*
X115159538Y-100011828D01*
X115154449Y-100011134D01*
X115153954Y-100010982D01*
X115152554Y-100010906D01*
X115151526Y-100012326D01*
X115150813Y-100015871D01*
X115150360Y-100022167D01*
X115150112Y-100031844D01*
X115150012Y-100045527D01*
X115150000Y-100055565D01*
X114906937Y-100055565D01*
X114906731Y-100049475D01*
X114905809Y-100038313D01*
X114904427Y-100030307D01*
X114902971Y-100026818D01*
X114901635Y-100023393D01*
X114900796Y-100016623D01*
X114900424Y-100005998D01*
X114900487Y-99991008D01*
X114900554Y-99987159D01*
X114901250Y-99951250D01*
X114957500Y-99949697D01*
X114973991Y-99949309D01*
X114994374Y-99948936D01*
X115017541Y-99948593D01*
X115042381Y-99948293D01*
X115067788Y-99948051D01*
X115092653Y-99947880D01*
X115105625Y-99947822D01*
X115197500Y-99947500D01*
X115197500Y-99925000D01*
X115197734Y-99915091D01*
X115198361Y-99907409D01*
X115198865Y-99905000D01*
X115350000Y-99905000D01*
X115350362Y-99909069D01*
X115350862Y-99910000D01*
X115352973Y-99908369D01*
X115356250Y-99905000D01*
X115359236Y-99901379D01*
X115358582Y-99900136D01*
X115355387Y-99900000D01*
X115350958Y-99901570D01*
X115350000Y-99905000D01*
X115198865Y-99905000D01*
X115199269Y-99903069D01*
X115199778Y-99902500D01*
X115200735Y-99901250D01*
X115247500Y-99901250D01*
X115248750Y-99902500D01*
X115250000Y-99901250D01*
X115248750Y-99900000D01*
X115247500Y-99901250D01*
X115200735Y-99901250D01*
X115201306Y-99900504D01*
X115201220Y-99898125D01*
X115200941Y-99894302D01*
X115200680Y-99886367D01*
X115200455Y-99875205D01*
X115200284Y-99861703D01*
X115200191Y-99848125D01*
X115200000Y-99802500D01*
X115121014Y-99802500D01*
X115111887Y-99811875D01*
X115106593Y-99817868D01*
X115103721Y-99823318D01*
X115102406Y-99830352D01*
X115102004Y-99836250D01*
X115101250Y-99851250D01*
X115055186Y-99851933D01*
X115037360Y-99852347D01*
X115023093Y-99852993D01*
X115012801Y-99853843D01*
X115006905Y-99854866D01*
X115005811Y-99855364D01*
X115003716Y-99859916D01*
X115002640Y-99869087D01*
X115002500Y-99875453D01*
X115002201Y-99884104D01*
X115001399Y-99889743D01*
X115000235Y-99891393D01*
X115000200Y-99891373D01*
X114997259Y-99892125D01*
X114993243Y-99895879D01*
X114992965Y-99896226D01*
X114990847Y-99898700D01*
X114988464Y-99900420D01*
X114984938Y-99901522D01*
X114979389Y-99902144D01*
X114970939Y-99902424D01*
X114958709Y-99902497D01*
X114952765Y-99902500D01*
X114917500Y-99902500D01*
X114897500Y-99882500D01*
X114897500Y-99848622D01*
X114999144Y-99848622D01*
X114999255Y-99851159D01*
X115001377Y-99850855D01*
X115004137Y-99848750D01*
X115097500Y-99848750D01*
X115098750Y-99850000D01*
X115100000Y-99848750D01*
X115098750Y-99847500D01*
X115097500Y-99848750D01*
X115004137Y-99848750D01*
X115004605Y-99848393D01*
X115005000Y-99847232D01*
X115003630Y-99845065D01*
X115000887Y-99846059D01*
X114999144Y-99848622D01*
X114897500Y-99848622D01*
X114897500Y-99752500D01*
X114848750Y-99752496D01*
X114849513Y-99826248D01*
X114850277Y-99900000D01*
X114720000Y-99900000D01*
X114709878Y-99910121D01*
X114704132Y-99916194D01*
X114701207Y-99920974D01*
X114700284Y-99926596D01*
X114700503Y-99934496D01*
X114701250Y-99948750D01*
X114775428Y-99949411D01*
X114849607Y-99950073D01*
X114849883Y-100075036D01*
X114850158Y-100200000D01*
X114720000Y-100200000D01*
X114710000Y-100210000D01*
X114704197Y-100216239D01*
X114701216Y-100221393D01*
X114700130Y-100227683D01*
X114700000Y-100233941D01*
X114700000Y-100247882D01*
X114599708Y-100247882D01*
X114599380Y-99975534D01*
X114599110Y-99751250D01*
X115197500Y-99751250D01*
X115198750Y-99752500D01*
X115200000Y-99751250D01*
X115198750Y-99750000D01*
X115197500Y-99751250D01*
X114599110Y-99751250D01*
X114599050Y-99701250D01*
X114700000Y-99701250D01*
X114701250Y-99702500D01*
X114702500Y-99701250D01*
X114701250Y-99700000D01*
X114700000Y-99701250D01*
X114599050Y-99701250D01*
X114599043Y-99695335D01*
X114703542Y-99695335D01*
X114704725Y-99696822D01*
X114709412Y-99697496D01*
X114709852Y-99697500D01*
X114715186Y-99697226D01*
X114717497Y-99696566D01*
X114717500Y-99696541D01*
X114716263Y-99695717D01*
X114741250Y-99695717D01*
X114741721Y-99696170D01*
X114746452Y-99696589D01*
X114754703Y-99696933D01*
X114765733Y-99697164D01*
X114769852Y-99697209D01*
X114783292Y-99697277D01*
X114792371Y-99697154D01*
X114797727Y-99696768D01*
X114799999Y-99696042D01*
X114799823Y-99694902D01*
X114798602Y-99693829D01*
X114793986Y-99692155D01*
X114786076Y-99690920D01*
X114776334Y-99690169D01*
X114766224Y-99689949D01*
X114757206Y-99690305D01*
X114750743Y-99691284D01*
X114748625Y-99692257D01*
X114744324Y-99694709D01*
X114741250Y-99695717D01*
X114716263Y-99695717D01*
X114715411Y-99695149D01*
X114710763Y-99694368D01*
X114705976Y-99694407D01*
X114703542Y-99695335D01*
X114599043Y-99695335D01*
X114598962Y-99628082D01*
X114698991Y-99628082D01*
X114698993Y-99631546D01*
X114700468Y-99641537D01*
X114704412Y-99648023D01*
X114708244Y-99651144D01*
X114712372Y-99651989D01*
X114718831Y-99650870D01*
X114720418Y-99650480D01*
X114725593Y-99649776D01*
X114734835Y-99649103D01*
X114747209Y-99648486D01*
X114761780Y-99647951D01*
X114777616Y-99647524D01*
X114793782Y-99647231D01*
X114809344Y-99647097D01*
X114823368Y-99647150D01*
X114833244Y-99647355D01*
X114837885Y-99649192D01*
X114843269Y-99653488D01*
X114843869Y-99654115D01*
X114847729Y-99659433D01*
X114849566Y-99665786D01*
X114850000Y-99674279D01*
X114849533Y-99682886D01*
X114848341Y-99690019D01*
X114847412Y-99692664D01*
X114846121Y-99696422D01*
X114848325Y-99697495D01*
X114848662Y-99697500D01*
X114851878Y-99698481D01*
X114852203Y-99699375D01*
X114853372Y-99703652D01*
X114858646Y-99705122D01*
X114867985Y-99703776D01*
X114869866Y-99703295D01*
X114872300Y-99702500D01*
X115149738Y-99702500D01*
X115151250Y-99728750D01*
X115160625Y-99729525D01*
X115166863Y-99730517D01*
X115169515Y-99732764D01*
X115170000Y-99736329D01*
X115171258Y-99741055D01*
X115175874Y-99743977D01*
X115178125Y-99744703D01*
X115186125Y-99746467D01*
X115193125Y-99747274D01*
X115200000Y-99747500D01*
X115199920Y-99718125D01*
X115199841Y-99688750D01*
X115193790Y-99695625D01*
X115190282Y-99699153D01*
X115186540Y-99701213D01*
X115181141Y-99702194D01*
X115172663Y-99702487D01*
X115168739Y-99702500D01*
X115149738Y-99702500D01*
X114872300Y-99702500D01*
X114873972Y-99701954D01*
X114873526Y-99700789D01*
X114871116Y-99699755D01*
X114869014Y-99698492D01*
X114871302Y-99697847D01*
X114875284Y-99697675D01*
X114884511Y-99695621D01*
X114891740Y-99690546D01*
X114895936Y-99683500D01*
X114896260Y-99676330D01*
X114892875Y-99653333D01*
X115088333Y-99653333D01*
X115088676Y-99654819D01*
X115090000Y-99655000D01*
X115092057Y-99654085D01*
X115091666Y-99653333D01*
X115088699Y-99653034D01*
X115088333Y-99653333D01*
X114892875Y-99653333D01*
X114892396Y-99650081D01*
X114892395Y-99649255D01*
X115098840Y-99649255D01*
X115099144Y-99651377D01*
X115101566Y-99654444D01*
X115104165Y-99654718D01*
X115105000Y-99652767D01*
X115103906Y-99651250D01*
X115197500Y-99651250D01*
X115198750Y-99652500D01*
X115200000Y-99651250D01*
X115198931Y-99650181D01*
X115500000Y-99650181D01*
X115524375Y-99649465D01*
X115548750Y-99648750D01*
X115548750Y-99601250D01*
X115500000Y-99599818D01*
X115500000Y-99650181D01*
X115198931Y-99650181D01*
X115198750Y-99650000D01*
X115197500Y-99651250D01*
X115103906Y-99651250D01*
X115103016Y-99650016D01*
X115101377Y-99649144D01*
X115098840Y-99649255D01*
X114892395Y-99649255D01*
X114892352Y-99625191D01*
X114892873Y-99619956D01*
X114894038Y-99608809D01*
X114894477Y-99603750D01*
X114945000Y-99603750D01*
X114946250Y-99605000D01*
X114947500Y-99603750D01*
X114946250Y-99602500D01*
X114945000Y-99603750D01*
X114894477Y-99603750D01*
X114894817Y-99599825D01*
X114984384Y-99599825D01*
X114984808Y-99600000D01*
X114986451Y-99602259D01*
X114987393Y-99608104D01*
X114987500Y-99611414D01*
X114988329Y-99621110D01*
X114990557Y-99628403D01*
X114993787Y-99632200D01*
X114995087Y-99632500D01*
X114996647Y-99630293D01*
X114997464Y-99624832D01*
X114997500Y-99623261D01*
X114999271Y-99614032D01*
X115004217Y-99607011D01*
X115004970Y-99606192D01*
X115093019Y-99606192D01*
X115094949Y-99609742D01*
X115097343Y-99612343D01*
X115100596Y-99617002D01*
X115102163Y-99623588D01*
X115102500Y-99631569D01*
X115102500Y-99645639D01*
X115111924Y-99644131D01*
X115120410Y-99643706D01*
X115128303Y-99644708D01*
X115128799Y-99644847D01*
X115134133Y-99645719D01*
X115143215Y-99646467D01*
X115154790Y-99647013D01*
X115167608Y-99647281D01*
X115168125Y-99647285D01*
X115200000Y-99647500D01*
X115200000Y-99549818D01*
X115151250Y-99551250D01*
X115150535Y-99575543D01*
X115149820Y-99599837D01*
X115121989Y-99600543D01*
X115108358Y-99601096D01*
X115099281Y-99602081D01*
X115094315Y-99603709D01*
X115093019Y-99606192D01*
X115004970Y-99606192D01*
X115008374Y-99602492D01*
X115008421Y-99602381D01*
X115031183Y-99602381D01*
X115031250Y-99602500D01*
X115034786Y-99604622D01*
X115037500Y-99605000D01*
X115042224Y-99603817D01*
X115043750Y-99602500D01*
X115043050Y-99601250D01*
X115087500Y-99601250D01*
X115088750Y-99602500D01*
X115090000Y-99601250D01*
X115088750Y-99600000D01*
X115087500Y-99601250D01*
X115043050Y-99601250D01*
X115042763Y-99600738D01*
X115037869Y-99600002D01*
X115037500Y-99600000D01*
X115032418Y-99600665D01*
X115031183Y-99602381D01*
X115008421Y-99602381D01*
X115009217Y-99600506D01*
X115006933Y-99600012D01*
X115005467Y-99600000D01*
X115001242Y-99598738D01*
X115000002Y-99594131D01*
X115000000Y-99593750D01*
X114999480Y-99589047D01*
X114998485Y-99587500D01*
X114995775Y-99588963D01*
X114990943Y-99592594D01*
X114989544Y-99593750D01*
X114985510Y-99597638D01*
X114984384Y-99599825D01*
X114894817Y-99599825D01*
X114895234Y-99595012D01*
X114895235Y-99595000D01*
X114950000Y-99595000D01*
X114951573Y-99597326D01*
X114956127Y-99595837D01*
X114957500Y-99595000D01*
X114959463Y-99593176D01*
X114956980Y-99592566D01*
X114955625Y-99592538D01*
X114951235Y-99593449D01*
X114950000Y-99595000D01*
X114895235Y-99595000D01*
X114896264Y-99580907D01*
X114896397Y-99578750D01*
X114900630Y-99578750D01*
X114900831Y-99583895D01*
X114901398Y-99585223D01*
X114901717Y-99584404D01*
X114902183Y-99578400D01*
X114901768Y-99574404D01*
X114901109Y-99573018D01*
X114900695Y-99576023D01*
X114900630Y-99578750D01*
X114896397Y-99578750D01*
X114896596Y-99575527D01*
X114897758Y-99555306D01*
X114900000Y-99555306D01*
X114900547Y-99558917D01*
X114902880Y-99558192D01*
X114903750Y-99557500D01*
X114906892Y-99553891D01*
X114907500Y-99552193D01*
X114905470Y-99550246D01*
X114903750Y-99550000D01*
X114900703Y-99552112D01*
X114900000Y-99555306D01*
X114897758Y-99555306D01*
X114898074Y-99549804D01*
X114851250Y-99551250D01*
X114849818Y-99600000D01*
X114718514Y-99600000D01*
X114708632Y-99610121D01*
X114702804Y-99616624D01*
X114699894Y-99621936D01*
X114698991Y-99628082D01*
X114598962Y-99628082D01*
X114598750Y-99451250D01*
X114548750Y-99448750D01*
X114548705Y-99425000D01*
X114548661Y-99401250D01*
X114401250Y-99401250D01*
X114399818Y-99450000D01*
X114350000Y-99450000D01*
X114350000Y-100500000D01*
X114370862Y-100500000D01*
X114383229Y-100500312D01*
X114391499Y-100501804D01*
X114396491Y-100505305D01*
X114399023Y-100511646D01*
X114399913Y-100521657D01*
X114400000Y-100529571D01*
X114400000Y-100550000D01*
X113371098Y-100550000D01*
X113368166Y-100574375D01*
X113361715Y-100609668D01*
X113351177Y-100643629D01*
X113336865Y-100675716D01*
X113319092Y-100705385D01*
X113298172Y-100732092D01*
X113274419Y-100755296D01*
X113255437Y-100769732D01*
X113228406Y-100785102D01*
X113199609Y-100796045D01*
X113169582Y-100802576D01*
X113138860Y-100804706D01*
X113107977Y-100802450D01*
X113077470Y-100795820D01*
X113047872Y-100784829D01*
X113019720Y-100769490D01*
X113011250Y-100763769D01*
X112999444Y-100754339D01*
X112986197Y-100742061D01*
X112972799Y-100728273D01*
X112960537Y-100714316D01*
X112950703Y-100701529D01*
X112949141Y-100699231D01*
X112941104Y-100685869D01*
X112933183Y-100670603D01*
X112926202Y-100655177D01*
X112920985Y-100641340D01*
X112919544Y-100636520D01*
X112916426Y-100624862D01*
X112851250Y-100626250D01*
X112850592Y-100713034D01*
X112849935Y-100799819D01*
X112825592Y-100800534D01*
X112801250Y-100801250D01*
X112799894Y-100899820D01*
X112751250Y-100901250D01*
X112749818Y-100950000D01*
X112650000Y-100950000D01*
X112650000Y-100995000D01*
X112656875Y-100994970D01*
X112660478Y-100994842D01*
X112668652Y-100994484D01*
X112680975Y-100993914D01*
X112697023Y-100993155D01*
X112716375Y-100992225D01*
X112738608Y-100991146D01*
X112763299Y-100989938D01*
X112790025Y-100988621D01*
X112818364Y-100987215D01*
X112837161Y-100986278D01*
X112872148Y-100984548D01*
X112902450Y-100983090D01*
X112928372Y-100981895D01*
X112950220Y-100980953D01*
X112968302Y-100980255D01*
X112982923Y-100979790D01*
X112994389Y-100979550D01*
X113003007Y-100979524D01*
X113009083Y-100979703D01*
X113012924Y-100980077D01*
X113014834Y-100980637D01*
X113014904Y-100980683D01*
X113018326Y-100983521D01*
X113024512Y-100989032D01*
X113032606Y-100996443D01*
X113041753Y-101004977D01*
X113042441Y-101005624D01*
X113065646Y-101027499D01*
X113071484Y-101330624D01*
X113072233Y-101369721D01*
X113072956Y-101407805D01*
X113073646Y-101444535D01*
X113074298Y-101479569D01*
X113074904Y-101512565D01*
X113075460Y-101543182D01*
X113075958Y-101571077D01*
X113076393Y-101595909D01*
X113076759Y-101617337D01*
X113077050Y-101635018D01*
X113077258Y-101648611D01*
X113077380Y-101657774D01*
X113077408Y-101661250D01*
X113077495Y-101688750D01*
X113132766Y-101686727D01*
X113148833Y-101686173D01*
X113163130Y-101685747D01*
X113174932Y-101685463D01*
X113183516Y-101685339D01*
X113188159Y-101685390D01*
X113188771Y-101685477D01*
X113189249Y-101688307D01*
X113189790Y-101695357D01*
X113190372Y-101705848D01*
X113190970Y-101719001D01*
X113191559Y-101734037D01*
X113192117Y-101750176D01*
X113192618Y-101766639D01*
X113193039Y-101782648D01*
X113193356Y-101797422D01*
X113193544Y-101810184D01*
X113193580Y-101820153D01*
X113193440Y-101826551D01*
X113193190Y-101828565D01*
X113190804Y-101831550D01*
X113185650Y-101837340D01*
X113178441Y-101845154D01*
X113169890Y-101854209D01*
X113168146Y-101856033D01*
X113145042Y-101880145D01*
X112503146Y-101896618D01*
X112446851Y-101898064D01*
X112391872Y-101899479D01*
X112338419Y-101900858D01*
X112286700Y-101902195D01*
X112236924Y-101903484D01*
X112189300Y-101904720D01*
X112144037Y-101905898D01*
X112101345Y-101907012D01*
X112061431Y-101908057D01*
X112024506Y-101909027D01*
X111990777Y-101909916D01*
X111960455Y-101910720D01*
X111933748Y-101911432D01*
X111910865Y-101912048D01*
X111892015Y-101912561D01*
X111877406Y-101912967D01*
X111867249Y-101913259D01*
X111861752Y-101913432D01*
X111860775Y-101913478D01*
X111860518Y-101915972D01*
X111860072Y-101922715D01*
X111859479Y-101932961D01*
X111858783Y-101945964D01*
X111858027Y-101960978D01*
X111857828Y-101965057D01*
X111855355Y-102016250D01*
X111829552Y-102040534D01*
X111803750Y-102064818D01*
X111786250Y-102064498D01*
X111778049Y-102064268D01*
X111766031Y-102063825D01*
X111751375Y-102063218D01*
X111735255Y-102062496D01*
X111720574Y-102061792D01*
X111672398Y-102059406D01*
X111674098Y-101987172D01*
X111675798Y-101914939D01*
X111643524Y-101916271D01*
X111634034Y-101916615D01*
X111620262Y-101917049D01*
X111602924Y-101917552D01*
X111582735Y-101918106D01*
X111560412Y-101918691D01*
X111536671Y-101919287D01*
X111512228Y-101919875D01*
X111500200Y-101920155D01*
X111389150Y-101922707D01*
X111378117Y-101911978D01*
X111371128Y-101904914D01*
X111362478Y-101895792D01*
X111353788Y-101886328D01*
X111351876Y-101884196D01*
X111336668Y-101867142D01*
X111341286Y-101795095D01*
X111345905Y-101723049D01*
X111376077Y-101721552D01*
X111384429Y-101721211D01*
X111397183Y-101720788D01*
X111413741Y-101720299D01*
X111433507Y-101719759D01*
X111455883Y-101719184D01*
X111480273Y-101718589D01*
X111506079Y-101717991D01*
X111532704Y-101717405D01*
X111542500Y-101717197D01*
X111568135Y-101716633D01*
X111592253Y-101716049D01*
X111614393Y-101715461D01*
X111630136Y-101715000D01*
X111863097Y-101715000D01*
X111879673Y-101714849D01*
X111884179Y-101714762D01*
X111893372Y-101714541D01*
X111906942Y-101714197D01*
X111924577Y-101713736D01*
X111945968Y-101713169D01*
X111970803Y-101712502D01*
X111998771Y-101711745D01*
X112029563Y-101710906D01*
X112062867Y-101709993D01*
X112098372Y-101709014D01*
X112135768Y-101707979D01*
X112174744Y-101706896D01*
X112214989Y-101705772D01*
X112226696Y-101705445D01*
X112266926Y-101704309D01*
X112305770Y-101703196D01*
X112342936Y-101702113D01*
X112378131Y-101701071D01*
X112411063Y-101700078D01*
X112441440Y-101699145D01*
X112468969Y-101698279D01*
X112493358Y-101697491D01*
X112514315Y-101696789D01*
X112531547Y-101696183D01*
X112544762Y-101695682D01*
X112553667Y-101695295D01*
X112557970Y-101695032D01*
X112558335Y-101694970D01*
X112558406Y-101692432D01*
X112558430Y-101685254D01*
X112558408Y-101673798D01*
X112558345Y-101658423D01*
X112558244Y-101639489D01*
X112558108Y-101617358D01*
X112557940Y-101592389D01*
X112557743Y-101564943D01*
X112557520Y-101535380D01*
X112557275Y-101504060D01*
X112557011Y-101471344D01*
X112556730Y-101437593D01*
X112556437Y-101403166D01*
X112556134Y-101368423D01*
X112555824Y-101333726D01*
X112555511Y-101299435D01*
X112555197Y-101265910D01*
X112554887Y-101233511D01*
X112554582Y-101202598D01*
X112554287Y-101173533D01*
X112554004Y-101146675D01*
X112553737Y-101122384D01*
X112553489Y-101101022D01*
X112553262Y-101082949D01*
X112553061Y-101068524D01*
X112552888Y-101058108D01*
X112552746Y-101052062D01*
X112552668Y-101050625D01*
X112550218Y-101050489D01*
X112543296Y-101050364D01*
X112532428Y-101050251D01*
X112518141Y-101050156D01*
X112500964Y-101050080D01*
X112481423Y-101050028D01*
X112460045Y-101050002D01*
X112451302Y-101050000D01*
X112350105Y-101050000D01*
X112349427Y-101000625D01*
X112348750Y-100951250D01*
X112324427Y-100950535D01*
X112300105Y-100949820D01*
X112299427Y-100900535D01*
X112298750Y-100851250D01*
X112250000Y-100849818D01*
X112250000Y-100745326D01*
X112249975Y-100722967D01*
X112249907Y-100702196D01*
X112249799Y-100683539D01*
X112249656Y-100667519D01*
X112249485Y-100654661D01*
X112249289Y-100645489D01*
X112249075Y-100640529D01*
X112248962Y-100639791D01*
X112246304Y-100639616D01*
X112239130Y-100639565D01*
X112227923Y-100639627D01*
X112213165Y-100639790D01*
X112195338Y-100640046D01*
X112174926Y-100640382D01*
X112152410Y-100640789D01*
X112128273Y-100641255D01*
X112102997Y-100641770D01*
X112077065Y-100642324D01*
X112050959Y-100642905D01*
X112025162Y-100643503D01*
X112000156Y-100644107D01*
X111976423Y-100644706D01*
X111954447Y-100645291D01*
X111934709Y-100645849D01*
X111917691Y-100646371D01*
X111903877Y-100646846D01*
X111893749Y-100647263D01*
X111887789Y-100647612D01*
X111886350Y-100647814D01*
X111886144Y-100650433D01*
X111885848Y-100657810D01*
X111885468Y-100669706D01*
X111885008Y-100685881D01*
X111884474Y-100706095D01*
X111883872Y-100730107D01*
X111883207Y-100757677D01*
X111882486Y-100788566D01*
X111881712Y-100822534D01*
X111880892Y-100859339D01*
X111880032Y-100898743D01*
X111879137Y-100940504D01*
X111878212Y-100984383D01*
X111877263Y-101030140D01*
X111876295Y-101077535D01*
X111875314Y-101126327D01*
X111875061Y-101139064D01*
X111874070Y-101188853D01*
X111873097Y-101237691D01*
X111872144Y-101285308D01*
X111871219Y-101331437D01*
X111870327Y-101375811D01*
X111869473Y-101418160D01*
X111868662Y-101458218D01*
X111867901Y-101495716D01*
X111867194Y-101530386D01*
X111866547Y-101561961D01*
X111865965Y-101590172D01*
X111865454Y-101614751D01*
X111865019Y-101635431D01*
X111864667Y-101651943D01*
X111864401Y-101664020D01*
X111864228Y-101671393D01*
X111864216Y-101671875D01*
X111863097Y-101715000D01*
X111630136Y-101715000D01*
X111634097Y-101714884D01*
X111650903Y-101714333D01*
X111664352Y-101713821D01*
X111673983Y-101713365D01*
X111679336Y-101712977D01*
X111680296Y-101712794D01*
X111680464Y-101710229D01*
X111680737Y-101702948D01*
X111681110Y-101691234D01*
X111681574Y-101675369D01*
X111682124Y-101655636D01*
X111682753Y-101632319D01*
X111683454Y-101605699D01*
X111684220Y-101576059D01*
X111685045Y-101543683D01*
X111685921Y-101508853D01*
X111686843Y-101471852D01*
X111687803Y-101432962D01*
X111688795Y-101392467D01*
X111689812Y-101350648D01*
X111690847Y-101307789D01*
X111691894Y-101264173D01*
X111692946Y-101220082D01*
X111693996Y-101175799D01*
X111695037Y-101131606D01*
X111696064Y-101087787D01*
X111697068Y-101044625D01*
X111698044Y-101002401D01*
X111698984Y-100961399D01*
X111699882Y-100921902D01*
X111700731Y-100884191D01*
X111701525Y-100848551D01*
X111702256Y-100815264D01*
X111702919Y-100784612D01*
X111703506Y-100756878D01*
X111704011Y-100732345D01*
X111704426Y-100711296D01*
X111704746Y-100694013D01*
X111704963Y-100680780D01*
X111705071Y-100671878D01*
X111705081Y-100668750D01*
X111705006Y-100653750D01*
X111648750Y-100655296D01*
X111596690Y-100602852D01*
X111596749Y-100601531D01*
X112495859Y-100601531D01*
X112496250Y-100602500D01*
X112498496Y-100604884D01*
X112498897Y-100605000D01*
X112499971Y-100603065D01*
X112500000Y-100602500D01*
X112498078Y-100600096D01*
X112497352Y-100600000D01*
X112495859Y-100601531D01*
X111596749Y-100601531D01*
X111599735Y-100534551D01*
X111600581Y-100516305D01*
X111601422Y-100499482D01*
X111602218Y-100484794D01*
X111602430Y-100481250D01*
X113367500Y-100481250D01*
X113368750Y-100482500D01*
X113370000Y-100481250D01*
X113368750Y-100480000D01*
X113367500Y-100481250D01*
X111602430Y-100481250D01*
X111602928Y-100472952D01*
X111603513Y-100464669D01*
X111603931Y-100460656D01*
X111603937Y-100460625D01*
X111604439Y-100458733D01*
X111605492Y-100457321D01*
X111607749Y-100456320D01*
X111611864Y-100455658D01*
X111618489Y-100455265D01*
X111628278Y-100455071D01*
X111641884Y-100455006D01*
X111656184Y-100455000D01*
X111707273Y-100455000D01*
X111708480Y-100446875D01*
X111708564Y-100445473D01*
X111895000Y-100445473D01*
X111943125Y-100443910D01*
X111953807Y-100443596D01*
X111968943Y-100443197D01*
X111987989Y-100442728D01*
X112010399Y-100442199D01*
X112035630Y-100441624D01*
X112063135Y-100441015D01*
X112092370Y-100440383D01*
X112122791Y-100439742D01*
X112153852Y-100439103D01*
X112172500Y-100438727D01*
X112203683Y-100438096D01*
X112234552Y-100437454D01*
X112264562Y-100436814D01*
X112293167Y-100436189D01*
X112319822Y-100435590D01*
X112343984Y-100435030D01*
X112365106Y-100434522D01*
X112382645Y-100434077D01*
X112396055Y-100433709D01*
X112401875Y-100433530D01*
X112450000Y-100431953D01*
X112450000Y-100400000D01*
X112350181Y-100400000D01*
X112349465Y-100375625D01*
X112348750Y-100351250D01*
X112300000Y-100349818D01*
X112300000Y-100332217D01*
X112299811Y-100322662D01*
X112298930Y-100316487D01*
X112296881Y-100312075D01*
X112293192Y-100307810D01*
X112292692Y-100307307D01*
X112288349Y-100303419D01*
X112284028Y-100301221D01*
X112278113Y-100300240D01*
X112268987Y-100300001D01*
X112267782Y-100300000D01*
X112250181Y-100300000D01*
X112249465Y-100275625D01*
X112248750Y-100251250D01*
X112200000Y-100249818D01*
X112200000Y-100232217D01*
X112199811Y-100222662D01*
X112198930Y-100216487D01*
X112196881Y-100212075D01*
X112193192Y-100207810D01*
X112192692Y-100207307D01*
X112188355Y-100203423D01*
X112184041Y-100201225D01*
X112178137Y-100200242D01*
X112169030Y-100200001D01*
X112167745Y-100200000D01*
X112150105Y-100200000D01*
X112149427Y-100150625D01*
X112148750Y-100101250D01*
X112127103Y-100100530D01*
X112115087Y-100099760D01*
X112106775Y-100098423D01*
X112102837Y-100096656D01*
X112101549Y-100092820D01*
X112100416Y-100085377D01*
X112099631Y-100075717D01*
X112099484Y-100072375D01*
X112098750Y-100051250D01*
X112074403Y-100050534D01*
X112050057Y-100049819D01*
X112049721Y-99998750D01*
X112251250Y-99998750D01*
X112275535Y-99999464D01*
X112299821Y-100000178D01*
X112300535Y-100024464D01*
X112301250Y-100048750D01*
X112325535Y-100049464D01*
X112349821Y-100050178D01*
X112350535Y-100074464D01*
X112351250Y-100098750D01*
X112375535Y-100099464D01*
X112399821Y-100100178D01*
X112400535Y-100124464D01*
X112401250Y-100148750D01*
X112450535Y-100149427D01*
X112499820Y-100150105D01*
X112500535Y-100174427D01*
X112501250Y-100198750D01*
X112547313Y-100199433D01*
X112565139Y-100199847D01*
X112579406Y-100200493D01*
X112589698Y-100201343D01*
X112595594Y-100202366D01*
X112596688Y-100202864D01*
X112598540Y-100206657D01*
X112599625Y-100214568D01*
X112599999Y-100227005D01*
X112600000Y-100227806D01*
X112600000Y-100250000D01*
X112649818Y-100250000D01*
X112651250Y-100298750D01*
X112675625Y-100299465D01*
X112700000Y-100300181D01*
X112700000Y-100313723D01*
X112700204Y-100321648D01*
X112701359Y-100326222D01*
X112704281Y-100329092D01*
X112708750Y-100331417D01*
X112714361Y-100334699D01*
X112717349Y-100337653D01*
X112717500Y-100338213D01*
X112719784Y-100343886D01*
X112725973Y-100347985D01*
X112735069Y-100349922D01*
X112737512Y-100350000D01*
X112747536Y-100351133D01*
X112756248Y-100355205D01*
X112758999Y-100357105D01*
X112766652Y-100363335D01*
X112774488Y-100370775D01*
X112781578Y-100378402D01*
X112786992Y-100385196D01*
X112789802Y-100390136D01*
X112790000Y-100391172D01*
X112791932Y-100395362D01*
X112795000Y-100398080D01*
X112798287Y-100401484D01*
X112799767Y-100407268D01*
X112800000Y-100413101D01*
X112800291Y-100420376D01*
X112801515Y-100423918D01*
X112804197Y-100424976D01*
X112805000Y-100425000D01*
X112808659Y-100423821D01*
X112809948Y-100419436D01*
X112810000Y-100417500D01*
X112810000Y-100410000D01*
X112829833Y-100410000D01*
X112839708Y-100410061D01*
X112845649Y-100410483D01*
X112848722Y-100411620D01*
X112849992Y-100413828D01*
X112850458Y-100416875D01*
X112851719Y-100421652D01*
X112855085Y-100423444D01*
X112859375Y-100423611D01*
X112865272Y-100423507D01*
X112874693Y-100423339D01*
X112886162Y-100423132D01*
X112894375Y-100422983D01*
X112921250Y-100422494D01*
X112929888Y-100403280D01*
X112945049Y-100374655D01*
X112963796Y-100347712D01*
X112985442Y-100323192D01*
X113009298Y-100301836D01*
X113034677Y-100284383D01*
X113046250Y-100278081D01*
X113063056Y-100270392D01*
X113078905Y-100264905D01*
X113095363Y-100261248D01*
X113113997Y-100259051D01*
X113130578Y-100258130D01*
X113157657Y-100258222D01*
X113181585Y-100260815D01*
X113203676Y-100266155D01*
X113225241Y-100274492D01*
X113230625Y-100277035D01*
X113250000Y-100286490D01*
X113250000Y-100212281D01*
X113250024Y-100200000D01*
X113700000Y-100200000D01*
X113800000Y-100200000D01*
X113800000Y-100350000D01*
X113850000Y-100350000D01*
X113850000Y-100400000D01*
X113871071Y-100400000D01*
X113882697Y-100399721D01*
X113890312Y-100398783D01*
X113894877Y-100397036D01*
X113896071Y-100396071D01*
X113897259Y-100394303D01*
X113898186Y-100391279D01*
X113898884Y-100386436D01*
X113899381Y-100379207D01*
X113899711Y-100369028D01*
X113899902Y-100355334D01*
X113899987Y-100337559D01*
X113900000Y-100324071D01*
X113900069Y-100301847D01*
X113900288Y-100284259D01*
X113900671Y-100270946D01*
X113901235Y-100261547D01*
X113901993Y-100255698D01*
X113902962Y-100253039D01*
X113903000Y-100252999D01*
X113907253Y-100251387D01*
X113915808Y-100250360D01*
X113927991Y-100250000D01*
X113950000Y-100250000D01*
X113950000Y-100050000D01*
X113800000Y-100050000D01*
X113800000Y-100100000D01*
X113750000Y-100100000D01*
X113750000Y-100150000D01*
X113700000Y-100150000D01*
X113700000Y-100200000D01*
X113250024Y-100200000D01*
X113250043Y-100190009D01*
X113250191Y-100172208D01*
X113250464Y-100158350D01*
X113250889Y-100147905D01*
X113251487Y-100140347D01*
X113252282Y-100135145D01*
X113253298Y-100131772D01*
X113253604Y-100131122D01*
X113255703Y-100123531D01*
X113255546Y-100114983D01*
X113253273Y-100107891D01*
X113252169Y-100106374D01*
X113250924Y-100102668D01*
X113250139Y-100095826D01*
X113250000Y-100091141D01*
X113249113Y-100081275D01*
X113246842Y-100070015D01*
X113245000Y-100063750D01*
X113241809Y-100053361D01*
X113240433Y-100044776D01*
X113240938Y-100036335D01*
X113243392Y-100026378D01*
X113246950Y-100015795D01*
X113249178Y-100009020D01*
X113250916Y-100002231D01*
X113251297Y-100000000D01*
X113900000Y-100000000D01*
X114000000Y-100000000D01*
X114000000Y-100150000D01*
X114050000Y-100150000D01*
X114050000Y-100350000D01*
X114100000Y-100350000D01*
X114100000Y-100203000D01*
X114100025Y-100170178D01*
X114100106Y-100142073D01*
X114100248Y-100118400D01*
X114100456Y-100098876D01*
X114100736Y-100083216D01*
X114101094Y-100071137D01*
X114101536Y-100062354D01*
X114102067Y-100056585D01*
X114102692Y-100053546D01*
X114102999Y-100053000D01*
X114107253Y-100051387D01*
X114115808Y-100050360D01*
X114127991Y-100050000D01*
X114150000Y-100050000D01*
X114150000Y-99850000D01*
X114000000Y-99850000D01*
X114000000Y-99900000D01*
X113950000Y-99900000D01*
X113950000Y-99950000D01*
X113900000Y-99950000D01*
X113900000Y-100000000D01*
X113251297Y-100000000D01*
X113252179Y-99994842D01*
X113252979Y-99986266D01*
X113253331Y-99975914D01*
X113253246Y-99963201D01*
X113252740Y-99947539D01*
X113251825Y-99928340D01*
X113250515Y-99905018D01*
X113249768Y-99892500D01*
X113248839Y-99874479D01*
X113248079Y-99854654D01*
X113247548Y-99835030D01*
X113247308Y-99817610D01*
X113247306Y-99811875D01*
X113247354Y-99800000D01*
X114100000Y-99800000D01*
X114200000Y-99800000D01*
X114200000Y-99950000D01*
X114250000Y-99950000D01*
X114250000Y-99650000D01*
X114200000Y-99650000D01*
X114200000Y-99700000D01*
X114150000Y-99700000D01*
X114150000Y-99750000D01*
X114100000Y-99750000D01*
X114100000Y-99800000D01*
X113247354Y-99800000D01*
X113247366Y-99797049D01*
X113247412Y-99780040D01*
X113247444Y-99760418D01*
X113247463Y-99737755D01*
X113247468Y-99711622D01*
X113247461Y-99681590D01*
X113247440Y-99647230D01*
X113247423Y-99625625D01*
X113247469Y-99610469D01*
X113247619Y-99591617D01*
X113247857Y-99570372D01*
X113248166Y-99548037D01*
X113248532Y-99525913D01*
X113248808Y-99511501D01*
X113249204Y-99490083D01*
X113249407Y-99472979D01*
X113249398Y-99459506D01*
X113249153Y-99448979D01*
X113248654Y-99440716D01*
X113247877Y-99434033D01*
X113246803Y-99428246D01*
X113246155Y-99425507D01*
X113244666Y-99419026D01*
X113243445Y-99413737D01*
X113242008Y-99409521D01*
X113239868Y-99406256D01*
X113236542Y-99403823D01*
X113231543Y-99402103D01*
X113224387Y-99400973D01*
X113218348Y-99400568D01*
X113310762Y-99400568D01*
X113311718Y-99402711D01*
X113312000Y-99403000D01*
X113314682Y-99408058D01*
X113315000Y-99410291D01*
X113317185Y-99415083D01*
X113323109Y-99417302D01*
X113324275Y-99415480D01*
X113324109Y-99413125D01*
X113321325Y-99404584D01*
X113317051Y-99400498D01*
X113314232Y-99400000D01*
X113310762Y-99400568D01*
X113218348Y-99400568D01*
X113214590Y-99400316D01*
X113201665Y-99400009D01*
X113185127Y-99399935D01*
X113164493Y-99399971D01*
X113143148Y-99400000D01*
X113050000Y-99400000D01*
X113050000Y-99450000D01*
X113010000Y-99450000D01*
X112994127Y-99450098D01*
X112982718Y-99450423D01*
X112975239Y-99451014D01*
X112971158Y-99451914D01*
X112969941Y-99453125D01*
X112969643Y-99456591D01*
X112968818Y-99464588D01*
X112967508Y-99476749D01*
X112965754Y-99492710D01*
X112963599Y-99512103D01*
X112961084Y-99534562D01*
X112958252Y-99559722D01*
X112955145Y-99587216D01*
X112951804Y-99616678D01*
X112948272Y-99647742D01*
X112944591Y-99680042D01*
X112940802Y-99713212D01*
X112936947Y-99746886D01*
X112933069Y-99780698D01*
X112929210Y-99814281D01*
X112925411Y-99847269D01*
X112921714Y-99879297D01*
X112918162Y-99909998D01*
X112914797Y-99939007D01*
X112911660Y-99965956D01*
X112908793Y-99990481D01*
X112906239Y-100012215D01*
X112904039Y-100030791D01*
X112902235Y-100045844D01*
X112900870Y-100057008D01*
X112899986Y-100063916D01*
X112899629Y-100066204D01*
X112896994Y-100066294D01*
X112889738Y-100066176D01*
X112878237Y-100065863D01*
X112862865Y-100065368D01*
X112843996Y-100064705D01*
X112822005Y-100063888D01*
X112797267Y-100062930D01*
X112770156Y-100061847D01*
X112741047Y-100060650D01*
X112710315Y-100059354D01*
X112696056Y-100058742D01*
X112664482Y-100057384D01*
X112634194Y-100056091D01*
X112605585Y-100054879D01*
X112579051Y-100053764D01*
X112554985Y-100052763D01*
X112533783Y-100051891D01*
X112515839Y-100051164D01*
X112501547Y-100050601D01*
X112491302Y-100050215D01*
X112485499Y-100050025D01*
X112484504Y-100050007D01*
X112480787Y-100049789D01*
X112477427Y-100048762D01*
X112473767Y-100046356D01*
X112469150Y-100042002D01*
X112462918Y-100035130D01*
X112454414Y-100025171D01*
X112450590Y-100020625D01*
X112425921Y-99991250D01*
X112462534Y-99722500D01*
X112467432Y-99686420D01*
X112472108Y-99651729D01*
X112476521Y-99618748D01*
X112480629Y-99587797D01*
X112484391Y-99559198D01*
X112487764Y-99533273D01*
X112490709Y-99510343D01*
X112493182Y-99490730D01*
X112495143Y-99474753D01*
X112496549Y-99462736D01*
X112497360Y-99454999D01*
X112497534Y-99451864D01*
X112497516Y-99451818D01*
X112494617Y-99451247D01*
X112487524Y-99450816D01*
X112477041Y-99450544D01*
X112463975Y-99450451D01*
X112449128Y-99450560D01*
X112448568Y-99450568D01*
X112401250Y-99451250D01*
X112400535Y-99475535D01*
X112399821Y-99499821D01*
X112375535Y-99500535D01*
X112351250Y-99501250D01*
X112350535Y-99525535D01*
X112349821Y-99549821D01*
X112325535Y-99550535D01*
X112301250Y-99551250D01*
X112300535Y-99575535D01*
X112299821Y-99599821D01*
X112275535Y-99600535D01*
X112251250Y-99601250D01*
X112251250Y-99998750D01*
X112049721Y-99998750D01*
X112049403Y-99950534D01*
X112048750Y-99851250D01*
X112000000Y-99849818D01*
X112000000Y-99650181D01*
X112024375Y-99649465D01*
X112048750Y-99648750D01*
X112049403Y-99549465D01*
X112050057Y-99450180D01*
X112074403Y-99449465D01*
X112098750Y-99448750D01*
X112099481Y-99427766D01*
X112100213Y-99406783D01*
X112068231Y-99408348D01*
X112055874Y-99408897D01*
X112039832Y-99409527D01*
X112021420Y-99410190D01*
X112001952Y-99410840D01*
X111982742Y-99411431D01*
X111978379Y-99411556D01*
X111920508Y-99413200D01*
X111918910Y-99455975D01*
X111918640Y-99464056D01*
X111918262Y-99476648D01*
X111917785Y-99493444D01*
X111917216Y-99514133D01*
X111916563Y-99538408D01*
X111915832Y-99565959D01*
X111915033Y-99596478D01*
X111914172Y-99629656D01*
X111913258Y-99665184D01*
X111912297Y-99702752D01*
X111911298Y-99742053D01*
X111910268Y-99782777D01*
X111909215Y-99824616D01*
X111908147Y-99867260D01*
X111907070Y-99910401D01*
X111905994Y-99953730D01*
X111904925Y-99996939D01*
X111903871Y-100039717D01*
X111902840Y-100081757D01*
X111901840Y-100122750D01*
X111900878Y-100162387D01*
X111899961Y-100200358D01*
X111899098Y-100236356D01*
X111898297Y-100270070D01*
X111897564Y-100301194D01*
X111896907Y-100329416D01*
X111896335Y-100354430D01*
X111895854Y-100375925D01*
X111895473Y-100393594D01*
X111895199Y-100407126D01*
X111895039Y-100416214D01*
X111895000Y-100420056D01*
X111895000Y-100445473D01*
X111708564Y-100445473D01*
X111708685Y-100443459D01*
X111709002Y-100435379D01*
X111709424Y-100422919D01*
X111709943Y-100406365D01*
X111710552Y-100386000D01*
X111711245Y-100362108D01*
X111712012Y-100334975D01*
X111712849Y-100304885D01*
X111713746Y-100272122D01*
X111714697Y-100236970D01*
X111715695Y-100199715D01*
X111716732Y-100160640D01*
X111717802Y-100120030D01*
X111718896Y-100078169D01*
X111720008Y-100035343D01*
X111721130Y-99991834D01*
X111722256Y-99947929D01*
X111723377Y-99903910D01*
X111724488Y-99860063D01*
X111725579Y-99816672D01*
X111726645Y-99774022D01*
X111727677Y-99732397D01*
X111728670Y-99692081D01*
X111729615Y-99653359D01*
X111730504Y-99616515D01*
X111731332Y-99581834D01*
X111732091Y-99549600D01*
X111732773Y-99520098D01*
X111733371Y-99493612D01*
X111733878Y-99470427D01*
X111734287Y-99450826D01*
X111734590Y-99435095D01*
X111734781Y-99423518D01*
X111734851Y-99416379D01*
X111734798Y-99413965D01*
X111732149Y-99413833D01*
X111724988Y-99413894D01*
X111713798Y-99414132D01*
X111699063Y-99414533D01*
X111681267Y-99415083D01*
X111660893Y-99415768D01*
X111638424Y-99416573D01*
X111614345Y-99417484D01*
X111611203Y-99417607D01*
X111586542Y-99418563D01*
X111563092Y-99419457D01*
X111541391Y-99420271D01*
X111521975Y-99420984D01*
X111505380Y-99421577D01*
X111492143Y-99422031D01*
X111482801Y-99422327D01*
X111477889Y-99422444D01*
X111477762Y-99422445D01*
X111473309Y-99422309D01*
X111469466Y-99421493D01*
X111465456Y-99419463D01*
X111460502Y-99415683D01*
X111453828Y-99409617D01*
X111444656Y-99400729D01*
X111440887Y-99397025D01*
X111415000Y-99371550D01*
X111415000Y-99300000D01*
X113350000Y-99300000D01*
X113550000Y-99300000D01*
X113550000Y-99450000D01*
X113700000Y-99450000D01*
X113700000Y-99473249D01*
X113700244Y-99483688D01*
X113700899Y-99492263D01*
X113701847Y-99497724D01*
X113702398Y-99498898D01*
X113703512Y-99502309D01*
X113704520Y-99509483D01*
X113705274Y-99519182D01*
X113705523Y-99525023D01*
X113706250Y-99548750D01*
X114100000Y-99550030D01*
X114100000Y-99568878D01*
X114100187Y-99578910D01*
X114100986Y-99585402D01*
X114102755Y-99589806D01*
X114105851Y-99593576D01*
X114106136Y-99593863D01*
X114109914Y-99597067D01*
X114114221Y-99598920D01*
X114120508Y-99599778D01*
X114130228Y-99599999D01*
X114131136Y-99600000D01*
X114150000Y-99600000D01*
X114150000Y-99550000D01*
X114250000Y-99550000D01*
X114250000Y-99500000D01*
X114271071Y-99500000D01*
X114282697Y-99499721D01*
X114290312Y-99498783D01*
X114294877Y-99497036D01*
X114296071Y-99496071D01*
X114297116Y-99494515D01*
X114297960Y-99491825D01*
X114298626Y-99487514D01*
X114299133Y-99481093D01*
X114299502Y-99472075D01*
X114299752Y-99459973D01*
X114299905Y-99444298D01*
X114299981Y-99424564D01*
X114300000Y-99402207D01*
X114300000Y-99400256D01*
X115500999Y-99400256D01*
X115502252Y-99409672D01*
X115502294Y-99409910D01*
X115503926Y-99409320D01*
X115506660Y-99406911D01*
X115509376Y-99403054D01*
X115508121Y-99399524D01*
X115507604Y-99398875D01*
X115503602Y-99395010D01*
X115501425Y-99395419D01*
X115500999Y-99400256D01*
X114300000Y-99400256D01*
X114300000Y-99382379D01*
X115100326Y-99382379D01*
X115100463Y-99390739D01*
X115100894Y-99395957D01*
X115101084Y-99396720D01*
X115102463Y-99397921D01*
X115105933Y-99398777D01*
X115112086Y-99399320D01*
X115121517Y-99399583D01*
X115134818Y-99399599D01*
X115150567Y-99399429D01*
X115198750Y-99398750D01*
X115199437Y-99357937D01*
X115200125Y-99317125D01*
X115191562Y-99308562D01*
X115182157Y-99301917D01*
X115172157Y-99299568D01*
X115162573Y-99301586D01*
X115156136Y-99306136D01*
X115152925Y-99309926D01*
X115151071Y-99314249D01*
X115150216Y-99320563D01*
X115150000Y-99330326D01*
X115150000Y-99349818D01*
X115101250Y-99351250D01*
X115100517Y-99372291D01*
X115100326Y-99382379D01*
X114300000Y-99382379D01*
X114300000Y-99312272D01*
X114293863Y-99306136D01*
X114290085Y-99302932D01*
X114285778Y-99301079D01*
X114279491Y-99300221D01*
X114269771Y-99300000D01*
X114250000Y-99300000D01*
X114250000Y-99250000D01*
X114050000Y-99250000D01*
X114050000Y-99200000D01*
X113400000Y-99200000D01*
X113400000Y-99250000D01*
X113350000Y-99250000D01*
X113350000Y-99300000D01*
X111415000Y-99300000D01*
X111415000Y-99231080D01*
X111571875Y-99225459D01*
X111599558Y-99224471D01*
X111625860Y-99223542D01*
X111650339Y-99222685D01*
X111672551Y-99221916D01*
X111692055Y-99221250D01*
X111708407Y-99220702D01*
X111721165Y-99220288D01*
X111729887Y-99220022D01*
X111734130Y-99219919D01*
X111734375Y-99219919D01*
X111736489Y-99219816D01*
X111737993Y-99218955D01*
X111738991Y-99216608D01*
X111739588Y-99212052D01*
X111739885Y-99204560D01*
X111739988Y-99193407D01*
X111740000Y-99180582D01*
X111739999Y-99141164D01*
X111766915Y-99114332D01*
X111793831Y-99087499D01*
X111831335Y-99087500D01*
X111868839Y-99087500D01*
X111894419Y-99113167D01*
X111920000Y-99138835D01*
X111920000Y-99215000D01*
X111943752Y-99215000D01*
X111950584Y-99214931D01*
X111962313Y-99214726D01*
X111978838Y-99214388D01*
X112000058Y-99213919D01*
X112025871Y-99213322D01*
X112056178Y-99212598D01*
X112090875Y-99211752D01*
X112129864Y-99210784D01*
X112173041Y-99209698D01*
X112220307Y-99208495D01*
X112271561Y-99207180D01*
X112326700Y-99205753D01*
X112385625Y-99204217D01*
X112435000Y-99202924D01*
X112498750Y-99201250D01*
X112498357Y-99190000D01*
X112497754Y-99180554D01*
X112496682Y-99169688D01*
X112496126Y-99165230D01*
X112495381Y-99155569D01*
X112496476Y-99148506D01*
X112498455Y-99143980D01*
X112506595Y-99133859D01*
X112517650Y-99127295D01*
X112530223Y-99124999D01*
X112537909Y-99125558D01*
X112544396Y-99127723D01*
X112551062Y-99132224D01*
X112559284Y-99139792D01*
X112560638Y-99141138D01*
X112569499Y-99150000D01*
X112630912Y-99150000D01*
X112650730Y-99150041D01*
X112666128Y-99149996D01*
X112677682Y-99149615D01*
X112685969Y-99148646D01*
X112691565Y-99146838D01*
X112695048Y-99143939D01*
X112696995Y-99139699D01*
X112697981Y-99133865D01*
X112698584Y-99126187D01*
X112699023Y-99120324D01*
X112700718Y-99099999D01*
X112745359Y-99099999D01*
X112761434Y-99099962D01*
X112773272Y-99099798D01*
X112781635Y-99099430D01*
X112787286Y-99098783D01*
X112790988Y-99097779D01*
X112793502Y-99096341D01*
X112795000Y-99095000D01*
X112795918Y-99093982D01*
X112796716Y-99092669D01*
X112797403Y-99090726D01*
X112797987Y-99087815D01*
X112798476Y-99083603D01*
X112798879Y-99077754D01*
X112799203Y-99069932D01*
X112799458Y-99059801D01*
X112799652Y-99047028D01*
X112799793Y-99031276D01*
X112799890Y-99012209D01*
X112799950Y-98989493D01*
X112799983Y-98962792D01*
X112799997Y-98931770D01*
X112799999Y-98900000D01*
X115500000Y-98900000D01*
X115550000Y-98900000D01*
X115550000Y-99050000D01*
X115600000Y-99050000D01*
X115600000Y-99100000D01*
X115650000Y-99100000D01*
X115650000Y-99150000D01*
X115700000Y-99150000D01*
X115700000Y-99200000D01*
X115650000Y-99200000D01*
X115650000Y-99350000D01*
X115750000Y-99350000D01*
X115750000Y-99328928D01*
X115750320Y-99316507D01*
X115751718Y-99308238D01*
X115754848Y-99303291D01*
X115760364Y-99300834D01*
X115768920Y-99300039D01*
X115772792Y-99300000D01*
X115781927Y-99300356D01*
X115787875Y-99301772D01*
X115792422Y-99304768D01*
X115793863Y-99306136D01*
X115797067Y-99309914D01*
X115798920Y-99314221D01*
X115799778Y-99320508D01*
X115799999Y-99330228D01*
X115800000Y-99331136D01*
X115800000Y-99350000D01*
X115899589Y-99350000D01*
X115900419Y-99332300D01*
X115900604Y-99323070D01*
X115900298Y-99315659D01*
X115899569Y-99311623D01*
X115899536Y-99311560D01*
X115898580Y-99307787D01*
X115900902Y-99304983D01*
X115906978Y-99302956D01*
X115917284Y-99301510D01*
X115925795Y-99300835D01*
X115950000Y-99299245D01*
X115950000Y-99250000D01*
X116000000Y-99250000D01*
X116000000Y-99268863D01*
X116000186Y-99278899D01*
X116000985Y-99285393D01*
X116002751Y-99289798D01*
X116005841Y-99293566D01*
X116006136Y-99293863D01*
X116008611Y-99296161D01*
X116011267Y-99297799D01*
X116014940Y-99298889D01*
X116020467Y-99299543D01*
X116028684Y-99299871D01*
X116040430Y-99299986D01*
X116052207Y-99300000D01*
X116067774Y-99299921D01*
X116079090Y-99299640D01*
X116086907Y-99299089D01*
X116091971Y-99298202D01*
X116095033Y-99296912D01*
X116096071Y-99296071D01*
X116097594Y-99293746D01*
X116098680Y-99289804D01*
X116099395Y-99283494D01*
X116099806Y-99274068D01*
X116099980Y-99260777D01*
X116100000Y-99252207D01*
X116099972Y-99237227D01*
X116099816Y-99226409D01*
X116099419Y-99218918D01*
X116098670Y-99213915D01*
X116097458Y-99210565D01*
X116095671Y-99208029D01*
X116093863Y-99206136D01*
X116090085Y-99202932D01*
X116085778Y-99201079D01*
X116079491Y-99200221D01*
X116069771Y-99200000D01*
X116050000Y-99200000D01*
X116050000Y-99150000D01*
X116069375Y-99149870D01*
X116077767Y-99149843D01*
X116090080Y-99149841D01*
X116105234Y-99149863D01*
X116122149Y-99149908D01*
X116139746Y-99149972D01*
X116144375Y-99149993D01*
X116200000Y-99150245D01*
X116200000Y-99100000D01*
X116000000Y-99100000D01*
X116000000Y-99050000D01*
X116150000Y-99050000D01*
X116150000Y-98950000D01*
X116200000Y-98950000D01*
X116200000Y-99000000D01*
X116250000Y-99000000D01*
X116250000Y-99050000D01*
X116300000Y-99050000D01*
X116300000Y-98850000D01*
X116200000Y-98850000D01*
X116200000Y-98900000D01*
X116050000Y-98900000D01*
X116050000Y-98950000D01*
X115750000Y-98950000D01*
X115750000Y-98900000D01*
X115650000Y-98900000D01*
X115650000Y-98850000D01*
X115550000Y-98850000D01*
X115550000Y-98800000D01*
X115500000Y-98800000D01*
X115500000Y-98900000D01*
X112799999Y-98900000D01*
X112799999Y-98896093D01*
X112800000Y-98895090D01*
X112800000Y-98750000D01*
X116050000Y-98750000D01*
X116100000Y-98750000D01*
X116100000Y-98800000D01*
X116150000Y-98800000D01*
X116150000Y-98850000D01*
X116200000Y-98850000D01*
X116200000Y-98750000D01*
X116150000Y-98750000D01*
X116150000Y-98700000D01*
X116050000Y-98700000D01*
X116050000Y-98750000D01*
X112800000Y-98750000D01*
X112800000Y-98700181D01*
X112824375Y-98699465D01*
X112848750Y-98698750D01*
X112849427Y-98649375D01*
X112850105Y-98600000D01*
X112870052Y-98599999D01*
X112882721Y-98599583D01*
X112891232Y-98597792D01*
X112896398Y-98593818D01*
X112899029Y-98586850D01*
X112899937Y-98576078D01*
X112899999Y-98570090D01*
X112900000Y-98550181D01*
X112924375Y-98549465D01*
X112948750Y-98548750D01*
X112949465Y-98524375D01*
X112950181Y-98500000D01*
X112970090Y-98499999D01*
X112982733Y-98499584D01*
X112991231Y-98497796D01*
X112996391Y-98493825D01*
X112999023Y-98486861D01*
X112999935Y-98476093D01*
X112999999Y-98470000D01*
X113000000Y-98450000D01*
X113100000Y-98450000D01*
X113100000Y-98430435D01*
X113100174Y-98420209D01*
X113100907Y-98413616D01*
X113102513Y-98409297D01*
X113105307Y-98405893D01*
X113105786Y-98405435D01*
X113109598Y-98402572D01*
X113114374Y-98400915D01*
X113121513Y-98400160D01*
X113130786Y-98400000D01*
X113150000Y-98400000D01*
X113150000Y-98350105D01*
X113199375Y-98349427D01*
X113248750Y-98348750D01*
X113249465Y-98324375D01*
X113250181Y-98300000D01*
X113522090Y-98300000D01*
X113567181Y-98300012D01*
X113607488Y-98300052D01*
X113643227Y-98300120D01*
X113674614Y-98300220D01*
X113701865Y-98300355D01*
X113725197Y-98300525D01*
X113744825Y-98300734D01*
X113760965Y-98300984D01*
X113773834Y-98301277D01*
X113783646Y-98301616D01*
X113790620Y-98302003D01*
X113794970Y-98302441D01*
X113796912Y-98302931D01*
X113797000Y-98303000D01*
X113798612Y-98307253D01*
X113799639Y-98315808D01*
X113799999Y-98327991D01*
X113800000Y-98328000D01*
X113800000Y-98350000D01*
X113900000Y-98350000D01*
X113900000Y-98367692D01*
X113900185Y-98377269D01*
X113901055Y-98383460D01*
X113903080Y-98387871D01*
X113906730Y-98392111D01*
X113907307Y-98392692D01*
X113914615Y-98399999D01*
X113957307Y-98399999D01*
X114000000Y-98400000D01*
X114000000Y-98450000D01*
X114100000Y-98450000D01*
X114100000Y-98467692D01*
X114100185Y-98477269D01*
X114101055Y-98483460D01*
X114103080Y-98487871D01*
X114106730Y-98492111D01*
X114107307Y-98492692D01*
X114114615Y-98499999D01*
X114157217Y-98499999D01*
X114199818Y-98500000D01*
X114201250Y-98548750D01*
X114350000Y-98550074D01*
X114350000Y-98600000D01*
X114422000Y-98600000D01*
X114444846Y-98600064D01*
X114463052Y-98600266D01*
X114476977Y-98600621D01*
X114486979Y-98601143D01*
X114493418Y-98601846D01*
X114496651Y-98602744D01*
X114497000Y-98603000D01*
X114498612Y-98607253D01*
X114499639Y-98615808D01*
X114499999Y-98627991D01*
X114500000Y-98628000D01*
X114500000Y-98650000D01*
X114650000Y-98650000D01*
X114650000Y-98600000D01*
X114720000Y-98599999D01*
X114742108Y-98600012D01*
X114759726Y-98599924D01*
X114773362Y-98599544D01*
X114783523Y-98598681D01*
X114790719Y-98597146D01*
X114795458Y-98594748D01*
X114798247Y-98591297D01*
X114799597Y-98586602D01*
X114800014Y-98580473D01*
X114800008Y-98572719D01*
X114800000Y-98570037D01*
X114800000Y-98550074D01*
X114948750Y-98548750D01*
X114949465Y-98524375D01*
X114950181Y-98500000D01*
X115299818Y-98500000D01*
X115301250Y-98548750D01*
X115448750Y-98548750D01*
X115449427Y-98499375D01*
X115450105Y-98450000D01*
X115500000Y-98450000D01*
X115500000Y-98430435D01*
X115500174Y-98420209D01*
X115500907Y-98413616D01*
X115502513Y-98409297D01*
X115505307Y-98405893D01*
X115505786Y-98405435D01*
X115509598Y-98402572D01*
X115514374Y-98400915D01*
X115521513Y-98400160D01*
X115530786Y-98400000D01*
X115550000Y-98400000D01*
X115550000Y-98375052D01*
X115549999Y-98350105D01*
X115599375Y-98349427D01*
X115648750Y-98348750D01*
X115649465Y-98324375D01*
X115650181Y-98300000D01*
X115670090Y-98299999D01*
X115682733Y-98299584D01*
X115691231Y-98297796D01*
X115696391Y-98293825D01*
X115699023Y-98286861D01*
X115699935Y-98276093D01*
X115700000Y-98270000D01*
X115700000Y-98250000D01*
X115750000Y-98250000D01*
X115750000Y-98200000D01*
X115850000Y-98200000D01*
X115850000Y-98150000D01*
X115900000Y-98150000D01*
X115900000Y-98130435D01*
X115900174Y-98120209D01*
X115900907Y-98113616D01*
X115902513Y-98109297D01*
X115905307Y-98105893D01*
X115905786Y-98105435D01*
X115909598Y-98102572D01*
X115914374Y-98100915D01*
X115921513Y-98100160D01*
X115930786Y-98100000D01*
X115950000Y-98100000D01*
X115950000Y-98050000D01*
X116150000Y-98050000D01*
X116150000Y-98400000D01*
X116174909Y-98399999D01*
X116199818Y-98399999D01*
X116200534Y-98424374D01*
X116201250Y-98448750D01*
X116225535Y-98449464D01*
X116249821Y-98450178D01*
X116250535Y-98474464D01*
X116251250Y-98498750D01*
X116275535Y-98499464D01*
X116299821Y-98500178D01*
X116300535Y-98524464D01*
X116301250Y-98548750D01*
X116325625Y-98549465D01*
X116350000Y-98550181D01*
X116350000Y-98600000D01*
X116650000Y-98600000D01*
X116650000Y-98800000D01*
X116634705Y-98800000D01*
X116625920Y-98800235D01*
X116620116Y-98801462D01*
X116615277Y-98804463D01*
X116609705Y-98809705D01*
X116604264Y-98815523D01*
X116601360Y-98820381D01*
X116600202Y-98826309D01*
X116600000Y-98834615D01*
X116600000Y-98849818D01*
X116551250Y-98851250D01*
X116550534Y-98875624D01*
X116549818Y-98899999D01*
X116534615Y-98899999D01*
X116525852Y-98900240D01*
X116520055Y-98901487D01*
X116515196Y-98904532D01*
X116509705Y-98909705D01*
X116500000Y-98919411D01*
X116500000Y-99000000D01*
X116480000Y-99000000D01*
X116471705Y-98999965D01*
X116465095Y-99000202D01*
X116459981Y-99001217D01*
X116456171Y-99003521D01*
X116453473Y-99007622D01*
X116451698Y-99014028D01*
X116450654Y-99023248D01*
X116450149Y-99035790D01*
X116449994Y-99052164D01*
X116449996Y-99072879D01*
X116450000Y-99079909D01*
X116450000Y-99149818D01*
X116401250Y-99151250D01*
X116399818Y-99200000D01*
X116350000Y-99200000D01*
X116350000Y-99250000D01*
X116330000Y-99249999D01*
X116317175Y-99250531D01*
X116308518Y-99252508D01*
X116303273Y-99256501D01*
X116300686Y-99263081D01*
X116300000Y-99272692D01*
X116300515Y-99281201D01*
X116302619Y-99287052D01*
X116307145Y-99292529D01*
X116307307Y-99292692D01*
X116311628Y-99296566D01*
X116315923Y-99298763D01*
X116321796Y-99299751D01*
X116330851Y-99299997D01*
X116332359Y-99300000D01*
X116350103Y-99300000D01*
X116349426Y-99350561D01*
X116348750Y-99401122D01*
X116335834Y-99401186D01*
X116322459Y-99403355D01*
X116311886Y-99409375D01*
X116304626Y-99418732D01*
X116301191Y-99430909D01*
X116300998Y-99436250D01*
X116301250Y-99446250D01*
X116623505Y-99446884D01*
X116674409Y-99446998D01*
X116720462Y-99447131D01*
X116761810Y-99447283D01*
X116798601Y-99447458D01*
X116830983Y-99447656D01*
X116859105Y-99447879D01*
X116883113Y-99448129D01*
X116903156Y-99448406D01*
X116919380Y-99448713D01*
X116931935Y-99449051D01*
X116940968Y-99449422D01*
X116946626Y-99449828D01*
X116949058Y-99450269D01*
X116949130Y-99450315D01*
X116949549Y-99453126D01*
X116949944Y-99460654D01*
X116950314Y-99472614D01*
X116950659Y-99488724D01*
X116950979Y-99508699D01*
X116951275Y-99532257D01*
X116951547Y-99559115D01*
X116951793Y-99588987D01*
X116952015Y-99621591D01*
X116952212Y-99656644D01*
X116952385Y-99693862D01*
X116952534Y-99732961D01*
X116952657Y-99773658D01*
X116952756Y-99815669D01*
X116952831Y-99858711D01*
X116952881Y-99902501D01*
X116952907Y-99946755D01*
X116952908Y-99991188D01*
X116952884Y-100035519D01*
X116952836Y-100079463D01*
X116952764Y-100122737D01*
X116952667Y-100165057D01*
X116952546Y-100206141D01*
X116952401Y-100245703D01*
X116952231Y-100283462D01*
X116952036Y-100319132D01*
X116951818Y-100352432D01*
X116951575Y-100383077D01*
X116951307Y-100410783D01*
X116951016Y-100435268D01*
X116950700Y-100456248D01*
X116950360Y-100473439D01*
X116949995Y-100486558D01*
X116949606Y-100495322D01*
X116949193Y-100499446D01*
X116949076Y-100499728D01*
X116946277Y-100500008D01*
X116938764Y-100500269D01*
X116926821Y-100500511D01*
X116910732Y-100500734D01*
X116890779Y-100500939D01*
X116867246Y-100501125D01*
X116840417Y-100501294D01*
X116810574Y-100501444D01*
X116778002Y-100501577D01*
X116742982Y-100501691D01*
X116705800Y-100501789D01*
X116666737Y-100501868D01*
X116626078Y-100501931D01*
X116584106Y-100501976D01*
X116541104Y-100502005D01*
X116497355Y-100502017D01*
X116453143Y-100502012D01*
X116408751Y-100501990D01*
X116364462Y-100501952D01*
X116320561Y-100501898D01*
X116277329Y-100501828D01*
X116235050Y-100501742D01*
X116194009Y-100501640D01*
X116154487Y-100501523D01*
X116116769Y-100501390D01*
X116081138Y-100501242D01*
X116047877Y-100501079D01*
X116017269Y-100500901D01*
X115989598Y-100500708D01*
X115965147Y-100500500D01*
X115944200Y-100500278D01*
X115927039Y-100500042D01*
X115913949Y-100499791D01*
X115905212Y-100499526D01*
X115901112Y-100499247D01*
X115900833Y-100499166D01*
X115900630Y-100496500D01*
X115900433Y-100489067D01*
X115900243Y-100477099D01*
X115900059Y-100460830D01*
X115899884Y-100440492D01*
X115899717Y-100416318D01*
X115899561Y-100388540D01*
X115899416Y-100357392D01*
X115899382Y-100348750D01*
X116151250Y-100348750D01*
X116160000Y-100348288D01*
X116168691Y-100347826D01*
X116178045Y-100347324D01*
X116178750Y-100347286D01*
X116188864Y-100347197D01*
X116195093Y-100348877D01*
X116198475Y-100353234D01*
X116200050Y-100361176D01*
X116200452Y-100366246D01*
X116202874Y-100380088D01*
X116208268Y-100390134D01*
X116216856Y-100396764D01*
X116218750Y-100397620D01*
X116221888Y-100397899D01*
X116229692Y-100398158D01*
X116241825Y-100398395D01*
X116257954Y-100398609D01*
X116277742Y-100398796D01*
X116300856Y-100398955D01*
X116326960Y-100399085D01*
X116355719Y-100399182D01*
X116386798Y-100399246D01*
X116419862Y-100399274D01*
X116454577Y-100399264D01*
X116486250Y-100399222D01*
X116748750Y-100398750D01*
X116750178Y-100350178D01*
X116798750Y-100348750D01*
X116798750Y-100051250D01*
X116730551Y-100050584D01*
X116662353Y-100049919D01*
X116656176Y-100056096D01*
X116652953Y-100059885D01*
X116651089Y-100064179D01*
X116650224Y-100070433D01*
X116650000Y-100080101D01*
X116650000Y-100100000D01*
X116637252Y-100100000D01*
X116622635Y-100101658D01*
X116611706Y-100106682D01*
X116604387Y-100115144D01*
X116600604Y-100127118D01*
X116600000Y-100135920D01*
X116600000Y-100149818D01*
X116551250Y-100151250D01*
X116549894Y-100249894D01*
X116451250Y-100251250D01*
X116450535Y-100275565D01*
X116449820Y-100299881D01*
X116306228Y-100300565D01*
X116162636Y-100301250D01*
X116156943Y-100306941D01*
X116153882Y-100310726D01*
X116152148Y-100315378D01*
X116151390Y-100322367D01*
X116151250Y-100330691D01*
X116151250Y-100348750D01*
X115899382Y-100348750D01*
X115899282Y-100323106D01*
X115899161Y-100285915D01*
G37*
G36*
X115063925Y-101272850D02*
G01*
X115064835Y-101250641D01*
X115066218Y-101231126D01*
X115068073Y-101215381D01*
X115068335Y-101213750D01*
X115079060Y-101161124D01*
X115093192Y-101111890D01*
X115110923Y-101065613D01*
X115132439Y-101021860D01*
X115157929Y-100980197D01*
X115186726Y-100941250D01*
X115217829Y-100906417D01*
X115252233Y-100874916D01*
X115289479Y-100847045D01*
X115329106Y-100823103D01*
X115370655Y-100803388D01*
X115413665Y-100788200D01*
X115428879Y-100784033D01*
X115447701Y-100779436D01*
X115464293Y-100775855D01*
X115479759Y-100773169D01*
X115495203Y-100771257D01*
X115511728Y-100769998D01*
X115530438Y-100769269D01*
X115552436Y-100768950D01*
X115566250Y-100768905D01*
X115586855Y-100768946D01*
X115603428Y-100769138D01*
X115616938Y-100769539D01*
X115628351Y-100770207D01*
X115638636Y-100771201D01*
X115648760Y-100772579D01*
X115659691Y-100774401D01*
X115661101Y-100774652D01*
X115709071Y-100785403D01*
X115753964Y-100800005D01*
X115796045Y-100818590D01*
X115835578Y-100841291D01*
X115872828Y-100868240D01*
X115904636Y-100896250D01*
X115934979Y-100927654D01*
X115961321Y-100960002D01*
X115984569Y-100994536D01*
X116005629Y-101032500D01*
X116008841Y-101038943D01*
X116029359Y-101086104D01*
X116045437Y-101135123D01*
X116057115Y-101186173D01*
X116064429Y-101239428D01*
X116067417Y-101295061D01*
X116067500Y-101306250D01*
X116065319Y-101361719D01*
X116058823Y-101415298D01*
X116048079Y-101466806D01*
X116033154Y-101516058D01*
X116014115Y-101562874D01*
X115991030Y-101607070D01*
X115963966Y-101648465D01*
X115932991Y-101686875D01*
X115922864Y-101697876D01*
X115887585Y-101731564D01*
X115849789Y-101760938D01*
X115809460Y-101786008D01*
X115766580Y-101806782D01*
X115721130Y-101823270D01*
X115673092Y-101835482D01*
X115655000Y-101838861D01*
X115646266Y-101839966D01*
X115633909Y-101841018D01*
X115618859Y-101841986D01*
X115602046Y-101842838D01*
X115584402Y-101843543D01*
X115566856Y-101844069D01*
X115550340Y-101844385D01*
X115535784Y-101844461D01*
X115524118Y-101844263D01*
X115516273Y-101843762D01*
X115515000Y-101843582D01*
X115509732Y-101842800D01*
X115501052Y-101841632D01*
X115490511Y-101840285D01*
X115486250Y-101839758D01*
X115469679Y-101837147D01*
X115450279Y-101833164D01*
X115429673Y-101828220D01*
X115409485Y-101822726D01*
X115391340Y-101817091D01*
X115379404Y-101812765D01*
X115334657Y-101792508D01*
X115293213Y-101768595D01*
X115254990Y-101740950D01*
X115219908Y-101709496D01*
X115187889Y-101674157D01*
X115158850Y-101634856D01*
X115132713Y-101591516D01*
X115118489Y-101563750D01*
X115098984Y-101518614D01*
X115083720Y-101472718D01*
X115072320Y-101424842D01*
X115068377Y-101402500D01*
X115066456Y-101386696D01*
X115065007Y-101367137D01*
X115064029Y-101344898D01*
X115063522Y-101321054D01*
X115063488Y-101296836D01*
X115166762Y-101296836D01*
X115166872Y-101322039D01*
X115167744Y-101346176D01*
X115169378Y-101367826D01*
X115171051Y-101381250D01*
X115180669Y-101430151D01*
X115193949Y-101475886D01*
X115210808Y-101518361D01*
X115231160Y-101557480D01*
X115254924Y-101593150D01*
X115282016Y-101625277D01*
X115312352Y-101653766D01*
X115345848Y-101678524D01*
X115382422Y-101699457D01*
X115421990Y-101716469D01*
X115464468Y-101729468D01*
X115483750Y-101733829D01*
X115506523Y-101737332D01*
X115532686Y-101739472D01*
X115560819Y-101740260D01*
X115589506Y-101739707D01*
X115617328Y-101737826D01*
X115642866Y-101734628D01*
X115654846Y-101732433D01*
X115682952Y-101725423D01*
X115711556Y-101716179D01*
X115738479Y-101705446D01*
X115751038Y-101699550D01*
X115785847Y-101679422D01*
X115818455Y-101655018D01*
X115848511Y-101626708D01*
X115875661Y-101594862D01*
X115899555Y-101559849D01*
X115919665Y-101522411D01*
X115936232Y-101481666D01*
X115948944Y-101438379D01*
X115957809Y-101393186D01*
X115962834Y-101346722D01*
X115964025Y-101299622D01*
X115961388Y-101252524D01*
X115954930Y-101206061D01*
X115944659Y-101160870D01*
X115930579Y-101117587D01*
X115915100Y-101081694D01*
X115894842Y-101045196D01*
X115871045Y-101011319D01*
X115844137Y-100980515D01*
X115814547Y-100953236D01*
X115782701Y-100929936D01*
X115757866Y-100915485D01*
X115719751Y-100898404D01*
X115679101Y-100885487D01*
X115636289Y-100876834D01*
X115596549Y-100872792D01*
X115549094Y-100872367D01*
X115503611Y-100876467D01*
X115460263Y-100884956D01*
X115419212Y-100897695D01*
X115380623Y-100914550D01*
X115344659Y-100935383D01*
X115311482Y-100960057D01*
X115281257Y-100988436D01*
X115254146Y-101020383D01*
X115230313Y-101055761D01*
X115209922Y-101094433D01*
X115193135Y-101136263D01*
X115180115Y-101181115D01*
X115171027Y-101228851D01*
X115171004Y-101229015D01*
X115168827Y-101248904D01*
X115167413Y-101271984D01*
X115166762Y-101296836D01*
X115063488Y-101296836D01*
X115063488Y-101296680D01*
X115063925Y-101272850D01*
G37*
G36*
X128227880Y-116192509D02*
G01*
X128308215Y-116299075D01*
X128373353Y-116493027D01*
X128425094Y-116778979D01*
X128449268Y-116984766D01*
X128467014Y-117156531D01*
X128494055Y-117413127D01*
X128528851Y-117740171D01*
X128569861Y-118123281D01*
X128615545Y-118548073D01*
X128664362Y-119000166D01*
X128714771Y-119465176D01*
X128726367Y-119571872D01*
X128774411Y-120014759D01*
X128819069Y-120428403D01*
X128859181Y-120801907D01*
X128893586Y-121124375D01*
X128921124Y-121384909D01*
X128940633Y-121572614D01*
X128950953Y-121676592D01*
X128952269Y-121692697D01*
X128964955Y-121736490D01*
X128976585Y-121722201D01*
X128987609Y-121662365D01*
X129009272Y-121516871D01*
X129039828Y-121299093D01*
X129077535Y-121022403D01*
X129120646Y-120700175D01*
X129167419Y-120345784D01*
X129216108Y-119972603D01*
X129264969Y-119594006D01*
X129312258Y-119223366D01*
X129356230Y-118874058D01*
X129395141Y-118559455D01*
X129427246Y-118292931D01*
X129450802Y-118087859D01*
X129451733Y-118079372D01*
X129490222Y-117783845D01*
X129534026Y-117574146D01*
X129588297Y-117436299D01*
X129658190Y-117356329D01*
X129730135Y-117324296D01*
X129866641Y-117330116D01*
X129975528Y-117425615D01*
X130059550Y-117613973D01*
X130092936Y-117743222D01*
X130146970Y-117986884D01*
X130213213Y-118278632D01*
X130288218Y-118603955D01*
X130368534Y-118948341D01*
X130450710Y-119297279D01*
X130531296Y-119636257D01*
X130606843Y-119950764D01*
X130673900Y-120226288D01*
X130729017Y-120448319D01*
X130768744Y-120602345D01*
X130789631Y-120673854D01*
X130789799Y-120674264D01*
X130819145Y-120722953D01*
X130847413Y-120700381D01*
X130885770Y-120594823D01*
X130895443Y-120563357D01*
X130952023Y-120398750D01*
X131016906Y-120284708D01*
X131108444Y-120212038D01*
X131244990Y-120171543D01*
X131444895Y-120154027D01*
X131719822Y-120150295D01*
X132291748Y-120150295D01*
X132291748Y-120795273D01*
X131389028Y-120823969D01*
X131166066Y-121372888D01*
X131037175Y-121671044D01*
X130926865Y-121878973D01*
X130828781Y-122003090D01*
X130736570Y-122049808D01*
X130643878Y-122025539D01*
X130575020Y-121969464D01*
X130542983Y-121933137D01*
X130514591Y-121885163D01*
X130485596Y-121811221D01*
X130451751Y-121696994D01*
X130408807Y-121528163D01*
X130352517Y-121290407D01*
X130279609Y-120973674D01*
X130213941Y-120686818D01*
X130137206Y-120351615D01*
X130060605Y-120017005D01*
X130014545Y-119815803D01*
X129960998Y-119586440D01*
X129915115Y-119398418D01*
X129881431Y-119269718D01*
X129864482Y-119218322D01*
X129863801Y-119218190D01*
X129854818Y-119268633D01*
X129835070Y-119405480D01*
X129806254Y-119616113D01*
X129770066Y-119887911D01*
X129728204Y-120208257D01*
X129682363Y-120564532D01*
X129674576Y-120625570D01*
X129586529Y-121316226D01*
X129510050Y-121914688D01*
X129444134Y-122427769D01*
X129387775Y-122862283D01*
X129339967Y-123225045D01*
X129299704Y-123522868D01*
X129265978Y-123762565D01*
X129237786Y-123950952D01*
X129214120Y-124094841D01*
X129193974Y-124201047D01*
X129176342Y-124276382D01*
X129160218Y-124327663D01*
X129144596Y-124361701D01*
X129128470Y-124385310D01*
X129117574Y-124397926D01*
X128998746Y-124480181D01*
X128882540Y-124462780D01*
X128787363Y-124370123D01*
X128762799Y-124318744D01*
X128737059Y-124226309D01*
X128708997Y-124084841D01*
X128677470Y-123886362D01*
X128641335Y-123622894D01*
X128599447Y-123286459D01*
X128550664Y-122869080D01*
X128493841Y-122362777D01*
X128474631Y-122188489D01*
X128401734Y-121526036D01*
X128338718Y-120956297D01*
X128284806Y-120472752D01*
X128239225Y-120068883D01*
X128201199Y-119738169D01*
X128169954Y-119474092D01*
X128144715Y-119270132D01*
X128124707Y-119119770D01*
X128109155Y-119016487D01*
X128097285Y-118953763D01*
X128088321Y-118925079D01*
X128086473Y-118922492D01*
X128070843Y-118956254D01*
X128050884Y-119066131D01*
X128030782Y-119228799D01*
X128029808Y-119238294D01*
X128020154Y-119330734D01*
X128009139Y-119429354D01*
X127995471Y-119543918D01*
X127977857Y-119684192D01*
X127955005Y-119859943D01*
X127925623Y-120080935D01*
X127888419Y-120356935D01*
X127842100Y-120697707D01*
X127785374Y-121113017D01*
X127716949Y-121612632D01*
X127678641Y-121892034D01*
X127626150Y-122256093D01*
X127579029Y-122532222D01*
X127533365Y-122731864D01*
X127485244Y-122866461D01*
X127430754Y-122947454D01*
X127365983Y-122986287D01*
X127301571Y-122994696D01*
X127196690Y-122964463D01*
X127117137Y-122867062D01*
X127058205Y-122692441D01*
X127015180Y-122430549D01*
X127008282Y-122368833D01*
X126988699Y-122174825D01*
X126962796Y-121906308D01*
X126932914Y-121588197D01*
X126901397Y-121245412D01*
X126871513Y-120913331D01*
X126843733Y-120610113D01*
X126817864Y-120344971D01*
X126795450Y-120132372D01*
X126778033Y-119986783D01*
X126767157Y-119922671D01*
X126765681Y-119921025D01*
X126747499Y-119971909D01*
X126706943Y-120103261D01*
X126648657Y-120299471D01*
X126577284Y-120544928D01*
X126505861Y-120794467D01*
X126423668Y-121076101D01*
X126346342Y-121327206D01*
X126279451Y-121530740D01*
X126228566Y-121669663D01*
X126201911Y-121724396D01*
X126091572Y-121789968D01*
X125960715Y-121781684D01*
X125850650Y-121704033D01*
X125837298Y-121684774D01*
X125795490Y-121588233D01*
X125740801Y-121422316D01*
X125682071Y-121215058D01*
X125652423Y-121098429D01*
X125587033Y-120847191D01*
X125532053Y-120669766D01*
X125490051Y-120572236D01*
X125463600Y-120560685D01*
X125455206Y-120631598D01*
X125441258Y-120731243D01*
X125390775Y-120803342D01*
X125290800Y-120852020D01*
X125128376Y-120881398D01*
X124890546Y-120895601D01*
X124615422Y-120898821D01*
X123958153Y-120898821D01*
X123958153Y-120250098D01*
X124478759Y-120250098D01*
X124715399Y-120248132D01*
X124870425Y-120240296D01*
X124961983Y-120223688D01*
X125008217Y-120195407D01*
X125024667Y-120162770D01*
X125122973Y-119826784D01*
X125200721Y-119574848D01*
X125264219Y-119394894D01*
X125319777Y-119274854D01*
X125373705Y-119202658D01*
X125432312Y-119166239D01*
X125501908Y-119153527D01*
X125552981Y-119152260D01*
X125623951Y-119165233D01*
X125683479Y-119213454D01*
X125738426Y-119310878D01*
X125795650Y-119471458D01*
X125862011Y-119709147D01*
X125899982Y-119858156D01*
X126041764Y-120424755D01*
X126144006Y-120075442D01*
X126200492Y-119878925D01*
X126272480Y-119623437D01*
X126349488Y-119346371D01*
X126402774Y-119152260D01*
X126499460Y-118805535D01*
X126578109Y-118543783D01*
X126643420Y-118354793D01*
X126700091Y-118226358D01*
X126752819Y-118146270D01*
X126806301Y-118102319D01*
X126806899Y-118101997D01*
X126936203Y-118080230D01*
X127051875Y-118147772D01*
X127137415Y-118294170D01*
X127144710Y-118316022D01*
X127165855Y-118420800D01*
X127191114Y-118603931D01*
X127218015Y-118844181D01*
X127244089Y-119120315D01*
X127257932Y-119289489D01*
X127280561Y-119561002D01*
X127303229Y-119793874D01*
X127324062Y-119971592D01*
X127341190Y-120077640D01*
X127349861Y-120100393D01*
X127357995Y-120093896D01*
X127367302Y-120069092D01*
X127378912Y-120018013D01*
X127393957Y-119932694D01*
X127413566Y-119805165D01*
X127438870Y-119627460D01*
X127471000Y-119391612D01*
X127511085Y-119089652D01*
X127560257Y-118713613D01*
X127619645Y-118255529D01*
X127690380Y-117707431D01*
X127700326Y-117630256D01*
X127756009Y-117211555D01*
X127804898Y-116881538D01*
X127850121Y-116629576D01*
X127894806Y-116445045D01*
X127942082Y-116317317D01*
X127995075Y-116235766D01*
X128056915Y-116189765D01*
X128130543Y-116168716D01*
X128227880Y-116192509D01*
G37*
%TD*%
D11*
%TO.C,C19*%
X174100000Y-95799999D03*
X172200000Y-95799999D03*
%TD*%
D12*
%TO.C,R15*%
X175900000Y-117687500D03*
X175900000Y-119512500D03*
%TD*%
D13*
%TO.C,C16*%
X168440001Y-106444906D03*
X168440001Y-105484906D03*
%TD*%
D14*
%TO.C,R18*%
X169440000Y-116984906D03*
X169440000Y-115964906D03*
%TD*%
D15*
%TO.C,C45*%
X147050000Y-113571770D03*
X147050000Y-114531770D03*
%TD*%
D16*
%TO.C,U1*%
X132599999Y-104629269D03*
X133099999Y-104629269D03*
X133599999Y-104629269D03*
X134099999Y-104629269D03*
X134099999Y-101854269D03*
X133599999Y-101854269D03*
X133099999Y-101854269D03*
X132599999Y-101854269D03*
D17*
X133349999Y-103241769D03*
%TD*%
D14*
%TO.C,R29*%
X164140000Y-116984906D03*
X164140000Y-115964906D03*
%TD*%
D13*
%TO.C,C24*%
X166440000Y-106454906D03*
X166440000Y-105494906D03*
%TD*%
D14*
%TO.C,R32*%
X163140001Y-106484906D03*
X163140001Y-105464906D03*
%TD*%
D18*
%TO.C,R28*%
X139050000Y-112991769D03*
X140070000Y-112991769D03*
%TD*%
D19*
%TO.C,R30*%
X163140000Y-115964906D03*
X163140000Y-116984906D03*
%TD*%
D11*
%TO.C,C4*%
X174100000Y-119950000D03*
X172200000Y-119950000D03*
%TD*%
D15*
%TO.C,C14*%
X168440000Y-115994906D03*
X168440000Y-116954906D03*
%TD*%
D20*
%TO.C,R36*%
X132847500Y-113491769D03*
X131827500Y-113491769D03*
%TD*%
D21*
%TO.C,U8*%
X137325000Y-113741769D03*
X137325000Y-113241769D03*
X137325000Y-112741769D03*
X137325000Y-112241769D03*
X134550000Y-112241769D03*
X134550000Y-112741769D03*
X134550000Y-113241769D03*
X134550000Y-113741769D03*
D22*
X135937500Y-112991769D03*
%TD*%
D23*
%TO.C,C44*%
X146070000Y-99141769D03*
X147030000Y-99141769D03*
%TD*%
D19*
%TO.C,R5*%
X133350000Y-106331769D03*
X133350000Y-107351769D03*
%TD*%
D24*
%TO.C,C64*%
X137495406Y-106796363D03*
X139404594Y-104887175D03*
%TD*%
D25*
%TO.C,C67*%
X166250000Y-98600000D03*
X168950000Y-98600000D03*
%TD*%
D26*
%TO.C,J2*%
X179310000Y-112600000D03*
D27*
X180810000Y-111125000D03*
X180810000Y-114075000D03*
D26*
X182310000Y-112600000D03*
%TD*%
D14*
%TO.C,R12*%
X132850001Y-100151770D03*
X132850001Y-99131770D03*
%TD*%
D28*
%TO.C,C26*%
X120525000Y-103099906D03*
X125450000Y-103099906D03*
%TD*%
D19*
%TO.C,R31*%
X164140000Y-105464907D03*
X164140000Y-106484907D03*
%TD*%
D11*
%TO.C,C6*%
X174100000Y-115850000D03*
X172200000Y-115850000D03*
%TD*%
D12*
%TO.C,R35*%
X175900000Y-107687500D03*
X175900000Y-109512500D03*
%TD*%
D18*
%TO.C,R16*%
X146040000Y-101141769D03*
X147060000Y-101141769D03*
%TD*%
D20*
%TO.C,R14*%
X139860000Y-99641769D03*
X138840000Y-99641769D03*
%TD*%
D29*
%TO.C,H1*%
X114000000Y-93000000D03*
D30*
X114000000Y-93000000D03*
%TD*%
D31*
%TO.C,U5*%
X141562500Y-99891769D03*
X141562500Y-100391769D03*
X141562500Y-100891769D03*
X141562500Y-101391769D03*
X144337500Y-101391769D03*
X144337500Y-100891769D03*
X144337500Y-100391769D03*
X144337500Y-99891769D03*
D22*
X142950000Y-100641769D03*
%TD*%
D13*
%TO.C,C62*%
X165290000Y-116954906D03*
X165290000Y-115994906D03*
%TD*%
D11*
%TO.C,C5*%
X174100000Y-117900000D03*
X172200000Y-117900000D03*
%TD*%
%TO.C,C40*%
X174100000Y-105850000D03*
X172200000Y-105850000D03*
%TD*%
D14*
%TO.C,R21*%
X167440000Y-106474906D03*
X167440000Y-105454906D03*
%TD*%
D20*
%TO.C,R34*%
X132847500Y-112491769D03*
X131827500Y-112491769D03*
%TD*%
D11*
%TO.C,C22*%
X174100000Y-93749999D03*
X172200000Y-93749999D03*
%TD*%
D18*
%TO.C,R33*%
X139050000Y-113991770D03*
X140070000Y-113991770D03*
%TD*%
D32*
%TO.C,C59*%
X140020000Y-111991770D03*
X139060000Y-111991770D03*
%TD*%
D19*
%TO.C,R25*%
X145050000Y-113541769D03*
X145050000Y-114561769D03*
%TD*%
D28*
%TO.C,C30*%
X120525000Y-110899906D03*
X125450000Y-110899906D03*
%TD*%
D33*
%TO.C,U7*%
X146300000Y-108954268D03*
X145800000Y-108954268D03*
X145300000Y-108954268D03*
X144800000Y-108954268D03*
X144800000Y-111729268D03*
X145300000Y-111729268D03*
X145800000Y-111729268D03*
X146300000Y-111729268D03*
D17*
X145550000Y-110341768D03*
%TD*%
D19*
%TO.C,R19*%
X167440000Y-115964906D03*
X167440000Y-116984906D03*
%TD*%
D28*
%TO.C,C23*%
X120525000Y-99199906D03*
X125450000Y-99199906D03*
%TD*%
D34*
%TO.C,J1*%
X162600000Y-93475000D03*
D35*
X165100000Y-93475000D03*
X167600000Y-93475000D03*
%TD*%
D36*
%TO.C,U4*%
X153950000Y-114524906D03*
X153950000Y-117024906D03*
X153950000Y-119524906D03*
D37*
X152150000Y-111324906D03*
X156150000Y-123224906D03*
%TD*%
D15*
%TO.C,C37*%
X162140000Y-115994906D03*
X162140000Y-116954906D03*
%TD*%
D11*
%TO.C,C17*%
X174100000Y-97850000D03*
X172200000Y-97850000D03*
%TD*%
D13*
%TO.C,C49*%
X165290000Y-106454906D03*
X165290000Y-105494906D03*
%TD*%
D26*
%TO.C,J4*%
X116950000Y-106999906D03*
D27*
X115450000Y-105524906D03*
X115450000Y-108474906D03*
D26*
X113950000Y-106999906D03*
%TD*%
D30*
%TO.C,H3*%
X114000000Y-121000000D03*
D29*
X114000000Y-121000000D03*
%TD*%
D15*
%TO.C,C21*%
X166440000Y-115994906D03*
X166440000Y-116954906D03*
%TD*%
D12*
%TO.C,RISO2*%
X175900000Y-97637500D03*
X175900000Y-99462500D03*
%TD*%
D26*
%TO.C,J5*%
X179260000Y-106700000D03*
X182260000Y-106700000D03*
D27*
X180760000Y-108175000D03*
X180760000Y-105225000D03*
%TD*%
D11*
%TO.C,C7*%
X174100000Y-113799999D03*
X172200000Y-113799999D03*
%TD*%
D26*
%TO.C,J3*%
X179210000Y-101000000D03*
D27*
X180710000Y-99525000D03*
D26*
X182210000Y-101000000D03*
D27*
X180710000Y-102475000D03*
%TD*%
D19*
%TO.C,R20*%
X169439999Y-105454906D03*
X169439999Y-106474906D03*
%TD*%
D25*
%TO.C,C54*%
X161250000Y-98600000D03*
X163950000Y-98600000D03*
%TD*%
D38*
%TO.C,R24*%
X175900000Y-96012500D03*
X175900000Y-94187500D03*
%TD*%
D15*
%TO.C,C58*%
X144550000Y-106261768D03*
X144550000Y-107221768D03*
%TD*%
D38*
%TO.C,R26*%
X127887500Y-106218086D03*
X127887500Y-104393086D03*
%TD*%
D13*
%TO.C,C34*%
X161140000Y-106454906D03*
X161140000Y-105494906D03*
%TD*%
D14*
%TO.C,R11*%
X133850001Y-100151769D03*
X133850001Y-99131769D03*
%TD*%
D39*
%TO.C,TP2*%
X159150000Y-115749906D03*
%TD*%
%TO.C,TP4*%
X159200000Y-104249906D03*
%TD*%
D11*
%TO.C,C13*%
X174100000Y-99900000D03*
X172200000Y-99900000D03*
%TD*%
%TO.C,C42*%
X174100000Y-109950000D03*
X172200000Y-109950000D03*
%TD*%
D15*
%TO.C,C33*%
X161140000Y-115994906D03*
X161140000Y-116954906D03*
%TD*%
D40*
%TO.C,C66*%
X168000000Y-118799906D03*
X165300000Y-118799906D03*
%TD*%
D39*
%TO.C,TP1*%
X159200000Y-109600000D03*
%TD*%
D11*
%TO.C,C41*%
X174100000Y-107900000D03*
X172200000Y-107900000D03*
%TD*%
D14*
%TO.C,R22*%
X145550000Y-107251769D03*
X145550000Y-106231769D03*
%TD*%
%TO.C,R23*%
X146550000Y-107251769D03*
X146550000Y-106231769D03*
%TD*%
D13*
%TO.C,C39*%
X162140000Y-106454906D03*
X162140000Y-105494906D03*
%TD*%
D39*
%TO.C,TP3*%
X159150000Y-122500000D03*
%TD*%
D12*
%TO.C,RISO3*%
X127881426Y-107943086D03*
X127881426Y-109768086D03*
%TD*%
D38*
%TO.C,RISO1*%
X175900000Y-116062500D03*
X175900000Y-114237500D03*
%TD*%
D18*
%TO.C,R17*%
X146040000Y-100141769D03*
X147060000Y-100141769D03*
%TD*%
D19*
%TO.C,R27*%
X146050000Y-113541769D03*
X146050000Y-114561769D03*
%TD*%
%TO.C,R8*%
X132350000Y-106331768D03*
X132350000Y-107351768D03*
%TD*%
D20*
%TO.C,R13*%
X139860000Y-100641769D03*
X138840000Y-100641769D03*
%TD*%
D13*
%TO.C,C43*%
X131850001Y-100121769D03*
X131850001Y-99161769D03*
%TD*%
D41*
%TO.C,RV1*%
X152925000Y-102724906D03*
X155465000Y-105264906D03*
X152925000Y-107804906D03*
%TD*%
D28*
%TO.C,C31*%
X120525000Y-114799906D03*
X125450000Y-114799906D03*
%TD*%
D25*
%TO.C,C52*%
X130900000Y-94441769D03*
X133600000Y-94441769D03*
%TD*%
D40*
%TO.C,C51*%
X148100000Y-119341769D03*
X145400000Y-119341769D03*
%TD*%
D29*
%TO.C,H4*%
X181000000Y-121000000D03*
D30*
X181000000Y-121000000D03*
%TD*%
D32*
%TO.C,C46*%
X132797501Y-114491769D03*
X131837501Y-114491769D03*
%TD*%
D42*
%TO.C,C65*%
X141004594Y-106487175D03*
X139095406Y-108396363D03*
%TD*%
D28*
%TO.C,C1*%
X152737500Y-99449906D03*
X157662500Y-99449906D03*
%TD*%
D38*
%TO.C,RISO4*%
X175900000Y-106062500D03*
X175900000Y-104237500D03*
%TD*%
D30*
%TO.C,H2*%
X181000000Y-93000000D03*
D29*
X181000000Y-93000000D03*
%TD*%
D25*
%TO.C,C53*%
X165300000Y-103699906D03*
X168000000Y-103699906D03*
%TD*%
D23*
%TO.C,C57*%
X138870000Y-101641769D03*
X139830000Y-101641769D03*
%TD*%
D43*
%TO.C,U6*%
X169100000Y-108749906D03*
X167830000Y-108749906D03*
X166560000Y-108749906D03*
X165290000Y-108749906D03*
X164020000Y-108749906D03*
X162750000Y-108749906D03*
X161480000Y-108749906D03*
X161480000Y-113699906D03*
X162750000Y-113699906D03*
X164020000Y-113699906D03*
X165290000Y-113699906D03*
X166560000Y-113699906D03*
X167830000Y-113699906D03*
X169100000Y-113699906D03*
%TD*%
D28*
%TO.C,C28*%
X120525000Y-106999906D03*
X125450000Y-106999906D03*
%TD*%
D11*
%TO.C,C38*%
X174100000Y-103800000D03*
X172200000Y-103800000D03*
%TD*%
D13*
%TO.C,C56*%
X134350000Y-107321769D03*
X134350000Y-106361769D03*
%TD*%
M02*
