%TF.GenerationSoftware,KiCad,Pcbnew,(6.0.5)*%
%TF.CreationDate,2023-02-17T00:10:57+08:00*%
%TF.ProjectId,EmoeNAP,456d6f65-4e41-4502-9e6b-696361645f70,rev?*%
%TF.SameCoordinates,Original*%
%TF.FileFunction,Soldermask,Top*%
%TF.FilePolarity,Negative*%
%FSLAX46Y46*%
G04 Gerber Fmt 4.6, Leading zero omitted, Abs format (unit mm)*
G04 Created by KiCad (PCBNEW (6.0.5)) date 2023-02-17 00:10:57*
%MOMM*%
%LPD*%
G01*
G04 APERTURE LIST*
G04 Aperture macros list*
%AMRoundRect*
0 Rectangle with rounded corners*
0 $1 Rounding radius*
0 $2 $3 $4 $5 $6 $7 $8 $9 X,Y pos of 4 corners*
0 Add a 4 corners polygon primitive as box body*
4,1,4,$2,$3,$4,$5,$6,$7,$8,$9,$2,$3,0*
0 Add four circle primitives for the rounded corners*
1,1,$1+$1,$2,$3*
1,1,$1+$1,$4,$5*
1,1,$1+$1,$6,$7*
1,1,$1+$1,$8,$9*
0 Add four rect primitives between the rounded corners*
20,1,$1+$1,$2,$3,$4,$5,0*
20,1,$1+$1,$4,$5,$6,$7,0*
20,1,$1+$1,$6,$7,$8,$9,0*
20,1,$1+$1,$8,$9,$2,$3,0*%
G04 Aperture macros list end*
%ADD10C,0.600000*%
%ADD11RoundRect,0.250000X0.250000X0.475000X-0.250000X0.475000X-0.250000X-0.475000X0.250000X-0.475000X0*%
%ADD12RoundRect,0.250000X0.725000X-0.600000X0.725000X0.600000X-0.725000X0.600000X-0.725000X-0.600000X0*%
%ADD13O,1.950000X1.700000*%
%ADD14RoundRect,0.250000X-0.450000X0.262500X-0.450000X-0.262500X0.450000X-0.262500X0.450000X0.262500X0*%
%ADD15RoundRect,0.140000X0.170000X-0.140000X0.170000X0.140000X-0.170000X0.140000X-0.170000X-0.140000X0*%
%ADD16RoundRect,0.135000X0.185000X-0.135000X0.185000X0.135000X-0.185000X0.135000X-0.185000X-0.135000X0*%
%ADD17RoundRect,0.140000X0.140000X0.170000X-0.140000X0.170000X-0.140000X-0.170000X0.140000X-0.170000X0*%
%ADD18RoundRect,0.062500X-0.425000X-0.062500X0.425000X-0.062500X0.425000X0.062500X-0.425000X0.062500X0*%
%ADD19R,1.200000X2.000000*%
%ADD20RoundRect,0.135000X-0.185000X0.135000X-0.185000X-0.135000X0.185000X-0.135000X0.185000X0.135000X0*%
%ADD21RoundRect,0.140000X-0.170000X0.140000X-0.170000X-0.140000X0.170000X-0.140000X0.170000X0.140000X0*%
%ADD22RoundRect,0.062500X0.062500X-0.425000X0.062500X0.425000X-0.062500X0.425000X-0.062500X-0.425000X0*%
%ADD23R,2.000000X1.200000*%
%ADD24RoundRect,0.135000X0.135000X0.185000X-0.135000X0.185000X-0.135000X-0.185000X0.135000X-0.185000X0*%
%ADD25RoundRect,0.250000X-0.618718X0.017678X0.017678X-0.618718X0.618718X-0.017678X-0.017678X0.618718X0*%
%ADD26R,1.000000X1.000000*%
%ADD27R,2.200000X1.050000*%
%ADD28RoundRect,0.135000X-0.135000X-0.185000X0.135000X-0.185000X0.135000X0.185000X-0.135000X0.185000X0*%
%ADD29RoundRect,0.250000X-0.925000X0.787500X-0.925000X-0.787500X0.925000X-0.787500X0.925000X0.787500X0*%
%ADD30RoundRect,0.150000X0.150000X-0.512500X0.150000X0.512500X-0.150000X0.512500X-0.150000X-0.512500X0*%
%ADD31C,6.400000*%
%ADD32C,3.600000*%
%ADD33RoundRect,0.062500X-0.062500X0.425000X-0.062500X-0.425000X0.062500X-0.425000X0.062500X0.425000X0*%
%ADD34RoundRect,0.062500X0.425000X0.062500X-0.425000X0.062500X-0.425000X-0.062500X0.425000X-0.062500X0*%
%ADD35C,1.500000*%
%ADD36C,2.000000*%
%ADD37C,1.400000*%
%ADD38RoundRect,0.250000X0.450000X-0.262500X0.450000X0.262500X-0.450000X0.262500X-0.450000X-0.262500X0*%
%ADD39RoundRect,0.250000X-0.262500X-0.450000X0.262500X-0.450000X0.262500X0.450000X-0.262500X0.450000X0*%
%ADD40C,1.000000*%
%ADD41RoundRect,0.250000X0.262500X0.450000X-0.262500X0.450000X-0.262500X-0.450000X0.262500X-0.450000X0*%
%ADD42RoundRect,0.140000X-0.140000X-0.170000X0.140000X-0.170000X0.140000X0.170000X-0.140000X0.170000X0*%
%ADD43C,1.440000*%
%ADD44RoundRect,0.250000X0.618718X-0.017678X-0.017678X0.618718X-0.618718X0.017678X0.017678X-0.618718X0*%
%ADD45RoundRect,0.250000X-0.787500X-0.925000X0.787500X-0.925000X0.787500X0.925000X-0.787500X0.925000X0*%
%ADD46RoundRect,0.150000X-0.150000X0.825000X-0.150000X-0.825000X0.150000X-0.825000X0.150000X0.825000X0*%
G04 APERTURE END LIST*
D10*
X143100000Y-100349953D02*
X143100001Y-103150047D01*
X135099999Y-100349906D02*
X135100000Y-103150000D01*
X121550000Y-91950000D02*
X128899999Y-91949905D01*
X128899999Y-100349906D02*
X128900000Y-95924905D01*
X148911471Y-103149906D02*
X129911471Y-103149906D01*
X121550001Y-95924906D02*
X121550000Y-91950000D01*
X137099999Y-91949906D02*
X128899999Y-91949905D01*
X137099999Y-91949906D02*
X141149999Y-91949905D01*
X129911471Y-122149907D02*
X148911471Y-122149907D01*
X121550001Y-95924906D02*
X128900000Y-95924905D01*
X128899999Y-100349906D02*
X135099999Y-100349906D01*
X149299999Y-100349906D02*
X149299999Y-91949906D01*
X129911471Y-103149906D02*
X129911471Y-122149907D01*
X141149999Y-91949905D02*
X149299999Y-91949906D01*
X143099999Y-100349906D02*
X149299999Y-100349906D01*
X148911471Y-103149906D02*
X148911471Y-122149907D01*
%TO.C,G\u002A\u002A\u002A*%
G36*
X167576896Y-101869205D02*
G01*
X167597050Y-101832994D01*
X167606183Y-101818827D01*
X167631290Y-101784761D01*
X167657946Y-101755282D01*
X167686564Y-101730108D01*
X167717558Y-101708956D01*
X167751341Y-101691545D01*
X167788324Y-101677593D01*
X167828489Y-101666912D01*
X167836971Y-101665161D01*
X167844976Y-101663818D01*
X167853353Y-101662831D01*
X167862948Y-101662146D01*
X167874609Y-101661711D01*
X167889184Y-101661473D01*
X167907519Y-101661380D01*
X167917500Y-101661370D01*
X167937408Y-101661396D01*
X167953215Y-101661523D01*
X167965820Y-101661814D01*
X167976121Y-101662335D01*
X167985018Y-101663150D01*
X167993409Y-101664324D01*
X168002193Y-101665922D01*
X168012268Y-101668008D01*
X168013556Y-101668283D01*
X168056771Y-101679916D01*
X168097174Y-101695676D01*
X168134704Y-101715517D01*
X168169300Y-101739390D01*
X168200902Y-101767251D01*
X168229450Y-101799051D01*
X168254884Y-101834744D01*
X168276254Y-101872509D01*
X168290333Y-101903746D01*
X168301922Y-101936851D01*
X168311304Y-101972759D01*
X168318758Y-102012403D01*
X168319162Y-102015000D01*
X168321248Y-102032961D01*
X168322695Y-102054811D01*
X168323518Y-102079485D01*
X168323734Y-102105913D01*
X168323360Y-102133028D01*
X168322412Y-102159765D01*
X168320906Y-102185054D01*
X168318858Y-102207829D01*
X168316285Y-102227023D01*
X168315882Y-102229375D01*
X168314443Y-102237500D01*
X167627500Y-102237500D01*
X167627545Y-102245625D01*
X167628065Y-102253977D01*
X167629433Y-102266028D01*
X167631471Y-102280582D01*
X167633997Y-102296443D01*
X167636831Y-102312418D01*
X167639792Y-102327312D01*
X167640100Y-102328750D01*
X167651337Y-102371767D01*
X167665714Y-102411029D01*
X167683308Y-102446601D01*
X167704195Y-102478546D01*
X167728449Y-102506927D01*
X167756147Y-102531809D01*
X167787364Y-102553255D01*
X167822176Y-102571330D01*
X167860659Y-102586097D01*
X167902889Y-102597620D01*
X167948941Y-102605962D01*
X167972318Y-102608845D01*
X168011015Y-102611782D01*
X168052018Y-102612759D01*
X168094141Y-102611851D01*
X168136196Y-102609135D01*
X168176997Y-102604684D01*
X168215356Y-102598576D01*
X168248750Y-102591231D01*
X168278899Y-102582477D01*
X168305267Y-102572524D01*
X168329023Y-102560874D01*
X168349570Y-102548231D01*
X168359033Y-102542036D01*
X168367015Y-102537206D01*
X168372608Y-102534263D01*
X168374841Y-102533652D01*
X168376926Y-102536011D01*
X168381347Y-102541690D01*
X168387537Y-102549938D01*
X168394927Y-102560005D01*
X168398321Y-102564690D01*
X168419850Y-102594522D01*
X168416185Y-102615368D01*
X168414538Y-102624295D01*
X168412740Y-102631043D01*
X168410095Y-102636320D01*
X168405905Y-102640834D01*
X168399476Y-102645292D01*
X168390111Y-102650404D01*
X168377114Y-102656876D01*
X168373750Y-102658527D01*
X168331309Y-102676909D01*
X168285267Y-102692224D01*
X168236054Y-102704361D01*
X168184100Y-102713209D01*
X168145000Y-102717501D01*
X168133013Y-102718251D01*
X168117195Y-102718832D01*
X168098467Y-102719247D01*
X168077750Y-102719498D01*
X168055965Y-102719585D01*
X168034034Y-102719512D01*
X168012877Y-102719279D01*
X167993416Y-102718888D01*
X167976572Y-102718341D01*
X167963267Y-102717639D01*
X167957500Y-102717159D01*
X167904874Y-102709801D01*
X167855416Y-102698853D01*
X167809205Y-102684357D01*
X167766321Y-102666358D01*
X167726845Y-102644897D01*
X167690856Y-102620017D01*
X167658434Y-102591761D01*
X167629660Y-102560173D01*
X167607834Y-102530283D01*
X167588225Y-102498281D01*
X167571460Y-102466092D01*
X167557321Y-102433021D01*
X167545591Y-102398372D01*
X167536054Y-102361450D01*
X167528493Y-102321562D01*
X167522691Y-102278012D01*
X167519819Y-102248113D01*
X167518563Y-102227746D01*
X167517852Y-102204120D01*
X167517658Y-102178317D01*
X167517954Y-102151418D01*
X167518713Y-102124504D01*
X167519909Y-102098655D01*
X167521514Y-102074954D01*
X167523500Y-102054480D01*
X167524932Y-102043750D01*
X167533974Y-101994694D01*
X167545532Y-101949573D01*
X167549524Y-101937900D01*
X167662500Y-101937900D01*
X167664945Y-101938186D01*
X167672064Y-101938461D01*
X167683529Y-101938722D01*
X167699014Y-101938965D01*
X167718193Y-101939190D01*
X167740738Y-101939392D01*
X167766322Y-101939570D01*
X167794620Y-101939721D01*
X167825303Y-101939842D01*
X167858047Y-101939930D01*
X167892523Y-101939984D01*
X167924872Y-101940000D01*
X168187244Y-101940000D01*
X168183340Y-101930625D01*
X168168944Y-101901850D01*
X168150490Y-101874264D01*
X168128842Y-101848948D01*
X168104862Y-101826989D01*
X168094860Y-101819423D01*
X168066798Y-101802236D01*
X168036111Y-101788471D01*
X168003439Y-101778138D01*
X167969424Y-101771250D01*
X167934705Y-101767817D01*
X167899923Y-101767851D01*
X167865719Y-101771363D01*
X167832733Y-101778364D01*
X167801607Y-101788867D01*
X167772979Y-101802881D01*
X167756641Y-101813429D01*
X167745467Y-101822346D01*
X167732776Y-101833911D01*
X167719821Y-101846852D01*
X167707854Y-101859894D01*
X167698126Y-101871766D01*
X167695011Y-101876094D01*
X167690887Y-101882654D01*
X167685714Y-101891595D01*
X167680030Y-101901898D01*
X167674372Y-101912541D01*
X167669274Y-101922506D01*
X167665275Y-101930772D01*
X167662911Y-101936319D01*
X167662500Y-101937900D01*
X167549524Y-101937900D01*
X167559781Y-101907904D01*
X167576896Y-101869205D01*
G37*
G36*
X167199161Y-101085915D02*
G01*
X167199054Y-101046052D01*
X167199009Y-101025486D01*
X167450404Y-101025486D01*
X167450528Y-101036227D01*
X167450777Y-101043636D01*
X167451122Y-101046818D01*
X167452293Y-101047572D01*
X167455416Y-101048194D01*
X167460852Y-101048691D01*
X167468961Y-101049070D01*
X167480106Y-101049339D01*
X167494648Y-101049506D01*
X167512947Y-101049577D01*
X167535365Y-101049560D01*
X167562263Y-101049464D01*
X167575555Y-101049398D01*
X167698750Y-101048750D01*
X167699463Y-101024535D01*
X167700177Y-101000320D01*
X167743775Y-100999535D01*
X167759575Y-100999218D01*
X167771161Y-100998854D01*
X167779320Y-100998339D01*
X167784839Y-100997569D01*
X167788503Y-100996442D01*
X167791100Y-100994854D01*
X167793061Y-100993058D01*
X167796120Y-100989270D01*
X167797852Y-100984612D01*
X167798609Y-100977614D01*
X167798750Y-100969308D01*
X167798750Y-100951250D01*
X167451250Y-100951250D01*
X167450566Y-100997419D01*
X167450413Y-101012265D01*
X167450404Y-101025486D01*
X167199009Y-101025486D01*
X167198961Y-101003749D01*
X167198884Y-100959240D01*
X167198824Y-100912757D01*
X167198781Y-100864533D01*
X167198756Y-100814800D01*
X167198750Y-100774706D01*
X167198750Y-100757474D01*
X167300365Y-100757474D01*
X167300499Y-100779124D01*
X167300580Y-100786720D01*
X167301250Y-100848750D01*
X167325625Y-100849465D01*
X167350000Y-100850181D01*
X167350000Y-100873423D01*
X167350172Y-100883757D01*
X167350633Y-100892125D01*
X167351302Y-100897322D01*
X167351699Y-100898366D01*
X167354379Y-100898590D01*
X167361731Y-100898793D01*
X167373431Y-100898974D01*
X167389150Y-100899132D01*
X167408563Y-100899266D01*
X167431342Y-100899373D01*
X167457162Y-100899454D01*
X167485695Y-100899506D01*
X167516615Y-100899529D01*
X167549596Y-100899521D01*
X167584310Y-100899481D01*
X167620380Y-100899408D01*
X167887361Y-100898750D01*
X167893008Y-100893103D01*
X167896116Y-100889089D01*
X167898036Y-100883771D01*
X167899147Y-100875742D01*
X167899600Y-100868728D01*
X167900546Y-100850000D01*
X167921344Y-100850000D01*
X167932869Y-100849718D01*
X167940405Y-100848767D01*
X167944937Y-100846990D01*
X167946109Y-100846032D01*
X167947282Y-100844342D01*
X167948187Y-100841527D01*
X167948849Y-100837028D01*
X167949294Y-100830282D01*
X167949546Y-100820732D01*
X167949630Y-100807815D01*
X167949571Y-100790971D01*
X167949413Y-100771657D01*
X167949117Y-100740257D01*
X168000424Y-100740257D01*
X168000462Y-100756616D01*
X168000801Y-100769165D01*
X168001533Y-100778499D01*
X168002749Y-100785214D01*
X168004542Y-100789904D01*
X168007004Y-100793164D01*
X168010225Y-100795589D01*
X168012549Y-100796883D01*
X168017613Y-100798182D01*
X168026277Y-100799068D01*
X168037445Y-100799560D01*
X168050022Y-100799676D01*
X168062913Y-100799435D01*
X168075021Y-100798854D01*
X168085250Y-100797951D01*
X168092507Y-100796745D01*
X168095507Y-100795507D01*
X168096971Y-100791610D01*
X168098164Y-100783864D01*
X168099049Y-100773413D01*
X168099593Y-100761401D01*
X168099761Y-100748973D01*
X168099519Y-100737272D01*
X168098833Y-100727445D01*
X168097747Y-100720917D01*
X168094805Y-100711742D01*
X168091195Y-100705922D01*
X168085743Y-100702619D01*
X168077278Y-100700995D01*
X168069079Y-100700416D01*
X168059456Y-100699772D01*
X168053105Y-100698407D01*
X168049404Y-100695443D01*
X168047730Y-100689997D01*
X168047463Y-100681189D01*
X168047878Y-100670377D01*
X168048750Y-100651250D01*
X168028244Y-100651250D01*
X168015516Y-100651701D01*
X168007370Y-100653038D01*
X168004494Y-100654495D01*
X168003400Y-100656889D01*
X168002521Y-100661955D01*
X168001830Y-100670153D01*
X168001300Y-100681942D01*
X168000902Y-100697783D01*
X168000610Y-100718136D01*
X168000596Y-100719495D01*
X168000424Y-100740257D01*
X167949117Y-100740257D01*
X167948750Y-100701250D01*
X167874465Y-100700587D01*
X167800180Y-100699925D01*
X167799465Y-100675587D01*
X167798750Y-100651250D01*
X167780620Y-100650515D01*
X167770940Y-100650290D01*
X167764749Y-100650807D01*
X167760554Y-100652404D01*
X167756862Y-100655417D01*
X167756245Y-100656026D01*
X167752990Y-100659835D01*
X167751105Y-100664109D01*
X167750230Y-100670307D01*
X167750001Y-100679889D01*
X167750000Y-100681136D01*
X167750000Y-100700000D01*
X167650619Y-100700000D01*
X167649110Y-100686875D01*
X167647788Y-100676522D01*
X167646242Y-100665964D01*
X167645675Y-100662500D01*
X167643750Y-100651250D01*
X167622197Y-100650532D01*
X167600645Y-100649814D01*
X167599435Y-100630964D01*
X167597991Y-100618338D01*
X167595130Y-100609805D01*
X167590178Y-100604518D01*
X167582464Y-100601625D01*
X167575395Y-100600602D01*
X167567370Y-100600207D01*
X167562165Y-100601352D01*
X167557694Y-100604612D01*
X167556436Y-100605836D01*
X167553089Y-100609701D01*
X167551151Y-100613927D01*
X167550247Y-100619984D01*
X167550002Y-100629342D01*
X167550000Y-100631136D01*
X167550000Y-100650000D01*
X167500000Y-100650000D01*
X167499987Y-100633125D01*
X167498977Y-100619739D01*
X167495659Y-100610378D01*
X167489567Y-100604421D01*
X167480235Y-100601244D01*
X167475665Y-100600628D01*
X167467580Y-100600203D01*
X167462367Y-100601256D01*
X167457986Y-100604339D01*
X167456436Y-100605836D01*
X167453068Y-100609735D01*
X167451127Y-100614006D01*
X167450233Y-100620136D01*
X167450001Y-100629614D01*
X167450000Y-100630879D01*
X167450000Y-100649486D01*
X167428873Y-100650368D01*
X167417262Y-100651237D01*
X167408837Y-100652664D01*
X167404501Y-100654496D01*
X167404498Y-100654498D01*
X167402666Y-100658829D01*
X167401238Y-100667250D01*
X167400369Y-100678857D01*
X167400368Y-100678873D01*
X167399486Y-100700000D01*
X167361996Y-100700000D01*
X167345398Y-100700056D01*
X167332047Y-100700551D01*
X167321597Y-100701975D01*
X167313700Y-100704818D01*
X167308009Y-100709571D01*
X167304177Y-100716723D01*
X167301857Y-100726764D01*
X167300702Y-100740185D01*
X167300365Y-100757474D01*
X167198750Y-100757474D01*
X167198750Y-100534344D01*
X167300000Y-100534344D01*
X167300037Y-100557577D01*
X167300143Y-100579263D01*
X167300310Y-100598891D01*
X167300532Y-100615953D01*
X167300799Y-100629938D01*
X167301105Y-100640337D01*
X167301442Y-100646641D01*
X167301719Y-100648385D01*
X167304645Y-100648888D01*
X167311767Y-100649261D01*
X167322281Y-100649489D01*
X167335382Y-100649553D01*
X167350268Y-100649438D01*
X167351094Y-100649427D01*
X167398750Y-100648750D01*
X167399461Y-100624680D01*
X167400173Y-100600611D01*
X167409507Y-100599118D01*
X167418706Y-100598500D01*
X167427867Y-100599091D01*
X167427986Y-100599110D01*
X167435100Y-100599464D01*
X167440399Y-100597025D01*
X167443566Y-100594160D01*
X167450000Y-100587727D01*
X167450000Y-100400000D01*
X167499826Y-100400000D01*
X167500538Y-100493968D01*
X167501250Y-100587937D01*
X167508264Y-100593968D01*
X167516860Y-100598583D01*
X167527078Y-100600124D01*
X167536935Y-100598509D01*
X167542627Y-100595399D01*
X167548308Y-100590799D01*
X167547732Y-100517156D01*
X167547643Y-100497174D01*
X167547681Y-100477685D01*
X167547834Y-100459573D01*
X167548092Y-100443723D01*
X167548443Y-100431018D01*
X167548876Y-100422344D01*
X167548922Y-100421756D01*
X167550687Y-100400000D01*
X167599826Y-100400000D01*
X167600538Y-100493968D01*
X167601250Y-100587937D01*
X167608264Y-100593968D01*
X167612919Y-100597297D01*
X167618192Y-100599136D01*
X167625729Y-100599894D01*
X167632639Y-100600000D01*
X167650000Y-100600000D01*
X167650000Y-100619522D01*
X167650064Y-100629642D01*
X167650700Y-100637105D01*
X167652571Y-100642331D01*
X167656341Y-100645743D01*
X167662671Y-100647762D01*
X167672227Y-100648810D01*
X167685670Y-100649308D01*
X167697235Y-100649546D01*
X167712228Y-100649823D01*
X167723056Y-100649901D01*
X167730553Y-100649680D01*
X167735551Y-100649061D01*
X167738885Y-100647946D01*
X167741388Y-100646236D01*
X167743692Y-100644034D01*
X167750000Y-100637727D01*
X167750000Y-100500000D01*
X167799925Y-100500000D01*
X167800587Y-100574375D01*
X167801250Y-100648750D01*
X167948750Y-100648750D01*
X167948750Y-100401250D01*
X167924464Y-100400535D01*
X167900178Y-100399821D01*
X167899464Y-100375535D01*
X167898750Y-100351250D01*
X167351250Y-100351250D01*
X167349818Y-100400000D01*
X167337162Y-100400000D01*
X167322907Y-100401736D01*
X167311745Y-100406793D01*
X167304265Y-100414801D01*
X167303245Y-100416903D01*
X167302400Y-100419745D01*
X167301714Y-100423782D01*
X167301171Y-100429467D01*
X167300754Y-100437254D01*
X167300448Y-100447599D01*
X167300236Y-100460955D01*
X167300101Y-100477776D01*
X167300029Y-100498518D01*
X167300001Y-100523633D01*
X167300000Y-100534344D01*
X167198750Y-100534344D01*
X167198750Y-100252328D01*
X167153750Y-100253750D01*
X167151232Y-101333750D01*
X167150000Y-100255000D01*
X167000000Y-100255000D01*
X167000000Y-101049341D01*
X166989375Y-101051132D01*
X166980400Y-101052630D01*
X166971907Y-101054026D01*
X166970609Y-101054236D01*
X166958451Y-101054533D01*
X166947465Y-101051767D01*
X166940438Y-101047371D01*
X166938520Y-101045354D01*
X166937116Y-101042905D01*
X166936144Y-101039273D01*
X166935527Y-101033710D01*
X166935183Y-101025467D01*
X166935034Y-101013794D01*
X166935000Y-100997944D01*
X166934999Y-100996152D01*
X166935000Y-100950000D01*
X166900000Y-100950000D01*
X166900000Y-100882307D01*
X166899999Y-100814615D01*
X166892692Y-100807307D01*
X166888363Y-100803428D01*
X166884059Y-100801231D01*
X166878170Y-100800245D01*
X166869090Y-100800001D01*
X166867692Y-100800000D01*
X166850000Y-100800000D01*
X166850000Y-100749962D01*
X166849999Y-100699925D01*
X166775625Y-100700587D01*
X166701250Y-100701250D01*
X166700563Y-100741730D01*
X166699877Y-100782210D01*
X166708651Y-100790985D01*
X166714137Y-100795955D01*
X166719237Y-100798711D01*
X166725913Y-100800018D01*
X166733088Y-100800504D01*
X166748750Y-100801250D01*
X166751250Y-100898750D01*
X166768045Y-100899487D01*
X166777556Y-100900163D01*
X166783805Y-100901556D01*
X166788526Y-100904257D01*
X166792379Y-100907764D01*
X166799918Y-100915303D01*
X166800584Y-100982026D01*
X166801250Y-101048750D01*
X166848750Y-101051250D01*
X166848750Y-101198750D01*
X166783100Y-101199416D01*
X166762839Y-101199587D01*
X166746974Y-101199620D01*
X166734903Y-101199489D01*
X166726023Y-101199163D01*
X166719731Y-101198617D01*
X166715424Y-101197821D01*
X166712500Y-101196747D01*
X166711335Y-101196076D01*
X166706131Y-101193688D01*
X166702609Y-101193682D01*
X166701438Y-101196850D01*
X166700572Y-101204219D01*
X166700083Y-101214995D01*
X166700000Y-101222647D01*
X166700000Y-101250000D01*
X166750000Y-101250000D01*
X166750000Y-101300000D01*
X166860238Y-101300000D01*
X166866369Y-101293384D01*
X166870433Y-101288502D01*
X166872451Y-101285103D01*
X166872500Y-101284803D01*
X166874720Y-101282076D01*
X166881122Y-101281371D01*
X166891314Y-101282683D01*
X166901566Y-101285084D01*
X166912924Y-101287655D01*
X166922647Y-101288978D01*
X166928933Y-101288880D01*
X166938298Y-101284751D01*
X166945435Y-101276985D01*
X166948759Y-101268750D01*
X166950941Y-101261147D01*
X166953199Y-101255470D01*
X166954715Y-101249409D01*
X166953005Y-101244879D01*
X166950181Y-101236378D01*
X166950099Y-101225882D01*
X166952570Y-101215445D01*
X166956377Y-101208360D01*
X166960426Y-101203596D01*
X166964413Y-101201096D01*
X166970139Y-101200140D01*
X166977239Y-101200000D01*
X166983540Y-101200005D01*
X166988556Y-101200362D01*
X166992435Y-101201581D01*
X166995322Y-101204173D01*
X166997363Y-101208649D01*
X166998705Y-101215520D01*
X166999494Y-101225297D01*
X166999875Y-101238490D01*
X166999995Y-101255610D01*
X167000000Y-101277169D01*
X167000000Y-101350000D01*
X165849818Y-101350000D01*
X165851250Y-101301250D01*
X165875630Y-101300534D01*
X165900011Y-101299818D01*
X165899708Y-101047882D01*
X166000000Y-101047882D01*
X166049375Y-101046318D01*
X166082839Y-101045406D01*
X166112317Y-101044908D01*
X166137665Y-101044823D01*
X166158743Y-101045144D01*
X166175407Y-101045869D01*
X166187516Y-101046993D01*
X166194927Y-101048513D01*
X166197498Y-101050424D01*
X166197500Y-101050468D01*
X166199050Y-101051661D01*
X166200000Y-101051250D01*
X166201302Y-101052747D01*
X166202147Y-101058887D01*
X166202493Y-101069329D01*
X166202500Y-101071250D01*
X166202256Y-101081235D01*
X166201588Y-101088215D01*
X166200595Y-101091341D01*
X166200200Y-101091373D01*
X166197259Y-101092125D01*
X166193243Y-101095879D01*
X166192965Y-101096226D01*
X166189971Y-101099451D01*
X166186403Y-101101334D01*
X166180910Y-101102230D01*
X166172139Y-101102492D01*
X166169015Y-101102500D01*
X166150000Y-101102500D01*
X166150000Y-101149583D01*
X166150088Y-101164452D01*
X166150335Y-101177578D01*
X166150711Y-101188151D01*
X166151186Y-101195361D01*
X166151733Y-101198399D01*
X166151746Y-101198412D01*
X166155127Y-101199339D01*
X166162041Y-101199773D01*
X166171221Y-101199776D01*
X166181399Y-101199409D01*
X166191031Y-101198750D01*
X166210000Y-101198750D01*
X166211250Y-101200000D01*
X166212500Y-101198750D01*
X166211250Y-101197500D01*
X166210000Y-101198750D01*
X166191031Y-101198750D01*
X166191309Y-101198731D01*
X166199684Y-101197803D01*
X166205256Y-101196686D01*
X166206827Y-101195781D01*
X166205943Y-101192045D01*
X166202656Y-101187656D01*
X166200451Y-101184989D01*
X166198978Y-101181570D01*
X166198092Y-101176413D01*
X166197649Y-101168534D01*
X166197506Y-101156949D01*
X166197505Y-101156250D01*
X166447500Y-101156250D01*
X166447864Y-101164743D01*
X166448814Y-101171097D01*
X166450000Y-101173750D01*
X166451479Y-101176968D01*
X166452376Y-101183363D01*
X166452500Y-101187099D01*
X166452500Y-101198904D01*
X166470274Y-101199630D01*
X166480015Y-101199820D01*
X166486288Y-101199208D01*
X166490598Y-101197483D01*
X166494024Y-101194742D01*
X166496185Y-101192543D01*
X166497750Y-101190103D01*
X166498165Y-101188750D01*
X166700000Y-101188750D01*
X166701250Y-101190000D01*
X166702500Y-101188750D01*
X166701250Y-101187500D01*
X166700000Y-101188750D01*
X166498165Y-101188750D01*
X166498815Y-101186634D01*
X166499476Y-101181351D01*
X166499830Y-101173468D01*
X166499973Y-101162199D01*
X166499999Y-101146757D01*
X166500000Y-101145814D01*
X166499909Y-101129205D01*
X166499614Y-101117074D01*
X166499076Y-101108902D01*
X166498258Y-101104170D01*
X166497123Y-101102359D01*
X166496875Y-101102303D01*
X166490082Y-101102154D01*
X166481094Y-101102306D01*
X166471587Y-101102687D01*
X166463235Y-101103225D01*
X166457715Y-101103846D01*
X166456875Y-101104034D01*
X166454415Y-101105681D01*
X166453068Y-101109527D01*
X166452544Y-101116712D01*
X166452500Y-101121270D01*
X166452135Y-101129759D01*
X166451183Y-101136106D01*
X166450000Y-101138750D01*
X166448704Y-101141876D01*
X166447800Y-101148499D01*
X166447500Y-101156250D01*
X166197505Y-101156250D01*
X166197500Y-101152402D01*
X166197500Y-101122304D01*
X166208052Y-101111777D01*
X166210893Y-101108750D01*
X166400000Y-101108750D01*
X166400226Y-101114537D01*
X166400783Y-101117425D01*
X166400900Y-101117500D01*
X166403069Y-101115937D01*
X166407634Y-101111939D01*
X166411078Y-101108750D01*
X166420356Y-101100000D01*
X166410178Y-101100000D01*
X166403701Y-101100251D01*
X166400794Y-101101825D01*
X166400027Y-101105951D01*
X166400000Y-101108750D01*
X166210893Y-101108750D01*
X166213582Y-101105885D01*
X166214939Y-101104165D01*
X166245281Y-101104165D01*
X166247232Y-101105000D01*
X166249983Y-101103016D01*
X166250855Y-101101377D01*
X166250744Y-101098840D01*
X166248622Y-101099144D01*
X166245555Y-101101566D01*
X166245281Y-101104165D01*
X166214939Y-101104165D01*
X166217188Y-101101316D01*
X166218052Y-101099375D01*
X166219955Y-101098291D01*
X166225422Y-101097614D01*
X166229499Y-101097500D01*
X166237224Y-101096908D01*
X166243020Y-101095410D01*
X166244499Y-101094500D01*
X166246120Y-101090265D01*
X166247153Y-101081857D01*
X166247500Y-101070602D01*
X166247774Y-101059772D01*
X166248449Y-101054165D01*
X166295281Y-101054165D01*
X166297232Y-101055000D01*
X166299983Y-101053016D01*
X166300855Y-101051377D01*
X166300744Y-101048840D01*
X166298622Y-101049144D01*
X166295555Y-101051566D01*
X166295281Y-101054165D01*
X166248449Y-101054165D01*
X166248568Y-101053179D01*
X166249835Y-101051176D01*
X166250000Y-101051250D01*
X166252309Y-101051194D01*
X166252500Y-101050396D01*
X166254746Y-101048019D01*
X166260472Y-101045984D01*
X166268157Y-101044551D01*
X166276282Y-101043981D01*
X166283327Y-101044534D01*
X166284730Y-101044874D01*
X166290969Y-101046193D01*
X166295081Y-101046156D01*
X166295355Y-101046030D01*
X166296365Y-101043064D01*
X166297062Y-101036582D01*
X166297426Y-101028060D01*
X166297434Y-101018973D01*
X166297064Y-101010797D01*
X166296295Y-101005007D01*
X166295982Y-101003954D01*
X166294809Y-101002490D01*
X166292121Y-101001430D01*
X166287227Y-101000714D01*
X166279434Y-101000278D01*
X166268049Y-101000060D01*
X166252379Y-101000000D01*
X166251804Y-101000000D01*
X166234475Y-100999991D01*
X166221512Y-100999689D01*
X166212283Y-100998684D01*
X166206154Y-100996564D01*
X166202494Y-100992917D01*
X166200669Y-100987332D01*
X166200048Y-100979397D01*
X166199997Y-100968701D01*
X166200000Y-100966303D01*
X166200458Y-100951884D01*
X166201679Y-100935907D01*
X166203427Y-100921215D01*
X166204029Y-100917423D01*
X166205584Y-100905568D01*
X166206619Y-100891840D01*
X166207148Y-100877244D01*
X166207181Y-100862787D01*
X166206937Y-100855565D01*
X166450000Y-100855565D01*
X166450086Y-100870267D01*
X166450326Y-100883213D01*
X166450691Y-100893587D01*
X166451153Y-100900571D01*
X166451666Y-100903333D01*
X166455158Y-100904404D01*
X166461796Y-100904923D01*
X166469907Y-100904932D01*
X166477814Y-100904469D01*
X166483844Y-100903577D01*
X166486250Y-100902500D01*
X166489776Y-100900399D01*
X166492647Y-100900000D01*
X166494394Y-100899752D01*
X166495663Y-100898549D01*
X166496530Y-100895706D01*
X166497070Y-100890534D01*
X166497361Y-100882347D01*
X166497479Y-100870456D01*
X166497500Y-100856250D01*
X166497500Y-100812500D01*
X166477704Y-100812500D01*
X166467799Y-100812315D01*
X166459538Y-100811828D01*
X166454449Y-100811134D01*
X166453954Y-100810982D01*
X166452554Y-100810906D01*
X166451526Y-100812326D01*
X166450813Y-100815871D01*
X166450360Y-100822167D01*
X166450112Y-100831844D01*
X166450012Y-100845527D01*
X166450000Y-100855565D01*
X166206937Y-100855565D01*
X166206731Y-100849475D01*
X166205809Y-100838313D01*
X166204427Y-100830307D01*
X166202971Y-100826818D01*
X166201635Y-100823393D01*
X166200796Y-100816623D01*
X166200424Y-100805998D01*
X166200487Y-100791008D01*
X166200554Y-100787159D01*
X166201250Y-100751250D01*
X166257500Y-100749697D01*
X166273991Y-100749309D01*
X166294374Y-100748936D01*
X166317541Y-100748593D01*
X166342381Y-100748293D01*
X166367788Y-100748051D01*
X166392653Y-100747880D01*
X166405625Y-100747822D01*
X166497500Y-100747500D01*
X166497500Y-100725000D01*
X166497734Y-100715091D01*
X166498361Y-100707409D01*
X166498865Y-100705000D01*
X166650000Y-100705000D01*
X166650362Y-100709069D01*
X166650862Y-100710000D01*
X166652973Y-100708369D01*
X166656250Y-100705000D01*
X166659236Y-100701379D01*
X166658582Y-100700136D01*
X166655387Y-100700000D01*
X166650958Y-100701570D01*
X166650000Y-100705000D01*
X166498865Y-100705000D01*
X166499269Y-100703069D01*
X166499778Y-100702500D01*
X166500735Y-100701250D01*
X166547500Y-100701250D01*
X166548750Y-100702500D01*
X166550000Y-100701250D01*
X166548750Y-100700000D01*
X166547500Y-100701250D01*
X166500735Y-100701250D01*
X166501306Y-100700504D01*
X166501220Y-100698125D01*
X166500941Y-100694302D01*
X166500680Y-100686367D01*
X166500455Y-100675205D01*
X166500284Y-100661703D01*
X166500191Y-100648125D01*
X166500000Y-100602500D01*
X166421014Y-100602500D01*
X166411887Y-100611875D01*
X166406593Y-100617868D01*
X166403721Y-100623318D01*
X166402406Y-100630352D01*
X166402004Y-100636250D01*
X166401250Y-100651250D01*
X166355186Y-100651933D01*
X166337360Y-100652347D01*
X166323093Y-100652993D01*
X166312801Y-100653843D01*
X166306905Y-100654866D01*
X166305811Y-100655364D01*
X166303716Y-100659916D01*
X166302640Y-100669087D01*
X166302500Y-100675453D01*
X166302201Y-100684104D01*
X166301399Y-100689743D01*
X166300235Y-100691393D01*
X166300200Y-100691373D01*
X166297259Y-100692125D01*
X166293243Y-100695879D01*
X166292965Y-100696226D01*
X166290847Y-100698700D01*
X166288464Y-100700420D01*
X166284938Y-100701522D01*
X166279389Y-100702144D01*
X166270939Y-100702424D01*
X166258709Y-100702497D01*
X166252765Y-100702500D01*
X166217500Y-100702500D01*
X166197500Y-100682500D01*
X166197500Y-100648622D01*
X166299144Y-100648622D01*
X166299255Y-100651159D01*
X166301377Y-100650855D01*
X166304137Y-100648750D01*
X166397500Y-100648750D01*
X166398750Y-100650000D01*
X166400000Y-100648750D01*
X166398750Y-100647500D01*
X166397500Y-100648750D01*
X166304137Y-100648750D01*
X166304605Y-100648393D01*
X166305000Y-100647232D01*
X166303630Y-100645065D01*
X166300887Y-100646059D01*
X166299144Y-100648622D01*
X166197500Y-100648622D01*
X166197500Y-100552500D01*
X166148750Y-100552496D01*
X166149513Y-100626248D01*
X166150277Y-100700000D01*
X166020000Y-100700000D01*
X166009878Y-100710121D01*
X166004132Y-100716194D01*
X166001207Y-100720974D01*
X166000284Y-100726596D01*
X166000503Y-100734496D01*
X166001250Y-100748750D01*
X166075428Y-100749411D01*
X166149607Y-100750073D01*
X166149883Y-100875036D01*
X166150158Y-101000000D01*
X166020000Y-101000000D01*
X166010000Y-101010000D01*
X166004197Y-101016239D01*
X166001216Y-101021393D01*
X166000130Y-101027683D01*
X166000000Y-101033941D01*
X166000000Y-101047882D01*
X165899708Y-101047882D01*
X165899380Y-100775534D01*
X165899110Y-100551250D01*
X166497500Y-100551250D01*
X166498750Y-100552500D01*
X166500000Y-100551250D01*
X166498750Y-100550000D01*
X166497500Y-100551250D01*
X165899110Y-100551250D01*
X165899050Y-100501250D01*
X166000000Y-100501250D01*
X166001250Y-100502500D01*
X166002500Y-100501250D01*
X166001250Y-100500000D01*
X166000000Y-100501250D01*
X165899050Y-100501250D01*
X165899043Y-100495335D01*
X166003542Y-100495335D01*
X166004725Y-100496822D01*
X166009412Y-100497496D01*
X166009852Y-100497500D01*
X166015186Y-100497226D01*
X166017497Y-100496566D01*
X166017500Y-100496541D01*
X166016263Y-100495717D01*
X166041250Y-100495717D01*
X166041721Y-100496170D01*
X166046452Y-100496589D01*
X166054703Y-100496933D01*
X166065733Y-100497164D01*
X166069852Y-100497209D01*
X166083292Y-100497277D01*
X166092371Y-100497154D01*
X166097727Y-100496768D01*
X166099999Y-100496042D01*
X166099823Y-100494902D01*
X166098602Y-100493829D01*
X166093986Y-100492155D01*
X166086076Y-100490920D01*
X166076334Y-100490169D01*
X166066224Y-100489949D01*
X166057206Y-100490305D01*
X166050743Y-100491284D01*
X166048625Y-100492257D01*
X166044324Y-100494709D01*
X166041250Y-100495717D01*
X166016263Y-100495717D01*
X166015411Y-100495149D01*
X166010763Y-100494368D01*
X166005976Y-100494407D01*
X166003542Y-100495335D01*
X165899043Y-100495335D01*
X165898962Y-100428082D01*
X165998991Y-100428082D01*
X165998993Y-100431546D01*
X166000468Y-100441537D01*
X166004412Y-100448023D01*
X166008244Y-100451144D01*
X166012372Y-100451989D01*
X166018831Y-100450870D01*
X166020418Y-100450480D01*
X166025593Y-100449776D01*
X166034835Y-100449103D01*
X166047209Y-100448486D01*
X166061780Y-100447951D01*
X166077616Y-100447524D01*
X166093782Y-100447231D01*
X166109344Y-100447097D01*
X166123368Y-100447150D01*
X166133244Y-100447355D01*
X166137885Y-100449192D01*
X166143269Y-100453488D01*
X166143869Y-100454115D01*
X166147729Y-100459433D01*
X166149566Y-100465786D01*
X166150000Y-100474279D01*
X166149533Y-100482886D01*
X166148341Y-100490019D01*
X166147412Y-100492664D01*
X166146121Y-100496422D01*
X166148325Y-100497495D01*
X166148662Y-100497500D01*
X166151878Y-100498481D01*
X166152203Y-100499375D01*
X166153372Y-100503652D01*
X166158646Y-100505122D01*
X166167985Y-100503776D01*
X166169866Y-100503295D01*
X166172300Y-100502500D01*
X166449738Y-100502500D01*
X166451250Y-100528750D01*
X166460625Y-100529525D01*
X166466863Y-100530517D01*
X166469515Y-100532764D01*
X166470000Y-100536329D01*
X166471258Y-100541055D01*
X166475874Y-100543977D01*
X166478125Y-100544703D01*
X166486125Y-100546467D01*
X166493125Y-100547274D01*
X166500000Y-100547500D01*
X166499920Y-100518125D01*
X166499841Y-100488750D01*
X166493790Y-100495625D01*
X166490282Y-100499153D01*
X166486540Y-100501213D01*
X166481141Y-100502194D01*
X166472663Y-100502487D01*
X166468739Y-100502500D01*
X166449738Y-100502500D01*
X166172300Y-100502500D01*
X166173972Y-100501954D01*
X166173526Y-100500789D01*
X166171116Y-100499755D01*
X166169014Y-100498492D01*
X166171302Y-100497847D01*
X166175284Y-100497675D01*
X166184511Y-100495621D01*
X166191740Y-100490546D01*
X166195936Y-100483500D01*
X166196260Y-100476330D01*
X166192875Y-100453333D01*
X166388333Y-100453333D01*
X166388676Y-100454819D01*
X166390000Y-100455000D01*
X166392057Y-100454085D01*
X166391666Y-100453333D01*
X166388699Y-100453034D01*
X166388333Y-100453333D01*
X166192875Y-100453333D01*
X166192396Y-100450081D01*
X166192395Y-100449255D01*
X166398840Y-100449255D01*
X166399144Y-100451377D01*
X166401566Y-100454444D01*
X166404165Y-100454718D01*
X166405000Y-100452767D01*
X166403906Y-100451250D01*
X166497500Y-100451250D01*
X166498750Y-100452500D01*
X166500000Y-100451250D01*
X166498931Y-100450181D01*
X166800000Y-100450181D01*
X166824375Y-100449465D01*
X166848750Y-100448750D01*
X166848750Y-100401250D01*
X166800000Y-100399818D01*
X166800000Y-100450181D01*
X166498931Y-100450181D01*
X166498750Y-100450000D01*
X166497500Y-100451250D01*
X166403906Y-100451250D01*
X166403016Y-100450016D01*
X166401377Y-100449144D01*
X166398840Y-100449255D01*
X166192395Y-100449255D01*
X166192352Y-100425191D01*
X166192873Y-100419956D01*
X166194038Y-100408809D01*
X166194477Y-100403750D01*
X166245000Y-100403750D01*
X166246250Y-100405000D01*
X166247500Y-100403750D01*
X166246250Y-100402500D01*
X166245000Y-100403750D01*
X166194477Y-100403750D01*
X166194817Y-100399825D01*
X166284384Y-100399825D01*
X166284808Y-100400000D01*
X166286451Y-100402259D01*
X166287393Y-100408104D01*
X166287500Y-100411414D01*
X166288329Y-100421110D01*
X166290557Y-100428403D01*
X166293787Y-100432200D01*
X166295087Y-100432500D01*
X166296647Y-100430293D01*
X166297464Y-100424832D01*
X166297500Y-100423261D01*
X166299271Y-100414032D01*
X166304217Y-100407011D01*
X166304970Y-100406192D01*
X166393019Y-100406192D01*
X166394949Y-100409742D01*
X166397343Y-100412343D01*
X166400596Y-100417002D01*
X166402163Y-100423588D01*
X166402500Y-100431569D01*
X166402500Y-100445639D01*
X166411924Y-100444131D01*
X166420410Y-100443706D01*
X166428303Y-100444708D01*
X166428799Y-100444847D01*
X166434133Y-100445719D01*
X166443215Y-100446467D01*
X166454790Y-100447013D01*
X166467608Y-100447281D01*
X166468125Y-100447285D01*
X166500000Y-100447500D01*
X166500000Y-100349818D01*
X166451250Y-100351250D01*
X166450535Y-100375543D01*
X166449820Y-100399837D01*
X166421989Y-100400543D01*
X166408358Y-100401096D01*
X166399281Y-100402081D01*
X166394315Y-100403709D01*
X166393019Y-100406192D01*
X166304970Y-100406192D01*
X166308374Y-100402492D01*
X166308421Y-100402381D01*
X166331183Y-100402381D01*
X166331250Y-100402500D01*
X166334786Y-100404622D01*
X166337500Y-100405000D01*
X166342224Y-100403817D01*
X166343750Y-100402500D01*
X166343050Y-100401250D01*
X166387500Y-100401250D01*
X166388750Y-100402500D01*
X166390000Y-100401250D01*
X166388750Y-100400000D01*
X166387500Y-100401250D01*
X166343050Y-100401250D01*
X166342763Y-100400738D01*
X166337869Y-100400002D01*
X166337500Y-100400000D01*
X166332418Y-100400665D01*
X166331183Y-100402381D01*
X166308421Y-100402381D01*
X166309217Y-100400506D01*
X166306933Y-100400012D01*
X166305467Y-100400000D01*
X166301242Y-100398738D01*
X166300002Y-100394131D01*
X166300000Y-100393750D01*
X166299480Y-100389047D01*
X166298485Y-100387500D01*
X166295775Y-100388963D01*
X166290943Y-100392594D01*
X166289544Y-100393750D01*
X166285510Y-100397638D01*
X166284384Y-100399825D01*
X166194817Y-100399825D01*
X166195234Y-100395012D01*
X166195235Y-100395000D01*
X166250000Y-100395000D01*
X166251573Y-100397326D01*
X166256127Y-100395837D01*
X166257500Y-100395000D01*
X166259463Y-100393176D01*
X166256980Y-100392566D01*
X166255625Y-100392538D01*
X166251235Y-100393449D01*
X166250000Y-100395000D01*
X166195235Y-100395000D01*
X166196264Y-100380907D01*
X166196397Y-100378750D01*
X166200630Y-100378750D01*
X166200831Y-100383895D01*
X166201398Y-100385223D01*
X166201717Y-100384404D01*
X166202183Y-100378400D01*
X166201768Y-100374404D01*
X166201109Y-100373018D01*
X166200695Y-100376023D01*
X166200630Y-100378750D01*
X166196397Y-100378750D01*
X166196596Y-100375527D01*
X166197758Y-100355306D01*
X166200000Y-100355306D01*
X166200547Y-100358917D01*
X166202880Y-100358192D01*
X166203750Y-100357500D01*
X166206892Y-100353891D01*
X166207500Y-100352193D01*
X166205470Y-100350246D01*
X166203750Y-100350000D01*
X166200703Y-100352112D01*
X166200000Y-100355306D01*
X166197758Y-100355306D01*
X166198074Y-100349804D01*
X166151250Y-100351250D01*
X166149818Y-100400000D01*
X166018514Y-100400000D01*
X166008632Y-100410121D01*
X166002804Y-100416624D01*
X165999894Y-100421936D01*
X165998991Y-100428082D01*
X165898962Y-100428082D01*
X165898750Y-100251250D01*
X165848750Y-100248750D01*
X165848705Y-100225000D01*
X165848661Y-100201250D01*
X165701250Y-100201250D01*
X165699818Y-100250000D01*
X165650000Y-100250000D01*
X165650000Y-101300000D01*
X165670862Y-101300000D01*
X165683229Y-101300312D01*
X165691499Y-101301804D01*
X165696491Y-101305305D01*
X165699023Y-101311646D01*
X165699913Y-101321657D01*
X165700000Y-101329571D01*
X165700000Y-101350000D01*
X164671098Y-101350000D01*
X164668166Y-101374375D01*
X164661715Y-101409668D01*
X164651177Y-101443629D01*
X164636865Y-101475716D01*
X164619092Y-101505385D01*
X164598172Y-101532092D01*
X164574419Y-101555296D01*
X164555437Y-101569732D01*
X164528406Y-101585102D01*
X164499609Y-101596045D01*
X164469582Y-101602576D01*
X164438860Y-101604706D01*
X164407977Y-101602450D01*
X164377470Y-101595820D01*
X164347872Y-101584829D01*
X164319720Y-101569490D01*
X164311250Y-101563769D01*
X164299444Y-101554339D01*
X164286197Y-101542061D01*
X164272799Y-101528273D01*
X164260537Y-101514316D01*
X164250703Y-101501529D01*
X164249141Y-101499231D01*
X164241104Y-101485869D01*
X164233183Y-101470603D01*
X164226202Y-101455177D01*
X164220985Y-101441340D01*
X164219544Y-101436520D01*
X164216426Y-101424862D01*
X164151250Y-101426250D01*
X164150592Y-101513034D01*
X164149935Y-101599819D01*
X164125592Y-101600534D01*
X164101250Y-101601250D01*
X164099894Y-101699820D01*
X164051250Y-101701250D01*
X164049818Y-101750000D01*
X163950000Y-101750000D01*
X163950000Y-101795000D01*
X163956875Y-101794970D01*
X163960478Y-101794842D01*
X163968652Y-101794484D01*
X163980975Y-101793914D01*
X163997023Y-101793155D01*
X164016375Y-101792225D01*
X164038608Y-101791146D01*
X164063299Y-101789938D01*
X164090025Y-101788621D01*
X164118364Y-101787215D01*
X164137161Y-101786278D01*
X164172148Y-101784548D01*
X164202450Y-101783090D01*
X164228372Y-101781895D01*
X164250220Y-101780953D01*
X164268302Y-101780255D01*
X164282923Y-101779790D01*
X164294389Y-101779550D01*
X164303007Y-101779524D01*
X164309083Y-101779703D01*
X164312924Y-101780077D01*
X164314834Y-101780637D01*
X164314904Y-101780683D01*
X164318326Y-101783521D01*
X164324512Y-101789032D01*
X164332606Y-101796443D01*
X164341753Y-101804977D01*
X164342441Y-101805624D01*
X164365646Y-101827499D01*
X164371484Y-102130624D01*
X164372233Y-102169721D01*
X164372956Y-102207805D01*
X164373646Y-102244535D01*
X164374298Y-102279569D01*
X164374904Y-102312565D01*
X164375460Y-102343182D01*
X164375958Y-102371077D01*
X164376393Y-102395909D01*
X164376759Y-102417337D01*
X164377050Y-102435018D01*
X164377258Y-102448611D01*
X164377380Y-102457774D01*
X164377408Y-102461250D01*
X164377495Y-102488750D01*
X164432766Y-102486727D01*
X164448833Y-102486173D01*
X164463130Y-102485747D01*
X164474932Y-102485463D01*
X164483516Y-102485339D01*
X164488159Y-102485390D01*
X164488771Y-102485477D01*
X164489249Y-102488307D01*
X164489790Y-102495357D01*
X164490372Y-102505848D01*
X164490970Y-102519001D01*
X164491559Y-102534037D01*
X164492117Y-102550176D01*
X164492618Y-102566639D01*
X164493039Y-102582648D01*
X164493356Y-102597422D01*
X164493544Y-102610184D01*
X164493580Y-102620153D01*
X164493440Y-102626551D01*
X164493190Y-102628565D01*
X164490804Y-102631550D01*
X164485650Y-102637340D01*
X164478441Y-102645154D01*
X164469890Y-102654209D01*
X164468146Y-102656033D01*
X164445042Y-102680145D01*
X163803146Y-102696618D01*
X163746851Y-102698064D01*
X163691872Y-102699479D01*
X163638419Y-102700858D01*
X163586700Y-102702195D01*
X163536924Y-102703484D01*
X163489300Y-102704720D01*
X163444037Y-102705898D01*
X163401345Y-102707012D01*
X163361431Y-102708057D01*
X163324506Y-102709027D01*
X163290777Y-102709916D01*
X163260455Y-102710720D01*
X163233748Y-102711432D01*
X163210865Y-102712048D01*
X163192015Y-102712561D01*
X163177406Y-102712967D01*
X163167249Y-102713259D01*
X163161752Y-102713432D01*
X163160775Y-102713478D01*
X163160518Y-102715972D01*
X163160072Y-102722715D01*
X163159479Y-102732961D01*
X163158783Y-102745964D01*
X163158027Y-102760978D01*
X163157828Y-102765057D01*
X163155355Y-102816250D01*
X163129552Y-102840534D01*
X163103750Y-102864818D01*
X163086250Y-102864498D01*
X163078049Y-102864268D01*
X163066031Y-102863825D01*
X163051375Y-102863218D01*
X163035255Y-102862496D01*
X163020574Y-102861792D01*
X162972398Y-102859406D01*
X162974098Y-102787172D01*
X162975798Y-102714939D01*
X162943524Y-102716271D01*
X162934034Y-102716615D01*
X162920262Y-102717049D01*
X162902924Y-102717552D01*
X162882735Y-102718106D01*
X162860412Y-102718691D01*
X162836671Y-102719287D01*
X162812228Y-102719875D01*
X162800200Y-102720155D01*
X162689150Y-102722707D01*
X162678117Y-102711978D01*
X162671128Y-102704914D01*
X162662478Y-102695792D01*
X162653788Y-102686328D01*
X162651876Y-102684196D01*
X162636668Y-102667142D01*
X162641286Y-102595095D01*
X162645905Y-102523049D01*
X162676077Y-102521552D01*
X162684429Y-102521211D01*
X162697183Y-102520788D01*
X162713741Y-102520299D01*
X162733507Y-102519759D01*
X162755883Y-102519184D01*
X162780273Y-102518589D01*
X162806079Y-102517991D01*
X162832704Y-102517405D01*
X162842500Y-102517197D01*
X162868135Y-102516633D01*
X162892253Y-102516049D01*
X162914393Y-102515461D01*
X162930136Y-102515000D01*
X163163097Y-102515000D01*
X163179673Y-102514849D01*
X163184179Y-102514762D01*
X163193372Y-102514541D01*
X163206942Y-102514197D01*
X163224577Y-102513736D01*
X163245968Y-102513169D01*
X163270803Y-102512502D01*
X163298771Y-102511745D01*
X163329563Y-102510906D01*
X163362867Y-102509993D01*
X163398372Y-102509014D01*
X163435768Y-102507979D01*
X163474744Y-102506896D01*
X163514989Y-102505772D01*
X163526696Y-102505445D01*
X163566926Y-102504309D01*
X163605770Y-102503196D01*
X163642936Y-102502113D01*
X163678131Y-102501071D01*
X163711063Y-102500078D01*
X163741440Y-102499145D01*
X163768969Y-102498279D01*
X163793358Y-102497491D01*
X163814315Y-102496789D01*
X163831547Y-102496183D01*
X163844762Y-102495682D01*
X163853667Y-102495295D01*
X163857970Y-102495032D01*
X163858335Y-102494970D01*
X163858406Y-102492432D01*
X163858430Y-102485254D01*
X163858408Y-102473798D01*
X163858345Y-102458423D01*
X163858244Y-102439489D01*
X163858108Y-102417358D01*
X163857940Y-102392389D01*
X163857743Y-102364943D01*
X163857520Y-102335380D01*
X163857275Y-102304060D01*
X163857011Y-102271344D01*
X163856730Y-102237593D01*
X163856437Y-102203166D01*
X163856134Y-102168423D01*
X163855824Y-102133726D01*
X163855511Y-102099435D01*
X163855197Y-102065910D01*
X163854887Y-102033511D01*
X163854582Y-102002598D01*
X163854287Y-101973533D01*
X163854004Y-101946675D01*
X163853737Y-101922384D01*
X163853489Y-101901022D01*
X163853262Y-101882949D01*
X163853061Y-101868524D01*
X163852888Y-101858108D01*
X163852746Y-101852062D01*
X163852668Y-101850625D01*
X163850218Y-101850489D01*
X163843296Y-101850364D01*
X163832428Y-101850251D01*
X163818141Y-101850156D01*
X163800964Y-101850080D01*
X163781423Y-101850028D01*
X163760045Y-101850002D01*
X163751302Y-101850000D01*
X163650105Y-101850000D01*
X163649427Y-101800625D01*
X163648750Y-101751250D01*
X163624427Y-101750535D01*
X163600105Y-101749820D01*
X163599427Y-101700535D01*
X163598750Y-101651250D01*
X163550000Y-101649818D01*
X163550000Y-101545326D01*
X163549975Y-101522967D01*
X163549907Y-101502196D01*
X163549799Y-101483539D01*
X163549656Y-101467519D01*
X163549485Y-101454661D01*
X163549289Y-101445489D01*
X163549075Y-101440529D01*
X163548962Y-101439791D01*
X163546304Y-101439616D01*
X163539130Y-101439565D01*
X163527923Y-101439627D01*
X163513165Y-101439790D01*
X163495338Y-101440046D01*
X163474926Y-101440382D01*
X163452410Y-101440789D01*
X163428273Y-101441255D01*
X163402997Y-101441770D01*
X163377065Y-101442324D01*
X163350959Y-101442905D01*
X163325162Y-101443503D01*
X163300156Y-101444107D01*
X163276423Y-101444706D01*
X163254447Y-101445291D01*
X163234709Y-101445849D01*
X163217691Y-101446371D01*
X163203877Y-101446846D01*
X163193749Y-101447263D01*
X163187789Y-101447612D01*
X163186350Y-101447814D01*
X163186144Y-101450433D01*
X163185848Y-101457810D01*
X163185468Y-101469706D01*
X163185008Y-101485881D01*
X163184474Y-101506095D01*
X163183872Y-101530107D01*
X163183207Y-101557677D01*
X163182486Y-101588566D01*
X163181712Y-101622534D01*
X163180892Y-101659339D01*
X163180032Y-101698743D01*
X163179137Y-101740504D01*
X163178212Y-101784383D01*
X163177263Y-101830140D01*
X163176295Y-101877535D01*
X163175314Y-101926327D01*
X163175061Y-101939064D01*
X163174070Y-101988853D01*
X163173097Y-102037691D01*
X163172144Y-102085308D01*
X163171219Y-102131437D01*
X163170327Y-102175811D01*
X163169473Y-102218160D01*
X163168662Y-102258218D01*
X163167901Y-102295716D01*
X163167194Y-102330386D01*
X163166547Y-102361961D01*
X163165965Y-102390172D01*
X163165454Y-102414751D01*
X163165019Y-102435431D01*
X163164667Y-102451943D01*
X163164401Y-102464020D01*
X163164228Y-102471393D01*
X163164216Y-102471875D01*
X163163097Y-102515000D01*
X162930136Y-102515000D01*
X162934097Y-102514884D01*
X162950903Y-102514333D01*
X162964352Y-102513821D01*
X162973983Y-102513365D01*
X162979336Y-102512977D01*
X162980296Y-102512794D01*
X162980464Y-102510229D01*
X162980737Y-102502948D01*
X162981110Y-102491234D01*
X162981574Y-102475369D01*
X162982124Y-102455636D01*
X162982753Y-102432319D01*
X162983454Y-102405699D01*
X162984220Y-102376059D01*
X162985045Y-102343683D01*
X162985921Y-102308853D01*
X162986843Y-102271852D01*
X162987803Y-102232962D01*
X162988795Y-102192467D01*
X162989812Y-102150648D01*
X162990847Y-102107789D01*
X162991894Y-102064173D01*
X162992946Y-102020082D01*
X162993996Y-101975799D01*
X162995037Y-101931606D01*
X162996064Y-101887787D01*
X162997068Y-101844625D01*
X162998044Y-101802401D01*
X162998984Y-101761399D01*
X162999882Y-101721902D01*
X163000731Y-101684191D01*
X163001525Y-101648551D01*
X163002256Y-101615264D01*
X163002919Y-101584612D01*
X163003506Y-101556878D01*
X163004011Y-101532345D01*
X163004426Y-101511296D01*
X163004746Y-101494013D01*
X163004963Y-101480780D01*
X163005071Y-101471878D01*
X163005081Y-101468750D01*
X163005006Y-101453750D01*
X162948750Y-101455296D01*
X162896690Y-101402852D01*
X162896749Y-101401531D01*
X163795859Y-101401531D01*
X163796250Y-101402500D01*
X163798496Y-101404884D01*
X163798897Y-101405000D01*
X163799971Y-101403065D01*
X163800000Y-101402500D01*
X163798078Y-101400096D01*
X163797352Y-101400000D01*
X163795859Y-101401531D01*
X162896749Y-101401531D01*
X162899735Y-101334551D01*
X162900581Y-101316305D01*
X162901422Y-101299482D01*
X162902218Y-101284794D01*
X162902430Y-101281250D01*
X164667500Y-101281250D01*
X164668750Y-101282500D01*
X164670000Y-101281250D01*
X164668750Y-101280000D01*
X164667500Y-101281250D01*
X162902430Y-101281250D01*
X162902928Y-101272952D01*
X162903513Y-101264669D01*
X162903931Y-101260656D01*
X162903937Y-101260625D01*
X162904439Y-101258733D01*
X162905492Y-101257321D01*
X162907749Y-101256320D01*
X162911864Y-101255658D01*
X162918489Y-101255265D01*
X162928278Y-101255071D01*
X162941884Y-101255006D01*
X162956184Y-101255000D01*
X163007273Y-101255000D01*
X163008480Y-101246875D01*
X163008564Y-101245473D01*
X163195000Y-101245473D01*
X163243125Y-101243910D01*
X163253807Y-101243596D01*
X163268943Y-101243197D01*
X163287989Y-101242728D01*
X163310399Y-101242199D01*
X163335630Y-101241624D01*
X163363135Y-101241015D01*
X163392370Y-101240383D01*
X163422791Y-101239742D01*
X163453852Y-101239103D01*
X163472500Y-101238727D01*
X163503683Y-101238096D01*
X163534552Y-101237454D01*
X163564562Y-101236814D01*
X163593167Y-101236189D01*
X163619822Y-101235590D01*
X163643984Y-101235030D01*
X163665106Y-101234522D01*
X163682645Y-101234077D01*
X163696055Y-101233709D01*
X163701875Y-101233530D01*
X163750000Y-101231953D01*
X163750000Y-101200000D01*
X163650181Y-101200000D01*
X163649465Y-101175625D01*
X163648750Y-101151250D01*
X163600000Y-101149818D01*
X163600000Y-101132217D01*
X163599811Y-101122662D01*
X163598930Y-101116487D01*
X163596881Y-101112075D01*
X163593192Y-101107810D01*
X163592692Y-101107307D01*
X163588349Y-101103419D01*
X163584028Y-101101221D01*
X163578113Y-101100240D01*
X163568987Y-101100001D01*
X163567782Y-101100000D01*
X163550181Y-101100000D01*
X163549465Y-101075625D01*
X163548750Y-101051250D01*
X163500000Y-101049818D01*
X163500000Y-101032217D01*
X163499811Y-101022662D01*
X163498930Y-101016487D01*
X163496881Y-101012075D01*
X163493192Y-101007810D01*
X163492692Y-101007307D01*
X163488355Y-101003423D01*
X163484041Y-101001225D01*
X163478137Y-101000242D01*
X163469030Y-101000001D01*
X163467745Y-101000000D01*
X163450105Y-101000000D01*
X163449427Y-100950625D01*
X163448750Y-100901250D01*
X163427103Y-100900530D01*
X163415087Y-100899760D01*
X163406775Y-100898423D01*
X163402837Y-100896656D01*
X163401549Y-100892820D01*
X163400416Y-100885377D01*
X163399631Y-100875717D01*
X163399484Y-100872375D01*
X163398750Y-100851250D01*
X163374403Y-100850534D01*
X163350057Y-100849819D01*
X163349721Y-100798750D01*
X163551250Y-100798750D01*
X163575535Y-100799464D01*
X163599821Y-100800178D01*
X163600535Y-100824464D01*
X163601250Y-100848750D01*
X163625535Y-100849464D01*
X163649821Y-100850178D01*
X163650535Y-100874464D01*
X163651250Y-100898750D01*
X163675535Y-100899464D01*
X163699821Y-100900178D01*
X163700535Y-100924464D01*
X163701250Y-100948750D01*
X163750535Y-100949427D01*
X163799820Y-100950105D01*
X163800535Y-100974427D01*
X163801250Y-100998750D01*
X163847313Y-100999433D01*
X163865139Y-100999847D01*
X163879406Y-101000493D01*
X163889698Y-101001343D01*
X163895594Y-101002366D01*
X163896688Y-101002864D01*
X163898540Y-101006657D01*
X163899625Y-101014568D01*
X163899999Y-101027005D01*
X163900000Y-101027806D01*
X163900000Y-101050000D01*
X163949818Y-101050000D01*
X163951250Y-101098750D01*
X163975625Y-101099465D01*
X164000000Y-101100181D01*
X164000000Y-101113723D01*
X164000204Y-101121648D01*
X164001359Y-101126222D01*
X164004281Y-101129092D01*
X164008750Y-101131417D01*
X164014361Y-101134699D01*
X164017349Y-101137653D01*
X164017500Y-101138213D01*
X164019784Y-101143886D01*
X164025973Y-101147985D01*
X164035069Y-101149922D01*
X164037512Y-101150000D01*
X164047536Y-101151133D01*
X164056248Y-101155205D01*
X164058999Y-101157105D01*
X164066652Y-101163335D01*
X164074488Y-101170775D01*
X164081578Y-101178402D01*
X164086992Y-101185196D01*
X164089802Y-101190136D01*
X164090000Y-101191172D01*
X164091932Y-101195362D01*
X164095000Y-101198080D01*
X164098287Y-101201484D01*
X164099767Y-101207268D01*
X164100000Y-101213101D01*
X164100291Y-101220376D01*
X164101515Y-101223918D01*
X164104197Y-101224976D01*
X164105000Y-101225000D01*
X164108659Y-101223821D01*
X164109948Y-101219436D01*
X164110000Y-101217500D01*
X164110000Y-101210000D01*
X164129833Y-101210000D01*
X164139708Y-101210061D01*
X164145649Y-101210483D01*
X164148722Y-101211620D01*
X164149992Y-101213828D01*
X164150458Y-101216875D01*
X164151719Y-101221652D01*
X164155085Y-101223444D01*
X164159375Y-101223611D01*
X164165272Y-101223507D01*
X164174693Y-101223339D01*
X164186162Y-101223132D01*
X164194375Y-101222983D01*
X164221250Y-101222494D01*
X164229888Y-101203280D01*
X164245049Y-101174655D01*
X164263796Y-101147712D01*
X164285442Y-101123192D01*
X164309298Y-101101836D01*
X164334677Y-101084383D01*
X164346250Y-101078081D01*
X164363056Y-101070392D01*
X164378905Y-101064905D01*
X164395363Y-101061248D01*
X164413997Y-101059051D01*
X164430578Y-101058130D01*
X164457657Y-101058222D01*
X164481585Y-101060815D01*
X164503676Y-101066155D01*
X164525241Y-101074492D01*
X164530625Y-101077035D01*
X164550000Y-101086490D01*
X164550000Y-101012281D01*
X164550024Y-101000000D01*
X165000000Y-101000000D01*
X165100000Y-101000000D01*
X165100000Y-101150000D01*
X165150000Y-101150000D01*
X165150000Y-101200000D01*
X165171071Y-101200000D01*
X165182697Y-101199721D01*
X165190312Y-101198783D01*
X165194877Y-101197036D01*
X165196071Y-101196071D01*
X165197259Y-101194303D01*
X165198186Y-101191279D01*
X165198884Y-101186436D01*
X165199381Y-101179207D01*
X165199711Y-101169028D01*
X165199902Y-101155334D01*
X165199987Y-101137559D01*
X165200000Y-101124071D01*
X165200069Y-101101847D01*
X165200288Y-101084259D01*
X165200671Y-101070946D01*
X165201235Y-101061547D01*
X165201993Y-101055698D01*
X165202962Y-101053039D01*
X165203000Y-101052999D01*
X165207253Y-101051387D01*
X165215808Y-101050360D01*
X165227991Y-101050000D01*
X165250000Y-101050000D01*
X165250000Y-100850000D01*
X165100000Y-100850000D01*
X165100000Y-100900000D01*
X165050000Y-100900000D01*
X165050000Y-100950000D01*
X165000000Y-100950000D01*
X165000000Y-101000000D01*
X164550024Y-101000000D01*
X164550043Y-100990009D01*
X164550191Y-100972208D01*
X164550464Y-100958350D01*
X164550889Y-100947905D01*
X164551487Y-100940347D01*
X164552282Y-100935145D01*
X164553298Y-100931772D01*
X164553604Y-100931122D01*
X164555703Y-100923531D01*
X164555546Y-100914983D01*
X164553273Y-100907891D01*
X164552169Y-100906374D01*
X164550924Y-100902668D01*
X164550139Y-100895826D01*
X164550000Y-100891141D01*
X164549113Y-100881275D01*
X164546842Y-100870015D01*
X164545000Y-100863750D01*
X164541809Y-100853361D01*
X164540433Y-100844776D01*
X164540938Y-100836335D01*
X164543392Y-100826378D01*
X164546950Y-100815795D01*
X164549178Y-100809020D01*
X164550916Y-100802231D01*
X164551297Y-100800000D01*
X165200000Y-100800000D01*
X165300000Y-100800000D01*
X165300000Y-100950000D01*
X165350000Y-100950000D01*
X165350000Y-101150000D01*
X165400000Y-101150000D01*
X165400000Y-101003000D01*
X165400025Y-100970178D01*
X165400106Y-100942073D01*
X165400248Y-100918400D01*
X165400456Y-100898876D01*
X165400736Y-100883216D01*
X165401094Y-100871137D01*
X165401536Y-100862354D01*
X165402067Y-100856585D01*
X165402692Y-100853546D01*
X165402999Y-100853000D01*
X165407253Y-100851387D01*
X165415808Y-100850360D01*
X165427991Y-100850000D01*
X165450000Y-100850000D01*
X165450000Y-100650000D01*
X165300000Y-100650000D01*
X165300000Y-100700000D01*
X165250000Y-100700000D01*
X165250000Y-100750000D01*
X165200000Y-100750000D01*
X165200000Y-100800000D01*
X164551297Y-100800000D01*
X164552179Y-100794842D01*
X164552979Y-100786266D01*
X164553331Y-100775914D01*
X164553246Y-100763201D01*
X164552740Y-100747539D01*
X164551825Y-100728340D01*
X164550515Y-100705018D01*
X164549768Y-100692500D01*
X164548839Y-100674479D01*
X164548079Y-100654654D01*
X164547548Y-100635030D01*
X164547308Y-100617610D01*
X164547306Y-100611875D01*
X164547354Y-100600000D01*
X165400000Y-100600000D01*
X165500000Y-100600000D01*
X165500000Y-100750000D01*
X165550000Y-100750000D01*
X165550000Y-100450000D01*
X165500000Y-100450000D01*
X165500000Y-100500000D01*
X165450000Y-100500000D01*
X165450000Y-100550000D01*
X165400000Y-100550000D01*
X165400000Y-100600000D01*
X164547354Y-100600000D01*
X164547366Y-100597049D01*
X164547412Y-100580040D01*
X164547444Y-100560418D01*
X164547463Y-100537755D01*
X164547468Y-100511622D01*
X164547461Y-100481590D01*
X164547440Y-100447230D01*
X164547423Y-100425625D01*
X164547469Y-100410469D01*
X164547619Y-100391617D01*
X164547857Y-100370372D01*
X164548166Y-100348037D01*
X164548532Y-100325913D01*
X164548808Y-100311501D01*
X164549204Y-100290083D01*
X164549407Y-100272979D01*
X164549398Y-100259506D01*
X164549153Y-100248979D01*
X164548654Y-100240716D01*
X164547877Y-100234033D01*
X164546803Y-100228246D01*
X164546155Y-100225507D01*
X164544666Y-100219026D01*
X164543445Y-100213737D01*
X164542008Y-100209521D01*
X164539868Y-100206256D01*
X164536542Y-100203823D01*
X164531543Y-100202103D01*
X164524387Y-100200973D01*
X164518348Y-100200568D01*
X164610762Y-100200568D01*
X164611718Y-100202711D01*
X164612000Y-100203000D01*
X164614682Y-100208058D01*
X164615000Y-100210291D01*
X164617185Y-100215083D01*
X164623109Y-100217302D01*
X164624275Y-100215480D01*
X164624109Y-100213125D01*
X164621325Y-100204584D01*
X164617051Y-100200498D01*
X164614232Y-100200000D01*
X164610762Y-100200568D01*
X164518348Y-100200568D01*
X164514590Y-100200316D01*
X164501665Y-100200009D01*
X164485127Y-100199935D01*
X164464493Y-100199971D01*
X164443148Y-100200000D01*
X164350000Y-100200000D01*
X164350000Y-100250000D01*
X164310000Y-100250000D01*
X164294127Y-100250098D01*
X164282718Y-100250423D01*
X164275239Y-100251014D01*
X164271158Y-100251914D01*
X164269941Y-100253125D01*
X164269643Y-100256591D01*
X164268818Y-100264588D01*
X164267508Y-100276749D01*
X164265754Y-100292710D01*
X164263599Y-100312103D01*
X164261084Y-100334562D01*
X164258252Y-100359722D01*
X164255145Y-100387216D01*
X164251804Y-100416678D01*
X164248272Y-100447742D01*
X164244591Y-100480042D01*
X164240802Y-100513212D01*
X164236947Y-100546886D01*
X164233069Y-100580698D01*
X164229210Y-100614281D01*
X164225411Y-100647269D01*
X164221714Y-100679297D01*
X164218162Y-100709998D01*
X164214797Y-100739007D01*
X164211660Y-100765956D01*
X164208793Y-100790481D01*
X164206239Y-100812215D01*
X164204039Y-100830791D01*
X164202235Y-100845844D01*
X164200870Y-100857008D01*
X164199986Y-100863916D01*
X164199629Y-100866204D01*
X164196994Y-100866294D01*
X164189738Y-100866176D01*
X164178237Y-100865863D01*
X164162865Y-100865368D01*
X164143996Y-100864705D01*
X164122005Y-100863888D01*
X164097267Y-100862930D01*
X164070156Y-100861847D01*
X164041047Y-100860650D01*
X164010315Y-100859354D01*
X163996056Y-100858742D01*
X163964482Y-100857384D01*
X163934194Y-100856091D01*
X163905585Y-100854879D01*
X163879051Y-100853764D01*
X163854985Y-100852763D01*
X163833783Y-100851891D01*
X163815839Y-100851164D01*
X163801547Y-100850601D01*
X163791302Y-100850215D01*
X163785499Y-100850025D01*
X163784504Y-100850007D01*
X163780787Y-100849789D01*
X163777427Y-100848762D01*
X163773767Y-100846356D01*
X163769150Y-100842002D01*
X163762918Y-100835130D01*
X163754414Y-100825171D01*
X163750590Y-100820625D01*
X163725921Y-100791250D01*
X163762534Y-100522500D01*
X163767432Y-100486420D01*
X163772108Y-100451729D01*
X163776521Y-100418748D01*
X163780629Y-100387797D01*
X163784391Y-100359198D01*
X163787764Y-100333273D01*
X163790709Y-100310343D01*
X163793182Y-100290730D01*
X163795143Y-100274753D01*
X163796549Y-100262736D01*
X163797360Y-100254999D01*
X163797534Y-100251864D01*
X163797516Y-100251818D01*
X163794617Y-100251247D01*
X163787524Y-100250816D01*
X163777041Y-100250544D01*
X163763975Y-100250451D01*
X163749128Y-100250560D01*
X163748568Y-100250568D01*
X163701250Y-100251250D01*
X163700535Y-100275535D01*
X163699821Y-100299821D01*
X163675535Y-100300535D01*
X163651250Y-100301250D01*
X163650535Y-100325535D01*
X163649821Y-100349821D01*
X163625535Y-100350535D01*
X163601250Y-100351250D01*
X163600535Y-100375535D01*
X163599821Y-100399821D01*
X163575535Y-100400535D01*
X163551250Y-100401250D01*
X163551250Y-100798750D01*
X163349721Y-100798750D01*
X163349403Y-100750534D01*
X163348750Y-100651250D01*
X163300000Y-100649818D01*
X163300000Y-100450181D01*
X163324375Y-100449465D01*
X163348750Y-100448750D01*
X163349403Y-100349465D01*
X163350057Y-100250180D01*
X163374403Y-100249465D01*
X163398750Y-100248750D01*
X163399481Y-100227766D01*
X163400213Y-100206783D01*
X163368231Y-100208348D01*
X163355874Y-100208897D01*
X163339832Y-100209527D01*
X163321420Y-100210190D01*
X163301952Y-100210840D01*
X163282742Y-100211431D01*
X163278379Y-100211556D01*
X163220508Y-100213200D01*
X163218910Y-100255975D01*
X163218640Y-100264056D01*
X163218262Y-100276648D01*
X163217785Y-100293444D01*
X163217216Y-100314133D01*
X163216563Y-100338408D01*
X163215832Y-100365959D01*
X163215033Y-100396478D01*
X163214172Y-100429656D01*
X163213258Y-100465184D01*
X163212297Y-100502752D01*
X163211298Y-100542053D01*
X163210268Y-100582777D01*
X163209215Y-100624616D01*
X163208147Y-100667260D01*
X163207070Y-100710401D01*
X163205994Y-100753730D01*
X163204925Y-100796939D01*
X163203871Y-100839717D01*
X163202840Y-100881757D01*
X163201840Y-100922750D01*
X163200878Y-100962387D01*
X163199961Y-101000358D01*
X163199098Y-101036356D01*
X163198297Y-101070070D01*
X163197564Y-101101194D01*
X163196907Y-101129416D01*
X163196335Y-101154430D01*
X163195854Y-101175925D01*
X163195473Y-101193594D01*
X163195199Y-101207126D01*
X163195039Y-101216214D01*
X163195000Y-101220056D01*
X163195000Y-101245473D01*
X163008564Y-101245473D01*
X163008685Y-101243459D01*
X163009002Y-101235379D01*
X163009424Y-101222919D01*
X163009943Y-101206365D01*
X163010552Y-101186000D01*
X163011245Y-101162108D01*
X163012012Y-101134975D01*
X163012849Y-101104885D01*
X163013746Y-101072122D01*
X163014697Y-101036970D01*
X163015695Y-100999715D01*
X163016732Y-100960640D01*
X163017802Y-100920030D01*
X163018896Y-100878169D01*
X163020008Y-100835343D01*
X163021130Y-100791834D01*
X163022256Y-100747929D01*
X163023377Y-100703910D01*
X163024488Y-100660063D01*
X163025579Y-100616672D01*
X163026645Y-100574022D01*
X163027677Y-100532397D01*
X163028670Y-100492081D01*
X163029615Y-100453359D01*
X163030504Y-100416515D01*
X163031332Y-100381834D01*
X163032091Y-100349600D01*
X163032773Y-100320098D01*
X163033371Y-100293612D01*
X163033878Y-100270427D01*
X163034287Y-100250826D01*
X163034590Y-100235095D01*
X163034781Y-100223518D01*
X163034851Y-100216379D01*
X163034798Y-100213965D01*
X163032149Y-100213833D01*
X163024988Y-100213894D01*
X163013798Y-100214132D01*
X162999063Y-100214533D01*
X162981267Y-100215083D01*
X162960893Y-100215768D01*
X162938424Y-100216573D01*
X162914345Y-100217484D01*
X162911203Y-100217607D01*
X162886542Y-100218563D01*
X162863092Y-100219457D01*
X162841391Y-100220271D01*
X162821975Y-100220984D01*
X162805380Y-100221577D01*
X162792143Y-100222031D01*
X162782801Y-100222327D01*
X162777889Y-100222444D01*
X162777762Y-100222445D01*
X162773309Y-100222309D01*
X162769466Y-100221493D01*
X162765456Y-100219463D01*
X162760502Y-100215683D01*
X162753828Y-100209617D01*
X162744656Y-100200729D01*
X162740887Y-100197025D01*
X162715000Y-100171550D01*
X162715000Y-100100000D01*
X164650000Y-100100000D01*
X164850000Y-100100000D01*
X164850000Y-100250000D01*
X165000000Y-100250000D01*
X165000000Y-100273249D01*
X165000244Y-100283688D01*
X165000899Y-100292263D01*
X165001847Y-100297724D01*
X165002398Y-100298898D01*
X165003512Y-100302309D01*
X165004520Y-100309483D01*
X165005274Y-100319182D01*
X165005523Y-100325023D01*
X165006250Y-100348750D01*
X165400000Y-100350030D01*
X165400000Y-100368878D01*
X165400187Y-100378910D01*
X165400986Y-100385402D01*
X165402755Y-100389806D01*
X165405851Y-100393576D01*
X165406136Y-100393863D01*
X165409914Y-100397067D01*
X165414221Y-100398920D01*
X165420508Y-100399778D01*
X165430228Y-100399999D01*
X165431136Y-100400000D01*
X165450000Y-100400000D01*
X165450000Y-100350000D01*
X165550000Y-100350000D01*
X165550000Y-100300000D01*
X165571071Y-100300000D01*
X165582697Y-100299721D01*
X165590312Y-100298783D01*
X165594877Y-100297036D01*
X165596071Y-100296071D01*
X165597116Y-100294515D01*
X165597960Y-100291825D01*
X165598626Y-100287514D01*
X165599133Y-100281093D01*
X165599502Y-100272075D01*
X165599752Y-100259973D01*
X165599905Y-100244298D01*
X165599981Y-100224564D01*
X165600000Y-100202207D01*
X165600000Y-100200256D01*
X166800999Y-100200256D01*
X166802252Y-100209672D01*
X166802294Y-100209910D01*
X166803926Y-100209320D01*
X166806660Y-100206911D01*
X166809376Y-100203054D01*
X166808121Y-100199524D01*
X166807604Y-100198875D01*
X166803602Y-100195010D01*
X166801425Y-100195419D01*
X166800999Y-100200256D01*
X165600000Y-100200256D01*
X165600000Y-100182379D01*
X166400326Y-100182379D01*
X166400463Y-100190739D01*
X166400894Y-100195957D01*
X166401084Y-100196720D01*
X166402463Y-100197921D01*
X166405933Y-100198777D01*
X166412086Y-100199320D01*
X166421517Y-100199583D01*
X166434818Y-100199599D01*
X166450567Y-100199429D01*
X166498750Y-100198750D01*
X166499437Y-100157937D01*
X166500125Y-100117125D01*
X166491562Y-100108562D01*
X166482157Y-100101917D01*
X166472157Y-100099568D01*
X166462573Y-100101586D01*
X166456136Y-100106136D01*
X166452925Y-100109926D01*
X166451071Y-100114249D01*
X166450216Y-100120563D01*
X166450000Y-100130326D01*
X166450000Y-100149818D01*
X166401250Y-100151250D01*
X166400517Y-100172291D01*
X166400326Y-100182379D01*
X165600000Y-100182379D01*
X165600000Y-100112272D01*
X165593863Y-100106136D01*
X165590085Y-100102932D01*
X165585778Y-100101079D01*
X165579491Y-100100221D01*
X165569771Y-100100000D01*
X165550000Y-100100000D01*
X165550000Y-100050000D01*
X165350000Y-100050000D01*
X165350000Y-100000000D01*
X164700000Y-100000000D01*
X164700000Y-100050000D01*
X164650000Y-100050000D01*
X164650000Y-100100000D01*
X162715000Y-100100000D01*
X162715000Y-100031080D01*
X162871875Y-100025459D01*
X162899558Y-100024471D01*
X162925860Y-100023542D01*
X162950339Y-100022685D01*
X162972551Y-100021916D01*
X162992055Y-100021250D01*
X163008407Y-100020702D01*
X163021165Y-100020288D01*
X163029887Y-100020022D01*
X163034130Y-100019919D01*
X163034375Y-100019919D01*
X163036489Y-100019816D01*
X163037993Y-100018955D01*
X163038991Y-100016608D01*
X163039588Y-100012052D01*
X163039885Y-100004560D01*
X163039988Y-99993407D01*
X163040000Y-99980582D01*
X163039999Y-99941164D01*
X163066915Y-99914332D01*
X163093831Y-99887499D01*
X163131335Y-99887500D01*
X163168839Y-99887500D01*
X163194419Y-99913167D01*
X163220000Y-99938835D01*
X163220000Y-100015000D01*
X163243752Y-100015000D01*
X163250584Y-100014931D01*
X163262313Y-100014726D01*
X163278838Y-100014388D01*
X163300058Y-100013919D01*
X163325871Y-100013322D01*
X163356178Y-100012598D01*
X163390875Y-100011752D01*
X163429864Y-100010784D01*
X163473041Y-100009698D01*
X163520307Y-100008495D01*
X163571561Y-100007180D01*
X163626700Y-100005753D01*
X163685625Y-100004217D01*
X163735000Y-100002924D01*
X163798750Y-100001250D01*
X163798357Y-99990000D01*
X163797754Y-99980554D01*
X163796682Y-99969688D01*
X163796126Y-99965230D01*
X163795381Y-99955569D01*
X163796476Y-99948506D01*
X163798455Y-99943980D01*
X163806595Y-99933859D01*
X163817650Y-99927295D01*
X163830223Y-99924999D01*
X163837909Y-99925558D01*
X163844396Y-99927723D01*
X163851062Y-99932224D01*
X163859284Y-99939792D01*
X163860638Y-99941138D01*
X163869499Y-99950000D01*
X163930912Y-99950000D01*
X163950730Y-99950041D01*
X163966128Y-99949996D01*
X163977682Y-99949615D01*
X163985969Y-99948646D01*
X163991565Y-99946838D01*
X163995048Y-99943939D01*
X163996995Y-99939699D01*
X163997981Y-99933865D01*
X163998584Y-99926187D01*
X163999023Y-99920324D01*
X164000718Y-99899999D01*
X164045359Y-99899999D01*
X164061434Y-99899962D01*
X164073272Y-99899798D01*
X164081635Y-99899430D01*
X164087286Y-99898783D01*
X164090988Y-99897779D01*
X164093502Y-99896341D01*
X164095000Y-99895000D01*
X164095918Y-99893982D01*
X164096716Y-99892669D01*
X164097403Y-99890726D01*
X164097987Y-99887815D01*
X164098476Y-99883603D01*
X164098879Y-99877754D01*
X164099203Y-99869932D01*
X164099458Y-99859801D01*
X164099652Y-99847028D01*
X164099793Y-99831276D01*
X164099890Y-99812209D01*
X164099950Y-99789493D01*
X164099983Y-99762792D01*
X164099997Y-99731770D01*
X164099999Y-99700000D01*
X166800000Y-99700000D01*
X166850000Y-99700000D01*
X166850000Y-99850000D01*
X166900000Y-99850000D01*
X166900000Y-99900000D01*
X166950000Y-99900000D01*
X166950000Y-99950000D01*
X167000000Y-99950000D01*
X167000000Y-100000000D01*
X166950000Y-100000000D01*
X166950000Y-100150000D01*
X167050000Y-100150000D01*
X167050000Y-100128928D01*
X167050320Y-100116507D01*
X167051718Y-100108238D01*
X167054848Y-100103291D01*
X167060364Y-100100834D01*
X167068920Y-100100039D01*
X167072792Y-100100000D01*
X167081927Y-100100356D01*
X167087875Y-100101772D01*
X167092422Y-100104768D01*
X167093863Y-100106136D01*
X167097067Y-100109914D01*
X167098920Y-100114221D01*
X167099778Y-100120508D01*
X167099999Y-100130228D01*
X167100000Y-100131136D01*
X167100000Y-100150000D01*
X167199589Y-100150000D01*
X167200419Y-100132300D01*
X167200604Y-100123070D01*
X167200298Y-100115659D01*
X167199569Y-100111623D01*
X167199536Y-100111560D01*
X167198580Y-100107787D01*
X167200902Y-100104983D01*
X167206978Y-100102956D01*
X167217284Y-100101510D01*
X167225795Y-100100835D01*
X167250000Y-100099245D01*
X167250000Y-100050000D01*
X167300000Y-100050000D01*
X167300000Y-100068863D01*
X167300186Y-100078899D01*
X167300985Y-100085393D01*
X167302751Y-100089798D01*
X167305841Y-100093566D01*
X167306136Y-100093863D01*
X167308611Y-100096161D01*
X167311267Y-100097799D01*
X167314940Y-100098889D01*
X167320467Y-100099543D01*
X167328684Y-100099871D01*
X167340430Y-100099986D01*
X167352207Y-100100000D01*
X167367774Y-100099921D01*
X167379090Y-100099640D01*
X167386907Y-100099089D01*
X167391971Y-100098202D01*
X167395033Y-100096912D01*
X167396071Y-100096071D01*
X167397594Y-100093746D01*
X167398680Y-100089804D01*
X167399395Y-100083494D01*
X167399806Y-100074068D01*
X167399980Y-100060777D01*
X167400000Y-100052207D01*
X167399972Y-100037227D01*
X167399816Y-100026409D01*
X167399419Y-100018918D01*
X167398670Y-100013915D01*
X167397458Y-100010565D01*
X167395671Y-100008029D01*
X167393863Y-100006136D01*
X167390085Y-100002932D01*
X167385778Y-100001079D01*
X167379491Y-100000221D01*
X167369771Y-100000000D01*
X167350000Y-100000000D01*
X167350000Y-99950000D01*
X167369375Y-99949870D01*
X167377767Y-99949843D01*
X167390080Y-99949841D01*
X167405234Y-99949863D01*
X167422149Y-99949908D01*
X167439746Y-99949972D01*
X167444375Y-99949993D01*
X167500000Y-99950245D01*
X167500000Y-99900000D01*
X167300000Y-99900000D01*
X167300000Y-99850000D01*
X167450000Y-99850000D01*
X167450000Y-99750000D01*
X167500000Y-99750000D01*
X167500000Y-99800000D01*
X167550000Y-99800000D01*
X167550000Y-99850000D01*
X167600000Y-99850000D01*
X167600000Y-99650000D01*
X167500000Y-99650000D01*
X167500000Y-99700000D01*
X167350000Y-99700000D01*
X167350000Y-99750000D01*
X167050000Y-99750000D01*
X167050000Y-99700000D01*
X166950000Y-99700000D01*
X166950000Y-99650000D01*
X166850000Y-99650000D01*
X166850000Y-99600000D01*
X166800000Y-99600000D01*
X166800000Y-99700000D01*
X164099999Y-99700000D01*
X164099999Y-99696093D01*
X164100000Y-99695090D01*
X164100000Y-99550000D01*
X167350000Y-99550000D01*
X167400000Y-99550000D01*
X167400000Y-99600000D01*
X167450000Y-99600000D01*
X167450000Y-99650000D01*
X167500000Y-99650000D01*
X167500000Y-99550000D01*
X167450000Y-99550000D01*
X167450000Y-99500000D01*
X167350000Y-99500000D01*
X167350000Y-99550000D01*
X164100000Y-99550000D01*
X164100000Y-99500181D01*
X164124375Y-99499465D01*
X164148750Y-99498750D01*
X164149427Y-99449375D01*
X164150105Y-99400000D01*
X164170052Y-99399999D01*
X164182721Y-99399583D01*
X164191232Y-99397792D01*
X164196398Y-99393818D01*
X164199029Y-99386850D01*
X164199937Y-99376078D01*
X164199999Y-99370090D01*
X164200000Y-99350181D01*
X164224375Y-99349465D01*
X164248750Y-99348750D01*
X164249465Y-99324375D01*
X164250181Y-99300000D01*
X164270090Y-99299999D01*
X164282733Y-99299584D01*
X164291231Y-99297796D01*
X164296391Y-99293825D01*
X164299023Y-99286861D01*
X164299935Y-99276093D01*
X164299999Y-99270000D01*
X164300000Y-99250000D01*
X164400000Y-99250000D01*
X164400000Y-99230435D01*
X164400174Y-99220209D01*
X164400907Y-99213616D01*
X164402513Y-99209297D01*
X164405307Y-99205893D01*
X164405786Y-99205435D01*
X164409598Y-99202572D01*
X164414374Y-99200915D01*
X164421513Y-99200160D01*
X164430786Y-99200000D01*
X164450000Y-99200000D01*
X164450000Y-99150105D01*
X164499375Y-99149427D01*
X164548750Y-99148750D01*
X164549465Y-99124375D01*
X164550181Y-99100000D01*
X164822090Y-99100000D01*
X164867181Y-99100012D01*
X164907488Y-99100052D01*
X164943227Y-99100120D01*
X164974614Y-99100220D01*
X165001865Y-99100355D01*
X165025197Y-99100525D01*
X165044825Y-99100734D01*
X165060965Y-99100984D01*
X165073834Y-99101277D01*
X165083646Y-99101616D01*
X165090620Y-99102003D01*
X165094970Y-99102441D01*
X165096912Y-99102931D01*
X165097000Y-99103000D01*
X165098612Y-99107253D01*
X165099639Y-99115808D01*
X165099999Y-99127991D01*
X165100000Y-99128000D01*
X165100000Y-99150000D01*
X165200000Y-99150000D01*
X165200000Y-99167692D01*
X165200185Y-99177269D01*
X165201055Y-99183460D01*
X165203080Y-99187871D01*
X165206730Y-99192111D01*
X165207307Y-99192692D01*
X165214615Y-99199999D01*
X165257307Y-99199999D01*
X165300000Y-99200000D01*
X165300000Y-99250000D01*
X165400000Y-99250000D01*
X165400000Y-99267692D01*
X165400185Y-99277269D01*
X165401055Y-99283460D01*
X165403080Y-99287871D01*
X165406730Y-99292111D01*
X165407307Y-99292692D01*
X165414615Y-99299999D01*
X165457217Y-99299999D01*
X165499818Y-99300000D01*
X165501250Y-99348750D01*
X165650000Y-99350074D01*
X165650000Y-99400000D01*
X165722000Y-99400000D01*
X165744846Y-99400064D01*
X165763052Y-99400266D01*
X165776977Y-99400621D01*
X165786979Y-99401143D01*
X165793418Y-99401846D01*
X165796651Y-99402744D01*
X165797000Y-99403000D01*
X165798612Y-99407253D01*
X165799639Y-99415808D01*
X165799999Y-99427991D01*
X165800000Y-99428000D01*
X165800000Y-99450000D01*
X165950000Y-99450000D01*
X165950000Y-99400000D01*
X166020000Y-99399999D01*
X166042108Y-99400012D01*
X166059726Y-99399924D01*
X166073362Y-99399544D01*
X166083523Y-99398681D01*
X166090719Y-99397146D01*
X166095458Y-99394748D01*
X166098247Y-99391297D01*
X166099597Y-99386602D01*
X166100014Y-99380473D01*
X166100008Y-99372719D01*
X166100000Y-99370037D01*
X166100000Y-99350074D01*
X166248750Y-99348750D01*
X166249465Y-99324375D01*
X166250181Y-99300000D01*
X166599818Y-99300000D01*
X166601250Y-99348750D01*
X166748750Y-99348750D01*
X166749427Y-99299375D01*
X166750105Y-99250000D01*
X166800000Y-99250000D01*
X166800000Y-99230435D01*
X166800174Y-99220209D01*
X166800907Y-99213616D01*
X166802513Y-99209297D01*
X166805307Y-99205893D01*
X166805786Y-99205435D01*
X166809598Y-99202572D01*
X166814374Y-99200915D01*
X166821513Y-99200160D01*
X166830786Y-99200000D01*
X166850000Y-99200000D01*
X166850000Y-99175052D01*
X166849999Y-99150105D01*
X166899375Y-99149427D01*
X166948750Y-99148750D01*
X166949465Y-99124375D01*
X166950181Y-99100000D01*
X166970090Y-99099999D01*
X166982733Y-99099584D01*
X166991231Y-99097796D01*
X166996391Y-99093825D01*
X166999023Y-99086861D01*
X166999935Y-99076093D01*
X167000000Y-99070000D01*
X167000000Y-99050000D01*
X167050000Y-99050000D01*
X167050000Y-99000000D01*
X167150000Y-99000000D01*
X167150000Y-98950000D01*
X167200000Y-98950000D01*
X167200000Y-98930435D01*
X167200174Y-98920209D01*
X167200907Y-98913616D01*
X167202513Y-98909297D01*
X167205307Y-98905893D01*
X167205786Y-98905435D01*
X167209598Y-98902572D01*
X167214374Y-98900915D01*
X167221513Y-98900160D01*
X167230786Y-98900000D01*
X167250000Y-98900000D01*
X167250000Y-98850000D01*
X167450000Y-98850000D01*
X167450000Y-99200000D01*
X167474909Y-99199999D01*
X167499818Y-99199999D01*
X167500534Y-99224374D01*
X167501250Y-99248750D01*
X167525535Y-99249464D01*
X167549821Y-99250178D01*
X167550535Y-99274464D01*
X167551250Y-99298750D01*
X167575535Y-99299464D01*
X167599821Y-99300178D01*
X167600535Y-99324464D01*
X167601250Y-99348750D01*
X167625625Y-99349465D01*
X167650000Y-99350181D01*
X167650000Y-99400000D01*
X167950000Y-99400000D01*
X167950000Y-99600000D01*
X167934705Y-99600000D01*
X167925920Y-99600235D01*
X167920116Y-99601462D01*
X167915277Y-99604463D01*
X167909705Y-99609705D01*
X167904264Y-99615523D01*
X167901360Y-99620381D01*
X167900202Y-99626309D01*
X167900000Y-99634615D01*
X167900000Y-99649818D01*
X167851250Y-99651250D01*
X167850534Y-99675624D01*
X167849818Y-99699999D01*
X167834615Y-99699999D01*
X167825852Y-99700240D01*
X167820055Y-99701487D01*
X167815196Y-99704532D01*
X167809705Y-99709705D01*
X167800000Y-99719411D01*
X167800000Y-99800000D01*
X167780000Y-99800000D01*
X167771705Y-99799965D01*
X167765095Y-99800202D01*
X167759981Y-99801217D01*
X167756171Y-99803521D01*
X167753473Y-99807622D01*
X167751698Y-99814028D01*
X167750654Y-99823248D01*
X167750149Y-99835790D01*
X167749994Y-99852164D01*
X167749996Y-99872879D01*
X167750000Y-99879909D01*
X167750000Y-99949818D01*
X167701250Y-99951250D01*
X167699818Y-100000000D01*
X167650000Y-100000000D01*
X167650000Y-100050000D01*
X167630000Y-100049999D01*
X167617175Y-100050531D01*
X167608518Y-100052508D01*
X167603273Y-100056501D01*
X167600686Y-100063081D01*
X167600000Y-100072692D01*
X167600515Y-100081201D01*
X167602619Y-100087052D01*
X167607145Y-100092529D01*
X167607307Y-100092692D01*
X167611628Y-100096566D01*
X167615923Y-100098763D01*
X167621796Y-100099751D01*
X167630851Y-100099997D01*
X167632359Y-100100000D01*
X167650103Y-100100000D01*
X167649426Y-100150561D01*
X167648750Y-100201122D01*
X167635834Y-100201186D01*
X167622459Y-100203355D01*
X167611886Y-100209375D01*
X167604626Y-100218732D01*
X167601191Y-100230909D01*
X167600998Y-100236250D01*
X167601250Y-100246250D01*
X167923505Y-100246884D01*
X167974409Y-100246998D01*
X168020462Y-100247131D01*
X168061810Y-100247283D01*
X168098601Y-100247458D01*
X168130983Y-100247656D01*
X168159105Y-100247879D01*
X168183113Y-100248129D01*
X168203156Y-100248406D01*
X168219380Y-100248713D01*
X168231935Y-100249051D01*
X168240968Y-100249422D01*
X168246626Y-100249828D01*
X168249058Y-100250269D01*
X168249130Y-100250315D01*
X168249549Y-100253126D01*
X168249944Y-100260654D01*
X168250314Y-100272614D01*
X168250659Y-100288724D01*
X168250979Y-100308699D01*
X168251275Y-100332257D01*
X168251547Y-100359115D01*
X168251793Y-100388987D01*
X168252015Y-100421591D01*
X168252212Y-100456644D01*
X168252385Y-100493862D01*
X168252534Y-100532961D01*
X168252657Y-100573658D01*
X168252756Y-100615669D01*
X168252831Y-100658711D01*
X168252881Y-100702501D01*
X168252907Y-100746755D01*
X168252908Y-100791188D01*
X168252884Y-100835519D01*
X168252836Y-100879463D01*
X168252764Y-100922737D01*
X168252667Y-100965057D01*
X168252546Y-101006141D01*
X168252401Y-101045703D01*
X168252231Y-101083462D01*
X168252036Y-101119132D01*
X168251818Y-101152432D01*
X168251575Y-101183077D01*
X168251307Y-101210783D01*
X168251016Y-101235268D01*
X168250700Y-101256248D01*
X168250360Y-101273439D01*
X168249995Y-101286558D01*
X168249606Y-101295322D01*
X168249193Y-101299446D01*
X168249076Y-101299728D01*
X168246277Y-101300008D01*
X168238764Y-101300269D01*
X168226821Y-101300511D01*
X168210732Y-101300734D01*
X168190779Y-101300939D01*
X168167246Y-101301125D01*
X168140417Y-101301294D01*
X168110574Y-101301444D01*
X168078002Y-101301577D01*
X168042982Y-101301691D01*
X168005800Y-101301789D01*
X167966737Y-101301868D01*
X167926078Y-101301931D01*
X167884106Y-101301976D01*
X167841104Y-101302005D01*
X167797355Y-101302017D01*
X167753143Y-101302012D01*
X167708751Y-101301990D01*
X167664462Y-101301952D01*
X167620561Y-101301898D01*
X167577329Y-101301828D01*
X167535050Y-101301742D01*
X167494009Y-101301640D01*
X167454487Y-101301523D01*
X167416769Y-101301390D01*
X167381138Y-101301242D01*
X167347877Y-101301079D01*
X167317269Y-101300901D01*
X167289598Y-101300708D01*
X167265147Y-101300500D01*
X167244200Y-101300278D01*
X167227039Y-101300042D01*
X167213949Y-101299791D01*
X167205212Y-101299526D01*
X167201112Y-101299247D01*
X167200833Y-101299166D01*
X167200630Y-101296500D01*
X167200433Y-101289067D01*
X167200243Y-101277099D01*
X167200059Y-101260830D01*
X167199884Y-101240492D01*
X167199717Y-101216318D01*
X167199561Y-101188540D01*
X167199416Y-101157392D01*
X167199382Y-101148750D01*
X167451250Y-101148750D01*
X167460000Y-101148288D01*
X167468691Y-101147826D01*
X167478045Y-101147324D01*
X167478750Y-101147286D01*
X167488864Y-101147197D01*
X167495093Y-101148877D01*
X167498475Y-101153234D01*
X167500050Y-101161176D01*
X167500452Y-101166246D01*
X167502874Y-101180088D01*
X167508268Y-101190134D01*
X167516856Y-101196764D01*
X167518750Y-101197620D01*
X167521888Y-101197899D01*
X167529692Y-101198158D01*
X167541825Y-101198395D01*
X167557954Y-101198609D01*
X167577742Y-101198796D01*
X167600856Y-101198955D01*
X167626960Y-101199085D01*
X167655719Y-101199182D01*
X167686798Y-101199246D01*
X167719862Y-101199274D01*
X167754577Y-101199264D01*
X167786250Y-101199222D01*
X168048750Y-101198750D01*
X168050178Y-101150178D01*
X168098750Y-101148750D01*
X168098750Y-100851250D01*
X168030551Y-100850584D01*
X167962353Y-100849919D01*
X167956176Y-100856096D01*
X167952953Y-100859885D01*
X167951089Y-100864179D01*
X167950224Y-100870433D01*
X167950000Y-100880101D01*
X167950000Y-100900000D01*
X167937252Y-100900000D01*
X167922635Y-100901658D01*
X167911706Y-100906682D01*
X167904387Y-100915144D01*
X167900604Y-100927118D01*
X167900000Y-100935920D01*
X167900000Y-100949818D01*
X167851250Y-100951250D01*
X167849894Y-101049894D01*
X167751250Y-101051250D01*
X167750535Y-101075565D01*
X167749820Y-101099881D01*
X167606228Y-101100565D01*
X167462636Y-101101250D01*
X167456943Y-101106941D01*
X167453882Y-101110726D01*
X167452148Y-101115378D01*
X167451390Y-101122367D01*
X167451250Y-101130691D01*
X167451250Y-101148750D01*
X167199382Y-101148750D01*
X167199282Y-101123106D01*
X167199161Y-101085915D01*
G37*
G36*
X166363925Y-102072850D02*
G01*
X166364835Y-102050641D01*
X166366218Y-102031126D01*
X166368073Y-102015381D01*
X166368335Y-102013750D01*
X166379060Y-101961124D01*
X166393192Y-101911890D01*
X166410923Y-101865613D01*
X166432439Y-101821860D01*
X166457929Y-101780197D01*
X166486726Y-101741250D01*
X166517829Y-101706417D01*
X166552233Y-101674916D01*
X166589479Y-101647045D01*
X166629106Y-101623103D01*
X166670655Y-101603388D01*
X166713665Y-101588200D01*
X166728879Y-101584033D01*
X166747701Y-101579436D01*
X166764293Y-101575855D01*
X166779759Y-101573169D01*
X166795203Y-101571257D01*
X166811728Y-101569998D01*
X166830438Y-101569269D01*
X166852436Y-101568950D01*
X166866250Y-101568905D01*
X166886855Y-101568946D01*
X166903428Y-101569138D01*
X166916938Y-101569539D01*
X166928351Y-101570207D01*
X166938636Y-101571201D01*
X166948760Y-101572579D01*
X166959691Y-101574401D01*
X166961101Y-101574652D01*
X167009071Y-101585403D01*
X167053964Y-101600005D01*
X167096045Y-101618590D01*
X167135578Y-101641291D01*
X167172828Y-101668240D01*
X167204636Y-101696250D01*
X167234979Y-101727654D01*
X167261321Y-101760002D01*
X167284569Y-101794536D01*
X167305629Y-101832500D01*
X167308841Y-101838943D01*
X167329359Y-101886104D01*
X167345437Y-101935123D01*
X167357115Y-101986173D01*
X167364429Y-102039428D01*
X167367417Y-102095061D01*
X167367500Y-102106250D01*
X167365319Y-102161719D01*
X167358823Y-102215298D01*
X167348079Y-102266806D01*
X167333154Y-102316058D01*
X167314115Y-102362874D01*
X167291030Y-102407070D01*
X167263966Y-102448465D01*
X167232991Y-102486875D01*
X167222864Y-102497876D01*
X167187585Y-102531564D01*
X167149789Y-102560938D01*
X167109460Y-102586008D01*
X167066580Y-102606782D01*
X167021130Y-102623270D01*
X166973092Y-102635482D01*
X166955000Y-102638861D01*
X166946266Y-102639966D01*
X166933909Y-102641018D01*
X166918859Y-102641986D01*
X166902046Y-102642838D01*
X166884402Y-102643543D01*
X166866856Y-102644069D01*
X166850340Y-102644385D01*
X166835784Y-102644461D01*
X166824118Y-102644263D01*
X166816273Y-102643762D01*
X166815000Y-102643582D01*
X166809732Y-102642800D01*
X166801052Y-102641632D01*
X166790511Y-102640285D01*
X166786250Y-102639758D01*
X166769679Y-102637147D01*
X166750279Y-102633164D01*
X166729673Y-102628220D01*
X166709485Y-102622726D01*
X166691340Y-102617091D01*
X166679404Y-102612765D01*
X166634657Y-102592508D01*
X166593213Y-102568595D01*
X166554990Y-102540950D01*
X166519908Y-102509496D01*
X166487889Y-102474157D01*
X166458850Y-102434856D01*
X166432713Y-102391516D01*
X166418489Y-102363750D01*
X166398984Y-102318614D01*
X166383720Y-102272718D01*
X166372320Y-102224842D01*
X166368377Y-102202500D01*
X166366456Y-102186696D01*
X166365007Y-102167137D01*
X166364029Y-102144898D01*
X166363522Y-102121054D01*
X166363488Y-102096836D01*
X166466762Y-102096836D01*
X166466872Y-102122039D01*
X166467744Y-102146176D01*
X166469378Y-102167826D01*
X166471051Y-102181250D01*
X166480669Y-102230151D01*
X166493949Y-102275886D01*
X166510808Y-102318361D01*
X166531160Y-102357480D01*
X166554924Y-102393150D01*
X166582016Y-102425277D01*
X166612352Y-102453766D01*
X166645848Y-102478524D01*
X166682422Y-102499457D01*
X166721990Y-102516469D01*
X166764468Y-102529468D01*
X166783750Y-102533829D01*
X166806523Y-102537332D01*
X166832686Y-102539472D01*
X166860819Y-102540260D01*
X166889506Y-102539707D01*
X166917328Y-102537826D01*
X166942866Y-102534628D01*
X166954846Y-102532433D01*
X166982952Y-102525423D01*
X167011556Y-102516179D01*
X167038479Y-102505446D01*
X167051038Y-102499550D01*
X167085847Y-102479422D01*
X167118455Y-102455018D01*
X167148511Y-102426708D01*
X167175661Y-102394862D01*
X167199555Y-102359849D01*
X167219665Y-102322411D01*
X167236232Y-102281666D01*
X167248944Y-102238379D01*
X167257809Y-102193186D01*
X167262834Y-102146722D01*
X167264025Y-102099622D01*
X167261388Y-102052524D01*
X167254930Y-102006061D01*
X167244659Y-101960870D01*
X167230579Y-101917587D01*
X167215100Y-101881694D01*
X167194842Y-101845196D01*
X167171045Y-101811319D01*
X167144137Y-101780515D01*
X167114547Y-101753236D01*
X167082701Y-101729936D01*
X167057866Y-101715485D01*
X167019751Y-101698404D01*
X166979101Y-101685487D01*
X166936289Y-101676834D01*
X166896549Y-101672792D01*
X166849094Y-101672367D01*
X166803611Y-101676467D01*
X166760263Y-101684956D01*
X166719212Y-101697695D01*
X166680623Y-101714550D01*
X166644659Y-101735383D01*
X166611482Y-101760057D01*
X166581257Y-101788436D01*
X166554146Y-101820383D01*
X166530313Y-101855761D01*
X166509922Y-101894433D01*
X166493135Y-101936263D01*
X166480115Y-101981115D01*
X166471027Y-102028851D01*
X166471004Y-102029015D01*
X166468827Y-102048904D01*
X166467413Y-102071984D01*
X166466762Y-102096836D01*
X166363488Y-102096836D01*
X166363488Y-102096680D01*
X166363925Y-102072850D01*
G37*
G36*
X164899939Y-101487849D02*
G01*
X164934840Y-101492284D01*
X164967524Y-101498807D01*
X164997615Y-101507293D01*
X165024733Y-101517619D01*
X165048501Y-101529662D01*
X165068540Y-101543297D01*
X165084474Y-101558402D01*
X165095566Y-101574187D01*
X165099358Y-101581617D01*
X165102222Y-101588695D01*
X165104241Y-101596207D01*
X165105493Y-101604938D01*
X165106061Y-101615672D01*
X165106025Y-101629195D01*
X165105465Y-101646291D01*
X165104695Y-101663045D01*
X165103953Y-101679108D01*
X165103373Y-101693536D01*
X165102979Y-101705564D01*
X165102795Y-101714426D01*
X165102845Y-101719357D01*
X165102932Y-101720048D01*
X165104657Y-101719484D01*
X165108417Y-101715556D01*
X165113476Y-101709058D01*
X165114731Y-101707305D01*
X165136554Y-101680120D01*
X165161183Y-101656246D01*
X165187962Y-101636259D01*
X165209271Y-101624062D01*
X165226803Y-101616015D01*
X165243155Y-101610299D01*
X165259804Y-101606594D01*
X165278231Y-101604581D01*
X165299914Y-101603941D01*
X165302500Y-101603940D01*
X165317429Y-101604061D01*
X165328650Y-101604452D01*
X165337456Y-101605271D01*
X165345138Y-101606673D01*
X165352986Y-101608815D01*
X165359076Y-101610773D01*
X165385666Y-101622223D01*
X165410225Y-101638167D01*
X165432646Y-101658483D01*
X165452820Y-101683048D01*
X165470638Y-101711740D01*
X165485994Y-101744438D01*
X165492331Y-101761160D01*
X165495811Y-101770896D01*
X165498671Y-101778656D01*
X165500513Y-101783372D01*
X165500952Y-101784286D01*
X165503281Y-101783403D01*
X165509420Y-101780537D01*
X165518738Y-101775998D01*
X165530603Y-101770095D01*
X165544382Y-101763140D01*
X165552709Y-101758896D01*
X165592310Y-101738889D01*
X165628124Y-101721362D01*
X165660608Y-101706153D01*
X165690221Y-101693101D01*
X165717419Y-101682042D01*
X165742661Y-101672816D01*
X165766404Y-101665260D01*
X165789106Y-101659212D01*
X165811224Y-101654511D01*
X165833216Y-101650993D01*
X165855540Y-101648498D01*
X165867221Y-101647565D01*
X165901173Y-101646435D01*
X165931620Y-101648150D01*
X165959239Y-101652811D01*
X165984705Y-101660519D01*
X166001250Y-101667607D01*
X166025083Y-101681196D01*
X166045674Y-101697609D01*
X166063372Y-101717267D01*
X166078531Y-101740593D01*
X166091500Y-101768009D01*
X166097014Y-101782641D01*
X166104377Y-101805861D01*
X166110231Y-101829568D01*
X166114680Y-101854573D01*
X166117833Y-101881687D01*
X166119797Y-101911719D01*
X166120678Y-101945482D01*
X166120749Y-101962500D01*
X166120625Y-101983454D01*
X166120288Y-102003187D01*
X166119686Y-102022212D01*
X166118767Y-102041045D01*
X166117477Y-102060198D01*
X166115764Y-102080186D01*
X166113575Y-102101525D01*
X166110859Y-102124726D01*
X166107562Y-102150306D01*
X166103631Y-102178778D01*
X166099015Y-102210656D01*
X166093661Y-102246455D01*
X166087776Y-102285000D01*
X166085588Y-102299588D01*
X166083775Y-102312401D01*
X166082437Y-102322650D01*
X166081679Y-102329549D01*
X166081601Y-102332310D01*
X166081606Y-102332316D01*
X166084144Y-102331906D01*
X166090934Y-102330260D01*
X166101424Y-102327528D01*
X166115063Y-102323857D01*
X166131298Y-102319396D01*
X166149578Y-102314294D01*
X166166549Y-102309495D01*
X166250549Y-102285606D01*
X166268399Y-102302113D01*
X166276107Y-102309213D01*
X166282337Y-102314900D01*
X166286251Y-102318412D01*
X166287141Y-102319159D01*
X166286911Y-102321670D01*
X166285810Y-102328565D01*
X166283938Y-102339325D01*
X166281394Y-102353430D01*
X166278279Y-102370360D01*
X166274692Y-102389594D01*
X166270734Y-102410613D01*
X166266504Y-102432897D01*
X166262103Y-102455926D01*
X166257630Y-102479179D01*
X166253185Y-102502137D01*
X166248869Y-102524280D01*
X166244781Y-102545088D01*
X166241021Y-102564041D01*
X166237690Y-102580618D01*
X166234887Y-102594300D01*
X166232712Y-102604567D01*
X166231265Y-102610899D01*
X166230690Y-102612792D01*
X166228063Y-102613938D01*
X166221224Y-102616558D01*
X166210680Y-102620472D01*
X166196935Y-102625500D01*
X166180496Y-102631463D01*
X166161871Y-102638179D01*
X166141563Y-102645470D01*
X166120081Y-102653155D01*
X166097929Y-102661053D01*
X166075615Y-102668986D01*
X166053644Y-102676772D01*
X166032522Y-102684232D01*
X166012756Y-102691186D01*
X165994852Y-102697454D01*
X165979315Y-102702856D01*
X165966653Y-102707211D01*
X165957372Y-102710340D01*
X165951976Y-102712062D01*
X165950811Y-102712345D01*
X165948143Y-102710751D01*
X165942622Y-102706584D01*
X165935167Y-102700556D01*
X165929871Y-102696105D01*
X165910992Y-102680020D01*
X165926833Y-102593135D01*
X165938599Y-102528209D01*
X165949368Y-102467921D01*
X165959174Y-102412017D01*
X165968052Y-102360242D01*
X165976035Y-102312341D01*
X165983157Y-102268062D01*
X165989452Y-102227148D01*
X165994955Y-102189345D01*
X165999699Y-102154400D01*
X166003718Y-102122057D01*
X166007046Y-102092063D01*
X166009717Y-102064161D01*
X166011765Y-102038100D01*
X166013224Y-102013623D01*
X166014129Y-101990476D01*
X166014513Y-101968405D01*
X166014409Y-101947156D01*
X166014237Y-101938750D01*
X166012595Y-101902709D01*
X166009527Y-101871245D01*
X166004950Y-101844117D01*
X165998782Y-101821087D01*
X165990940Y-101801913D01*
X165981343Y-101786357D01*
X165969907Y-101774178D01*
X165956550Y-101765138D01*
X165954151Y-101763929D01*
X165934230Y-101756933D01*
X165910785Y-101753435D01*
X165883860Y-101753428D01*
X165853496Y-101756906D01*
X165819738Y-101763862D01*
X165782627Y-101774290D01*
X165742207Y-101788182D01*
X165707500Y-101801794D01*
X165695307Y-101806882D01*
X165684681Y-101811442D01*
X165676526Y-101815077D01*
X165671746Y-101817389D01*
X165670988Y-101817850D01*
X165670568Y-101819837D01*
X165670168Y-101825212D01*
X165669786Y-101834100D01*
X165669420Y-101846627D01*
X165669069Y-101862919D01*
X165668732Y-101883103D01*
X165668407Y-101907303D01*
X165668091Y-101935647D01*
X165667785Y-101968259D01*
X165667485Y-102005268D01*
X165667191Y-102046797D01*
X165666901Y-102092974D01*
X165666613Y-102143924D01*
X165666384Y-102188129D01*
X165666165Y-102230626D01*
X165665941Y-102271748D01*
X165665714Y-102311218D01*
X165665486Y-102348758D01*
X165665259Y-102384093D01*
X165665036Y-102416945D01*
X165664818Y-102447038D01*
X165664607Y-102474094D01*
X165664406Y-102497838D01*
X165664216Y-102517992D01*
X165664040Y-102534279D01*
X165663880Y-102546423D01*
X165663738Y-102554147D01*
X165663615Y-102557174D01*
X165663605Y-102557207D01*
X165661044Y-102558310D01*
X165654343Y-102560873D01*
X165644075Y-102564690D01*
X165630813Y-102569555D01*
X165615131Y-102575262D01*
X165597604Y-102581607D01*
X165578804Y-102588383D01*
X165559305Y-102595386D01*
X165539682Y-102602409D01*
X165520508Y-102609247D01*
X165502356Y-102615694D01*
X165485801Y-102621545D01*
X165471416Y-102626595D01*
X165459774Y-102630637D01*
X165451450Y-102633467D01*
X165447018Y-102634878D01*
X165446473Y-102635000D01*
X165443304Y-102633614D01*
X165437169Y-102629893D01*
X165429109Y-102624491D01*
X165424191Y-102621010D01*
X165404793Y-102607021D01*
X165406273Y-102546635D01*
X165406702Y-102528076D01*
X165407176Y-102505695D01*
X165407687Y-102479961D01*
X165408228Y-102451343D01*
X165408791Y-102420312D01*
X165409370Y-102387335D01*
X165409957Y-102352882D01*
X165410545Y-102317423D01*
X165411126Y-102281427D01*
X165411693Y-102245362D01*
X165412239Y-102209699D01*
X165412757Y-102174907D01*
X165413239Y-102141453D01*
X165413678Y-102109809D01*
X165414066Y-102080443D01*
X165414397Y-102053825D01*
X165414663Y-102030423D01*
X165414857Y-102010707D01*
X165414971Y-101995147D01*
X165415000Y-101986019D01*
X165414850Y-101959331D01*
X165414342Y-101936578D01*
X165413392Y-101916699D01*
X165411911Y-101898637D01*
X165409814Y-101881333D01*
X165407014Y-101863729D01*
X165403524Y-101845258D01*
X165395021Y-101810727D01*
X165384182Y-101780363D01*
X165371053Y-101754271D01*
X165355680Y-101732561D01*
X165355356Y-101732180D01*
X165342371Y-101720543D01*
X165327109Y-101712986D01*
X165310117Y-101709461D01*
X165291940Y-101709922D01*
X165273125Y-101714320D01*
X165254219Y-101722609D01*
X165235768Y-101734741D01*
X165225662Y-101743360D01*
X165204101Y-101766333D01*
X165183672Y-101793883D01*
X165164505Y-101825692D01*
X165146730Y-101861438D01*
X165130480Y-101900801D01*
X165115883Y-101943461D01*
X165103072Y-101989096D01*
X165092177Y-102037387D01*
X165083328Y-102088014D01*
X165082318Y-102094861D01*
X165081124Y-102104854D01*
X165079781Y-102119320D01*
X165078286Y-102138323D01*
X165076634Y-102161932D01*
X165074821Y-102190212D01*
X165072843Y-102223232D01*
X165070696Y-102261058D01*
X165068374Y-102303757D01*
X165066270Y-102343750D01*
X165064593Y-102376053D01*
X165062992Y-102406900D01*
X165061484Y-102435927D01*
X165060088Y-102462774D01*
X165058825Y-102487079D01*
X165057712Y-102508480D01*
X165056768Y-102526616D01*
X165056012Y-102541124D01*
X165055462Y-102551644D01*
X165055139Y-102557814D01*
X165055055Y-102559375D01*
X165052698Y-102559788D01*
X165046465Y-102559993D01*
X165037478Y-102560008D01*
X165026855Y-102559852D01*
X165015717Y-102559544D01*
X165005183Y-102559102D01*
X164996373Y-102558544D01*
X164994361Y-102558369D01*
X164977473Y-102556774D01*
X164963917Y-102541334D01*
X164950361Y-102525893D01*
X164967830Y-102223571D01*
X164970955Y-102169053D01*
X164973744Y-102119501D01*
X164976197Y-102074891D01*
X164978315Y-102035200D01*
X164980100Y-102000406D01*
X164981553Y-101970486D01*
X164982674Y-101945416D01*
X164983465Y-101925173D01*
X164983928Y-101909735D01*
X164984063Y-101899078D01*
X164983967Y-101894543D01*
X164981277Y-101865659D01*
X164976209Y-101841048D01*
X164968616Y-101820506D01*
X164958352Y-101803832D01*
X164945271Y-101790823D01*
X164929228Y-101781276D01*
X164910075Y-101774990D01*
X164895772Y-101772543D01*
X164882665Y-101771179D01*
X164865431Y-101769718D01*
X164844943Y-101768220D01*
X164822072Y-101766741D01*
X164797689Y-101765339D01*
X164772665Y-101764073D01*
X164759375Y-101763474D01*
X164720000Y-101761779D01*
X164720000Y-101631037D01*
X164720042Y-101604164D01*
X164720164Y-101579459D01*
X164720360Y-101557317D01*
X164720623Y-101538138D01*
X164720945Y-101522317D01*
X164721320Y-101510251D01*
X164721741Y-101502339D01*
X164722201Y-101498977D01*
X164722264Y-101498895D01*
X164727237Y-101497132D01*
X164736295Y-101495170D01*
X164748530Y-101493124D01*
X164763039Y-101491112D01*
X164778915Y-101489248D01*
X164795252Y-101487649D01*
X164811144Y-101486431D01*
X164825000Y-101485733D01*
X164863199Y-101485624D01*
X164899939Y-101487849D01*
G37*
%TD*%
D11*
%TO.C,C19*%
X174100000Y-95799999D03*
X172200000Y-95799999D03*
%TD*%
D12*
%TO.C,J8*%
X114700000Y-103850000D03*
D13*
X114700000Y-101350000D03*
%TD*%
D14*
%TO.C,R19*%
X175900000Y-117687500D03*
X175900000Y-119512500D03*
%TD*%
D15*
%TO.C,C16*%
X168980001Y-107095000D03*
X168980001Y-106135000D03*
%TD*%
D16*
%TO.C,R22*%
X169980000Y-117635000D03*
X169980000Y-116615000D03*
%TD*%
D17*
%TO.C,C45*%
X132959999Y-119759813D03*
X131999999Y-119759813D03*
%TD*%
D12*
%TO.C,J1*%
X114700000Y-112750000D03*
D13*
X114700000Y-110250000D03*
%TD*%
D18*
%TO.C,U1*%
X141112500Y-106149999D03*
X141112500Y-106649999D03*
X141112500Y-107149999D03*
X141112500Y-107649999D03*
X143887500Y-107649999D03*
X143887500Y-107149999D03*
X143887500Y-106649999D03*
X143887500Y-106149999D03*
D19*
X142500000Y-106899999D03*
%TD*%
D16*
%TO.C,R36*%
X164680000Y-117635000D03*
X164680000Y-116615000D03*
%TD*%
D15*
%TO.C,C24*%
X166980000Y-107105000D03*
X166980000Y-106145000D03*
%TD*%
D16*
%TO.C,R39*%
X163680001Y-107135000D03*
X163680001Y-106115000D03*
%TD*%
D20*
%TO.C,R35*%
X133700000Y-112629906D03*
X133700000Y-113649906D03*
%TD*%
%TO.C,R37*%
X163680000Y-116615000D03*
X163680000Y-117635000D03*
%TD*%
D11*
%TO.C,C4*%
X174100000Y-119950000D03*
X172200000Y-119950000D03*
%TD*%
D21*
%TO.C,C14*%
X168980000Y-116645000D03*
X168980000Y-117605000D03*
%TD*%
D16*
%TO.C,R44*%
X133200000Y-106427406D03*
X133200000Y-105407406D03*
%TD*%
D22*
%TO.C,U8*%
X132950000Y-110904906D03*
X133450000Y-110904906D03*
X133950000Y-110904906D03*
X134450000Y-110904906D03*
X134450000Y-108129906D03*
X133950000Y-108129906D03*
X133450000Y-108129906D03*
X132950000Y-108129906D03*
D23*
X133700000Y-109517406D03*
%TD*%
D16*
%TO.C,R41*%
X135214906Y-106427406D03*
X135214906Y-105407406D03*
%TD*%
D21*
%TO.C,C44*%
X146599999Y-118789812D03*
X146599999Y-119749812D03*
%TD*%
D24*
%TO.C,R6*%
X139409999Y-106900000D03*
X138389999Y-106900000D03*
%TD*%
D25*
%TO.C,C61*%
X139303636Y-110645313D03*
X141212824Y-112554501D03*
%TD*%
D20*
%TO.C,R34*%
X131689906Y-112639906D03*
X131689906Y-113659906D03*
%TD*%
D24*
%TO.C,R30*%
X132984999Y-116749906D03*
X131964999Y-116749906D03*
%TD*%
D26*
%TO.C,J2*%
X179310000Y-112600000D03*
D27*
X180810000Y-111125000D03*
X180810000Y-114075000D03*
D26*
X182310000Y-112600000D03*
%TD*%
D28*
%TO.C,R14*%
X145589998Y-106400001D03*
X146609998Y-106400001D03*
%TD*%
D29*
%TO.C,C26*%
X143000093Y-93674906D03*
X143000093Y-98599906D03*
%TD*%
D20*
%TO.C,R38*%
X164680000Y-106115001D03*
X164680000Y-107135001D03*
%TD*%
D30*
%TO.C,U11*%
X123500000Y-107237500D03*
X124450000Y-107237500D03*
X125400000Y-107237500D03*
X125400000Y-104962500D03*
X124450000Y-104962500D03*
X123500000Y-104962500D03*
%TD*%
D11*
%TO.C,C6*%
X174100000Y-115850000D03*
X172200000Y-115850000D03*
%TD*%
D14*
%TO.C,R43*%
X175900000Y-107687500D03*
X175900000Y-109512500D03*
%TD*%
D21*
%TO.C,C71*%
X125450000Y-102340000D03*
X125450000Y-103300000D03*
%TD*%
D20*
%TO.C,R20*%
X144599999Y-118759812D03*
X144599999Y-119779812D03*
%TD*%
D16*
%TO.C,R17*%
X146099999Y-112579812D03*
X146099999Y-111559812D03*
%TD*%
D31*
%TO.C,H1*%
X114000000Y-93000000D03*
D32*
X114000000Y-93000000D03*
%TD*%
D33*
%TO.C,U5*%
X145849999Y-114282312D03*
X145349999Y-114282312D03*
X144849999Y-114282312D03*
X144349999Y-114282312D03*
X144349999Y-117057312D03*
X144849999Y-117057312D03*
X145349999Y-117057312D03*
X145849999Y-117057312D03*
D23*
X145099999Y-115669812D03*
%TD*%
D16*
%TO.C,R52*%
X124450000Y-103300001D03*
X124450000Y-102280001D03*
%TD*%
D15*
%TO.C,C60*%
X165830000Y-117605000D03*
X165830000Y-116645000D03*
%TD*%
D11*
%TO.C,C5*%
X174100000Y-117900000D03*
X172200000Y-117900000D03*
%TD*%
%TO.C,C40*%
X174100000Y-105850000D03*
X172200000Y-105850000D03*
%TD*%
D16*
%TO.C,R26*%
X167980000Y-107125000D03*
X167980000Y-106105000D03*
%TD*%
%TO.C,R42*%
X134200000Y-106427406D03*
X134200000Y-105407406D03*
%TD*%
D11*
%TO.C,C22*%
X174100000Y-93749999D03*
X172200000Y-93749999D03*
%TD*%
D20*
%TO.C,R40*%
X132699999Y-112629906D03*
X132699999Y-113649906D03*
%TD*%
D15*
%TO.C,C57*%
X134699999Y-113599906D03*
X134699999Y-112639906D03*
%TD*%
D24*
%TO.C,R31*%
X132990000Y-117759814D03*
X131970000Y-117759814D03*
%TD*%
D29*
%TO.C,C30*%
X135200093Y-93674906D03*
X135200093Y-98599906D03*
%TD*%
D34*
%TO.C,U7*%
X137577501Y-119009813D03*
X137577501Y-118509813D03*
X137577501Y-118009813D03*
X137577501Y-117509813D03*
X134802501Y-117509813D03*
X134802501Y-118009813D03*
X134802501Y-118509813D03*
X134802501Y-119009813D03*
D19*
X136190001Y-118259813D03*
%TD*%
D35*
%TO.C,U10*%
X124150000Y-114524906D03*
X124150000Y-117024906D03*
X124150000Y-119524906D03*
D36*
X122350000Y-111324906D03*
X126350000Y-123224906D03*
%TD*%
D20*
%TO.C,R23*%
X167980000Y-116615000D03*
X167980000Y-117635000D03*
%TD*%
D29*
%TO.C,C23*%
X146900092Y-93674906D03*
X146900092Y-98599906D03*
%TD*%
D37*
%TO.C,J7*%
X121000000Y-104850000D03*
X121000000Y-107390000D03*
%TD*%
D35*
%TO.C,U4*%
X153950000Y-114524906D03*
X153950000Y-117024906D03*
X153950000Y-119524906D03*
D36*
X152150000Y-111324906D03*
X156150000Y-123224906D03*
%TD*%
D21*
%TO.C,C37*%
X162680000Y-116645000D03*
X162680000Y-117605000D03*
%TD*%
D11*
%TO.C,C17*%
X174100000Y-97850000D03*
X172200000Y-97850000D03*
%TD*%
D15*
%TO.C,C49*%
X165830000Y-107105000D03*
X165830000Y-106145000D03*
%TD*%
D37*
%TO.C,J6*%
X127900000Y-104850001D03*
X127900000Y-107390001D03*
%TD*%
D20*
%TO.C,R18*%
X143599999Y-118759812D03*
X143599999Y-119779812D03*
%TD*%
D26*
%TO.C,J4*%
X125000000Y-93949906D03*
D27*
X123500000Y-92474906D03*
X123500000Y-95424906D03*
D26*
X122000000Y-93949906D03*
%TD*%
D32*
%TO.C,H3*%
X114000000Y-121000000D03*
D31*
X114000000Y-121000000D03*
%TD*%
D21*
%TO.C,C21*%
X166980000Y-116645000D03*
X166980000Y-117605000D03*
%TD*%
D14*
%TO.C,RISO2*%
X175900000Y-97637500D03*
X175900000Y-99462500D03*
%TD*%
D16*
%TO.C,R51*%
X123450000Y-103300000D03*
X123450000Y-102280000D03*
%TD*%
D26*
%TO.C,J5*%
X179260000Y-106700000D03*
X182260000Y-106700000D03*
D27*
X180760000Y-108175000D03*
X180760000Y-105225000D03*
%TD*%
D28*
%TO.C,R12*%
X145589999Y-108399905D03*
X146609999Y-108399905D03*
%TD*%
D11*
%TO.C,C7*%
X174100000Y-113799999D03*
X172200000Y-113799999D03*
%TD*%
D26*
%TO.C,J3*%
X179210000Y-101000000D03*
D27*
X180710000Y-99525000D03*
D26*
X182210000Y-101000000D03*
D27*
X180710000Y-102475000D03*
%TD*%
D20*
%TO.C,R25*%
X169979999Y-106105000D03*
X169979999Y-107125000D03*
%TD*%
D38*
%TO.C,R29*%
X175900000Y-96012500D03*
X175900000Y-94187500D03*
%TD*%
D17*
%TO.C,C56*%
X140270001Y-117259813D03*
X139310001Y-117259813D03*
%TD*%
D39*
%TO.C,R32*%
X139881913Y-101037406D03*
X141706913Y-101037406D03*
%TD*%
D15*
%TO.C,C34*%
X161680000Y-107105000D03*
X161680000Y-106145000D03*
%TD*%
D28*
%TO.C,R13*%
X145589999Y-107400001D03*
X146609999Y-107400001D03*
%TD*%
D40*
%TO.C,TP2*%
X159150000Y-115749906D03*
%TD*%
%TO.C,TP3*%
X159200000Y-104249906D03*
%TD*%
D11*
%TO.C,C13*%
X174100000Y-99900000D03*
X172200000Y-99900000D03*
%TD*%
%TO.C,C42*%
X174100000Y-109950000D03*
X172200000Y-109950000D03*
%TD*%
D21*
%TO.C,C33*%
X161680000Y-116645000D03*
X161680000Y-117605000D03*
%TD*%
D40*
%TO.C,TP1*%
X159200000Y-109600000D03*
%TD*%
D11*
%TO.C,C41*%
X174100000Y-107900000D03*
X172200000Y-107900000D03*
%TD*%
D28*
%TO.C,R27*%
X139279999Y-118259813D03*
X140299999Y-118259813D03*
%TD*%
%TO.C,R28*%
X139280000Y-119259813D03*
X140300000Y-119259813D03*
%TD*%
D15*
%TO.C,C39*%
X162680000Y-107105000D03*
X162680000Y-106145000D03*
%TD*%
D28*
%TO.C,R24*%
X139279999Y-120274906D03*
X140299999Y-120274906D03*
%TD*%
D40*
%TO.C,TP4*%
X159150000Y-122500000D03*
%TD*%
D41*
%TO.C,RISO3*%
X138156913Y-101031332D03*
X136331913Y-101031332D03*
%TD*%
D38*
%TO.C,RISO1*%
X175900000Y-116062500D03*
X175900000Y-114237500D03*
%TD*%
D20*
%TO.C,R21*%
X145599999Y-118759812D03*
X145599999Y-119779812D03*
%TD*%
D24*
%TO.C,R33*%
X132990000Y-118759812D03*
X131970000Y-118759812D03*
%TD*%
%TO.C,R9*%
X139410000Y-105900000D03*
X138390000Y-105900000D03*
%TD*%
D16*
%TO.C,R16*%
X145099999Y-112579812D03*
X145099999Y-111559812D03*
%TD*%
D42*
%TO.C,C43*%
X145619999Y-105400001D03*
X146579999Y-105400001D03*
%TD*%
D43*
%TO.C,RV1*%
X152925000Y-102724906D03*
X155465000Y-105264906D03*
X152925000Y-107804906D03*
%TD*%
D29*
%TO.C,C31*%
X131300093Y-93674906D03*
X131300093Y-98599906D03*
%TD*%
D24*
%TO.C,R3*%
X139409999Y-104899906D03*
X138389999Y-104899906D03*
%TD*%
D16*
%TO.C,R15*%
X147099999Y-112569905D03*
X147099999Y-111549905D03*
%TD*%
D31*
%TO.C,H4*%
X181000000Y-121000000D03*
D32*
X181000000Y-121000000D03*
%TD*%
D15*
%TO.C,C46*%
X132200000Y-106377407D03*
X132200000Y-105417407D03*
%TD*%
D44*
%TO.C,C62*%
X139612824Y-114154500D03*
X137703636Y-112245312D03*
%TD*%
D45*
%TO.C,C1*%
X152737500Y-99449906D03*
X157662500Y-99449906D03*
%TD*%
D38*
%TO.C,RISO4*%
X175900000Y-106062500D03*
X175900000Y-104237500D03*
%TD*%
D32*
%TO.C,H2*%
X181000000Y-93000000D03*
D31*
X181000000Y-93000000D03*
%TD*%
D21*
%TO.C,C55*%
X144099999Y-111569812D03*
X144099999Y-112529812D03*
%TD*%
D46*
%TO.C,U6*%
X169640000Y-109400000D03*
X168370000Y-109400000D03*
X167100000Y-109400000D03*
X165830000Y-109400000D03*
X164560000Y-109400000D03*
X163290000Y-109400000D03*
X162020000Y-109400000D03*
X162020000Y-114350000D03*
X163290000Y-114350000D03*
X164560000Y-114350000D03*
X165830000Y-114350000D03*
X167100000Y-114350000D03*
X168370000Y-114350000D03*
X169640000Y-114350000D03*
%TD*%
D29*
%TO.C,C28*%
X139100094Y-93674906D03*
X139100094Y-98599906D03*
%TD*%
D11*
%TO.C,C38*%
X174100000Y-103800000D03*
X172200000Y-103800000D03*
%TD*%
D42*
%TO.C,C54*%
X138419999Y-107900000D03*
X139379999Y-107900000D03*
%TD*%
M02*
