%TF.GenerationSoftware,KiCad,Pcbnew,(6.0.5)*%
%TF.CreationDate,2023-02-17T00:10:57+08:00*%
%TF.ProjectId,EmoeNAP,456d6f65-4e41-4502-9e6b-696361645f70,rev?*%
%TF.SameCoordinates,Original*%
%TF.FileFunction,Copper,L2,Inr*%
%TF.FilePolarity,Positive*%
%FSLAX46Y46*%
G04 Gerber Fmt 4.6, Leading zero omitted, Abs format (unit mm)*
G04 Created by KiCad (PCBNEW (6.0.5)) date 2023-02-17 00:10:57*
%MOMM*%
%LPD*%
G01*
G04 APERTURE LIST*
G04 Aperture macros list*
%AMRoundRect*
0 Rectangle with rounded corners*
0 $1 Rounding radius*
0 $2 $3 $4 $5 $6 $7 $8 $9 X,Y pos of 4 corners*
0 Add a 4 corners polygon primitive as box body*
4,1,4,$2,$3,$4,$5,$6,$7,$8,$9,$2,$3,0*
0 Add four circle primitives for the rounded corners*
1,1,$1+$1,$2,$3*
1,1,$1+$1,$4,$5*
1,1,$1+$1,$6,$7*
1,1,$1+$1,$8,$9*
0 Add four rect primitives between the rounded corners*
20,1,$1+$1,$2,$3,$4,$5,0*
20,1,$1+$1,$4,$5,$6,$7,0*
20,1,$1+$1,$6,$7,$8,$9,0*
20,1,$1+$1,$8,$9,$2,$3,0*%
G04 Aperture macros list end*
%TA.AperFunction,ComponentPad*%
%ADD10RoundRect,0.250000X0.725000X-0.600000X0.725000X0.600000X-0.725000X0.600000X-0.725000X-0.600000X0*%
%TD*%
%TA.AperFunction,ComponentPad*%
%ADD11O,1.950000X1.700000*%
%TD*%
%TA.AperFunction,ComponentPad*%
%ADD12C,3.600000*%
%TD*%
%TA.AperFunction,ComponentPad*%
%ADD13C,1.500000*%
%TD*%
%TA.AperFunction,ComponentPad*%
%ADD14C,2.000000*%
%TD*%
%TA.AperFunction,ComponentPad*%
%ADD15C,1.400000*%
%TD*%
%TA.AperFunction,ComponentPad*%
%ADD16C,1.440000*%
%TD*%
%TA.AperFunction,ViaPad*%
%ADD17C,0.603000*%
%TD*%
%TA.AperFunction,ViaPad*%
%ADD18C,0.500000*%
%TD*%
%TA.AperFunction,ViaPad*%
%ADD19C,0.800000*%
%TD*%
%TA.AperFunction,Conductor*%
%ADD20C,0.500000*%
%TD*%
G04 APERTURE END LIST*
D10*
%TO.N,/VBUS_+5V*%
%TO.C,J8*%
X114700000Y-103850000D03*
D11*
%TO.N,VSS*%
X114700000Y-101350000D03*
%TD*%
D10*
%TO.N,/VBAT*%
%TO.C,J1*%
X114700000Y-112750000D03*
D11*
%TO.N,VSS*%
X114700000Y-110250000D03*
%TD*%
D12*
%TO.N,N/C*%
%TO.C,H1*%
X114000000Y-93000000D03*
%TD*%
D13*
%TO.N,VDD*%
%TO.C,U10*%
X124150000Y-114524906D03*
%TO.N,/VBAT*%
X124150000Y-117024906D03*
%TO.N,/VBAT_CHRG*%
X124150000Y-119524906D03*
D14*
%TO.N,VSS*%
X122350000Y-111324906D03*
X126350000Y-123224906D03*
%TD*%
D15*
%TO.N,Net-(J6-Pad1)*%
%TO.C,J7*%
X121000000Y-104850000D03*
%TO.N,Net-(J7-Pad2)*%
X121000000Y-107390000D03*
%TD*%
D13*
%TO.N,Net-(R7-Pad1)*%
%TO.C,U4*%
X153950000Y-114524906D03*
%TO.N,Net-(R25-Pad2)*%
X153950000Y-117024906D03*
%TO.N,Net-(R5-Pad2)*%
X153950000Y-119524906D03*
D14*
%TO.N,GND*%
X152150000Y-111324906D03*
X156150000Y-123224906D03*
%TD*%
D15*
%TO.N,Net-(J6-Pad1)*%
%TO.C,J6*%
X127900000Y-104850001D03*
%TO.N,Net-(J6-Pad2)*%
X127900000Y-107390001D03*
%TD*%
D12*
%TO.N,N/C*%
%TO.C,H3*%
X114000000Y-121000000D03*
%TD*%
D16*
%TO.N,Net-(R1-Pad2)*%
%TO.C,RV1*%
X152925000Y-102724906D03*
%TO.N,Net-(C2-Pad2)*%
X155465000Y-105264906D03*
X152925000Y-107804906D03*
%TD*%
D12*
%TO.N,N/C*%
%TO.C,H4*%
X181000000Y-121000000D03*
%TD*%
%TO.N,N/C*%
%TO.C,H2*%
X181000000Y-93000000D03*
%TD*%
D17*
%TO.N,GND*%
X143100000Y-102250000D03*
X143100000Y-101350000D03*
X135100000Y-101300000D03*
X128900000Y-95450000D03*
%TO.N,Net-(R7-Pad1)*%
X158750000Y-110685560D03*
%TO.N,GND*%
X128900000Y-96450000D03*
X128050000Y-95950000D03*
X127050000Y-95950000D03*
X125850000Y-95950000D03*
X124600000Y-95950000D03*
X123300000Y-95950000D03*
X122050000Y-95950000D03*
X121550000Y-95100000D03*
X121550000Y-93950000D03*
X121550000Y-92800000D03*
X122050000Y-91950000D03*
X123300000Y-91950000D03*
X124600000Y-91950000D03*
X125800000Y-91950000D03*
X127050000Y-91950000D03*
X128300000Y-91950000D03*
X119600000Y-110000000D03*
X121300000Y-109800000D03*
X126300000Y-121500000D03*
X129000000Y-121000000D03*
X127000000Y-119700000D03*
X152400000Y-115300000D03*
X151400000Y-115300000D03*
X160400000Y-114000000D03*
X162650000Y-117600000D03*
X165850000Y-118300000D03*
X167000000Y-118300000D03*
X167000000Y-105450000D03*
X165850000Y-105450000D03*
X162700000Y-105700000D03*
%TO.N,VSS*%
X160850000Y-121500000D03*
X118000000Y-117250000D03*
X165830000Y-115870000D03*
X165400000Y-112000000D03*
X126050000Y-102350000D03*
X122500000Y-102600000D03*
X136900000Y-110450000D03*
%TO.N,GND*%
X146850000Y-122100000D03*
X143850000Y-122100000D03*
%TO.N,VDD*%
X121700000Y-123500000D03*
X125725000Y-116575000D03*
X150330000Y-118270000D03*
X165830000Y-109400000D03*
X160800000Y-108900000D03*
D18*
%TO.N,Net-(C10-Pad2)*%
X158725000Y-120425000D03*
%TO.N,Net-(R25-Pad2)*%
X164675000Y-107725000D03*
X169979999Y-107720001D03*
%TO.N,Net-(C13-Pad2)*%
X169000000Y-114350000D03*
%TO.N,Net-(C32-Pad2)*%
X162650000Y-114350000D03*
%TO.N,Net-(C1-Pad1)*%
X147099999Y-109974906D03*
D17*
X151150000Y-99450000D03*
D18*
X141749999Y-120274906D03*
X131689907Y-115164813D03*
X136849999Y-104899906D03*
%TO.N,Net-(C1-Pad2)*%
X159200001Y-105635560D03*
%TO.N,Net-(C2-Pad2)*%
X155650000Y-110199906D03*
D19*
%TO.N,Net-(C11-Pad1)*%
X144925093Y-93674906D03*
X137125093Y-93674906D03*
X141025094Y-93674906D03*
X133225093Y-93674906D03*
%TO.N,Net-(C11-Pad2)*%
X141050093Y-98599906D03*
X144950093Y-98599906D03*
X137150093Y-98599906D03*
X133250092Y-98599906D03*
D17*
%TO.N,Net-(C10-Pad1)*%
X174100000Y-114800000D03*
X174100000Y-116900000D03*
X175800000Y-116900000D03*
X174900000Y-117600000D03*
X174900000Y-116100000D03*
X174100000Y-118900000D03*
%TO.N,Net-(C10-Pad2)*%
X172200000Y-116900000D03*
X172200000Y-114800000D03*
X172200000Y-118900000D03*
%TO.N,Net-(C13-Pad1)*%
X175900000Y-96800000D03*
X174900000Y-97600000D03*
X174100000Y-96800000D03*
X174900000Y-96000000D03*
X174100000Y-94800000D03*
X174100000Y-98900000D03*
%TO.N,Net-(C13-Pad2)*%
X172200000Y-96800000D03*
X172200000Y-94800000D03*
X172200000Y-98900000D03*
%TO.N,Net-(C32-Pad1)*%
X174100000Y-104800000D03*
X174900000Y-107600000D03*
X175900000Y-106900000D03*
X174900000Y-106200000D03*
X174100000Y-108900000D03*
X174100000Y-106900000D03*
%TO.N,Net-(C32-Pad2)*%
X172200000Y-104800000D03*
X172200000Y-108900000D03*
X172200000Y-106900000D03*
%TO.N,GND*%
X129858230Y-110099906D03*
X141499999Y-91949906D03*
X143858230Y-103099905D03*
X135099999Y-100349906D03*
D19*
X179200000Y-105200000D03*
D17*
X129858230Y-113099906D03*
X148858229Y-107099906D03*
X145858230Y-103099906D03*
X143099999Y-100349906D03*
D19*
X179200000Y-114100000D03*
D17*
X140858230Y-103099906D03*
X147499999Y-91949905D03*
X136699999Y-91949906D03*
X131858230Y-103099906D03*
X138858230Y-122099906D03*
X130858230Y-103099906D03*
D19*
X179100000Y-99500000D03*
D17*
X148858230Y-106099906D03*
X129858230Y-115099906D03*
D19*
X140299999Y-114849906D03*
D18*
X144579905Y-111559812D03*
D17*
X129858230Y-105099906D03*
X146858230Y-103099906D03*
X129858230Y-108099905D03*
D19*
X182300000Y-108100000D03*
D17*
X148858230Y-118099906D03*
X160200000Y-103200000D03*
D18*
X134189906Y-113599906D03*
D17*
X142849999Y-122099906D03*
X128899999Y-97349906D03*
X149299999Y-99549906D03*
X148858230Y-114099906D03*
D18*
X137799999Y-106900000D03*
D17*
X129858230Y-111099906D03*
D19*
X179200000Y-108100000D03*
D18*
X131999999Y-120349906D03*
D17*
X148858230Y-115099906D03*
X129858230Y-116099907D03*
X129858231Y-112099906D03*
X146299999Y-91949905D03*
X147858230Y-122099906D03*
X148858230Y-113099906D03*
D18*
X146579999Y-104780094D03*
D17*
X128899999Y-100349906D03*
X133899999Y-100349906D03*
D18*
X134200000Y-104789999D03*
D17*
X142858230Y-103099906D03*
X149299999Y-93149906D03*
X131499999Y-100349906D03*
X149299999Y-96949906D03*
X148858230Y-120099906D03*
X137858230Y-122099906D03*
D18*
X157130969Y-112467891D03*
D17*
X129858230Y-104099906D03*
X134299999Y-91949906D03*
X134858229Y-103099906D03*
X144299999Y-100349906D03*
D19*
X177100000Y-109500000D03*
D17*
X148858230Y-116099907D03*
X156150000Y-118300000D03*
D19*
X177100000Y-119500000D03*
D17*
X128899998Y-98749906D03*
X145858230Y-122099906D03*
X149299999Y-94549906D03*
X148858230Y-110099906D03*
D19*
X182300000Y-105200000D03*
D17*
X132858230Y-122099906D03*
X148699999Y-91949906D03*
X146699999Y-100349906D03*
X148858230Y-122099906D03*
X147858231Y-103099906D03*
X141858230Y-122099906D03*
X133858230Y-103099906D03*
X147899999Y-100349906D03*
X142699999Y-91949906D03*
D19*
X182400000Y-114100000D03*
D17*
X136858230Y-103099906D03*
X129858231Y-103099906D03*
X135858230Y-103099906D03*
X158150000Y-103250000D03*
X148858229Y-121099906D03*
D19*
X175900000Y-120500000D03*
D17*
X149299999Y-98149906D03*
X143899999Y-91949906D03*
D18*
X147239905Y-119749812D03*
D17*
X148858229Y-117099906D03*
X129858230Y-117099905D03*
X140300000Y-91950000D03*
X144858230Y-103099906D03*
X137858230Y-103099906D03*
X148858229Y-112099906D03*
D19*
X177100000Y-94200000D03*
D18*
X131547407Y-105417408D03*
D17*
X129850000Y-121100000D03*
D18*
X147169906Y-107400001D03*
D17*
X148858230Y-109099906D03*
D19*
X182300000Y-99500000D03*
X175900000Y-93200000D03*
D17*
X129858230Y-122099906D03*
X145499999Y-100349906D03*
X132699999Y-100349906D03*
X133099999Y-91949906D03*
D19*
X182400000Y-111100000D03*
D17*
X140858230Y-122099906D03*
D19*
X175900000Y-110500000D03*
D17*
X129858230Y-114099906D03*
X139100000Y-91950000D03*
D19*
X182300000Y-102400000D03*
D17*
X149299999Y-95749906D03*
X131899999Y-91949906D03*
X129858230Y-120099906D03*
X144858230Y-122099906D03*
X129858230Y-107099907D03*
X130299999Y-100349906D03*
X133858230Y-122099906D03*
X130858230Y-122099906D03*
D19*
X137999999Y-109349906D03*
D17*
X139858229Y-103099906D03*
X137900000Y-91950000D03*
X135499999Y-91949906D03*
X134858230Y-122099906D03*
X129858230Y-119099906D03*
D19*
X179100000Y-102400000D03*
X179200000Y-111100000D03*
D17*
X132858230Y-103099906D03*
X130699999Y-91949905D03*
D18*
X160460000Y-112290000D03*
D17*
X140300000Y-117778044D03*
X145099999Y-91949906D03*
X131858230Y-122099906D03*
X129858230Y-109099906D03*
X129499999Y-91949905D03*
X129858230Y-118099906D03*
X135858230Y-122099906D03*
X139858230Y-122099906D03*
X148858230Y-105099906D03*
X148858229Y-103099906D03*
D18*
X144599998Y-120349906D03*
D17*
X148858230Y-111099906D03*
X148858230Y-119099906D03*
X148858230Y-108099905D03*
D18*
%TO.N,Net-(R7-Pad1)*%
X159150000Y-115799906D03*
D19*
%TO.N,VDD*%
X142200000Y-104450000D03*
D17*
X118000000Y-109100000D03*
D18*
X132959906Y-120409813D03*
D19*
X136800000Y-120750000D03*
D17*
X128962453Y-109712453D03*
D18*
X145619999Y-104800094D03*
D19*
X136800000Y-123000000D03*
D18*
X131609906Y-106379906D03*
D19*
X137250000Y-102150000D03*
D18*
X147229905Y-118789812D03*
X156880000Y-111220000D03*
X155430000Y-119570000D03*
%TO.N,VSS*%
X142824999Y-107574906D03*
X159425000Y-118500000D03*
X144424999Y-115974906D03*
X159425000Y-107900000D03*
X159425000Y-108500000D03*
X145774999Y-115374906D03*
X158075000Y-108500000D03*
X135899999Y-117599906D03*
X135899999Y-118949906D03*
X136499999Y-118949906D03*
X158075000Y-117900000D03*
X158075000Y-118500000D03*
D19*
X142150000Y-114450000D03*
D18*
X134374999Y-109824907D03*
X144424999Y-115374906D03*
X142824999Y-106224906D03*
X133024998Y-109824906D03*
X158750000Y-108200000D03*
X142524999Y-106899906D03*
X159425000Y-117900000D03*
X134375000Y-109224906D03*
X158750000Y-118200000D03*
X145774999Y-115974906D03*
X133699999Y-109524907D03*
X136499999Y-117599906D03*
X142224999Y-107574906D03*
X136199999Y-118274906D03*
X142224999Y-106224906D03*
X145099999Y-115674906D03*
X158075000Y-107900000D03*
X133024998Y-109224906D03*
%TO.N,Net-(RISO3-Pad2)*%
X138590000Y-117809813D03*
X140149999Y-107300000D03*
D19*
X136344413Y-101031332D03*
D18*
X144700000Y-113269812D03*
X134810000Y-116799813D03*
X134099999Y-111879906D03*
X143819999Y-117059812D03*
X135140000Y-108129906D03*
X143889999Y-108250000D03*
%TO.N,Net-(R25-Pad2)*%
X159500000Y-120699906D03*
D17*
%TO.N,Net-(J6-Pad1)*%
X124450000Y-101500000D03*
D18*
%TO.N,Net-(R12-Pad1)*%
X144850000Y-107899906D03*
D17*
X144850000Y-106500000D03*
%TO.N,Net-(R18-Pad1)*%
X145599999Y-118119812D03*
D18*
X142824999Y-119374906D03*
%TO.N,Net-(R30-Pad1)*%
X133740000Y-117309905D03*
D17*
X133740000Y-118759813D03*
D18*
%TO.N,Net-(R41-Pad1)*%
X136024999Y-106249906D03*
D17*
X133250000Y-107129906D03*
%TD*%
D20*
%TO.N,VDD*%
X136800000Y-120750000D02*
X136800000Y-123000000D01*
X141850000Y-104100000D02*
X141850000Y-102750000D01*
X142200000Y-104450000D02*
X141850000Y-104100000D01*
X141850000Y-102750000D02*
X141250000Y-102150000D01*
X141250000Y-102150000D02*
X137250000Y-102150000D01*
%TD*%
%TA.AperFunction,Conductor*%
%TO.N,GND*%
G36*
X180980242Y-89202466D02*
G01*
X180985811Y-89202476D01*
X180999641Y-89205656D01*
X181013480Y-89202524D01*
X181027671Y-89202549D01*
X181027670Y-89202942D01*
X181035627Y-89202250D01*
X181366240Y-89218493D01*
X181378534Y-89219704D01*
X181735122Y-89272598D01*
X181747244Y-89275008D01*
X181923077Y-89319052D01*
X182096940Y-89362603D01*
X182108772Y-89366193D01*
X182448169Y-89487632D01*
X182459593Y-89492363D01*
X182686444Y-89599655D01*
X182785482Y-89646496D01*
X182796383Y-89652323D01*
X183105583Y-89837651D01*
X183115864Y-89844521D01*
X183405411Y-90059264D01*
X183414948Y-90067089D01*
X183682071Y-90309196D01*
X183690804Y-90317929D01*
X183932911Y-90585052D01*
X183940736Y-90594589D01*
X184078942Y-90780938D01*
X184155479Y-90884136D01*
X184162349Y-90894417D01*
X184337986Y-91187448D01*
X184347677Y-91203617D01*
X184353506Y-91214522D01*
X184507637Y-91540407D01*
X184512368Y-91551831D01*
X184633807Y-91891228D01*
X184637397Y-91903060D01*
X184724991Y-92252753D01*
X184727402Y-92264878D01*
X184778895Y-92612013D01*
X184780296Y-92621461D01*
X184781507Y-92633760D01*
X184785403Y-92713049D01*
X184797722Y-92963806D01*
X184797029Y-92971622D01*
X184797549Y-92971623D01*
X184797524Y-92985812D01*
X184794344Y-92999641D01*
X184797475Y-93013480D01*
X184797467Y-93018311D01*
X184799500Y-93036504D01*
X184799500Y-120962920D01*
X184797534Y-120980242D01*
X184797524Y-120985811D01*
X184794344Y-120999641D01*
X184797476Y-121013480D01*
X184797451Y-121027671D01*
X184797058Y-121027670D01*
X184797750Y-121035627D01*
X184782331Y-121349488D01*
X184781508Y-121366234D01*
X184780296Y-121378534D01*
X184727403Y-121735119D01*
X184724992Y-121747244D01*
X184718915Y-121771503D01*
X184637397Y-122096940D01*
X184633807Y-122108772D01*
X184512368Y-122448169D01*
X184507637Y-122459593D01*
X184448446Y-122584743D01*
X184361279Y-122769044D01*
X184353506Y-122785478D01*
X184347677Y-122796383D01*
X184162349Y-123105583D01*
X184155479Y-123115864D01*
X184093738Y-123199112D01*
X183940736Y-123405411D01*
X183932911Y-123414948D01*
X183708750Y-123662271D01*
X183690809Y-123682066D01*
X183682071Y-123690804D01*
X183414948Y-123932911D01*
X183405411Y-123940736D01*
X183309411Y-124011935D01*
X183115864Y-124155479D01*
X183105583Y-124162349D01*
X182950163Y-124255505D01*
X182828922Y-124328174D01*
X182796383Y-124347677D01*
X182785482Y-124353504D01*
X182747346Y-124371541D01*
X182459593Y-124507637D01*
X182448169Y-124512368D01*
X182108772Y-124633807D01*
X182096940Y-124637397D01*
X181952810Y-124673500D01*
X181747244Y-124724992D01*
X181735122Y-124727402D01*
X181378534Y-124780296D01*
X181366240Y-124781507D01*
X181073290Y-124795900D01*
X181036194Y-124797722D01*
X181028378Y-124797029D01*
X181028377Y-124797549D01*
X181014188Y-124797524D01*
X181000359Y-124794344D01*
X180986520Y-124797475D01*
X180981689Y-124797467D01*
X180963496Y-124799500D01*
X160526000Y-124799500D01*
X160457879Y-124779498D01*
X160411386Y-124725842D01*
X160400000Y-124673500D01*
X160400000Y-122038785D01*
X160420002Y-121970664D01*
X160473658Y-121924171D01*
X160543932Y-121914067D01*
X160595820Y-121933899D01*
X160599797Y-121936547D01*
X160624186Y-121952782D01*
X160624190Y-121952784D01*
X160631661Y-121957757D01*
X160768914Y-122000638D01*
X160912686Y-122003273D01*
X160955507Y-121991599D01*
X161042756Y-121967812D01*
X161042759Y-121967811D01*
X161051418Y-121965450D01*
X161059068Y-121960753D01*
X161059070Y-121960752D01*
X161135104Y-121914067D01*
X161173959Y-121890210D01*
X161270456Y-121783601D01*
X161333154Y-121654194D01*
X161357011Y-121512391D01*
X161357162Y-121500000D01*
X161336777Y-121357657D01*
X161277260Y-121226756D01*
X161238365Y-121181616D01*
X161189254Y-121124619D01*
X161189252Y-121124617D01*
X161183396Y-121117821D01*
X161062730Y-121039610D01*
X160924963Y-120998409D01*
X160915987Y-120998354D01*
X160915986Y-120998354D01*
X160856021Y-120997988D01*
X160781170Y-120997530D01*
X160642910Y-121037045D01*
X160595034Y-121067253D01*
X160593235Y-121068388D01*
X160524951Y-121087822D01*
X160456999Y-121067253D01*
X160410954Y-121013212D01*
X160400000Y-120961826D01*
X160400000Y-120937002D01*
X178995380Y-120937002D01*
X178995555Y-120941454D01*
X179004991Y-121181616D01*
X179006502Y-121220084D01*
X179057400Y-121498775D01*
X179147058Y-121767514D01*
X179149050Y-121771501D01*
X179149051Y-121771503D01*
X179263680Y-122000911D01*
X179273687Y-122020939D01*
X179365479Y-122153751D01*
X179431670Y-122249520D01*
X179434761Y-122253993D01*
X179627065Y-122462027D01*
X179630519Y-122464839D01*
X179843307Y-122638075D01*
X179843311Y-122638078D01*
X179846764Y-122640889D01*
X179940228Y-122697159D01*
X180041965Y-122758410D01*
X180089472Y-122787012D01*
X180093567Y-122788746D01*
X180093569Y-122788747D01*
X180346247Y-122895742D01*
X180346254Y-122895744D01*
X180350348Y-122897478D01*
X180450492Y-122924031D01*
X180619889Y-122968946D01*
X180619893Y-122968947D01*
X180624186Y-122970085D01*
X180628595Y-122970607D01*
X180628601Y-122970608D01*
X180785954Y-122989232D01*
X180905523Y-123003384D01*
X181188745Y-122996709D01*
X181218166Y-122991812D01*
X181463810Y-122950926D01*
X181463814Y-122950925D01*
X181468200Y-122950195D01*
X181472441Y-122948854D01*
X181472444Y-122948853D01*
X181734068Y-122866112D01*
X181734070Y-122866111D01*
X181738314Y-122864769D01*
X181742325Y-122862843D01*
X181742330Y-122862841D01*
X181989678Y-122744066D01*
X181989679Y-122744065D01*
X181993697Y-122742136D01*
X182061010Y-122697159D01*
X182225545Y-122587221D01*
X182225549Y-122587218D01*
X182229253Y-122584743D01*
X182440281Y-122395730D01*
X182622573Y-122178868D01*
X182641494Y-122148530D01*
X182689813Y-122071052D01*
X182772489Y-121938485D01*
X182774517Y-121933899D01*
X182838021Y-121790254D01*
X182887040Y-121679376D01*
X182963939Y-121406712D01*
X182967723Y-121378539D01*
X183001225Y-121129115D01*
X183001226Y-121129107D01*
X183001652Y-121125933D01*
X183003496Y-121067253D01*
X183005509Y-121003222D01*
X183005509Y-121003217D01*
X183005610Y-121000000D01*
X182985601Y-120717407D01*
X182975605Y-120670974D01*
X182926911Y-120444800D01*
X182926911Y-120444798D01*
X182925975Y-120440453D01*
X182827920Y-120174663D01*
X182693393Y-119925340D01*
X182525078Y-119697460D01*
X182478554Y-119650199D01*
X182348134Y-119517715D01*
X182326334Y-119495570D01*
X182322794Y-119492869D01*
X182322788Y-119492863D01*
X182104667Y-119326398D01*
X182104663Y-119326395D01*
X182101126Y-119323696D01*
X181984597Y-119258437D01*
X181857837Y-119187448D01*
X181857832Y-119187445D01*
X181853947Y-119185270D01*
X181849789Y-119183662D01*
X181849784Y-119183659D01*
X181593885Y-119084659D01*
X181593879Y-119084657D01*
X181589730Y-119083052D01*
X181585398Y-119082048D01*
X181585395Y-119082047D01*
X181465229Y-119054194D01*
X181313747Y-119019082D01*
X181031503Y-118994637D01*
X181027068Y-118994881D01*
X181027064Y-118994881D01*
X180753073Y-119009960D01*
X180753066Y-119009961D01*
X180748630Y-119010205D01*
X180661748Y-119027487D01*
X180475146Y-119064604D01*
X180475141Y-119064605D01*
X180470774Y-119065474D01*
X180466571Y-119066950D01*
X180207684Y-119157864D01*
X180207681Y-119157865D01*
X180203476Y-119159342D01*
X180199523Y-119161395D01*
X180199517Y-119161398D01*
X180089384Y-119218608D01*
X179952072Y-119289936D01*
X179948457Y-119292519D01*
X179948451Y-119292523D01*
X179843095Y-119367812D01*
X179721576Y-119454651D01*
X179718349Y-119457729D01*
X179718347Y-119457731D01*
X179589002Y-119581120D01*
X179516588Y-119650199D01*
X179341199Y-119872680D01*
X179310880Y-119924878D01*
X179201141Y-120113807D01*
X179201138Y-120113813D01*
X179198907Y-120117654D01*
X179197237Y-120121777D01*
X179116253Y-120321718D01*
X179092552Y-120380232D01*
X179091481Y-120384545D01*
X179091479Y-120384550D01*
X179025328Y-120650856D01*
X179024255Y-120655177D01*
X179023801Y-120659605D01*
X179023801Y-120659607D01*
X179003362Y-120859094D01*
X178995380Y-120937002D01*
X160400000Y-120937002D01*
X160400000Y-118893804D01*
X171692876Y-118893804D01*
X171694040Y-118902706D01*
X171694040Y-118902709D01*
X171710357Y-119027487D01*
X171711521Y-119036386D01*
X171769434Y-119168004D01*
X171775211Y-119174877D01*
X171775212Y-119174878D01*
X171829327Y-119239255D01*
X171861960Y-119278077D01*
X171887245Y-119294908D01*
X171943642Y-119332449D01*
X171981661Y-119357757D01*
X172118914Y-119400638D01*
X172262686Y-119403273D01*
X172305507Y-119391599D01*
X172392756Y-119367812D01*
X172392759Y-119367811D01*
X172401418Y-119365450D01*
X172409068Y-119360753D01*
X172409070Y-119360752D01*
X172465021Y-119326398D01*
X172523959Y-119290210D01*
X172570228Y-119239093D01*
X172614434Y-119190254D01*
X172620456Y-119183601D01*
X172677689Y-119065474D01*
X172679241Y-119062271D01*
X172679242Y-119062269D01*
X172683154Y-119054194D01*
X172694744Y-118985307D01*
X172706205Y-118917184D01*
X172706205Y-118917179D01*
X172707011Y-118912391D01*
X172707162Y-118900000D01*
X172706275Y-118893804D01*
X173592876Y-118893804D01*
X173594040Y-118902706D01*
X173594040Y-118902709D01*
X173610357Y-119027487D01*
X173611521Y-119036386D01*
X173669434Y-119168004D01*
X173675211Y-119174877D01*
X173675212Y-119174878D01*
X173729327Y-119239255D01*
X173761960Y-119278077D01*
X173787245Y-119294908D01*
X173843642Y-119332449D01*
X173881661Y-119357757D01*
X174018914Y-119400638D01*
X174162686Y-119403273D01*
X174205507Y-119391599D01*
X174292756Y-119367812D01*
X174292759Y-119367811D01*
X174301418Y-119365450D01*
X174309068Y-119360753D01*
X174309070Y-119360752D01*
X174365021Y-119326398D01*
X174423959Y-119290210D01*
X174470228Y-119239093D01*
X174514434Y-119190254D01*
X174520456Y-119183601D01*
X174577689Y-119065474D01*
X174579241Y-119062271D01*
X174579242Y-119062269D01*
X174583154Y-119054194D01*
X174594744Y-118985307D01*
X174606205Y-118917184D01*
X174606205Y-118917179D01*
X174607011Y-118912391D01*
X174607162Y-118900000D01*
X174600275Y-118851911D01*
X174588050Y-118766543D01*
X174588049Y-118766540D01*
X174586777Y-118757657D01*
X174575609Y-118733093D01*
X174547357Y-118670957D01*
X174527260Y-118626756D01*
X174478210Y-118569830D01*
X174439254Y-118524619D01*
X174439252Y-118524617D01*
X174433396Y-118517821D01*
X174312730Y-118439610D01*
X174174963Y-118398409D01*
X174165987Y-118398354D01*
X174165986Y-118398354D01*
X174106021Y-118397988D01*
X174031170Y-118397530D01*
X173892910Y-118437045D01*
X173771298Y-118513777D01*
X173765355Y-118520506D01*
X173704585Y-118589315D01*
X173676110Y-118621556D01*
X173672296Y-118629679D01*
X173672295Y-118629681D01*
X173621529Y-118737812D01*
X173614999Y-118751720D01*
X173613618Y-118760589D01*
X173600011Y-118847982D01*
X173592876Y-118893804D01*
X172706275Y-118893804D01*
X172700275Y-118851911D01*
X172688050Y-118766543D01*
X172688049Y-118766540D01*
X172686777Y-118757657D01*
X172675609Y-118733093D01*
X172647357Y-118670957D01*
X172627260Y-118626756D01*
X172578210Y-118569830D01*
X172539254Y-118524619D01*
X172539252Y-118524617D01*
X172533396Y-118517821D01*
X172412730Y-118439610D01*
X172274963Y-118398409D01*
X172265987Y-118398354D01*
X172265986Y-118398354D01*
X172206021Y-118397988D01*
X172131170Y-118397530D01*
X171992910Y-118437045D01*
X171871298Y-118513777D01*
X171865355Y-118520506D01*
X171804585Y-118589315D01*
X171776110Y-118621556D01*
X171772296Y-118629679D01*
X171772295Y-118629681D01*
X171721529Y-118737812D01*
X171714999Y-118751720D01*
X171713618Y-118760589D01*
X171700011Y-118847982D01*
X171692876Y-118893804D01*
X160400000Y-118893804D01*
X160400000Y-116893804D01*
X171692876Y-116893804D01*
X171694040Y-116902706D01*
X171694040Y-116902709D01*
X171710357Y-117027487D01*
X171711521Y-117036386D01*
X171769434Y-117168004D01*
X171775211Y-117174877D01*
X171775212Y-117174878D01*
X171834006Y-117244822D01*
X171861960Y-117278077D01*
X171981661Y-117357757D01*
X172118914Y-117400638D01*
X172262686Y-117403273D01*
X172305507Y-117391599D01*
X172392756Y-117367812D01*
X172392759Y-117367811D01*
X172401418Y-117365450D01*
X172409068Y-117360753D01*
X172409070Y-117360752D01*
X172472907Y-117321556D01*
X172523959Y-117290210D01*
X172542336Y-117269908D01*
X172614434Y-117190254D01*
X172620456Y-117183601D01*
X172651855Y-117118794D01*
X172679241Y-117062271D01*
X172679242Y-117062269D01*
X172683154Y-117054194D01*
X172687647Y-117027487D01*
X172706205Y-116917184D01*
X172706205Y-116917179D01*
X172707011Y-116912391D01*
X172707162Y-116900000D01*
X172706275Y-116893804D01*
X173592876Y-116893804D01*
X173594040Y-116902706D01*
X173594040Y-116902709D01*
X173610357Y-117027487D01*
X173611521Y-117036386D01*
X173669434Y-117168004D01*
X173675211Y-117174877D01*
X173675212Y-117174878D01*
X173734006Y-117244822D01*
X173761960Y-117278077D01*
X173881661Y-117357757D01*
X174018914Y-117400638D01*
X174162686Y-117403273D01*
X174246513Y-117380419D01*
X174317496Y-117381799D01*
X174376465Y-117421336D01*
X174404697Y-117486477D01*
X174404155Y-117521365D01*
X174392876Y-117593804D01*
X174394040Y-117602706D01*
X174394040Y-117602709D01*
X174409425Y-117720360D01*
X174411521Y-117736386D01*
X174469434Y-117868004D01*
X174475211Y-117874877D01*
X174475212Y-117874878D01*
X174510639Y-117917023D01*
X174561960Y-117978077D01*
X174681661Y-118057757D01*
X174818914Y-118100638D01*
X174962686Y-118103273D01*
X175005507Y-118091599D01*
X175092756Y-118067812D01*
X175092759Y-118067811D01*
X175101418Y-118065450D01*
X175109068Y-118060753D01*
X175109070Y-118060752D01*
X175199985Y-118004930D01*
X175223959Y-117990210D01*
X175233813Y-117979324D01*
X175314434Y-117890254D01*
X175320456Y-117883601D01*
X175351805Y-117818897D01*
X175379241Y-117762271D01*
X175379242Y-117762269D01*
X175383154Y-117754194D01*
X175391804Y-117702782D01*
X175406205Y-117617184D01*
X175406205Y-117617179D01*
X175407011Y-117612391D01*
X175407162Y-117600000D01*
X175390264Y-117482007D01*
X175400406Y-117411740D01*
X175446929Y-117358110D01*
X175515061Y-117338146D01*
X175569235Y-117350420D01*
X175574187Y-117352782D01*
X175581661Y-117357757D01*
X175718914Y-117400638D01*
X175862686Y-117403273D01*
X175905507Y-117391599D01*
X175992756Y-117367812D01*
X175992759Y-117367811D01*
X176001418Y-117365450D01*
X176009068Y-117360753D01*
X176009070Y-117360752D01*
X176072907Y-117321556D01*
X176123959Y-117290210D01*
X176142336Y-117269908D01*
X176214434Y-117190254D01*
X176220456Y-117183601D01*
X176251855Y-117118794D01*
X176279241Y-117062271D01*
X176279242Y-117062269D01*
X176283154Y-117054194D01*
X176287647Y-117027487D01*
X176306205Y-116917184D01*
X176306205Y-116917179D01*
X176307011Y-116912391D01*
X176307162Y-116900000D01*
X176299000Y-116843004D01*
X176288050Y-116766543D01*
X176288049Y-116766540D01*
X176286777Y-116757657D01*
X176283062Y-116749485D01*
X176254707Y-116687123D01*
X176227260Y-116626756D01*
X176182687Y-116575026D01*
X176139254Y-116524619D01*
X176139252Y-116524617D01*
X176133396Y-116517821D01*
X176012730Y-116439610D01*
X175874963Y-116398409D01*
X175865987Y-116398354D01*
X175865986Y-116398354D01*
X175806021Y-116397988D01*
X175731170Y-116397530D01*
X175592910Y-116437045D01*
X175536056Y-116472918D01*
X175467773Y-116492351D01*
X175399821Y-116471782D01*
X175353776Y-116417741D01*
X175344258Y-116347385D01*
X175355430Y-116311417D01*
X175379240Y-116262274D01*
X175379242Y-116262269D01*
X175383154Y-116254194D01*
X175393028Y-116195506D01*
X175406205Y-116117184D01*
X175406205Y-116117179D01*
X175407011Y-116112391D01*
X175407162Y-116100000D01*
X175386777Y-115957657D01*
X175327260Y-115826756D01*
X175233396Y-115717821D01*
X175112730Y-115639610D01*
X174974963Y-115598409D01*
X174965987Y-115598354D01*
X174965986Y-115598354D01*
X174906021Y-115597988D01*
X174831170Y-115597530D01*
X174692910Y-115637045D01*
X174571298Y-115713777D01*
X174565355Y-115720506D01*
X174561723Y-115724619D01*
X174476110Y-115821556D01*
X174414999Y-115951720D01*
X174413618Y-115960589D01*
X174396052Y-116073409D01*
X174392876Y-116093804D01*
X174394040Y-116102706D01*
X174394040Y-116102709D01*
X174405186Y-116187941D01*
X174411521Y-116236386D01*
X174415136Y-116244601D01*
X174419638Y-116254834D01*
X174428764Y-116325242D01*
X174398376Y-116389406D01*
X174338122Y-116426956D01*
X174268208Y-116426295D01*
X174174963Y-116398409D01*
X174165987Y-116398354D01*
X174165986Y-116398354D01*
X174106021Y-116397988D01*
X174031170Y-116397530D01*
X173892910Y-116437045D01*
X173771298Y-116513777D01*
X173765355Y-116520506D01*
X173696949Y-116597961D01*
X173676110Y-116621556D01*
X173672296Y-116629679D01*
X173672295Y-116629681D01*
X173618814Y-116743594D01*
X173614999Y-116751720D01*
X173613618Y-116760589D01*
X173595788Y-116875103D01*
X173592876Y-116893804D01*
X172706275Y-116893804D01*
X172699000Y-116843004D01*
X172688050Y-116766543D01*
X172688049Y-116766540D01*
X172686777Y-116757657D01*
X172683062Y-116749485D01*
X172654707Y-116687123D01*
X172627260Y-116626756D01*
X172582687Y-116575026D01*
X172539254Y-116524619D01*
X172539252Y-116524617D01*
X172533396Y-116517821D01*
X172412730Y-116439610D01*
X172274963Y-116398409D01*
X172265987Y-116398354D01*
X172265986Y-116398354D01*
X172206021Y-116397988D01*
X172131170Y-116397530D01*
X171992910Y-116437045D01*
X171871298Y-116513777D01*
X171865355Y-116520506D01*
X171796949Y-116597961D01*
X171776110Y-116621556D01*
X171772296Y-116629679D01*
X171772295Y-116629681D01*
X171718814Y-116743594D01*
X171714999Y-116751720D01*
X171713618Y-116760589D01*
X171695788Y-116875103D01*
X171692876Y-116893804D01*
X160400000Y-116893804D01*
X160400000Y-115400000D01*
X159394258Y-115400000D01*
X159344461Y-115389051D01*
X159340906Y-115386747D01*
X159332311Y-115384177D01*
X159332310Y-115384176D01*
X159225874Y-115352344D01*
X159225872Y-115352344D01*
X159217273Y-115349772D01*
X159208298Y-115349717D01*
X159208297Y-115349717D01*
X159153641Y-115349383D01*
X159088231Y-115348984D01*
X158964155Y-115384445D01*
X158956837Y-115389062D01*
X158905602Y-115400000D01*
X157000000Y-115400000D01*
X157000000Y-124673500D01*
X156979998Y-124741621D01*
X156926342Y-124788114D01*
X156874000Y-124799500D01*
X114037080Y-124799500D01*
X114019758Y-124797534D01*
X114014189Y-124797524D01*
X114000359Y-124794344D01*
X113986520Y-124797476D01*
X113972329Y-124797451D01*
X113972330Y-124797058D01*
X113964373Y-124797750D01*
X113633760Y-124781507D01*
X113621466Y-124780296D01*
X113264878Y-124727402D01*
X113252756Y-124724992D01*
X113047190Y-124673500D01*
X112903060Y-124637397D01*
X112891228Y-124633807D01*
X112551831Y-124512368D01*
X112540407Y-124507637D01*
X112252654Y-124371541D01*
X112214518Y-124353504D01*
X112203617Y-124347677D01*
X112171079Y-124328174D01*
X112049837Y-124255505D01*
X111894417Y-124162349D01*
X111884136Y-124155479D01*
X111690589Y-124011935D01*
X111594589Y-123940736D01*
X111585052Y-123932911D01*
X111317929Y-123690804D01*
X111309191Y-123682066D01*
X111291250Y-123662271D01*
X111138560Y-123493804D01*
X121192876Y-123493804D01*
X121194040Y-123502706D01*
X121194040Y-123502709D01*
X121210340Y-123627358D01*
X121211521Y-123636386D01*
X121269434Y-123768004D01*
X121275211Y-123774877D01*
X121275212Y-123774878D01*
X121323969Y-123832881D01*
X121361960Y-123878077D01*
X121380187Y-123890210D01*
X121444315Y-123932897D01*
X121481661Y-123957757D01*
X121618914Y-124000638D01*
X121762686Y-124003273D01*
X121805507Y-123991599D01*
X121892756Y-123967812D01*
X121892759Y-123967811D01*
X121901418Y-123965450D01*
X121909068Y-123960753D01*
X121909070Y-123960752D01*
X121995327Y-123907790D01*
X122023959Y-123890210D01*
X122120456Y-123783601D01*
X122153555Y-123715285D01*
X122179241Y-123662271D01*
X122179242Y-123662269D01*
X122183154Y-123654194D01*
X122191497Y-123604604D01*
X122206205Y-123517184D01*
X122206205Y-123517179D01*
X122207011Y-123512391D01*
X122207162Y-123500000D01*
X122186777Y-123357657D01*
X122127260Y-123226756D01*
X122098472Y-123193346D01*
X125144770Y-123193346D01*
X125159200Y-123413510D01*
X125160621Y-123419106D01*
X125160622Y-123419111D01*
X125203038Y-123586122D01*
X125213511Y-123627358D01*
X125215928Y-123632600D01*
X125215928Y-123632601D01*
X125254046Y-123715285D01*
X125305883Y-123827727D01*
X125433222Y-124007908D01*
X125591264Y-124161867D01*
X125596060Y-124165072D01*
X125596063Y-124165074D01*
X125680261Y-124221333D01*
X125774717Y-124284446D01*
X125780020Y-124286724D01*
X125780023Y-124286726D01*
X125935458Y-124353506D01*
X125977436Y-124371541D01*
X126057088Y-124389564D01*
X126186995Y-124418960D01*
X126187001Y-124418961D01*
X126192632Y-124420235D01*
X126198403Y-124420462D01*
X126198405Y-124420462D01*
X126266211Y-124423126D01*
X126413098Y-124428897D01*
X126522275Y-124413067D01*
X126625738Y-124398066D01*
X126625743Y-124398065D01*
X126631452Y-124397237D01*
X126636916Y-124395382D01*
X126636921Y-124395381D01*
X126834907Y-124328174D01*
X126834912Y-124328172D01*
X126840379Y-124326316D01*
X127032884Y-124218508D01*
X127100408Y-124162349D01*
X127198086Y-124081110D01*
X127202518Y-124077424D01*
X127293682Y-123967812D01*
X127339908Y-123912232D01*
X127339910Y-123912229D01*
X127343602Y-123907790D01*
X127451410Y-123715285D01*
X127453266Y-123709818D01*
X127453268Y-123709813D01*
X127520475Y-123511827D01*
X127520476Y-123511822D01*
X127522331Y-123506358D01*
X127523159Y-123500649D01*
X127523160Y-123500644D01*
X127550890Y-123309392D01*
X127553991Y-123288004D01*
X127555643Y-123224906D01*
X127535454Y-123005195D01*
X127533091Y-122996814D01*
X127495850Y-122864769D01*
X127475565Y-122792842D01*
X127377980Y-122594959D01*
X127358136Y-122568384D01*
X127249420Y-122422797D01*
X127249420Y-122422796D01*
X127245967Y-122418173D01*
X127083949Y-122268405D01*
X126897350Y-122150670D01*
X126692421Y-122068912D01*
X126686761Y-122067786D01*
X126686757Y-122067785D01*
X126481691Y-122026995D01*
X126481688Y-122026995D01*
X126476024Y-122025868D01*
X126470249Y-122025792D01*
X126470245Y-122025792D01*
X126359504Y-122024343D01*
X126255406Y-122022980D01*
X126249709Y-122023959D01*
X126249708Y-122023959D01*
X126043654Y-122059365D01*
X126043653Y-122059365D01*
X126037957Y-122060344D01*
X125830957Y-122136710D01*
X125825996Y-122139662D01*
X125825995Y-122139662D01*
X125807360Y-122150749D01*
X125641341Y-122249520D01*
X125475457Y-122394996D01*
X125338863Y-122568266D01*
X125236131Y-122763526D01*
X125170703Y-122974239D01*
X125144770Y-123193346D01*
X122098472Y-123193346D01*
X122066950Y-123156762D01*
X122039254Y-123124619D01*
X122039252Y-123124617D01*
X122033396Y-123117821D01*
X121912730Y-123039610D01*
X121774963Y-122998409D01*
X121765987Y-122998354D01*
X121765986Y-122998354D01*
X121706021Y-122997988D01*
X121631170Y-122997530D01*
X121492910Y-123037045D01*
X121417372Y-123084707D01*
X121384285Y-123105583D01*
X121371298Y-123113777D01*
X121365355Y-123120506D01*
X121333335Y-123156762D01*
X121276110Y-123221556D01*
X121272296Y-123229679D01*
X121272295Y-123229681D01*
X121218814Y-123343594D01*
X121214999Y-123351720D01*
X121213618Y-123360589D01*
X121205152Y-123414964D01*
X121192876Y-123493804D01*
X111138560Y-123493804D01*
X111067089Y-123414948D01*
X111059264Y-123405411D01*
X110906262Y-123199112D01*
X110844521Y-123115864D01*
X110837651Y-123105583D01*
X110652323Y-122796383D01*
X110646494Y-122785478D01*
X110638722Y-122769044D01*
X110551554Y-122584743D01*
X110492363Y-122459593D01*
X110487632Y-122448169D01*
X110366193Y-122108772D01*
X110362603Y-122096940D01*
X110281085Y-121771503D01*
X110275008Y-121747244D01*
X110272597Y-121735119D01*
X110219704Y-121378534D01*
X110218492Y-121366234D01*
X110217670Y-121349488D01*
X110202292Y-121036473D01*
X110204229Y-121014876D01*
X110203227Y-121014761D01*
X110204042Y-121007677D01*
X110205655Y-121000718D01*
X110205656Y-121000000D01*
X110203654Y-120991225D01*
X110200500Y-120963210D01*
X110200500Y-120937002D01*
X111995380Y-120937002D01*
X111995555Y-120941454D01*
X112004991Y-121181616D01*
X112006502Y-121220084D01*
X112057400Y-121498775D01*
X112147058Y-121767514D01*
X112149050Y-121771501D01*
X112149051Y-121771503D01*
X112263680Y-122000911D01*
X112273687Y-122020939D01*
X112365479Y-122153751D01*
X112431670Y-122249520D01*
X112434761Y-122253993D01*
X112627065Y-122462027D01*
X112630519Y-122464839D01*
X112843307Y-122638075D01*
X112843311Y-122638078D01*
X112846764Y-122640889D01*
X112940228Y-122697159D01*
X113041965Y-122758410D01*
X113089472Y-122787012D01*
X113093567Y-122788746D01*
X113093569Y-122788747D01*
X113346247Y-122895742D01*
X113346254Y-122895744D01*
X113350348Y-122897478D01*
X113450492Y-122924031D01*
X113619889Y-122968946D01*
X113619893Y-122968947D01*
X113624186Y-122970085D01*
X113628595Y-122970607D01*
X113628601Y-122970608D01*
X113785954Y-122989232D01*
X113905523Y-123003384D01*
X114188745Y-122996709D01*
X114218166Y-122991812D01*
X114463810Y-122950926D01*
X114463814Y-122950925D01*
X114468200Y-122950195D01*
X114472441Y-122948854D01*
X114472444Y-122948853D01*
X114734068Y-122866112D01*
X114734070Y-122866111D01*
X114738314Y-122864769D01*
X114742325Y-122862843D01*
X114742330Y-122862841D01*
X114989678Y-122744066D01*
X114989679Y-122744065D01*
X114993697Y-122742136D01*
X115061010Y-122697159D01*
X115225545Y-122587221D01*
X115225549Y-122587218D01*
X115229253Y-122584743D01*
X115440281Y-122395730D01*
X115622573Y-122178868D01*
X115641494Y-122148530D01*
X115689813Y-122071052D01*
X115772489Y-121938485D01*
X115774517Y-121933899D01*
X115838021Y-121790254D01*
X115887040Y-121679376D01*
X115963939Y-121406712D01*
X115967723Y-121378539D01*
X116001225Y-121129115D01*
X116001226Y-121129107D01*
X116001652Y-121125933D01*
X116003496Y-121067253D01*
X116005509Y-121003222D01*
X116005509Y-121003217D01*
X116005610Y-121000000D01*
X115985601Y-120717407D01*
X115975605Y-120670974D01*
X115926911Y-120444800D01*
X115926911Y-120444798D01*
X115925975Y-120440453D01*
X115827920Y-120174663D01*
X115693393Y-119925340D01*
X115525078Y-119697460D01*
X115478554Y-119650199D01*
X115348134Y-119517715D01*
X115326334Y-119495570D01*
X115322794Y-119492869D01*
X115322788Y-119492863D01*
X115104667Y-119326398D01*
X115104663Y-119326395D01*
X115101126Y-119323696D01*
X114984597Y-119258437D01*
X114857837Y-119187448D01*
X114857832Y-119187445D01*
X114853947Y-119185270D01*
X114849789Y-119183662D01*
X114849784Y-119183659D01*
X114593885Y-119084659D01*
X114593879Y-119084657D01*
X114589730Y-119083052D01*
X114585398Y-119082048D01*
X114585395Y-119082047D01*
X114465229Y-119054194D01*
X114313747Y-119019082D01*
X114031503Y-118994637D01*
X114027068Y-118994881D01*
X114027064Y-118994881D01*
X113753073Y-119009960D01*
X113753066Y-119009961D01*
X113748630Y-119010205D01*
X113661748Y-119027487D01*
X113475146Y-119064604D01*
X113475141Y-119064605D01*
X113470774Y-119065474D01*
X113466571Y-119066950D01*
X113207684Y-119157864D01*
X113207681Y-119157865D01*
X113203476Y-119159342D01*
X113199523Y-119161395D01*
X113199517Y-119161398D01*
X113089384Y-119218608D01*
X112952072Y-119289936D01*
X112948457Y-119292519D01*
X112948451Y-119292523D01*
X112843095Y-119367812D01*
X112721576Y-119454651D01*
X112718349Y-119457729D01*
X112718347Y-119457731D01*
X112589002Y-119581120D01*
X112516588Y-119650199D01*
X112341199Y-119872680D01*
X112310880Y-119924878D01*
X112201141Y-120113807D01*
X112201138Y-120113813D01*
X112198907Y-120117654D01*
X112197237Y-120121777D01*
X112116253Y-120321718D01*
X112092552Y-120380232D01*
X112091481Y-120384545D01*
X112091479Y-120384550D01*
X112025328Y-120650856D01*
X112024255Y-120655177D01*
X112023801Y-120659605D01*
X112023801Y-120659607D01*
X112003362Y-120859094D01*
X111995380Y-120937002D01*
X110200500Y-120937002D01*
X110200500Y-117243804D01*
X117492876Y-117243804D01*
X117494040Y-117252706D01*
X117494040Y-117252709D01*
X117510228Y-117376501D01*
X117511521Y-117386386D01*
X117569434Y-117518004D01*
X117575211Y-117524877D01*
X117575212Y-117524878D01*
X117652803Y-117617184D01*
X117661960Y-117628077D01*
X117781661Y-117707757D01*
X117918914Y-117750638D01*
X118062686Y-117753273D01*
X118062817Y-117753237D01*
X118128496Y-117763949D01*
X118181264Y-117811446D01*
X118200000Y-117877555D01*
X118200000Y-120600000D01*
X123000000Y-120600000D01*
X123000000Y-119859436D01*
X123020002Y-119791315D01*
X123073658Y-119744822D01*
X123143932Y-119734718D01*
X123208512Y-119764212D01*
X123247119Y-119824706D01*
X123259873Y-119869184D01*
X123261971Y-119876501D01*
X123264790Y-119881986D01*
X123336480Y-120021478D01*
X123347176Y-120042291D01*
X123462959Y-120188374D01*
X123604912Y-120309185D01*
X123767627Y-120400123D01*
X123944907Y-120457725D01*
X124129998Y-120479796D01*
X124136133Y-120479324D01*
X124136135Y-120479324D01*
X124309710Y-120465968D01*
X124309715Y-120465967D01*
X124315851Y-120465495D01*
X124321781Y-120463839D01*
X124321783Y-120463839D01*
X124489459Y-120417023D01*
X124489458Y-120417023D01*
X124495387Y-120415368D01*
X124661768Y-120331323D01*
X124686255Y-120312192D01*
X124803794Y-120220360D01*
X124803795Y-120220359D01*
X124808655Y-120216562D01*
X124930454Y-120075456D01*
X125022526Y-119913380D01*
X125081364Y-119736507D01*
X125091826Y-119653695D01*
X125104285Y-119555076D01*
X125104286Y-119555069D01*
X125104727Y-119551574D01*
X125105099Y-119524906D01*
X125086909Y-119339393D01*
X125085128Y-119333494D01*
X125085127Y-119333489D01*
X125034814Y-119166845D01*
X125033033Y-119160946D01*
X124981807Y-119064604D01*
X124948416Y-119001804D01*
X124948414Y-119001801D01*
X124945522Y-118996362D01*
X124941632Y-118991592D01*
X124941629Y-118991588D01*
X124831605Y-118856686D01*
X124831602Y-118856683D01*
X124827710Y-118851911D01*
X124822056Y-118847233D01*
X124724519Y-118766543D01*
X124684085Y-118733093D01*
X124520116Y-118644435D01*
X124424473Y-118614829D01*
X124347936Y-118591137D01*
X124347933Y-118591136D01*
X124342049Y-118589315D01*
X124335924Y-118588671D01*
X124335923Y-118588671D01*
X124162796Y-118570474D01*
X124162795Y-118570474D01*
X124156668Y-118569830D01*
X124078549Y-118576939D01*
X123977171Y-118586165D01*
X123977168Y-118586166D01*
X123971032Y-118586724D01*
X123965122Y-118588463D01*
X123965119Y-118588464D01*
X123825079Y-118629681D01*
X123792214Y-118639354D01*
X123627023Y-118725713D01*
X123622223Y-118729573D01*
X123622222Y-118729573D01*
X123597453Y-118749488D01*
X123481752Y-118842514D01*
X123361935Y-118985307D01*
X123358971Y-118990699D01*
X123358968Y-118990703D01*
X123288363Y-119119133D01*
X123272135Y-119148652D01*
X123270274Y-119154519D01*
X123270273Y-119154521D01*
X123246102Y-119230718D01*
X123206438Y-119289602D01*
X123141236Y-119317694D01*
X123071197Y-119306076D01*
X123018557Y-119258437D01*
X123000000Y-119192619D01*
X123000000Y-117359436D01*
X123020002Y-117291315D01*
X123073658Y-117244822D01*
X123143932Y-117234718D01*
X123208512Y-117264212D01*
X123247119Y-117324706D01*
X123257364Y-117360434D01*
X123261971Y-117376501D01*
X123280924Y-117413380D01*
X123330470Y-117509784D01*
X123347176Y-117542291D01*
X123462959Y-117688374D01*
X123604912Y-117809185D01*
X123610290Y-117812191D01*
X123610292Y-117812192D01*
X123637731Y-117827527D01*
X123767627Y-117900123D01*
X123944907Y-117957725D01*
X124129998Y-117979796D01*
X124136133Y-117979324D01*
X124136135Y-117979324D01*
X124309710Y-117965968D01*
X124309715Y-117965967D01*
X124315851Y-117965495D01*
X124321781Y-117963839D01*
X124321783Y-117963839D01*
X124489459Y-117917023D01*
X124489458Y-117917023D01*
X124495387Y-117915368D01*
X124661768Y-117831323D01*
X124686255Y-117812192D01*
X124803794Y-117720360D01*
X124803795Y-117720359D01*
X124808655Y-117716562D01*
X124913424Y-117595185D01*
X124926430Y-117580118D01*
X124926431Y-117580117D01*
X124930454Y-117575456D01*
X125022526Y-117413380D01*
X125081364Y-117236507D01*
X125098610Y-117099997D01*
X125104285Y-117055076D01*
X125104286Y-117055069D01*
X125104727Y-117051574D01*
X125105099Y-117024906D01*
X125104146Y-117015188D01*
X125099566Y-116968473D01*
X125112826Y-116898726D01*
X125161689Y-116847219D01*
X125230641Y-116830306D01*
X125297792Y-116853356D01*
X125321416Y-116875103D01*
X125386960Y-116953077D01*
X125446207Y-116992515D01*
X125494867Y-117024906D01*
X125506661Y-117032757D01*
X125643914Y-117075638D01*
X125787686Y-117078273D01*
X125846380Y-117062271D01*
X125917756Y-117042812D01*
X125917759Y-117042811D01*
X125926418Y-117040450D01*
X125934068Y-117035753D01*
X125934070Y-117035752D01*
X125987689Y-117002830D01*
X126048959Y-116965210D01*
X126145456Y-116858601D01*
X126198323Y-116749485D01*
X126204241Y-116737271D01*
X126204242Y-116737269D01*
X126208154Y-116729194D01*
X126211150Y-116711386D01*
X126231205Y-116592184D01*
X126231205Y-116592179D01*
X126232011Y-116587391D01*
X126232162Y-116575000D01*
X126219317Y-116485307D01*
X126213050Y-116441543D01*
X126213049Y-116441540D01*
X126211777Y-116432657D01*
X126152260Y-116301756D01*
X126095934Y-116236386D01*
X126064254Y-116199619D01*
X126064252Y-116199617D01*
X126058396Y-116192821D01*
X125937730Y-116114610D01*
X125799963Y-116073409D01*
X125790987Y-116073354D01*
X125790986Y-116073354D01*
X125731021Y-116072988D01*
X125656170Y-116072530D01*
X125599694Y-116088671D01*
X125533701Y-116107532D01*
X125517910Y-116112045D01*
X125396298Y-116188777D01*
X125390355Y-116195506D01*
X125310034Y-116286452D01*
X125301110Y-116296556D01*
X125297296Y-116304679D01*
X125297295Y-116304681D01*
X125243814Y-116418594D01*
X125239999Y-116426720D01*
X125238618Y-116435589D01*
X125223099Y-116535258D01*
X125192854Y-116599491D01*
X125132685Y-116637175D01*
X125061693Y-116636347D01*
X125002418Y-116597269D01*
X124987354Y-116575036D01*
X124945522Y-116496362D01*
X124941632Y-116491592D01*
X124941629Y-116491588D01*
X124831605Y-116356686D01*
X124831602Y-116356683D01*
X124827710Y-116351911D01*
X124822056Y-116347233D01*
X124698894Y-116245344D01*
X124684085Y-116233093D01*
X124520116Y-116144435D01*
X124415479Y-116112045D01*
X124347936Y-116091137D01*
X124347933Y-116091136D01*
X124342049Y-116089315D01*
X124335924Y-116088671D01*
X124335923Y-116088671D01*
X124162796Y-116070474D01*
X124162795Y-116070474D01*
X124156668Y-116069830D01*
X124099892Y-116074997D01*
X123977171Y-116086165D01*
X123977168Y-116086166D01*
X123971032Y-116086724D01*
X123965122Y-116088463D01*
X123965119Y-116088464D01*
X123798129Y-116137613D01*
X123792214Y-116139354D01*
X123627023Y-116225713D01*
X123481752Y-116342514D01*
X123361935Y-116485307D01*
X123358971Y-116490699D01*
X123358968Y-116490703D01*
X123298531Y-116600638D01*
X123272135Y-116648652D01*
X123270274Y-116654519D01*
X123270273Y-116654521D01*
X123246102Y-116730718D01*
X123206438Y-116789602D01*
X123141236Y-116817694D01*
X123071197Y-116806076D01*
X123018557Y-116758437D01*
X123000000Y-116692619D01*
X123000000Y-114859436D01*
X123020002Y-114791315D01*
X123073658Y-114744822D01*
X123143932Y-114734718D01*
X123208512Y-114764212D01*
X123247119Y-114824706D01*
X123257078Y-114859436D01*
X123261971Y-114876501D01*
X123347176Y-115042291D01*
X123462959Y-115188374D01*
X123604912Y-115309185D01*
X123767627Y-115400123D01*
X123944907Y-115457725D01*
X124129998Y-115479796D01*
X124136133Y-115479324D01*
X124136135Y-115479324D01*
X124309710Y-115465968D01*
X124309715Y-115465967D01*
X124315851Y-115465495D01*
X124321781Y-115463839D01*
X124321783Y-115463839D01*
X124489459Y-115417023D01*
X124489458Y-115417023D01*
X124495387Y-115415368D01*
X124661768Y-115331323D01*
X124686255Y-115312192D01*
X124803794Y-115220360D01*
X124803795Y-115220359D01*
X124808655Y-115216562D01*
X124917681Y-115090254D01*
X124926430Y-115080118D01*
X124926431Y-115080117D01*
X124930454Y-115075456D01*
X124934688Y-115068004D01*
X125004790Y-114944601D01*
X125022526Y-114913380D01*
X125081364Y-114736507D01*
X125104727Y-114551574D01*
X125105099Y-114524906D01*
X125086909Y-114339393D01*
X125085128Y-114333494D01*
X125085127Y-114333489D01*
X125034814Y-114166845D01*
X125033033Y-114160946D01*
X124945522Y-113996362D01*
X124941632Y-113991592D01*
X124941629Y-113991588D01*
X124831605Y-113856686D01*
X124831602Y-113856683D01*
X124827710Y-113851911D01*
X124822056Y-113847233D01*
X124688834Y-113737022D01*
X124684085Y-113733093D01*
X124520116Y-113644435D01*
X124431083Y-113616875D01*
X124347936Y-113591137D01*
X124347933Y-113591136D01*
X124342049Y-113589315D01*
X124335924Y-113588671D01*
X124335923Y-113588671D01*
X124162796Y-113570474D01*
X124162795Y-113570474D01*
X124156668Y-113569830D01*
X124078549Y-113576939D01*
X123977171Y-113586165D01*
X123977168Y-113586166D01*
X123971032Y-113586724D01*
X123965122Y-113588463D01*
X123965119Y-113588464D01*
X123798129Y-113637613D01*
X123792214Y-113639354D01*
X123627023Y-113725713D01*
X123481752Y-113842514D01*
X123361935Y-113985307D01*
X123358971Y-113990699D01*
X123358968Y-113990703D01*
X123284256Y-114126605D01*
X123272135Y-114148652D01*
X123270274Y-114154519D01*
X123270273Y-114154521D01*
X123246102Y-114230718D01*
X123206438Y-114289602D01*
X123141236Y-114317694D01*
X123071197Y-114306076D01*
X123018557Y-114258437D01*
X123000000Y-114192619D01*
X123000000Y-113700000D01*
X118200000Y-113700000D01*
X118200000Y-116622400D01*
X118179998Y-116690521D01*
X118126342Y-116737014D01*
X118073230Y-116748398D01*
X117973567Y-116747789D01*
X117931170Y-116747530D01*
X117792910Y-116787045D01*
X117724346Y-116830306D01*
X117692303Y-116850524D01*
X117671298Y-116863777D01*
X117665355Y-116870506D01*
X117632655Y-116907532D01*
X117576110Y-116971556D01*
X117572296Y-116979679D01*
X117572295Y-116979681D01*
X117546120Y-117035434D01*
X117514999Y-117101720D01*
X117513618Y-117110589D01*
X117494291Y-117234718D01*
X117492876Y-117243804D01*
X110200500Y-117243804D01*
X110200500Y-113403834D01*
X113524500Y-113403834D01*
X113527481Y-113435369D01*
X113572366Y-113563184D01*
X113577958Y-113570754D01*
X113577959Y-113570757D01*
X113632379Y-113644435D01*
X113652850Y-113672150D01*
X113660421Y-113677742D01*
X113754243Y-113747041D01*
X113754246Y-113747042D01*
X113761816Y-113752634D01*
X113889631Y-113797519D01*
X113897277Y-113798242D01*
X113897278Y-113798242D01*
X113903248Y-113798806D01*
X113921166Y-113800500D01*
X115478834Y-113800500D01*
X115496752Y-113798806D01*
X115502722Y-113798242D01*
X115502723Y-113798242D01*
X115510369Y-113797519D01*
X115638184Y-113752634D01*
X115645754Y-113747042D01*
X115645757Y-113747041D01*
X115739579Y-113677742D01*
X115747150Y-113672150D01*
X115767621Y-113644435D01*
X115822041Y-113570757D01*
X115822042Y-113570754D01*
X115827634Y-113563184D01*
X115872519Y-113435369D01*
X115875500Y-113403834D01*
X115875500Y-112096166D01*
X115872519Y-112064631D01*
X115827634Y-111936816D01*
X115822042Y-111929246D01*
X115822041Y-111929243D01*
X115752742Y-111835421D01*
X115747150Y-111827850D01*
X115722730Y-111809813D01*
X115645757Y-111752959D01*
X115645754Y-111752958D01*
X115638184Y-111747366D01*
X115510369Y-111702481D01*
X115502723Y-111701758D01*
X115502722Y-111701758D01*
X115496752Y-111701194D01*
X115478834Y-111699500D01*
X113921166Y-111699500D01*
X113903248Y-111701194D01*
X113897278Y-111701758D01*
X113897277Y-111701758D01*
X113889631Y-111702481D01*
X113761816Y-111747366D01*
X113754246Y-111752958D01*
X113754243Y-111752959D01*
X113677270Y-111809813D01*
X113652850Y-111827850D01*
X113647258Y-111835421D01*
X113577959Y-111929243D01*
X113577958Y-111929246D01*
X113572366Y-111936816D01*
X113527481Y-112064631D01*
X113524500Y-112096166D01*
X113524500Y-113403834D01*
X110200500Y-113403834D01*
X110200500Y-110242631D01*
X113519443Y-110242631D01*
X113520455Y-110253751D01*
X113536134Y-110426037D01*
X113538114Y-110447797D01*
X113596280Y-110645428D01*
X113599137Y-110650893D01*
X113610891Y-110673376D01*
X113691726Y-110827998D01*
X113695586Y-110832799D01*
X113695588Y-110832802D01*
X113748335Y-110898406D01*
X113820815Y-110988553D01*
X113978630Y-111120976D01*
X113984028Y-111123944D01*
X113984033Y-111123947D01*
X114132501Y-111205567D01*
X114159162Y-111220224D01*
X114355532Y-111282516D01*
X114361649Y-111283202D01*
X114361653Y-111283203D01*
X114437874Y-111291752D01*
X114515864Y-111300500D01*
X114876841Y-111300500D01*
X114949805Y-111293346D01*
X121144770Y-111293346D01*
X121159200Y-111513510D01*
X121160621Y-111519106D01*
X121160622Y-111519111D01*
X121198760Y-111669278D01*
X121213511Y-111727358D01*
X121215928Y-111732600D01*
X121215928Y-111732601D01*
X121254046Y-111815285D01*
X121305883Y-111927727D01*
X121433222Y-112107908D01*
X121591264Y-112261867D01*
X121596060Y-112265072D01*
X121596063Y-112265074D01*
X121680261Y-112321333D01*
X121774717Y-112384446D01*
X121780020Y-112386724D01*
X121780023Y-112386726D01*
X121972129Y-112469261D01*
X121977436Y-112471541D01*
X122057088Y-112489564D01*
X122186995Y-112518960D01*
X122187001Y-112518961D01*
X122192632Y-112520235D01*
X122198403Y-112520462D01*
X122198405Y-112520462D01*
X122266211Y-112523126D01*
X122413098Y-112528897D01*
X122522275Y-112513067D01*
X122625738Y-112498066D01*
X122625743Y-112498065D01*
X122631452Y-112497237D01*
X122636916Y-112495382D01*
X122636921Y-112495381D01*
X122834907Y-112428174D01*
X122834912Y-112428172D01*
X122840379Y-112426316D01*
X123032884Y-112318508D01*
X123202518Y-112177424D01*
X123302355Y-112057384D01*
X123339908Y-112012232D01*
X123339910Y-112012229D01*
X123343602Y-112007790D01*
X123451410Y-111815285D01*
X123453266Y-111809818D01*
X123453268Y-111809813D01*
X123520475Y-111611827D01*
X123520476Y-111611822D01*
X123522331Y-111606358D01*
X123523159Y-111600649D01*
X123523160Y-111600644D01*
X123553458Y-111391678D01*
X123553991Y-111388004D01*
X123555643Y-111324906D01*
X123535454Y-111105195D01*
X123530304Y-111086932D01*
X123477134Y-110898406D01*
X123475565Y-110892842D01*
X123377980Y-110694959D01*
X123370962Y-110685560D01*
X123249420Y-110522797D01*
X123249420Y-110522796D01*
X123245967Y-110518173D01*
X123144290Y-110424184D01*
X123088189Y-110372324D01*
X123088186Y-110372322D01*
X123083949Y-110368405D01*
X122897350Y-110250670D01*
X122692421Y-110168912D01*
X122686761Y-110167786D01*
X122686757Y-110167785D01*
X122481691Y-110126995D01*
X122481688Y-110126995D01*
X122476024Y-110125868D01*
X122470249Y-110125792D01*
X122470245Y-110125792D01*
X122359504Y-110124343D01*
X122255406Y-110122980D01*
X122249709Y-110123959D01*
X122249708Y-110123959D01*
X122043654Y-110159365D01*
X122043653Y-110159365D01*
X122037957Y-110160344D01*
X121830957Y-110236710D01*
X121825996Y-110239662D01*
X121825995Y-110239662D01*
X121687094Y-110322300D01*
X121641341Y-110349520D01*
X121475457Y-110494996D01*
X121338863Y-110668266D01*
X121236131Y-110863526D01*
X121170703Y-111074239D01*
X121144770Y-111293346D01*
X114949805Y-111293346D01*
X115030030Y-111285480D01*
X115227251Y-111225935D01*
X115409151Y-111129218D01*
X115499098Y-111055859D01*
X115564025Y-111002906D01*
X115564028Y-111002903D01*
X115568800Y-110999011D01*
X115577452Y-110988553D01*
X115696189Y-110845025D01*
X115696191Y-110845021D01*
X115700118Y-110840275D01*
X115798103Y-110659055D01*
X115859023Y-110462254D01*
X115859922Y-110453705D01*
X115879913Y-110263498D01*
X115879913Y-110263496D01*
X115880557Y-110257369D01*
X115871638Y-110159365D01*
X115862445Y-110058342D01*
X115862444Y-110058339D01*
X115861886Y-110052203D01*
X115803720Y-109854572D01*
X115765769Y-109781978D01*
X115726182Y-109706257D01*
X128455329Y-109706257D01*
X128456493Y-109715159D01*
X128456493Y-109715162D01*
X128470740Y-109824111D01*
X128473974Y-109848839D01*
X128531887Y-109980457D01*
X128537664Y-109987330D01*
X128537665Y-109987331D01*
X128611950Y-110075704D01*
X128624413Y-110090530D01*
X128642640Y-110102663D01*
X128732299Y-110162345D01*
X128744114Y-110170210D01*
X128881367Y-110213091D01*
X129025139Y-110215726D01*
X129083166Y-110199906D01*
X129155209Y-110180265D01*
X129155212Y-110180264D01*
X129163871Y-110177903D01*
X129171521Y-110173206D01*
X129171523Y-110173205D01*
X129248619Y-110125868D01*
X129286412Y-110102663D01*
X129321412Y-110063996D01*
X129376887Y-110002707D01*
X129382909Y-109996054D01*
X129414959Y-109929904D01*
X129441694Y-109874724D01*
X129441695Y-109874722D01*
X129445607Y-109866647D01*
X129452798Y-109823906D01*
X129468658Y-109729637D01*
X129468658Y-109729632D01*
X129469464Y-109724844D01*
X129469615Y-109712453D01*
X129461384Y-109654975D01*
X129450503Y-109578996D01*
X129450502Y-109578993D01*
X129449230Y-109570110D01*
X129443614Y-109557757D01*
X129424743Y-109516254D01*
X129389713Y-109439209D01*
X129358607Y-109403108D01*
X129301707Y-109337072D01*
X129301705Y-109337070D01*
X129295849Y-109330274D01*
X129175183Y-109252063D01*
X129037416Y-109210862D01*
X129028440Y-109210807D01*
X129028439Y-109210807D01*
X128968474Y-109210441D01*
X128893623Y-109209983D01*
X128832378Y-109227487D01*
X128769898Y-109245344D01*
X128755363Y-109249498D01*
X128633751Y-109326230D01*
X128627808Y-109332959D01*
X128568036Y-109400638D01*
X128538563Y-109434009D01*
X128534749Y-109442132D01*
X128534748Y-109442134D01*
X128496320Y-109523984D01*
X128477452Y-109564173D01*
X128476071Y-109573042D01*
X128459812Y-109677467D01*
X128455329Y-109706257D01*
X115726182Y-109706257D01*
X115711131Y-109677467D01*
X115708274Y-109672002D01*
X115698404Y-109659725D01*
X115583050Y-109516254D01*
X115583050Y-109516253D01*
X115579185Y-109511447D01*
X115421370Y-109379024D01*
X115415972Y-109376056D01*
X115415967Y-109376053D01*
X115246235Y-109282743D01*
X115240838Y-109279776D01*
X115044468Y-109217484D01*
X115038351Y-109216798D01*
X115038347Y-109216797D01*
X114962126Y-109208248D01*
X114884136Y-109199500D01*
X114523159Y-109199500D01*
X114369970Y-109214520D01*
X114172749Y-109274065D01*
X113990849Y-109370782D01*
X113915291Y-109432406D01*
X113835975Y-109497094D01*
X113835972Y-109497097D01*
X113831200Y-109500989D01*
X113827273Y-109505736D01*
X113827271Y-109505738D01*
X113703811Y-109654975D01*
X113703809Y-109654979D01*
X113699882Y-109659725D01*
X113601897Y-109840945D01*
X113540977Y-110037746D01*
X113540333Y-110043871D01*
X113540333Y-110043872D01*
X113522261Y-110215823D01*
X113519443Y-110242631D01*
X110200500Y-110242631D01*
X110200500Y-109093804D01*
X117492876Y-109093804D01*
X117494040Y-109102706D01*
X117494040Y-109102709D01*
X117508959Y-109216797D01*
X117511521Y-109236386D01*
X117569434Y-109368004D01*
X117575211Y-109374877D01*
X117575212Y-109374878D01*
X117656180Y-109471201D01*
X117661960Y-109478077D01*
X117781661Y-109557757D01*
X117918914Y-109600638D01*
X118062686Y-109603273D01*
X118105507Y-109591599D01*
X118192756Y-109567812D01*
X118192759Y-109567811D01*
X118201418Y-109565450D01*
X118209068Y-109560753D01*
X118209070Y-109560752D01*
X118267669Y-109524772D01*
X118323959Y-109490210D01*
X118343394Y-109468739D01*
X118414434Y-109390254D01*
X118420456Y-109383601D01*
X118469322Y-109282743D01*
X118479241Y-109262271D01*
X118479242Y-109262269D01*
X118483154Y-109254194D01*
X118490444Y-109210862D01*
X118506205Y-109117184D01*
X118506205Y-109117179D01*
X118507011Y-109112391D01*
X118507162Y-109100000D01*
X118498052Y-109036386D01*
X118488050Y-108966543D01*
X118488049Y-108966540D01*
X118486777Y-108957657D01*
X118427260Y-108826756D01*
X118398980Y-108793935D01*
X118339254Y-108724619D01*
X118339252Y-108724617D01*
X118333396Y-108717821D01*
X118212730Y-108639610D01*
X118074963Y-108598409D01*
X118065987Y-108598354D01*
X118065986Y-108598354D01*
X118006021Y-108597988D01*
X117931170Y-108597530D01*
X117792910Y-108637045D01*
X117671298Y-108713777D01*
X117665355Y-108720506D01*
X117637788Y-108751720D01*
X117576110Y-108821556D01*
X117572296Y-108829679D01*
X117572295Y-108829681D01*
X117531213Y-108917184D01*
X117514999Y-108951720D01*
X117513618Y-108960589D01*
X117497786Y-109062271D01*
X117492876Y-109093804D01*
X110200500Y-109093804D01*
X110200500Y-107390000D01*
X120094540Y-107390000D01*
X120114326Y-107578256D01*
X120172821Y-107758284D01*
X120267467Y-107922216D01*
X120271885Y-107927123D01*
X120271886Y-107927124D01*
X120340766Y-108003622D01*
X120394129Y-108062888D01*
X120547270Y-108174151D01*
X120720197Y-108251144D01*
X120818212Y-108271978D01*
X120898897Y-108289128D01*
X120898901Y-108289128D01*
X120905354Y-108290500D01*
X121094646Y-108290500D01*
X121101099Y-108289128D01*
X121101103Y-108289128D01*
X121181788Y-108271978D01*
X121279803Y-108251144D01*
X121452730Y-108174151D01*
X121605871Y-108062888D01*
X121659235Y-108003622D01*
X121728114Y-107927124D01*
X121728115Y-107927123D01*
X121732533Y-107922216D01*
X121827179Y-107758284D01*
X121885674Y-107578256D01*
X121905460Y-107390001D01*
X126994540Y-107390001D01*
X127014326Y-107578257D01*
X127072821Y-107758285D01*
X127076124Y-107764007D01*
X127076125Y-107764008D01*
X127103528Y-107811471D01*
X127167467Y-107922217D01*
X127171885Y-107927124D01*
X127171886Y-107927125D01*
X127285029Y-108052782D01*
X127294129Y-108062889D01*
X127447270Y-108174152D01*
X127620197Y-108251145D01*
X127718212Y-108271979D01*
X127798897Y-108289129D01*
X127798901Y-108289129D01*
X127805354Y-108290501D01*
X127994646Y-108290501D01*
X128001099Y-108289129D01*
X128001103Y-108289129D01*
X128081788Y-108271979D01*
X128179803Y-108251145D01*
X128352730Y-108174152D01*
X128505871Y-108062889D01*
X128514972Y-108052782D01*
X128628114Y-107927125D01*
X128628115Y-107927124D01*
X128632533Y-107922217D01*
X128696472Y-107811471D01*
X128723875Y-107764008D01*
X128723876Y-107764007D01*
X128727179Y-107758285D01*
X128785674Y-107578257D01*
X128805460Y-107390001D01*
X128793697Y-107278077D01*
X128786364Y-107208308D01*
X128786364Y-107208306D01*
X128785674Y-107201745D01*
X128727179Y-107021717D01*
X128723410Y-107015188D01*
X128635836Y-106863506D01*
X128635835Y-106863505D01*
X128632533Y-106857785D01*
X128607818Y-106830336D01*
X128510286Y-106722016D01*
X128510284Y-106722015D01*
X128505871Y-106717113D01*
X128476575Y-106695828D01*
X128358072Y-106609731D01*
X128358071Y-106609730D01*
X128352730Y-106605850D01*
X128179803Y-106528857D01*
X128081788Y-106508023D01*
X128001103Y-106490873D01*
X128001099Y-106490873D01*
X127994646Y-106489501D01*
X127805354Y-106489501D01*
X127798901Y-106490873D01*
X127798897Y-106490873D01*
X127718212Y-106508023D01*
X127620197Y-106528857D01*
X127447270Y-106605850D01*
X127441929Y-106609730D01*
X127441928Y-106609731D01*
X127323425Y-106695828D01*
X127294129Y-106717113D01*
X127289716Y-106722015D01*
X127289714Y-106722016D01*
X127192182Y-106830336D01*
X127167467Y-106857785D01*
X127164165Y-106863505D01*
X127164164Y-106863506D01*
X127076591Y-107015188D01*
X127072821Y-107021717D01*
X127014326Y-107201745D01*
X127013636Y-107208306D01*
X127013636Y-107208308D01*
X127006303Y-107278077D01*
X126994540Y-107390001D01*
X121905460Y-107390001D01*
X121905460Y-107390000D01*
X121898813Y-107326756D01*
X121886364Y-107208307D01*
X121886364Y-107208305D01*
X121885674Y-107201744D01*
X121827179Y-107021716D01*
X121732533Y-106857784D01*
X121707819Y-106830336D01*
X121610286Y-106722015D01*
X121610284Y-106722014D01*
X121605871Y-106717112D01*
X121472143Y-106619953D01*
X121458072Y-106609730D01*
X121458071Y-106609729D01*
X121452730Y-106605849D01*
X121279803Y-106528856D01*
X121181788Y-106508022D01*
X121101103Y-106490872D01*
X121101099Y-106490872D01*
X121094646Y-106489500D01*
X120905354Y-106489500D01*
X120898901Y-106490872D01*
X120898897Y-106490872D01*
X120818212Y-106508022D01*
X120720197Y-106528856D01*
X120547270Y-106605849D01*
X120541929Y-106609729D01*
X120541928Y-106609730D01*
X120527857Y-106619953D01*
X120394129Y-106717112D01*
X120389716Y-106722014D01*
X120389714Y-106722015D01*
X120292181Y-106830336D01*
X120267467Y-106857784D01*
X120172821Y-107021716D01*
X120114326Y-107201744D01*
X120113636Y-107208305D01*
X120113636Y-107208307D01*
X120101187Y-107326756D01*
X120094540Y-107390000D01*
X110200500Y-107390000D01*
X110200500Y-104503834D01*
X113524500Y-104503834D01*
X113527481Y-104535369D01*
X113572366Y-104663184D01*
X113577958Y-104670754D01*
X113577959Y-104670757D01*
X113614974Y-104720870D01*
X113652850Y-104772150D01*
X113660421Y-104777742D01*
X113754243Y-104847041D01*
X113754246Y-104847042D01*
X113761816Y-104852634D01*
X113889631Y-104897519D01*
X113897277Y-104898242D01*
X113897278Y-104898242D01*
X113903248Y-104898806D01*
X113921166Y-104900500D01*
X115478834Y-104900500D01*
X115496752Y-104898806D01*
X115502722Y-104898242D01*
X115502723Y-104898242D01*
X115510369Y-104897519D01*
X115638184Y-104852634D01*
X115641750Y-104850000D01*
X120094540Y-104850000D01*
X120095230Y-104856565D01*
X120105511Y-104954381D01*
X120114326Y-105038256D01*
X120172821Y-105218284D01*
X120267467Y-105382216D01*
X120271885Y-105387123D01*
X120271886Y-105387124D01*
X120388562Y-105516705D01*
X120394129Y-105522888D01*
X120399468Y-105526767D01*
X120541557Y-105630000D01*
X120547270Y-105634151D01*
X120720197Y-105711144D01*
X120818212Y-105731978D01*
X120898897Y-105749128D01*
X120898901Y-105749128D01*
X120905354Y-105750500D01*
X121094646Y-105750500D01*
X121101099Y-105749128D01*
X121101103Y-105749128D01*
X121181788Y-105731978D01*
X121279803Y-105711144D01*
X121452730Y-105634151D01*
X121458444Y-105630000D01*
X121600532Y-105526767D01*
X121605871Y-105522888D01*
X121611439Y-105516705D01*
X121728114Y-105387124D01*
X121728115Y-105387123D01*
X121732533Y-105382216D01*
X121827179Y-105218284D01*
X121885674Y-105038256D01*
X121894490Y-104954381D01*
X121904770Y-104856565D01*
X121905460Y-104850001D01*
X126994540Y-104850001D01*
X126995230Y-104856565D01*
X126995230Y-104856566D01*
X127005657Y-104955771D01*
X127014326Y-105038257D01*
X127072821Y-105218285D01*
X127076124Y-105224007D01*
X127076125Y-105224008D01*
X127115720Y-105292588D01*
X127167467Y-105382217D01*
X127171885Y-105387124D01*
X127171886Y-105387125D01*
X127240765Y-105463622D01*
X127294129Y-105522889D01*
X127299467Y-105526767D01*
X127299468Y-105526768D01*
X127429343Y-105621127D01*
X127447270Y-105634152D01*
X127620197Y-105711145D01*
X127718212Y-105731979D01*
X127798897Y-105749129D01*
X127798901Y-105749129D01*
X127805354Y-105750501D01*
X127994646Y-105750501D01*
X128001099Y-105749129D01*
X128001103Y-105749129D01*
X128081788Y-105731979D01*
X128179803Y-105711145D01*
X128352730Y-105634152D01*
X128370658Y-105621127D01*
X128500532Y-105526768D01*
X128500533Y-105526767D01*
X128505871Y-105522889D01*
X128559236Y-105463622D01*
X128628114Y-105387125D01*
X128628115Y-105387124D01*
X128632533Y-105382217D01*
X128684280Y-105292588D01*
X128723875Y-105224008D01*
X128723876Y-105224007D01*
X128727179Y-105218285D01*
X128785674Y-105038257D01*
X128794344Y-104955771D01*
X128804770Y-104856566D01*
X128804770Y-104856565D01*
X128805460Y-104850001D01*
X128799630Y-104794534D01*
X128786364Y-104668308D01*
X128786364Y-104668306D01*
X128785674Y-104661745D01*
X128727179Y-104481717D01*
X128716569Y-104463339D01*
X128635836Y-104323506D01*
X128635835Y-104323505D01*
X128632533Y-104317785D01*
X128617753Y-104301370D01*
X128510286Y-104182016D01*
X128510284Y-104182015D01*
X128505871Y-104177113D01*
X128419430Y-104114310D01*
X128358072Y-104069731D01*
X128358071Y-104069730D01*
X128352730Y-104065850D01*
X128179803Y-103988857D01*
X128081788Y-103968023D01*
X128001103Y-103950873D01*
X128001099Y-103950873D01*
X127994646Y-103949501D01*
X127805354Y-103949501D01*
X127798901Y-103950873D01*
X127798897Y-103950873D01*
X127718212Y-103968023D01*
X127620197Y-103988857D01*
X127447270Y-104065850D01*
X127441929Y-104069730D01*
X127441928Y-104069731D01*
X127380570Y-104114310D01*
X127294129Y-104177113D01*
X127289716Y-104182015D01*
X127289714Y-104182016D01*
X127182247Y-104301370D01*
X127167467Y-104317785D01*
X127164165Y-104323505D01*
X127164164Y-104323506D01*
X127083432Y-104463339D01*
X127072821Y-104481717D01*
X127014326Y-104661745D01*
X127013636Y-104668306D01*
X127013636Y-104668308D01*
X127000370Y-104794534D01*
X126994540Y-104850001D01*
X121905460Y-104850001D01*
X121905460Y-104850000D01*
X121897866Y-104777742D01*
X121886364Y-104668307D01*
X121886364Y-104668305D01*
X121885674Y-104661744D01*
X121827179Y-104481716D01*
X121816905Y-104463920D01*
X121735836Y-104323505D01*
X121732533Y-104317784D01*
X121728114Y-104312876D01*
X121610286Y-104182015D01*
X121610284Y-104182014D01*
X121605871Y-104177112D01*
X121452730Y-104065849D01*
X121279803Y-103988856D01*
X121181788Y-103968022D01*
X121101103Y-103950872D01*
X121101099Y-103950872D01*
X121094646Y-103949500D01*
X120905354Y-103949500D01*
X120898901Y-103950872D01*
X120898897Y-103950872D01*
X120818212Y-103968022D01*
X120720197Y-103988856D01*
X120547270Y-104065849D01*
X120394129Y-104177112D01*
X120389716Y-104182014D01*
X120389714Y-104182015D01*
X120271886Y-104312876D01*
X120267467Y-104317784D01*
X120264164Y-104323505D01*
X120183096Y-104463920D01*
X120172821Y-104481716D01*
X120114326Y-104661744D01*
X120113636Y-104668305D01*
X120113636Y-104668307D01*
X120102134Y-104777742D01*
X120094540Y-104850000D01*
X115641750Y-104850000D01*
X115645754Y-104847042D01*
X115645757Y-104847041D01*
X115739579Y-104777742D01*
X115747150Y-104772150D01*
X115785026Y-104720870D01*
X115822041Y-104670757D01*
X115822042Y-104670754D01*
X115827634Y-104663184D01*
X115872519Y-104535369D01*
X115875500Y-104503834D01*
X115875500Y-103196166D01*
X115872519Y-103164631D01*
X115827634Y-103036816D01*
X115822042Y-103029246D01*
X115822041Y-103029243D01*
X115752742Y-102935421D01*
X115747150Y-102927850D01*
X115724038Y-102910779D01*
X115645757Y-102852959D01*
X115645754Y-102852958D01*
X115638184Y-102847366D01*
X115510369Y-102802481D01*
X115502723Y-102801758D01*
X115502722Y-102801758D01*
X115496752Y-102801194D01*
X115478834Y-102799500D01*
X113921166Y-102799500D01*
X113903248Y-102801194D01*
X113897278Y-102801758D01*
X113897277Y-102801758D01*
X113889631Y-102802481D01*
X113761816Y-102847366D01*
X113754246Y-102852958D01*
X113754243Y-102852959D01*
X113675962Y-102910779D01*
X113652850Y-102927850D01*
X113647258Y-102935421D01*
X113577959Y-103029243D01*
X113577958Y-103029246D01*
X113572366Y-103036816D01*
X113527481Y-103164631D01*
X113524500Y-103196166D01*
X113524500Y-104503834D01*
X110200500Y-104503834D01*
X110200500Y-102593804D01*
X121992876Y-102593804D01*
X121994040Y-102602706D01*
X121994040Y-102602709D01*
X122010357Y-102727487D01*
X122011521Y-102736386D01*
X122069434Y-102868004D01*
X122075211Y-102874877D01*
X122075212Y-102874878D01*
X122105390Y-102910779D01*
X122161960Y-102978077D01*
X122180187Y-102990210D01*
X122263547Y-103045699D01*
X122281661Y-103057757D01*
X122418914Y-103100638D01*
X122562686Y-103103273D01*
X122605507Y-103091599D01*
X122692756Y-103067812D01*
X122692759Y-103067811D01*
X122701418Y-103065450D01*
X122709068Y-103060753D01*
X122709070Y-103060752D01*
X122762689Y-103027830D01*
X122823959Y-102990210D01*
X122889915Y-102917343D01*
X122914434Y-102890254D01*
X122920456Y-102883601D01*
X122983154Y-102754194D01*
X122986150Y-102736386D01*
X123006205Y-102617184D01*
X123006205Y-102617179D01*
X123007011Y-102612391D01*
X123007162Y-102600000D01*
X122996592Y-102526190D01*
X122988050Y-102466543D01*
X122988049Y-102466540D01*
X122986777Y-102457657D01*
X122977921Y-102438178D01*
X122952925Y-102383203D01*
X122935011Y-102343804D01*
X125542876Y-102343804D01*
X125544040Y-102352706D01*
X125544040Y-102352709D01*
X125558926Y-102466543D01*
X125561521Y-102486386D01*
X125588906Y-102548624D01*
X125613651Y-102604860D01*
X125619434Y-102618004D01*
X125625211Y-102624877D01*
X125625212Y-102624878D01*
X125666954Y-102674536D01*
X125711960Y-102728077D01*
X125730187Y-102740210D01*
X125796301Y-102784219D01*
X125831661Y-102807757D01*
X125968914Y-102850638D01*
X126112686Y-102853273D01*
X126155507Y-102841599D01*
X126242756Y-102817812D01*
X126242759Y-102817811D01*
X126251418Y-102815450D01*
X126259068Y-102810753D01*
X126259070Y-102810752D01*
X126350516Y-102754604D01*
X126373959Y-102740210D01*
X126387812Y-102724906D01*
X126464434Y-102640254D01*
X126470456Y-102633601D01*
X126511628Y-102548624D01*
X126529241Y-102512271D01*
X126529242Y-102512269D01*
X126533154Y-102504194D01*
X126536150Y-102486386D01*
X126556205Y-102367184D01*
X126556205Y-102367179D01*
X126557011Y-102362391D01*
X126557162Y-102350000D01*
X126539307Y-102225322D01*
X126538050Y-102216543D01*
X126538049Y-102216540D01*
X126536777Y-102207657D01*
X126477260Y-102076756D01*
X126439721Y-102033190D01*
X126389254Y-101974619D01*
X126389252Y-101974617D01*
X126383396Y-101967821D01*
X126262730Y-101889610D01*
X126124963Y-101848409D01*
X126115987Y-101848354D01*
X126115986Y-101848354D01*
X126056021Y-101847988D01*
X125981170Y-101847530D01*
X125842910Y-101887045D01*
X125721298Y-101963777D01*
X125715355Y-101970506D01*
X125656565Y-102037073D01*
X125626110Y-102071556D01*
X125622296Y-102079679D01*
X125622295Y-102079681D01*
X125595363Y-102137045D01*
X125564999Y-102201720D01*
X125563618Y-102210589D01*
X125544258Y-102334930D01*
X125542876Y-102343804D01*
X122935011Y-102343804D01*
X122927260Y-102326756D01*
X122845709Y-102232111D01*
X122839254Y-102224619D01*
X122839252Y-102224617D01*
X122833396Y-102217821D01*
X122712730Y-102139610D01*
X122574963Y-102098409D01*
X122565987Y-102098354D01*
X122565986Y-102098354D01*
X122506021Y-102097988D01*
X122431170Y-102097530D01*
X122292910Y-102137045D01*
X122272378Y-102150000D01*
X122180998Y-102207657D01*
X122171298Y-102213777D01*
X122165355Y-102220506D01*
X122161102Y-102225322D01*
X122076110Y-102321556D01*
X122072296Y-102329679D01*
X122072295Y-102329681D01*
X122041876Y-102394473D01*
X122014999Y-102451720D01*
X122013618Y-102460589D01*
X121994511Y-102583305D01*
X121992876Y-102593804D01*
X110200500Y-102593804D01*
X110200500Y-101342631D01*
X113519443Y-101342631D01*
X113521077Y-101360589D01*
X113534450Y-101507532D01*
X113538114Y-101547797D01*
X113596280Y-101745428D01*
X113599137Y-101750893D01*
X113638032Y-101825291D01*
X113691726Y-101927998D01*
X113695586Y-101932799D01*
X113695588Y-101932802D01*
X113752248Y-102003273D01*
X113820815Y-102088553D01*
X113978630Y-102220976D01*
X113984028Y-102223944D01*
X113984033Y-102223947D01*
X114148552Y-102314391D01*
X114159162Y-102320224D01*
X114355532Y-102382516D01*
X114361649Y-102383202D01*
X114361653Y-102383203D01*
X114437874Y-102391752D01*
X114515864Y-102400500D01*
X114876841Y-102400500D01*
X115030030Y-102385480D01*
X115227251Y-102325935D01*
X115409151Y-102229218D01*
X115522166Y-102137045D01*
X115564025Y-102102906D01*
X115564028Y-102102903D01*
X115568800Y-102099011D01*
X115580449Y-102084930D01*
X115696189Y-101945025D01*
X115696191Y-101945021D01*
X115700118Y-101940275D01*
X115798103Y-101759055D01*
X115859023Y-101562254D01*
X115859922Y-101553705D01*
X115866218Y-101493804D01*
X123942876Y-101493804D01*
X123944040Y-101502706D01*
X123944040Y-101502709D01*
X123960142Y-101625842D01*
X123961521Y-101636386D01*
X123998313Y-101720002D01*
X124012815Y-101752960D01*
X124019434Y-101768004D01*
X124025211Y-101774877D01*
X124025212Y-101774878D01*
X124086329Y-101847585D01*
X124111960Y-101878077D01*
X124231661Y-101957757D01*
X124368914Y-102000638D01*
X124512686Y-102003273D01*
X124555507Y-101991599D01*
X124642756Y-101967812D01*
X124642759Y-101967811D01*
X124651418Y-101965450D01*
X124659068Y-101960753D01*
X124659070Y-101960752D01*
X124720003Y-101923339D01*
X124773959Y-101890210D01*
X124815848Y-101843932D01*
X124864434Y-101790254D01*
X124870456Y-101783601D01*
X124911572Y-101698739D01*
X124929241Y-101662271D01*
X124929242Y-101662269D01*
X124933154Y-101654194D01*
X124949653Y-101556128D01*
X124956205Y-101517184D01*
X124956205Y-101517179D01*
X124957011Y-101512391D01*
X124957162Y-101500000D01*
X124936777Y-101357657D01*
X124927159Y-101336502D01*
X124880976Y-101234930D01*
X124877260Y-101226756D01*
X124818311Y-101158342D01*
X124789254Y-101124619D01*
X124789252Y-101124617D01*
X124783396Y-101117821D01*
X124662730Y-101039610D01*
X124524963Y-100998409D01*
X124515987Y-100998354D01*
X124515986Y-100998354D01*
X124456021Y-100997988D01*
X124381170Y-100997530D01*
X124242910Y-101037045D01*
X124121298Y-101113777D01*
X124115355Y-101120506D01*
X124111723Y-101124619D01*
X124026110Y-101221556D01*
X124022296Y-101229679D01*
X124022295Y-101229681D01*
X123984000Y-101311249D01*
X123964999Y-101351720D01*
X123942876Y-101493804D01*
X115866218Y-101493804D01*
X115879913Y-101363498D01*
X115879913Y-101363496D01*
X115880557Y-101357369D01*
X115868671Y-101226756D01*
X115862445Y-101158342D01*
X115862444Y-101158339D01*
X115861886Y-101152203D01*
X115803720Y-100954572D01*
X115708274Y-100772002D01*
X115698404Y-100759725D01*
X115583050Y-100616254D01*
X115583050Y-100616253D01*
X115579185Y-100611447D01*
X115421370Y-100479024D01*
X115415972Y-100476056D01*
X115415967Y-100476053D01*
X115246235Y-100382743D01*
X115240838Y-100379776D01*
X115044468Y-100317484D01*
X115038351Y-100316798D01*
X115038347Y-100316797D01*
X114962126Y-100308248D01*
X114884136Y-100299500D01*
X114523159Y-100299500D01*
X114369970Y-100314520D01*
X114172749Y-100374065D01*
X113990849Y-100470782D01*
X113900902Y-100544141D01*
X113835975Y-100597094D01*
X113835972Y-100597097D01*
X113831200Y-100600989D01*
X113827273Y-100605736D01*
X113827271Y-100605738D01*
X113703811Y-100754975D01*
X113703809Y-100754979D01*
X113699882Y-100759725D01*
X113601897Y-100940945D01*
X113540977Y-101137746D01*
X113540333Y-101143871D01*
X113540333Y-101143872D01*
X113525376Y-101286186D01*
X113519443Y-101342631D01*
X110200500Y-101342631D01*
X110200500Y-93037371D01*
X110203755Y-93008918D01*
X110204043Y-93007676D01*
X110204044Y-93007669D01*
X110205655Y-93000718D01*
X110205656Y-93000000D01*
X110204075Y-92993068D01*
X110203283Y-92985992D01*
X110204180Y-92985892D01*
X110202264Y-92964093D01*
X110203377Y-92941454D01*
X110203596Y-92937002D01*
X111995380Y-92937002D01*
X111995555Y-92941454D01*
X112005266Y-93188614D01*
X112006502Y-93220084D01*
X112057400Y-93498775D01*
X112147058Y-93767514D01*
X112273687Y-94020939D01*
X112434761Y-94253993D01*
X112437783Y-94257262D01*
X112592486Y-94424619D01*
X112627065Y-94462027D01*
X112630519Y-94464839D01*
X112843307Y-94638075D01*
X112843311Y-94638078D01*
X112846764Y-94640889D01*
X113089472Y-94787012D01*
X113093567Y-94788746D01*
X113093569Y-94788747D01*
X113346247Y-94895742D01*
X113346254Y-94895744D01*
X113350348Y-94897478D01*
X113450492Y-94924031D01*
X113619889Y-94968946D01*
X113619893Y-94968947D01*
X113624186Y-94970085D01*
X113628595Y-94970607D01*
X113628601Y-94970608D01*
X113785953Y-94989232D01*
X113905523Y-95003384D01*
X114188745Y-94996709D01*
X114193143Y-94995977D01*
X114463810Y-94950926D01*
X114463814Y-94950925D01*
X114468200Y-94950195D01*
X114472441Y-94948854D01*
X114472444Y-94948853D01*
X114734068Y-94866112D01*
X114734070Y-94866111D01*
X114738314Y-94864769D01*
X114742325Y-94862843D01*
X114742330Y-94862841D01*
X114989678Y-94744066D01*
X114989679Y-94744065D01*
X114993697Y-94742136D01*
X115026823Y-94720002D01*
X115056758Y-94700000D01*
X124300000Y-94700000D01*
X129774000Y-94700000D01*
X129842121Y-94720002D01*
X129888614Y-94773658D01*
X129900000Y-94826000D01*
X129900000Y-99800000D01*
X135674000Y-99800000D01*
X135742121Y-99820002D01*
X135788614Y-99873658D01*
X135800000Y-99926000D01*
X135800000Y-100751415D01*
X135790409Y-100799633D01*
X135759369Y-100874570D01*
X135738731Y-101031332D01*
X135759369Y-101188094D01*
X135762529Y-101195723D01*
X135790409Y-101263031D01*
X135800000Y-101311249D01*
X135800000Y-101700000D01*
X136597847Y-101700000D01*
X136665968Y-101720002D01*
X136712461Y-101773658D01*
X136722565Y-101843932D01*
X136714256Y-101874216D01*
X136664956Y-101993238D01*
X136663878Y-102001426D01*
X136655531Y-102064829D01*
X136644318Y-102150000D01*
X136664956Y-102306762D01*
X136725464Y-102452841D01*
X136821718Y-102578282D01*
X136828264Y-102583305D01*
X136850673Y-102600500D01*
X136947159Y-102674536D01*
X137093238Y-102735044D01*
X137101426Y-102736122D01*
X137132478Y-102740210D01*
X137250000Y-102755682D01*
X137258188Y-102754604D01*
X137261303Y-102754194D01*
X137367522Y-102740210D01*
X137398574Y-102736122D01*
X137406762Y-102735044D01*
X137552841Y-102674536D01*
X137615395Y-102626537D01*
X137681616Y-102600937D01*
X137692099Y-102600500D01*
X141011207Y-102600500D01*
X141079328Y-102620502D01*
X141100302Y-102637405D01*
X141362595Y-102899698D01*
X141396621Y-102962010D01*
X141399500Y-102988793D01*
X141399500Y-104065780D01*
X141398627Y-104080589D01*
X141394636Y-104114310D01*
X141396328Y-104123574D01*
X141396328Y-104123575D01*
X141405172Y-104172001D01*
X141405822Y-104175904D01*
X141414551Y-104233962D01*
X141417679Y-104240475D01*
X141418975Y-104247573D01*
X141446025Y-104299647D01*
X141447768Y-104303137D01*
X141473191Y-104356079D01*
X141478077Y-104361365D01*
X141478110Y-104361413D01*
X141481421Y-104367788D01*
X141485725Y-104372828D01*
X141522952Y-104410055D01*
X141526381Y-104413620D01*
X141558797Y-104448688D01*
X141558798Y-104448689D01*
X141565146Y-104455556D01*
X141564204Y-104456427D01*
X141599437Y-104506860D01*
X141604923Y-104530549D01*
X141614956Y-104606762D01*
X141618115Y-104614389D01*
X141618116Y-104614392D01*
X141628019Y-104638299D01*
X141635608Y-104708889D01*
X141603829Y-104772376D01*
X141542770Y-104808603D01*
X141508458Y-104812478D01*
X139026244Y-104750359D01*
X139026243Y-104750359D01*
X139008136Y-104749906D01*
X139008137Y-107326756D01*
X139008137Y-109823906D01*
X138988135Y-109892027D01*
X138934479Y-109938520D01*
X138882137Y-109949906D01*
X137533931Y-109949906D01*
X137465810Y-109929904D01*
X137419317Y-109876248D01*
X137407931Y-109824111D01*
X137407878Y-109791627D01*
X137399999Y-104949906D01*
X137391949Y-104949906D01*
X137333200Y-104917888D01*
X137299124Y-104855604D01*
X137297496Y-104846584D01*
X137290134Y-104795183D01*
X137286838Y-104772165D01*
X137280723Y-104758715D01*
X137237144Y-104662868D01*
X137237142Y-104662865D01*
X137233427Y-104654694D01*
X137185071Y-104598574D01*
X137155050Y-104563732D01*
X137155048Y-104563730D01*
X137149192Y-104556934D01*
X137040905Y-104486747D01*
X137032310Y-104484177D01*
X137032309Y-104484176D01*
X136925873Y-104452344D01*
X136925871Y-104452344D01*
X136917272Y-104449772D01*
X136908297Y-104449717D01*
X136908296Y-104449717D01*
X136853640Y-104449383D01*
X136788230Y-104448984D01*
X136738003Y-104463339D01*
X136672785Y-104481978D01*
X136672783Y-104481979D01*
X136664154Y-104484445D01*
X136656564Y-104489234D01*
X136563301Y-104548079D01*
X136555018Y-104553305D01*
X136549075Y-104560034D01*
X136549074Y-104560035D01*
X136515038Y-104598574D01*
X136469595Y-104650028D01*
X136465781Y-104658151D01*
X136465780Y-104658153D01*
X136446334Y-104699572D01*
X136414753Y-104766838D01*
X136413373Y-104775702D01*
X136413372Y-104775705D01*
X136402849Y-104843291D01*
X136372605Y-104907523D01*
X136312435Y-104945208D01*
X136278349Y-104949906D01*
X131599999Y-104949906D01*
X131599999Y-105819128D01*
X131579997Y-105887249D01*
X131526341Y-105933742D01*
X131508623Y-105940277D01*
X131432694Y-105961977D01*
X131432690Y-105961979D01*
X131424061Y-105964445D01*
X131314925Y-106033305D01*
X131308982Y-106040034D01*
X131308981Y-106040035D01*
X131241257Y-106116718D01*
X131229502Y-106130028D01*
X131225688Y-106138151D01*
X131225687Y-106138153D01*
X131221746Y-106146547D01*
X131174660Y-106246838D01*
X131173280Y-106255704D01*
X131156188Y-106365473D01*
X131156188Y-106365477D01*
X131154807Y-106374346D01*
X131155971Y-106383248D01*
X131155971Y-106383251D01*
X131170374Y-106493395D01*
X131170375Y-106493399D01*
X131171539Y-106502300D01*
X131188844Y-106541628D01*
X131218810Y-106609731D01*
X131223511Y-106620416D01*
X131229288Y-106627289D01*
X131229289Y-106627290D01*
X131291082Y-106700802D01*
X131306545Y-106719197D01*
X131413966Y-106790702D01*
X131422533Y-106793379D01*
X131422534Y-106793379D01*
X131511574Y-106821197D01*
X131570630Y-106860603D01*
X131599007Y-106925682D01*
X131599999Y-106941464D01*
X131600000Y-109987331D01*
X131600000Y-113050000D01*
X132550000Y-113050000D01*
X133300000Y-113049906D01*
X134873999Y-113049906D01*
X134942120Y-113069908D01*
X134988613Y-113123564D01*
X134999999Y-113175906D01*
X134999999Y-113723906D01*
X134979997Y-113792027D01*
X134926341Y-113838520D01*
X134873999Y-113849906D01*
X131599999Y-113849906D01*
X131599999Y-114626899D01*
X131579997Y-114695020D01*
X131526341Y-114741513D01*
X131517001Y-114744958D01*
X131512692Y-114746886D01*
X131504062Y-114749352D01*
X131496472Y-114754141D01*
X131404152Y-114812391D01*
X131394926Y-114818212D01*
X131309503Y-114914935D01*
X131254661Y-115031745D01*
X131247945Y-115074878D01*
X131236189Y-115150380D01*
X131236189Y-115150384D01*
X131234808Y-115159253D01*
X131235972Y-115168155D01*
X131235972Y-115168158D01*
X131250375Y-115278302D01*
X131250376Y-115278306D01*
X131251540Y-115287207D01*
X131262534Y-115312192D01*
X131294326Y-115384445D01*
X131303512Y-115405323D01*
X131386546Y-115504104D01*
X131493967Y-115575609D01*
X131502537Y-115578286D01*
X131502538Y-115578287D01*
X131511576Y-115581111D01*
X131570632Y-115620518D01*
X131599007Y-115685598D01*
X131599999Y-115701377D01*
X131599999Y-117249906D01*
X132273999Y-117249906D01*
X132342120Y-117269908D01*
X132388613Y-117323564D01*
X132399999Y-117375906D01*
X132399999Y-120149906D01*
X132413547Y-120149906D01*
X132424144Y-120152211D01*
X132486456Y-120186235D01*
X132520482Y-120248547D01*
X132521862Y-120294717D01*
X132507875Y-120384550D01*
X132504807Y-120404253D01*
X132505971Y-120413155D01*
X132505971Y-120413158D01*
X132520374Y-120523302D01*
X132520375Y-120523306D01*
X132521539Y-120532207D01*
X132573511Y-120650323D01*
X132579288Y-120657196D01*
X132579289Y-120657197D01*
X132650415Y-120741812D01*
X132656545Y-120749104D01*
X132763966Y-120820609D01*
X132887139Y-120859091D01*
X132896109Y-120859255D01*
X132896113Y-120859256D01*
X132954848Y-120860332D01*
X133016161Y-120861456D01*
X133078411Y-120844485D01*
X133131998Y-120829875D01*
X133131999Y-120829875D01*
X133140661Y-120827513D01*
X133148311Y-120822816D01*
X133148313Y-120822815D01*
X133242978Y-120764691D01*
X133242981Y-120764688D01*
X133250630Y-120759992D01*
X133256656Y-120753335D01*
X133331206Y-120670974D01*
X133331209Y-120670970D01*
X133337228Y-120664320D01*
X133393494Y-120548188D01*
X133399008Y-120515416D01*
X133414096Y-120425730D01*
X133414903Y-120420933D01*
X133415039Y-120409813D01*
X133398420Y-120293768D01*
X133408562Y-120223500D01*
X133455085Y-120169870D01*
X133523147Y-120149906D01*
X136248051Y-120149906D01*
X136316172Y-120169908D01*
X136362665Y-120223564D01*
X136372769Y-120293838D01*
X136348014Y-120352609D01*
X136275464Y-120447159D01*
X136214956Y-120593238D01*
X136194318Y-120750000D01*
X136214956Y-120906762D01*
X136275464Y-121052841D01*
X136280491Y-121059392D01*
X136323463Y-121115395D01*
X136349063Y-121181616D01*
X136349500Y-121192099D01*
X136349500Y-122557901D01*
X136329498Y-122626022D01*
X136323463Y-122634605D01*
X136318641Y-122640889D01*
X136275464Y-122697159D01*
X136214956Y-122843238D01*
X136194318Y-123000000D01*
X136214956Y-123156762D01*
X136275464Y-123302841D01*
X136371718Y-123428282D01*
X136497159Y-123524536D01*
X136643238Y-123585044D01*
X136800000Y-123605682D01*
X136808188Y-123604604D01*
X136948574Y-123586122D01*
X136956762Y-123585044D01*
X137102841Y-123524536D01*
X137228282Y-123428282D01*
X137324536Y-123302841D01*
X137385044Y-123156762D01*
X137405682Y-123000000D01*
X137385044Y-122843238D01*
X137324536Y-122697159D01*
X137281359Y-122640889D01*
X137276537Y-122634605D01*
X137250937Y-122568384D01*
X137250500Y-122557901D01*
X137250500Y-121192099D01*
X137270502Y-121123978D01*
X137276537Y-121115395D01*
X137319509Y-121059392D01*
X137324536Y-121052841D01*
X137385044Y-120906762D01*
X137405682Y-120750000D01*
X137385044Y-120593238D01*
X137324536Y-120447159D01*
X137251986Y-120352609D01*
X137226386Y-120286390D01*
X137240651Y-120216841D01*
X137290252Y-120166045D01*
X137351949Y-120149906D01*
X139208136Y-120149906D01*
X139208101Y-120121777D01*
X139204713Y-117457657D01*
X139200159Y-113876065D01*
X139220075Y-113807920D01*
X139273671Y-113761359D01*
X139326159Y-113749906D01*
X140874159Y-113749906D01*
X140942280Y-113769908D01*
X140988773Y-113823564D01*
X141000159Y-113875746D01*
X141008136Y-120149906D01*
X141170083Y-120149906D01*
X141238204Y-120169908D01*
X141284697Y-120223564D01*
X141294379Y-120269414D01*
X141294900Y-120269346D01*
X141296064Y-120278248D01*
X141296064Y-120278249D01*
X141310467Y-120388395D01*
X141310468Y-120388399D01*
X141311632Y-120397300D01*
X141363604Y-120515416D01*
X141369381Y-120522289D01*
X141369382Y-120522290D01*
X141434704Y-120600000D01*
X141446638Y-120614197D01*
X141554059Y-120685702D01*
X141677232Y-120724184D01*
X141686202Y-120724348D01*
X141686206Y-120724349D01*
X141744941Y-120725425D01*
X141806254Y-120726549D01*
X141868504Y-120709578D01*
X141922091Y-120694968D01*
X141922092Y-120694968D01*
X141930754Y-120692606D01*
X141938404Y-120687909D01*
X141938406Y-120687908D01*
X142033071Y-120629784D01*
X142033074Y-120629781D01*
X142040723Y-120625085D01*
X142046749Y-120618428D01*
X142121299Y-120536067D01*
X142121302Y-120536063D01*
X142127321Y-120529413D01*
X142183587Y-120413281D01*
X142185481Y-120402027D01*
X142204189Y-120290823D01*
X142204996Y-120286026D01*
X142205132Y-120274906D01*
X142207397Y-120274934D01*
X142220913Y-120214771D01*
X142271455Y-120164911D01*
X142331088Y-120149906D01*
X146999999Y-120149906D01*
X146999999Y-119511571D01*
X152994994Y-119511571D01*
X152995510Y-119517715D01*
X153006929Y-119653695D01*
X153010592Y-119697320D01*
X153012291Y-119703245D01*
X153059873Y-119869184D01*
X153061971Y-119876501D01*
X153064790Y-119881986D01*
X153136480Y-120021478D01*
X153147176Y-120042291D01*
X153262959Y-120188374D01*
X153404912Y-120309185D01*
X153567627Y-120400123D01*
X153744907Y-120457725D01*
X153929998Y-120479796D01*
X153936133Y-120479324D01*
X153936135Y-120479324D01*
X154109710Y-120465968D01*
X154109715Y-120465967D01*
X154115851Y-120465495D01*
X154121781Y-120463839D01*
X154121783Y-120463839D01*
X154289459Y-120417023D01*
X154289458Y-120417023D01*
X154295387Y-120415368D01*
X154461768Y-120331323D01*
X154486255Y-120312192D01*
X154603794Y-120220360D01*
X154603795Y-120220359D01*
X154608655Y-120216562D01*
X154730454Y-120075456D01*
X154822526Y-119913380D01*
X154838638Y-119864947D01*
X154879118Y-119806624D01*
X154944706Y-119779444D01*
X155014577Y-119792038D01*
X155054646Y-119823645D01*
X155092926Y-119869184D01*
X155126639Y-119909291D01*
X155234060Y-119980796D01*
X155357233Y-120019278D01*
X155366203Y-120019442D01*
X155366207Y-120019443D01*
X155424942Y-120020519D01*
X155486255Y-120021643D01*
X155548505Y-120004672D01*
X155602092Y-119990062D01*
X155602093Y-119990062D01*
X155610755Y-119987700D01*
X155618405Y-119983003D01*
X155618407Y-119983002D01*
X155713072Y-119924878D01*
X155713075Y-119924875D01*
X155720724Y-119920179D01*
X155726750Y-119913522D01*
X155801300Y-119831161D01*
X155801303Y-119831157D01*
X155807322Y-119824507D01*
X155863588Y-119708375D01*
X155865425Y-119697460D01*
X155884190Y-119585917D01*
X155884997Y-119581120D01*
X155885133Y-119570000D01*
X155868614Y-119454651D01*
X155868112Y-119451145D01*
X155868111Y-119451142D01*
X155866839Y-119442259D01*
X155829780Y-119360752D01*
X155817145Y-119332962D01*
X155817143Y-119332959D01*
X155813428Y-119324788D01*
X155777468Y-119283054D01*
X155735051Y-119233826D01*
X155735049Y-119233824D01*
X155729193Y-119227028D01*
X155620906Y-119156841D01*
X155612311Y-119154271D01*
X155612310Y-119154270D01*
X155505874Y-119122438D01*
X155505872Y-119122438D01*
X155497273Y-119119866D01*
X155488298Y-119119811D01*
X155488297Y-119119811D01*
X155433641Y-119119477D01*
X155368231Y-119119078D01*
X155356475Y-119122438D01*
X155252786Y-119152072D01*
X155252784Y-119152073D01*
X155244155Y-119154539D01*
X155236565Y-119159328D01*
X155195450Y-119185270D01*
X155135019Y-119223399D01*
X155129076Y-119230128D01*
X155129075Y-119230129D01*
X155121015Y-119239255D01*
X155076014Y-119290210D01*
X155073720Y-119292807D01*
X155013635Y-119330625D01*
X154942641Y-119329955D01*
X154883280Y-119291009D01*
X154858657Y-119245817D01*
X154834814Y-119166845D01*
X154833033Y-119160946D01*
X154781807Y-119064604D01*
X154748416Y-119001804D01*
X154748414Y-119001801D01*
X154745522Y-118996362D01*
X154741632Y-118991592D01*
X154741629Y-118991588D01*
X154631605Y-118856686D01*
X154631602Y-118856683D01*
X154627710Y-118851911D01*
X154622056Y-118847233D01*
X154524519Y-118766543D01*
X154484085Y-118733093D01*
X154320116Y-118644435D01*
X154224473Y-118614829D01*
X154147936Y-118591137D01*
X154147933Y-118591136D01*
X154142049Y-118589315D01*
X154135924Y-118588671D01*
X154135923Y-118588671D01*
X153962796Y-118570474D01*
X153962795Y-118570474D01*
X153956668Y-118569830D01*
X153878549Y-118576939D01*
X153777171Y-118586165D01*
X153777168Y-118586166D01*
X153771032Y-118586724D01*
X153765122Y-118588463D01*
X153765119Y-118588464D01*
X153625079Y-118629681D01*
X153592214Y-118639354D01*
X153427023Y-118725713D01*
X153422223Y-118729573D01*
X153422222Y-118729573D01*
X153397453Y-118749488D01*
X153281752Y-118842514D01*
X153161935Y-118985307D01*
X153158971Y-118990699D01*
X153158968Y-118990703D01*
X153088363Y-119119133D01*
X153072135Y-119148652D01*
X153070274Y-119154519D01*
X153070273Y-119154521D01*
X153018419Y-119317985D01*
X153015772Y-119326330D01*
X152994994Y-119511571D01*
X146999999Y-119511571D01*
X146999999Y-119360399D01*
X147020001Y-119292278D01*
X147073657Y-119245785D01*
X147146146Y-119236020D01*
X147148567Y-119236412D01*
X147157138Y-119239090D01*
X147166111Y-119239254D01*
X147166114Y-119239255D01*
X147222758Y-119240293D01*
X147286160Y-119241455D01*
X147352388Y-119223399D01*
X147401997Y-119209874D01*
X147401998Y-119209874D01*
X147410660Y-119207512D01*
X147418310Y-119202815D01*
X147418312Y-119202814D01*
X147512977Y-119144690D01*
X147512980Y-119144687D01*
X147520629Y-119139991D01*
X147526655Y-119133334D01*
X147601205Y-119050973D01*
X147601208Y-119050969D01*
X147607227Y-119044319D01*
X147663493Y-118928187D01*
X147666151Y-118912391D01*
X147684095Y-118805729D01*
X147684902Y-118800932D01*
X147685038Y-118789812D01*
X147666744Y-118662071D01*
X147662644Y-118653054D01*
X147617050Y-118552774D01*
X147617048Y-118552771D01*
X147613333Y-118544600D01*
X147529098Y-118446840D01*
X147420811Y-118376653D01*
X147412216Y-118374083D01*
X147412215Y-118374082D01*
X147305779Y-118342250D01*
X147305777Y-118342250D01*
X147297178Y-118339678D01*
X147288203Y-118339623D01*
X147288202Y-118339623D01*
X147233546Y-118339289D01*
X147168136Y-118338890D01*
X147159504Y-118341357D01*
X147150613Y-118342575D01*
X147150392Y-118340963D01*
X147089630Y-118340525D01*
X147030182Y-118301712D01*
X147013199Y-118263804D01*
X149822876Y-118263804D01*
X149824040Y-118272706D01*
X149824040Y-118272709D01*
X149837332Y-118374351D01*
X149841521Y-118406386D01*
X149899434Y-118538004D01*
X149905211Y-118544877D01*
X149905212Y-118544878D01*
X149986180Y-118641201D01*
X149991960Y-118648077D01*
X150111661Y-118727757D01*
X150248914Y-118770638D01*
X150392686Y-118773273D01*
X150439210Y-118760589D01*
X150522756Y-118737812D01*
X150522759Y-118737811D01*
X150531418Y-118735450D01*
X150539068Y-118730753D01*
X150539070Y-118730752D01*
X150592689Y-118697830D01*
X150653959Y-118660210D01*
X150750456Y-118553601D01*
X150781805Y-118488897D01*
X150809241Y-118432271D01*
X150809242Y-118432269D01*
X150813154Y-118424194D01*
X150826886Y-118342575D01*
X150836205Y-118287184D01*
X150836205Y-118287179D01*
X150837011Y-118282391D01*
X150837162Y-118270000D01*
X150816777Y-118127657D01*
X150757260Y-117996756D01*
X150673996Y-117900123D01*
X150669254Y-117894619D01*
X150669252Y-117894617D01*
X150663396Y-117887821D01*
X150542730Y-117809610D01*
X150404963Y-117768409D01*
X150395987Y-117768354D01*
X150395986Y-117768354D01*
X150336021Y-117767988D01*
X150261170Y-117767530D01*
X150122910Y-117807045D01*
X150090448Y-117827527D01*
X150026297Y-117868004D01*
X150001298Y-117883777D01*
X149995355Y-117890506D01*
X149973398Y-117915368D01*
X149906110Y-117991556D01*
X149844999Y-118121720D01*
X149822876Y-118263804D01*
X147013199Y-118263804D01*
X147001155Y-118236920D01*
X146999999Y-118219888D01*
X146999999Y-117011571D01*
X152994994Y-117011571D01*
X152995510Y-117017715D01*
X153009999Y-117190254D01*
X153010592Y-117197320D01*
X153012291Y-117203245D01*
X153057364Y-117360434D01*
X153061971Y-117376501D01*
X153080924Y-117413380D01*
X153130470Y-117509784D01*
X153147176Y-117542291D01*
X153262959Y-117688374D01*
X153404912Y-117809185D01*
X153410290Y-117812191D01*
X153410292Y-117812192D01*
X153437731Y-117827527D01*
X153567627Y-117900123D01*
X153744907Y-117957725D01*
X153929998Y-117979796D01*
X153936133Y-117979324D01*
X153936135Y-117979324D01*
X154109710Y-117965968D01*
X154109715Y-117965967D01*
X154115851Y-117965495D01*
X154121781Y-117963839D01*
X154121783Y-117963839D01*
X154289459Y-117917023D01*
X154289458Y-117917023D01*
X154295387Y-117915368D01*
X154461768Y-117831323D01*
X154486255Y-117812192D01*
X154603794Y-117720360D01*
X154603795Y-117720359D01*
X154608655Y-117716562D01*
X154713424Y-117595185D01*
X154726430Y-117580118D01*
X154726431Y-117580117D01*
X154730454Y-117575456D01*
X154822526Y-117413380D01*
X154881364Y-117236507D01*
X154898610Y-117099997D01*
X154904285Y-117055076D01*
X154904286Y-117055069D01*
X154904727Y-117051574D01*
X154905099Y-117024906D01*
X154886909Y-116839393D01*
X154885128Y-116833494D01*
X154885127Y-116833489D01*
X154834814Y-116666845D01*
X154833033Y-116660946D01*
X154778166Y-116557757D01*
X154748416Y-116501804D01*
X154748414Y-116501801D01*
X154745522Y-116496362D01*
X154741632Y-116491592D01*
X154741629Y-116491588D01*
X154631605Y-116356686D01*
X154631602Y-116356683D01*
X154627710Y-116351911D01*
X154622056Y-116347233D01*
X154498894Y-116245344D01*
X154484085Y-116233093D01*
X154320116Y-116144435D01*
X154215479Y-116112045D01*
X154147936Y-116091137D01*
X154147933Y-116091136D01*
X154142049Y-116089315D01*
X154135924Y-116088671D01*
X154135923Y-116088671D01*
X153962796Y-116070474D01*
X153962795Y-116070474D01*
X153956668Y-116069830D01*
X153899892Y-116074997D01*
X153777171Y-116086165D01*
X153777168Y-116086166D01*
X153771032Y-116086724D01*
X153765122Y-116088463D01*
X153765119Y-116088464D01*
X153598129Y-116137613D01*
X153592214Y-116139354D01*
X153427023Y-116225713D01*
X153281752Y-116342514D01*
X153161935Y-116485307D01*
X153158971Y-116490699D01*
X153158968Y-116490703D01*
X153098531Y-116600638D01*
X153072135Y-116648652D01*
X153070274Y-116654519D01*
X153070273Y-116654521D01*
X153017634Y-116820460D01*
X153015772Y-116826330D01*
X152994994Y-117011571D01*
X146999999Y-117011571D01*
X146999999Y-114511571D01*
X152994994Y-114511571D01*
X152996114Y-114524906D01*
X153008008Y-114666543D01*
X153010592Y-114697320D01*
X153012291Y-114703245D01*
X153057078Y-114859436D01*
X153061971Y-114876501D01*
X153147176Y-115042291D01*
X153262959Y-115188374D01*
X153404912Y-115309185D01*
X153567627Y-115400123D01*
X153744907Y-115457725D01*
X153929998Y-115479796D01*
X153936133Y-115479324D01*
X153936135Y-115479324D01*
X154109710Y-115465968D01*
X154109715Y-115465967D01*
X154115851Y-115465495D01*
X154121781Y-115463839D01*
X154121783Y-115463839D01*
X154289459Y-115417023D01*
X154289458Y-115417023D01*
X154295387Y-115415368D01*
X154461768Y-115331323D01*
X154486255Y-115312192D01*
X154603794Y-115220360D01*
X154603795Y-115220359D01*
X154608655Y-115216562D01*
X154717681Y-115090254D01*
X154726430Y-115080118D01*
X154726431Y-115080117D01*
X154730454Y-115075456D01*
X154734688Y-115068004D01*
X154804790Y-114944601D01*
X154822526Y-114913380D01*
X154881364Y-114736507D01*
X154904727Y-114551574D01*
X154905099Y-114524906D01*
X154886909Y-114339393D01*
X154885128Y-114333494D01*
X154885127Y-114333489D01*
X154834814Y-114166845D01*
X154833033Y-114160946D01*
X154745522Y-113996362D01*
X154741632Y-113991592D01*
X154741629Y-113991588D01*
X154631605Y-113856686D01*
X154631602Y-113856683D01*
X154627710Y-113851911D01*
X154622056Y-113847233D01*
X154488834Y-113737022D01*
X154484085Y-113733093D01*
X154320116Y-113644435D01*
X154231083Y-113616875D01*
X154147936Y-113591137D01*
X154147933Y-113591136D01*
X154142049Y-113589315D01*
X154135924Y-113588671D01*
X154135923Y-113588671D01*
X153962796Y-113570474D01*
X153962795Y-113570474D01*
X153956668Y-113569830D01*
X153878549Y-113576939D01*
X153777171Y-113586165D01*
X153777168Y-113586166D01*
X153771032Y-113586724D01*
X153765122Y-113588463D01*
X153765119Y-113588464D01*
X153598129Y-113637613D01*
X153592214Y-113639354D01*
X153427023Y-113725713D01*
X153281752Y-113842514D01*
X153161935Y-113985307D01*
X153158971Y-113990699D01*
X153158968Y-113990703D01*
X153084256Y-114126605D01*
X153072135Y-114148652D01*
X153070274Y-114154519D01*
X153070273Y-114154521D01*
X153017634Y-114320460D01*
X153015772Y-114326330D01*
X152994994Y-114511571D01*
X146999999Y-114511571D01*
X146999999Y-112049906D01*
X143925999Y-112049906D01*
X143857878Y-112029904D01*
X143811385Y-111976248D01*
X143799999Y-111923906D01*
X143799999Y-111375906D01*
X143820001Y-111307785D01*
X143873657Y-111261292D01*
X143925999Y-111249906D01*
X146999999Y-111249906D01*
X146999999Y-111214440D01*
X156424901Y-111214440D01*
X156426065Y-111223342D01*
X156426065Y-111223345D01*
X156440468Y-111333489D01*
X156440469Y-111333493D01*
X156441633Y-111342394D01*
X156493605Y-111460510D01*
X156576639Y-111559291D01*
X156684060Y-111630796D01*
X156807233Y-111669278D01*
X156816203Y-111669442D01*
X156816207Y-111669443D01*
X156874942Y-111670519D01*
X156936255Y-111671643D01*
X156998505Y-111654671D01*
X157052092Y-111640062D01*
X157052093Y-111640062D01*
X157060755Y-111637700D01*
X157068405Y-111633003D01*
X157068407Y-111633002D01*
X157163072Y-111574878D01*
X157163075Y-111574875D01*
X157170724Y-111570179D01*
X157176750Y-111563522D01*
X157251300Y-111481161D01*
X157251303Y-111481157D01*
X157257322Y-111474507D01*
X157313588Y-111358375D01*
X157319841Y-111321211D01*
X157334190Y-111235917D01*
X157334997Y-111231120D01*
X157335133Y-111220000D01*
X157324580Y-111146312D01*
X157318112Y-111101145D01*
X157318111Y-111101142D01*
X157316839Y-111092259D01*
X157306316Y-111069115D01*
X157267145Y-110982962D01*
X157267143Y-110982959D01*
X157263428Y-110974788D01*
X157237625Y-110944842D01*
X157185051Y-110883826D01*
X157185049Y-110883824D01*
X157179193Y-110877028D01*
X157171666Y-110872149D01*
X157171661Y-110872145D01*
X157109311Y-110831733D01*
X157063026Y-110777897D01*
X157059342Y-110751550D01*
X157006850Y-110775523D01*
X156964952Y-110772423D01*
X156964751Y-110773765D01*
X156955873Y-110772438D01*
X156947273Y-110769866D01*
X156938298Y-110769811D01*
X156938297Y-110769811D01*
X156883641Y-110769477D01*
X156818231Y-110769078D01*
X156787374Y-110777897D01*
X156702786Y-110802072D01*
X156702784Y-110802073D01*
X156694155Y-110804539D01*
X156686565Y-110809328D01*
X156600667Y-110863526D01*
X156585019Y-110873399D01*
X156579076Y-110880128D01*
X156579075Y-110880129D01*
X156521479Y-110945344D01*
X156499596Y-110970122D01*
X156495782Y-110978245D01*
X156495781Y-110978247D01*
X156484204Y-111002906D01*
X156444754Y-111086932D01*
X156435975Y-111143317D01*
X156426282Y-111205567D01*
X156426282Y-111205571D01*
X156424901Y-111214440D01*
X146999999Y-111214440D01*
X146999999Y-110552016D01*
X147020001Y-110483895D01*
X147073657Y-110437402D01*
X147128307Y-110426037D01*
X147147277Y-110426385D01*
X147147281Y-110426385D01*
X147156254Y-110426549D01*
X147218504Y-110409578D01*
X147272091Y-110394968D01*
X147272092Y-110394968D01*
X147280754Y-110392606D01*
X147288404Y-110387909D01*
X147288406Y-110387908D01*
X147383071Y-110329784D01*
X147383074Y-110329781D01*
X147390723Y-110325085D01*
X147396749Y-110318428D01*
X147471299Y-110236067D01*
X147471302Y-110236063D01*
X147477321Y-110229413D01*
X147494311Y-110194346D01*
X155194901Y-110194346D01*
X155196065Y-110203248D01*
X155196065Y-110203251D01*
X155210468Y-110313395D01*
X155210469Y-110313399D01*
X155211633Y-110322300D01*
X155231920Y-110368405D01*
X155243608Y-110394968D01*
X155263605Y-110440416D01*
X155269382Y-110447289D01*
X155269383Y-110447290D01*
X155332853Y-110522797D01*
X155346639Y-110539197D01*
X155354116Y-110544174D01*
X155437983Y-110600000D01*
X155454060Y-110610702D01*
X155503007Y-110625994D01*
X155565211Y-110645428D01*
X155577233Y-110649184D01*
X155586203Y-110649348D01*
X155586207Y-110649349D01*
X155644942Y-110650425D01*
X155706255Y-110651549D01*
X155821967Y-110620002D01*
X155822092Y-110619968D01*
X155822093Y-110619968D01*
X155830755Y-110617606D01*
X155838405Y-110612909D01*
X155838407Y-110612908D01*
X155859430Y-110600000D01*
X157100000Y-110600000D01*
X157105319Y-110600000D01*
X157109814Y-110615308D01*
X157109814Y-110625994D01*
X157142813Y-110604967D01*
X157177842Y-110600000D01*
X158121902Y-110600000D01*
X158190023Y-110620002D01*
X158236516Y-110673658D01*
X158246838Y-110709662D01*
X158259546Y-110806841D01*
X158261521Y-110821946D01*
X158319434Y-110953564D01*
X158325211Y-110960437D01*
X158325212Y-110960438D01*
X158348845Y-110988553D01*
X158411960Y-111063637D01*
X158454958Y-111092259D01*
X158514827Y-111132111D01*
X158531661Y-111143317D01*
X158668914Y-111186198D01*
X158812686Y-111188833D01*
X158855507Y-111177159D01*
X158942756Y-111153372D01*
X158942759Y-111153371D01*
X158951418Y-111151010D01*
X158959068Y-111146313D01*
X158959070Y-111146312D01*
X159026035Y-111105195D01*
X159073959Y-111075770D01*
X159080339Y-111068722D01*
X159164434Y-110975814D01*
X159170456Y-110969161D01*
X159216853Y-110873399D01*
X159229241Y-110847831D01*
X159229242Y-110847829D01*
X159233154Y-110839754D01*
X159255809Y-110705096D01*
X159286836Y-110641237D01*
X159347461Y-110604291D01*
X159380063Y-110600000D01*
X160500000Y-110600000D01*
X160500000Y-109503616D01*
X160520002Y-109435495D01*
X160573658Y-109389002D01*
X160643932Y-109378898D01*
X160663573Y-109383349D01*
X160710343Y-109397961D01*
X160710348Y-109397962D01*
X160718914Y-109400638D01*
X160862686Y-109403273D01*
X160915031Y-109389002D01*
X160992756Y-109367812D01*
X160992759Y-109367811D01*
X161001418Y-109365450D01*
X161009069Y-109360752D01*
X161017305Y-109357188D01*
X161017952Y-109358683D01*
X161076583Y-109342765D01*
X161144279Y-109364160D01*
X161189662Y-109418757D01*
X161200000Y-109468739D01*
X161200000Y-116300000D01*
X165531862Y-116300000D01*
X165595879Y-116319359D01*
X165596089Y-116318919D01*
X165598970Y-116320293D01*
X165601679Y-116321112D01*
X165611661Y-116327757D01*
X165620228Y-116330433D01*
X165620231Y-116330435D01*
X165712759Y-116359342D01*
X165748914Y-116370638D01*
X165892686Y-116373273D01*
X165953526Y-116356686D01*
X166022759Y-116337811D01*
X166022761Y-116337810D01*
X166031418Y-116335450D01*
X166058820Y-116318625D01*
X166124749Y-116300000D01*
X170800000Y-116300000D01*
X170800000Y-114793804D01*
X171692876Y-114793804D01*
X171694040Y-114802706D01*
X171694040Y-114802709D01*
X171708716Y-114914935D01*
X171711521Y-114936386D01*
X171769434Y-115068004D01*
X171775211Y-115074877D01*
X171775212Y-115074878D01*
X171788137Y-115090254D01*
X171861960Y-115178077D01*
X171981661Y-115257757D01*
X172118914Y-115300638D01*
X172262686Y-115303273D01*
X172321615Y-115287207D01*
X172392756Y-115267812D01*
X172392759Y-115267811D01*
X172401418Y-115265450D01*
X172409068Y-115260753D01*
X172409070Y-115260752D01*
X172481040Y-115216562D01*
X172523959Y-115190210D01*
X172543920Y-115168158D01*
X172614434Y-115090254D01*
X172620456Y-115083601D01*
X172683154Y-114954194D01*
X172691005Y-114907527D01*
X172706205Y-114817184D01*
X172706205Y-114817179D01*
X172707011Y-114812391D01*
X172707162Y-114800000D01*
X172706275Y-114793804D01*
X173592876Y-114793804D01*
X173594040Y-114802706D01*
X173594040Y-114802709D01*
X173608716Y-114914935D01*
X173611521Y-114936386D01*
X173669434Y-115068004D01*
X173675211Y-115074877D01*
X173675212Y-115074878D01*
X173688137Y-115090254D01*
X173761960Y-115178077D01*
X173881661Y-115257757D01*
X174018914Y-115300638D01*
X174162686Y-115303273D01*
X174221615Y-115287207D01*
X174292756Y-115267812D01*
X174292759Y-115267811D01*
X174301418Y-115265450D01*
X174309068Y-115260753D01*
X174309070Y-115260752D01*
X174381040Y-115216562D01*
X174423959Y-115190210D01*
X174443920Y-115168158D01*
X174514434Y-115090254D01*
X174520456Y-115083601D01*
X174583154Y-114954194D01*
X174591005Y-114907527D01*
X174606205Y-114817184D01*
X174606205Y-114817179D01*
X174607011Y-114812391D01*
X174607162Y-114800000D01*
X174586777Y-114657657D01*
X174527260Y-114526756D01*
X174433396Y-114417821D01*
X174312730Y-114339610D01*
X174174963Y-114298409D01*
X174165987Y-114298354D01*
X174165986Y-114298354D01*
X174106021Y-114297988D01*
X174031170Y-114297530D01*
X173892910Y-114337045D01*
X173771298Y-114413777D01*
X173765355Y-114420506D01*
X173684929Y-114511571D01*
X173676110Y-114521556D01*
X173672296Y-114529679D01*
X173672295Y-114529681D01*
X173626652Y-114626899D01*
X173614999Y-114651720D01*
X173613618Y-114660589D01*
X173597484Y-114764212D01*
X173592876Y-114793804D01*
X172706275Y-114793804D01*
X172686777Y-114657657D01*
X172627260Y-114526756D01*
X172533396Y-114417821D01*
X172412730Y-114339610D01*
X172274963Y-114298409D01*
X172265987Y-114298354D01*
X172265986Y-114298354D01*
X172206021Y-114297988D01*
X172131170Y-114297530D01*
X171992910Y-114337045D01*
X171871298Y-114413777D01*
X171865355Y-114420506D01*
X171784929Y-114511571D01*
X171776110Y-114521556D01*
X171772296Y-114529679D01*
X171772295Y-114529681D01*
X171726652Y-114626899D01*
X171714999Y-114651720D01*
X171713618Y-114660589D01*
X171697484Y-114764212D01*
X171692876Y-114793804D01*
X170800000Y-114793804D01*
X170800000Y-108893804D01*
X171692876Y-108893804D01*
X171694040Y-108902706D01*
X171694040Y-108902709D01*
X171710357Y-109027487D01*
X171711521Y-109036386D01*
X171769434Y-109168004D01*
X171775211Y-109174877D01*
X171775212Y-109174878D01*
X171808535Y-109214520D01*
X171861960Y-109278077D01*
X171880187Y-109290210D01*
X171950587Y-109337072D01*
X171981661Y-109357757D01*
X172118914Y-109400638D01*
X172262686Y-109403273D01*
X172315031Y-109389002D01*
X172392756Y-109367812D01*
X172392759Y-109367811D01*
X172401418Y-109365450D01*
X172409068Y-109360753D01*
X172409070Y-109360752D01*
X172502478Y-109303399D01*
X172523959Y-109290210D01*
X172533404Y-109279776D01*
X172614434Y-109190254D01*
X172620456Y-109183601D01*
X172663963Y-109093804D01*
X172679241Y-109062271D01*
X172679242Y-109062269D01*
X172683154Y-109054194D01*
X172687647Y-109027487D01*
X172706205Y-108917184D01*
X172706205Y-108917179D01*
X172707011Y-108912391D01*
X172707162Y-108900000D01*
X172706275Y-108893804D01*
X173592876Y-108893804D01*
X173594040Y-108902706D01*
X173594040Y-108902709D01*
X173610357Y-109027487D01*
X173611521Y-109036386D01*
X173669434Y-109168004D01*
X173675211Y-109174877D01*
X173675212Y-109174878D01*
X173708535Y-109214520D01*
X173761960Y-109278077D01*
X173780187Y-109290210D01*
X173850587Y-109337072D01*
X173881661Y-109357757D01*
X174018914Y-109400638D01*
X174162686Y-109403273D01*
X174215031Y-109389002D01*
X174292756Y-109367812D01*
X174292759Y-109367811D01*
X174301418Y-109365450D01*
X174309068Y-109360753D01*
X174309070Y-109360752D01*
X174402478Y-109303399D01*
X174423959Y-109290210D01*
X174433404Y-109279776D01*
X174514434Y-109190254D01*
X174520456Y-109183601D01*
X174563963Y-109093804D01*
X174579241Y-109062271D01*
X174579242Y-109062269D01*
X174583154Y-109054194D01*
X174587647Y-109027487D01*
X174606205Y-108917184D01*
X174606205Y-108917179D01*
X174607011Y-108912391D01*
X174607162Y-108900000D01*
X174595928Y-108821556D01*
X174588050Y-108766543D01*
X174588049Y-108766540D01*
X174586777Y-108757657D01*
X174569886Y-108720506D01*
X174553821Y-108685175D01*
X174527260Y-108626756D01*
X174433396Y-108517821D01*
X174312730Y-108439610D01*
X174174963Y-108398409D01*
X174165987Y-108398354D01*
X174165986Y-108398354D01*
X174106021Y-108397988D01*
X174031170Y-108397530D01*
X173892910Y-108437045D01*
X173771298Y-108513777D01*
X173765355Y-108520506D01*
X173692859Y-108602592D01*
X173676110Y-108621556D01*
X173672296Y-108629679D01*
X173672295Y-108629681D01*
X173647502Y-108682490D01*
X173614999Y-108751720D01*
X173613618Y-108760589D01*
X173603316Y-108826756D01*
X173592876Y-108893804D01*
X172706275Y-108893804D01*
X172695928Y-108821556D01*
X172688050Y-108766543D01*
X172688049Y-108766540D01*
X172686777Y-108757657D01*
X172669886Y-108720506D01*
X172653821Y-108685175D01*
X172627260Y-108626756D01*
X172533396Y-108517821D01*
X172412730Y-108439610D01*
X172274963Y-108398409D01*
X172265987Y-108398354D01*
X172265986Y-108398354D01*
X172206021Y-108397988D01*
X172131170Y-108397530D01*
X171992910Y-108437045D01*
X171871298Y-108513777D01*
X171865355Y-108520506D01*
X171792859Y-108602592D01*
X171776110Y-108621556D01*
X171772296Y-108629679D01*
X171772295Y-108629681D01*
X171747502Y-108682490D01*
X171714999Y-108751720D01*
X171713618Y-108760589D01*
X171703316Y-108826756D01*
X171692876Y-108893804D01*
X170800000Y-108893804D01*
X170800000Y-107400000D01*
X170350824Y-107400000D01*
X170282703Y-107379998D01*
X170280002Y-107377969D01*
X170279192Y-107377029D01*
X170269564Y-107370788D01*
X170241783Y-107352782D01*
X170170905Y-107306842D01*
X170162310Y-107304272D01*
X170162309Y-107304271D01*
X170055873Y-107272439D01*
X170055871Y-107272439D01*
X170047272Y-107269867D01*
X170038297Y-107269812D01*
X170038296Y-107269812D01*
X169983640Y-107269478D01*
X169918230Y-107269079D01*
X169869332Y-107283054D01*
X169802785Y-107302073D01*
X169802783Y-107302074D01*
X169794154Y-107304540D01*
X169786564Y-107309329D01*
X169697618Y-107365450D01*
X169685018Y-107373400D01*
X169684641Y-107372803D01*
X169626192Y-107398872D01*
X169609367Y-107400000D01*
X165039184Y-107400000D01*
X164970652Y-107379733D01*
X164959960Y-107372803D01*
X164865906Y-107311841D01*
X164857311Y-107309271D01*
X164857310Y-107309270D01*
X164750874Y-107277438D01*
X164750872Y-107277438D01*
X164742273Y-107274866D01*
X164733298Y-107274811D01*
X164733297Y-107274811D01*
X164678641Y-107274477D01*
X164613231Y-107274078D01*
X164580072Y-107283555D01*
X164497786Y-107307072D01*
X164497784Y-107307073D01*
X164489155Y-107309539D01*
X164380019Y-107378399D01*
X164378470Y-107375944D01*
X164327077Y-107398870D01*
X164310242Y-107400000D01*
X161200000Y-107400000D01*
X161200000Y-108330522D01*
X161179998Y-108398643D01*
X161126342Y-108445136D01*
X161056068Y-108455240D01*
X161021150Y-108444902D01*
X161020261Y-108444491D01*
X161012730Y-108439610D01*
X161004133Y-108437039D01*
X161004131Y-108437038D01*
X160921089Y-108412204D01*
X160874963Y-108398409D01*
X160865987Y-108398354D01*
X160865986Y-108398354D01*
X160806021Y-108397988D01*
X160731170Y-108397530D01*
X160660625Y-108417692D01*
X160589630Y-108417180D01*
X160530183Y-108378366D01*
X160501156Y-108313574D01*
X160500000Y-108296543D01*
X160500000Y-106893804D01*
X171692876Y-106893804D01*
X171694040Y-106902706D01*
X171694040Y-106902709D01*
X171710357Y-107027487D01*
X171711521Y-107036386D01*
X171749185Y-107121984D01*
X171759089Y-107144492D01*
X171769434Y-107168004D01*
X171775211Y-107174877D01*
X171775212Y-107174878D01*
X171855059Y-107269867D01*
X171861960Y-107278077D01*
X171981661Y-107357757D01*
X172118914Y-107400638D01*
X172262686Y-107403273D01*
X172311367Y-107390001D01*
X172392756Y-107367812D01*
X172392759Y-107367811D01*
X172401418Y-107365450D01*
X172409068Y-107360753D01*
X172409070Y-107360752D01*
X172492820Y-107309329D01*
X172523959Y-107290210D01*
X172537898Y-107274811D01*
X172604034Y-107201744D01*
X172620456Y-107183601D01*
X172670661Y-107079980D01*
X172679241Y-107062271D01*
X172679242Y-107062269D01*
X172683154Y-107054194D01*
X172684768Y-107044601D01*
X172706205Y-106917184D01*
X172706205Y-106917179D01*
X172707011Y-106912391D01*
X172707162Y-106900000D01*
X172706275Y-106893804D01*
X173592876Y-106893804D01*
X173594040Y-106902706D01*
X173594040Y-106902709D01*
X173610357Y-107027487D01*
X173611521Y-107036386D01*
X173649185Y-107121984D01*
X173659089Y-107144492D01*
X173669434Y-107168004D01*
X173675211Y-107174877D01*
X173675212Y-107174878D01*
X173755059Y-107269867D01*
X173761960Y-107278077D01*
X173881661Y-107357757D01*
X174018914Y-107400638D01*
X174162686Y-107403273D01*
X174246513Y-107380419D01*
X174317496Y-107381799D01*
X174376465Y-107421336D01*
X174404697Y-107486477D01*
X174404155Y-107521365D01*
X174392876Y-107593804D01*
X174394040Y-107602706D01*
X174394040Y-107602709D01*
X174395933Y-107617184D01*
X174411521Y-107736386D01*
X174469434Y-107868004D01*
X174475211Y-107874877D01*
X174475212Y-107874878D01*
X174519130Y-107927125D01*
X174561960Y-107978077D01*
X174681661Y-108057757D01*
X174818914Y-108100638D01*
X174962686Y-108103273D01*
X175005507Y-108091599D01*
X175092756Y-108067812D01*
X175092759Y-108067811D01*
X175101418Y-108065450D01*
X175109068Y-108060753D01*
X175109070Y-108060752D01*
X175202115Y-108003622D01*
X175223959Y-107990210D01*
X175320456Y-107883601D01*
X175383154Y-107754194D01*
X175407011Y-107612391D01*
X175407162Y-107600000D01*
X175395901Y-107521368D01*
X175388050Y-107466543D01*
X175388049Y-107466540D01*
X175386777Y-107457657D01*
X175375903Y-107433741D01*
X175365917Y-107363451D01*
X175395517Y-107298919D01*
X175455307Y-107260635D01*
X175526303Y-107260753D01*
X175560724Y-107279933D01*
X175561960Y-107278077D01*
X175601311Y-107304271D01*
X175681661Y-107357757D01*
X175818914Y-107400638D01*
X175962686Y-107403273D01*
X176011367Y-107390001D01*
X176092756Y-107367812D01*
X176092759Y-107367811D01*
X176101418Y-107365450D01*
X176109068Y-107360753D01*
X176109070Y-107360752D01*
X176192820Y-107309329D01*
X176223959Y-107290210D01*
X176237898Y-107274811D01*
X176304034Y-107201744D01*
X176320456Y-107183601D01*
X176370661Y-107079980D01*
X176379241Y-107062271D01*
X176379242Y-107062269D01*
X176383154Y-107054194D01*
X176384768Y-107044601D01*
X176406205Y-106917184D01*
X176406205Y-106917179D01*
X176407011Y-106912391D01*
X176407162Y-106900000D01*
X176401116Y-106857784D01*
X176388050Y-106766543D01*
X176388049Y-106766540D01*
X176386777Y-106757657D01*
X176327260Y-106626756D01*
X176267240Y-106557099D01*
X176239254Y-106524619D01*
X176239252Y-106524617D01*
X176233396Y-106517821D01*
X176112730Y-106439610D01*
X175974963Y-106398409D01*
X175965987Y-106398354D01*
X175965986Y-106398354D01*
X175906021Y-106397988D01*
X175831170Y-106397530D01*
X175692910Y-106437045D01*
X175571298Y-106513777D01*
X175570763Y-106514383D01*
X175509678Y-106541628D01*
X175439497Y-106530901D01*
X175386255Y-106483934D01*
X175366858Y-106415639D01*
X175377293Y-106371074D01*
X175376511Y-106370824D01*
X175379241Y-106362271D01*
X175383154Y-106354194D01*
X175401216Y-106246838D01*
X175406205Y-106217184D01*
X175406205Y-106217179D01*
X175407011Y-106212391D01*
X175407162Y-106200000D01*
X175399507Y-106146547D01*
X175388050Y-106066543D01*
X175388049Y-106066540D01*
X175386777Y-106057657D01*
X175373527Y-106028514D01*
X175367160Y-106014511D01*
X175327260Y-105926756D01*
X175233396Y-105817821D01*
X175112730Y-105739610D01*
X174974963Y-105698409D01*
X174965987Y-105698354D01*
X174965986Y-105698354D01*
X174906021Y-105697988D01*
X174831170Y-105697530D01*
X174692910Y-105737045D01*
X174634443Y-105773935D01*
X174583838Y-105805865D01*
X174571298Y-105813777D01*
X174565355Y-105820506D01*
X174561723Y-105824619D01*
X174476110Y-105921556D01*
X174472296Y-105929679D01*
X174472295Y-105929681D01*
X174425894Y-106028514D01*
X174414999Y-106051720D01*
X174413618Y-106060589D01*
X174400448Y-106145175D01*
X174392876Y-106193804D01*
X174394040Y-106202706D01*
X174394040Y-106202709D01*
X174395933Y-106217184D01*
X174400971Y-106255704D01*
X174404384Y-106281805D01*
X174393384Y-106351944D01*
X174346210Y-106405002D01*
X174277839Y-106424133D01*
X174243347Y-106418860D01*
X174174963Y-106398409D01*
X174165987Y-106398354D01*
X174165986Y-106398354D01*
X174106021Y-106397988D01*
X174031170Y-106397530D01*
X173892910Y-106437045D01*
X173771298Y-106513777D01*
X173765355Y-106520506D01*
X173684377Y-106612196D01*
X173676110Y-106621556D01*
X173672296Y-106629679D01*
X173672295Y-106629681D01*
X173622512Y-106735718D01*
X173614999Y-106751720D01*
X173613618Y-106760589D01*
X173597594Y-106863506D01*
X173592876Y-106893804D01*
X172706275Y-106893804D01*
X172701116Y-106857784D01*
X172688050Y-106766543D01*
X172688049Y-106766540D01*
X172686777Y-106757657D01*
X172627260Y-106626756D01*
X172567240Y-106557099D01*
X172539254Y-106524619D01*
X172539252Y-106524617D01*
X172533396Y-106517821D01*
X172412730Y-106439610D01*
X172274963Y-106398409D01*
X172265987Y-106398354D01*
X172265986Y-106398354D01*
X172206021Y-106397988D01*
X172131170Y-106397530D01*
X171992910Y-106437045D01*
X171871298Y-106513777D01*
X171865355Y-106520506D01*
X171784377Y-106612196D01*
X171776110Y-106621556D01*
X171772296Y-106629679D01*
X171772295Y-106629681D01*
X171722512Y-106735718D01*
X171714999Y-106751720D01*
X171713618Y-106760589D01*
X171697594Y-106863506D01*
X171692876Y-106893804D01*
X160500000Y-106893804D01*
X160500000Y-105800000D01*
X159778173Y-105800000D01*
X159710052Y-105779998D01*
X159663559Y-105726342D01*
X159654349Y-105656379D01*
X159653756Y-105656326D01*
X159653994Y-105653678D01*
X159653918Y-105653104D01*
X159654190Y-105651485D01*
X159654190Y-105651480D01*
X159654998Y-105646680D01*
X159655134Y-105635560D01*
X159639554Y-105526767D01*
X159638113Y-105516705D01*
X159638112Y-105516702D01*
X159636840Y-105507819D01*
X159613890Y-105457343D01*
X159587146Y-105398522D01*
X159587144Y-105398519D01*
X159583429Y-105390348D01*
X159506272Y-105300802D01*
X159505052Y-105299386D01*
X159505050Y-105299384D01*
X159499194Y-105292588D01*
X159390907Y-105222401D01*
X159382312Y-105219831D01*
X159382311Y-105219830D01*
X159275875Y-105187998D01*
X159275873Y-105187998D01*
X159267274Y-105185426D01*
X159258299Y-105185371D01*
X159258298Y-105185371D01*
X159203642Y-105185037D01*
X159138232Y-105184638D01*
X159102298Y-105194908D01*
X159022787Y-105217632D01*
X159022785Y-105217633D01*
X159014156Y-105220099D01*
X159006566Y-105224888D01*
X158943142Y-105264906D01*
X158905020Y-105288959D01*
X158899077Y-105295688D01*
X158899076Y-105295689D01*
X158894464Y-105300911D01*
X158819597Y-105385682D01*
X158815783Y-105393805D01*
X158815782Y-105393807D01*
X158789795Y-105449158D01*
X158764755Y-105502492D01*
X158755627Y-105561118D01*
X158746283Y-105621127D01*
X158746283Y-105621131D01*
X158744902Y-105630000D01*
X158748520Y-105657664D01*
X158737518Y-105727803D01*
X158690343Y-105780860D01*
X158623583Y-105800000D01*
X157100000Y-105800000D01*
X157100000Y-110600000D01*
X155859430Y-110600000D01*
X155933072Y-110554784D01*
X155933075Y-110554781D01*
X155940724Y-110550085D01*
X155946750Y-110543428D01*
X156021300Y-110461067D01*
X156021303Y-110461063D01*
X156027322Y-110454413D01*
X156083588Y-110338281D01*
X156097201Y-110257369D01*
X156104190Y-110215823D01*
X156104997Y-110211026D01*
X156105133Y-110199906D01*
X156093884Y-110121356D01*
X156088112Y-110081051D01*
X156088111Y-110081048D01*
X156086839Y-110072165D01*
X156068514Y-110031861D01*
X156037145Y-109962868D01*
X156037143Y-109962865D01*
X156033428Y-109954694D01*
X155964522Y-109874724D01*
X155955051Y-109863732D01*
X155955049Y-109863730D01*
X155949193Y-109856934D01*
X155840906Y-109786747D01*
X155832311Y-109784177D01*
X155832310Y-109784176D01*
X155725874Y-109752344D01*
X155725872Y-109752344D01*
X155717273Y-109749772D01*
X155708298Y-109749717D01*
X155708297Y-109749717D01*
X155653641Y-109749383D01*
X155588231Y-109748984D01*
X155576475Y-109752344D01*
X155472786Y-109781978D01*
X155472784Y-109781979D01*
X155464155Y-109784445D01*
X155355019Y-109853305D01*
X155349076Y-109860034D01*
X155349075Y-109860035D01*
X155336102Y-109874724D01*
X155269596Y-109950028D01*
X155265782Y-109958151D01*
X155265781Y-109958153D01*
X155254978Y-109981164D01*
X155214754Y-110066838D01*
X155213374Y-110075704D01*
X155196282Y-110185473D01*
X155196282Y-110185477D01*
X155194901Y-110194346D01*
X147494311Y-110194346D01*
X147533587Y-110113281D01*
X147535374Y-110102663D01*
X147554189Y-109990823D01*
X147554996Y-109986026D01*
X147555132Y-109974906D01*
X147539211Y-109863732D01*
X147538111Y-109856051D01*
X147538110Y-109856048D01*
X147536838Y-109847165D01*
X147526263Y-109823906D01*
X147487144Y-109737868D01*
X147487142Y-109737865D01*
X147483427Y-109729694D01*
X147433717Y-109672002D01*
X147405050Y-109638732D01*
X147405048Y-109638730D01*
X147399192Y-109631934D01*
X147290905Y-109561747D01*
X147282310Y-109559177D01*
X147282309Y-109559176D01*
X147175873Y-109527344D01*
X147175871Y-109527344D01*
X147167272Y-109524772D01*
X147158297Y-109524717D01*
X147158296Y-109524717D01*
X147125229Y-109524515D01*
X147057232Y-109504097D01*
X147011068Y-109450158D01*
X146999999Y-109398517D01*
X146999999Y-107804906D01*
X151999430Y-107804906D01*
X152000120Y-107811471D01*
X152011159Y-107916495D01*
X152019656Y-107997343D01*
X152079450Y-108181369D01*
X152176198Y-108348942D01*
X152180616Y-108353849D01*
X152180617Y-108353850D01*
X152262811Y-108445136D01*
X152305673Y-108492739D01*
X152311015Y-108496620D01*
X152311017Y-108496622D01*
X152454657Y-108600982D01*
X152462215Y-108606473D01*
X152468243Y-108609157D01*
X152468245Y-108609158D01*
X152536642Y-108639610D01*
X152638983Y-108685175D01*
X152733618Y-108705291D01*
X152821795Y-108724034D01*
X152821800Y-108724034D01*
X152828252Y-108725406D01*
X153021748Y-108725406D01*
X153028200Y-108724034D01*
X153028205Y-108724034D01*
X153116383Y-108705290D01*
X153211017Y-108685175D01*
X153313358Y-108639610D01*
X153381755Y-108609158D01*
X153381757Y-108609157D01*
X153387785Y-108606473D01*
X153395343Y-108600982D01*
X153538983Y-108496622D01*
X153538985Y-108496620D01*
X153544327Y-108492739D01*
X153587189Y-108445136D01*
X153669383Y-108353850D01*
X153669384Y-108353849D01*
X153673802Y-108348942D01*
X153770550Y-108181369D01*
X153830344Y-107997343D01*
X153838842Y-107916495D01*
X153849880Y-107811471D01*
X153850570Y-107804906D01*
X153830344Y-107612469D01*
X153824728Y-107595183D01*
X153789406Y-107486477D01*
X153770550Y-107428443D01*
X153761951Y-107413548D01*
X153701746Y-107309270D01*
X153673802Y-107260870D01*
X153634952Y-107217722D01*
X153548749Y-107121984D01*
X153548748Y-107121983D01*
X153544327Y-107117073D01*
X153538985Y-107113192D01*
X153538983Y-107113190D01*
X153393127Y-107007220D01*
X153393126Y-107007219D01*
X153387785Y-107003339D01*
X153381757Y-107000655D01*
X153381755Y-107000654D01*
X153217048Y-106927322D01*
X153217047Y-106927322D01*
X153211017Y-106924637D01*
X153116382Y-106904521D01*
X153028205Y-106885778D01*
X153028200Y-106885778D01*
X153021748Y-106884406D01*
X152828252Y-106884406D01*
X152821800Y-106885778D01*
X152821795Y-106885778D01*
X152733618Y-106904521D01*
X152638983Y-106924637D01*
X152632953Y-106927322D01*
X152632952Y-106927322D01*
X152468245Y-107000654D01*
X152468243Y-107000655D01*
X152462215Y-107003339D01*
X152456874Y-107007219D01*
X152456873Y-107007220D01*
X152311017Y-107113190D01*
X152311015Y-107113192D01*
X152305673Y-107117073D01*
X152301252Y-107121983D01*
X152301251Y-107121984D01*
X152215049Y-107217722D01*
X152176198Y-107260870D01*
X152148254Y-107309270D01*
X152088050Y-107413548D01*
X152079450Y-107428443D01*
X152060594Y-107486477D01*
X152025273Y-107595183D01*
X152019656Y-107612469D01*
X151999430Y-107804906D01*
X146999999Y-107804906D01*
X146999999Y-105264906D01*
X154539430Y-105264906D01*
X154540120Y-105271471D01*
X154552615Y-105390348D01*
X154559656Y-105457343D01*
X154561696Y-105463620D01*
X154561696Y-105463622D01*
X154573402Y-105499650D01*
X154619450Y-105641369D01*
X154622753Y-105647091D01*
X154622754Y-105647092D01*
X154628085Y-105656326D01*
X154716198Y-105808942D01*
X154720616Y-105813849D01*
X154720617Y-105813850D01*
X154828568Y-105933742D01*
X154845673Y-105952739D01*
X154851015Y-105956620D01*
X154851017Y-105956622D01*
X154978837Y-106049488D01*
X155002215Y-106066473D01*
X155008243Y-106069157D01*
X155008245Y-106069158D01*
X155144962Y-106130028D01*
X155178983Y-106145175D01*
X155273618Y-106165291D01*
X155361795Y-106184034D01*
X155361800Y-106184034D01*
X155368252Y-106185406D01*
X155561748Y-106185406D01*
X155568200Y-106184034D01*
X155568205Y-106184034D01*
X155656382Y-106165291D01*
X155751017Y-106145175D01*
X155785038Y-106130028D01*
X155921755Y-106069158D01*
X155921757Y-106069157D01*
X155927785Y-106066473D01*
X155951163Y-106049488D01*
X156078983Y-105956622D01*
X156078985Y-105956620D01*
X156084327Y-105952739D01*
X156101432Y-105933742D01*
X156209383Y-105813850D01*
X156209384Y-105813849D01*
X156213802Y-105808942D01*
X156301915Y-105656326D01*
X156307246Y-105647092D01*
X156307247Y-105647091D01*
X156310550Y-105641369D01*
X156356598Y-105499650D01*
X156368304Y-105463622D01*
X156368304Y-105463620D01*
X156370344Y-105457343D01*
X156377386Y-105390348D01*
X156389880Y-105271471D01*
X156390570Y-105264906D01*
X156382139Y-105184693D01*
X156371034Y-105079033D01*
X156371034Y-105079032D01*
X156370344Y-105072469D01*
X156366223Y-105059784D01*
X156316948Y-104908134D01*
X156310550Y-104888443D01*
X156291677Y-104855753D01*
X156266692Y-104812478D01*
X156255911Y-104793804D01*
X171692876Y-104793804D01*
X171694040Y-104802706D01*
X171694040Y-104802709D01*
X171710357Y-104927487D01*
X171711521Y-104936386D01*
X171769434Y-105068004D01*
X171775211Y-105074877D01*
X171775212Y-105074878D01*
X171788137Y-105090254D01*
X171861960Y-105178077D01*
X171981661Y-105257757D01*
X172118914Y-105300638D01*
X172262686Y-105303273D01*
X172315189Y-105288959D01*
X172392756Y-105267812D01*
X172392759Y-105267811D01*
X172401418Y-105265450D01*
X172409068Y-105260753D01*
X172409070Y-105260752D01*
X172468915Y-105224007D01*
X172523959Y-105190210D01*
X172620456Y-105083601D01*
X172683154Y-104954194D01*
X172687647Y-104927487D01*
X172706205Y-104817184D01*
X172706205Y-104817179D01*
X172707011Y-104812391D01*
X172707162Y-104800000D01*
X172706275Y-104793804D01*
X173592876Y-104793804D01*
X173594040Y-104802706D01*
X173594040Y-104802709D01*
X173610357Y-104927487D01*
X173611521Y-104936386D01*
X173669434Y-105068004D01*
X173675211Y-105074877D01*
X173675212Y-105074878D01*
X173688137Y-105090254D01*
X173761960Y-105178077D01*
X173881661Y-105257757D01*
X174018914Y-105300638D01*
X174162686Y-105303273D01*
X174215189Y-105288959D01*
X174292756Y-105267812D01*
X174292759Y-105267811D01*
X174301418Y-105265450D01*
X174309068Y-105260753D01*
X174309070Y-105260752D01*
X174368915Y-105224007D01*
X174423959Y-105190210D01*
X174520456Y-105083601D01*
X174583154Y-104954194D01*
X174587647Y-104927487D01*
X174606205Y-104817184D01*
X174606205Y-104817179D01*
X174607011Y-104812391D01*
X174607162Y-104800000D01*
X174592780Y-104699572D01*
X174588050Y-104666543D01*
X174588049Y-104666540D01*
X174586777Y-104657657D01*
X174577976Y-104638299D01*
X174559914Y-104598574D01*
X174527260Y-104526756D01*
X174469932Y-104460223D01*
X174439254Y-104424619D01*
X174439252Y-104424617D01*
X174433396Y-104417821D01*
X174312730Y-104339610D01*
X174174963Y-104298409D01*
X174165987Y-104298354D01*
X174165986Y-104298354D01*
X174106021Y-104297988D01*
X174031170Y-104297530D01*
X173892910Y-104337045D01*
X173771298Y-104413777D01*
X173765355Y-104420506D01*
X173694379Y-104500871D01*
X173676110Y-104521556D01*
X173672296Y-104529679D01*
X173672295Y-104529681D01*
X173636106Y-104606762D01*
X173614999Y-104651720D01*
X173613618Y-104660589D01*
X173594862Y-104781050D01*
X173592876Y-104793804D01*
X172706275Y-104793804D01*
X172692780Y-104699572D01*
X172688050Y-104666543D01*
X172688049Y-104666540D01*
X172686777Y-104657657D01*
X172677976Y-104638299D01*
X172659914Y-104598574D01*
X172627260Y-104526756D01*
X172569932Y-104460223D01*
X172539254Y-104424619D01*
X172539252Y-104424617D01*
X172533396Y-104417821D01*
X172412730Y-104339610D01*
X172274963Y-104298409D01*
X172265987Y-104298354D01*
X172265986Y-104298354D01*
X172206021Y-104297988D01*
X172131170Y-104297530D01*
X171992910Y-104337045D01*
X171871298Y-104413777D01*
X171865355Y-104420506D01*
X171794379Y-104500871D01*
X171776110Y-104521556D01*
X171772296Y-104529679D01*
X171772295Y-104529681D01*
X171736106Y-104606762D01*
X171714999Y-104651720D01*
X171713618Y-104660589D01*
X171694862Y-104781050D01*
X171692876Y-104793804D01*
X156255911Y-104793804D01*
X156213802Y-104720870D01*
X156161862Y-104663184D01*
X156088749Y-104581984D01*
X156088748Y-104581983D01*
X156084327Y-104577073D01*
X156078985Y-104573192D01*
X156078983Y-104573190D01*
X155933127Y-104467220D01*
X155933126Y-104467219D01*
X155927785Y-104463339D01*
X155921757Y-104460655D01*
X155921755Y-104460654D01*
X155757048Y-104387322D01*
X155757047Y-104387322D01*
X155751017Y-104384637D01*
X155656382Y-104364521D01*
X155568205Y-104345778D01*
X155568200Y-104345778D01*
X155561748Y-104344406D01*
X155368252Y-104344406D01*
X155361800Y-104345778D01*
X155361795Y-104345778D01*
X155273618Y-104364521D01*
X155178983Y-104384637D01*
X155172953Y-104387322D01*
X155172952Y-104387322D01*
X155008245Y-104460654D01*
X155008243Y-104460655D01*
X155002215Y-104463339D01*
X154996874Y-104467219D01*
X154996873Y-104467220D01*
X154851017Y-104573190D01*
X154851015Y-104573192D01*
X154845673Y-104577073D01*
X154841252Y-104581983D01*
X154841251Y-104581984D01*
X154768139Y-104663184D01*
X154716198Y-104720870D01*
X154663308Y-104812478D01*
X154638324Y-104855753D01*
X154619450Y-104888443D01*
X154613052Y-104908134D01*
X154563778Y-105059784D01*
X154559656Y-105072469D01*
X154558966Y-105079032D01*
X154558966Y-105079033D01*
X154547861Y-105184693D01*
X154539430Y-105264906D01*
X146999999Y-105264906D01*
X146999999Y-104949906D01*
X146987253Y-104949587D01*
X146197944Y-104929834D01*
X146130345Y-104908134D01*
X146085209Y-104853332D01*
X146076571Y-104809749D01*
X146075390Y-104809826D01*
X146075073Y-104804954D01*
X146075132Y-104800094D01*
X146063786Y-104720870D01*
X146058111Y-104681239D01*
X146058110Y-104681236D01*
X146056838Y-104672353D01*
X146052669Y-104663184D01*
X146007144Y-104563056D01*
X146007142Y-104563053D01*
X146003427Y-104554882D01*
X145961982Y-104506782D01*
X145925050Y-104463920D01*
X145925048Y-104463918D01*
X145919192Y-104457122D01*
X145810905Y-104386935D01*
X145802310Y-104384365D01*
X145802309Y-104384364D01*
X145695873Y-104352532D01*
X145695871Y-104352532D01*
X145687272Y-104349960D01*
X145678297Y-104349905D01*
X145678296Y-104349905D01*
X145623640Y-104349571D01*
X145558230Y-104349172D01*
X145496192Y-104366903D01*
X145442785Y-104382166D01*
X145442783Y-104382167D01*
X145434154Y-104384633D01*
X145426564Y-104389422D01*
X145332710Y-104448640D01*
X145325018Y-104453493D01*
X145319075Y-104460222D01*
X145319074Y-104460223D01*
X145291339Y-104491627D01*
X145239595Y-104550216D01*
X145235781Y-104558339D01*
X145235780Y-104558341D01*
X145224680Y-104581984D01*
X145184753Y-104667026D01*
X145183373Y-104675888D01*
X145183372Y-104675892D01*
X145164950Y-104794212D01*
X145134706Y-104858444D01*
X145074536Y-104896129D01*
X145037298Y-104900788D01*
X142871113Y-104846579D01*
X142803514Y-104824879D01*
X142758378Y-104770077D01*
X142750035Y-104699572D01*
X142757856Y-104672400D01*
X142781884Y-104614392D01*
X142781885Y-104614389D01*
X142785044Y-104606762D01*
X142805682Y-104450000D01*
X142793317Y-104356079D01*
X142786122Y-104301426D01*
X142785044Y-104293238D01*
X142724536Y-104147159D01*
X142628282Y-104021718D01*
X142502841Y-103925464D01*
X142378282Y-103873870D01*
X142323001Y-103829322D01*
X142300500Y-103757461D01*
X142300500Y-102784219D01*
X142301373Y-102769410D01*
X142304257Y-102745041D01*
X142305364Y-102735689D01*
X142303672Y-102726426D01*
X142303672Y-102726419D01*
X142303396Y-102724906D01*
X151999430Y-102724906D01*
X152000120Y-102731471D01*
X152016110Y-102883601D01*
X152019656Y-102917343D01*
X152021696Y-102923620D01*
X152021696Y-102923622D01*
X152054037Y-103023157D01*
X152079450Y-103101369D01*
X152176198Y-103268942D01*
X152305673Y-103412739D01*
X152311015Y-103416620D01*
X152311017Y-103416622D01*
X152456873Y-103522592D01*
X152462215Y-103526473D01*
X152468243Y-103529157D01*
X152468245Y-103529158D01*
X152632952Y-103602490D01*
X152638983Y-103605175D01*
X152733618Y-103625291D01*
X152821795Y-103644034D01*
X152821800Y-103644034D01*
X152828252Y-103645406D01*
X153021748Y-103645406D01*
X153028200Y-103644034D01*
X153028205Y-103644034D01*
X153116383Y-103625290D01*
X153211017Y-103605175D01*
X153217048Y-103602490D01*
X153381755Y-103529158D01*
X153381757Y-103529157D01*
X153387785Y-103526473D01*
X153393127Y-103522592D01*
X153538983Y-103416622D01*
X153538985Y-103416620D01*
X153544327Y-103412739D01*
X153673802Y-103268942D01*
X153770550Y-103101369D01*
X153795963Y-103023157D01*
X153828304Y-102923622D01*
X153828304Y-102923620D01*
X153830344Y-102917343D01*
X153833891Y-102883601D01*
X153849880Y-102731471D01*
X153850570Y-102724906D01*
X153839248Y-102617184D01*
X153831034Y-102539033D01*
X153831034Y-102539032D01*
X153830344Y-102532469D01*
X153818895Y-102497231D01*
X153795963Y-102426655D01*
X153770550Y-102348443D01*
X153762750Y-102334932D01*
X153703386Y-102232111D01*
X153673802Y-102180870D01*
X153636652Y-102139610D01*
X153548749Y-102041984D01*
X153548748Y-102041983D01*
X153544327Y-102037073D01*
X153538985Y-102033192D01*
X153538983Y-102033190D01*
X153393127Y-101927220D01*
X153393126Y-101927219D01*
X153387785Y-101923339D01*
X153381757Y-101920655D01*
X153381755Y-101920654D01*
X153217048Y-101847322D01*
X153217047Y-101847322D01*
X153211017Y-101844637D01*
X153116382Y-101824521D01*
X153028205Y-101805778D01*
X153028200Y-101805778D01*
X153021748Y-101804406D01*
X152828252Y-101804406D01*
X152821800Y-101805778D01*
X152821795Y-101805778D01*
X152733617Y-101824522D01*
X152638983Y-101844637D01*
X152632953Y-101847322D01*
X152632952Y-101847322D01*
X152468245Y-101920654D01*
X152468243Y-101920655D01*
X152462215Y-101923339D01*
X152456874Y-101927219D01*
X152456873Y-101927220D01*
X152311017Y-102033190D01*
X152311015Y-102033192D01*
X152305673Y-102037073D01*
X152301252Y-102041983D01*
X152301251Y-102041984D01*
X152213349Y-102139610D01*
X152176198Y-102180870D01*
X152146614Y-102232111D01*
X152087251Y-102334932D01*
X152079450Y-102348443D01*
X152054037Y-102426655D01*
X152031106Y-102497231D01*
X152019656Y-102532469D01*
X152018966Y-102539032D01*
X152018966Y-102539033D01*
X152010752Y-102617184D01*
X151999430Y-102724906D01*
X142303396Y-102724906D01*
X142294825Y-102677982D01*
X142294174Y-102674075D01*
X142286850Y-102625356D01*
X142286850Y-102625355D01*
X142285449Y-102616038D01*
X142282321Y-102609525D01*
X142281025Y-102602427D01*
X142253972Y-102550347D01*
X142252223Y-102546845D01*
X142230887Y-102502413D01*
X142230886Y-102502412D01*
X142226809Y-102493921D01*
X142221923Y-102488636D01*
X142221892Y-102488589D01*
X142218579Y-102482211D01*
X142214275Y-102477172D01*
X142177048Y-102439945D01*
X142173618Y-102436379D01*
X142141246Y-102401359D01*
X142134854Y-102394444D01*
X142128495Y-102390751D01*
X142122337Y-102385234D01*
X141592753Y-101855650D01*
X141582899Y-101844561D01*
X141567707Y-101825291D01*
X141567705Y-101825289D01*
X141561872Y-101817890D01*
X141554125Y-101812535D01*
X141554123Y-101812534D01*
X141528614Y-101794904D01*
X141513615Y-101784538D01*
X141510403Y-101782243D01*
X141501307Y-101775524D01*
X141486346Y-101764474D01*
X141470758Y-101752960D01*
X141470757Y-101752959D01*
X141463184Y-101747366D01*
X141456368Y-101744973D01*
X141450431Y-101740869D01*
X141441451Y-101738029D01*
X141441449Y-101738028D01*
X141421283Y-101731650D01*
X141394481Y-101723174D01*
X141390750Y-101721929D01*
X141344263Y-101705604D01*
X141344261Y-101705604D01*
X141335369Y-101702481D01*
X141328181Y-101702199D01*
X141328122Y-101702188D01*
X141321270Y-101700020D01*
X141314663Y-101699500D01*
X141261984Y-101699500D01*
X141257037Y-101699403D01*
X141200006Y-101697162D01*
X141192900Y-101699046D01*
X141184653Y-101699500D01*
X140526000Y-101699500D01*
X140457879Y-101679498D01*
X140411386Y-101625842D01*
X140400000Y-101573500D01*
X140400000Y-99926000D01*
X140420002Y-99857879D01*
X140473658Y-99811386D01*
X140526000Y-99800000D01*
X148300000Y-99800000D01*
X148300000Y-99443804D01*
X150642876Y-99443804D01*
X150644040Y-99452706D01*
X150644040Y-99452709D01*
X150645933Y-99467184D01*
X150661521Y-99586386D01*
X150719434Y-99718004D01*
X150725211Y-99724877D01*
X150725212Y-99724878D01*
X150783429Y-99794135D01*
X150811960Y-99828077D01*
X150931661Y-99907757D01*
X151068914Y-99950638D01*
X151212686Y-99953273D01*
X151255507Y-99941599D01*
X151342756Y-99917812D01*
X151342759Y-99917811D01*
X151351418Y-99915450D01*
X151359068Y-99910753D01*
X151359070Y-99910752D01*
X151445182Y-99857879D01*
X151473959Y-99840210D01*
X151570456Y-99733601D01*
X151633154Y-99604194D01*
X151657011Y-99462391D01*
X151657162Y-99450000D01*
X151650093Y-99400638D01*
X151638050Y-99316543D01*
X151638049Y-99316540D01*
X151636777Y-99307657D01*
X151630981Y-99294908D01*
X151580976Y-99184930D01*
X151577260Y-99176756D01*
X151483396Y-99067821D01*
X151362730Y-98989610D01*
X151224963Y-98948409D01*
X151215987Y-98948354D01*
X151215986Y-98948354D01*
X151156021Y-98947988D01*
X151081170Y-98947530D01*
X150942910Y-98987045D01*
X150821298Y-99063777D01*
X150815355Y-99070506D01*
X150811723Y-99074619D01*
X150726110Y-99171556D01*
X150722296Y-99179679D01*
X150722295Y-99179681D01*
X150673527Y-99283555D01*
X150664999Y-99301720D01*
X150663618Y-99310589D01*
X150649213Y-99403108D01*
X150642876Y-99443804D01*
X148300000Y-99443804D01*
X148300000Y-98893804D01*
X171692876Y-98893804D01*
X171694040Y-98902706D01*
X171694040Y-98902709D01*
X171710357Y-99027487D01*
X171711521Y-99036386D01*
X171769434Y-99168004D01*
X171775211Y-99174877D01*
X171775212Y-99174878D01*
X171783662Y-99184930D01*
X171861960Y-99278077D01*
X171981661Y-99357757D01*
X172118914Y-99400638D01*
X172262686Y-99403273D01*
X172305507Y-99391599D01*
X172392756Y-99367812D01*
X172392759Y-99367811D01*
X172401418Y-99365450D01*
X172409068Y-99360753D01*
X172409070Y-99360752D01*
X172490768Y-99310589D01*
X172523959Y-99290210D01*
X172620456Y-99183601D01*
X172683154Y-99054194D01*
X172694451Y-98987045D01*
X172706205Y-98917184D01*
X172706205Y-98917179D01*
X172707011Y-98912391D01*
X172707162Y-98900000D01*
X172706275Y-98893804D01*
X173592876Y-98893804D01*
X173594040Y-98902706D01*
X173594040Y-98902709D01*
X173610357Y-99027487D01*
X173611521Y-99036386D01*
X173669434Y-99168004D01*
X173675211Y-99174877D01*
X173675212Y-99174878D01*
X173683662Y-99184930D01*
X173761960Y-99278077D01*
X173881661Y-99357757D01*
X174018914Y-99400638D01*
X174162686Y-99403273D01*
X174205507Y-99391599D01*
X174292756Y-99367812D01*
X174292759Y-99367811D01*
X174301418Y-99365450D01*
X174309068Y-99360753D01*
X174309070Y-99360752D01*
X174390768Y-99310589D01*
X174423959Y-99290210D01*
X174520456Y-99183601D01*
X174583154Y-99054194D01*
X174594451Y-98987045D01*
X174606205Y-98917184D01*
X174606205Y-98917179D01*
X174607011Y-98912391D01*
X174607162Y-98900000D01*
X174586777Y-98757657D01*
X174527260Y-98626756D01*
X174433396Y-98517821D01*
X174312730Y-98439610D01*
X174174963Y-98398409D01*
X174165987Y-98398354D01*
X174165986Y-98398354D01*
X174106021Y-98397988D01*
X174031170Y-98397530D01*
X173892910Y-98437045D01*
X173771298Y-98513777D01*
X173765355Y-98520506D01*
X173761723Y-98524619D01*
X173676110Y-98621556D01*
X173614999Y-98751720D01*
X173592876Y-98893804D01*
X172706275Y-98893804D01*
X172686777Y-98757657D01*
X172627260Y-98626756D01*
X172533396Y-98517821D01*
X172412730Y-98439610D01*
X172274963Y-98398409D01*
X172265987Y-98398354D01*
X172265986Y-98398354D01*
X172206021Y-98397988D01*
X172131170Y-98397530D01*
X171992910Y-98437045D01*
X171871298Y-98513777D01*
X171865355Y-98520506D01*
X171861723Y-98524619D01*
X171776110Y-98621556D01*
X171714999Y-98751720D01*
X171692876Y-98893804D01*
X148300000Y-98893804D01*
X148300000Y-96793804D01*
X171692876Y-96793804D01*
X171694040Y-96802706D01*
X171694040Y-96802709D01*
X171695933Y-96817184D01*
X171711521Y-96936386D01*
X171769434Y-97068004D01*
X171775211Y-97074877D01*
X171775212Y-97074878D01*
X171817925Y-97125691D01*
X171861960Y-97178077D01*
X171981661Y-97257757D01*
X172118914Y-97300638D01*
X172262686Y-97303273D01*
X172305507Y-97291599D01*
X172392756Y-97267812D01*
X172392759Y-97267811D01*
X172401418Y-97265450D01*
X172409068Y-97260753D01*
X172409070Y-97260752D01*
X172486938Y-97212941D01*
X172523959Y-97190210D01*
X172620456Y-97083601D01*
X172683154Y-96954194D01*
X172707011Y-96812391D01*
X172707162Y-96800000D01*
X172706275Y-96793804D01*
X173592876Y-96793804D01*
X173594040Y-96802706D01*
X173594040Y-96802709D01*
X173595933Y-96817184D01*
X173611521Y-96936386D01*
X173669434Y-97068004D01*
X173675211Y-97074877D01*
X173675212Y-97074878D01*
X173717925Y-97125691D01*
X173761960Y-97178077D01*
X173881661Y-97257757D01*
X174018914Y-97300638D01*
X174162686Y-97303273D01*
X174268876Y-97274322D01*
X174339859Y-97275702D01*
X174398828Y-97315239D01*
X174427060Y-97380380D01*
X174418508Y-97434116D01*
X174421438Y-97435012D01*
X174418814Y-97443594D01*
X174414999Y-97451720D01*
X174392876Y-97593804D01*
X174394040Y-97602706D01*
X174394040Y-97602709D01*
X174395933Y-97617184D01*
X174411521Y-97736386D01*
X174469434Y-97868004D01*
X174475211Y-97874877D01*
X174475212Y-97874878D01*
X174488137Y-97890254D01*
X174561960Y-97978077D01*
X174681661Y-98057757D01*
X174818914Y-98100638D01*
X174962686Y-98103273D01*
X175005507Y-98091599D01*
X175092756Y-98067812D01*
X175092759Y-98067811D01*
X175101418Y-98065450D01*
X175109068Y-98060753D01*
X175109070Y-98060752D01*
X175162688Y-98027830D01*
X175223959Y-97990210D01*
X175320456Y-97883601D01*
X175383154Y-97754194D01*
X175407011Y-97612391D01*
X175407162Y-97600000D01*
X175386777Y-97457657D01*
X175327260Y-97326756D01*
X175233396Y-97217821D01*
X175112730Y-97139610D01*
X174974963Y-97098409D01*
X174965987Y-97098354D01*
X174965986Y-97098354D01*
X174906021Y-97097988D01*
X174831170Y-97097530D01*
X174822540Y-97099996D01*
X174822536Y-97099997D01*
X174732635Y-97125691D01*
X174661641Y-97125179D01*
X174602193Y-97086365D01*
X174573167Y-97021573D01*
X174577976Y-96966232D01*
X174579239Y-96962274D01*
X174583154Y-96954194D01*
X174607011Y-96812391D01*
X174607162Y-96800000D01*
X174606275Y-96793804D01*
X175392876Y-96793804D01*
X175394040Y-96802706D01*
X175394040Y-96802709D01*
X175395933Y-96817184D01*
X175411521Y-96936386D01*
X175469434Y-97068004D01*
X175475211Y-97074877D01*
X175475212Y-97074878D01*
X175517925Y-97125691D01*
X175561960Y-97178077D01*
X175681661Y-97257757D01*
X175818914Y-97300638D01*
X175962686Y-97303273D01*
X176005507Y-97291599D01*
X176092756Y-97267812D01*
X176092759Y-97267811D01*
X176101418Y-97265450D01*
X176109068Y-97260753D01*
X176109070Y-97260752D01*
X176186938Y-97212941D01*
X176223959Y-97190210D01*
X176320456Y-97083601D01*
X176383154Y-96954194D01*
X176407011Y-96812391D01*
X176407162Y-96800000D01*
X176386777Y-96657657D01*
X176383062Y-96649485D01*
X176367160Y-96614511D01*
X176327260Y-96526756D01*
X176233396Y-96417821D01*
X176112730Y-96339610D01*
X175974963Y-96298409D01*
X175965987Y-96298354D01*
X175965986Y-96298354D01*
X175906021Y-96297988D01*
X175831170Y-96297530D01*
X175692910Y-96337045D01*
X175571298Y-96413777D01*
X175565355Y-96420506D01*
X175496949Y-96497961D01*
X175476110Y-96521556D01*
X175472296Y-96529679D01*
X175472295Y-96529681D01*
X175418814Y-96643594D01*
X175414999Y-96651720D01*
X175392876Y-96793804D01*
X174606275Y-96793804D01*
X174586777Y-96657657D01*
X174583063Y-96649488D01*
X174583062Y-96649485D01*
X174581716Y-96646525D01*
X174581262Y-96643329D01*
X174580542Y-96640867D01*
X174580897Y-96640763D01*
X174571728Y-96576235D01*
X174601328Y-96511703D01*
X174661118Y-96473418D01*
X174733990Y-96474106D01*
X174810345Y-96497961D01*
X174818914Y-96500638D01*
X174962686Y-96503273D01*
X175005507Y-96491599D01*
X175092756Y-96467812D01*
X175092759Y-96467811D01*
X175101418Y-96465450D01*
X175109068Y-96460753D01*
X175109070Y-96460752D01*
X175193379Y-96408986D01*
X175223959Y-96390210D01*
X175320456Y-96283601D01*
X175383154Y-96154194D01*
X175407011Y-96012391D01*
X175407162Y-96000000D01*
X175386777Y-95857657D01*
X175327260Y-95726756D01*
X175233396Y-95617821D01*
X175112730Y-95539610D01*
X174974963Y-95498409D01*
X174965987Y-95498354D01*
X174965986Y-95498354D01*
X174906021Y-95497988D01*
X174831170Y-95497530D01*
X174692910Y-95537045D01*
X174571298Y-95613777D01*
X174565355Y-95620506D01*
X174561723Y-95624619D01*
X174476110Y-95721556D01*
X174414999Y-95851720D01*
X174392876Y-95993804D01*
X174394040Y-96002706D01*
X174394040Y-96002709D01*
X174395933Y-96017184D01*
X174411521Y-96136386D01*
X174415136Y-96144601D01*
X174419638Y-96154834D01*
X174428764Y-96225242D01*
X174398376Y-96289406D01*
X174338122Y-96326956D01*
X174268208Y-96326295D01*
X174174963Y-96298409D01*
X174165987Y-96298354D01*
X174165986Y-96298354D01*
X174106021Y-96297988D01*
X174031170Y-96297530D01*
X173892910Y-96337045D01*
X173771298Y-96413777D01*
X173765355Y-96420506D01*
X173696949Y-96497961D01*
X173676110Y-96521556D01*
X173672296Y-96529679D01*
X173672295Y-96529681D01*
X173618814Y-96643594D01*
X173614999Y-96651720D01*
X173592876Y-96793804D01*
X172706275Y-96793804D01*
X172686777Y-96657657D01*
X172683062Y-96649485D01*
X172667160Y-96614511D01*
X172627260Y-96526756D01*
X172533396Y-96417821D01*
X172412730Y-96339610D01*
X172274963Y-96298409D01*
X172265987Y-96298354D01*
X172265986Y-96298354D01*
X172206021Y-96297988D01*
X172131170Y-96297530D01*
X171992910Y-96337045D01*
X171871298Y-96413777D01*
X171865355Y-96420506D01*
X171796949Y-96497961D01*
X171776110Y-96521556D01*
X171772296Y-96529679D01*
X171772295Y-96529681D01*
X171718814Y-96643594D01*
X171714999Y-96651720D01*
X171692876Y-96793804D01*
X148300000Y-96793804D01*
X148300000Y-94793804D01*
X171692876Y-94793804D01*
X171694040Y-94802706D01*
X171694040Y-94802709D01*
X171702331Y-94866112D01*
X171711521Y-94936386D01*
X171769434Y-95068004D01*
X171775211Y-95074877D01*
X171775212Y-95074878D01*
X171788137Y-95090254D01*
X171861960Y-95178077D01*
X171981661Y-95257757D01*
X172118914Y-95300638D01*
X172262686Y-95303273D01*
X172305507Y-95291599D01*
X172392756Y-95267812D01*
X172392759Y-95267811D01*
X172401418Y-95265450D01*
X172409068Y-95260753D01*
X172409070Y-95260752D01*
X172462689Y-95227830D01*
X172523959Y-95190210D01*
X172620456Y-95083601D01*
X172662505Y-94996814D01*
X172679241Y-94962271D01*
X172679242Y-94962269D01*
X172683154Y-94954194D01*
X172698199Y-94864769D01*
X172706205Y-94817184D01*
X172706205Y-94817179D01*
X172707011Y-94812391D01*
X172707162Y-94800000D01*
X172706275Y-94793804D01*
X173592876Y-94793804D01*
X173594040Y-94802706D01*
X173594040Y-94802709D01*
X173602331Y-94866112D01*
X173611521Y-94936386D01*
X173669434Y-95068004D01*
X173675211Y-95074877D01*
X173675212Y-95074878D01*
X173688137Y-95090254D01*
X173761960Y-95178077D01*
X173881661Y-95257757D01*
X174018914Y-95300638D01*
X174162686Y-95303273D01*
X174205507Y-95291599D01*
X174292756Y-95267812D01*
X174292759Y-95267811D01*
X174301418Y-95265450D01*
X174309068Y-95260753D01*
X174309070Y-95260752D01*
X174362689Y-95227830D01*
X174423959Y-95190210D01*
X174520456Y-95083601D01*
X174562505Y-94996814D01*
X174579241Y-94962271D01*
X174579242Y-94962269D01*
X174583154Y-94954194D01*
X174598199Y-94864769D01*
X174606205Y-94817184D01*
X174606205Y-94817179D01*
X174607011Y-94812391D01*
X174607162Y-94800000D01*
X174598521Y-94739660D01*
X174588050Y-94666543D01*
X174588049Y-94666540D01*
X174586777Y-94657657D01*
X174527260Y-94526756D01*
X174471486Y-94462027D01*
X174439254Y-94424619D01*
X174439252Y-94424617D01*
X174433396Y-94417821D01*
X174312730Y-94339610D01*
X174174963Y-94298409D01*
X174165987Y-94298354D01*
X174165986Y-94298354D01*
X174106021Y-94297988D01*
X174031170Y-94297530D01*
X173892910Y-94337045D01*
X173817372Y-94384707D01*
X173799901Y-94395730D01*
X173771298Y-94413777D01*
X173765355Y-94420506D01*
X173761723Y-94424619D01*
X173676110Y-94521556D01*
X173614999Y-94651720D01*
X173613618Y-94660589D01*
X173596013Y-94773658D01*
X173592876Y-94793804D01*
X172706275Y-94793804D01*
X172698521Y-94739660D01*
X172688050Y-94666543D01*
X172688049Y-94666540D01*
X172686777Y-94657657D01*
X172627260Y-94526756D01*
X172571486Y-94462027D01*
X172539254Y-94424619D01*
X172539252Y-94424617D01*
X172533396Y-94417821D01*
X172412730Y-94339610D01*
X172274963Y-94298409D01*
X172265987Y-94298354D01*
X172265986Y-94298354D01*
X172206021Y-94297988D01*
X172131170Y-94297530D01*
X171992910Y-94337045D01*
X171917372Y-94384707D01*
X171899901Y-94395730D01*
X171871298Y-94413777D01*
X171865355Y-94420506D01*
X171861723Y-94424619D01*
X171776110Y-94521556D01*
X171714999Y-94651720D01*
X171713618Y-94660589D01*
X171696013Y-94773658D01*
X171692876Y-94793804D01*
X148300000Y-94793804D01*
X148300000Y-92937002D01*
X178995380Y-92937002D01*
X178995555Y-92941454D01*
X179005266Y-93188614D01*
X179006502Y-93220084D01*
X179057400Y-93498775D01*
X179147058Y-93767514D01*
X179273687Y-94020939D01*
X179434761Y-94253993D01*
X179437783Y-94257262D01*
X179592486Y-94424619D01*
X179627065Y-94462027D01*
X179630519Y-94464839D01*
X179843307Y-94638075D01*
X179843311Y-94638078D01*
X179846764Y-94640889D01*
X180089472Y-94787012D01*
X180093567Y-94788746D01*
X180093569Y-94788747D01*
X180346247Y-94895742D01*
X180346254Y-94895744D01*
X180350348Y-94897478D01*
X180450492Y-94924031D01*
X180619889Y-94968946D01*
X180619893Y-94968947D01*
X180624186Y-94970085D01*
X180628595Y-94970607D01*
X180628601Y-94970608D01*
X180785953Y-94989232D01*
X180905523Y-95003384D01*
X181188745Y-94996709D01*
X181193143Y-94995977D01*
X181463810Y-94950926D01*
X181463814Y-94950925D01*
X181468200Y-94950195D01*
X181472441Y-94948854D01*
X181472444Y-94948853D01*
X181734068Y-94866112D01*
X181734070Y-94866111D01*
X181738314Y-94864769D01*
X181742325Y-94862843D01*
X181742330Y-94862841D01*
X181989678Y-94744066D01*
X181989679Y-94744065D01*
X181993697Y-94742136D01*
X182026823Y-94720002D01*
X182225545Y-94587221D01*
X182225549Y-94587218D01*
X182229253Y-94584743D01*
X182440281Y-94395730D01*
X182622573Y-94178868D01*
X182772489Y-93938485D01*
X182887040Y-93679376D01*
X182963939Y-93406712D01*
X183001652Y-93125933D01*
X183003284Y-93074000D01*
X183005509Y-93003222D01*
X183005509Y-93003217D01*
X183005610Y-93000000D01*
X182985601Y-92717407D01*
X182972204Y-92655177D01*
X182926911Y-92444800D01*
X182926911Y-92444798D01*
X182925975Y-92440453D01*
X182827920Y-92174663D01*
X182693393Y-91925340D01*
X182525078Y-91697460D01*
X182478554Y-91650199D01*
X182329465Y-91498751D01*
X182326334Y-91495570D01*
X182322794Y-91492869D01*
X182322788Y-91492863D01*
X182104667Y-91326398D01*
X182104663Y-91326395D01*
X182101126Y-91323696D01*
X181896192Y-91208928D01*
X181857837Y-91187448D01*
X181857832Y-91187445D01*
X181853947Y-91185270D01*
X181849789Y-91183662D01*
X181849784Y-91183659D01*
X181593885Y-91084659D01*
X181593879Y-91084657D01*
X181589730Y-91083052D01*
X181585398Y-91082048D01*
X181585395Y-91082047D01*
X181510141Y-91064604D01*
X181313747Y-91019082D01*
X181031503Y-90994637D01*
X181027068Y-90994881D01*
X181027064Y-90994881D01*
X180753073Y-91009960D01*
X180753066Y-91009961D01*
X180748630Y-91010205D01*
X180610743Y-91037632D01*
X180475146Y-91064604D01*
X180475141Y-91064605D01*
X180470774Y-91065474D01*
X180466571Y-91066950D01*
X180207684Y-91157864D01*
X180207681Y-91157865D01*
X180203476Y-91159342D01*
X180199523Y-91161395D01*
X180199517Y-91161398D01*
X180118243Y-91203617D01*
X179952072Y-91289936D01*
X179948457Y-91292519D01*
X179948451Y-91292523D01*
X179901048Y-91326398D01*
X179721576Y-91454651D01*
X179718349Y-91457729D01*
X179718347Y-91457731D01*
X179619705Y-91551831D01*
X179516588Y-91650199D01*
X179341199Y-91872680D01*
X179310612Y-91925340D01*
X179201141Y-92113807D01*
X179201138Y-92113813D01*
X179198907Y-92117654D01*
X179092552Y-92380232D01*
X179091481Y-92384545D01*
X179091479Y-92384550D01*
X179025328Y-92650856D01*
X179024255Y-92655177D01*
X179023801Y-92659605D01*
X179023801Y-92659607D01*
X179017879Y-92717407D01*
X178995380Y-92937002D01*
X148300000Y-92937002D01*
X148300000Y-92400000D01*
X129900000Y-92400000D01*
X129900000Y-93074000D01*
X129879998Y-93142121D01*
X129826342Y-93188614D01*
X129774000Y-93200000D01*
X124300000Y-93200000D01*
X124300000Y-94700000D01*
X115056758Y-94700000D01*
X115225545Y-94587221D01*
X115225549Y-94587218D01*
X115229253Y-94584743D01*
X115440281Y-94395730D01*
X115622573Y-94178868D01*
X115772489Y-93938485D01*
X115887040Y-93679376D01*
X115963939Y-93406712D01*
X116001652Y-93125933D01*
X116003284Y-93074000D01*
X116005509Y-93003222D01*
X116005509Y-93003217D01*
X116005610Y-93000000D01*
X115985601Y-92717407D01*
X115972204Y-92655177D01*
X115926911Y-92444800D01*
X115926911Y-92444798D01*
X115925975Y-92440453D01*
X115827920Y-92174663D01*
X115693393Y-91925340D01*
X115525078Y-91697460D01*
X115478554Y-91650199D01*
X115329465Y-91498751D01*
X115326334Y-91495570D01*
X115322794Y-91492869D01*
X115322788Y-91492863D01*
X115104667Y-91326398D01*
X115104663Y-91326395D01*
X115101126Y-91323696D01*
X114896192Y-91208928D01*
X114857837Y-91187448D01*
X114857832Y-91187445D01*
X114853947Y-91185270D01*
X114849789Y-91183662D01*
X114849784Y-91183659D01*
X114593885Y-91084659D01*
X114593879Y-91084657D01*
X114589730Y-91083052D01*
X114585398Y-91082048D01*
X114585395Y-91082047D01*
X114510141Y-91064604D01*
X114313747Y-91019082D01*
X114031503Y-90994637D01*
X114027068Y-90994881D01*
X114027064Y-90994881D01*
X113753073Y-91009960D01*
X113753066Y-91009961D01*
X113748630Y-91010205D01*
X113610743Y-91037632D01*
X113475146Y-91064604D01*
X113475141Y-91064605D01*
X113470774Y-91065474D01*
X113466571Y-91066950D01*
X113207684Y-91157864D01*
X113207681Y-91157865D01*
X113203476Y-91159342D01*
X113199523Y-91161395D01*
X113199517Y-91161398D01*
X113118243Y-91203617D01*
X112952072Y-91289936D01*
X112948457Y-91292519D01*
X112948451Y-91292523D01*
X112901048Y-91326398D01*
X112721576Y-91454651D01*
X112718349Y-91457729D01*
X112718347Y-91457731D01*
X112619705Y-91551831D01*
X112516588Y-91650199D01*
X112341199Y-91872680D01*
X112310612Y-91925340D01*
X112201141Y-92113807D01*
X112201138Y-92113813D01*
X112198907Y-92117654D01*
X112092552Y-92380232D01*
X112091481Y-92384545D01*
X112091479Y-92384550D01*
X112025328Y-92650856D01*
X112024255Y-92655177D01*
X112023801Y-92659605D01*
X112023801Y-92659607D01*
X112017879Y-92717407D01*
X111995380Y-92937002D01*
X110203596Y-92937002D01*
X110218493Y-92633760D01*
X110219704Y-92621461D01*
X110221106Y-92612013D01*
X110272598Y-92264878D01*
X110275009Y-92252753D01*
X110362603Y-91903060D01*
X110366193Y-91891228D01*
X110487632Y-91551831D01*
X110492363Y-91540407D01*
X110646494Y-91214522D01*
X110652323Y-91203617D01*
X110662015Y-91187448D01*
X110837651Y-90894417D01*
X110844521Y-90884136D01*
X110921058Y-90780938D01*
X111059264Y-90594589D01*
X111067089Y-90585052D01*
X111309196Y-90317929D01*
X111317929Y-90309196D01*
X111585052Y-90067089D01*
X111594589Y-90059264D01*
X111884136Y-89844521D01*
X111894417Y-89837651D01*
X112203617Y-89652323D01*
X112214518Y-89646496D01*
X112313556Y-89599655D01*
X112540407Y-89492363D01*
X112551831Y-89487632D01*
X112891228Y-89366193D01*
X112903060Y-89362603D01*
X113076923Y-89319052D01*
X113252756Y-89275008D01*
X113264878Y-89272598D01*
X113621466Y-89219704D01*
X113633760Y-89218493D01*
X113926710Y-89204100D01*
X113963806Y-89202278D01*
X113971622Y-89202971D01*
X113971623Y-89202451D01*
X113985812Y-89202476D01*
X113999641Y-89205656D01*
X114013480Y-89202525D01*
X114018311Y-89202533D01*
X114036504Y-89200500D01*
X180962920Y-89200500D01*
X180980242Y-89202466D01*
G37*
%TD.AperFunction*%
%TD*%
M02*
