%TF.GenerationSoftware,KiCad,Pcbnew,(6.0.2)*%
%TF.CreationDate,2022-05-06T23:20:48+08:00*%
%TF.ProjectId,NoiseAMP_V2.3,4e6f6973-6541-44d5-905f-56322e332e6b,rev?*%
%TF.SameCoordinates,Original*%
%TF.FileFunction,Legend,Bot*%
%TF.FilePolarity,Positive*%
%FSLAX46Y46*%
G04 Gerber Fmt 4.6, Leading zero omitted, Abs format (unit mm)*
G04 Created by KiCad (PCBNEW (6.0.2)) date 2022-05-06 23:20:48*
%MOMM*%
%LPD*%
G01*
G04 APERTURE LIST*
%ADD10C,0.120000*%
G04 APERTURE END LIST*
D10*
%TO.C,C52*%
X132454764Y-102916400D02*
X132670436Y-102916400D01*
X132454764Y-103636400D02*
X132670436Y-103636400D01*
%TO.C,C55*%
X158705436Y-87828800D02*
X158489764Y-87828800D01*
X158705436Y-88548800D02*
X158489764Y-88548800D01*
%TO.C,C50*%
X132454764Y-82071800D02*
X132670436Y-82071800D01*
X132454764Y-81351800D02*
X132670436Y-81351800D01*
%TO.C,C34*%
X117460896Y-103563999D02*
X117460896Y-100143999D01*
X117460896Y-100143999D02*
X124220896Y-100143999D01*
X124220896Y-103563999D02*
X117460896Y-103563999D01*
%TO.C,C48*%
X165303252Y-116352111D02*
X163880748Y-116352111D01*
X165303252Y-118172111D02*
X163880748Y-118172111D01*
%TO.C,C54*%
X151913000Y-86671036D02*
X151913000Y-86455364D01*
X152633000Y-86671036D02*
X152633000Y-86455364D01*
%TO.C,C47*%
X165303252Y-113939111D02*
X163880748Y-113939111D01*
X165303252Y-115759111D02*
X163880748Y-115759111D01*
%TO.C,C51*%
X132454764Y-92223000D02*
X132670436Y-92223000D01*
X132454764Y-92943000D02*
X132670436Y-92943000D01*
%TO.C,C53*%
X132429364Y-114710800D02*
X132645036Y-114710800D01*
X132429364Y-113990800D02*
X132645036Y-113990800D01*
%TO.C,C30*%
X117460896Y-92523999D02*
X124220896Y-92523999D01*
X117460896Y-95943999D02*
X117460896Y-92523999D01*
X124220896Y-95943999D02*
X117460896Y-95943999D01*
%TO.C,C27*%
X117460896Y-92133999D02*
X117460896Y-88713999D01*
X117460896Y-88713999D02*
X124220896Y-88713999D01*
X124220896Y-92133999D02*
X117460896Y-92133999D01*
%TO.C,C31*%
X165280087Y-98954000D02*
X163857583Y-98954000D01*
X165280087Y-97134000D02*
X163857583Y-97134000D01*
%TO.C,C12*%
X165280087Y-84349000D02*
X163857583Y-84349000D01*
X165280087Y-82529000D02*
X163857583Y-82529000D01*
%TO.C,C29*%
X165280087Y-96541000D02*
X163857583Y-96541000D01*
X165280087Y-94721000D02*
X163857583Y-94721000D01*
%TO.C,C35*%
X124220896Y-107373999D02*
X117460896Y-107373999D01*
X117460896Y-107373999D02*
X117460896Y-103953999D01*
X117460896Y-103953999D02*
X124220896Y-103953999D01*
%TO.C,C11*%
X165280087Y-80116000D02*
X163857583Y-80116000D01*
X165280087Y-81936000D02*
X163857583Y-81936000D01*
%TO.C,C33*%
X165280087Y-101367000D02*
X163857583Y-101367000D01*
X165280087Y-99547000D02*
X163857583Y-99547000D01*
%TO.C,C10*%
X165280087Y-77703000D02*
X163857583Y-77703000D01*
X165280087Y-79523000D02*
X163857583Y-79523000D01*
%TO.C,C46*%
X165303252Y-113346111D02*
X163880748Y-113346111D01*
X165303252Y-111526111D02*
X163880748Y-111526111D01*
%TO.C,C32*%
X117460896Y-99753999D02*
X117460896Y-96333999D01*
X117460896Y-96333999D02*
X124220896Y-96333999D01*
X124220896Y-99753999D02*
X117460896Y-99753999D01*
%TD*%
M02*
