%TF.GenerationSoftware,KiCad,Pcbnew,(6.0.2)*%
%TF.CreationDate,2022-05-06T23:20:48+08:00*%
%TF.ProjectId,NoiseAMP_V2.3,4e6f6973-6541-44d5-905f-56322e332e6b,rev?*%
%TF.SameCoordinates,Original*%
%TF.FileFunction,Copper,L1,Top*%
%TF.FilePolarity,Positive*%
%FSLAX46Y46*%
G04 Gerber Fmt 4.6, Leading zero omitted, Abs format (unit mm)*
G04 Created by KiCad (PCBNEW (6.0.2)) date 2022-05-06 23:20:48*
%MOMM*%
%LPD*%
G01*
G04 APERTURE LIST*
G04 Aperture macros list*
%AMRoundRect*
0 Rectangle with rounded corners*
0 $1 Rounding radius*
0 $2 $3 $4 $5 $6 $7 $8 $9 X,Y pos of 4 corners*
0 Add a 4 corners polygon primitive as box body*
4,1,4,$2,$3,$4,$5,$6,$7,$8,$9,$2,$3,0*
0 Add four circle primitives for the rounded corners*
1,1,$1+$1,$2,$3*
1,1,$1+$1,$4,$5*
1,1,$1+$1,$6,$7*
1,1,$1+$1,$8,$9*
0 Add four rect primitives between the rounded corners*
20,1,$1+$1,$2,$3,$4,$5,0*
20,1,$1+$1,$4,$5,$6,$7,0*
20,1,$1+$1,$6,$7,$8,$9,0*
20,1,$1+$1,$8,$9,$2,$3,0*%
G04 Aperture macros list end*
%TA.AperFunction,SMDPad,CuDef*%
%ADD10C,1.000000*%
%TD*%
%TA.AperFunction,SMDPad,CuDef*%
%ADD11RoundRect,0.250000X0.250000X0.475000X-0.250000X0.475000X-0.250000X-0.475000X0.250000X-0.475000X0*%
%TD*%
%TA.AperFunction,SMDPad,CuDef*%
%ADD12RoundRect,0.062500X-0.425000X-0.062500X0.425000X-0.062500X0.425000X0.062500X-0.425000X0.062500X0*%
%TD*%
%TA.AperFunction,SMDPad,CuDef*%
%ADD13R,1.200000X2.000000*%
%TD*%
%TA.AperFunction,ConnectorPad*%
%ADD14C,6.400000*%
%TD*%
%TA.AperFunction,ComponentPad*%
%ADD15C,3.600000*%
%TD*%
%TA.AperFunction,SMDPad,CuDef*%
%ADD16RoundRect,0.140000X-0.140000X-0.170000X0.140000X-0.170000X0.140000X0.170000X-0.140000X0.170000X0*%
%TD*%
%TA.AperFunction,SMDPad,CuDef*%
%ADD17RoundRect,0.135000X-0.185000X0.135000X-0.185000X-0.135000X0.185000X-0.135000X0.185000X0.135000X0*%
%TD*%
%TA.AperFunction,SMDPad,CuDef*%
%ADD18RoundRect,0.140000X0.140000X0.170000X-0.140000X0.170000X-0.140000X-0.170000X0.140000X-0.170000X0*%
%TD*%
%TA.AperFunction,SMDPad,CuDef*%
%ADD19RoundRect,0.135000X0.185000X-0.135000X0.185000X0.135000X-0.185000X0.135000X-0.185000X-0.135000X0*%
%TD*%
%TA.AperFunction,SMDPad,CuDef*%
%ADD20RoundRect,0.250000X-0.787500X-0.925000X0.787500X-0.925000X0.787500X0.925000X-0.787500X0.925000X0*%
%TD*%
%TA.AperFunction,SMDPad,CuDef*%
%ADD21RoundRect,0.062500X-0.062500X0.425000X-0.062500X-0.425000X0.062500X-0.425000X0.062500X0.425000X0*%
%TD*%
%TA.AperFunction,SMDPad,CuDef*%
%ADD22R,2.000000X1.200000*%
%TD*%
%TA.AperFunction,SMDPad,CuDef*%
%ADD23RoundRect,0.250000X0.325000X0.650000X-0.325000X0.650000X-0.325000X-0.650000X0.325000X-0.650000X0*%
%TD*%
%TA.AperFunction,SMDPad,CuDef*%
%ADD24RoundRect,0.250000X-0.450000X-0.425000X0.450000X-0.425000X0.450000X0.425000X-0.450000X0.425000X0*%
%TD*%
%TA.AperFunction,SMDPad,CuDef*%
%ADD25RoundRect,0.135000X-0.135000X-0.185000X0.135000X-0.185000X0.135000X0.185000X-0.135000X0.185000X0*%
%TD*%
%TA.AperFunction,SMDPad,CuDef*%
%ADD26RoundRect,0.250000X0.450000X0.425000X-0.450000X0.425000X-0.450000X-0.425000X0.450000X-0.425000X0*%
%TD*%
%TA.AperFunction,SMDPad,CuDef*%
%ADD27RoundRect,0.135000X0.135000X0.185000X-0.135000X0.185000X-0.135000X-0.185000X0.135000X-0.185000X0*%
%TD*%
%TA.AperFunction,SMDPad,CuDef*%
%ADD28RoundRect,0.140000X-0.170000X0.140000X-0.170000X-0.140000X0.170000X-0.140000X0.170000X0.140000X0*%
%TD*%
%TA.AperFunction,ComponentPad*%
%ADD29C,1.440000*%
%TD*%
%TA.AperFunction,SMDPad,CuDef*%
%ADD30R,1.000000X1.000000*%
%TD*%
%TA.AperFunction,SMDPad,CuDef*%
%ADD31R,2.200000X1.050000*%
%TD*%
%TA.AperFunction,SMDPad,CuDef*%
%ADD32RoundRect,0.250000X0.425000X-0.450000X0.425000X0.450000X-0.425000X0.450000X-0.425000X-0.450000X0*%
%TD*%
%TA.AperFunction,ComponentPad*%
%ADD33RoundRect,0.250000X0.600000X0.725000X-0.600000X0.725000X-0.600000X-0.725000X0.600000X-0.725000X0*%
%TD*%
%TA.AperFunction,ComponentPad*%
%ADD34O,1.700000X1.950000*%
%TD*%
%TA.AperFunction,ViaPad*%
%ADD35C,0.603000*%
%TD*%
%TA.AperFunction,ViaPad*%
%ADD36C,0.800000*%
%TD*%
%TA.AperFunction,Conductor*%
%ADD37C,0.250000*%
%TD*%
%TA.AperFunction,Conductor*%
%ADD38C,0.400000*%
%TD*%
%TA.AperFunction,Conductor*%
%ADD39C,0.600000*%
%TD*%
%TA.AperFunction,Conductor*%
%ADD40C,0.500000*%
%TD*%
G04 APERTURE END LIST*
D10*
%TO.P,TP4,1,1*%
%TO.N,Net-(R1-Pad1)*%
X144170400Y-90525600D03*
%TD*%
%TO.P,TP3,1,1*%
%TO.N,Net-(R22-Pad2)*%
X155702000Y-108102400D03*
%TD*%
%TO.P,TP2,1,1*%
%TO.N,Net-(R5-Pad1)*%
X154584400Y-94183200D03*
%TD*%
%TO.P,TP1,1,1*%
%TO.N,Net-(C2-Pad2)*%
X145669000Y-85471000D03*
%TD*%
D11*
%TO.P,C3,1*%
%TO.N,Net-(C3-Pad1)*%
X150810000Y-87630000D03*
%TO.P,C3,2*%
%TO.N,Net-(C2-Pad1)*%
X148910000Y-87630000D03*
%TD*%
%TO.P,C2,1*%
%TO.N,Net-(C2-Pad1)*%
X147381000Y-87630000D03*
%TO.P,C2,2*%
%TO.N,Net-(C2-Pad2)*%
X145481000Y-87630000D03*
%TD*%
D12*
%TO.P,U5,1*%
%TO.N,Net-(C19-Pad1)*%
X155838500Y-98945000D03*
%TO.P,U5,2,-*%
X155838500Y-99445000D03*
%TO.P,U5,3,+*%
%TO.N,Net-(C28-Pad1)*%
X155838500Y-99945000D03*
%TO.P,U5,4,V-*%
%TO.N,VSS*%
X155838500Y-100445000D03*
%TO.P,U5,5,+*%
%TO.N,Net-(C25-Pad1)*%
X158613500Y-100445000D03*
%TO.P,U5,6,-*%
%TO.N,Net-(C16-Pad2)*%
X158613500Y-99945000D03*
%TO.P,U5,7*%
X158613500Y-99445000D03*
%TO.P,U5,8,V+*%
%TO.N,VDD*%
X158613500Y-98945000D03*
D13*
%TO.P,U5,9,EP*%
%TO.N,VSS*%
X157226000Y-99695000D03*
%TD*%
D12*
%TO.P,U8,1*%
%TO.N,Net-(C40-Pad1)*%
X155838500Y-113931000D03*
%TO.P,U8,2,-*%
X155838500Y-114431000D03*
%TO.P,U8,3,+*%
%TO.N,Net-(C45-Pad1)*%
X155838500Y-114931000D03*
%TO.P,U8,4,V-*%
%TO.N,VSS*%
X155838500Y-115431000D03*
%TO.P,U8,5,+*%
%TO.N,Net-(C43-Pad1)*%
X158613500Y-115431000D03*
%TO.P,U8,6,-*%
%TO.N,Net-(C37-Pad2)*%
X158613500Y-114931000D03*
%TO.P,U8,7*%
X158613500Y-114431000D03*
%TO.P,U8,8,V+*%
%TO.N,VDD*%
X158613500Y-113931000D03*
D13*
%TO.P,U8,9,EP*%
%TO.N,VSS*%
X157226000Y-114681000D03*
%TD*%
D14*
%TO.P,H1,1*%
%TO.N,N/C*%
X116789200Y-79123000D03*
D15*
X116789200Y-79123000D03*
%TD*%
D16*
%TO.P,C57,1*%
%TO.N,VDD*%
X158701800Y-112193800D03*
%TO.P,C57,2*%
%TO.N,GND*%
X159661800Y-112193800D03*
%TD*%
D17*
%TO.P,R18,1*%
%TO.N,Net-(C13-Pad1)*%
X131380896Y-95373000D03*
%TO.P,R18,2*%
%TO.N,Net-(R17-Pad1)*%
X131380896Y-96393000D03*
%TD*%
D18*
%TO.P,C38,1*%
%TO.N,Net-(C37-Pad2)*%
X157671610Y-112202319D03*
%TO.P,C38,2*%
%TO.N,Net-(C38-Pad2)*%
X156711610Y-112202319D03*
%TD*%
D19*
%TO.P,R37,1*%
%TO.N,Net-(C39-Pad1)*%
X131888896Y-111128999D03*
%TO.P,R37,2*%
%TO.N,Net-(R32-Pad1)*%
X131888896Y-110108999D03*
%TD*%
D16*
%TO.P,C63,1*%
%TO.N,GND*%
X126748600Y-78689200D03*
%TO.P,C63,2*%
%TO.N,VSS*%
X127708600Y-78689200D03*
%TD*%
D20*
%TO.P,C7,1*%
%TO.N,Net-(C7-Pad1)*%
X133998396Y-90043000D03*
%TO.P,C7,2*%
%TO.N,Net-(C7-Pad2)*%
X138923396Y-90043000D03*
%TD*%
D21*
%TO.P,U4,1*%
%TO.N,Net-(C7-Pad1)*%
X131114896Y-90943499D03*
%TO.P,U4,2,-*%
%TO.N,Net-(R13-Pad1)*%
X130614896Y-90943499D03*
%TO.P,U4,3,+*%
%TO.N,Net-(C14-Pad2)*%
X130114896Y-90943499D03*
%TO.P,U4,4,V-*%
%TO.N,VSS*%
X129614896Y-90943499D03*
%TO.P,U4,5,+*%
%TO.N,Net-(C14-Pad2)*%
X129614896Y-93718499D03*
%TO.P,U4,6,-*%
%TO.N,Net-(R17-Pad1)*%
X130114896Y-93718499D03*
%TO.P,U4,7*%
%TO.N,Net-(C13-Pad1)*%
X130614896Y-93718499D03*
%TO.P,U4,8,V+*%
%TO.N,VDD*%
X131114896Y-93718499D03*
D22*
%TO.P,U4,9,EP*%
%TO.N,VSS*%
X130364896Y-92330999D03*
%TD*%
D12*
%TO.P,U3,1*%
%TO.N,Net-(R22-Pad2)*%
X156473500Y-89905737D03*
%TO.P,U3,2,-*%
%TO.N,Net-(R2-Pad1)*%
X156473500Y-90405737D03*
%TO.P,U3,3,+*%
%TO.N,GND*%
X156473500Y-90905737D03*
%TO.P,U3,4,V-*%
%TO.N,VSS*%
X156473500Y-91405737D03*
%TO.P,U3,5,+*%
%TO.N,Net-(R22-Pad2)*%
X159248500Y-91405737D03*
%TO.P,U3,6,-*%
%TO.N,Net-(C10-Pad2)*%
X159248500Y-90905737D03*
%TO.P,U3,7*%
X159248500Y-90405737D03*
%TO.P,U3,8,V+*%
%TO.N,VDD*%
X159248500Y-89905737D03*
D13*
%TO.P,U3,9,EP*%
%TO.N,VSS*%
X157861000Y-90655737D03*
%TD*%
D23*
%TO.P,C20,1*%
%TO.N,Net-(C16-Pad1)*%
X166043835Y-96901000D03*
%TO.P,C20,2*%
%TO.N,Net-(C16-Pad2)*%
X163093835Y-96901000D03*
%TD*%
D20*
%TO.P,C21,1*%
%TO.N,Net-(C14-Pad1)*%
X118758396Y-101853999D03*
%TO.P,C21,2*%
%TO.N,Net-(C14-Pad2)*%
X123683396Y-101853999D03*
%TD*%
D16*
%TO.P,C43,1*%
%TO.N,Net-(C43-Pad1)*%
X159159000Y-117094000D03*
%TO.P,C43,2*%
%TO.N,GND*%
X160119000Y-117094000D03*
%TD*%
D23*
%TO.P,C23,1*%
%TO.N,Net-(C16-Pad1)*%
X166043835Y-99314000D03*
%TO.P,C23,2*%
%TO.N,Net-(C16-Pad2)*%
X163093835Y-99314000D03*
%TD*%
D24*
%TO.P,C60,1*%
%TO.N,VDD*%
X157222200Y-95656400D03*
%TO.P,C60,2*%
%TO.N,GND*%
X159922200Y-95656400D03*
%TD*%
D25*
%TO.P,R22,1*%
%TO.N,Net-(C19-Pad2)*%
X154677610Y-96268000D03*
%TO.P,R22,2*%
%TO.N,Net-(R22-Pad2)*%
X155697610Y-96268000D03*
%TD*%
D15*
%TO.P,H3,1*%
%TO.N,N/C*%
X174747228Y-79044800D03*
D14*
X174747228Y-79044800D03*
%TD*%
D20*
%TO.P,C18,1*%
%TO.N,Net-(C14-Pad1)*%
X118758396Y-98043999D03*
%TO.P,C18,2*%
%TO.N,Net-(C14-Pad2)*%
X123683396Y-98043999D03*
%TD*%
D19*
%TO.P,R25,1*%
%TO.N,Net-(C22-Pad1)*%
X131888896Y-100198999D03*
%TO.P,R25,2*%
%TO.N,Net-(R24-Pad1)*%
X131888896Y-99178999D03*
%TD*%
%TO.P,R4,1*%
%TO.N,Net-(R4-Pad1)*%
X130876896Y-78615000D03*
%TO.P,R4,2*%
%TO.N,GND*%
X130876896Y-77595000D03*
%TD*%
D24*
%TO.P,C74,1*%
%TO.N,GND*%
X153209000Y-104013000D03*
%TO.P,C74,2*%
%TO.N,VSS*%
X155909000Y-104013000D03*
%TD*%
D20*
%TO.P,C1,1*%
%TO.N,Net-(C1-Pad1)*%
X133998396Y-79375000D03*
%TO.P,C1,2*%
%TO.N,Net-(C1-Pad2)*%
X138923396Y-79375000D03*
%TD*%
D26*
%TO.P,C73,1*%
%TO.N,GND*%
X150727400Y-93573600D03*
%TO.P,C73,2*%
%TO.N,VSS*%
X148027400Y-93573600D03*
%TD*%
D19*
%TO.P,R24,1*%
%TO.N,Net-(R24-Pad1)*%
X130872896Y-100198999D03*
%TO.P,R24,2*%
%TO.N,GND*%
X130872896Y-99178999D03*
%TD*%
D23*
%TO.P,C5,1*%
%TO.N,Net-(C10-Pad1)*%
X166043835Y-78699030D03*
%TO.P,C5,2*%
%TO.N,Net-(C10-Pad2)*%
X163093835Y-78699030D03*
%TD*%
D21*
%TO.P,U7,1*%
%TO.N,Net-(C39-Pad1)*%
X131114896Y-112787499D03*
%TO.P,U7,2,-*%
%TO.N,Net-(R32-Pad1)*%
X130614896Y-112787499D03*
%TO.P,U7,3,+*%
%TO.N,Net-(C14-Pad2)*%
X130114896Y-112787499D03*
%TO.P,U7,4,V-*%
%TO.N,VSS*%
X129614896Y-112787499D03*
%TO.P,U7,5,+*%
%TO.N,Net-(C14-Pad2)*%
X129614896Y-115562499D03*
%TO.P,U7,6,-*%
%TO.N,Net-(R39-Pad1)*%
X130114896Y-115562499D03*
%TO.P,U7,7*%
%TO.N,Net-(C49-Pad1)*%
X130614896Y-115562499D03*
%TO.P,U7,8,V+*%
%TO.N,VDD*%
X131114896Y-115562499D03*
D22*
%TO.P,U7,9,EP*%
%TO.N,VSS*%
X130364896Y-114174999D03*
%TD*%
D17*
%TO.P,R31,1*%
%TO.N,Net-(C39-Pad2)*%
X141032896Y-112137001D03*
%TO.P,R31,2*%
%TO.N,Net-(R1-Pad1)*%
X141032896Y-113157001D03*
%TD*%
D20*
%TO.P,C36,1*%
%TO.N,Net-(C36-Pad1)*%
X133998396Y-105537000D03*
%TO.P,C36,2*%
%TO.N,Net-(C36-Pad2)*%
X138923396Y-105537000D03*
%TD*%
D27*
%TO.P,R29,1*%
%TO.N,Net-(C14-Pad2)*%
X126836296Y-96646999D03*
%TO.P,R29,2*%
%TO.N,GND*%
X125816296Y-96646999D03*
%TD*%
D20*
%TO.P,C24,1*%
%TO.N,Net-(C14-Pad1)*%
X118758396Y-105663999D03*
%TO.P,C24,2*%
%TO.N,Net-(C14-Pad2)*%
X123683396Y-105663999D03*
%TD*%
D19*
%TO.P,R1,1*%
%TO.N,Net-(R1-Pad1)*%
X146177000Y-90530737D03*
%TO.P,R1,2*%
%TO.N,Net-(C2-Pad2)*%
X146177000Y-89510737D03*
%TD*%
%TO.P,R13,1*%
%TO.N,Net-(R13-Pad1)*%
X130876896Y-89284999D03*
%TO.P,R13,2*%
%TO.N,GND*%
X130876896Y-88264999D03*
%TD*%
D20*
%TO.P,C49,1*%
%TO.N,Net-(C49-Pad1)*%
X133998396Y-116458999D03*
%TO.P,C49,2*%
%TO.N,Net-(C49-Pad2)*%
X138923396Y-116458999D03*
%TD*%
D23*
%TO.P,C9,1*%
%TO.N,Net-(C10-Pad1)*%
X166043835Y-85938030D03*
%TO.P,C9,2*%
%TO.N,Net-(C10-Pad2)*%
X163093835Y-85938030D03*
%TD*%
D27*
%TO.P,R20,1*%
%TO.N,Net-(C25-Pad1)*%
X158167800Y-102108000D03*
%TO.P,R20,2*%
%TO.N,Net-(C17-Pad2)*%
X157147800Y-102108000D03*
%TD*%
D28*
%TO.P,C64,1*%
%TO.N,GND*%
X128844896Y-88294999D03*
%TO.P,C64,2*%
%TO.N,VSS*%
X128844896Y-89254999D03*
%TD*%
D15*
%TO.P,H4,1*%
%TO.N,N/C*%
X174747228Y-116990259D03*
D14*
X174747228Y-116990259D03*
%TD*%
D17*
%TO.P,R30,1*%
%TO.N,Net-(C36-Pad1)*%
X131380896Y-106294999D03*
%TO.P,R30,2*%
%TO.N,Net-(R28-Pad1)*%
X131380896Y-107314999D03*
%TD*%
%TO.P,R28,1*%
%TO.N,Net-(R28-Pad1)*%
X130364896Y-106294999D03*
%TO.P,R28,2*%
%TO.N,GND*%
X130364896Y-107314999D03*
%TD*%
%TO.P,R21,1*%
%TO.N,Net-(C22-Pad2)*%
X141032896Y-101217000D03*
%TO.P,R21,2*%
%TO.N,Net-(R1-Pad1)*%
X141032896Y-102237000D03*
%TD*%
D24*
%TO.P,C58,1*%
%TO.N,VDD*%
X134094896Y-86869999D03*
%TO.P,C58,2*%
%TO.N,GND*%
X136794896Y-86869999D03*
%TD*%
D20*
%TO.P,C39,1*%
%TO.N,Net-(C39-Pad1)*%
X133998396Y-111887000D03*
%TO.P,C39,2*%
%TO.N,Net-(C39-Pad2)*%
X138923396Y-111887000D03*
%TD*%
D17*
%TO.P,R40,1*%
%TO.N,Net-(C37-Pad1)*%
X167790165Y-118274112D03*
%TO.P,R40,2*%
%TO.N,GND*%
X167790165Y-119294112D03*
%TD*%
%TO.P,R41,1*%
%TO.N,Net-(C49-Pad1)*%
X131380896Y-117216999D03*
%TO.P,R41,2*%
%TO.N,Net-(R39-Pad1)*%
X131380896Y-118236999D03*
%TD*%
D29*
%TO.P,RV1,1,1*%
%TO.N,Net-(R2-Pad2)*%
X154295000Y-85933478D03*
%TO.P,RV1,2,2*%
%TO.N,Net-(R22-Pad2)*%
X156835000Y-85933478D03*
%TO.P,RV1,3,3*%
X159375000Y-85933478D03*
%TD*%
D28*
%TO.P,C67,1*%
%TO.N,GND*%
X146177000Y-91468000D03*
%TO.P,C67,2*%
%TO.N,VSS*%
X146177000Y-92428000D03*
%TD*%
D16*
%TO.P,C56,1*%
%TO.N,VDD*%
X158600200Y-97284000D03*
%TO.P,C56,2*%
%TO.N,GND*%
X159560200Y-97284000D03*
%TD*%
D21*
%TO.P,U1,1*%
%TO.N,Net-(C1-Pad1)*%
X131114896Y-80275499D03*
%TO.P,U1,2,-*%
%TO.N,Net-(R4-Pad1)*%
X130614896Y-80275499D03*
%TO.P,U1,3,+*%
%TO.N,Net-(C14-Pad2)*%
X130114896Y-80275499D03*
%TO.P,U1,4,V-*%
%TO.N,VSS*%
X129614896Y-80275499D03*
%TO.P,U1,5,+*%
%TO.N,Net-(C14-Pad2)*%
X129614896Y-83050499D03*
%TO.P,U1,6,-*%
%TO.N,Net-(R10-Pad1)*%
X130114896Y-83050499D03*
%TO.P,U1,7*%
%TO.N,Net-(C4-Pad1)*%
X130614896Y-83050499D03*
%TO.P,U1,8,V+*%
%TO.N,VDD*%
X131114896Y-83050499D03*
D22*
%TO.P,U1,9,EP*%
%TO.N,VSS*%
X130364896Y-81662999D03*
%TD*%
D19*
%TO.P,R2,1*%
%TO.N,Net-(R2-Pad1)*%
X154559000Y-90530737D03*
%TO.P,R2,2*%
%TO.N,Net-(R2-Pad2)*%
X154559000Y-89510737D03*
%TD*%
D25*
%TO.P,R35,1*%
%TO.N,Net-(C40-Pad2)*%
X154700410Y-111186319D03*
%TO.P,R35,2*%
%TO.N,Net-(R22-Pad2)*%
X155720410Y-111186319D03*
%TD*%
%TO.P,R6,1*%
%TO.N,Net-(R5-Pad1)*%
X152525000Y-90528737D03*
%TO.P,R6,2*%
%TO.N,Net-(R2-Pad1)*%
X153545000Y-90528737D03*
%TD*%
D17*
%TO.P,R3,1*%
%TO.N,Net-(C1-Pad2)*%
X141032896Y-79628999D03*
%TO.P,R3,2*%
%TO.N,Net-(R1-Pad1)*%
X141032896Y-80648999D03*
%TD*%
D24*
%TO.P,C59,1*%
%TO.N,VDD*%
X134094896Y-108688599D03*
%TO.P,C59,2*%
%TO.N,GND*%
X136794896Y-108688599D03*
%TD*%
D30*
%TO.P,J3,1,In*%
%TO.N,Net-(C16-Pad1)*%
X171677200Y-98264886D03*
%TO.P,J3,2,Ext*%
%TO.N,GND*%
X174677200Y-98264886D03*
D31*
X173177200Y-96789886D03*
X173177200Y-99739886D03*
%TD*%
D18*
%TO.P,C45,2*%
%TO.N,GND*%
X152682000Y-115951000D03*
%TO.P,C45,1*%
%TO.N,Net-(C45-Pad1)*%
X153642000Y-115951000D03*
%TD*%
D23*
%TO.P,C6,1*%
%TO.N,Net-(C10-Pad1)*%
X166043835Y-81112030D03*
%TO.P,C6,2*%
%TO.N,Net-(C10-Pad2)*%
X163093835Y-81112030D03*
%TD*%
D20*
%TO.P,C14,1*%
%TO.N,Net-(C14-Pad1)*%
X118758396Y-90423999D03*
%TO.P,C14,2*%
%TO.N,Net-(C14-Pad2)*%
X123683396Y-90423999D03*
%TD*%
D32*
%TO.P,C62,1*%
%TO.N,VDD*%
X159181800Y-110648200D03*
%TO.P,C62,2*%
%TO.N,GND*%
X159181800Y-107948200D03*
%TD*%
D19*
%TO.P,R9,1*%
%TO.N,Net-(C4-Pad2)*%
X141032896Y-83441000D03*
%TO.P,R9,2*%
%TO.N,Net-(R1-Pad1)*%
X141032896Y-82421000D03*
%TD*%
D23*
%TO.P,C44,1*%
%TO.N,Net-(C37-Pad1)*%
X166067000Y-118532111D03*
%TO.P,C44,2*%
%TO.N,Net-(C37-Pad2)*%
X163117000Y-118532111D03*
%TD*%
D19*
%TO.P,R27,1*%
%TO.N,Net-(C36-Pad2)*%
X141032896Y-105286999D03*
%TO.P,R27,2*%
%TO.N,Net-(R1-Pad1)*%
X141032896Y-104266999D03*
%TD*%
D27*
%TO.P,R23,1*%
%TO.N,Net-(C28-Pad1)*%
X153649200Y-99974400D03*
%TO.P,R23,2*%
%TO.N,Net-(C19-Pad2)*%
X152629200Y-99974400D03*
%TD*%
D25*
%TO.P,R5,1*%
%TO.N,Net-(R5-Pad1)*%
X152525000Y-89535000D03*
%TO.P,R5,2*%
%TO.N,Net-(C2-Pad1)*%
X153545000Y-89535000D03*
%TD*%
D23*
%TO.P,C26,1*%
%TO.N,Net-(C16-Pad1)*%
X166043835Y-101727000D03*
%TO.P,C26,2*%
%TO.N,Net-(C16-Pad2)*%
X163093835Y-101727000D03*
%TD*%
D17*
%TO.P,R12,1*%
%TO.N,Net-(C7-Pad2)*%
X141032896Y-90295000D03*
%TO.P,R12,2*%
%TO.N,Net-(R1-Pad1)*%
X141032896Y-91315000D03*
%TD*%
D12*
%TO.P,U2,1*%
%TO.N,Net-(C2-Pad2)*%
X147964500Y-89778737D03*
%TO.P,U2,2,-*%
%TO.N,Net-(R1-Pad1)*%
X147964500Y-90278737D03*
%TO.P,U2,3,+*%
%TO.N,GND*%
X147964500Y-90778737D03*
%TO.P,U2,4,V-*%
%TO.N,VSS*%
X147964500Y-91278737D03*
%TO.P,U2,5,+*%
%TO.N,Net-(C3-Pad1)*%
X150739500Y-91278737D03*
%TO.P,U2,6,-*%
%TO.N,Net-(R5-Pad1)*%
X150739500Y-90778737D03*
%TO.P,U2,7*%
X150739500Y-90278737D03*
%TO.P,U2,8,V+*%
%TO.N,VDD*%
X150739500Y-89778737D03*
D13*
%TO.P,U2,9,EP*%
%TO.N,VSS*%
X149352000Y-90528737D03*
%TD*%
D18*
%TO.P,C40,2*%
%TO.N,Net-(C40-Pad2)*%
X152682000Y-113523119D03*
%TO.P,C40,1*%
%TO.N,Net-(C40-Pad1)*%
X153642000Y-113523119D03*
%TD*%
D16*
%TO.P,C69,1*%
%TO.N,GND*%
X152682000Y-102006400D03*
%TO.P,C69,2*%
%TO.N,VSS*%
X153642000Y-102006400D03*
%TD*%
D20*
%TO.P,C4,1*%
%TO.N,Net-(C4-Pad1)*%
X133998396Y-83692999D03*
%TO.P,C4,2*%
%TO.N,Net-(C4-Pad2)*%
X138923396Y-83692999D03*
%TD*%
D16*
%TO.P,C70,2*%
%TO.N,VSS*%
X153650990Y-116958481D03*
%TO.P,C70,1*%
%TO.N,GND*%
X152690990Y-116958481D03*
%TD*%
D32*
%TO.P,C72,1*%
%TO.N,GND*%
X127240696Y-115548399D03*
%TO.P,C72,2*%
%TO.N,VSS*%
X127240696Y-112848399D03*
%TD*%
D19*
%TO.P,R7,1*%
%TO.N,Net-(C1-Pad1)*%
X131892896Y-78616999D03*
%TO.P,R7,2*%
%TO.N,Net-(R4-Pad1)*%
X131892896Y-77596999D03*
%TD*%
D23*
%TO.P,C42,1*%
%TO.N,Net-(C37-Pad1)*%
X166067000Y-116119111D03*
%TO.P,C42,2*%
%TO.N,Net-(C37-Pad2)*%
X163117000Y-116119111D03*
%TD*%
D16*
%TO.P,C25,1*%
%TO.N,Net-(C25-Pad1)*%
X159159000Y-102108000D03*
%TO.P,C25,2*%
%TO.N,GND*%
X160119000Y-102108000D03*
%TD*%
D17*
%TO.P,R8,1*%
%TO.N,Net-(C3-Pad1)*%
X152527000Y-91669737D03*
%TO.P,R8,2*%
%TO.N,GND*%
X152527000Y-92689737D03*
%TD*%
%TO.P,R11,1*%
%TO.N,Net-(C4-Pad1)*%
X131380896Y-84732399D03*
%TO.P,R11,2*%
%TO.N,Net-(R10-Pad1)*%
X131380896Y-85752399D03*
%TD*%
D27*
%TO.P,R19,1*%
%TO.N,Net-(C17-Pad2)*%
X155697610Y-97284000D03*
%TO.P,R19,2*%
%TO.N,Net-(C19-Pad1)*%
X154677610Y-97284000D03*
%TD*%
D19*
%TO.P,R38,1*%
%TO.N,Net-(C49-Pad2)*%
X141032896Y-115953000D03*
%TO.P,R38,2*%
%TO.N,Net-(R1-Pad1)*%
X141032896Y-114933000D03*
%TD*%
D27*
%TO.P,R34,1*%
%TO.N,Net-(C43-Pad1)*%
X158117000Y-117094000D03*
%TO.P,R34,2*%
%TO.N,Net-(C38-Pad2)*%
X157097000Y-117094000D03*
%TD*%
D18*
%TO.P,C28,1*%
%TO.N,Net-(C28-Pad1)*%
X153642000Y-100990400D03*
%TO.P,C28,2*%
%TO.N,GND*%
X152682000Y-100990400D03*
%TD*%
D28*
%TO.P,C66,1*%
%TO.N,GND*%
X128840896Y-110138999D03*
%TO.P,C66,2*%
%TO.N,VSS*%
X128840896Y-111098999D03*
%TD*%
D15*
%TO.P,H2,1*%
%TO.N,N/C*%
X116789200Y-116842000D03*
D14*
X116789200Y-116842000D03*
%TD*%
D28*
%TO.P,C68,1*%
%TO.N,GND*%
X154559000Y-91671200D03*
%TO.P,C68,2*%
%TO.N,VSS*%
X154559000Y-92631200D03*
%TD*%
D17*
%TO.P,R26,1*%
%TO.N,Net-(C16-Pad1)*%
X167767000Y-101471000D03*
%TO.P,R26,2*%
%TO.N,GND*%
X167767000Y-102491000D03*
%TD*%
D19*
%TO.P,R15,1*%
%TO.N,Net-(C13-Pad2)*%
X141032896Y-94363000D03*
%TO.P,R15,2*%
%TO.N,Net-(R1-Pad1)*%
X141032896Y-93343000D03*
%TD*%
D32*
%TO.P,C71,1*%
%TO.N,GND*%
X127189896Y-83036399D03*
%TO.P,C71,2*%
%TO.N,VSS*%
X127189896Y-80336399D03*
%TD*%
D20*
%TO.P,C22,1*%
%TO.N,Net-(C22-Pad1)*%
X133998396Y-100965000D03*
%TO.P,C22,2*%
%TO.N,Net-(C22-Pad2)*%
X138923396Y-100965000D03*
%TD*%
D19*
%TO.P,R32,1*%
%TO.N,Net-(R32-Pad1)*%
X130872896Y-111128999D03*
%TO.P,R32,2*%
%TO.N,GND*%
X130872896Y-110108999D03*
%TD*%
D23*
%TO.P,C8,1*%
%TO.N,Net-(C10-Pad1)*%
X166043835Y-83525030D03*
%TO.P,C8,2*%
%TO.N,Net-(C10-Pad2)*%
X163093835Y-83525030D03*
%TD*%
D30*
%TO.P,J4,1,In*%
%TO.N,Net-(C14-Pad1)*%
X114758600Y-97891600D03*
%TO.P,J4,2,Ext*%
%TO.N,GND*%
X111758600Y-97891600D03*
D31*
X113258600Y-99366600D03*
X113258600Y-96416600D03*
%TD*%
D19*
%TO.P,R14,1*%
%TO.N,Net-(C7-Pad1)*%
X131892896Y-89283000D03*
%TO.P,R14,2*%
%TO.N,Net-(R13-Pad1)*%
X131892896Y-88263000D03*
%TD*%
D18*
%TO.P,C17,1*%
%TO.N,Net-(C16-Pad2)*%
X157648810Y-97284000D03*
%TO.P,C17,2*%
%TO.N,Net-(C17-Pad2)*%
X156688810Y-97284000D03*
%TD*%
D23*
%TO.P,C41,1*%
%TO.N,Net-(C37-Pad1)*%
X166067000Y-113706111D03*
%TO.P,C41,2*%
%TO.N,Net-(C37-Pad2)*%
X163117000Y-113706111D03*
%TD*%
%TO.P,C16,1*%
%TO.N,Net-(C16-Pad1)*%
X166043835Y-94488000D03*
%TO.P,C16,2*%
%TO.N,Net-(C16-Pad2)*%
X163093835Y-94488000D03*
%TD*%
D20*
%TO.P,C15,1*%
%TO.N,Net-(C14-Pad1)*%
X118758396Y-94233999D03*
%TO.P,C15,2*%
%TO.N,Net-(C14-Pad2)*%
X123683396Y-94233999D03*
%TD*%
D30*
%TO.P,J5,1,In*%
%TO.N,Net-(C37-Pad1)*%
X171677200Y-108451382D03*
D31*
%TO.P,J5,2,Ext*%
%TO.N,GND*%
X173177200Y-109926382D03*
D30*
X174677200Y-108451382D03*
D31*
X173177200Y-106976382D03*
%TD*%
D18*
%TO.P,C19,1*%
%TO.N,Net-(C19-Pad1)*%
X153619200Y-98552000D03*
%TO.P,C19,2*%
%TO.N,Net-(C19-Pad2)*%
X152659200Y-98552000D03*
%TD*%
D27*
%TO.P,R36,2*%
%TO.N,Net-(C40-Pad2)*%
X152653999Y-114935000D03*
%TO.P,R36,1*%
%TO.N,Net-(C45-Pad1)*%
X153673999Y-114935000D03*
%TD*%
D17*
%TO.P,R10,1*%
%TO.N,Net-(R10-Pad1)*%
X130364896Y-84732399D03*
%TO.P,R10,2*%
%TO.N,GND*%
X130364896Y-85752399D03*
%TD*%
D27*
%TO.P,R33,1*%
%TO.N,Net-(C38-Pad2)*%
X155720410Y-112202319D03*
%TO.P,R33,2*%
%TO.N,Net-(C40-Pad1)*%
X154700410Y-112202319D03*
%TD*%
D21*
%TO.P,U6,1*%
%TO.N,Net-(C22-Pad1)*%
X131114896Y-101865499D03*
%TO.P,U6,2,-*%
%TO.N,Net-(R24-Pad1)*%
X130614896Y-101865499D03*
%TO.P,U6,3,+*%
%TO.N,Net-(C14-Pad2)*%
X130114896Y-101865499D03*
%TO.P,U6,4,V-*%
%TO.N,VSS*%
X129614896Y-101865499D03*
%TO.P,U6,5,+*%
%TO.N,Net-(C14-Pad2)*%
X129614896Y-104640499D03*
%TO.P,U6,6,-*%
%TO.N,Net-(R28-Pad1)*%
X130114896Y-104640499D03*
%TO.P,U6,7*%
%TO.N,Net-(C36-Pad1)*%
X130614896Y-104640499D03*
%TO.P,U6,8,V+*%
%TO.N,VDD*%
X131114896Y-104640499D03*
D22*
%TO.P,U6,9,EP*%
%TO.N,VSS*%
X130364896Y-103252999D03*
%TD*%
D24*
%TO.P,C75,1*%
%TO.N,GND*%
X153209000Y-119126000D03*
%TO.P,C75,2*%
%TO.N,VSS*%
X155909000Y-119126000D03*
%TD*%
D23*
%TO.P,C37,1*%
%TO.N,Net-(C37-Pad1)*%
X166067000Y-111252000D03*
%TO.P,C37,2*%
%TO.N,Net-(C37-Pad2)*%
X163117000Y-111252000D03*
%TD*%
D28*
%TO.P,C65,1*%
%TO.N,GND*%
X128840896Y-99238999D03*
%TO.P,C65,2*%
%TO.N,VSS*%
X128840896Y-100198999D03*
%TD*%
D33*
%TO.P,J1,1,Pin_1*%
%TO.N,VDD*%
X151471000Y-79392000D03*
D34*
%TO.P,J1,2,Pin_2*%
%TO.N,GND*%
X148971000Y-79392000D03*
%TO.P,J1,3,Pin_3*%
%TO.N,VSS*%
X146471000Y-79392000D03*
%TD*%
D17*
%TO.P,R39,1*%
%TO.N,Net-(R39-Pad1)*%
X130364896Y-117216999D03*
%TO.P,R39,2*%
%TO.N,GND*%
X130364896Y-118236999D03*
%TD*%
D30*
%TO.P,J2,1,In*%
%TO.N,Net-(C10-Pad1)*%
X171677200Y-88078390D03*
D31*
%TO.P,J2,2,Ext*%
%TO.N,GND*%
X173177200Y-89553390D03*
X173177200Y-86603390D03*
D30*
X174677200Y-88078390D03*
%TD*%
D17*
%TO.P,R16,1*%
%TO.N,Net-(C10-Pad1)*%
X167767000Y-85682030D03*
%TO.P,R16,2*%
%TO.N,GND*%
X167767000Y-86702030D03*
%TD*%
D20*
%TO.P,C13,1*%
%TO.N,Net-(C13-Pad1)*%
X133998396Y-94615000D03*
%TO.P,C13,2*%
%TO.N,Net-(C13-Pad2)*%
X138923396Y-94615000D03*
%TD*%
D17*
%TO.P,R17,1*%
%TO.N,Net-(R17-Pad1)*%
X130364896Y-95374999D03*
%TO.P,R17,2*%
%TO.N,GND*%
X130364896Y-96394999D03*
%TD*%
D24*
%TO.P,C61,1*%
%TO.N,VDD*%
X163216600Y-88341200D03*
%TO.P,C61,2*%
%TO.N,GND*%
X165916600Y-88341200D03*
%TD*%
D35*
%TO.N,Net-(R22-Pad2)*%
X161036000Y-91744800D03*
%TO.N,Net-(C3-Pad1)*%
X150739500Y-91957500D03*
X150749000Y-88773000D03*
%TO.N,GND*%
X152781000Y-84709000D03*
X157302200Y-88188800D03*
X158117600Y-87452200D03*
X152527000Y-94411800D03*
X160121600Y-102870000D03*
X160985200Y-102108000D03*
X160121600Y-101422200D03*
X160121600Y-117779800D03*
X160934400Y-117094000D03*
X160121600Y-116332000D03*
X154203400Y-104013000D03*
X154178000Y-119126000D03*
X152690990Y-118073010D03*
X152019000Y-119126000D03*
X152682000Y-116456400D03*
X152095200Y-115951000D03*
X160299400Y-112191800D03*
X160274000Y-107950000D03*
X159181800Y-106807000D03*
X152146000Y-104038400D03*
X153212800Y-105054400D03*
X152682000Y-101521200D03*
X152146000Y-100990400D03*
%TO.N,VDD*%
X158597600Y-113538000D03*
X158089600Y-110185200D03*
X158089600Y-110998000D03*
X158597600Y-98552000D03*
D36*
%TO.N,VSS*%
X156108400Y-103124000D03*
X155143200Y-102362000D03*
X155143200Y-101244400D03*
X157226000Y-100228400D03*
X157226000Y-99161600D03*
X157243520Y-115220567D03*
X157226000Y-114147600D03*
X156108400Y-118110000D03*
X155143200Y-117297200D03*
X155143200Y-116179600D03*
D35*
%TO.N,Net-(C38-Pad2)*%
X156210000Y-113157000D03*
X156210000Y-117094000D03*
%TO.N,Net-(C17-Pad2)*%
X156210000Y-98171000D03*
X156210000Y-102108000D03*
%TO.N,Net-(C10-Pad1)*%
X166471600Y-79918230D03*
X166471600Y-82305830D03*
X165658800Y-82305830D03*
X165658800Y-79918230D03*
X166471600Y-84744230D03*
X165658800Y-84744230D03*
%TO.N,Net-(C10-Pad2)*%
X162661600Y-79918230D03*
X163423600Y-82305830D03*
X163423600Y-79918230D03*
X163423600Y-84744230D03*
X162661600Y-84744230D03*
X162661600Y-82305830D03*
D36*
%TO.N,Net-(C14-Pad1)*%
X117842696Y-96138999D03*
X118807896Y-99948999D03*
X119747696Y-96138999D03*
X117842696Y-92328999D03*
X118807896Y-92328999D03*
X118807896Y-96138999D03*
X119747696Y-99948999D03*
X117842696Y-99948999D03*
X119747696Y-103758999D03*
X117842696Y-103758999D03*
X118807896Y-103758999D03*
X119747696Y-92328999D03*
%TO.N,Net-(C14-Pad2)*%
X124573696Y-96138999D03*
X124573696Y-103758999D03*
X122795696Y-92328999D03*
X122795696Y-103758999D03*
X123684696Y-92328999D03*
X122795696Y-99948999D03*
X123684696Y-99948999D03*
X123684696Y-96138999D03*
X122795696Y-96138999D03*
X124573696Y-99948999D03*
X124573696Y-92328999D03*
X123684696Y-103758999D03*
D35*
%TO.N,Net-(C16-Pad1)*%
X165709600Y-95707200D03*
X166471600Y-95707200D03*
X165709600Y-98094800D03*
X166471600Y-98094800D03*
X166471600Y-100533200D03*
X165709600Y-100533200D03*
%TO.N,Net-(C16-Pad2)*%
X162661600Y-95707200D03*
X162661600Y-100533200D03*
X162661600Y-98094800D03*
X163423600Y-100533200D03*
X163423600Y-98094800D03*
X163423600Y-95707200D03*
%TO.N,GND*%
X130364896Y-86372096D03*
X130876896Y-76996704D03*
X118731696Y-108076999D03*
X133807200Y-103276400D03*
X119493696Y-88010999D03*
X128190001Y-115548399D03*
X116572696Y-104901999D03*
X123557696Y-88010999D03*
X113258600Y-99366600D03*
X116572696Y-101853999D03*
X116572696Y-105917999D03*
X136794896Y-109845496D03*
D36*
X172618400Y-106984800D03*
D35*
X116572696Y-100837999D03*
X130886200Y-109372400D03*
X137920001Y-86869999D03*
X116572696Y-93979999D03*
X138123201Y-108688599D03*
D36*
X167767000Y-103301800D03*
X172618400Y-109931200D03*
D35*
X120509696Y-88010999D03*
X126317999Y-115548399D03*
X116699696Y-107822999D03*
X125843696Y-98133504D03*
X115622600Y-96416600D03*
X116572696Y-102869999D03*
X116572696Y-91947999D03*
D36*
X168747912Y-119294112D03*
D35*
X130872896Y-98641504D03*
X125843696Y-104520999D03*
X125843696Y-101472999D03*
X136794896Y-87798296D03*
X116572696Y-90931999D03*
D36*
X172618400Y-99720400D03*
D35*
X126111000Y-78994000D03*
X130454400Y-97053400D03*
X130876896Y-86953504D03*
X127240696Y-114591496D03*
X125843696Y-106552999D03*
X116572696Y-89915999D03*
X127240696Y-116572696D03*
X126136400Y-83032600D03*
X125843696Y-102488999D03*
X114577600Y-99366600D03*
D36*
X173736000Y-99720400D03*
X174701200Y-108458000D03*
X174701200Y-88087200D03*
D35*
X128144199Y-99238999D03*
X111758600Y-96418400D03*
X125843696Y-93344999D03*
X121525696Y-88010999D03*
X122541696Y-88010999D03*
D36*
X150723600Y-94691200D03*
D35*
X111758600Y-99364800D03*
X128168400Y-83032600D03*
D36*
X173736000Y-106984800D03*
D35*
X118477696Y-88010999D03*
X133654800Y-81711800D03*
X125602396Y-88252299D03*
X124573696Y-88010999D03*
X128045999Y-110138999D03*
D36*
X172618400Y-86614000D03*
D35*
X116572696Y-99821999D03*
X116572696Y-92963999D03*
X124827696Y-108076999D03*
X125843696Y-103504999D03*
D36*
X173736000Y-96774000D03*
D35*
X130364896Y-118885304D03*
X125843696Y-91312999D03*
X125843696Y-100456999D03*
X114606600Y-96416600D03*
X129667000Y-118237000D03*
X116572696Y-88899999D03*
X125843696Y-105536999D03*
D36*
X173736000Y-86614000D03*
X145262600Y-91770200D03*
D35*
X130581400Y-108686600D03*
X113258600Y-96416600D03*
X125843696Y-90296999D03*
X120763696Y-108076999D03*
X136794896Y-107451504D03*
X119747696Y-108076999D03*
X125843696Y-94360999D03*
D36*
X160477200Y-97282000D03*
D35*
X125780800Y-107645200D03*
X130886200Y-97815400D03*
D36*
X167767000Y-88392000D03*
D35*
X117715696Y-108076999D03*
X130876896Y-87690104D03*
D36*
X172618400Y-89560400D03*
D35*
X117461696Y-88010999D03*
X127189896Y-83984496D03*
X125843696Y-92328999D03*
X122795696Y-108076999D03*
X111758600Y-97891600D03*
X128844896Y-87664704D03*
X125843696Y-89280999D03*
X128840896Y-109512704D03*
D36*
X172618400Y-96774000D03*
D35*
X116572696Y-106933999D03*
X125843696Y-95376999D03*
X136794896Y-85791696D03*
D36*
X174701200Y-98247200D03*
D35*
X121779696Y-108076999D03*
X128840896Y-98614896D03*
D36*
X167767000Y-87452200D03*
D35*
X155409900Y-91351100D03*
X123811696Y-108076999D03*
D36*
X161086800Y-95656400D03*
D35*
X115619000Y-99366600D03*
D36*
X168833800Y-102489000D03*
D35*
X133654800Y-114350800D03*
X130364896Y-107988704D03*
X133832600Y-92583000D03*
D36*
X173736000Y-89560400D03*
D35*
X125843696Y-99440999D03*
X116572696Y-96011999D03*
D36*
X173736000Y-109931200D03*
X167792400Y-120091200D03*
D35*
X116572696Y-103885999D03*
X116572696Y-94995999D03*
X128071399Y-88294999D03*
%TO.N,Net-(C37-Pad1)*%
X165709600Y-114909600D03*
X165709600Y-117297200D03*
X166471600Y-114909600D03*
X165709600Y-112471200D03*
X166471600Y-117297200D03*
X166471600Y-112471200D03*
%TO.N,Net-(C37-Pad2)*%
X162712400Y-117297200D03*
X163423600Y-112471200D03*
X163474400Y-117297200D03*
X163474400Y-114909600D03*
X162712400Y-114909600D03*
X162661600Y-112471200D03*
%TO.N,VDD*%
X160045400Y-88163400D03*
X132066696Y-104393999D03*
X132066696Y-82778599D03*
X132041296Y-115315999D03*
X158572200Y-96393000D03*
X132828696Y-108330999D03*
X160045400Y-88925400D03*
X132066696Y-93497399D03*
X158572200Y-95554800D03*
X132828696Y-109092999D03*
X132828696Y-86486999D03*
X132828696Y-87248999D03*
D36*
X152273000Y-88239600D03*
D35*
%TO.N,VSS*%
X129870200Y-81635600D03*
X147980400Y-92430600D03*
X128637696Y-112013999D03*
X128637696Y-101091999D03*
X156337000Y-92633800D03*
X128637696Y-101980999D03*
X129870200Y-92303600D03*
X146913600Y-92430600D03*
X130810000Y-81635600D03*
X130886200Y-92329000D03*
X128637696Y-80263999D03*
X129870200Y-103225600D03*
X128637696Y-79247999D03*
X130835400Y-103225600D03*
X130860800Y-114173000D03*
X128637696Y-90931999D03*
X128637696Y-112902999D03*
X155295600Y-92633800D03*
X128637696Y-90042999D03*
X129819400Y-114173000D03*
%TD*%
D37*
%TO.N,Net-(R22-Pad2)*%
X160696937Y-91405737D02*
X161036000Y-91744800D01*
X159248500Y-91405737D02*
X160696937Y-91405737D01*
D38*
%TO.N,GND*%
X167716200Y-88341200D02*
X167767000Y-88392000D01*
X165916600Y-88341200D02*
X167716200Y-88341200D01*
%TO.N,VDD*%
X160045400Y-88341200D02*
X160045400Y-88163400D01*
X160045400Y-88341200D02*
X160045400Y-88925400D01*
X163216600Y-88341200D02*
X160045400Y-88341200D01*
D37*
%TO.N,Net-(C3-Pad1)*%
X150749000Y-87691000D02*
X150810000Y-87630000D01*
X150749000Y-88773000D02*
X150749000Y-87691000D01*
%TO.N,Net-(C2-Pad1)*%
X152654000Y-86487000D02*
X149834600Y-86487000D01*
X153568400Y-89511600D02*
X153568400Y-87401400D01*
X153568400Y-87401400D02*
X152654000Y-86487000D01*
X149834600Y-86487000D02*
X149098000Y-87223600D01*
X153545000Y-89535000D02*
X153568400Y-89511600D01*
D38*
X148910000Y-87630000D02*
X147381000Y-87630000D01*
D37*
%TO.N,Net-(C2-Pad2)*%
X145669000Y-87564000D02*
X145735000Y-87630000D01*
X145669000Y-85471000D02*
X145669000Y-87564000D01*
%TO.N,Net-(C3-Pad1)*%
X150739500Y-91957500D02*
X150739500Y-91963900D01*
%TO.N,Net-(C2-Pad2)*%
X146177000Y-88392000D02*
X145923000Y-88138000D01*
X146177000Y-89510737D02*
X146177000Y-88392000D01*
%TO.N,Net-(C14-Pad2)*%
X128219200Y-85394800D02*
X128219200Y-85344000D01*
X130114896Y-87290496D02*
X128219200Y-85394800D01*
X130114896Y-90943499D02*
X130114896Y-87290496D01*
%TO.N,Net-(C10-Pad2)*%
X164541200Y-87731600D02*
X163169600Y-86360000D01*
X164541200Y-89814400D02*
X164541200Y-87731600D01*
X162001200Y-90474800D02*
X163880800Y-90474800D01*
X161570263Y-90905737D02*
X162001200Y-90474800D01*
X163880800Y-90474800D02*
X164541200Y-89814400D01*
X159248500Y-90905737D02*
X161570263Y-90905737D01*
D39*
%TO.N,GND*%
X152527000Y-93573600D02*
X152527000Y-94411800D01*
D38*
X160119000Y-102108000D02*
X160119000Y-102867400D01*
X160121600Y-102870000D02*
X160119000Y-102867400D01*
X160119000Y-102108000D02*
X160985200Y-102108000D01*
X160119000Y-101424800D02*
X160121600Y-101422200D01*
X160119000Y-102108000D02*
X160119000Y-101424800D01*
X160119000Y-117777200D02*
X160121600Y-117779800D01*
X160119000Y-117094000D02*
X160119000Y-117777200D01*
X160119000Y-117094000D02*
X160934400Y-117094000D01*
X160119000Y-117094000D02*
X160119000Y-116334600D01*
X160121600Y-116332000D02*
X160119000Y-116334600D01*
X153209000Y-104013000D02*
X154203400Y-104013000D01*
X153209000Y-119126000D02*
X154178000Y-119126000D01*
X152690990Y-118073010D02*
X152690990Y-118607990D01*
X153209000Y-119126000D02*
X152019000Y-119126000D01*
X152690990Y-118607990D02*
X153209000Y-119126000D01*
X152690990Y-116958481D02*
X152690990Y-118073010D01*
X152682000Y-116456400D02*
X152682000Y-116949491D01*
X152682000Y-115951000D02*
X152095200Y-115951000D01*
X152682000Y-116949491D02*
X152690990Y-116958481D01*
X152682000Y-115951000D02*
X152682000Y-116456400D01*
X160299400Y-112191800D02*
X160297400Y-112193800D01*
X159661800Y-112193800D02*
X160297400Y-112193800D01*
X160272200Y-107948200D02*
X160274000Y-107950000D01*
X159181800Y-107948200D02*
X160272200Y-107948200D01*
X159181800Y-107948200D02*
X159181800Y-106807000D01*
X153183600Y-104038400D02*
X152146000Y-104038400D01*
X153209000Y-104013000D02*
X153183600Y-104038400D01*
X153209000Y-105050600D02*
X153212800Y-105054400D01*
X153209000Y-104013000D02*
X153209000Y-105050600D01*
X152682000Y-103486000D02*
X153209000Y-104013000D01*
X152682000Y-102006400D02*
X152682000Y-103486000D01*
X152682000Y-101521200D02*
X152682000Y-102006400D01*
X152682000Y-100990400D02*
X152146000Y-100990400D01*
X152682000Y-100990400D02*
X152682000Y-101521200D01*
D37*
%TO.N,VSS*%
X157226000Y-100228400D02*
X156972000Y-100457000D01*
X157243520Y-115220567D02*
X156921200Y-115417600D01*
X156907800Y-115431000D02*
X157243520Y-115220567D01*
X155838500Y-115431000D02*
X156907800Y-115431000D01*
%TO.N,Net-(C16-Pad2)*%
X159893000Y-98425000D02*
X159893000Y-99441000D01*
X159386520Y-97918520D02*
X159893000Y-98425000D01*
X157648810Y-97299540D02*
X158267790Y-97918520D01*
X158267790Y-97918520D02*
X159386520Y-97918520D01*
X157648810Y-97284000D02*
X157648810Y-97299540D01*
%TO.N,Net-(C37-Pad2)*%
X159385000Y-112903000D02*
X159893000Y-113411000D01*
X158372291Y-112903000D02*
X159385000Y-112903000D01*
X159893000Y-113411000D02*
X159893000Y-114554000D01*
X157671610Y-112202319D02*
X158372291Y-112903000D01*
%TO.N,Net-(C38-Pad2)*%
X157097000Y-117094000D02*
X156210000Y-117094000D01*
%TO.N,Net-(C43-Pad1)*%
X158613500Y-117084500D02*
X158623000Y-117094000D01*
X158613500Y-115431000D02*
X158613500Y-117084500D01*
X158623000Y-117094000D02*
X159159000Y-117094000D01*
X158117000Y-117094000D02*
X158623000Y-117094000D01*
%TO.N,Net-(C38-Pad2)*%
X156210000Y-112268000D02*
X156275681Y-112202319D01*
X156210000Y-113157000D02*
X156210000Y-112268000D01*
X156275681Y-112202319D02*
X155720410Y-112202319D01*
X156711610Y-112202319D02*
X156275681Y-112202319D01*
%TO.N,Net-(C40-Pad2)*%
X152654000Y-113495119D02*
X152682000Y-113523119D01*
X152654000Y-111950500D02*
X152654000Y-113495119D01*
X153418181Y-111186319D02*
X152654000Y-111950500D01*
X154700410Y-111186319D02*
X153418181Y-111186319D01*
X152653999Y-113551120D02*
X152682000Y-113523119D01*
X152653999Y-114935000D02*
X152653999Y-113551120D01*
%TO.N,Net-(C45-Pad1)*%
X153677999Y-114931000D02*
X153673999Y-114935000D01*
X155838500Y-114931000D02*
X153677999Y-114931000D01*
X153673999Y-115919001D02*
X153642000Y-115951000D01*
X153673999Y-114935000D02*
X153673999Y-115919001D01*
%TO.N,Net-(C40-Pad1)*%
X155838500Y-114431000D02*
X155838500Y-113931000D01*
X155108291Y-113931000D02*
X154700410Y-113523119D01*
X155838500Y-113931000D02*
X155108291Y-113931000D01*
X154700410Y-113523119D02*
X154700410Y-112202319D01*
X153642000Y-113523119D02*
X154700410Y-113523119D01*
%TO.N,Net-(C17-Pad2)*%
X156210000Y-97286000D02*
X156208000Y-97284000D01*
X156210000Y-98171000D02*
X156210000Y-97286000D01*
X156208000Y-97284000D02*
X156688810Y-97284000D01*
X155697610Y-97284000D02*
X156208000Y-97284000D01*
X157147800Y-102108000D02*
X156210000Y-102108000D01*
%TO.N,VSS*%
X156960000Y-100445000D02*
X157226000Y-100228400D01*
X155838500Y-100445000D02*
X156960000Y-100445000D01*
%TO.N,Net-(C19-Pad2)*%
X153414000Y-96268000D02*
X152654000Y-97028000D01*
X152654000Y-97028000D02*
X152654000Y-98546800D01*
X154677610Y-96268000D02*
X153414000Y-96268000D01*
X152654000Y-98546800D02*
X152659200Y-98552000D01*
%TO.N,Net-(C25-Pad1)*%
X158613500Y-100445000D02*
X158613500Y-101971500D01*
X158750000Y-102108000D02*
X158034410Y-102108000D01*
X159025610Y-102108000D02*
X158750000Y-102108000D01*
X158613500Y-101971500D02*
X158750000Y-102108000D01*
%TO.N,Net-(C19-Pad2)*%
X152629200Y-98582000D02*
X152659200Y-98552000D01*
X152629200Y-99974400D02*
X152629200Y-98582000D01*
%TO.N,Net-(C28-Pad1)*%
X155838500Y-99945000D02*
X153678600Y-99945000D01*
X153678600Y-99945000D02*
X153649200Y-99974400D01*
X153642000Y-99981600D02*
X153649200Y-99974400D01*
X153642000Y-100990400D02*
X153642000Y-99981600D01*
%TO.N,Net-(C19-Pad1)*%
X155838500Y-99445000D02*
X155838500Y-98945000D01*
X155079000Y-98945000D02*
X154686000Y-98552000D01*
X155838500Y-98945000D02*
X155079000Y-98945000D01*
X154686000Y-97292390D02*
X154677610Y-97284000D01*
X154686000Y-98552000D02*
X154686000Y-97292390D01*
X153619200Y-98552000D02*
X154686000Y-98552000D01*
%TO.N,Net-(C1-Pad1)*%
X131114896Y-79793399D02*
X131892896Y-79015399D01*
X131892896Y-78616999D02*
X133240395Y-78616999D01*
X133240395Y-78616999D02*
X133998396Y-79375000D01*
X131892896Y-79015399D02*
X131892896Y-78616999D01*
X131114896Y-80275499D02*
X131114896Y-79793399D01*
D40*
%TO.N,Net-(C1-Pad2)*%
X139177395Y-79628999D02*
X138923396Y-79375000D01*
X141032896Y-79628999D02*
X139177395Y-79628999D01*
D37*
%TO.N,Net-(C2-Pad2)*%
X147964500Y-89778737D02*
X146445000Y-89778737D01*
X146445000Y-89778737D02*
X146177000Y-89510737D01*
%TO.N,Net-(C3-Pad1)*%
X150739500Y-91278737D02*
X150739500Y-91957500D01*
X150739500Y-91278737D02*
X152136000Y-91278737D01*
X152136000Y-91278737D02*
X152527000Y-91669737D01*
%TO.N,Net-(C4-Pad1)*%
X130614896Y-83050499D02*
X130614896Y-83966399D01*
X130614896Y-83966399D02*
X131380896Y-84732399D01*
X131380896Y-84732399D02*
X133817296Y-84732399D01*
D40*
%TO.N,Net-(C4-Pad2)*%
X141032896Y-83441000D02*
X139175396Y-83441000D01*
X139175396Y-83441000D02*
X138923396Y-83693000D01*
%TO.N,Net-(C10-Pad1)*%
X166299835Y-85682030D02*
X166043835Y-85938030D01*
X167767000Y-85682030D02*
X166299835Y-85682030D01*
D37*
%TO.N,Net-(C10-Pad2)*%
X159248500Y-90905737D02*
X159248500Y-90405737D01*
%TO.N,Net-(C7-Pad1)*%
X131892896Y-89683399D02*
X131892896Y-89283000D01*
X133238396Y-89283000D02*
X133998396Y-90043000D01*
X131114896Y-90461399D02*
X131892896Y-89683399D01*
X131114896Y-90943499D02*
X131114896Y-90461399D01*
X131892896Y-89283000D02*
X133238396Y-89283000D01*
D40*
%TO.N,Net-(C7-Pad2)*%
X139175396Y-90295000D02*
X138923396Y-90043000D01*
X141032896Y-90295000D02*
X139175396Y-90295000D01*
D37*
%TO.N,Net-(C13-Pad1)*%
X130614896Y-93718499D02*
X130614896Y-94607000D01*
X133240396Y-95373000D02*
X133998396Y-94615000D01*
X130614896Y-94607000D02*
X131380896Y-95373000D01*
X131380896Y-95373000D02*
X133240396Y-95373000D01*
D40*
%TO.N,Net-(C13-Pad2)*%
X141032896Y-94363000D02*
X139175396Y-94363000D01*
X139175396Y-94363000D02*
X138923396Y-94615000D01*
D39*
%TO.N,Net-(C14-Pad1)*%
X114758600Y-97891600D02*
X118605997Y-97891600D01*
X118605997Y-97891600D02*
X118758396Y-98043999D01*
D37*
%TO.N,Net-(C14-Pad2)*%
X126847600Y-97434400D02*
X126847600Y-96658303D01*
X126390400Y-117703600D02*
X128625600Y-117703600D01*
X126836296Y-86726904D02*
X128219200Y-85344000D01*
X126836296Y-93718499D02*
X126836296Y-86726904D01*
X125374400Y-111404400D02*
X125374400Y-116687600D01*
X129032000Y-77724000D02*
X126034800Y-77724000D01*
X124292995Y-97434400D02*
X126847600Y-97434400D01*
X129607395Y-104648000D02*
X129614896Y-104640499D01*
X126847600Y-108559600D02*
X126847600Y-109931200D01*
X130114896Y-98212496D02*
X129336800Y-97434400D01*
X130114896Y-80275499D02*
X130114896Y-78806896D01*
X130114896Y-78806896D02*
X129032000Y-77724000D01*
X126847600Y-96658303D02*
X126836296Y-96646999D01*
X130114896Y-101865499D02*
X130114896Y-98212496D01*
X126847600Y-109931200D02*
X125374400Y-111404400D01*
X126847600Y-104648000D02*
X129607395Y-104648000D01*
X129614896Y-83948304D02*
X129614896Y-83050499D01*
X126836296Y-96646999D02*
X126836296Y-93718499D01*
X128981200Y-108559600D02*
X126847600Y-108559600D01*
X130114896Y-112787499D02*
X130114896Y-109693296D01*
X130114896Y-109693296D02*
X128981200Y-108559600D01*
X126847600Y-104648000D02*
X126847600Y-108559600D01*
X125323600Y-78435200D02*
X125323600Y-85214208D01*
X125323600Y-85214208D02*
X126836296Y-86726904D01*
X123683396Y-98043999D02*
X124292995Y-97434400D01*
X128219200Y-85344000D02*
X129614896Y-83948304D01*
X129614896Y-116714304D02*
X129614896Y-115562499D01*
X126847600Y-97434400D02*
X126847600Y-104648000D01*
X126836296Y-93718499D02*
X129614896Y-93718499D01*
X125374400Y-116687600D02*
X126390400Y-117703600D01*
X129336800Y-97434400D02*
X126847600Y-97434400D01*
X128625600Y-117703600D02*
X129614896Y-116714304D01*
X126034800Y-77724000D02*
X125323600Y-78435200D01*
D40*
%TO.N,Net-(C16-Pad1)*%
X166299835Y-101471000D02*
X166043835Y-101727000D01*
X167767000Y-101471000D02*
X166299835Y-101471000D01*
D37*
%TO.N,Net-(C22-Pad1)*%
X131114896Y-101865499D02*
X131114896Y-101357999D01*
X131114896Y-101357999D02*
X131888896Y-100583999D01*
X131888896Y-100583999D02*
X131888896Y-100198999D01*
X131888896Y-100198999D02*
X133696296Y-100198999D01*
D40*
%TO.N,Net-(C22-Pad2)*%
X141032896Y-101217000D02*
X139175396Y-101217000D01*
X139175396Y-101217000D02*
X138923396Y-100965000D01*
%TO.N,GND*%
X118477696Y-88010999D02*
X119493696Y-88010999D01*
X125843696Y-93344999D02*
X125843696Y-94360999D01*
X125780800Y-107645200D02*
X125857000Y-107569000D01*
X125361096Y-88010999D02*
X125602396Y-88252299D01*
X159560200Y-97284000D02*
X159560200Y-96018400D01*
X116572696Y-90931999D02*
X116572696Y-89915999D01*
X116572696Y-103885999D02*
X116572696Y-102869999D01*
D39*
X150723600Y-94691200D02*
X150727400Y-94687400D01*
X150727400Y-93573600D02*
X152527000Y-93573600D01*
D40*
X116572696Y-92963999D02*
X116572696Y-91947999D01*
X123811696Y-108076999D02*
X122795696Y-108076999D01*
D39*
X130886200Y-97815400D02*
X130886200Y-98628200D01*
X126748600Y-78689200D02*
X126415800Y-78689200D01*
D40*
X125843696Y-102488999D02*
X125843696Y-103504999D01*
X111758600Y-96418400D02*
X112674400Y-96418400D01*
X121779696Y-108076999D02*
X120763696Y-108076999D01*
D39*
X126415800Y-78689200D02*
X126111000Y-78994000D01*
D40*
X125843696Y-104520999D02*
X125843696Y-105536999D01*
D39*
X130364896Y-118236999D02*
X130364896Y-118885304D01*
D40*
X116572696Y-88899999D02*
X116572696Y-88633904D01*
X125843696Y-106552999D02*
X125843696Y-107187999D01*
X116572696Y-93979999D02*
X116572696Y-92963999D01*
D39*
X167790165Y-119294112D02*
X168747912Y-119294112D01*
X167790165Y-120088965D02*
X167792400Y-120091200D01*
D40*
X122541696Y-88010999D02*
X123557696Y-88010999D01*
X127189896Y-83036399D02*
X128164601Y-83036399D01*
D39*
X128840896Y-99238999D02*
X128840896Y-98614896D01*
X150727400Y-93573600D02*
X150727400Y-94687400D01*
D40*
X124827696Y-108076999D02*
X125349001Y-108076999D01*
X125843696Y-90296999D02*
X125843696Y-91312999D01*
D37*
X146177000Y-91468000D02*
X145564800Y-91468000D01*
D40*
X116572696Y-88633904D02*
X117195601Y-88010999D01*
X124573696Y-88010999D02*
X125361096Y-88010999D01*
D39*
X130886200Y-97485200D02*
X130886200Y-97815400D01*
X130364896Y-107314999D02*
X130364896Y-107988704D01*
D40*
X125843696Y-89280999D02*
X125843696Y-88493599D01*
D37*
X155089800Y-91671200D02*
X154559000Y-91671200D01*
D40*
X125843696Y-94360999D02*
X125843696Y-95376999D01*
D39*
X130364896Y-108470096D02*
X130581400Y-108686600D01*
D40*
X116572696Y-102869999D02*
X116572696Y-101853999D01*
X117715696Y-108076999D02*
X116953696Y-108076999D01*
D39*
X130581400Y-108686600D02*
X130886200Y-108991400D01*
D40*
X136794896Y-86869999D02*
X136794896Y-87798296D01*
X159560200Y-97284000D02*
X160475200Y-97284000D01*
X117461696Y-88010999D02*
X118477696Y-88010999D01*
X120763696Y-108076999D02*
X119747696Y-108076999D01*
D39*
X128840896Y-110138999D02*
X128840896Y-109512704D01*
D40*
X119747696Y-108076999D02*
X118731696Y-108076999D01*
D37*
X146177000Y-91468000D02*
X146631600Y-91468000D01*
D40*
X116572696Y-105917999D02*
X116572696Y-104901999D01*
X127189896Y-83036399D02*
X126140199Y-83036399D01*
D39*
X130876896Y-77595000D02*
X130876896Y-76996704D01*
D40*
X116572696Y-107682696D02*
X116713000Y-107823000D01*
X116572696Y-91947999D02*
X116572696Y-90931999D01*
X115622600Y-96416600D02*
X116168095Y-96416600D01*
X127240696Y-115548399D02*
X128190001Y-115548399D01*
X136794896Y-108688599D02*
X136794896Y-109845496D01*
X116168095Y-96416600D02*
X116572696Y-96011999D01*
D39*
X128840896Y-110138999D02*
X128045999Y-110138999D01*
D40*
X125843696Y-91312999D02*
X125843696Y-92328999D01*
X116117297Y-99366600D02*
X116572696Y-99821999D01*
X114606600Y-96416600D02*
X115622600Y-96416600D01*
D39*
X130872896Y-99178999D02*
X130872896Y-98641504D01*
D40*
X116572696Y-106933999D02*
X116572696Y-105917999D01*
X111758600Y-97891600D02*
X111758600Y-96418400D01*
X122795696Y-108076999D02*
X121779696Y-108076999D01*
X136794896Y-108688599D02*
X136794896Y-107451504D01*
X125843696Y-100456999D02*
X125843696Y-101472999D01*
D39*
X130886200Y-110095695D02*
X130872896Y-110108999D01*
D40*
X125843696Y-88493599D02*
X125602396Y-88252299D01*
X111758600Y-99364800D02*
X112674400Y-99364800D01*
X116572696Y-96011999D02*
X116572696Y-94995999D01*
X116572696Y-101853999D02*
X116572696Y-100837999D01*
D37*
X147320863Y-90778737D02*
X147964500Y-90778737D01*
X145564800Y-91468000D02*
X145262600Y-91770200D01*
D39*
X130454400Y-97053400D02*
X130886200Y-97485200D01*
D40*
X125843696Y-99440999D02*
X125843696Y-100456999D01*
D37*
X146631600Y-91468000D02*
X147320863Y-90778737D01*
D40*
X119493696Y-88010999D02*
X120509696Y-88010999D01*
D39*
X130364896Y-86372096D02*
X130364896Y-85752399D01*
D40*
X125843696Y-105536999D02*
X125843696Y-106552999D01*
D39*
X130886200Y-98628200D02*
X130872896Y-98641504D01*
D40*
X111758600Y-97891600D02*
X111758600Y-99364800D01*
D39*
X167790165Y-119294112D02*
X167790165Y-120088965D01*
X168833800Y-102489000D02*
X168831800Y-102491000D01*
X128844896Y-88294999D02*
X128844896Y-87664704D01*
X130364896Y-96394999D02*
X130364896Y-96963896D01*
D37*
X156473500Y-90905737D02*
X155855263Y-90905737D01*
D40*
X113258600Y-96416600D02*
X114606600Y-96416600D01*
X117195601Y-88010999D02*
X117461696Y-88010999D01*
D39*
X167767000Y-102491000D02*
X167767000Y-103301800D01*
D40*
X136794896Y-86869999D02*
X136794896Y-85791696D01*
X116572696Y-89915999D02*
X116572696Y-88899999D01*
X136794896Y-108688599D02*
X138123201Y-108688599D01*
D39*
X130876896Y-88264999D02*
X130876896Y-87690104D01*
D40*
X113258600Y-99366600D02*
X114577600Y-99366600D01*
D39*
X130876896Y-86953504D02*
X130876896Y-86884096D01*
D40*
X125843696Y-103504999D02*
X125843696Y-104520999D01*
D39*
X128840896Y-99238999D02*
X128144199Y-99238999D01*
D37*
X155855263Y-90905737D02*
X155409900Y-91351100D01*
X155409900Y-91351100D02*
X155089800Y-91671200D01*
D40*
X125843696Y-101472999D02*
X125843696Y-102488999D01*
X120509696Y-88010999D02*
X121525696Y-88010999D01*
D39*
X130876896Y-87690104D02*
X130876896Y-86953504D01*
D40*
X128164601Y-83036399D02*
X128168400Y-83032600D01*
X126140199Y-83036399D02*
X126136400Y-83032600D01*
X116953696Y-108076999D02*
X116699696Y-107822999D01*
X114577600Y-99366600D02*
X115619000Y-99366600D01*
D39*
X130364896Y-96963896D02*
X130454400Y-97053400D01*
D40*
X127240696Y-115548399D02*
X126317999Y-115548399D01*
X125349001Y-108076999D02*
X125780800Y-107645200D01*
X118731696Y-108076999D02*
X117715696Y-108076999D01*
X125857000Y-107569000D02*
X125857000Y-106566303D01*
X159922200Y-95656400D02*
X161086800Y-95656400D01*
D39*
X130364896Y-107988704D02*
X130364896Y-108470096D01*
D40*
X136794896Y-86869999D02*
X137920001Y-86869999D01*
D39*
X167767000Y-87452200D02*
X167767000Y-88392000D01*
X130364896Y-118236999D02*
X129667000Y-118237000D01*
D40*
X127189896Y-83036399D02*
X127189896Y-83984496D01*
X159560200Y-96018400D02*
X159922200Y-95656400D01*
X123557696Y-88010999D02*
X124573696Y-88010999D01*
D39*
X130876896Y-86884096D02*
X130364896Y-86372096D01*
X152527000Y-93573600D02*
X152527000Y-92689737D01*
D40*
X124827696Y-108076999D02*
X123811696Y-108076999D01*
X115619000Y-99366600D02*
X116117297Y-99366600D01*
X121525696Y-88010999D02*
X122541696Y-88010999D01*
X127240696Y-115548399D02*
X127240696Y-114591496D01*
X125843696Y-89280999D02*
X125843696Y-90296999D01*
X116572696Y-94995999D02*
X116572696Y-93979999D01*
X160475200Y-97284000D02*
X160477200Y-97282000D01*
X127240696Y-115548399D02*
X127240696Y-116572696D01*
D39*
X130886200Y-109372400D02*
X130886200Y-110095695D01*
D40*
X125843696Y-98184304D02*
X125843696Y-99440999D01*
D39*
X167767000Y-102491000D02*
X168831800Y-102491000D01*
D40*
X116572696Y-104901999D02*
X116572696Y-103885999D01*
X125843696Y-95376999D02*
X125843696Y-96392999D01*
X125843696Y-92328999D02*
X125843696Y-93344999D01*
D39*
X130886200Y-108991400D02*
X130886200Y-109372400D01*
X128844896Y-88294999D02*
X128071399Y-88294999D01*
X167767000Y-86702030D02*
X167767000Y-87452200D01*
D40*
X125857000Y-106566303D02*
X125843696Y-106552999D01*
X116572696Y-106933999D02*
X116572696Y-107682696D01*
X116572696Y-100837999D02*
X116572696Y-99821999D01*
D37*
%TO.N,Net-(C36-Pad1)*%
X133240397Y-106294999D02*
X133998396Y-105537000D01*
X130614896Y-105528999D02*
X131380896Y-106294999D01*
X130614896Y-104640499D02*
X130614896Y-105528999D01*
X131380896Y-106294999D02*
X133240397Y-106294999D01*
D40*
%TO.N,Net-(C36-Pad2)*%
X141032896Y-105286999D02*
X139173397Y-105286999D01*
X139173397Y-105286999D02*
X138923396Y-105537000D01*
%TO.N,Net-(C37-Pad1)*%
X167790165Y-118274112D02*
X166324999Y-118274112D01*
X166324999Y-118274112D02*
X166067000Y-118532111D01*
D37*
%TO.N,Net-(C39-Pad1)*%
X131114896Y-112787499D02*
X131114896Y-112330799D01*
X131888896Y-111128999D02*
X133240395Y-111128999D01*
X131114896Y-112330799D02*
X131888896Y-111556799D01*
X131888896Y-111556799D02*
X131888896Y-111128999D01*
X133240395Y-111128999D02*
X133998396Y-111887000D01*
D40*
%TO.N,Net-(C39-Pad2)*%
X141032896Y-112137001D02*
X139173397Y-112137001D01*
X139173397Y-112137001D02*
X138923396Y-111887000D01*
D37*
%TO.N,Net-(C49-Pad1)*%
X130614896Y-116450999D02*
X131380896Y-117216999D01*
X133899496Y-117216999D02*
X133920896Y-117195599D01*
X130614896Y-115562499D02*
X130614896Y-116450999D01*
X131380896Y-117216999D02*
X133899496Y-117216999D01*
D40*
%TO.N,Net-(C49-Pad2)*%
X139175396Y-115953000D02*
X138923396Y-116205000D01*
X141032896Y-115953000D02*
X139175396Y-115953000D01*
D37*
%TO.N,VDD*%
X159248500Y-89905737D02*
X159852463Y-89905737D01*
X131794796Y-83050499D02*
X132066696Y-82778599D01*
X159852463Y-89905737D02*
X160045400Y-89712800D01*
X131114896Y-104640499D02*
X131820196Y-104640499D01*
X131114896Y-83050499D02*
X131794796Y-83050499D01*
X131794796Y-115562499D02*
X132041296Y-115315999D01*
X131820196Y-104640499D02*
X132066696Y-104393999D01*
X151663400Y-88849200D02*
X151663400Y-89433400D01*
X131114896Y-115562499D02*
X131794796Y-115562499D01*
X160045400Y-89712800D02*
X160045400Y-88925400D01*
X151663400Y-89433400D02*
X151318063Y-89778737D01*
X152273000Y-88239600D02*
X151663400Y-88849200D01*
X131845596Y-93718499D02*
X132066696Y-93497399D01*
X131114896Y-93718499D02*
X131845596Y-93718499D01*
X151318063Y-89778737D02*
X150739500Y-89778737D01*
%TO.N,Net-(R1-Pad1)*%
X144158304Y-92264896D02*
X144170400Y-92252800D01*
X141032896Y-113157001D02*
X142558908Y-113157001D01*
X144170400Y-99099496D02*
X144170399Y-102236999D01*
X144170400Y-92252800D02*
X144170400Y-90525600D01*
X141032896Y-92264896D02*
X141032896Y-93343000D01*
X141032896Y-102237000D02*
X141032896Y-104266999D01*
X146429000Y-90278737D02*
X146177000Y-90530737D01*
X144170400Y-83813399D02*
X144170400Y-90525600D01*
X141032896Y-92264896D02*
X144158304Y-92264896D01*
X144170400Y-111545507D02*
X144170400Y-99099496D01*
X144175537Y-90530737D02*
X144170400Y-90525600D01*
X141032896Y-113157001D02*
X141032896Y-114933000D01*
X144170400Y-99099496D02*
X144170400Y-92252800D01*
X146177000Y-90530737D02*
X144175537Y-90530737D01*
X141032896Y-91315000D02*
X141032896Y-92264896D01*
X141032896Y-102237000D02*
X144170399Y-102236999D01*
X147964500Y-90278737D02*
X146429000Y-90278737D01*
X141032896Y-82421000D02*
X142778001Y-82421000D01*
X141032896Y-80648999D02*
X141032896Y-82421000D01*
X144170400Y-83813399D02*
G75*
G03*
X142778001Y-82421000I-1392398J1D01*
G01*
X144170400Y-111545507D02*
G75*
G02*
X142558908Y-113157001I-1611492J-2D01*
G01*
%TO.N,Net-(R2-Pad1)*%
X153668000Y-90405737D02*
X153545000Y-90528737D01*
X156473500Y-90405737D02*
X153668000Y-90405737D01*
%TO.N,Net-(R2-Pad2)*%
X154295000Y-85956737D02*
X154295000Y-87874000D01*
X154559000Y-88138000D02*
X154559000Y-89510737D01*
X154295000Y-87874000D02*
X154559000Y-88138000D01*
%TO.N,Net-(R4-Pad1)*%
X130876896Y-78612999D02*
X131892896Y-77596999D01*
X130876896Y-78615000D02*
X130876896Y-78612999D01*
X130614896Y-80275499D02*
X130614896Y-78877000D01*
X130614896Y-78877000D02*
X130876896Y-78615000D01*
%TO.N,Net-(R5-Pad1)*%
X153568400Y-93192600D02*
X154355800Y-93980000D01*
X152525000Y-90623439D02*
X153568400Y-91666839D01*
X152525000Y-90528737D02*
X152525000Y-90623439D01*
X153568400Y-91666839D02*
X153568400Y-93192600D01*
%TO.N,Net-(R10-Pad1)*%
X130114896Y-84482399D02*
X130364896Y-84732399D01*
X130114896Y-83050499D02*
X130114896Y-84482399D01*
X130364896Y-84732399D02*
X130364896Y-84736399D01*
X130364896Y-84736399D02*
X131380896Y-85752399D01*
%TO.N,Net-(R13-Pad1)*%
X130876896Y-89284999D02*
X130876896Y-89279000D01*
X130876896Y-89279000D02*
X131892896Y-88263000D01*
X130614896Y-89546999D02*
X130876896Y-89284999D01*
X130614896Y-90943499D02*
X130614896Y-89546999D01*
%TO.N,Net-(R17-Pad1)*%
X130114896Y-93718499D02*
X130114896Y-95124999D01*
X130114896Y-95124999D02*
X130364896Y-95374999D01*
X130364896Y-95377000D02*
X131380896Y-96393000D01*
X130364896Y-95374999D02*
X130364896Y-95377000D01*
%TO.N,Net-(R22-Pad2)*%
X159248500Y-91405737D02*
X159248500Y-92770300D01*
X156473500Y-87874500D02*
X156845000Y-87503000D01*
X159248500Y-92770300D02*
X158267400Y-93751400D01*
X159375000Y-85956737D02*
X156835000Y-85956737D01*
X155697610Y-95178190D02*
X152421010Y-95178190D01*
X155697610Y-94314590D02*
X155697610Y-95178190D01*
X152171400Y-108102400D02*
X155702000Y-108102400D01*
X155697610Y-95178190D02*
X155697610Y-96268000D01*
X158267400Y-93751400D02*
X156260800Y-93751400D01*
X155702000Y-108102400D02*
X155702000Y-111167909D01*
X149860000Y-97739200D02*
X149860000Y-105791000D01*
X156473500Y-89905737D02*
X156473500Y-87874500D01*
X149860000Y-105791000D02*
X152171400Y-108102400D01*
X156260800Y-93751400D02*
X155697610Y-94314590D01*
X155702000Y-111167909D02*
X155720410Y-111186319D01*
X152421010Y-95178190D02*
X149860000Y-97739200D01*
X156845000Y-87503000D02*
X156835000Y-87493000D01*
X156835000Y-87493000D02*
X156835000Y-85956737D01*
%TO.N,Net-(R24-Pad1)*%
X130614896Y-101865499D02*
X130614896Y-100456999D01*
X130872896Y-100198999D02*
X130872896Y-100194999D01*
X130872896Y-100194999D02*
X131888896Y-99178999D01*
X130614896Y-100456999D02*
X130872896Y-100198999D01*
%TO.N,Net-(R28-Pad1)*%
X130364896Y-106294999D02*
X130364896Y-106298999D01*
X130114896Y-106044999D02*
X130364896Y-106294999D01*
X130114896Y-104640499D02*
X130114896Y-106044999D01*
X130364896Y-106298999D02*
X131380896Y-107314999D01*
%TO.N,Net-(R32-Pad1)*%
X130614896Y-112787499D02*
X130614896Y-111386999D01*
X130872896Y-111124999D02*
X131888896Y-110108999D01*
X130872896Y-111128999D02*
X130872896Y-111124999D01*
X130614896Y-111386999D02*
X130872896Y-111128999D01*
%TO.N,Net-(R39-Pad1)*%
X130364896Y-117216999D02*
X130364896Y-117220999D01*
X130114896Y-115562499D02*
X130114896Y-116966999D01*
X130114896Y-116966999D02*
X130364896Y-117216999D01*
X130364896Y-117220999D02*
X131380896Y-118236999D01*
%TD*%
%TA.AperFunction,Conductor*%
%TO.N,Net-(C14-Pad1)*%
G36*
X120197817Y-88793001D02*
G01*
X120244310Y-88846657D01*
X120255696Y-88898999D01*
X120255696Y-107188999D01*
X120235694Y-107257120D01*
X120182038Y-107303613D01*
X120129696Y-107314999D01*
X117460696Y-107314999D01*
X117392575Y-107294997D01*
X117346082Y-107241341D01*
X117334696Y-107188999D01*
X117334696Y-88898999D01*
X117354698Y-88830878D01*
X117408354Y-88784385D01*
X117460696Y-88772999D01*
X120129696Y-88772999D01*
X120197817Y-88793001D01*
G37*
%TD.AperFunction*%
%TD*%
%TA.AperFunction,Conductor*%
%TO.N,Net-(C10-Pad1)*%
G36*
X166820121Y-77703032D02*
G01*
X166866614Y-77756688D01*
X166878000Y-77809030D01*
X166878000Y-84963000D01*
X169419000Y-84963000D01*
X169487121Y-84983002D01*
X169533614Y-85036658D01*
X169545000Y-85089000D01*
X169545000Y-87630000D01*
X172086000Y-87630000D01*
X172154121Y-87650002D01*
X172200614Y-87703658D01*
X172212000Y-87756000D01*
X172212000Y-88393000D01*
X172191998Y-88461121D01*
X172138342Y-88507614D01*
X172086000Y-88519000D01*
X168655000Y-88519000D01*
X168586879Y-88498998D01*
X168540386Y-88445342D01*
X168529000Y-88393000D01*
X168529000Y-86106000D01*
X165353000Y-86106000D01*
X165284879Y-86085998D01*
X165238386Y-86032342D01*
X165227000Y-85980000D01*
X165227000Y-77809030D01*
X165247002Y-77740909D01*
X165300658Y-77694416D01*
X165353000Y-77683030D01*
X166752000Y-77683030D01*
X166820121Y-77703032D01*
G37*
%TD.AperFunction*%
%TD*%
%TA.AperFunction,Conductor*%
%TO.N,VSS*%
G36*
X129087817Y-110840201D02*
G01*
X129134310Y-110893857D01*
X129145696Y-110946199D01*
X129145696Y-112293399D01*
X129603896Y-112293399D01*
X129672017Y-112313401D01*
X129718510Y-112367057D01*
X129729896Y-112419399D01*
X129729896Y-113588800D01*
X131242800Y-113588800D01*
X131310921Y-113608802D01*
X131357414Y-113662458D01*
X131368800Y-113714800D01*
X131368800Y-114631200D01*
X131348798Y-114699321D01*
X131295142Y-114745814D01*
X131242800Y-114757200D01*
X128714861Y-114757200D01*
X128646740Y-114737198D01*
X128613243Y-114705697D01*
X127861006Y-113679608D01*
X127850296Y-113664999D01*
X126553896Y-113664999D01*
X126485775Y-113644997D01*
X126439282Y-113591341D01*
X126427896Y-113538999D01*
X126427896Y-112114599D01*
X126447898Y-112046478D01*
X126501554Y-111999985D01*
X126553896Y-111988599D01*
X127443896Y-111988599D01*
X128536096Y-111404399D01*
X128536096Y-110946199D01*
X128556098Y-110878078D01*
X128609754Y-110831585D01*
X128662096Y-110820199D01*
X129019696Y-110820199D01*
X129087817Y-110840201D01*
G37*
%TD.AperFunction*%
%TD*%
%TA.AperFunction,Conductor*%
%TO.N,Net-(C37-Pad1)*%
G36*
X172154121Y-107970002D02*
G01*
X172200614Y-108023658D01*
X172212000Y-108076000D01*
X172212000Y-108840000D01*
X172191998Y-108908121D01*
X172138342Y-108954614D01*
X172086000Y-108966000D01*
X166878000Y-108966000D01*
X166878000Y-119507923D01*
X166857998Y-119576044D01*
X166804342Y-119622537D01*
X166751924Y-119633923D01*
X166221392Y-119633598D01*
X165353289Y-119633066D01*
X165285180Y-119613022D01*
X165238720Y-119559338D01*
X165227367Y-119506700D01*
X165253950Y-110362073D01*
X165253950Y-110361989D01*
X165252481Y-108076081D01*
X165272439Y-108007947D01*
X165326065Y-107961420D01*
X165378481Y-107950000D01*
X172086000Y-107950000D01*
X172154121Y-107970002D01*
G37*
%TD.AperFunction*%
%TD*%
%TA.AperFunction,Conductor*%
%TO.N,VDD*%
G36*
X134802816Y-107970001D02*
G01*
X134849309Y-108023657D01*
X134860695Y-108075999D01*
X134860695Y-109347999D01*
X134840693Y-109416120D01*
X134787037Y-109462613D01*
X134734695Y-109473999D01*
X132573695Y-109473999D01*
X132505574Y-109453997D01*
X132459081Y-109400341D01*
X132447695Y-109347999D01*
X132447695Y-108075999D01*
X132467697Y-108007878D01*
X132521353Y-107961385D01*
X132573695Y-107949999D01*
X134734695Y-107949999D01*
X134802816Y-107970001D01*
G37*
%TD.AperFunction*%
%TD*%
%TA.AperFunction,Conductor*%
%TO.N,VSS*%
G36*
X129087817Y-88996201D02*
G01*
X129134310Y-89049857D01*
X129145696Y-89102199D01*
X129145696Y-90449399D01*
X129603896Y-90449399D01*
X129672017Y-90469401D01*
X129718510Y-90523057D01*
X129729896Y-90575399D01*
X129729896Y-91719400D01*
X131242800Y-91719400D01*
X131310921Y-91739402D01*
X131357414Y-91793058D01*
X131368800Y-91845400D01*
X131368800Y-92812600D01*
X131348798Y-92880721D01*
X131295142Y-92927214D01*
X131242800Y-92938600D01*
X128219204Y-92938600D01*
X128151083Y-92918598D01*
X128104590Y-92864942D01*
X128093208Y-92811600D01*
X128104294Y-91414857D01*
X128104294Y-91414845D01*
X128104296Y-91414599D01*
X128104296Y-89102199D01*
X128124298Y-89034078D01*
X128177954Y-88987585D01*
X128230296Y-88976199D01*
X129019696Y-88976199D01*
X129087817Y-88996201D01*
G37*
%TD.AperFunction*%
%TD*%
%TA.AperFunction,Conductor*%
%TO.N,VSS*%
G36*
X149903721Y-89555002D02*
G01*
X149950214Y-89608658D01*
X149961600Y-89661000D01*
X149961600Y-92304600D01*
X149941598Y-92372721D01*
X149887942Y-92419214D01*
X149835600Y-92430600D01*
X148742400Y-92430600D01*
X148742400Y-94133400D01*
X148722398Y-94201521D01*
X148668742Y-94248014D01*
X148616400Y-94259400D01*
X147446000Y-94259400D01*
X147377879Y-94239398D01*
X147331386Y-94185742D01*
X147320000Y-94133400D01*
X147320000Y-92710000D01*
X145998200Y-92710000D01*
X145930079Y-92689998D01*
X145883586Y-92636342D01*
X145872200Y-92584000D01*
X145872200Y-92277200D01*
X145892202Y-92209079D01*
X145945858Y-92162586D01*
X145998200Y-92151200D01*
X147472400Y-92151200D01*
X147472400Y-91286600D01*
X147492402Y-91218479D01*
X147546058Y-91171986D01*
X147598400Y-91160600D01*
X148742400Y-91160600D01*
X148742400Y-89661000D01*
X148762402Y-89592879D01*
X148816058Y-89546386D01*
X148868400Y-89535000D01*
X149835600Y-89535000D01*
X149903721Y-89555002D01*
G37*
%TD.AperFunction*%
%TD*%
%TA.AperFunction,Conductor*%
%TO.N,VDD*%
G36*
X158869921Y-95016002D02*
G01*
X158916414Y-95069658D01*
X158927800Y-95122000D01*
X158927800Y-97435400D01*
X158907798Y-97503521D01*
X158854142Y-97550014D01*
X158801800Y-97561400D01*
X158444200Y-97561400D01*
X158376079Y-97541398D01*
X158329586Y-97487742D01*
X158318200Y-97435400D01*
X158318200Y-96672400D01*
X157962600Y-96316800D01*
X156663801Y-96316800D01*
X156595680Y-96296798D01*
X156549187Y-96243142D01*
X156537824Y-96193223D01*
X156517270Y-95124423D01*
X156535959Y-95055930D01*
X156588711Y-95008414D01*
X156643247Y-94996000D01*
X158801800Y-94996000D01*
X158869921Y-95016002D01*
G37*
%TD.AperFunction*%
%TD*%
%TA.AperFunction,Conductor*%
%TO.N,Net-(C37-Pad2)*%
G36*
X163772121Y-110383002D02*
G01*
X163818614Y-110436658D01*
X163830000Y-110489000D01*
X163830000Y-119508000D01*
X163809998Y-119576121D01*
X163756342Y-119622614D01*
X163704000Y-119634000D01*
X162305000Y-119634000D01*
X162236879Y-119613998D01*
X162190386Y-119560342D01*
X162179000Y-119508000D01*
X162179000Y-115062000D01*
X158241000Y-115062000D01*
X158172879Y-115041998D01*
X158126386Y-114988342D01*
X158115000Y-114936000D01*
X158115000Y-114426000D01*
X158135002Y-114357879D01*
X158188658Y-114311386D01*
X158241000Y-114300000D01*
X162204400Y-114300000D01*
X162179818Y-110489812D01*
X162199380Y-110421565D01*
X162252734Y-110374726D01*
X162305815Y-110363000D01*
X163704000Y-110363000D01*
X163772121Y-110383002D01*
G37*
%TD.AperFunction*%
%TD*%
%TA.AperFunction,Conductor*%
%TO.N,Net-(C10-Pad2)*%
G36*
X163755346Y-77701032D02*
G01*
X163801839Y-77754688D01*
X163813225Y-77807030D01*
X163813225Y-85472000D01*
X163793223Y-85540121D01*
X163739567Y-85586614D01*
X163687225Y-85598000D01*
X162415225Y-85598000D01*
X162347104Y-85577998D01*
X162300611Y-85524342D01*
X162289225Y-85472000D01*
X162289225Y-77807030D01*
X162309227Y-77738909D01*
X162362883Y-77692416D01*
X162415225Y-77681030D01*
X163687225Y-77681030D01*
X163755346Y-77701032D01*
G37*
%TD.AperFunction*%
%TD*%
%TA.AperFunction,Conductor*%
%TO.N,VDD*%
G36*
X134802817Y-86126001D02*
G01*
X134849310Y-86179657D01*
X134860696Y-86231999D01*
X134860696Y-87503999D01*
X134840694Y-87572120D01*
X134787038Y-87618613D01*
X134734696Y-87629999D01*
X132573696Y-87629999D01*
X132505575Y-87609997D01*
X132459082Y-87556341D01*
X132447696Y-87503999D01*
X132447696Y-86231999D01*
X132467698Y-86163878D01*
X132521354Y-86117385D01*
X132573696Y-86105999D01*
X134734696Y-86105999D01*
X134802817Y-86126001D01*
G37*
%TD.AperFunction*%
%TD*%
%TA.AperFunction,Conductor*%
%TO.N,VSS*%
G36*
X129087817Y-78404402D02*
G01*
X129134310Y-78458058D01*
X129145696Y-78510400D01*
X129145696Y-79781399D01*
X129603896Y-79781399D01*
X129672017Y-79801401D01*
X129718510Y-79855057D01*
X129729896Y-79907399D01*
X129729896Y-81051400D01*
X131242800Y-81051400D01*
X131310921Y-81071402D01*
X131357414Y-81125058D01*
X131368800Y-81177400D01*
X131368800Y-82144600D01*
X131348798Y-82212721D01*
X131295142Y-82259214D01*
X131242800Y-82270600D01*
X129403715Y-82270600D01*
X129335594Y-82250598D01*
X129328817Y-82245923D01*
X127864864Y-81163768D01*
X127864865Y-81163768D01*
X127850296Y-81152999D01*
X126706296Y-81152999D01*
X126638175Y-81132997D01*
X126591682Y-81079341D01*
X126580296Y-81026999D01*
X126580296Y-79602599D01*
X126600298Y-79534478D01*
X126653954Y-79487985D01*
X126706296Y-79476599D01*
X127431800Y-79476599D01*
X127431800Y-78510400D01*
X127451802Y-78442279D01*
X127505458Y-78395786D01*
X127557800Y-78384400D01*
X129019696Y-78384400D01*
X129087817Y-78404402D01*
G37*
%TD.AperFunction*%
%TD*%
%TA.AperFunction,Conductor*%
%TO.N,VSS*%
G36*
X129087817Y-99943601D02*
G01*
X129134310Y-99997257D01*
X129145696Y-100049599D01*
X129145696Y-101396799D01*
X129603896Y-101396799D01*
X129672017Y-101416801D01*
X129718510Y-101470457D01*
X129729896Y-101522799D01*
X129729896Y-102641400D01*
X131242800Y-102641400D01*
X131310921Y-102661402D01*
X131357414Y-102715058D01*
X131368800Y-102767400D01*
X131368800Y-103734600D01*
X131348798Y-103802721D01*
X131295142Y-103849214D01*
X131242800Y-103860600D01*
X128293286Y-103860600D01*
X128225165Y-103840598D01*
X128178672Y-103786942D01*
X128167291Y-103735719D01*
X128155101Y-102362562D01*
X128155096Y-102361443D01*
X128155096Y-100049599D01*
X128175098Y-99981478D01*
X128228754Y-99934985D01*
X128281096Y-99923599D01*
X129019696Y-99923599D01*
X129087817Y-99943601D01*
G37*
%TD.AperFunction*%
%TD*%
%TA.AperFunction,Conductor*%
%TO.N,Net-(C16-Pad1)*%
G36*
X166820121Y-93493013D02*
G01*
X166866614Y-93546669D01*
X166878000Y-93599011D01*
X166878000Y-96647000D01*
X170078400Y-97739200D01*
X172086000Y-97739200D01*
X172154121Y-97759202D01*
X172200614Y-97812858D01*
X172212000Y-97865200D01*
X172212000Y-98629200D01*
X172191998Y-98697321D01*
X172138342Y-98743814D01*
X172086000Y-98755200D01*
X170078400Y-98755200D01*
X170071891Y-98756595D01*
X170071889Y-98756595D01*
X168710672Y-99048285D01*
X166878000Y-99441000D01*
X166878000Y-102618011D01*
X166857998Y-102686132D01*
X166804342Y-102732625D01*
X166752000Y-102744011D01*
X165353366Y-102744011D01*
X165285245Y-102724009D01*
X165238752Y-102670353D01*
X165227367Y-102617645D01*
X165236591Y-99444774D01*
X165244711Y-96651388D01*
X165253585Y-93598645D01*
X165273785Y-93530582D01*
X165327575Y-93484246D01*
X165379584Y-93473011D01*
X166752000Y-93473011D01*
X166820121Y-93493013D01*
G37*
%TD.AperFunction*%
%TD*%
%TA.AperFunction,Conductor*%
%TO.N,VSS*%
G36*
X158412721Y-89656602D02*
G01*
X158459214Y-89710258D01*
X158470600Y-89762600D01*
X158470600Y-92787200D01*
X158450598Y-92855321D01*
X158396942Y-92901814D01*
X158344600Y-92913200D01*
X154380200Y-92913200D01*
X154312079Y-92893198D01*
X154265586Y-92839542D01*
X154254200Y-92787200D01*
X154254200Y-92480400D01*
X154274202Y-92412279D01*
X154327858Y-92365786D01*
X154380200Y-92354400D01*
X155981400Y-92354400D01*
X155981400Y-91413600D01*
X156001402Y-91345479D01*
X156055058Y-91298986D01*
X156107400Y-91287600D01*
X157251400Y-91287600D01*
X157251400Y-89762600D01*
X157271402Y-89694479D01*
X157325058Y-89647986D01*
X157377400Y-89636600D01*
X158344600Y-89636600D01*
X158412721Y-89656602D01*
G37*
%TD.AperFunction*%
%TD*%
%TA.AperFunction,Conductor*%
%TO.N,Net-(C14-Pad2)*%
G36*
X125023817Y-88793001D02*
G01*
X125070310Y-88846657D01*
X125081696Y-88898999D01*
X125081696Y-107188999D01*
X125061694Y-107257120D01*
X125008038Y-107303613D01*
X124955696Y-107314999D01*
X122413696Y-107314999D01*
X122345575Y-107294997D01*
X122299082Y-107241341D01*
X122287696Y-107188999D01*
X122287696Y-88898999D01*
X122307698Y-88830878D01*
X122361354Y-88784385D01*
X122413696Y-88772999D01*
X124955696Y-88772999D01*
X125023817Y-88793001D01*
G37*
%TD.AperFunction*%
%TD*%
%TA.AperFunction,Conductor*%
%TO.N,Net-(R5-Pad1)*%
G36*
X152748521Y-89224802D02*
G01*
X152795014Y-89278458D01*
X152806400Y-89330800D01*
X152806400Y-90780600D01*
X152786398Y-90848721D01*
X152732742Y-90895214D01*
X152680400Y-90906600D01*
X150392400Y-90906600D01*
X150324279Y-90886598D01*
X150277786Y-90832942D01*
X150266400Y-90780600D01*
X150266400Y-90270600D01*
X150286402Y-90202479D01*
X150340058Y-90155986D01*
X150392400Y-90144600D01*
X152247600Y-90144600D01*
X152247600Y-89330800D01*
X152267602Y-89262679D01*
X152321258Y-89216186D01*
X152373600Y-89204800D01*
X152680400Y-89204800D01*
X152748521Y-89224802D01*
G37*
%TD.AperFunction*%
%TD*%
%TA.AperFunction,Conductor*%
%TO.N,Net-(C16-Pad2)*%
G36*
X163772121Y-93492002D02*
G01*
X163818614Y-93545658D01*
X163830000Y-93598000D01*
X163830000Y-102617000D01*
X163809998Y-102685121D01*
X163756342Y-102731614D01*
X163704000Y-102743000D01*
X162305000Y-102743000D01*
X162236879Y-102722998D01*
X162190386Y-102669342D01*
X162179000Y-102617000D01*
X162179000Y-100076000D01*
X158241000Y-100076000D01*
X158172879Y-100055998D01*
X158126386Y-100002342D01*
X158115000Y-99950000D01*
X158115000Y-99440000D01*
X158135002Y-99371879D01*
X158188658Y-99325386D01*
X158241000Y-99314000D01*
X162179000Y-99314000D01*
X162179000Y-93598000D01*
X162199002Y-93529879D01*
X162252658Y-93483386D01*
X162305000Y-93472000D01*
X163704000Y-93472000D01*
X163772121Y-93492002D01*
G37*
%TD.AperFunction*%
%TD*%
%TA.AperFunction,Conductor*%
%TO.N,VSS*%
G36*
X155694921Y-100350002D02*
G01*
X155741414Y-100403658D01*
X155752800Y-100456000D01*
X155752800Y-101872399D01*
X155740855Y-101925947D01*
X155728814Y-101951593D01*
X155728813Y-101951596D01*
X155724999Y-101959720D01*
X155702876Y-102101804D01*
X155721521Y-102244386D01*
X155725136Y-102252601D01*
X155742129Y-102291221D01*
X155752800Y-102341967D01*
X155752800Y-102565200D01*
X155970654Y-102565200D01*
X156008228Y-102570933D01*
X156023839Y-102575810D01*
X156128914Y-102608638D01*
X156272686Y-102611273D01*
X156411418Y-102573450D01*
X156411531Y-102573865D01*
X156453372Y-102565200D01*
X156696253Y-102565200D01*
X156764374Y-102585202D01*
X156810867Y-102638858D01*
X156822224Y-102688520D01*
X156867662Y-104824120D01*
X156849114Y-104892651D01*
X156796459Y-104940274D01*
X156741691Y-104952800D01*
X154913600Y-104952800D01*
X154845479Y-104932798D01*
X154798986Y-104879142D01*
X154787600Y-104826800D01*
X154787600Y-102565200D01*
X153491200Y-102565200D01*
X153423079Y-102545198D01*
X153376586Y-102491542D01*
X153365200Y-102439200D01*
X153365200Y-101827600D01*
X153385202Y-101759479D01*
X153438858Y-101712986D01*
X153491200Y-101701600D01*
X154533600Y-101701600D01*
X154533600Y-100456000D01*
X154553602Y-100387879D01*
X154607258Y-100341386D01*
X154659600Y-100330000D01*
X155626800Y-100330000D01*
X155694921Y-100350002D01*
G37*
%TD.AperFunction*%
%TD*%
%TA.AperFunction,Conductor*%
%TO.N,VSS*%
G36*
X155694921Y-115336002D02*
G01*
X155741414Y-115389658D01*
X155752800Y-115442000D01*
X155752800Y-116858399D01*
X155740855Y-116911947D01*
X155728814Y-116937593D01*
X155728813Y-116937596D01*
X155724999Y-116945720D01*
X155702876Y-117087804D01*
X155721521Y-117230386D01*
X155725136Y-117238601D01*
X155742129Y-117277221D01*
X155752800Y-117327967D01*
X155752800Y-117551200D01*
X155970654Y-117551200D01*
X156008228Y-117556933D01*
X156023839Y-117561810D01*
X156128914Y-117594638D01*
X156272686Y-117597273D01*
X156411418Y-117559450D01*
X156411531Y-117559865D01*
X156453372Y-117551200D01*
X156696253Y-117551200D01*
X156764374Y-117571202D01*
X156810867Y-117624858D01*
X156822224Y-117674520D01*
X156867662Y-119810120D01*
X156849114Y-119878651D01*
X156796459Y-119926274D01*
X156741691Y-119938800D01*
X154913600Y-119938800D01*
X154845479Y-119918798D01*
X154798986Y-119865142D01*
X154787600Y-119812800D01*
X154787600Y-117551200D01*
X153491200Y-117551200D01*
X153423079Y-117531198D01*
X153376586Y-117477542D01*
X153365200Y-117425200D01*
X153365200Y-116813600D01*
X153385202Y-116745479D01*
X153438858Y-116698986D01*
X153491200Y-116687600D01*
X154533600Y-116687600D01*
X154533600Y-115442000D01*
X154553602Y-115373879D01*
X154607258Y-115327386D01*
X154659600Y-115316000D01*
X155626800Y-115316000D01*
X155694921Y-115336002D01*
G37*
%TD.AperFunction*%
%TD*%
%TA.AperFunction,Conductor*%
%TO.N,VDD*%
G36*
X159047721Y-98318002D02*
G01*
X159094214Y-98371658D01*
X159105600Y-98424000D01*
X159105600Y-98934000D01*
X159085598Y-99002121D01*
X159031942Y-99048614D01*
X158979600Y-99060000D01*
X158266400Y-99060000D01*
X158198279Y-99039998D01*
X158151786Y-98986342D01*
X158140400Y-98934000D01*
X158140400Y-98424000D01*
X158160402Y-98355879D01*
X158214058Y-98309386D01*
X158266400Y-98298000D01*
X158979600Y-98298000D01*
X159047721Y-98318002D01*
G37*
%TD.AperFunction*%
%TD*%
%TA.AperFunction,Conductor*%
%TO.N,VDD*%
G36*
X160012921Y-109646402D02*
G01*
X160059414Y-109700058D01*
X160070800Y-109752400D01*
X160070800Y-111532400D01*
X160050798Y-111600521D01*
X159997142Y-111647014D01*
X159944800Y-111658400D01*
X159004000Y-111658400D01*
X159004000Y-112345200D01*
X158983998Y-112413321D01*
X158930342Y-112459814D01*
X158878000Y-112471200D01*
X158571200Y-112471200D01*
X158503079Y-112451198D01*
X158456586Y-112397542D01*
X158445200Y-112345200D01*
X158445200Y-111607600D01*
X158141790Y-111607600D01*
X158073669Y-111587598D01*
X158052695Y-111570695D01*
X157770905Y-111288905D01*
X157736879Y-111226593D01*
X157734000Y-111199810D01*
X157734000Y-109752400D01*
X157754002Y-109684279D01*
X157807658Y-109637786D01*
X157860000Y-109626400D01*
X159944800Y-109626400D01*
X160012921Y-109646402D01*
G37*
%TD.AperFunction*%
%TD*%
%TA.AperFunction,Conductor*%
%TO.N,VDD*%
G36*
X159047721Y-113304002D02*
G01*
X159094214Y-113357658D01*
X159105600Y-113410000D01*
X159105600Y-113920000D01*
X159085598Y-113988121D01*
X159031942Y-114034614D01*
X158979600Y-114046000D01*
X158266400Y-114046000D01*
X158198279Y-114025998D01*
X158151786Y-113972342D01*
X158140400Y-113920000D01*
X158140400Y-113410000D01*
X158160402Y-113341879D01*
X158214058Y-113295386D01*
X158266400Y-113284000D01*
X158979600Y-113284000D01*
X159047721Y-113304002D01*
G37*
%TD.AperFunction*%
%TD*%
M02*
