%TF.GenerationSoftware,KiCad,Pcbnew,(6.0.2)*%
%TF.CreationDate,2022-05-06T23:20:48+08:00*%
%TF.ProjectId,NoiseAMP_V2.3,4e6f6973-6541-44d5-905f-56322e332e6b,rev?*%
%TF.SameCoordinates,Original*%
%TF.FileFunction,Copper,L4,Bot*%
%TF.FilePolarity,Positive*%
%FSLAX46Y46*%
G04 Gerber Fmt 4.6, Leading zero omitted, Abs format (unit mm)*
G04 Created by KiCad (PCBNEW (6.0.2)) date 2022-05-06 23:20:48*
%MOMM*%
%LPD*%
G01*
G04 APERTURE LIST*
G04 Aperture macros list*
%AMRoundRect*
0 Rectangle with rounded corners*
0 $1 Rounding radius*
0 $2 $3 $4 $5 $6 $7 $8 $9 X,Y pos of 4 corners*
0 Add a 4 corners polygon primitive as box body*
4,1,4,$2,$3,$4,$5,$6,$7,$8,$9,$2,$3,0*
0 Add four circle primitives for the rounded corners*
1,1,$1+$1,$2,$3*
1,1,$1+$1,$4,$5*
1,1,$1+$1,$6,$7*
1,1,$1+$1,$8,$9*
0 Add four rect primitives between the rounded corners*
20,1,$1+$1,$2,$3,$4,$5,0*
20,1,$1+$1,$4,$5,$6,$7,0*
20,1,$1+$1,$6,$7,$8,$9,0*
20,1,$1+$1,$8,$9,$2,$3,0*%
G04 Aperture macros list end*
%TA.AperFunction,ComponentPad*%
%ADD10C,3.600000*%
%TD*%
%TA.AperFunction,ComponentPad*%
%ADD11C,1.440000*%
%TD*%
%TA.AperFunction,ComponentPad*%
%ADD12RoundRect,0.250000X0.600000X0.725000X-0.600000X0.725000X-0.600000X-0.725000X0.600000X-0.725000X0*%
%TD*%
%TA.AperFunction,ComponentPad*%
%ADD13O,1.700000X1.950000*%
%TD*%
%TA.AperFunction,SMDPad,CuDef*%
%ADD14RoundRect,0.140000X-0.140000X-0.170000X0.140000X-0.170000X0.140000X0.170000X-0.140000X0.170000X0*%
%TD*%
%TA.AperFunction,SMDPad,CuDef*%
%ADD15RoundRect,0.140000X0.140000X0.170000X-0.140000X0.170000X-0.140000X-0.170000X0.140000X-0.170000X0*%
%TD*%
%TA.AperFunction,SMDPad,CuDef*%
%ADD16RoundRect,0.250000X-0.787500X-0.925000X0.787500X-0.925000X0.787500X0.925000X-0.787500X0.925000X0*%
%TD*%
%TA.AperFunction,SMDPad,CuDef*%
%ADD17RoundRect,0.250000X0.325000X0.650000X-0.325000X0.650000X-0.325000X-0.650000X0.325000X-0.650000X0*%
%TD*%
%TA.AperFunction,SMDPad,CuDef*%
%ADD18RoundRect,0.140000X0.170000X-0.140000X0.170000X0.140000X-0.170000X0.140000X-0.170000X-0.140000X0*%
%TD*%
%TA.AperFunction,ViaPad*%
%ADD19C,0.603000*%
%TD*%
%TA.AperFunction,ViaPad*%
%ADD20C,0.800000*%
%TD*%
%TA.AperFunction,Conductor*%
%ADD21C,0.250000*%
%TD*%
%TA.AperFunction,Conductor*%
%ADD22C,0.400000*%
%TD*%
%TA.AperFunction,Conductor*%
%ADD23C,0.500000*%
%TD*%
G04 APERTURE END LIST*
D10*
%TO.P,H1,1*%
%TO.N,N/C*%
X116789200Y-79123000D03*
%TD*%
%TO.P,H3,1*%
%TO.N,N/C*%
X174747228Y-79044800D03*
%TD*%
%TO.P,H4,1*%
%TO.N,N/C*%
X174747228Y-116990259D03*
%TD*%
D11*
%TO.P,RV1,1,1*%
%TO.N,Net-(R2-Pad2)*%
X154295000Y-85933478D03*
%TO.P,RV1,2,2*%
%TO.N,Net-(R22-Pad2)*%
X156835000Y-85933478D03*
%TO.P,RV1,3,3*%
X159375000Y-85933478D03*
%TD*%
D10*
%TO.P,H2,1*%
%TO.N,N/C*%
X116789200Y-116842000D03*
%TD*%
D12*
%TO.P,J1,1,Pin_1*%
%TO.N,VDD*%
X151471000Y-79392000D03*
D13*
%TO.P,J1,2,Pin_2*%
%TO.N,GND*%
X148971000Y-79392000D03*
%TO.P,J1,3,Pin_3*%
%TO.N,VSS*%
X146471000Y-79392000D03*
%TD*%
D14*
%TO.P,C52,1*%
%TO.N,VDD*%
X132082600Y-103276400D03*
%TO.P,C52,2*%
%TO.N,GND*%
X133042600Y-103276400D03*
%TD*%
D15*
%TO.P,C55,1*%
%TO.N,VDD*%
X159077600Y-88188800D03*
%TO.P,C55,2*%
%TO.N,GND*%
X158117600Y-88188800D03*
%TD*%
D14*
%TO.P,C50,1*%
%TO.N,VDD*%
X132082600Y-81711800D03*
%TO.P,C50,2*%
%TO.N,GND*%
X133042600Y-81711800D03*
%TD*%
D16*
%TO.P,C34,1*%
%TO.N,Net-(C14-Pad1)*%
X118758396Y-101853999D03*
%TO.P,C34,2*%
%TO.N,Net-(C14-Pad2)*%
X123683396Y-101853999D03*
%TD*%
D17*
%TO.P,C48,1*%
%TO.N,Net-(C37-Pad1)*%
X166067000Y-117262111D03*
%TO.P,C48,2*%
%TO.N,Net-(C37-Pad2)*%
X163117000Y-117262111D03*
%TD*%
D18*
%TO.P,C54,1*%
%TO.N,VDD*%
X152273000Y-87043200D03*
%TO.P,C54,2*%
%TO.N,GND*%
X152273000Y-86083200D03*
%TD*%
D17*
%TO.P,C47,1*%
%TO.N,Net-(C37-Pad1)*%
X166067000Y-114849111D03*
%TO.P,C47,2*%
%TO.N,Net-(C37-Pad2)*%
X163117000Y-114849111D03*
%TD*%
D14*
%TO.P,C51,1*%
%TO.N,VDD*%
X132082600Y-92583000D03*
%TO.P,C51,2*%
%TO.N,GND*%
X133042600Y-92583000D03*
%TD*%
%TO.P,C53,1*%
%TO.N,VDD*%
X132057200Y-114350800D03*
%TO.P,C53,2*%
%TO.N,GND*%
X133017200Y-114350800D03*
%TD*%
D16*
%TO.P,C30,1*%
%TO.N,Net-(C14-Pad1)*%
X118758396Y-94233999D03*
%TO.P,C30,2*%
%TO.N,Net-(C14-Pad2)*%
X123683396Y-94233999D03*
%TD*%
%TO.P,C27,1*%
%TO.N,Net-(C14-Pad1)*%
X118758396Y-90423999D03*
%TO.P,C27,2*%
%TO.N,Net-(C14-Pad2)*%
X123683396Y-90423999D03*
%TD*%
D17*
%TO.P,C31,1*%
%TO.N,Net-(C16-Pad1)*%
X166043835Y-98044000D03*
%TO.P,C31,2*%
%TO.N,Net-(C16-Pad2)*%
X163093835Y-98044000D03*
%TD*%
%TO.P,C12,1*%
%TO.N,Net-(C10-Pad1)*%
X166043835Y-83439000D03*
%TO.P,C12,2*%
%TO.N,Net-(C10-Pad2)*%
X163093835Y-83439000D03*
%TD*%
%TO.P,C29,1*%
%TO.N,Net-(C16-Pad1)*%
X166043835Y-95631000D03*
%TO.P,C29,2*%
%TO.N,Net-(C16-Pad2)*%
X163093835Y-95631000D03*
%TD*%
D16*
%TO.P,C35,1*%
%TO.N,Net-(C14-Pad1)*%
X118758396Y-105663999D03*
%TO.P,C35,2*%
%TO.N,Net-(C14-Pad2)*%
X123683396Y-105663999D03*
%TD*%
D17*
%TO.P,C11,1*%
%TO.N,Net-(C10-Pad1)*%
X166043835Y-81026000D03*
%TO.P,C11,2*%
%TO.N,Net-(C10-Pad2)*%
X163093835Y-81026000D03*
%TD*%
%TO.P,C33,1*%
%TO.N,Net-(C16-Pad1)*%
X166043835Y-100457000D03*
%TO.P,C33,2*%
%TO.N,Net-(C16-Pad2)*%
X163093835Y-100457000D03*
%TD*%
%TO.P,C10,1*%
%TO.N,Net-(C10-Pad1)*%
X166043835Y-78613000D03*
%TO.P,C10,2*%
%TO.N,Net-(C10-Pad2)*%
X163093835Y-78613000D03*
%TD*%
%TO.P,C46,1*%
%TO.N,Net-(C37-Pad1)*%
X166067000Y-112436111D03*
%TO.P,C46,2*%
%TO.N,Net-(C37-Pad2)*%
X163117000Y-112436111D03*
%TD*%
D16*
%TO.P,C32,1*%
%TO.N,Net-(C14-Pad1)*%
X118758396Y-98043999D03*
%TO.P,C32,2*%
%TO.N,Net-(C14-Pad2)*%
X123683396Y-98043999D03*
%TD*%
D19*
%TO.N,Net-(R22-Pad2)*%
X161036000Y-91744800D03*
%TO.N,Net-(C3-Pad1)*%
X150739500Y-91957500D03*
X150749000Y-88773000D03*
%TO.N,GND*%
X152781000Y-84709000D03*
X157302200Y-88188800D03*
X158117600Y-87452200D03*
X152527000Y-94411800D03*
X160121600Y-102870000D03*
X160985200Y-102108000D03*
X160121600Y-101422200D03*
X160121600Y-117779800D03*
X160934400Y-117094000D03*
X160121600Y-116332000D03*
X154203400Y-104013000D03*
X154178000Y-119126000D03*
X152690990Y-118073010D03*
X152019000Y-119126000D03*
X152682000Y-116456400D03*
X152095200Y-115951000D03*
X160299400Y-112191800D03*
X160274000Y-107950000D03*
X159181800Y-106807000D03*
X152146000Y-104038400D03*
X153212800Y-105054400D03*
X152682000Y-101521200D03*
X152146000Y-100990400D03*
%TO.N,VDD*%
X158597600Y-113538000D03*
X158089600Y-110185200D03*
X158089600Y-110998000D03*
X158597600Y-98552000D03*
D20*
%TO.N,VSS*%
X156108400Y-103124000D03*
X155143200Y-102362000D03*
X155143200Y-101244400D03*
X157226000Y-100228400D03*
X157226000Y-99161600D03*
X157243520Y-115220567D03*
X157226000Y-114147600D03*
X156108400Y-118110000D03*
X155143200Y-117297200D03*
X155143200Y-116179600D03*
D19*
%TO.N,Net-(C38-Pad2)*%
X156210000Y-113157000D03*
X156210000Y-117094000D03*
%TO.N,Net-(C17-Pad2)*%
X156210000Y-98171000D03*
X156210000Y-102108000D03*
%TO.N,Net-(C10-Pad1)*%
X166471600Y-79918230D03*
X166471600Y-82305830D03*
X165658800Y-82305830D03*
X165658800Y-79918230D03*
X166471600Y-84744230D03*
X165658800Y-84744230D03*
%TO.N,Net-(C10-Pad2)*%
X162661600Y-79918230D03*
X163423600Y-82305830D03*
X163423600Y-79918230D03*
X163423600Y-84744230D03*
X162661600Y-84744230D03*
X162661600Y-82305830D03*
D20*
%TO.N,Net-(C14-Pad1)*%
X117842696Y-96138999D03*
X118807896Y-99948999D03*
X119747696Y-96138999D03*
X117842696Y-92328999D03*
X118807896Y-92328999D03*
X118807896Y-96138999D03*
X119747696Y-99948999D03*
X117842696Y-99948999D03*
X119747696Y-103758999D03*
X117842696Y-103758999D03*
X118807896Y-103758999D03*
X119747696Y-92328999D03*
%TO.N,Net-(C14-Pad2)*%
X124573696Y-96138999D03*
X124573696Y-103758999D03*
X122795696Y-92328999D03*
X122795696Y-103758999D03*
X123684696Y-92328999D03*
X122795696Y-99948999D03*
X123684696Y-99948999D03*
X123684696Y-96138999D03*
X122795696Y-96138999D03*
X124573696Y-99948999D03*
X124573696Y-92328999D03*
X123684696Y-103758999D03*
D19*
%TO.N,Net-(C16-Pad1)*%
X165709600Y-95707200D03*
X166471600Y-95707200D03*
X165709600Y-98094800D03*
X166471600Y-98094800D03*
X166471600Y-100533200D03*
X165709600Y-100533200D03*
%TO.N,Net-(C16-Pad2)*%
X162661600Y-95707200D03*
X162661600Y-100533200D03*
X162661600Y-98094800D03*
X163423600Y-100533200D03*
X163423600Y-98094800D03*
X163423600Y-95707200D03*
%TO.N,GND*%
X130364896Y-86372096D03*
X130876896Y-76996704D03*
X118731696Y-108076999D03*
X133807200Y-103276400D03*
X119493696Y-88010999D03*
X128190001Y-115548399D03*
X116572696Y-104901999D03*
X123557696Y-88010999D03*
X113258600Y-99366600D03*
X116572696Y-101853999D03*
X116572696Y-105917999D03*
X136794896Y-109845496D03*
D20*
X172618400Y-106984800D03*
D19*
X116572696Y-100837999D03*
X130886200Y-109372400D03*
X137920001Y-86869999D03*
X116572696Y-93979999D03*
X138123201Y-108688599D03*
D20*
X167767000Y-103301800D03*
X172618400Y-109931200D03*
D19*
X120509696Y-88010999D03*
X126317999Y-115548399D03*
X116699696Y-107822999D03*
X125843696Y-98133504D03*
X115622600Y-96416600D03*
X116572696Y-102869999D03*
X116572696Y-91947999D03*
D20*
X168747912Y-119294112D03*
D19*
X130872896Y-98641504D03*
X125843696Y-104520999D03*
X125843696Y-101472999D03*
X136794896Y-87798296D03*
X116572696Y-90931999D03*
D20*
X172618400Y-99720400D03*
D19*
X126111000Y-78994000D03*
X130454400Y-97053400D03*
X130876896Y-86953504D03*
X127240696Y-114591496D03*
X125843696Y-106552999D03*
X116572696Y-89915999D03*
X127240696Y-116572696D03*
X126136400Y-83032600D03*
X125843696Y-102488999D03*
X114577600Y-99366600D03*
D20*
X173736000Y-99720400D03*
X174701200Y-108458000D03*
X174701200Y-88087200D03*
D19*
X128144199Y-99238999D03*
X111758600Y-96418400D03*
X125843696Y-93344999D03*
X121525696Y-88010999D03*
X122541696Y-88010999D03*
D20*
X150723600Y-94691200D03*
D19*
X111758600Y-99364800D03*
X128168400Y-83032600D03*
D20*
X173736000Y-106984800D03*
D19*
X118477696Y-88010999D03*
X133654800Y-81711800D03*
X125602396Y-88252299D03*
X124573696Y-88010999D03*
X128045999Y-110138999D03*
D20*
X172618400Y-86614000D03*
D19*
X116572696Y-99821999D03*
X116572696Y-92963999D03*
X124827696Y-108076999D03*
X125843696Y-103504999D03*
D20*
X173736000Y-96774000D03*
D19*
X130364896Y-118885304D03*
X125843696Y-91312999D03*
X125843696Y-100456999D03*
X114606600Y-96416600D03*
X129667000Y-118237000D03*
X116572696Y-88899999D03*
X125843696Y-105536999D03*
D20*
X173736000Y-86614000D03*
X145262600Y-91770200D03*
D19*
X130581400Y-108686600D03*
X113258600Y-96416600D03*
X125843696Y-90296999D03*
X120763696Y-108076999D03*
X136794896Y-107451504D03*
X119747696Y-108076999D03*
X125843696Y-94360999D03*
D20*
X160477200Y-97282000D03*
D19*
X125780800Y-107645200D03*
X130886200Y-97815400D03*
D20*
X167767000Y-88392000D03*
D19*
X117715696Y-108076999D03*
X130876896Y-87690104D03*
D20*
X172618400Y-89560400D03*
D19*
X117461696Y-88010999D03*
X127189896Y-83984496D03*
X125843696Y-92328999D03*
X122795696Y-108076999D03*
X111758600Y-97891600D03*
X128844896Y-87664704D03*
X125843696Y-89280999D03*
X128840896Y-109512704D03*
D20*
X172618400Y-96774000D03*
D19*
X116572696Y-106933999D03*
X125843696Y-95376999D03*
X136794896Y-85791696D03*
D20*
X174701200Y-98247200D03*
D19*
X121779696Y-108076999D03*
X128840896Y-98614896D03*
D20*
X167767000Y-87452200D03*
D19*
X155409900Y-91351100D03*
X123811696Y-108076999D03*
D20*
X161086800Y-95656400D03*
D19*
X115619000Y-99366600D03*
D20*
X168833800Y-102489000D03*
D19*
X133654800Y-114350800D03*
X130364896Y-107988704D03*
X133832600Y-92583000D03*
D20*
X173736000Y-89560400D03*
D19*
X125843696Y-99440999D03*
X116572696Y-96011999D03*
D20*
X173736000Y-109931200D03*
X167792400Y-120091200D03*
D19*
X116572696Y-103885999D03*
X116572696Y-94995999D03*
X128071399Y-88294999D03*
%TO.N,Net-(C37-Pad1)*%
X165709600Y-114909600D03*
X165709600Y-117297200D03*
X166471600Y-114909600D03*
X165709600Y-112471200D03*
X166471600Y-117297200D03*
X166471600Y-112471200D03*
%TO.N,Net-(C37-Pad2)*%
X162712400Y-117297200D03*
X163423600Y-112471200D03*
X163474400Y-117297200D03*
X163474400Y-114909600D03*
X162712400Y-114909600D03*
X162661600Y-112471200D03*
%TO.N,VDD*%
X160045400Y-88163400D03*
X132066696Y-104393999D03*
X132066696Y-82778599D03*
X132041296Y-115315999D03*
X158572200Y-96393000D03*
X132828696Y-108330999D03*
X160045400Y-88925400D03*
X132066696Y-93497399D03*
X158572200Y-95554800D03*
X132828696Y-109092999D03*
X132828696Y-86486999D03*
X132828696Y-87248999D03*
D20*
X152273000Y-88239600D03*
D19*
%TO.N,VSS*%
X129870200Y-81635600D03*
X147980400Y-92430600D03*
X128637696Y-112013999D03*
X128637696Y-101091999D03*
X156337000Y-92633800D03*
X128637696Y-101980999D03*
X129870200Y-92303600D03*
X146913600Y-92430600D03*
X130810000Y-81635600D03*
X130886200Y-92329000D03*
X128637696Y-80263999D03*
X129870200Y-103225600D03*
X128637696Y-79247999D03*
X130835400Y-103225600D03*
X130860800Y-114173000D03*
X128637696Y-90931999D03*
X128637696Y-112902999D03*
X155295600Y-92633800D03*
X128637696Y-90042999D03*
X129819400Y-114173000D03*
%TD*%
D21*
%TO.N,Net-(R22-Pad2)*%
X160634878Y-85933478D02*
X159375000Y-85933478D01*
X161874200Y-87172800D02*
X160634878Y-85933478D01*
X161874200Y-91414600D02*
X161874200Y-87172800D01*
X161544000Y-91744800D02*
X161874200Y-91414600D01*
X161036000Y-91744800D02*
X161544000Y-91744800D01*
%TO.N,Net-(C3-Pad1)*%
X150739500Y-91957500D02*
X150749000Y-91948000D01*
X150749000Y-91948000D02*
X150749000Y-88773000D01*
D22*
%TO.N,GND*%
X152273000Y-85217000D02*
X152781000Y-84709000D01*
X152273000Y-86083200D02*
X152273000Y-85217000D01*
X158117600Y-88188800D02*
X157302200Y-88188800D01*
X158117600Y-88188800D02*
X158117600Y-87452200D01*
D21*
%TO.N,VDD*%
X159103000Y-88163400D02*
X159077600Y-88188800D01*
X160045400Y-88163400D02*
X159103000Y-88163400D01*
D23*
%TO.N,GND*%
X133042600Y-92583000D02*
X133832600Y-92583000D01*
X133042600Y-103276400D02*
X133807200Y-103276400D01*
X133017200Y-114350800D02*
X133654800Y-114350800D01*
X133042600Y-81711800D02*
X133654800Y-81711800D01*
%TO.N,VDD*%
X132064096Y-103250999D02*
X132064096Y-104391399D01*
X132066696Y-96151096D02*
X132066696Y-93497399D01*
X132064096Y-104391399D02*
X132066696Y-104393999D01*
X132588000Y-88392000D02*
X132588000Y-91830495D01*
X132765799Y-86486999D02*
X132066696Y-85787896D01*
X132036096Y-115310799D02*
X132041296Y-115315999D01*
X132828696Y-109969904D02*
X132588000Y-110210600D01*
X149910800Y-77216000D02*
X136144000Y-77216000D01*
X152273000Y-87043200D02*
X152273000Y-88239600D01*
X132828696Y-86486999D02*
X132765799Y-86486999D01*
X132064096Y-81660999D02*
X132064096Y-82775999D01*
X132064096Y-82775999D02*
X132066696Y-82778599D01*
X132588000Y-96672400D02*
X132066696Y-96151096D01*
X136144000Y-77216000D02*
X132082600Y-81277400D01*
X132064096Y-103250999D02*
X132064096Y-102098504D01*
X132828696Y-87248999D02*
X132828696Y-88151304D01*
X132828696Y-109092999D02*
X132828696Y-109969904D01*
X132828696Y-87248999D02*
X132828696Y-86486999D01*
X132828696Y-107631896D02*
X132066696Y-106869896D01*
X132082600Y-81277400D02*
X132082600Y-81711800D01*
X132828696Y-108330999D02*
X132828696Y-107631896D01*
X151471000Y-78776200D02*
X149910800Y-77216000D01*
X132588000Y-110210600D02*
X132588000Y-113621095D01*
X132064096Y-93494799D02*
X132066696Y-93497399D01*
X132828696Y-88151304D02*
X132588000Y-88392000D01*
X132066696Y-106869896D02*
X132066696Y-104393999D01*
X132588000Y-91830495D02*
X132064096Y-92354399D01*
X132066696Y-85787896D02*
X132066696Y-82778599D01*
X132828696Y-109092999D02*
X132828696Y-108330999D01*
X132064096Y-102098504D02*
X132588000Y-101574600D01*
X132588000Y-113621095D02*
X132036096Y-114172999D01*
X132036096Y-114172999D02*
X132036096Y-115310799D01*
X132588000Y-101574600D02*
X132588000Y-96672400D01*
X132064096Y-92354399D02*
X132064096Y-93494799D01*
X151471000Y-79392000D02*
X151471000Y-78776200D01*
%TD*%
%TA.AperFunction,Conductor*%
%TO.N,Net-(C14-Pad1)*%
G36*
X120197817Y-88793001D02*
G01*
X120244310Y-88846657D01*
X120255696Y-88898999D01*
X120255696Y-107188999D01*
X120235694Y-107257120D01*
X120182038Y-107303613D01*
X120129696Y-107314999D01*
X117460696Y-107314999D01*
X117392575Y-107294997D01*
X117346082Y-107241341D01*
X117334696Y-107188999D01*
X117334696Y-88898999D01*
X117354698Y-88830878D01*
X117408354Y-88784385D01*
X117460696Y-88772999D01*
X120129696Y-88772999D01*
X120197817Y-88793001D01*
G37*
%TD.AperFunction*%
%TD*%
%TA.AperFunction,Conductor*%
%TO.N,Net-(C10-Pad2)*%
G36*
X163755346Y-77701032D02*
G01*
X163801839Y-77754688D01*
X163813225Y-77807030D01*
X163813225Y-85472000D01*
X163793223Y-85540121D01*
X163739567Y-85586614D01*
X163687225Y-85598000D01*
X162415225Y-85598000D01*
X162347104Y-85577998D01*
X162300611Y-85524342D01*
X162289225Y-85472000D01*
X162289225Y-77807030D01*
X162309227Y-77738909D01*
X162362883Y-77692416D01*
X162415225Y-77681030D01*
X163687225Y-77681030D01*
X163755346Y-77701032D01*
G37*
%TD.AperFunction*%
%TD*%
%TA.AperFunction,Conductor*%
%TO.N,Net-(C14-Pad2)*%
G36*
X125023817Y-88793001D02*
G01*
X125070310Y-88846657D01*
X125081696Y-88898999D01*
X125081696Y-107188999D01*
X125061694Y-107257120D01*
X125008038Y-107303613D01*
X124955696Y-107314999D01*
X122413696Y-107314999D01*
X122345575Y-107294997D01*
X122299082Y-107241341D01*
X122287696Y-107188999D01*
X122287696Y-88898999D01*
X122307698Y-88830878D01*
X122361354Y-88784385D01*
X122413696Y-88772999D01*
X124955696Y-88772999D01*
X125023817Y-88793001D01*
G37*
%TD.AperFunction*%
%TD*%
%TA.AperFunction,Conductor*%
%TO.N,Net-(C37-Pad1)*%
G36*
X166820121Y-110256002D02*
G01*
X166866614Y-110309658D01*
X166878000Y-110362000D01*
X166878000Y-119507923D01*
X166857998Y-119576044D01*
X166804342Y-119622537D01*
X166751924Y-119633923D01*
X166221392Y-119633598D01*
X165353289Y-119633066D01*
X165285180Y-119613022D01*
X165238720Y-119559338D01*
X165227367Y-119506700D01*
X165253950Y-110361989D01*
X165258949Y-110362004D01*
X165259065Y-110326114D01*
X165297640Y-110266511D01*
X165362315Y-110237226D01*
X165379846Y-110236000D01*
X166752000Y-110236000D01*
X166820121Y-110256002D01*
G37*
%TD.AperFunction*%
%TD*%
%TA.AperFunction,Conductor*%
%TO.N,Net-(C16-Pad1)*%
G36*
X166825060Y-93494799D02*
G01*
X166871553Y-93548455D01*
X166882939Y-93600797D01*
X166882939Y-96648385D01*
X166882936Y-96649232D01*
X166878000Y-97383600D01*
X166878000Y-98653600D01*
X166878001Y-98653735D01*
X166878001Y-98653817D01*
X166882937Y-99442466D01*
X166882939Y-99443255D01*
X166882939Y-102619797D01*
X166862937Y-102687918D01*
X166809281Y-102734411D01*
X166756939Y-102745797D01*
X165358305Y-102745797D01*
X165290184Y-102725795D01*
X165243691Y-102672139D01*
X165232306Y-102619431D01*
X165241541Y-99442786D01*
X165249661Y-96649232D01*
X165258524Y-93600431D01*
X165278724Y-93532368D01*
X165332514Y-93486032D01*
X165384523Y-93474797D01*
X166756939Y-93474797D01*
X166825060Y-93494799D01*
G37*
%TD.AperFunction*%
%TD*%
%TA.AperFunction,Conductor*%
%TO.N,Net-(C16-Pad2)*%
G36*
X163767014Y-93484953D02*
G01*
X163813507Y-93538609D01*
X163824893Y-93590951D01*
X163824893Y-102609951D01*
X163804891Y-102678072D01*
X163751235Y-102724565D01*
X163698893Y-102735951D01*
X162299893Y-102735951D01*
X162231772Y-102715949D01*
X162185279Y-102662293D01*
X162173893Y-102609951D01*
X162173893Y-100234870D01*
X162178476Y-100217482D01*
X162176518Y-100217256D01*
X162178278Y-100202004D01*
X162179000Y-100203000D01*
X162179000Y-99060000D01*
X162175652Y-99055379D01*
X162173893Y-99044247D01*
X162173893Y-93590951D01*
X162193895Y-93522830D01*
X162247551Y-93476337D01*
X162299893Y-93464951D01*
X163698893Y-93464951D01*
X163767014Y-93484953D01*
G37*
%TD.AperFunction*%
%TD*%
%TA.AperFunction,Conductor*%
%TO.N,Net-(C37-Pad2)*%
G36*
X163772121Y-110383002D02*
G01*
X163818614Y-110436658D01*
X163830000Y-110489000D01*
X163830000Y-119508000D01*
X163809998Y-119576121D01*
X163756342Y-119622614D01*
X163704000Y-119634000D01*
X162305000Y-119634000D01*
X162236879Y-119613998D01*
X162190386Y-119560342D01*
X162179000Y-119508000D01*
X162179000Y-110489000D01*
X162199002Y-110420879D01*
X162252658Y-110374386D01*
X162305000Y-110363000D01*
X163704000Y-110363000D01*
X163772121Y-110383002D01*
G37*
%TD.AperFunction*%
%TD*%
%TA.AperFunction,Conductor*%
%TO.N,GND*%
G36*
X125491931Y-87777002D02*
G01*
X125512905Y-87793905D01*
X126074095Y-88355095D01*
X126108121Y-88417407D01*
X126111000Y-88444190D01*
X126111000Y-107643810D01*
X126090998Y-107711931D01*
X126074095Y-107732905D01*
X125512905Y-108294095D01*
X125450593Y-108328121D01*
X125423810Y-108331000D01*
X116765190Y-108331000D01*
X116697069Y-108310998D01*
X116676095Y-108294095D01*
X116368905Y-107986905D01*
X116334879Y-107924593D01*
X116332000Y-107897810D01*
X116332000Y-107188999D01*
X117034696Y-107188999D01*
X117041552Y-107252767D01*
X117052938Y-107305109D01*
X117063698Y-107342630D01*
X117067675Y-107349430D01*
X117115895Y-107431879D01*
X117119357Y-107437799D01*
X117165850Y-107491455D01*
X117209780Y-107532875D01*
X117308056Y-107582845D01*
X117313642Y-107584485D01*
X117313644Y-107584486D01*
X117371865Y-107601581D01*
X117376177Y-107602847D01*
X117380617Y-107603485D01*
X117380620Y-107603486D01*
X117456250Y-107614360D01*
X117456253Y-107614360D01*
X117460696Y-107614999D01*
X120129696Y-107614999D01*
X120193464Y-107608143D01*
X120196754Y-107607427D01*
X120196756Y-107607427D01*
X120237966Y-107598463D01*
X120308782Y-107603529D01*
X120330855Y-107616626D01*
X120331896Y-107616852D01*
X120331896Y-107619799D01*
X122211496Y-107619799D01*
X122211496Y-107614480D01*
X122237861Y-107606738D01*
X122248390Y-107599972D01*
X122319386Y-107599972D01*
X122329177Y-107602847D01*
X122333617Y-107603485D01*
X122333620Y-107603486D01*
X122409250Y-107614360D01*
X122409253Y-107614360D01*
X122413696Y-107614999D01*
X124955696Y-107614999D01*
X125019464Y-107608143D01*
X125022748Y-107607429D01*
X125022752Y-107607428D01*
X125049625Y-107601582D01*
X125071806Y-107596757D01*
X125109327Y-107585997D01*
X125193172Y-107536961D01*
X125199475Y-107533275D01*
X125199479Y-107533272D01*
X125204496Y-107530338D01*
X125258152Y-107483845D01*
X125299572Y-107439915D01*
X125349542Y-107341639D01*
X125369544Y-107273518D01*
X125381696Y-107188999D01*
X125381696Y-88898999D01*
X125374840Y-88835231D01*
X125363454Y-88782889D01*
X125352694Y-88745368D01*
X125343322Y-88729344D01*
X125299972Y-88655220D01*
X125299969Y-88655216D01*
X125297035Y-88650199D01*
X125250542Y-88596543D01*
X125206612Y-88555123D01*
X125108336Y-88505153D01*
X125102750Y-88503513D01*
X125102748Y-88503512D01*
X125044527Y-88486417D01*
X125044526Y-88486417D01*
X125040215Y-88485151D01*
X125035775Y-88484513D01*
X125035772Y-88484512D01*
X124960142Y-88473638D01*
X124960139Y-88473638D01*
X124955696Y-88472999D01*
X122413696Y-88472999D01*
X122349928Y-88479855D01*
X122346638Y-88480571D01*
X122346636Y-88480571D01*
X122305426Y-88489535D01*
X122234610Y-88484469D01*
X122212537Y-88471372D01*
X122211496Y-88471146D01*
X122211496Y-88468199D01*
X120331896Y-88468199D01*
X120331896Y-88473518D01*
X120305531Y-88481260D01*
X120295002Y-88488026D01*
X120224006Y-88488026D01*
X120214215Y-88485151D01*
X120209775Y-88484513D01*
X120209772Y-88484512D01*
X120134142Y-88473638D01*
X120134139Y-88473638D01*
X120129696Y-88472999D01*
X117460696Y-88472999D01*
X117396928Y-88479855D01*
X117393644Y-88480569D01*
X117393640Y-88480570D01*
X117375717Y-88484469D01*
X117344586Y-88491241D01*
X117307065Y-88502001D01*
X117300265Y-88505978D01*
X117216917Y-88554723D01*
X117216913Y-88554726D01*
X117211896Y-88557660D01*
X117158240Y-88604153D01*
X117116820Y-88648083D01*
X117066850Y-88746359D01*
X117046848Y-88814480D01*
X117034696Y-88898999D01*
X117034696Y-107188999D01*
X116332000Y-107188999D01*
X116332000Y-100457000D01*
X110743000Y-100457000D01*
X110674879Y-100436998D01*
X110628386Y-100383342D01*
X110617000Y-100331000D01*
X110617000Y-95503000D01*
X110637002Y-95434879D01*
X110690658Y-95388386D01*
X110743000Y-95377000D01*
X116332000Y-95377000D01*
X116332000Y-88571190D01*
X116352002Y-88503069D01*
X116368905Y-88482095D01*
X117057095Y-87793905D01*
X117119407Y-87759879D01*
X117146190Y-87757000D01*
X125423810Y-87757000D01*
X125491931Y-87777002D01*
G37*
%TD.AperFunction*%
%TD*%
%TA.AperFunction,Conductor*%
%TO.N,Net-(C10-Pad1)*%
G36*
X166820121Y-77703032D02*
G01*
X166866614Y-77756688D01*
X166878000Y-77809030D01*
X166878000Y-85980000D01*
X166857998Y-86048121D01*
X166804342Y-86094614D01*
X166752000Y-86106000D01*
X165353000Y-86106000D01*
X165284879Y-86085998D01*
X165238386Y-86032342D01*
X165227000Y-85980000D01*
X165227000Y-77809030D01*
X165247002Y-77740909D01*
X165300658Y-77694416D01*
X165353000Y-77683030D01*
X166752000Y-77683030D01*
X166820121Y-77703032D01*
G37*
%TD.AperFunction*%
%TD*%
M02*
