%TF.GenerationSoftware,KiCad,Pcbnew,(6.0.2)*%
%TF.CreationDate,2022-05-06T23:20:48+08:00*%
%TF.ProjectId,NoiseAMP_V2.3,4e6f6973-6541-44d5-905f-56322e332e6b,rev?*%
%TF.SameCoordinates,Original*%
%TF.FileFunction,Copper,L3,Inr*%
%TF.FilePolarity,Positive*%
%FSLAX46Y46*%
G04 Gerber Fmt 4.6, Leading zero omitted, Abs format (unit mm)*
G04 Created by KiCad (PCBNEW (6.0.2)) date 2022-05-06 23:20:48*
%MOMM*%
%LPD*%
G01*
G04 APERTURE LIST*
G04 Aperture macros list*
%AMRoundRect*
0 Rectangle with rounded corners*
0 $1 Rounding radius*
0 $2 $3 $4 $5 $6 $7 $8 $9 X,Y pos of 4 corners*
0 Add a 4 corners polygon primitive as box body*
4,1,4,$2,$3,$4,$5,$6,$7,$8,$9,$2,$3,0*
0 Add four circle primitives for the rounded corners*
1,1,$1+$1,$2,$3*
1,1,$1+$1,$4,$5*
1,1,$1+$1,$6,$7*
1,1,$1+$1,$8,$9*
0 Add four rect primitives between the rounded corners*
20,1,$1+$1,$2,$3,$4,$5,0*
20,1,$1+$1,$4,$5,$6,$7,0*
20,1,$1+$1,$6,$7,$8,$9,0*
20,1,$1+$1,$8,$9,$2,$3,0*%
G04 Aperture macros list end*
%TA.AperFunction,ComponentPad*%
%ADD10C,3.600000*%
%TD*%
%TA.AperFunction,ComponentPad*%
%ADD11C,1.440000*%
%TD*%
%TA.AperFunction,ComponentPad*%
%ADD12RoundRect,0.250000X0.600000X0.725000X-0.600000X0.725000X-0.600000X-0.725000X0.600000X-0.725000X0*%
%TD*%
%TA.AperFunction,ComponentPad*%
%ADD13O,1.700000X1.950000*%
%TD*%
%TA.AperFunction,ViaPad*%
%ADD14C,0.603000*%
%TD*%
%TA.AperFunction,ViaPad*%
%ADD15C,0.800000*%
%TD*%
%TA.AperFunction,Conductor*%
%ADD16C,0.500000*%
%TD*%
%TA.AperFunction,Conductor*%
%ADD17C,0.250000*%
%TD*%
G04 APERTURE END LIST*
D10*
%TO.N,N/C*%
%TO.C,H1*%
X116789200Y-79123000D03*
%TD*%
%TO.N,N/C*%
%TO.C,H3*%
X174747228Y-79044800D03*
%TD*%
%TO.N,N/C*%
%TO.C,H4*%
X174747228Y-116990259D03*
%TD*%
D11*
%TO.N,Net-(R2-Pad2)*%
%TO.C,RV1*%
X154295000Y-85933478D03*
%TO.N,Net-(R22-Pad2)*%
X156835000Y-85933478D03*
X159375000Y-85933478D03*
%TD*%
D10*
%TO.N,N/C*%
%TO.C,H2*%
X116789200Y-116842000D03*
%TD*%
D12*
%TO.N,VDD*%
%TO.C,J1*%
X151471000Y-79392000D03*
D13*
%TO.N,GND*%
X148971000Y-79392000D03*
%TO.N,VSS*%
X146471000Y-79392000D03*
%TD*%
D14*
%TO.N,Net-(R22-Pad2)*%
X161036000Y-91744800D03*
%TO.N,Net-(C3-Pad1)*%
X150739500Y-91957500D03*
X150749000Y-88773000D03*
%TO.N,GND*%
X152781000Y-84709000D03*
X157302200Y-88188800D03*
X158117600Y-87452200D03*
X152527000Y-94411800D03*
X160121600Y-102870000D03*
X160985200Y-102108000D03*
X160121600Y-101422200D03*
X160121600Y-117779800D03*
X160934400Y-117094000D03*
X160121600Y-116332000D03*
X154203400Y-104013000D03*
X154178000Y-119126000D03*
X152690990Y-118073010D03*
X152019000Y-119126000D03*
X152682000Y-116456400D03*
X152095200Y-115951000D03*
X160299400Y-112191800D03*
X160274000Y-107950000D03*
X159181800Y-106807000D03*
X152146000Y-104038400D03*
X153212800Y-105054400D03*
X152682000Y-101521200D03*
X152146000Y-100990400D03*
%TO.N,VDD*%
X158597600Y-113538000D03*
X158089600Y-110185200D03*
X158089600Y-110998000D03*
X158597600Y-98552000D03*
D15*
%TO.N,VSS*%
X156108400Y-103124000D03*
X155143200Y-102362000D03*
X155143200Y-101244400D03*
X157226000Y-100228400D03*
X157226000Y-99161600D03*
X157243520Y-115220567D03*
X157226000Y-114147600D03*
X156108400Y-118110000D03*
X155143200Y-117297200D03*
X155143200Y-116179600D03*
D14*
%TO.N,Net-(C38-Pad2)*%
X156210000Y-113157000D03*
X156210000Y-117094000D03*
%TO.N,Net-(C17-Pad2)*%
X156210000Y-98171000D03*
X156210000Y-102108000D03*
%TO.N,Net-(C10-Pad1)*%
X166471600Y-79918230D03*
X166471600Y-82305830D03*
X165658800Y-82305830D03*
X165658800Y-79918230D03*
X166471600Y-84744230D03*
X165658800Y-84744230D03*
%TO.N,Net-(C10-Pad2)*%
X162661600Y-79918230D03*
X163423600Y-82305830D03*
X163423600Y-79918230D03*
X163423600Y-84744230D03*
X162661600Y-84744230D03*
X162661600Y-82305830D03*
D15*
%TO.N,Net-(C14-Pad1)*%
X117842696Y-96138999D03*
X118807896Y-99948999D03*
X119747696Y-96138999D03*
X117842696Y-92328999D03*
X118807896Y-92328999D03*
X118807896Y-96138999D03*
X119747696Y-99948999D03*
X117842696Y-99948999D03*
X119747696Y-103758999D03*
X117842696Y-103758999D03*
X118807896Y-103758999D03*
X119747696Y-92328999D03*
%TO.N,Net-(C14-Pad2)*%
X124573696Y-96138999D03*
X124573696Y-103758999D03*
X122795696Y-92328999D03*
X122795696Y-103758999D03*
X123684696Y-92328999D03*
X122795696Y-99948999D03*
X123684696Y-99948999D03*
X123684696Y-96138999D03*
X122795696Y-96138999D03*
X124573696Y-99948999D03*
X124573696Y-92328999D03*
X123684696Y-103758999D03*
D14*
%TO.N,Net-(C16-Pad1)*%
X165709600Y-95707200D03*
X166471600Y-95707200D03*
X165709600Y-98094800D03*
X166471600Y-98094800D03*
X166471600Y-100533200D03*
X165709600Y-100533200D03*
%TO.N,Net-(C16-Pad2)*%
X162661600Y-95707200D03*
X162661600Y-100533200D03*
X162661600Y-98094800D03*
X163423600Y-100533200D03*
X163423600Y-98094800D03*
X163423600Y-95707200D03*
%TO.N,GND*%
X130364896Y-86372096D03*
X130876896Y-76996704D03*
X118731696Y-108076999D03*
X133807200Y-103276400D03*
X119493696Y-88010999D03*
X128190001Y-115548399D03*
X116572696Y-104901999D03*
X123557696Y-88010999D03*
X113258600Y-99366600D03*
X116572696Y-101853999D03*
X116572696Y-105917999D03*
X136794896Y-109845496D03*
D15*
X172618400Y-106984800D03*
D14*
X116572696Y-100837999D03*
X130886200Y-109372400D03*
X137920001Y-86869999D03*
X116572696Y-93979999D03*
X138123201Y-108688599D03*
D15*
X167767000Y-103301800D03*
X172618400Y-109931200D03*
D14*
X120509696Y-88010999D03*
X126317999Y-115548399D03*
X116699696Y-107822999D03*
X125843696Y-98133504D03*
X115622600Y-96416600D03*
X116572696Y-102869999D03*
X116572696Y-91947999D03*
D15*
X168747912Y-119294112D03*
D14*
X130872896Y-98641504D03*
X125843696Y-104520999D03*
X125843696Y-101472999D03*
X136794896Y-87798296D03*
X116572696Y-90931999D03*
D15*
X172618400Y-99720400D03*
D14*
X126111000Y-78994000D03*
X130454400Y-97053400D03*
X130876896Y-86953504D03*
X127240696Y-114591496D03*
X125843696Y-106552999D03*
X116572696Y-89915999D03*
X127240696Y-116572696D03*
X126136400Y-83032600D03*
X125843696Y-102488999D03*
X114577600Y-99366600D03*
D15*
X173736000Y-99720400D03*
X174701200Y-108458000D03*
X174701200Y-88087200D03*
D14*
X128144199Y-99238999D03*
X111758600Y-96418400D03*
X125843696Y-93344999D03*
X121525696Y-88010999D03*
X122541696Y-88010999D03*
D15*
X150723600Y-94691200D03*
D14*
X111758600Y-99364800D03*
X128168400Y-83032600D03*
D15*
X173736000Y-106984800D03*
D14*
X118477696Y-88010999D03*
X133654800Y-81711800D03*
X125602396Y-88252299D03*
X124573696Y-88010999D03*
X128045999Y-110138999D03*
D15*
X172618400Y-86614000D03*
D14*
X116572696Y-99821999D03*
X116572696Y-92963999D03*
X124827696Y-108076999D03*
X125843696Y-103504999D03*
D15*
X173736000Y-96774000D03*
D14*
X130364896Y-118885304D03*
X125843696Y-91312999D03*
X125843696Y-100456999D03*
X114606600Y-96416600D03*
X129667000Y-118237000D03*
X116572696Y-88899999D03*
X125843696Y-105536999D03*
D15*
X173736000Y-86614000D03*
X145262600Y-91770200D03*
D14*
X130581400Y-108686600D03*
X113258600Y-96416600D03*
X125843696Y-90296999D03*
X120763696Y-108076999D03*
X136794896Y-107451504D03*
X119747696Y-108076999D03*
X125843696Y-94360999D03*
D15*
X160477200Y-97282000D03*
D14*
X125780800Y-107645200D03*
X130886200Y-97815400D03*
D15*
X167767000Y-88392000D03*
D14*
X117715696Y-108076999D03*
X130876896Y-87690104D03*
D15*
X172618400Y-89560400D03*
D14*
X117461696Y-88010999D03*
X127189896Y-83984496D03*
X125843696Y-92328999D03*
X122795696Y-108076999D03*
X111758600Y-97891600D03*
X128844896Y-87664704D03*
X125843696Y-89280999D03*
X128840896Y-109512704D03*
D15*
X172618400Y-96774000D03*
D14*
X116572696Y-106933999D03*
X125843696Y-95376999D03*
X136794896Y-85791696D03*
D15*
X174701200Y-98247200D03*
D14*
X121779696Y-108076999D03*
X128840896Y-98614896D03*
D15*
X167767000Y-87452200D03*
D14*
X155409900Y-91351100D03*
X123811696Y-108076999D03*
D15*
X161086800Y-95656400D03*
D14*
X115619000Y-99366600D03*
D15*
X168833800Y-102489000D03*
D14*
X133654800Y-114350800D03*
X130364896Y-107988704D03*
X133832600Y-92583000D03*
D15*
X173736000Y-89560400D03*
D14*
X125843696Y-99440999D03*
X116572696Y-96011999D03*
D15*
X173736000Y-109931200D03*
X167792400Y-120091200D03*
D14*
X116572696Y-103885999D03*
X116572696Y-94995999D03*
X128071399Y-88294999D03*
%TO.N,Net-(C37-Pad1)*%
X165709600Y-114909600D03*
X165709600Y-117297200D03*
X166471600Y-114909600D03*
X165709600Y-112471200D03*
X166471600Y-117297200D03*
X166471600Y-112471200D03*
%TO.N,Net-(C37-Pad2)*%
X162712400Y-117297200D03*
X163423600Y-112471200D03*
X163474400Y-117297200D03*
X163474400Y-114909600D03*
X162712400Y-114909600D03*
X162661600Y-112471200D03*
%TO.N,VDD*%
X160045400Y-88163400D03*
X132066696Y-104393999D03*
X132066696Y-82778599D03*
X132041296Y-115315999D03*
X158572200Y-96393000D03*
X132828696Y-108330999D03*
X160045400Y-88925400D03*
X132066696Y-93497399D03*
X158572200Y-95554800D03*
X132828696Y-109092999D03*
X132828696Y-86486999D03*
X132828696Y-87248999D03*
D15*
X152273000Y-88239600D03*
D14*
%TO.N,VSS*%
X129870200Y-81635600D03*
X147980400Y-92430600D03*
X128637696Y-112013999D03*
X128637696Y-101091999D03*
X156337000Y-92633800D03*
X128637696Y-101980999D03*
X129870200Y-92303600D03*
X146913600Y-92430600D03*
X130810000Y-81635600D03*
X130886200Y-92329000D03*
X128637696Y-80263999D03*
X129870200Y-103225600D03*
X128637696Y-79247999D03*
X130835400Y-103225600D03*
X130860800Y-114173000D03*
X128637696Y-90931999D03*
X128637696Y-112902999D03*
X155295600Y-92633800D03*
X128637696Y-90042999D03*
X129819400Y-114173000D03*
%TD*%
D16*
%TO.N,VDD*%
X158597600Y-111506000D02*
X158089600Y-110998000D01*
X158597600Y-113538000D02*
X158597600Y-111506000D01*
X158089600Y-106019600D02*
X158089600Y-110998000D01*
X158597600Y-105511600D02*
X158089600Y-106019600D01*
X158597600Y-98552000D02*
X158597600Y-105511600D01*
X158572200Y-98526600D02*
X158597600Y-98552000D01*
X158572200Y-96393000D02*
X158572200Y-98526600D01*
%TO.N,VSS*%
X157226000Y-102717600D02*
X157226000Y-99161600D01*
X156819600Y-103124000D02*
X157226000Y-102717600D01*
X156108400Y-103124000D02*
X156819600Y-103124000D01*
X156768800Y-118110000D02*
X157243520Y-117635280D01*
X157243520Y-117635280D02*
X157243520Y-115220567D01*
X156108400Y-118110000D02*
X156768800Y-118110000D01*
X157226000Y-114147600D02*
X157226000Y-115203047D01*
X157226000Y-115203047D02*
X157243520Y-115220567D01*
X155244800Y-102362000D02*
X155143200Y-102362000D01*
X156108400Y-103124000D02*
X156006800Y-103124000D01*
X156006800Y-103124000D02*
X155244800Y-102362000D01*
X155143200Y-101244400D02*
X155143200Y-102362000D01*
X155143200Y-102362000D02*
X149148800Y-102362000D01*
X149148800Y-102362000D02*
X149123400Y-102387400D01*
X149123400Y-102387400D02*
X149123400Y-115316000D01*
X149123400Y-93573600D02*
X149123400Y-102387400D01*
X155143200Y-117297200D02*
X155143200Y-116179600D01*
X155498800Y-118110000D02*
X156108400Y-118110000D01*
X155143200Y-117754400D02*
X155498800Y-118110000D01*
X155143200Y-117297200D02*
X155143200Y-117754400D01*
X151104600Y-117297200D02*
X155143200Y-117297200D01*
X149123400Y-115316000D02*
X151104600Y-117297200D01*
D17*
%TO.N,Net-(C38-Pad2)*%
X156210000Y-117094000D02*
X156210000Y-113157000D01*
%TO.N,Net-(C17-Pad2)*%
X156210000Y-102108000D02*
X156210000Y-98171000D01*
D16*
%TO.N,VDD*%
X161010600Y-87198200D02*
X160045400Y-88163400D01*
X151471000Y-79392000D02*
X157192200Y-79392000D01*
X151471000Y-79392000D02*
X151471000Y-84846800D01*
X159588200Y-95554800D02*
X160045400Y-95097600D01*
X151471000Y-84846800D02*
X152298400Y-85674200D01*
X152298400Y-85674200D02*
X152298400Y-88214200D01*
X161010600Y-83210400D02*
X161010600Y-87198200D01*
X160045400Y-95097600D02*
X160045400Y-88163400D01*
X157192200Y-79392000D02*
X161010600Y-83210400D01*
X152298400Y-88214200D02*
X152273000Y-88239600D01*
X158572200Y-95554800D02*
X159588200Y-95554800D01*
X158572200Y-96393000D02*
X158572200Y-95554800D01*
%TO.N,VSS*%
X135407400Y-89382600D02*
X135407400Y-79502000D01*
X128637696Y-112991296D02*
X129819400Y-114173000D01*
X132130800Y-92329000D02*
X132994400Y-91465400D01*
X146913600Y-92430600D02*
X146913600Y-84658200D01*
X129336800Y-103225600D02*
X129870200Y-103225600D01*
X130860800Y-114173000D02*
X132054600Y-114173000D01*
X130810000Y-81635600D02*
X131749800Y-81635600D01*
X135407400Y-102412800D02*
X135407400Y-101091999D01*
X132994400Y-102311200D02*
X135305800Y-102311200D01*
X131749800Y-81635600D02*
X133993400Y-79392000D01*
X135407400Y-91465400D02*
X135407400Y-101091999D01*
X154355800Y-93573600D02*
X149123400Y-93573600D01*
X129870200Y-103225600D02*
X132080000Y-103225600D01*
X128637696Y-112902999D02*
X128637696Y-112991296D01*
X128637696Y-101091999D02*
X128637696Y-101980999D01*
X135407400Y-79502000D02*
X135297400Y-79392000D01*
X146913600Y-84658200D02*
X146471000Y-84215600D01*
X128637696Y-90931999D02*
X128637696Y-91071096D01*
X135305800Y-102311200D02*
X135407400Y-102412800D01*
X147980400Y-92430600D02*
X146913600Y-92430600D01*
X128637696Y-90042999D02*
X128637696Y-90931999D01*
X130886200Y-92329000D02*
X132130800Y-92329000D01*
X135407400Y-110820200D02*
X135407400Y-102412800D01*
X128637696Y-79247999D02*
X128637696Y-80263999D01*
X128637696Y-91071096D02*
X129870200Y-92303600D01*
X146471000Y-84215600D02*
X146471000Y-79392000D01*
X128637696Y-101980999D02*
X128637696Y-102526496D01*
X128637696Y-80263999D02*
X128637696Y-80403096D01*
X135407400Y-89382600D02*
X135407400Y-91465400D01*
X128637696Y-80403096D02*
X129870200Y-81635600D01*
X128637696Y-102526496D02*
X129336800Y-103225600D01*
X129870200Y-81635600D02*
X130810000Y-81635600D01*
X129819400Y-114173000D02*
X130860800Y-114173000D01*
X155295600Y-92633800D02*
X154355800Y-93573600D01*
X132080000Y-103225600D02*
X132994400Y-102311200D01*
X146471000Y-79392000D02*
X135297400Y-79392000D01*
X128637696Y-112013999D02*
X128637696Y-112902999D01*
X132994400Y-91465400D02*
X135407400Y-91465400D01*
X155295600Y-92633800D02*
X156337000Y-92633800D01*
X129870200Y-92303600D02*
X130860800Y-92303600D01*
X133993400Y-79392000D02*
X135297400Y-79392000D01*
X149123400Y-93573600D02*
X147980400Y-92430600D01*
X130860800Y-92303600D02*
X130886200Y-92329000D01*
X132054600Y-114173000D02*
X135407400Y-110820200D01*
%TD*%
M02*
