%TF.GenerationSoftware,KiCad,Pcbnew,(6.0.2)*%
%TF.CreationDate,2022-05-06T23:20:48+08:00*%
%TF.ProjectId,NoiseAMP_V2.3,4e6f6973-6541-44d5-905f-56322e332e6b,rev?*%
%TF.SameCoordinates,Original*%
%TF.FileFunction,Paste,Top*%
%TF.FilePolarity,Positive*%
%FSLAX46Y46*%
G04 Gerber Fmt 4.6, Leading zero omitted, Abs format (unit mm)*
G04 Created by KiCad (PCBNEW (6.0.2)) date 2022-05-06 23:20:48*
%MOMM*%
%LPD*%
G01*
G04 APERTURE LIST*
G04 Aperture macros list*
%AMRoundRect*
0 Rectangle with rounded corners*
0 $1 Rounding radius*
0 $2 $3 $4 $5 $6 $7 $8 $9 X,Y pos of 4 corners*
0 Add a 4 corners polygon primitive as box body*
4,1,4,$2,$3,$4,$5,$6,$7,$8,$9,$2,$3,0*
0 Add four circle primitives for the rounded corners*
1,1,$1+$1,$2,$3*
1,1,$1+$1,$4,$5*
1,1,$1+$1,$6,$7*
1,1,$1+$1,$8,$9*
0 Add four rect primitives between the rounded corners*
20,1,$1+$1,$2,$3,$4,$5,0*
20,1,$1+$1,$4,$5,$6,$7,0*
20,1,$1+$1,$6,$7,$8,$9,0*
20,1,$1+$1,$8,$9,$2,$3,0*%
G04 Aperture macros list end*
%ADD10RoundRect,0.250000X0.250000X0.475000X-0.250000X0.475000X-0.250000X-0.475000X0.250000X-0.475000X0*%
%ADD11RoundRect,0.202500X-0.282500X-0.202500X0.282500X-0.202500X0.282500X0.202500X-0.282500X0.202500X0*%
%ADD12RoundRect,0.062500X-0.425000X-0.062500X0.425000X-0.062500X0.425000X0.062500X-0.425000X0.062500X0*%
%ADD13RoundRect,0.140000X-0.140000X-0.170000X0.140000X-0.170000X0.140000X0.170000X-0.140000X0.170000X0*%
%ADD14RoundRect,0.135000X-0.185000X0.135000X-0.185000X-0.135000X0.185000X-0.135000X0.185000X0.135000X0*%
%ADD15RoundRect,0.140000X0.140000X0.170000X-0.140000X0.170000X-0.140000X-0.170000X0.140000X-0.170000X0*%
%ADD16RoundRect,0.135000X0.185000X-0.135000X0.185000X0.135000X-0.185000X0.135000X-0.185000X-0.135000X0*%
%ADD17RoundRect,0.250000X-0.787500X-0.925000X0.787500X-0.925000X0.787500X0.925000X-0.787500X0.925000X0*%
%ADD18RoundRect,0.202500X-0.202500X0.282500X-0.202500X-0.282500X0.202500X-0.282500X0.202500X0.282500X0*%
%ADD19RoundRect,0.062500X-0.062500X0.425000X-0.062500X-0.425000X0.062500X-0.425000X0.062500X0.425000X0*%
%ADD20RoundRect,0.250000X0.325000X0.650000X-0.325000X0.650000X-0.325000X-0.650000X0.325000X-0.650000X0*%
%ADD21RoundRect,0.250000X-0.450000X-0.425000X0.450000X-0.425000X0.450000X0.425000X-0.450000X0.425000X0*%
%ADD22RoundRect,0.135000X-0.135000X-0.185000X0.135000X-0.185000X0.135000X0.185000X-0.135000X0.185000X0*%
%ADD23RoundRect,0.250000X0.450000X0.425000X-0.450000X0.425000X-0.450000X-0.425000X0.450000X-0.425000X0*%
%ADD24RoundRect,0.135000X0.135000X0.185000X-0.135000X0.185000X-0.135000X-0.185000X0.135000X-0.185000X0*%
%ADD25RoundRect,0.140000X-0.170000X0.140000X-0.170000X-0.140000X0.170000X-0.140000X0.170000X0.140000X0*%
%ADD26R,1.000000X1.000000*%
%ADD27R,2.200000X1.050000*%
%ADD28RoundRect,0.250000X0.425000X-0.450000X0.425000X0.450000X-0.425000X0.450000X-0.425000X-0.450000X0*%
G04 APERTURE END LIST*
D10*
%TO.C,C3*%
X150810000Y-87630000D03*
X148910000Y-87630000D03*
%TD*%
%TO.C,C2*%
X147381000Y-87630000D03*
X145481000Y-87630000D03*
%TD*%
D11*
%TO.C,U5*%
X157226000Y-99195000D03*
X157226000Y-100195000D03*
D12*
X155838500Y-98945000D03*
X155838500Y-99445000D03*
X155838500Y-99945000D03*
X155838500Y-100445000D03*
X158613500Y-100445000D03*
X158613500Y-99945000D03*
X158613500Y-99445000D03*
X158613500Y-98945000D03*
%TD*%
D11*
%TO.C,U8*%
X157226000Y-114181000D03*
X157226000Y-115181000D03*
D12*
X155838500Y-113931000D03*
X155838500Y-114431000D03*
X155838500Y-114931000D03*
X155838500Y-115431000D03*
X158613500Y-115431000D03*
X158613500Y-114931000D03*
X158613500Y-114431000D03*
X158613500Y-113931000D03*
%TD*%
D13*
%TO.C,C57*%
X158701800Y-112193800D03*
X159661800Y-112193800D03*
%TD*%
D14*
%TO.C,R18*%
X131380896Y-95373000D03*
X131380896Y-96393000D03*
%TD*%
D15*
%TO.C,C38*%
X157671610Y-112202319D03*
X156711610Y-112202319D03*
%TD*%
D16*
%TO.C,R37*%
X131888896Y-111128999D03*
X131888896Y-110108999D03*
%TD*%
D13*
%TO.C,C63*%
X126748600Y-78689200D03*
X127708600Y-78689200D03*
%TD*%
D17*
%TO.C,C7*%
X133998396Y-90043000D03*
X138923396Y-90043000D03*
%TD*%
D18*
%TO.C,U4*%
X130864896Y-92330999D03*
X129864896Y-92330999D03*
D19*
X131114896Y-90943499D03*
X130614896Y-90943499D03*
X130114896Y-90943499D03*
X129614896Y-90943499D03*
X129614896Y-93718499D03*
X130114896Y-93718499D03*
X130614896Y-93718499D03*
X131114896Y-93718499D03*
%TD*%
D11*
%TO.C,U3*%
X157861000Y-91155737D03*
X157861000Y-90155737D03*
D12*
X156473500Y-89905737D03*
X156473500Y-90405737D03*
X156473500Y-90905737D03*
X156473500Y-91405737D03*
X159248500Y-91405737D03*
X159248500Y-90905737D03*
X159248500Y-90405737D03*
X159248500Y-89905737D03*
%TD*%
D20*
%TO.C,C20*%
X166043835Y-96901000D03*
X163093835Y-96901000D03*
%TD*%
D17*
%TO.C,C21*%
X118758396Y-101853999D03*
X123683396Y-101853999D03*
%TD*%
D13*
%TO.C,C43*%
X159159000Y-117094000D03*
X160119000Y-117094000D03*
%TD*%
D20*
%TO.C,C23*%
X166043835Y-99314000D03*
X163093835Y-99314000D03*
%TD*%
D21*
%TO.C,C60*%
X157222200Y-95656400D03*
X159922200Y-95656400D03*
%TD*%
D22*
%TO.C,R22*%
X154677610Y-96268000D03*
X155697610Y-96268000D03*
%TD*%
D17*
%TO.C,C18*%
X118758396Y-98043999D03*
X123683396Y-98043999D03*
%TD*%
D16*
%TO.C,R25*%
X131888896Y-100198999D03*
X131888896Y-99178999D03*
%TD*%
%TO.C,R4*%
X130876896Y-78615000D03*
X130876896Y-77595000D03*
%TD*%
D21*
%TO.C,C74*%
X153209000Y-104013000D03*
X155909000Y-104013000D03*
%TD*%
D17*
%TO.C,C1*%
X133998396Y-79375000D03*
X138923396Y-79375000D03*
%TD*%
D23*
%TO.C,C73*%
X150727400Y-93573600D03*
X148027400Y-93573600D03*
%TD*%
D16*
%TO.C,R24*%
X130872896Y-100198999D03*
X130872896Y-99178999D03*
%TD*%
D20*
%TO.C,C5*%
X166043835Y-78699030D03*
X163093835Y-78699030D03*
%TD*%
D18*
%TO.C,U7*%
X130864896Y-114174999D03*
X129864896Y-114174999D03*
D19*
X131114896Y-112787499D03*
X130614896Y-112787499D03*
X130114896Y-112787499D03*
X129614896Y-112787499D03*
X129614896Y-115562499D03*
X130114896Y-115562499D03*
X130614896Y-115562499D03*
X131114896Y-115562499D03*
%TD*%
D14*
%TO.C,R31*%
X141032896Y-112137001D03*
X141032896Y-113157001D03*
%TD*%
D17*
%TO.C,C36*%
X133998396Y-105537000D03*
X138923396Y-105537000D03*
%TD*%
D24*
%TO.C,R29*%
X126836296Y-96646999D03*
X125816296Y-96646999D03*
%TD*%
D17*
%TO.C,C24*%
X118758396Y-105663999D03*
X123683396Y-105663999D03*
%TD*%
D16*
%TO.C,R1*%
X146177000Y-90530737D03*
X146177000Y-89510737D03*
%TD*%
%TO.C,R13*%
X130876896Y-89284999D03*
X130876896Y-88264999D03*
%TD*%
D17*
%TO.C,C49*%
X133998396Y-116458999D03*
X138923396Y-116458999D03*
%TD*%
D20*
%TO.C,C9*%
X166043835Y-85938030D03*
X163093835Y-85938030D03*
%TD*%
D24*
%TO.C,R20*%
X158167800Y-102108000D03*
X157147800Y-102108000D03*
%TD*%
D25*
%TO.C,C64*%
X128844896Y-88294999D03*
X128844896Y-89254999D03*
%TD*%
D14*
%TO.C,R30*%
X131380896Y-106294999D03*
X131380896Y-107314999D03*
%TD*%
%TO.C,R28*%
X130364896Y-106294999D03*
X130364896Y-107314999D03*
%TD*%
%TO.C,R21*%
X141032896Y-101217000D03*
X141032896Y-102237000D03*
%TD*%
D21*
%TO.C,C58*%
X134094896Y-86869999D03*
X136794896Y-86869999D03*
%TD*%
D17*
%TO.C,C39*%
X133998396Y-111887000D03*
X138923396Y-111887000D03*
%TD*%
D14*
%TO.C,R40*%
X167790165Y-118274112D03*
X167790165Y-119294112D03*
%TD*%
%TO.C,R41*%
X131380896Y-117216999D03*
X131380896Y-118236999D03*
%TD*%
D25*
%TO.C,C67*%
X146177000Y-91468000D03*
X146177000Y-92428000D03*
%TD*%
D13*
%TO.C,C56*%
X158600200Y-97284000D03*
X159560200Y-97284000D03*
%TD*%
D18*
%TO.C,U1*%
X129864896Y-81662999D03*
X130864896Y-81662999D03*
D19*
X131114896Y-80275499D03*
X130614896Y-80275499D03*
X130114896Y-80275499D03*
X129614896Y-80275499D03*
X129614896Y-83050499D03*
X130114896Y-83050499D03*
X130614896Y-83050499D03*
X131114896Y-83050499D03*
%TD*%
D16*
%TO.C,R2*%
X154559000Y-90530737D03*
X154559000Y-89510737D03*
%TD*%
D22*
%TO.C,R35*%
X154700410Y-111186319D03*
X155720410Y-111186319D03*
%TD*%
%TO.C,R6*%
X152525000Y-90528737D03*
X153545000Y-90528737D03*
%TD*%
D14*
%TO.C,R3*%
X141032896Y-79628999D03*
X141032896Y-80648999D03*
%TD*%
D21*
%TO.C,C59*%
X134094896Y-108688599D03*
X136794896Y-108688599D03*
%TD*%
D26*
%TO.C,J3*%
X171677200Y-98264886D03*
X174677200Y-98264886D03*
D27*
X173177200Y-96789886D03*
X173177200Y-99739886D03*
%TD*%
D15*
%TO.C,C45*%
X152682000Y-115951000D03*
X153642000Y-115951000D03*
%TD*%
D20*
%TO.C,C6*%
X166043835Y-81112030D03*
X163093835Y-81112030D03*
%TD*%
D17*
%TO.C,C14*%
X118758396Y-90423999D03*
X123683396Y-90423999D03*
%TD*%
D28*
%TO.C,C62*%
X159181800Y-110648200D03*
X159181800Y-107948200D03*
%TD*%
D16*
%TO.C,R9*%
X141032896Y-83441000D03*
X141032896Y-82421000D03*
%TD*%
D20*
%TO.C,C44*%
X166067000Y-118532111D03*
X163117000Y-118532111D03*
%TD*%
D16*
%TO.C,R27*%
X141032896Y-105286999D03*
X141032896Y-104266999D03*
%TD*%
D24*
%TO.C,R23*%
X153649200Y-99974400D03*
X152629200Y-99974400D03*
%TD*%
D22*
%TO.C,R5*%
X152525000Y-89535000D03*
X153545000Y-89535000D03*
%TD*%
D20*
%TO.C,C26*%
X166043835Y-101727000D03*
X163093835Y-101727000D03*
%TD*%
D14*
%TO.C,R12*%
X141032896Y-90295000D03*
X141032896Y-91315000D03*
%TD*%
D11*
%TO.C,U2*%
X149352000Y-91028737D03*
X149352000Y-90028737D03*
D12*
X147964500Y-89778737D03*
X147964500Y-90278737D03*
X147964500Y-90778737D03*
X147964500Y-91278737D03*
X150739500Y-91278737D03*
X150739500Y-90778737D03*
X150739500Y-90278737D03*
X150739500Y-89778737D03*
%TD*%
D15*
%TO.C,C40*%
X152682000Y-113523119D03*
X153642000Y-113523119D03*
%TD*%
D13*
%TO.C,C69*%
X152682000Y-102006400D03*
X153642000Y-102006400D03*
%TD*%
D17*
%TO.C,C4*%
X133998396Y-83692999D03*
X138923396Y-83692999D03*
%TD*%
D13*
%TO.C,C70*%
X153650990Y-116958481D03*
X152690990Y-116958481D03*
%TD*%
D28*
%TO.C,C72*%
X127240696Y-115548399D03*
X127240696Y-112848399D03*
%TD*%
D16*
%TO.C,R7*%
X131892896Y-78616999D03*
X131892896Y-77596999D03*
%TD*%
D20*
%TO.C,C42*%
X166067000Y-116119111D03*
X163117000Y-116119111D03*
%TD*%
D13*
%TO.C,C25*%
X159159000Y-102108000D03*
X160119000Y-102108000D03*
%TD*%
D14*
%TO.C,R8*%
X152527000Y-91669737D03*
X152527000Y-92689737D03*
%TD*%
%TO.C,R11*%
X131380896Y-84732399D03*
X131380896Y-85752399D03*
%TD*%
D24*
%TO.C,R19*%
X155697610Y-97284000D03*
X154677610Y-97284000D03*
%TD*%
D16*
%TO.C,R38*%
X141032896Y-115953000D03*
X141032896Y-114933000D03*
%TD*%
D24*
%TO.C,R34*%
X158117000Y-117094000D03*
X157097000Y-117094000D03*
%TD*%
D15*
%TO.C,C28*%
X153642000Y-100990400D03*
X152682000Y-100990400D03*
%TD*%
D25*
%TO.C,C66*%
X128840896Y-110138999D03*
X128840896Y-111098999D03*
%TD*%
%TO.C,C68*%
X154559000Y-91671200D03*
X154559000Y-92631200D03*
%TD*%
D14*
%TO.C,R26*%
X167767000Y-101471000D03*
X167767000Y-102491000D03*
%TD*%
D16*
%TO.C,R15*%
X141032896Y-94363000D03*
X141032896Y-93343000D03*
%TD*%
D28*
%TO.C,C71*%
X127189896Y-83036399D03*
X127189896Y-80336399D03*
%TD*%
D17*
%TO.C,C22*%
X133998396Y-100965000D03*
X138923396Y-100965000D03*
%TD*%
D16*
%TO.C,R32*%
X130872896Y-111128999D03*
X130872896Y-110108999D03*
%TD*%
D20*
%TO.C,C8*%
X166043835Y-83525030D03*
X163093835Y-83525030D03*
%TD*%
D26*
%TO.C,J4*%
X114758600Y-97891600D03*
X111758600Y-97891600D03*
D27*
X113258600Y-99366600D03*
X113258600Y-96416600D03*
%TD*%
D16*
%TO.C,R14*%
X131892896Y-89283000D03*
X131892896Y-88263000D03*
%TD*%
D15*
%TO.C,C17*%
X157648810Y-97284000D03*
X156688810Y-97284000D03*
%TD*%
D20*
%TO.C,C41*%
X166067000Y-113706111D03*
X163117000Y-113706111D03*
%TD*%
%TO.C,C16*%
X166043835Y-94488000D03*
X163093835Y-94488000D03*
%TD*%
D17*
%TO.C,C15*%
X118758396Y-94233999D03*
X123683396Y-94233999D03*
%TD*%
D26*
%TO.C,J5*%
X171677200Y-108451382D03*
D27*
X173177200Y-109926382D03*
D26*
X174677200Y-108451382D03*
D27*
X173177200Y-106976382D03*
%TD*%
D15*
%TO.C,C19*%
X153619200Y-98552000D03*
X152659200Y-98552000D03*
%TD*%
D24*
%TO.C,R36*%
X152653999Y-114935000D03*
X153673999Y-114935000D03*
%TD*%
D14*
%TO.C,R10*%
X130364896Y-84732399D03*
X130364896Y-85752399D03*
%TD*%
D24*
%TO.C,R33*%
X155720410Y-112202319D03*
X154700410Y-112202319D03*
%TD*%
D18*
%TO.C,U6*%
X130864896Y-103252999D03*
X129864896Y-103252999D03*
D19*
X131114896Y-101865499D03*
X130614896Y-101865499D03*
X130114896Y-101865499D03*
X129614896Y-101865499D03*
X129614896Y-104640499D03*
X130114896Y-104640499D03*
X130614896Y-104640499D03*
X131114896Y-104640499D03*
%TD*%
D21*
%TO.C,C75*%
X153209000Y-119126000D03*
X155909000Y-119126000D03*
%TD*%
D20*
%TO.C,C37*%
X166067000Y-111252000D03*
X163117000Y-111252000D03*
%TD*%
D25*
%TO.C,C65*%
X128840896Y-99238999D03*
X128840896Y-100198999D03*
%TD*%
D14*
%TO.C,R39*%
X130364896Y-117216999D03*
X130364896Y-118236999D03*
%TD*%
D26*
%TO.C,J2*%
X171677200Y-88078390D03*
D27*
X173177200Y-89553390D03*
X173177200Y-86603390D03*
D26*
X174677200Y-88078390D03*
%TD*%
D14*
%TO.C,R16*%
X167767000Y-85682030D03*
X167767000Y-86702030D03*
%TD*%
D17*
%TO.C,C13*%
X133998396Y-94615000D03*
X138923396Y-94615000D03*
%TD*%
D14*
%TO.C,R17*%
X130364896Y-95374999D03*
X130364896Y-96394999D03*
%TD*%
D21*
%TO.C,C61*%
X163216600Y-88341200D03*
X165916600Y-88341200D03*
%TD*%
M02*
