%TF.GenerationSoftware,KiCad,Pcbnew,(6.0.2)*%
%TF.CreationDate,2022-05-06T23:20:48+08:00*%
%TF.ProjectId,NoiseAMP_V2.3,4e6f6973-6541-44d5-905f-56322e332e6b,rev?*%
%TF.SameCoordinates,Original*%
%TF.FileFunction,Soldermask,Top*%
%TF.FilePolarity,Negative*%
%FSLAX46Y46*%
G04 Gerber Fmt 4.6, Leading zero omitted, Abs format (unit mm)*
G04 Created by KiCad (PCBNEW (6.0.2)) date 2022-05-06 23:20:48*
%MOMM*%
%LPD*%
G01*
G04 APERTURE LIST*
G04 Aperture macros list*
%AMRoundRect*
0 Rectangle with rounded corners*
0 $1 Rounding radius*
0 $2 $3 $4 $5 $6 $7 $8 $9 X,Y pos of 4 corners*
0 Add a 4 corners polygon primitive as box body*
4,1,4,$2,$3,$4,$5,$6,$7,$8,$9,$2,$3,0*
0 Add four circle primitives for the rounded corners*
1,1,$1+$1,$2,$3*
1,1,$1+$1,$4,$5*
1,1,$1+$1,$6,$7*
1,1,$1+$1,$8,$9*
0 Add four rect primitives between the rounded corners*
20,1,$1+$1,$2,$3,$4,$5,0*
20,1,$1+$1,$4,$5,$6,$7,0*
20,1,$1+$1,$6,$7,$8,$9,0*
20,1,$1+$1,$8,$9,$2,$3,0*%
G04 Aperture macros list end*
%ADD10C,0.500000*%
%ADD11C,0.150000*%
%ADD12C,1.000000*%
%ADD13RoundRect,0.250000X0.250000X0.475000X-0.250000X0.475000X-0.250000X-0.475000X0.250000X-0.475000X0*%
%ADD14RoundRect,0.062500X-0.425000X-0.062500X0.425000X-0.062500X0.425000X0.062500X-0.425000X0.062500X0*%
%ADD15R,1.200000X2.000000*%
%ADD16C,6.400000*%
%ADD17C,3.600000*%
%ADD18RoundRect,0.140000X-0.140000X-0.170000X0.140000X-0.170000X0.140000X0.170000X-0.140000X0.170000X0*%
%ADD19RoundRect,0.135000X-0.185000X0.135000X-0.185000X-0.135000X0.185000X-0.135000X0.185000X0.135000X0*%
%ADD20RoundRect,0.140000X0.140000X0.170000X-0.140000X0.170000X-0.140000X-0.170000X0.140000X-0.170000X0*%
%ADD21RoundRect,0.135000X0.185000X-0.135000X0.185000X0.135000X-0.185000X0.135000X-0.185000X-0.135000X0*%
%ADD22RoundRect,0.250000X-0.787500X-0.925000X0.787500X-0.925000X0.787500X0.925000X-0.787500X0.925000X0*%
%ADD23RoundRect,0.062500X-0.062500X0.425000X-0.062500X-0.425000X0.062500X-0.425000X0.062500X0.425000X0*%
%ADD24R,2.000000X1.200000*%
%ADD25RoundRect,0.250000X0.325000X0.650000X-0.325000X0.650000X-0.325000X-0.650000X0.325000X-0.650000X0*%
%ADD26RoundRect,0.250000X-0.450000X-0.425000X0.450000X-0.425000X0.450000X0.425000X-0.450000X0.425000X0*%
%ADD27RoundRect,0.135000X-0.135000X-0.185000X0.135000X-0.185000X0.135000X0.185000X-0.135000X0.185000X0*%
%ADD28RoundRect,0.250000X0.450000X0.425000X-0.450000X0.425000X-0.450000X-0.425000X0.450000X-0.425000X0*%
%ADD29RoundRect,0.135000X0.135000X0.185000X-0.135000X0.185000X-0.135000X-0.185000X0.135000X-0.185000X0*%
%ADD30RoundRect,0.140000X-0.170000X0.140000X-0.170000X-0.140000X0.170000X-0.140000X0.170000X0.140000X0*%
%ADD31C,1.440000*%
%ADD32R,1.000000X1.000000*%
%ADD33R,2.200000X1.050000*%
%ADD34RoundRect,0.250000X0.425000X-0.450000X0.425000X0.450000X-0.425000X0.450000X-0.425000X-0.450000X0*%
%ADD35RoundRect,0.250000X0.600000X0.725000X-0.600000X0.725000X-0.600000X-0.725000X0.600000X-0.725000X0*%
%ADD36O,1.700000X1.950000*%
G04 APERTURE END LIST*
D10*
X116179600Y-96418400D02*
X116586000Y-96012000D01*
X111760000Y-96418400D02*
X111760000Y-99364800D01*
X111760000Y-99364800D02*
X116128800Y-99364800D01*
X116179600Y-96418400D02*
X111760000Y-96418400D01*
X116586000Y-99822000D02*
X116128800Y-99364800D01*
X125349000Y-108077000D02*
X124968000Y-108077000D01*
X116586000Y-107670600D02*
X116586000Y-99822000D01*
X125857000Y-98882200D02*
X125857000Y-88468200D01*
X117221000Y-87985600D02*
X116586000Y-88620600D01*
X124968000Y-108077000D02*
X116967000Y-108077000D01*
X125857000Y-98882200D02*
X125857000Y-107162600D01*
X116967000Y-108077000D02*
X116586000Y-107670600D01*
X125831600Y-88442800D02*
X125374400Y-87985600D01*
X125857000Y-107569000D02*
X125349000Y-108077000D01*
X116586000Y-88620600D02*
X116586000Y-96012000D01*
X125374400Y-87985600D02*
X117221000Y-87985600D01*
X125857000Y-107162600D02*
X125857000Y-107569000D01*
D11*
X171126400Y-105557580D02*
X170554971Y-105557580D01*
X170840685Y-105557580D02*
X170840685Y-104557580D01*
X170745447Y-104700438D01*
X170650209Y-104795676D01*
X170554971Y-104843295D01*
X171745447Y-104557580D02*
X171840685Y-104557580D01*
X171935923Y-104605200D01*
X171983542Y-104652819D01*
X172031161Y-104748057D01*
X172078780Y-104938533D01*
X172078780Y-105176628D01*
X172031161Y-105367104D01*
X171983542Y-105462342D01*
X171935923Y-105509961D01*
X171840685Y-105557580D01*
X171745447Y-105557580D01*
X171650209Y-105509961D01*
X171602590Y-105462342D01*
X171554971Y-105367104D01*
X171507352Y-105176628D01*
X171507352Y-104938533D01*
X171554971Y-104748057D01*
X171602590Y-104652819D01*
X171650209Y-104605200D01*
X171745447Y-104557580D01*
X172697828Y-104557580D02*
X172793066Y-104557580D01*
X172888304Y-104605200D01*
X172935923Y-104652819D01*
X172983542Y-104748057D01*
X173031161Y-104938533D01*
X173031161Y-105176628D01*
X172983542Y-105367104D01*
X172935923Y-105462342D01*
X172888304Y-105509961D01*
X172793066Y-105557580D01*
X172697828Y-105557580D01*
X172602590Y-105509961D01*
X172554971Y-105462342D01*
X172507352Y-105367104D01*
X172459733Y-105176628D01*
X172459733Y-104938533D01*
X172507352Y-104748057D01*
X172554971Y-104652819D01*
X172602590Y-104605200D01*
X172697828Y-104557580D01*
X173459733Y-105557580D02*
X173459733Y-104557580D01*
X173554971Y-105176628D02*
X173840685Y-105557580D01*
X173840685Y-104890914D02*
X173459733Y-105271866D01*
X174269257Y-105557580D02*
X174269257Y-104557580D01*
X174269257Y-105033771D02*
X174840685Y-105033771D01*
X174840685Y-105557580D02*
X174840685Y-104557580D01*
X175221638Y-104890914D02*
X175745447Y-104890914D01*
X175221638Y-105557580D01*
X175745447Y-105557580D01*
X172197828Y-84237580D02*
X172435923Y-85237580D01*
X172626400Y-84523295D01*
X172816876Y-85237580D01*
X173054971Y-84237580D01*
X173769257Y-84713771D02*
X173912114Y-84761390D01*
X173959733Y-84809009D01*
X174007352Y-84904247D01*
X174007352Y-85047104D01*
X173959733Y-85142342D01*
X173912114Y-85189961D01*
X173816876Y-85237580D01*
X173435923Y-85237580D01*
X173435923Y-84237580D01*
X173769257Y-84237580D01*
X173864495Y-84285200D01*
X173912114Y-84332819D01*
X173959733Y-84428057D01*
X173959733Y-84523295D01*
X173912114Y-84618533D01*
X173864495Y-84666152D01*
X173769257Y-84713771D01*
X173435923Y-84713771D01*
X171962914Y-95346780D02*
X171391485Y-95346780D01*
X171677200Y-95346780D02*
X171677200Y-94346780D01*
X171581961Y-94489638D01*
X171486723Y-94584876D01*
X171391485Y-94632495D01*
X172391485Y-95346780D02*
X172391485Y-94346780D01*
X172724819Y-95061066D01*
X173058152Y-94346780D01*
X173058152Y-95346780D01*
X173534342Y-95346780D02*
X173534342Y-94346780D01*
X173534342Y-94822971D02*
X174105771Y-94822971D01*
X174105771Y-95346780D02*
X174105771Y-94346780D01*
X174486723Y-94680114D02*
X175010533Y-94680114D01*
X174486723Y-95346780D01*
X175010533Y-95346780D01*
%TO.C,G\u002A\u002A\u002A*%
G36*
X118246226Y-86252338D02*
G01*
X118282743Y-86253431D01*
X118308646Y-86255044D01*
X118320251Y-86257014D01*
X118320416Y-86257144D01*
X118317129Y-86265408D01*
X118303109Y-86281028D01*
X118289928Y-86293150D01*
X118254258Y-86323975D01*
X118251571Y-86671099D01*
X118250714Y-86764425D01*
X118249691Y-86840850D01*
X118248448Y-86901690D01*
X118246935Y-86948257D01*
X118245097Y-86981867D01*
X118242884Y-87003833D01*
X118240242Y-87015469D01*
X118237736Y-87018224D01*
X118229531Y-87011581D01*
X118210701Y-86992607D01*
X118182553Y-86962731D01*
X118146395Y-86923381D01*
X118103534Y-86875988D01*
X118055280Y-86821981D01*
X118002938Y-86762789D01*
X117976314Y-86732461D01*
X117726040Y-86446698D01*
X117723607Y-86679177D01*
X117722921Y-86754876D01*
X117722900Y-86814551D01*
X117723946Y-86860395D01*
X117726461Y-86894598D01*
X117730850Y-86919348D01*
X117737514Y-86936838D01*
X117746856Y-86949257D01*
X117759278Y-86958795D01*
X117775184Y-86967644D01*
X117776796Y-86968479D01*
X117796493Y-86980578D01*
X117802511Y-86989965D01*
X117793944Y-86996977D01*
X117769890Y-87001949D01*
X117729442Y-87005219D01*
X117672927Y-87007097D01*
X117623029Y-87007936D01*
X117588532Y-87007864D01*
X117566631Y-87006572D01*
X117554523Y-87003752D01*
X117549402Y-86999093D01*
X117548449Y-86993382D01*
X117556236Y-86978281D01*
X117575032Y-86965367D01*
X117600066Y-86945533D01*
X117611461Y-86925356D01*
X117614577Y-86906776D01*
X117617150Y-86871192D01*
X117619141Y-86819808D01*
X117620509Y-86753828D01*
X117621215Y-86674457D01*
X117621307Y-86629516D01*
X117621113Y-86544235D01*
X117620346Y-86475270D01*
X117618731Y-86420726D01*
X117615993Y-86378709D01*
X117611856Y-86347321D01*
X117606044Y-86324669D01*
X117598282Y-86308856D01*
X117588295Y-86297988D01*
X117575806Y-86290168D01*
X117571691Y-86288206D01*
X117554674Y-86276541D01*
X117548449Y-86265417D01*
X117552379Y-86260107D01*
X117565791Y-86256502D01*
X117591122Y-86254339D01*
X117630809Y-86253354D01*
X117661211Y-86253218D01*
X117773972Y-86253218D01*
X117959472Y-86464738D01*
X118144972Y-86676257D01*
X118147454Y-86504436D01*
X118148067Y-86437577D01*
X118147411Y-86386560D01*
X118145017Y-86349031D01*
X118140413Y-86322634D01*
X118133132Y-86305015D01*
X118122705Y-86293818D01*
X118108660Y-86286690D01*
X118103714Y-86285006D01*
X118089796Y-86274962D01*
X118087534Y-86265439D01*
X118091761Y-86259624D01*
X118103465Y-86255692D01*
X118125429Y-86253318D01*
X118160435Y-86252175D01*
X118202781Y-86251928D01*
X118246226Y-86252338D01*
G37*
G36*
X124467194Y-86346024D02*
G01*
X124481520Y-86395281D01*
X124488401Y-86428369D01*
X124487555Y-86445866D01*
X124478701Y-86448353D01*
X124461556Y-86436405D01*
X124435839Y-86410603D01*
X124435752Y-86410510D01*
X124409944Y-86385155D01*
X124384840Y-86364681D01*
X124366965Y-86354056D01*
X124343788Y-86348503D01*
X124312007Y-86344763D01*
X124277887Y-86343094D01*
X124247691Y-86343753D01*
X124227681Y-86346998D01*
X124225051Y-86348214D01*
X124221884Y-86357267D01*
X124219344Y-86380624D01*
X124217405Y-86419052D01*
X124216040Y-86473318D01*
X124215223Y-86544189D01*
X124214927Y-86632432D01*
X124214925Y-86641226D01*
X124214925Y-86927980D01*
X124237279Y-86950334D01*
X124258031Y-86965739D01*
X124277917Y-86972659D01*
X124278929Y-86972688D01*
X124293711Y-86977403D01*
X124295164Y-86988625D01*
X124292470Y-86994476D01*
X124285274Y-86998796D01*
X124271036Y-87001878D01*
X124247217Y-87004016D01*
X124211278Y-87005503D01*
X124160679Y-87006634D01*
X124135789Y-87007052D01*
X124072794Y-87007503D01*
X124024252Y-87006665D01*
X123991302Y-87004585D01*
X123975083Y-87001312D01*
X123973715Y-87000222D01*
X123972386Y-86984791D01*
X123984311Y-86974096D01*
X123992750Y-86972688D01*
X124008010Y-86966654D01*
X124026974Y-86951965D01*
X124028641Y-86950334D01*
X124050995Y-86927980D01*
X124050995Y-86641226D01*
X124050745Y-86551387D01*
X124049975Y-86478988D01*
X124048660Y-86423264D01*
X124046774Y-86383446D01*
X124044289Y-86358768D01*
X124041179Y-86348462D01*
X124040869Y-86348214D01*
X124022849Y-86343779D01*
X123993416Y-86342773D01*
X123958957Y-86344765D01*
X123925861Y-86349323D01*
X123900513Y-86356015D01*
X123896063Y-86358008D01*
X123875373Y-86372739D01*
X123850593Y-86395902D01*
X123835501Y-86412594D01*
X123812595Y-86436882D01*
X123793663Y-86451231D01*
X123781299Y-86454102D01*
X123777883Y-86446747D01*
X123780398Y-86435546D01*
X123786942Y-86411830D01*
X123796169Y-86380064D01*
X123806733Y-86344713D01*
X123817287Y-86310242D01*
X123826485Y-86281118D01*
X123832983Y-86261804D01*
X123835238Y-86256474D01*
X123844677Y-86255785D01*
X123870179Y-86255115D01*
X123909594Y-86254489D01*
X123960770Y-86253931D01*
X124021557Y-86253467D01*
X124089804Y-86253121D01*
X124137978Y-86252970D01*
X124437932Y-86252252D01*
X124467194Y-86346024D01*
G37*
G36*
X119528618Y-86250301D02*
G01*
X119564449Y-86250610D01*
X119585448Y-86251129D01*
X119589024Y-86251381D01*
X119599772Y-86254044D01*
X119608401Y-86261248D01*
X119616552Y-86276130D01*
X119625869Y-86301825D01*
X119637991Y-86341471D01*
X119640326Y-86349404D01*
X119653603Y-86398238D01*
X119659746Y-86430848D01*
X119658544Y-86447856D01*
X119649789Y-86449886D01*
X119633271Y-86437559D01*
X119616538Y-86420235D01*
X119592219Y-86395618D01*
X119567741Y-86374287D01*
X119557873Y-86367063D01*
X119530105Y-86354682D01*
X119493367Y-86345599D01*
X119454961Y-86340915D01*
X119422191Y-86341732D01*
X119409788Y-86344703D01*
X119388105Y-86352947D01*
X119388105Y-86927980D01*
X119410459Y-86950334D01*
X119431211Y-86965739D01*
X119451098Y-86972659D01*
X119452110Y-86972688D01*
X119466891Y-86977403D01*
X119468344Y-86988625D01*
X119465650Y-86994476D01*
X119458454Y-86998796D01*
X119444216Y-87001878D01*
X119420398Y-87004016D01*
X119384459Y-87005503D01*
X119333859Y-87006634D01*
X119308969Y-87007052D01*
X119245975Y-87007503D01*
X119197433Y-87006665D01*
X119164483Y-87004585D01*
X119148263Y-87001312D01*
X119146895Y-87000222D01*
X119145566Y-86984791D01*
X119157491Y-86974096D01*
X119165930Y-86972688D01*
X119181191Y-86966654D01*
X119200154Y-86951965D01*
X119201821Y-86950334D01*
X119224176Y-86927980D01*
X119224176Y-86641226D01*
X119223975Y-86554754D01*
X119223342Y-86485229D01*
X119222230Y-86431389D01*
X119220593Y-86391971D01*
X119218384Y-86365711D01*
X119215557Y-86351347D01*
X119213376Y-86347798D01*
X119195057Y-86343227D01*
X119165423Y-86342212D01*
X119130930Y-86344313D01*
X119098034Y-86349093D01*
X119073189Y-86356113D01*
X119070172Y-86357528D01*
X119049655Y-86371917D01*
X119024474Y-86394668D01*
X119007774Y-86412289D01*
X118981829Y-86439872D01*
X118964204Y-86453671D01*
X118954674Y-86453130D01*
X118953014Y-86437688D01*
X118958997Y-86406787D01*
X118972399Y-86359869D01*
X118978627Y-86340099D01*
X119006296Y-86253725D01*
X119285996Y-86251195D01*
X119356643Y-86250649D01*
X119422264Y-86250319D01*
X119480406Y-86250204D01*
X119528618Y-86250301D01*
G37*
G36*
X115353613Y-84868923D02*
G01*
X115426470Y-84868923D01*
X115460304Y-84869808D01*
X115485782Y-84872159D01*
X115498596Y-84875522D01*
X115499328Y-84876609D01*
X115497603Y-84887804D01*
X115492853Y-84913533D01*
X115485711Y-84950485D01*
X115476810Y-84995353D01*
X115472006Y-85019192D01*
X115462509Y-85066278D01*
X115454447Y-85106626D01*
X115448447Y-85137065D01*
X115445136Y-85154427D01*
X115444685Y-85157221D01*
X115436260Y-85158609D01*
X115413712Y-85159682D01*
X115381132Y-85160281D01*
X115363792Y-85160354D01*
X115282900Y-85160354D01*
X115259059Y-85283716D01*
X115250371Y-85329274D01*
X115243100Y-85368548D01*
X115237883Y-85398007D01*
X115235357Y-85414120D01*
X115235219Y-85415770D01*
X115243650Y-85419748D01*
X115266252Y-85422753D01*
X115298991Y-85424331D01*
X115312630Y-85424463D01*
X115347612Y-85425300D01*
X115374366Y-85427535D01*
X115388712Y-85430751D01*
X115390041Y-85432173D01*
X115388298Y-85442712D01*
X115383362Y-85468853D01*
X115375676Y-85508352D01*
X115365681Y-85558964D01*
X115353819Y-85618443D01*
X115340531Y-85684545D01*
X115334940Y-85712220D01*
X115316546Y-85805056D01*
X115302428Y-85880659D01*
X115292514Y-85939484D01*
X115286730Y-85981986D01*
X115285001Y-86008617D01*
X115285568Y-86015783D01*
X115299746Y-86049482D01*
X115326909Y-86081445D01*
X115362117Y-86106697D01*
X115385915Y-86116832D01*
X115403220Y-86119818D01*
X115434104Y-86122786D01*
X115475592Y-86125640D01*
X115524709Y-86128283D01*
X115578481Y-86130621D01*
X115633932Y-86132557D01*
X115688089Y-86133996D01*
X115737976Y-86134843D01*
X115780619Y-86135002D01*
X115813043Y-86134377D01*
X115832273Y-86132873D01*
X115836295Y-86131305D01*
X115837970Y-86119963D01*
X115842477Y-86094777D01*
X115849036Y-86059755D01*
X115856866Y-86018903D01*
X115865187Y-85976232D01*
X115873220Y-85935748D01*
X115880184Y-85901459D01*
X115885300Y-85877375D01*
X115887448Y-85868439D01*
X115887934Y-85859861D01*
X115880609Y-85855037D01*
X115861890Y-85852930D01*
X115832355Y-85852501D01*
X115796494Y-85851243D01*
X115773389Y-85846636D01*
X115757702Y-85837435D01*
X115754330Y-85834287D01*
X115741005Y-85818542D01*
X115736115Y-85808507D01*
X115737820Y-85797491D01*
X115742546Y-85771689D01*
X115749708Y-85734169D01*
X115758722Y-85687999D01*
X115766884Y-85646854D01*
X115777501Y-85593470D01*
X115787282Y-85543889D01*
X115795486Y-85501903D01*
X115801370Y-85471304D01*
X115803725Y-85458615D01*
X115809798Y-85424463D01*
X115978298Y-85424463D01*
X115998965Y-85312899D01*
X116007348Y-85268133D01*
X116014959Y-85228369D01*
X116020968Y-85197890D01*
X116024544Y-85180979D01*
X116024576Y-85180845D01*
X116026151Y-85171194D01*
X116023022Y-85165178D01*
X116011921Y-85161938D01*
X115989579Y-85160617D01*
X115952725Y-85160355D01*
X115946568Y-85160354D01*
X115910234Y-85160035D01*
X115881987Y-85159181D01*
X115865867Y-85157945D01*
X115863616Y-85157221D01*
X115865493Y-85143143D01*
X115870566Y-85115974D01*
X115878000Y-85079493D01*
X115886960Y-85037477D01*
X115896610Y-84993704D01*
X115906115Y-84951951D01*
X115914640Y-84915997D01*
X115921350Y-84889619D01*
X115925409Y-84876596D01*
X115925810Y-84875944D01*
X115936588Y-84874021D01*
X115963029Y-84872480D01*
X116002587Y-84871374D01*
X116052713Y-84870758D01*
X116110860Y-84870683D01*
X116160218Y-84871037D01*
X116387281Y-84873477D01*
X116391834Y-85069282D01*
X116393915Y-85143321D01*
X116396801Y-85201911D01*
X116401229Y-85247815D01*
X116407935Y-85283798D01*
X116417655Y-85312624D01*
X116431125Y-85337058D01*
X116449081Y-85359865D01*
X116472259Y-85383808D01*
X116476738Y-85388158D01*
X116519034Y-85429016D01*
X116519185Y-85658622D01*
X116519335Y-85888228D01*
X116480629Y-85898437D01*
X116366715Y-85934393D01*
X116256684Y-85980510D01*
X116154437Y-86034806D01*
X116063873Y-86095302D01*
X116015966Y-86134462D01*
X115956831Y-86195674D01*
X115903233Y-86267372D01*
X115860947Y-86341829D01*
X115860944Y-86341835D01*
X115847680Y-86371121D01*
X115839233Y-86395149D01*
X115834579Y-86419604D01*
X115832696Y-86450167D01*
X115832558Y-86492523D01*
X115832615Y-86499113D01*
X115834703Y-86557618D01*
X115840292Y-86604334D01*
X115850191Y-86645485D01*
X115852651Y-86653265D01*
X115861774Y-86683663D01*
X115867240Y-86706995D01*
X115867869Y-86718172D01*
X115852602Y-86728238D01*
X115823447Y-86735882D01*
X115784599Y-86740900D01*
X115740250Y-86743090D01*
X115694592Y-86742246D01*
X115651818Y-86738165D01*
X115616120Y-86730642D01*
X115615480Y-86730447D01*
X115535351Y-86696878D01*
X115460305Y-86646876D01*
X115390060Y-86580142D01*
X115324335Y-86496381D01*
X115262847Y-86395294D01*
X115224078Y-86318148D01*
X115180808Y-86226368D01*
X115143765Y-86149930D01*
X115111939Y-86087458D01*
X115084321Y-86037579D01*
X115059902Y-85998917D01*
X115037672Y-85970098D01*
X115016624Y-85949747D01*
X114995746Y-85936491D01*
X114974032Y-85928954D01*
X114950470Y-85925761D01*
X114935726Y-85925359D01*
X114906040Y-85927186D01*
X114880084Y-85934086D01*
X114853922Y-85948191D01*
X114823620Y-85971632D01*
X114785242Y-86006539D01*
X114784491Y-86007249D01*
X114752346Y-86036905D01*
X114729143Y-86055776D01*
X114711181Y-86066190D01*
X114694760Y-86070474D01*
X114683030Y-86071074D01*
X114635783Y-86062676D01*
X114589449Y-86039362D01*
X114549084Y-86003954D01*
X114538012Y-85990200D01*
X114522197Y-85964644D01*
X114502713Y-85927264D01*
X114482173Y-85883334D01*
X114465277Y-85843394D01*
X114444500Y-85793433D01*
X114425137Y-85752962D01*
X114404442Y-85718126D01*
X114379668Y-85685070D01*
X114348069Y-85649940D01*
X114306898Y-85608881D01*
X114279567Y-85582743D01*
X114226543Y-85529043D01*
X114187542Y-85481054D01*
X114160609Y-85435740D01*
X114143790Y-85390066D01*
X114138026Y-85362989D01*
X114131646Y-85324283D01*
X114798073Y-85324283D01*
X114798073Y-84431777D01*
X115353613Y-84431777D01*
X115353613Y-84868923D01*
G37*
G36*
X123554633Y-86251826D02*
G01*
X123580273Y-86252550D01*
X123616500Y-86253039D01*
X123659385Y-86253218D01*
X123706874Y-86253598D01*
X123738845Y-86254951D01*
X123757983Y-86257596D01*
X123766973Y-86261856D01*
X123768672Y-86266266D01*
X123761112Y-86279411D01*
X123751280Y-86284833D01*
X123740955Y-86288486D01*
X123732476Y-86293407D01*
X123725632Y-86301308D01*
X123720216Y-86313905D01*
X123716020Y-86332912D01*
X123712834Y-86360042D01*
X123710451Y-86397010D01*
X123708661Y-86445531D01*
X123707257Y-86507318D01*
X123706029Y-86584086D01*
X123704921Y-86665954D01*
X123703431Y-86764334D01*
X123701762Y-86845276D01*
X123699882Y-86909556D01*
X123697757Y-86957948D01*
X123695356Y-86991230D01*
X123692645Y-87010176D01*
X123690137Y-87015570D01*
X123680237Y-87010565D01*
X123661562Y-86994363D01*
X123637068Y-86969704D01*
X123617280Y-86948017D01*
X123590809Y-86918123D01*
X123568857Y-86893511D01*
X123554189Y-86877273D01*
X123549701Y-86872509D01*
X123542713Y-86864745D01*
X123525283Y-86844927D01*
X123498901Y-86814762D01*
X123465057Y-86775959D01*
X123425243Y-86730225D01*
X123380947Y-86679267D01*
X123360726Y-86655982D01*
X123315302Y-86603888D01*
X123273935Y-86556888D01*
X123238058Y-86516574D01*
X123209105Y-86484542D01*
X123188509Y-86462383D01*
X123177703Y-86451692D01*
X123176415Y-86451070D01*
X123176358Y-86461757D01*
X123176348Y-86488134D01*
X123176383Y-86527679D01*
X123176460Y-86577868D01*
X123176575Y-86636178D01*
X123176697Y-86688663D01*
X123177006Y-86763771D01*
X123177766Y-86822803D01*
X123179345Y-86867895D01*
X123182111Y-86901185D01*
X123186432Y-86924809D01*
X123192679Y-86940906D01*
X123201219Y-86951612D01*
X123212421Y-86959065D01*
X123224264Y-86964419D01*
X123243564Y-86977927D01*
X123249561Y-86992007D01*
X123248333Y-86998907D01*
X123242754Y-87003658D01*
X123229985Y-87006658D01*
X123207185Y-87008303D01*
X123171516Y-87008989D01*
X123127151Y-87009117D01*
X123070107Y-87008429D01*
X123030198Y-87006307D01*
X123006398Y-87002666D01*
X122998054Y-86998296D01*
X122999303Y-86985701D01*
X123008365Y-86977805D01*
X123027405Y-86964403D01*
X123046390Y-86948057D01*
X123067417Y-86927980D01*
X123067417Y-86630983D01*
X123067151Y-86552551D01*
X123066390Y-86482241D01*
X123065185Y-86421946D01*
X123063590Y-86373559D01*
X123061658Y-86338974D01*
X123059441Y-86320084D01*
X123058658Y-86317619D01*
X123044308Y-86302666D01*
X123022229Y-86289791D01*
X123003226Y-86278470D01*
X122994605Y-86266520D01*
X122994559Y-86265774D01*
X122998060Y-86260425D01*
X123010242Y-86256783D01*
X123033625Y-86254579D01*
X123070730Y-86253545D01*
X123110676Y-86253377D01*
X123226793Y-86253536D01*
X123408033Y-86460566D01*
X123453658Y-86512498D01*
X123495579Y-86559860D01*
X123532259Y-86600943D01*
X123562160Y-86634038D01*
X123583745Y-86657436D01*
X123595477Y-86669429D01*
X123597008Y-86670632D01*
X123599990Y-86663415D01*
X123602208Y-86641351D01*
X123603685Y-86607791D01*
X123604440Y-86566085D01*
X123604496Y-86519585D01*
X123603874Y-86471642D01*
X123602594Y-86425605D01*
X123600678Y-86384825D01*
X123598148Y-86352654D01*
X123595023Y-86332443D01*
X123594862Y-86331843D01*
X123582924Y-86304262D01*
X123563682Y-86288776D01*
X123558220Y-86286487D01*
X123539051Y-86274898D01*
X123534022Y-86262506D01*
X123539848Y-86251557D01*
X123543393Y-86250942D01*
X123554633Y-86251826D01*
G37*
G36*
X119751226Y-86476416D02*
G01*
X119749849Y-86416734D01*
X119748017Y-86369770D01*
X119745784Y-86337353D01*
X119743207Y-86321313D01*
X119743198Y-86321291D01*
X119727304Y-86299669D01*
X119706770Y-86286826D01*
X119687879Y-86276269D01*
X119679555Y-86264836D01*
X119679536Y-86264370D01*
X119682459Y-86260775D01*
X119692395Y-86258020D01*
X119711095Y-86256043D01*
X119740311Y-86254781D01*
X119781793Y-86254170D01*
X119837291Y-86254148D01*
X119908558Y-86254653D01*
X119941368Y-86254982D01*
X120203200Y-86257772D01*
X120257448Y-86285094D01*
X120308467Y-86316639D01*
X120343143Y-86352614D01*
X120363225Y-86395345D01*
X120369861Y-86434537D01*
X120367927Y-86495280D01*
X120351978Y-86546273D01*
X120328014Y-86582611D01*
X120304674Y-86603512D01*
X120272174Y-86624474D01*
X120237050Y-86642004D01*
X120205837Y-86652607D01*
X120194093Y-86654211D01*
X120184778Y-86655991D01*
X120190271Y-86661765D01*
X120203200Y-86669007D01*
X120248735Y-86701459D01*
X120294864Y-86750934D01*
X120340557Y-86816313D01*
X120344298Y-86822419D01*
X120377265Y-86873411D01*
X120406532Y-86910457D01*
X120434988Y-86936591D01*
X120465526Y-86954846D01*
X120474140Y-86958666D01*
X120499283Y-86971843D01*
X120506472Y-86983718D01*
X120495779Y-86995598D01*
X120476709Y-87005028D01*
X120436939Y-87014814D01*
X120387789Y-87016861D01*
X120336344Y-87011212D01*
X120306780Y-87003981D01*
X120265317Y-86984369D01*
X120226276Y-86951127D01*
X120188331Y-86902813D01*
X120150151Y-86837986D01*
X120145365Y-86828783D01*
X120118914Y-86778937D01*
X120097029Y-86743342D01*
X120076867Y-86719608D01*
X120055587Y-86705347D01*
X120030345Y-86698168D01*
X119998299Y-86695683D01*
X119986783Y-86695494D01*
X119920877Y-86694918D01*
X119920877Y-86811836D01*
X119921010Y-86859916D01*
X119921809Y-86893226D01*
X119923871Y-86915208D01*
X119927796Y-86929306D01*
X119934181Y-86938964D01*
X119943624Y-86947623D01*
X119944611Y-86948444D01*
X119966380Y-86965293D01*
X119984913Y-86977805D01*
X119995749Y-86990025D01*
X119994793Y-86998296D01*
X119985296Y-87002723D01*
X119962205Y-87005921D01*
X119924221Y-87007978D01*
X119870042Y-87008982D01*
X119833821Y-87009117D01*
X119777334Y-87008981D01*
X119736539Y-87008396D01*
X119708914Y-87007099D01*
X119691938Y-87004822D01*
X119683089Y-87001302D01*
X119679845Y-86996273D01*
X119679536Y-86992899D01*
X119687757Y-86977682D01*
X119706770Y-86966402D01*
X119730334Y-86950692D01*
X119743198Y-86931937D01*
X119745777Y-86915948D01*
X119748010Y-86883578D01*
X119749844Y-86836654D01*
X119751222Y-86777007D01*
X119752091Y-86706467D01*
X119752394Y-86626864D01*
X119752394Y-86626614D01*
X119752290Y-86599292D01*
X119916323Y-86599292D01*
X120003134Y-86599292D01*
X120057068Y-86597509D01*
X120098864Y-86592401D01*
X120121328Y-86586180D01*
X120155680Y-86562440D01*
X120178858Y-86526087D01*
X120189144Y-86480077D01*
X120189505Y-86469062D01*
X120184991Y-86423349D01*
X120170374Y-86389241D01*
X120144164Y-86365691D01*
X120104869Y-86351650D01*
X120051000Y-86346070D01*
X120014791Y-86346223D01*
X119979021Y-86347405D01*
X119953399Y-86350135D01*
X119936207Y-86357066D01*
X119925726Y-86370851D01*
X119920239Y-86394143D01*
X119918026Y-86429594D01*
X119917369Y-86479858D01*
X119917231Y-86496836D01*
X119916323Y-86599292D01*
X119752290Y-86599292D01*
X119752092Y-86546986D01*
X119751226Y-86476416D01*
G37*
G36*
X120143743Y-85099842D02*
G01*
X120187175Y-85109152D01*
X120189539Y-85109998D01*
X120225387Y-85122957D01*
X120247995Y-85129867D01*
X120261124Y-85131210D01*
X120268537Y-85127469D01*
X120273109Y-85120735D01*
X120288556Y-85107944D01*
X120298893Y-85105710D01*
X120309253Y-85109462D01*
X120318540Y-85122843D01*
X120328519Y-85149037D01*
X120335428Y-85171738D01*
X120346316Y-85208928D01*
X120356597Y-85243493D01*
X120364082Y-85268073D01*
X120364199Y-85268445D01*
X120369000Y-85294879D01*
X120363044Y-85307145D01*
X120347243Y-85305064D01*
X120322504Y-85288457D01*
X120311509Y-85278819D01*
X120254744Y-85236725D01*
X120191771Y-85207790D01*
X120126461Y-85193211D01*
X120062684Y-85194182D01*
X120046998Y-85197092D01*
X120003919Y-85211606D01*
X119976642Y-85233138D01*
X119963571Y-85263306D01*
X119961859Y-85283477D01*
X119963929Y-85308058D01*
X119971890Y-85326780D01*
X119988374Y-85341505D01*
X120016012Y-85354099D01*
X120057432Y-85366426D01*
X120090376Y-85374560D01*
X120171876Y-85394886D01*
X120237393Y-85413833D01*
X120289000Y-85432448D01*
X120328765Y-85451776D01*
X120358761Y-85472864D01*
X120381058Y-85496757D01*
X120397725Y-85524503D01*
X120400953Y-85531479D01*
X120415051Y-85579802D01*
X120419598Y-85634407D01*
X120414447Y-85687401D01*
X120404514Y-85720447D01*
X120375587Y-85767888D01*
X120333398Y-85809980D01*
X120282892Y-85841907D01*
X120277036Y-85844594D01*
X120230837Y-85858821D01*
X120173759Y-85867294D01*
X120112263Y-85869839D01*
X120052805Y-85866285D01*
X120001847Y-85856459D01*
X119989181Y-85852262D01*
X119951951Y-85838374D01*
X119928314Y-85830454D01*
X119914787Y-85828133D01*
X119907886Y-85831040D01*
X119904130Y-85838806D01*
X119902758Y-85843092D01*
X119891214Y-85858418D01*
X119877077Y-85859863D01*
X119867387Y-85855954D01*
X119858896Y-85845273D01*
X119850133Y-85824721D01*
X119839627Y-85791202D01*
X119832589Y-85766177D01*
X119816819Y-85708166D01*
X119806488Y-85666409D01*
X119802087Y-85639633D01*
X119804107Y-85626561D01*
X119813038Y-85625921D01*
X119829372Y-85636437D01*
X119853600Y-85656835D01*
X119869328Y-85670787D01*
X119926344Y-85715667D01*
X119981602Y-85745645D01*
X120039846Y-85762832D01*
X120089178Y-85768649D01*
X120147305Y-85768845D01*
X120191769Y-85761193D01*
X120225747Y-85744798D01*
X120248438Y-85723694D01*
X120267782Y-85687961D01*
X120269543Y-85648805D01*
X120258527Y-85617035D01*
X120250296Y-85603748D01*
X120239144Y-85592739D01*
X120222437Y-85582910D01*
X120197539Y-85573163D01*
X120161815Y-85562401D01*
X120112630Y-85549526D01*
X120072713Y-85539632D01*
X119995726Y-85518326D01*
X119935182Y-85495538D01*
X119889308Y-85469873D01*
X119856335Y-85439939D01*
X119834489Y-85404345D01*
X119822000Y-85361696D01*
X119818996Y-85340178D01*
X119820465Y-85277177D01*
X119838495Y-85221657D01*
X119872892Y-85173956D01*
X119923461Y-85134412D01*
X119943645Y-85123221D01*
X119984186Y-85109006D01*
X120035529Y-85100130D01*
X120090954Y-85096955D01*
X120143743Y-85099842D01*
G37*
G36*
X115850782Y-84560239D02*
G01*
X115870564Y-84564969D01*
X115879625Y-84576845D01*
X115880070Y-84598602D01*
X115874000Y-84632976D01*
X115863616Y-84682225D01*
X115855913Y-84719999D01*
X115849823Y-84750501D01*
X115846136Y-84769738D01*
X115845402Y-84774300D01*
X115836870Y-84775645D01*
X115813572Y-84776757D01*
X115778957Y-84777527D01*
X115736474Y-84777848D01*
X115731562Y-84777851D01*
X115688485Y-84777339D01*
X115652952Y-84775943D01*
X115628392Y-84773867D01*
X115618237Y-84771320D01*
X115618147Y-84771021D01*
X115620042Y-84759834D01*
X115624858Y-84734702D01*
X115631835Y-84699521D01*
X115639022Y-84664011D01*
X115659471Y-84563832D01*
X115770651Y-84561274D01*
X115818179Y-84559919D01*
X115850782Y-84560239D01*
G37*
G36*
X120476760Y-86250614D02*
G01*
X120507284Y-86251107D01*
X120548230Y-86251608D01*
X120595702Y-86252067D01*
X120613025Y-86252207D01*
X120666231Y-86252933D01*
X120703631Y-86254329D01*
X120727626Y-86256644D01*
X120740620Y-86260127D01*
X120745013Y-86265027D01*
X120745079Y-86265892D01*
X120737317Y-86277371D01*
X120722426Y-86284251D01*
X120707922Y-86288721D01*
X120696449Y-86295351D01*
X120687683Y-86306115D01*
X120681302Y-86322984D01*
X120676980Y-86347933D01*
X120674394Y-86382935D01*
X120673221Y-86429961D01*
X120673137Y-86490986D01*
X120673817Y-86567983D01*
X120673950Y-86579670D01*
X120674861Y-86653281D01*
X120675824Y-86710922D01*
X120677020Y-86754837D01*
X120678632Y-86787270D01*
X120680840Y-86810466D01*
X120683827Y-86826668D01*
X120687773Y-86838121D01*
X120692862Y-86847068D01*
X120695941Y-86851371D01*
X120719888Y-86878238D01*
X120747102Y-86896443D01*
X120781535Y-86907413D01*
X120827137Y-86912572D01*
X120868026Y-86913491D01*
X120924654Y-86911592D01*
X120966636Y-86905091D01*
X120997222Y-86892782D01*
X121019660Y-86873459D01*
X121034079Y-86851863D01*
X121039067Y-86840794D01*
X121043000Y-86826449D01*
X121046037Y-86806542D01*
X121048341Y-86778788D01*
X121050073Y-86740899D01*
X121051395Y-86690591D01*
X121052467Y-86625577D01*
X121052994Y-86583960D01*
X121053707Y-86503597D01*
X121053524Y-86439500D01*
X121052132Y-86389729D01*
X121049216Y-86352345D01*
X121044463Y-86325410D01*
X121037558Y-86306983D01*
X121028188Y-86295126D01*
X121016039Y-86287899D01*
X121004469Y-86284238D01*
X120987457Y-86275617D01*
X120981866Y-86265892D01*
X120985194Y-86260631D01*
X120996837Y-86256990D01*
X121019287Y-86254712D01*
X121055032Y-86253541D01*
X121104814Y-86253218D01*
X121155188Y-86253507D01*
X121190006Y-86254568D01*
X121211917Y-86256696D01*
X121223573Y-86260186D01*
X121227625Y-86265332D01*
X121227761Y-86266879D01*
X121221197Y-86278969D01*
X121215512Y-86280540D01*
X121200823Y-86286784D01*
X121185913Y-86299684D01*
X121180826Y-86306471D01*
X121176763Y-86315752D01*
X121173560Y-86329633D01*
X121171053Y-86350218D01*
X121169077Y-86379609D01*
X121167467Y-86419910D01*
X121166060Y-86473227D01*
X121164690Y-86541662D01*
X121164011Y-86579731D01*
X121162643Y-86655602D01*
X121161355Y-86715570D01*
X121159941Y-86761945D01*
X121158195Y-86797036D01*
X121155911Y-86823153D01*
X121152883Y-86842605D01*
X121148905Y-86857701D01*
X121143771Y-86870752D01*
X121137275Y-86884066D01*
X121136785Y-86885027D01*
X121100263Y-86937431D01*
X121051334Y-86976631D01*
X121009698Y-86995941D01*
X120977888Y-87003532D01*
X120933558Y-87009402D01*
X120882345Y-87013281D01*
X120829885Y-87014896D01*
X120781815Y-87013974D01*
X120743772Y-87010244D01*
X120737577Y-87009077D01*
X120664630Y-86985977D01*
X120603537Y-86950515D01*
X120555555Y-86903553D01*
X120532421Y-86868074D01*
X120526660Y-86856359D01*
X120522086Y-86843656D01*
X120518511Y-86827691D01*
X120515750Y-86806193D01*
X120513617Y-86776888D01*
X120511926Y-86737503D01*
X120510490Y-86685766D01*
X120509124Y-86619405D01*
X120508292Y-86573426D01*
X120506937Y-86498208D01*
X120505701Y-86439094D01*
X120504387Y-86393975D01*
X120502793Y-86360742D01*
X120500721Y-86337288D01*
X120497971Y-86321504D01*
X120494345Y-86311282D01*
X120489641Y-86304513D01*
X120483662Y-86299089D01*
X120482238Y-86297933D01*
X120462569Y-86285366D01*
X120447418Y-86280540D01*
X120437476Y-86273508D01*
X120437119Y-86264855D01*
X120447645Y-86252180D01*
X120460555Y-86250183D01*
X120476760Y-86250614D01*
G37*
G36*
X119209336Y-85405284D02*
G01*
X119251041Y-85298647D01*
X119273972Y-85239724D01*
X119326307Y-85105074D01*
X119499253Y-85110264D01*
X119566904Y-85287855D01*
X119607611Y-85394689D01*
X119642407Y-85485797D01*
X119671877Y-85562468D01*
X119696606Y-85625994D01*
X119717178Y-85677665D01*
X119734177Y-85718771D01*
X119748190Y-85750602D01*
X119759799Y-85774449D01*
X119769590Y-85791603D01*
X119778147Y-85803353D01*
X119786055Y-85810991D01*
X119793898Y-85815806D01*
X119802262Y-85819089D01*
X119808477Y-85821083D01*
X119822492Y-85833490D01*
X119825251Y-85844008D01*
X119824331Y-85850346D01*
X119819903Y-85854948D01*
X119809464Y-85858092D01*
X119790512Y-85860053D01*
X119760543Y-85861109D01*
X119717055Y-85861535D01*
X119665875Y-85861609D01*
X119603074Y-85861253D01*
X119557116Y-85859897D01*
X119526639Y-85857102D01*
X119510281Y-85852432D01*
X119506679Y-85845451D01*
X119514472Y-85835721D01*
X119532297Y-85822807D01*
X119536448Y-85820122D01*
X119553959Y-85806106D01*
X119562563Y-85789746D01*
X119562476Y-85767263D01*
X119553914Y-85734877D01*
X119543077Y-85704509D01*
X119523405Y-85652143D01*
X119217289Y-85652143D01*
X119197256Y-85705712D01*
X119183214Y-85752216D01*
X119180996Y-85786477D01*
X119190765Y-85810247D01*
X119208238Y-85823333D01*
X119226018Y-85835731D01*
X119233283Y-85848445D01*
X119231000Y-85852339D01*
X119222919Y-85855403D01*
X119207194Y-85857730D01*
X119181977Y-85859415D01*
X119145422Y-85860551D01*
X119095682Y-85861232D01*
X119030909Y-85861550D01*
X118973727Y-85861609D01*
X118895747Y-85861460D01*
X118834264Y-85860962D01*
X118787565Y-85860035D01*
X118753935Y-85858600D01*
X118731659Y-85856577D01*
X118719024Y-85853887D01*
X118714315Y-85850451D01*
X118714172Y-85849591D01*
X118721734Y-85838261D01*
X118740287Y-85826163D01*
X118743770Y-85824546D01*
X118763123Y-85813744D01*
X118773739Y-85800570D01*
X118775131Y-85782764D01*
X118766813Y-85758067D01*
X118748296Y-85724220D01*
X118719095Y-85678962D01*
X118709262Y-85664414D01*
X118683301Y-85626826D01*
X118660809Y-85595348D01*
X118643806Y-85572726D01*
X118634311Y-85561705D01*
X118633245Y-85561071D01*
X118625566Y-85568127D01*
X118612277Y-85586145D01*
X118603421Y-85599776D01*
X118586824Y-85626295D01*
X118564725Y-85661421D01*
X118541385Y-85698386D01*
X118536944Y-85705402D01*
X118512775Y-85746867D01*
X118500631Y-85777318D01*
X118500268Y-85799205D01*
X118511441Y-85814978D01*
X118525197Y-85823315D01*
X118542976Y-85835724D01*
X118550242Y-85848445D01*
X118547472Y-85853551D01*
X118537538Y-85857187D01*
X118518002Y-85859579D01*
X118486430Y-85860954D01*
X118440384Y-85861540D01*
X118409081Y-85861609D01*
X118354551Y-85861367D01*
X118315750Y-85860483D01*
X118290193Y-85858720D01*
X118275400Y-85855838D01*
X118268887Y-85851600D01*
X118267919Y-85848070D01*
X118275594Y-85836299D01*
X118294713Y-85823632D01*
X118301738Y-85820401D01*
X118322821Y-85810675D01*
X118340828Y-85799330D01*
X118358398Y-85783653D01*
X118378174Y-85760932D01*
X118402797Y-85728454D01*
X118434548Y-85684018D01*
X118464263Y-85641895D01*
X118494647Y-85598829D01*
X118521683Y-85560513D01*
X118537863Y-85537586D01*
X118576936Y-85482226D01*
X118480729Y-85346335D01*
X118437537Y-85285943D01*
X118402749Y-85238929D01*
X118374762Y-85203448D01*
X118351978Y-85177654D01*
X118332795Y-85159703D01*
X118315613Y-85147751D01*
X118303152Y-85141644D01*
X118284792Y-85130394D01*
X118277027Y-85118399D01*
X118277026Y-85118266D01*
X118280040Y-85113830D01*
X118290495Y-85110531D01*
X118310513Y-85108220D01*
X118342214Y-85106746D01*
X118387721Y-85105960D01*
X118449153Y-85105712D01*
X118454617Y-85105710D01*
X118521606Y-85106050D01*
X118571689Y-85107289D01*
X118606168Y-85109760D01*
X118626340Y-85113793D01*
X118633507Y-85119720D01*
X118628968Y-85127872D01*
X118614023Y-85138580D01*
X118604828Y-85143992D01*
X118584415Y-85161193D01*
X118577564Y-85178220D01*
X118582115Y-85192305D01*
X118594283Y-85216053D01*
X118611843Y-85246083D01*
X118632568Y-85279013D01*
X118654233Y-85311462D01*
X118674609Y-85340048D01*
X118691473Y-85361389D01*
X118702596Y-85372105D01*
X118705372Y-85372356D01*
X118720557Y-85352958D01*
X118740533Y-85324333D01*
X118762986Y-85290200D01*
X118785599Y-85254278D01*
X118806055Y-85220288D01*
X118822039Y-85191950D01*
X118831235Y-85172983D01*
X118832566Y-85168069D01*
X118823849Y-85149978D01*
X118805244Y-85139351D01*
X118786325Y-85128941D01*
X118777945Y-85117864D01*
X118777922Y-85117375D01*
X118782253Y-85112580D01*
X118796662Y-85109205D01*
X118823276Y-85107062D01*
X118864221Y-85105964D01*
X118909977Y-85105710D01*
X118968366Y-85106349D01*
X119009449Y-85108567D01*
X119034100Y-85112823D01*
X119043193Y-85119571D01*
X119037601Y-85129267D01*
X119018198Y-85142367D01*
X118999531Y-85152443D01*
X118981895Y-85162985D01*
X118964365Y-85177267D01*
X118944803Y-85197683D01*
X118921071Y-85226628D01*
X118891031Y-85266493D01*
X118862199Y-85306219D01*
X118831333Y-85349372D01*
X118804177Y-85387754D01*
X118782531Y-85418787D01*
X118768198Y-85439892D01*
X118763074Y-85448176D01*
X118766772Y-85458383D01*
X118779600Y-85480931D01*
X118800026Y-85513395D01*
X118826516Y-85553350D01*
X118857539Y-85598369D01*
X118862096Y-85604853D01*
X118907535Y-85668850D01*
X118943953Y-85718947D01*
X118972382Y-85756435D01*
X118993853Y-85782604D01*
X119009399Y-85798742D01*
X119020050Y-85806140D01*
X119023758Y-85806965D01*
X119030689Y-85804606D01*
X119038903Y-85796791D01*
X119048889Y-85782416D01*
X119061134Y-85760376D01*
X119076126Y-85729566D01*
X119094351Y-85688880D01*
X119116297Y-85637214D01*
X119142452Y-85573462D01*
X119147420Y-85561071D01*
X119252305Y-85561071D01*
X119370295Y-85561071D01*
X119414257Y-85560820D01*
X119450785Y-85560135D01*
X119476490Y-85559115D01*
X119487986Y-85557859D01*
X119488285Y-85557612D01*
X119485277Y-85547473D01*
X119477103Y-85523756D01*
X119465037Y-85489923D01*
X119450353Y-85449434D01*
X119434327Y-85405749D01*
X119418231Y-85362330D01*
X119403342Y-85322636D01*
X119390932Y-85290128D01*
X119382277Y-85268268D01*
X119379065Y-85261026D01*
X119372069Y-85252564D01*
X119366275Y-85260257D01*
X119364412Y-85265087D01*
X119358620Y-85280422D01*
X119347807Y-85308713D01*
X119333517Y-85345926D01*
X119317298Y-85388026D01*
X119317295Y-85388034D01*
X119300343Y-85432155D01*
X119284636Y-85473373D01*
X119271997Y-85506883D01*
X119264594Y-85526919D01*
X119252305Y-85561071D01*
X119147420Y-85561071D01*
X119173302Y-85496521D01*
X119209336Y-85405284D01*
G37*
G36*
X115761708Y-84869017D02*
G01*
X115793703Y-84869649D01*
X115813155Y-84871350D01*
X115822901Y-84874647D01*
X115825778Y-84880068D01*
X115824620Y-84888142D01*
X115824321Y-84889414D01*
X115821655Y-84902082D01*
X115815792Y-84930873D01*
X115807081Y-84974043D01*
X115795873Y-85029849D01*
X115782516Y-85096547D01*
X115767359Y-85172395D01*
X115750753Y-85255650D01*
X115733045Y-85344567D01*
X115725758Y-85381203D01*
X115632036Y-85852501D01*
X115520146Y-85852501D01*
X115477420Y-85851917D01*
X115442219Y-85850322D01*
X115418021Y-85847955D01*
X115408304Y-85845055D01*
X115408256Y-85844830D01*
X115409979Y-85834689D01*
X115414934Y-85808347D01*
X115422794Y-85767466D01*
X115433237Y-85713711D01*
X115445936Y-85648743D01*
X115460567Y-85574225D01*
X115476806Y-85491820D01*
X115494329Y-85403192D01*
X115503816Y-85355317D01*
X115521856Y-85264319D01*
X115538787Y-85178848D01*
X115554284Y-85100546D01*
X115568025Y-85031048D01*
X115579685Y-84971996D01*
X115588942Y-84925026D01*
X115595470Y-84891779D01*
X115598947Y-84873891D01*
X115599441Y-84871200D01*
X115608002Y-84870341D01*
X115631341Y-84869630D01*
X115666021Y-84869136D01*
X115708606Y-84868926D01*
X115714335Y-84868923D01*
X115761708Y-84869017D01*
G37*
G36*
X122540620Y-86254994D02*
G01*
X122590518Y-86255371D01*
X122887731Y-86257772D01*
X122914906Y-86332624D01*
X122930291Y-86378895D01*
X122936972Y-86409547D01*
X122934811Y-86425035D01*
X122923669Y-86425816D01*
X122903408Y-86412346D01*
X122893284Y-86403581D01*
X122864711Y-86379739D01*
X122837535Y-86362768D01*
X122807718Y-86351513D01*
X122771220Y-86344820D01*
X122724002Y-86341533D01*
X122672816Y-86340559D01*
X122619023Y-86340414D01*
X122580789Y-86342450D01*
X122555459Y-86349055D01*
X122540379Y-86362617D01*
X122532894Y-86385526D01*
X122530350Y-86420170D01*
X122530092Y-86468937D01*
X122530092Y-86562863D01*
X122653453Y-86562863D01*
X122703220Y-86562711D01*
X122738176Y-86561904D01*
X122761727Y-86559921D01*
X122777274Y-86556240D01*
X122788223Y-86550339D01*
X122797977Y-86541695D01*
X122799168Y-86540509D01*
X122814286Y-86522869D01*
X122821435Y-86509561D01*
X122821522Y-86508634D01*
X122828892Y-86500190D01*
X122835183Y-86499113D01*
X122841073Y-86501853D01*
X122845035Y-86511931D01*
X122847418Y-86532133D01*
X122848571Y-86565246D01*
X122848844Y-86608400D01*
X122848501Y-86655518D01*
X122847242Y-86687217D01*
X122844716Y-86706283D01*
X122840577Y-86715503D01*
X122835183Y-86717686D01*
X122823067Y-86712549D01*
X122821522Y-86708165D01*
X122815599Y-86695802D01*
X122801140Y-86678298D01*
X122799168Y-86676290D01*
X122789334Y-86667299D01*
X122778694Y-86661111D01*
X122763844Y-86657203D01*
X122741380Y-86655052D01*
X122707898Y-86654138D01*
X122659996Y-86653937D01*
X122653453Y-86653936D01*
X122530092Y-86653936D01*
X122530092Y-86770508D01*
X122530973Y-86828908D01*
X122533639Y-86869552D01*
X122538120Y-86892812D01*
X122541020Y-86898009D01*
X122554353Y-86902362D01*
X122581977Y-86905634D01*
X122620001Y-86907810D01*
X122664533Y-86908876D01*
X122711682Y-86908819D01*
X122757555Y-86907625D01*
X122798263Y-86905279D01*
X122829912Y-86901769D01*
X122842967Y-86899088D01*
X122869642Y-86887209D01*
X122900189Y-86867254D01*
X122917959Y-86852574D01*
X122946105Y-86828797D01*
X122964407Y-86818826D01*
X122973051Y-86823084D01*
X122972220Y-86841996D01*
X122962101Y-86875986D01*
X122946196Y-86917391D01*
X122908859Y-87009117D01*
X122606172Y-87009117D01*
X122517343Y-87008931D01*
X122445471Y-87008343D01*
X122389304Y-87007310D01*
X122347586Y-87005789D01*
X122319066Y-87003734D01*
X122302489Y-87001102D01*
X122296799Y-86998296D01*
X122298048Y-86985701D01*
X122307110Y-86977805D01*
X122326150Y-86964403D01*
X122345135Y-86948057D01*
X122366162Y-86927980D01*
X122366162Y-86325248D01*
X122343808Y-86302894D01*
X122324747Y-86287642D01*
X122308433Y-86280596D01*
X122307379Y-86280540D01*
X122295042Y-86273371D01*
X122293304Y-86266755D01*
X122295101Y-86262956D01*
X122301672Y-86259959D01*
X122314790Y-86257694D01*
X122336227Y-86256095D01*
X122367756Y-86255093D01*
X122411150Y-86254621D01*
X122468180Y-86254611D01*
X122540620Y-86254994D01*
G37*
G36*
X117860170Y-85107606D02*
G01*
X117899377Y-85107857D01*
X118189936Y-85110264D01*
X118220992Y-85190602D01*
X118236068Y-85231926D01*
X118243735Y-85259413D01*
X118244574Y-85275597D01*
X118241787Y-85281201D01*
X118231132Y-85284293D01*
X118214838Y-85274823D01*
X118201909Y-85263356D01*
X118175330Y-85239994D01*
X118149990Y-85223234D01*
X118121935Y-85211877D01*
X118087210Y-85204725D01*
X118041862Y-85200578D01*
X117987613Y-85198395D01*
X117931275Y-85197457D01*
X117891272Y-85198387D01*
X117865812Y-85201286D01*
X117853281Y-85206105D01*
X117846953Y-85215931D01*
X117842850Y-85234827D01*
X117840613Y-85265746D01*
X117839884Y-85311643D01*
X117839880Y-85316291D01*
X117839880Y-85415355D01*
X117962827Y-85415355D01*
X118012683Y-85415306D01*
X118047993Y-85414431D01*
X118072428Y-85411638D01*
X118089654Y-85405835D01*
X118103341Y-85395930D01*
X118117155Y-85380832D01*
X118129580Y-85365718D01*
X118140839Y-85355824D01*
X118148985Y-85358521D01*
X118154405Y-85375139D01*
X118157484Y-85407011D01*
X118158608Y-85455466D01*
X118158632Y-85465983D01*
X118158368Y-85511106D01*
X118157268Y-85541048D01*
X118154867Y-85558837D01*
X118150702Y-85567502D01*
X118144310Y-85570071D01*
X118142695Y-85570120D01*
X118127473Y-85562777D01*
X118112565Y-85545094D01*
X118112036Y-85544180D01*
X118101560Y-85529910D01*
X118086968Y-85519674D01*
X118065364Y-85512840D01*
X118033855Y-85508776D01*
X117989544Y-85506852D01*
X117938921Y-85506427D01*
X117839880Y-85506427D01*
X117839880Y-85752773D01*
X117864925Y-85762596D01*
X117886635Y-85766760D01*
X117923949Y-85768934D01*
X117974354Y-85769022D01*
X118008363Y-85768088D01*
X118071259Y-85764685D01*
X118119708Y-85758944D01*
X118157441Y-85749740D01*
X118188186Y-85735944D01*
X118215671Y-85716430D01*
X118233753Y-85699953D01*
X118258618Y-85678581D01*
X118273945Y-85672309D01*
X118279764Y-85681247D01*
X118276103Y-85705505D01*
X118262992Y-85745194D01*
X118252572Y-85771666D01*
X118217661Y-85857055D01*
X117910989Y-85859452D01*
X117816954Y-85859945D01*
X117740523Y-85859802D01*
X117681095Y-85859009D01*
X117638070Y-85857552D01*
X117610848Y-85855417D01*
X117598829Y-85852590D01*
X117598239Y-85852016D01*
X117594507Y-85844620D01*
X117597235Y-85838775D01*
X117609952Y-85830908D01*
X117628529Y-85821348D01*
X117651228Y-85804853D01*
X117666441Y-85785053D01*
X117667234Y-85783168D01*
X117669717Y-85767445D01*
X117671776Y-85736327D01*
X117673413Y-85692630D01*
X117674628Y-85639169D01*
X117675424Y-85578757D01*
X117675801Y-85514211D01*
X117675760Y-85448346D01*
X117675303Y-85383975D01*
X117674430Y-85323915D01*
X117673144Y-85270981D01*
X117671444Y-85227986D01*
X117669333Y-85197747D01*
X117666983Y-85183490D01*
X117653381Y-85163624D01*
X117631049Y-85144256D01*
X117625421Y-85140673D01*
X117606476Y-85126803D01*
X117599755Y-85115865D01*
X117600822Y-85113446D01*
X117611571Y-85111568D01*
X117638295Y-85109997D01*
X117678755Y-85108773D01*
X117730713Y-85107938D01*
X117791931Y-85107535D01*
X117860170Y-85107606D01*
G37*
G36*
X124847522Y-86241103D02*
G01*
X124881526Y-86244908D01*
X124909715Y-86252475D01*
X124928722Y-86260277D01*
X124959938Y-86273820D01*
X124978237Y-86279364D01*
X124986857Y-86277321D01*
X124989037Y-86268102D01*
X124989037Y-86267941D01*
X124996196Y-86256575D01*
X125011649Y-86249588D01*
X125026358Y-86250158D01*
X125030178Y-86253474D01*
X125037602Y-86270376D01*
X125046862Y-86298277D01*
X125056813Y-86332703D01*
X125066311Y-86369180D01*
X125074211Y-86403234D01*
X125079370Y-86430390D01*
X125080642Y-86446175D01*
X125079973Y-86448170D01*
X125068607Y-86447569D01*
X125047835Y-86435764D01*
X125031156Y-86423120D01*
X124963202Y-86376801D01*
X124893753Y-86348239D01*
X124839270Y-86338124D01*
X124784084Y-86338163D01*
X124737952Y-86348473D01*
X124702791Y-86367797D01*
X124680519Y-86394877D01*
X124673052Y-86428455D01*
X124675130Y-86445797D01*
X124685045Y-86468282D01*
X124705323Y-86486591D01*
X124738232Y-86501964D01*
X124786040Y-86515643D01*
X124813829Y-86521743D01*
X124894297Y-86539895D01*
X124958868Y-86558329D01*
X125009850Y-86577898D01*
X125049553Y-86599454D01*
X125073623Y-86617708D01*
X125106949Y-86653636D01*
X125127292Y-86693442D01*
X125136744Y-86742143D01*
X125138046Y-86772329D01*
X125131092Y-86837517D01*
X125108997Y-86892815D01*
X125071419Y-86938742D01*
X125018016Y-86975813D01*
X124996339Y-86986426D01*
X124945107Y-87003251D01*
X124884833Y-87013538D01*
X124822454Y-87016781D01*
X124764906Y-87012472D01*
X124734036Y-87005586D01*
X124701292Y-86994840D01*
X124670087Y-86983506D01*
X124662885Y-86980644D01*
X124641893Y-86973420D01*
X124629295Y-86975678D01*
X124617066Y-86989016D01*
X124616403Y-86989893D01*
X124601244Y-87004133D01*
X124588334Y-87007603D01*
X124580739Y-86997408D01*
X124570721Y-86973569D01*
X124559397Y-86940191D01*
X124547882Y-86901383D01*
X124537292Y-86861250D01*
X124528742Y-86823899D01*
X124523348Y-86793437D01*
X124522226Y-86773970D01*
X124523674Y-86769583D01*
X124534071Y-86769258D01*
X124553321Y-86781519D01*
X124582586Y-86807138D01*
X124587813Y-86812087D01*
X124621189Y-86840689D01*
X124657828Y-86867128D01*
X124690215Y-86886017D01*
X124692401Y-86887042D01*
X124746825Y-86905925D01*
X124803679Y-86915222D01*
X124858936Y-86915140D01*
X124908571Y-86905890D01*
X124948557Y-86887678D01*
X124965926Y-86872888D01*
X124981112Y-86844852D01*
X124987160Y-86809450D01*
X124983346Y-86775054D01*
X124975842Y-86758100D01*
X124963553Y-86743286D01*
X124946188Y-86730697D01*
X124920960Y-86719212D01*
X124885082Y-86707710D01*
X124835765Y-86695070D01*
X124796783Y-86686071D01*
X124721054Y-86666708D01*
X124661417Y-86645730D01*
X124615755Y-86621805D01*
X124581945Y-86593602D01*
X124557871Y-86559790D01*
X124544042Y-86527352D01*
X124532881Y-86467677D01*
X124538901Y-86410233D01*
X124561070Y-86357331D01*
X124598353Y-86311282D01*
X124649718Y-86274395D01*
X124659389Y-86269392D01*
X124690476Y-86255002D01*
X124716392Y-86246267D01*
X124743855Y-86241802D01*
X124779583Y-86240222D01*
X124801548Y-86240081D01*
X124847522Y-86241103D01*
G37*
G36*
X118717474Y-86248976D02*
G01*
X118758589Y-86263223D01*
X118787441Y-86275147D01*
X118804130Y-86279297D01*
X118812982Y-86275641D01*
X118818321Y-86264148D01*
X118818757Y-86262791D01*
X118827278Y-86250302D01*
X118843724Y-86252195D01*
X118843763Y-86252209D01*
X118854207Y-86259707D01*
X118864125Y-86275924D01*
X118874895Y-86303837D01*
X118887891Y-86346424D01*
X118888810Y-86349646D01*
X118899520Y-86387919D01*
X118908045Y-86419561D01*
X118913320Y-86440548D01*
X118914508Y-86446747D01*
X118909143Y-86453435D01*
X118892618Y-86447397D01*
X118864411Y-86428390D01*
X118848235Y-86415910D01*
X118816552Y-86392991D01*
X118783696Y-86372605D01*
X118762826Y-86361951D01*
X118709407Y-86344377D01*
X118656939Y-86336817D01*
X118608162Y-86338620D01*
X118565818Y-86349138D01*
X118532647Y-86367722D01*
X118511388Y-86393721D01*
X118504706Y-86423110D01*
X118505475Y-86445398D01*
X118509240Y-86462961D01*
X118518191Y-86477059D01*
X118534514Y-86488954D01*
X118560399Y-86499909D01*
X118598034Y-86511185D01*
X118649607Y-86524044D01*
X118700151Y-86535809D01*
X118764675Y-86551792D01*
X118814439Y-86567089D01*
X118852777Y-86583099D01*
X118883023Y-86601218D01*
X118908511Y-86622846D01*
X118909094Y-86623422D01*
X118942281Y-86668683D01*
X118961364Y-86723016D01*
X118965653Y-86783168D01*
X118955599Y-86842030D01*
X118931621Y-86894512D01*
X118893628Y-86941126D01*
X118845747Y-86977576D01*
X118808941Y-86994610D01*
X118764393Y-87005572D01*
X118710202Y-87012308D01*
X118653347Y-87014514D01*
X118600808Y-87011882D01*
X118563903Y-87005380D01*
X118530506Y-86995398D01*
X118499128Y-86984753D01*
X118488752Y-86980771D01*
X118467995Y-86973736D01*
X118455850Y-86976158D01*
X118444976Y-86988899D01*
X118427340Y-87006186D01*
X118411790Y-87005444D01*
X118399004Y-86986804D01*
X118396369Y-86979518D01*
X118381545Y-86930889D01*
X118368585Y-86883158D01*
X118358231Y-86839687D01*
X118351226Y-86803839D01*
X118348313Y-86778974D01*
X118349795Y-86768775D01*
X118360942Y-86770117D01*
X118382431Y-86784811D01*
X118413114Y-86812074D01*
X118413127Y-86812087D01*
X118475108Y-86862098D01*
X118539393Y-86895211D01*
X118608736Y-86912737D01*
X118629562Y-86915040D01*
X118693262Y-86915066D01*
X118744308Y-86903912D01*
X118781978Y-86882010D01*
X118805553Y-86849791D01*
X118814312Y-86807687D01*
X118814351Y-86804315D01*
X118811781Y-86775638D01*
X118801444Y-86755750D01*
X118787079Y-86741893D01*
X118776110Y-86732675D01*
X118766525Y-86725640D01*
X118755346Y-86719770D01*
X118739594Y-86714050D01*
X118716288Y-86707463D01*
X118682450Y-86698993D01*
X118635101Y-86687622D01*
X118611482Y-86681980D01*
X118554442Y-86667881D01*
X118511796Y-86655811D01*
X118480082Y-86644203D01*
X118455838Y-86631490D01*
X118435600Y-86616107D01*
X118415907Y-86596487D01*
X118411279Y-86591419D01*
X118377880Y-86542001D01*
X118361128Y-86487976D01*
X118361035Y-86432164D01*
X118377616Y-86377380D01*
X118410023Y-86327444D01*
X118447665Y-86291282D01*
X118491271Y-86265905D01*
X118545807Y-86248699D01*
X118568098Y-86244176D01*
X118644611Y-86238435D01*
X118717474Y-86248976D01*
G37*
G36*
X117168284Y-84870330D02*
G01*
X117252484Y-84870723D01*
X117319062Y-84871105D01*
X117716050Y-84873477D01*
X117745665Y-84959995D01*
X117758206Y-84997158D01*
X117768206Y-85027787D01*
X117774369Y-85047858D01*
X117775705Y-85053344D01*
X117770679Y-85060379D01*
X117755432Y-85055152D01*
X117732223Y-85038664D01*
X117721374Y-85029281D01*
X117690337Y-85007222D01*
X117652035Y-84991915D01*
X117603383Y-84982605D01*
X117541296Y-84978538D01*
X117512687Y-84978209D01*
X117467559Y-84979346D01*
X117438448Y-84982946D01*
X117423289Y-84989291D01*
X117421966Y-84990644D01*
X117419264Y-85000050D01*
X117417100Y-85021703D01*
X117415458Y-85056525D01*
X117414319Y-85105437D01*
X117413666Y-85169357D01*
X117413479Y-85249209D01*
X117413743Y-85345911D01*
X117414020Y-85398111D01*
X117416395Y-85793142D01*
X117450547Y-85815240D01*
X117472037Y-85830116D01*
X117483712Y-85841459D01*
X117484262Y-85849737D01*
X117472378Y-85855418D01*
X117446750Y-85858970D01*
X117406069Y-85860861D01*
X117349025Y-85861559D01*
X117320769Y-85861609D01*
X117261400Y-85861408D01*
X117217932Y-85860681D01*
X117188055Y-85859237D01*
X117169457Y-85856887D01*
X117159828Y-85853443D01*
X117156859Y-85848714D01*
X117156840Y-85848182D01*
X117164217Y-85835070D01*
X117182082Y-85821713D01*
X117183174Y-85821137D01*
X117205996Y-85801722D01*
X117219603Y-85778561D01*
X117222615Y-85760225D01*
X117225092Y-85723993D01*
X117227037Y-85669806D01*
X117228451Y-85597602D01*
X117229334Y-85507323D01*
X117229689Y-85398907D01*
X117229697Y-85378218D01*
X117229643Y-85285560D01*
X117229436Y-85209420D01*
X117229007Y-85148099D01*
X117228290Y-85099901D01*
X117227215Y-85063128D01*
X117225715Y-85036083D01*
X117223722Y-85017069D01*
X117221168Y-85004389D01*
X117217985Y-84996346D01*
X117214211Y-84991346D01*
X117205184Y-84984682D01*
X117191862Y-84980560D01*
X117170764Y-84978664D01*
X117138412Y-84978677D01*
X117092066Y-84980252D01*
X117044400Y-84982626D01*
X117010428Y-84985718D01*
X116985631Y-84990401D01*
X116965490Y-84997553D01*
X116945484Y-85008046D01*
X116943977Y-85008925D01*
X116918642Y-85025602D01*
X116899771Y-85041333D01*
X116894212Y-85048097D01*
X116880485Y-85058335D01*
X116871516Y-85057477D01*
X116865239Y-85052839D01*
X116863715Y-85043126D01*
X116867438Y-85024865D01*
X116876903Y-84994586D01*
X116883076Y-84976382D01*
X116895607Y-84940180D01*
X116906524Y-84909242D01*
X116914025Y-84888651D01*
X116915536Y-84884766D01*
X116918040Y-84880911D01*
X116923182Y-84877745D01*
X116932574Y-84875216D01*
X116947824Y-84873267D01*
X116970542Y-84871845D01*
X117002338Y-84870894D01*
X117044820Y-84870361D01*
X117099599Y-84870191D01*
X117168284Y-84870330D01*
G37*
G36*
X117293149Y-86018162D02*
G01*
X117318492Y-86018507D01*
X117383297Y-86019809D01*
X117431226Y-86021757D01*
X117463614Y-86024627D01*
X117481797Y-86028691D01*
X117487110Y-86034224D01*
X117480887Y-86041498D01*
X117467802Y-86049115D01*
X117445438Y-86063326D01*
X117430118Y-86075571D01*
X117425808Y-86079991D01*
X117422234Y-86085822D01*
X117419328Y-86094688D01*
X117417021Y-86108214D01*
X117415244Y-86128021D01*
X117413927Y-86155736D01*
X117413003Y-86192981D01*
X117412401Y-86241379D01*
X117412053Y-86302556D01*
X117411890Y-86378134D01*
X117411843Y-86469738D01*
X117411841Y-86505677D01*
X117412053Y-86620605D01*
X117412693Y-86717515D01*
X117413763Y-86796598D01*
X117415269Y-86858045D01*
X117417216Y-86902047D01*
X117419606Y-86928797D01*
X117421682Y-86937629D01*
X117436476Y-86953361D01*
X117459785Y-86967740D01*
X117463294Y-86969291D01*
X117485022Y-86979788D01*
X117493972Y-86988192D01*
X117489235Y-86994739D01*
X117469902Y-86999666D01*
X117435064Y-87003207D01*
X117383813Y-87005599D01*
X117317741Y-87007041D01*
X117258093Y-87007798D01*
X117214250Y-87007950D01*
X117183807Y-87007303D01*
X117164359Y-87005662D01*
X117153502Y-87002835D01*
X117148831Y-86998628D01*
X117147929Y-86993380D01*
X117155870Y-86978590D01*
X117175512Y-86964532D01*
X117177486Y-86963581D01*
X117201057Y-86947673D01*
X117217716Y-86927972D01*
X117218137Y-86927152D01*
X117220736Y-86912892D01*
X117223033Y-86882742D01*
X117225021Y-86839025D01*
X117226692Y-86784062D01*
X117228039Y-86720176D01*
X117229057Y-86649688D01*
X117229737Y-86574921D01*
X117230073Y-86498197D01*
X117230057Y-86421838D01*
X117229684Y-86348167D01*
X117228945Y-86279505D01*
X117227834Y-86218174D01*
X117226343Y-86166497D01*
X117224466Y-86126796D01*
X117222196Y-86101393D01*
X117220648Y-86093995D01*
X117204580Y-86072519D01*
X117179666Y-86056851D01*
X117158973Y-86044909D01*
X117148179Y-86032245D01*
X117147732Y-86029769D01*
X117149847Y-86024935D01*
X117157732Y-86021464D01*
X117173695Y-86019203D01*
X117200046Y-86018001D01*
X117239094Y-86017704D01*
X117293149Y-86018162D01*
G37*
G36*
X121295796Y-86252923D02*
G01*
X121321665Y-86253104D01*
X121358828Y-86253264D01*
X121403823Y-86253385D01*
X121421289Y-86253415D01*
X121551067Y-86253612D01*
X121593629Y-86351318D01*
X121635594Y-86447303D01*
X121670927Y-86527330D01*
X121700024Y-86592248D01*
X121723281Y-86642903D01*
X121741093Y-86680143D01*
X121753855Y-86704814D01*
X121761962Y-86717765D01*
X121765671Y-86720034D01*
X121771444Y-86709259D01*
X121783421Y-86683518D01*
X121800798Y-86644656D01*
X121822770Y-86594520D01*
X121848530Y-86534953D01*
X121877275Y-86467802D01*
X121908198Y-86394913D01*
X121926651Y-86351121D01*
X121967806Y-86253218D01*
X122103233Y-86253218D01*
X122156438Y-86253469D01*
X122193974Y-86254393D01*
X122218384Y-86256245D01*
X122232209Y-86259283D01*
X122237989Y-86263763D01*
X122238661Y-86266879D01*
X122231338Y-86278854D01*
X122224586Y-86280540D01*
X122208935Y-86286588D01*
X122189778Y-86301309D01*
X122188157Y-86302894D01*
X122165803Y-86325248D01*
X122165803Y-86927980D01*
X122188157Y-86950334D01*
X122207218Y-86965586D01*
X122223532Y-86972632D01*
X122224586Y-86972688D01*
X122236167Y-86980300D01*
X122238661Y-86990902D01*
X122237850Y-86997539D01*
X122233719Y-87002331D01*
X122223726Y-87005580D01*
X122205327Y-87007583D01*
X122175978Y-87008641D01*
X122133135Y-87009052D01*
X122083838Y-87009117D01*
X122027353Y-87009001D01*
X121986549Y-87008468D01*
X121958891Y-87007236D01*
X121941847Y-87005025D01*
X121932883Y-87001554D01*
X121929465Y-86996543D01*
X121929016Y-86991964D01*
X121936642Y-86975766D01*
X121946303Y-86970292D01*
X121959037Y-86965831D01*
X121969172Y-86958533D01*
X121977035Y-86946433D01*
X121982949Y-86927562D01*
X121987242Y-86899956D01*
X121990237Y-86861647D01*
X121992262Y-86810669D01*
X121993640Y-86745055D01*
X121994517Y-86678973D01*
X121995093Y-86614502D01*
X121995293Y-86556436D01*
X121995136Y-86507132D01*
X121994638Y-86468946D01*
X121993818Y-86444235D01*
X121992694Y-86435356D01*
X121992682Y-86435355D01*
X121987709Y-86443279D01*
X121976953Y-86465175D01*
X121961718Y-86498236D01*
X121943308Y-86539654D01*
X121930271Y-86569694D01*
X121883994Y-86676900D01*
X121844289Y-86767991D01*
X121810816Y-86843704D01*
X121783236Y-86904776D01*
X121761209Y-86951943D01*
X121744394Y-86985942D01*
X121732452Y-87007510D01*
X121725043Y-87017384D01*
X121723289Y-87018224D01*
X121713290Y-87010574D01*
X121701623Y-86991488D01*
X121698297Y-86984072D01*
X121687686Y-86959139D01*
X121671741Y-86922613D01*
X121651538Y-86876879D01*
X121628153Y-86824324D01*
X121602661Y-86767335D01*
X121576140Y-86708298D01*
X121549664Y-86649599D01*
X121524310Y-86593625D01*
X121501155Y-86542763D01*
X121481273Y-86499398D01*
X121465741Y-86465918D01*
X121455636Y-86444708D01*
X121452137Y-86438129D01*
X121450617Y-86445283D01*
X121449246Y-86468387D01*
X121448079Y-86505175D01*
X121447168Y-86553382D01*
X121446569Y-86610744D01*
X121446335Y-86674996D01*
X121446334Y-86680153D01*
X121446365Y-86753707D01*
X121446572Y-86811227D01*
X121447127Y-86854892D01*
X121448200Y-86886883D01*
X121449963Y-86909380D01*
X121452587Y-86924563D01*
X121456242Y-86934613D01*
X121461100Y-86941708D01*
X121467332Y-86948030D01*
X121467361Y-86948057D01*
X121488376Y-86966067D01*
X121506066Y-86978575D01*
X121519608Y-86989991D01*
X121516374Y-86998504D01*
X121496063Y-87004188D01*
X121458378Y-87007118D01*
X121403017Y-87007368D01*
X121391054Y-87007132D01*
X121342410Y-87005642D01*
X121309246Y-87003519D01*
X121288829Y-87000381D01*
X121278428Y-86995845D01*
X121275471Y-86990902D01*
X121281169Y-86977787D01*
X121299010Y-86965712D01*
X121311374Y-86959544D01*
X121321367Y-86951827D01*
X121329240Y-86940694D01*
X121335245Y-86924282D01*
X121339634Y-86900724D01*
X121342659Y-86868156D01*
X121344572Y-86824714D01*
X121345624Y-86768531D01*
X121346067Y-86697744D01*
X121346155Y-86616664D01*
X121346155Y-86325248D01*
X121323801Y-86302894D01*
X121304528Y-86287622D01*
X121287764Y-86280592D01*
X121286704Y-86280540D01*
X121275387Y-86273881D01*
X121274906Y-86266398D01*
X121281062Y-86254233D01*
X121284681Y-86252737D01*
X121295796Y-86252923D01*
G37*
%TD*%
D12*
%TO.C,TP4*%
X144170400Y-90525600D03*
%TD*%
%TO.C,TP3*%
X155702000Y-108102400D03*
%TD*%
%TO.C,TP2*%
X154584400Y-94183200D03*
%TD*%
%TO.C,TP1*%
X145669000Y-85471000D03*
%TD*%
D13*
%TO.C,C3*%
X150810000Y-87630000D03*
X148910000Y-87630000D03*
%TD*%
%TO.C,C2*%
X147381000Y-87630000D03*
X145481000Y-87630000D03*
%TD*%
D14*
%TO.C,U5*%
X155838500Y-98945000D03*
X155838500Y-99445000D03*
X155838500Y-99945000D03*
X155838500Y-100445000D03*
X158613500Y-100445000D03*
X158613500Y-99945000D03*
X158613500Y-99445000D03*
X158613500Y-98945000D03*
D15*
X157226000Y-99695000D03*
%TD*%
D14*
%TO.C,U8*%
X155838500Y-113931000D03*
X155838500Y-114431000D03*
X155838500Y-114931000D03*
X155838500Y-115431000D03*
X158613500Y-115431000D03*
X158613500Y-114931000D03*
X158613500Y-114431000D03*
X158613500Y-113931000D03*
D15*
X157226000Y-114681000D03*
%TD*%
D16*
%TO.C,H1*%
X116789200Y-79123000D03*
D17*
X116789200Y-79123000D03*
%TD*%
D18*
%TO.C,C57*%
X158701800Y-112193800D03*
X159661800Y-112193800D03*
%TD*%
D19*
%TO.C,R18*%
X131380896Y-95373000D03*
X131380896Y-96393000D03*
%TD*%
D20*
%TO.C,C38*%
X157671610Y-112202319D03*
X156711610Y-112202319D03*
%TD*%
D21*
%TO.C,R37*%
X131888896Y-111128999D03*
X131888896Y-110108999D03*
%TD*%
D18*
%TO.C,C63*%
X126748600Y-78689200D03*
X127708600Y-78689200D03*
%TD*%
D22*
%TO.C,C7*%
X133998396Y-90043000D03*
X138923396Y-90043000D03*
%TD*%
D23*
%TO.C,U4*%
X131114896Y-90943499D03*
X130614896Y-90943499D03*
X130114896Y-90943499D03*
X129614896Y-90943499D03*
X129614896Y-93718499D03*
X130114896Y-93718499D03*
X130614896Y-93718499D03*
X131114896Y-93718499D03*
D24*
X130364896Y-92330999D03*
%TD*%
D14*
%TO.C,U3*%
X156473500Y-89905737D03*
X156473500Y-90405737D03*
X156473500Y-90905737D03*
X156473500Y-91405737D03*
X159248500Y-91405737D03*
X159248500Y-90905737D03*
X159248500Y-90405737D03*
X159248500Y-89905737D03*
D15*
X157861000Y-90655737D03*
%TD*%
D25*
%TO.C,C20*%
X166043835Y-96901000D03*
X163093835Y-96901000D03*
%TD*%
D22*
%TO.C,C21*%
X118758396Y-101853999D03*
X123683396Y-101853999D03*
%TD*%
D18*
%TO.C,C43*%
X159159000Y-117094000D03*
X160119000Y-117094000D03*
%TD*%
D25*
%TO.C,C23*%
X166043835Y-99314000D03*
X163093835Y-99314000D03*
%TD*%
D26*
%TO.C,C60*%
X157222200Y-95656400D03*
X159922200Y-95656400D03*
%TD*%
D27*
%TO.C,R22*%
X154677610Y-96268000D03*
X155697610Y-96268000D03*
%TD*%
D17*
%TO.C,H3*%
X174747228Y-79044800D03*
D16*
X174747228Y-79044800D03*
%TD*%
D22*
%TO.C,C18*%
X118758396Y-98043999D03*
X123683396Y-98043999D03*
%TD*%
D21*
%TO.C,R25*%
X131888896Y-100198999D03*
X131888896Y-99178999D03*
%TD*%
%TO.C,R4*%
X130876896Y-78615000D03*
X130876896Y-77595000D03*
%TD*%
D26*
%TO.C,C74*%
X153209000Y-104013000D03*
X155909000Y-104013000D03*
%TD*%
D22*
%TO.C,C1*%
X133998396Y-79375000D03*
X138923396Y-79375000D03*
%TD*%
D28*
%TO.C,C73*%
X150727400Y-93573600D03*
X148027400Y-93573600D03*
%TD*%
D21*
%TO.C,R24*%
X130872896Y-100198999D03*
X130872896Y-99178999D03*
%TD*%
D25*
%TO.C,C5*%
X166043835Y-78699030D03*
X163093835Y-78699030D03*
%TD*%
D23*
%TO.C,U7*%
X131114896Y-112787499D03*
X130614896Y-112787499D03*
X130114896Y-112787499D03*
X129614896Y-112787499D03*
X129614896Y-115562499D03*
X130114896Y-115562499D03*
X130614896Y-115562499D03*
X131114896Y-115562499D03*
D24*
X130364896Y-114174999D03*
%TD*%
D19*
%TO.C,R31*%
X141032896Y-112137001D03*
X141032896Y-113157001D03*
%TD*%
D22*
%TO.C,C36*%
X133998396Y-105537000D03*
X138923396Y-105537000D03*
%TD*%
D29*
%TO.C,R29*%
X126836296Y-96646999D03*
X125816296Y-96646999D03*
%TD*%
D22*
%TO.C,C24*%
X118758396Y-105663999D03*
X123683396Y-105663999D03*
%TD*%
D21*
%TO.C,R1*%
X146177000Y-90530737D03*
X146177000Y-89510737D03*
%TD*%
%TO.C,R13*%
X130876896Y-89284999D03*
X130876896Y-88264999D03*
%TD*%
D22*
%TO.C,C49*%
X133998396Y-116458999D03*
X138923396Y-116458999D03*
%TD*%
D25*
%TO.C,C9*%
X166043835Y-85938030D03*
X163093835Y-85938030D03*
%TD*%
D29*
%TO.C,R20*%
X158167800Y-102108000D03*
X157147800Y-102108000D03*
%TD*%
D30*
%TO.C,C64*%
X128844896Y-88294999D03*
X128844896Y-89254999D03*
%TD*%
D17*
%TO.C,H4*%
X174747228Y-116990259D03*
D16*
X174747228Y-116990259D03*
%TD*%
D19*
%TO.C,R30*%
X131380896Y-106294999D03*
X131380896Y-107314999D03*
%TD*%
%TO.C,R28*%
X130364896Y-106294999D03*
X130364896Y-107314999D03*
%TD*%
%TO.C,R21*%
X141032896Y-101217000D03*
X141032896Y-102237000D03*
%TD*%
D26*
%TO.C,C58*%
X134094896Y-86869999D03*
X136794896Y-86869999D03*
%TD*%
D22*
%TO.C,C39*%
X133998396Y-111887000D03*
X138923396Y-111887000D03*
%TD*%
D19*
%TO.C,R40*%
X167790165Y-118274112D03*
X167790165Y-119294112D03*
%TD*%
%TO.C,R41*%
X131380896Y-117216999D03*
X131380896Y-118236999D03*
%TD*%
D31*
%TO.C,RV1*%
X154295000Y-85933478D03*
X156835000Y-85933478D03*
X159375000Y-85933478D03*
%TD*%
D30*
%TO.C,C67*%
X146177000Y-91468000D03*
X146177000Y-92428000D03*
%TD*%
D18*
%TO.C,C56*%
X158600200Y-97284000D03*
X159560200Y-97284000D03*
%TD*%
D23*
%TO.C,U1*%
X131114896Y-80275499D03*
X130614896Y-80275499D03*
X130114896Y-80275499D03*
X129614896Y-80275499D03*
X129614896Y-83050499D03*
X130114896Y-83050499D03*
X130614896Y-83050499D03*
X131114896Y-83050499D03*
D24*
X130364896Y-81662999D03*
%TD*%
D21*
%TO.C,R2*%
X154559000Y-90530737D03*
X154559000Y-89510737D03*
%TD*%
D27*
%TO.C,R35*%
X154700410Y-111186319D03*
X155720410Y-111186319D03*
%TD*%
%TO.C,R6*%
X152525000Y-90528737D03*
X153545000Y-90528737D03*
%TD*%
D19*
%TO.C,R3*%
X141032896Y-79628999D03*
X141032896Y-80648999D03*
%TD*%
D26*
%TO.C,C59*%
X134094896Y-108688599D03*
X136794896Y-108688599D03*
%TD*%
D32*
%TO.C,J3*%
X171677200Y-98264886D03*
X174677200Y-98264886D03*
D33*
X173177200Y-96789886D03*
X173177200Y-99739886D03*
%TD*%
D20*
%TO.C,C45*%
X152682000Y-115951000D03*
X153642000Y-115951000D03*
%TD*%
D25*
%TO.C,C6*%
X166043835Y-81112030D03*
X163093835Y-81112030D03*
%TD*%
D22*
%TO.C,C14*%
X118758396Y-90423999D03*
X123683396Y-90423999D03*
%TD*%
D34*
%TO.C,C62*%
X159181800Y-110648200D03*
X159181800Y-107948200D03*
%TD*%
D21*
%TO.C,R9*%
X141032896Y-83441000D03*
X141032896Y-82421000D03*
%TD*%
D25*
%TO.C,C44*%
X166067000Y-118532111D03*
X163117000Y-118532111D03*
%TD*%
D21*
%TO.C,R27*%
X141032896Y-105286999D03*
X141032896Y-104266999D03*
%TD*%
D29*
%TO.C,R23*%
X153649200Y-99974400D03*
X152629200Y-99974400D03*
%TD*%
D27*
%TO.C,R5*%
X152525000Y-89535000D03*
X153545000Y-89535000D03*
%TD*%
D25*
%TO.C,C26*%
X166043835Y-101727000D03*
X163093835Y-101727000D03*
%TD*%
D19*
%TO.C,R12*%
X141032896Y-90295000D03*
X141032896Y-91315000D03*
%TD*%
D14*
%TO.C,U2*%
X147964500Y-89778737D03*
X147964500Y-90278737D03*
X147964500Y-90778737D03*
X147964500Y-91278737D03*
X150739500Y-91278737D03*
X150739500Y-90778737D03*
X150739500Y-90278737D03*
X150739500Y-89778737D03*
D15*
X149352000Y-90528737D03*
%TD*%
D20*
%TO.C,C40*%
X152682000Y-113523119D03*
X153642000Y-113523119D03*
%TD*%
D18*
%TO.C,C69*%
X152682000Y-102006400D03*
X153642000Y-102006400D03*
%TD*%
D22*
%TO.C,C4*%
X133998396Y-83692999D03*
X138923396Y-83692999D03*
%TD*%
D18*
%TO.C,C70*%
X153650990Y-116958481D03*
X152690990Y-116958481D03*
%TD*%
D34*
%TO.C,C72*%
X127240696Y-115548399D03*
X127240696Y-112848399D03*
%TD*%
D21*
%TO.C,R7*%
X131892896Y-78616999D03*
X131892896Y-77596999D03*
%TD*%
D25*
%TO.C,C42*%
X166067000Y-116119111D03*
X163117000Y-116119111D03*
%TD*%
D18*
%TO.C,C25*%
X159159000Y-102108000D03*
X160119000Y-102108000D03*
%TD*%
D19*
%TO.C,R8*%
X152527000Y-91669737D03*
X152527000Y-92689737D03*
%TD*%
%TO.C,R11*%
X131380896Y-84732399D03*
X131380896Y-85752399D03*
%TD*%
D29*
%TO.C,R19*%
X155697610Y-97284000D03*
X154677610Y-97284000D03*
%TD*%
D21*
%TO.C,R38*%
X141032896Y-115953000D03*
X141032896Y-114933000D03*
%TD*%
D29*
%TO.C,R34*%
X158117000Y-117094000D03*
X157097000Y-117094000D03*
%TD*%
D20*
%TO.C,C28*%
X153642000Y-100990400D03*
X152682000Y-100990400D03*
%TD*%
D30*
%TO.C,C66*%
X128840896Y-110138999D03*
X128840896Y-111098999D03*
%TD*%
D17*
%TO.C,H2*%
X116789200Y-116842000D03*
D16*
X116789200Y-116842000D03*
%TD*%
D30*
%TO.C,C68*%
X154559000Y-91671200D03*
X154559000Y-92631200D03*
%TD*%
D19*
%TO.C,R26*%
X167767000Y-101471000D03*
X167767000Y-102491000D03*
%TD*%
D21*
%TO.C,R15*%
X141032896Y-94363000D03*
X141032896Y-93343000D03*
%TD*%
D34*
%TO.C,C71*%
X127189896Y-83036399D03*
X127189896Y-80336399D03*
%TD*%
D22*
%TO.C,C22*%
X133998396Y-100965000D03*
X138923396Y-100965000D03*
%TD*%
D21*
%TO.C,R32*%
X130872896Y-111128999D03*
X130872896Y-110108999D03*
%TD*%
D25*
%TO.C,C8*%
X166043835Y-83525030D03*
X163093835Y-83525030D03*
%TD*%
D32*
%TO.C,J4*%
X114758600Y-97891600D03*
X111758600Y-97891600D03*
D33*
X113258600Y-99366600D03*
X113258600Y-96416600D03*
%TD*%
D21*
%TO.C,R14*%
X131892896Y-89283000D03*
X131892896Y-88263000D03*
%TD*%
D20*
%TO.C,C17*%
X157648810Y-97284000D03*
X156688810Y-97284000D03*
%TD*%
D25*
%TO.C,C41*%
X166067000Y-113706111D03*
X163117000Y-113706111D03*
%TD*%
%TO.C,C16*%
X166043835Y-94488000D03*
X163093835Y-94488000D03*
%TD*%
D22*
%TO.C,C15*%
X118758396Y-94233999D03*
X123683396Y-94233999D03*
%TD*%
D32*
%TO.C,J5*%
X171677200Y-108451382D03*
D33*
X173177200Y-109926382D03*
D32*
X174677200Y-108451382D03*
D33*
X173177200Y-106976382D03*
%TD*%
D20*
%TO.C,C19*%
X153619200Y-98552000D03*
X152659200Y-98552000D03*
%TD*%
D29*
%TO.C,R36*%
X152653999Y-114935000D03*
X153673999Y-114935000D03*
%TD*%
D19*
%TO.C,R10*%
X130364896Y-84732399D03*
X130364896Y-85752399D03*
%TD*%
D29*
%TO.C,R33*%
X155720410Y-112202319D03*
X154700410Y-112202319D03*
%TD*%
D23*
%TO.C,U6*%
X131114896Y-101865499D03*
X130614896Y-101865499D03*
X130114896Y-101865499D03*
X129614896Y-101865499D03*
X129614896Y-104640499D03*
X130114896Y-104640499D03*
X130614896Y-104640499D03*
X131114896Y-104640499D03*
D24*
X130364896Y-103252999D03*
%TD*%
D26*
%TO.C,C75*%
X153209000Y-119126000D03*
X155909000Y-119126000D03*
%TD*%
D25*
%TO.C,C37*%
X166067000Y-111252000D03*
X163117000Y-111252000D03*
%TD*%
D30*
%TO.C,C65*%
X128840896Y-99238999D03*
X128840896Y-100198999D03*
%TD*%
D35*
%TO.C,J1*%
X151471000Y-79392000D03*
D36*
X148971000Y-79392000D03*
X146471000Y-79392000D03*
%TD*%
D19*
%TO.C,R39*%
X130364896Y-117216999D03*
X130364896Y-118236999D03*
%TD*%
D32*
%TO.C,J2*%
X171677200Y-88078390D03*
D33*
X173177200Y-89553390D03*
X173177200Y-86603390D03*
D32*
X174677200Y-88078390D03*
%TD*%
D19*
%TO.C,R16*%
X167767000Y-85682030D03*
X167767000Y-86702030D03*
%TD*%
D22*
%TO.C,C13*%
X133998396Y-94615000D03*
X138923396Y-94615000D03*
%TD*%
D19*
%TO.C,R17*%
X130364896Y-95374999D03*
X130364896Y-96394999D03*
%TD*%
D26*
%TO.C,C61*%
X163216600Y-88341200D03*
X165916600Y-88341200D03*
%TD*%
M02*
