M48
; DRILL file {KiCad (6.0.2)} date Fri May  6 23:20:50 2022
; FORMAT={-:-/ absolute / inch / decimal}
; #@! TF.CreationDate,2022-05-06T23:20:50+08:00
; #@! TF.GenerationSoftware,Kicad,Pcbnew,(6.0.2)
; #@! TF.FileFunction,Plated,1,4,PTH
FMAT,2
INCH
; #@! TA.AperFunction,Plated,PTH,ViaDrill
T1C0.0119
; #@! TA.AperFunction,Plated,PTH,ViaDrill
T2C0.0157
; #@! TA.AperFunction,Plated,PTH,ComponentDrill
T3C0.0315
; #@! TA.AperFunction,Plated,PTH,ComponentDrill
T4C0.0374
; #@! TA.AperFunction,Plated,PTH,ComponentDrill
T5C0.1260
%
G90
G05
T1
X4.3999Y-3.796
X4.3999Y-3.854
X4.3999Y-3.912
X4.459Y-3.7959
X4.459Y-3.9121
X4.5109Y-3.9121
X4.5121Y-3.7959
X4.5519Y-3.9121
X4.5521Y-3.7959
X4.5895Y-3.5
X4.5895Y-3.54
X4.5895Y-3.58
X4.5895Y-3.62
X4.5895Y-3.66
X4.5895Y-3.7
X4.5895Y-3.74
X4.5895Y-3.78
X4.5895Y-3.93
X4.5895Y-3.97
X4.5895Y-4.01
X4.5895Y-4.05
X4.5895Y-4.09
X4.5895Y-4.13
X4.5895Y-4.17
X4.5895Y-4.21
X4.5945Y-4.245
X4.6245Y-3.465
X4.6345Y-4.255
X4.6645Y-3.465
X4.6745Y-4.255
X4.7045Y-3.465
X4.7145Y-4.255
X4.7445Y-3.465
X4.7545Y-4.255
X4.7845Y-3.465
X4.7945Y-4.255
X4.8245Y-3.465
X4.8345Y-4.255
X4.8645Y-3.465
X4.8745Y-4.255
X4.9045Y-3.465
X4.9145Y-4.255
X4.945Y-3.4745
X4.952Y-4.238
X4.9545Y-3.515
X4.9545Y-3.555
X4.9545Y-3.595
X4.9545Y-3.635
X4.9545Y-3.675
X4.9545Y-3.715
X4.9545Y-3.755
X4.9545Y-3.8635
X4.9545Y-3.915
X4.9545Y-3.955
X4.9545Y-3.995
X4.9545Y-4.035
X4.9545Y-4.075
X4.9545Y-4.115
X4.9545Y-4.155
X4.9545Y-4.195
X4.965Y-3.11
X4.966Y-3.269
X4.9731Y-4.5491
X5.0075Y-3.3065
X5.0095Y-4.5115
X5.0095Y-4.5895
X5.0412Y-4.3362
X5.0422Y-3.4762
X5.045Y-3.907
X5.046Y-3.269
X5.0469Y-4.5491
X5.0645Y-3.12
X5.0645Y-3.16
X5.0645Y-3.545
X5.0645Y-3.58
X5.0645Y-3.98
X5.0645Y-4.015
X5.0645Y-4.41
X5.0645Y-4.445
X5.0725Y-3.8825
X5.0725Y-4.3115
X5.0726Y-3.4514
X5.105Y-4.655
X5.111Y-4.495
X5.113Y-3.214
X5.113Y-3.634
X5.113Y-4.064
X5.1325Y-3.4005
X5.1325Y-4.2515
X5.1325Y-4.6805
X5.136Y-3.821
X5.141Y-4.279
X5.15Y-3.214
X5.151Y-4.064
X5.152Y-4.495
X5.1525Y-3.8835
X5.1526Y-3.0314
X5.1526Y-3.4234
X5.1526Y-3.4524
X5.153Y-3.635
X5.153Y-3.851
X5.153Y-4.306
X5.1985Y-4.54
X5.1995Y-3.259
X5.1995Y-3.681
X5.1995Y-4.11
X5.2295Y-3.405
X5.2295Y-3.435
X5.2295Y-4.265
X5.2295Y-4.295
X5.262Y-3.217
X5.262Y-4.502
X5.268Y-4.066
X5.269Y-3.645
X5.3856Y-3.3776
X5.3856Y-3.4566
X5.3856Y-4.2304
X5.3856Y-4.3246
X5.4299Y-3.4201
X5.4379Y-4.2791
X5.784Y-3.639
X5.826Y-3.639
X5.9346Y-3.6204
X5.935Y-3.495
X5.985Y-4.69
X5.988Y-4.565
X5.99Y-3.976
X5.99Y-4.096
X6.005Y-3.717
X6.0111Y-3.9969
X6.0111Y-4.5849
X6.0115Y-4.6485
X6.015Y-3.335
X6.032Y-4.136
X6.07Y-4.69
X6.071Y-4.095
X6.114Y-3.647
X6.1185Y-3.5965
X6.15Y-3.865
X6.15Y-4.02
X6.15Y-4.455
X6.15Y-4.61
X6.155Y-3.647
X6.193Y-3.472
X6.224Y-4.338
X6.224Y-4.37
X6.2251Y-3.443
X6.243Y-3.762
X6.243Y-3.795
X6.244Y-3.88
X6.244Y-4.47
X6.267Y-4.205
X6.301Y-3.471
X6.301Y-3.501
X6.304Y-3.993
X6.304Y-4.05
X6.304Y-4.58
X6.304Y-4.637
X6.31Y-4.25
X6.311Y-4.417
X6.336Y-4.61
X6.338Y-4.02
X6.34Y-3.612
X6.404Y-3.1464
X6.404Y-3.2404
X6.404Y-3.3364
X6.404Y-3.768
X6.404Y-3.862
X6.404Y-3.958
X6.404Y-4.428
X6.406Y-4.524
X6.406Y-4.618
X6.434Y-3.1464
X6.434Y-3.2404
X6.434Y-3.3364
X6.434Y-3.768
X6.434Y-3.862
X6.434Y-3.958
X6.434Y-4.428
X6.436Y-4.524
X6.436Y-4.618
X6.522Y-3.1464
X6.522Y-3.2404
X6.522Y-3.3364
X6.524Y-3.768
X6.524Y-3.862
X6.524Y-3.958
X6.524Y-4.428
X6.524Y-4.524
X6.524Y-4.618
X6.554Y-3.1464
X6.554Y-3.2404
X6.554Y-3.3364
X6.554Y-3.768
X6.554Y-3.862
X6.554Y-3.958
X6.554Y-4.428
X6.554Y-4.524
X6.554Y-4.618
T2
X4.6395Y-3.635
X4.6395Y-3.785
X4.6395Y-3.935
X4.6395Y-4.085
X4.6775Y-3.635
X4.6775Y-3.785
X4.6775Y-3.935
X4.6775Y-4.085
X4.7145Y-3.635
X4.7145Y-3.785
X4.7145Y-3.935
X4.7145Y-4.085
X4.8345Y-3.635
X4.8345Y-3.785
X4.8345Y-3.935
X4.8345Y-4.085
X4.8695Y-3.635
X4.8695Y-3.785
X4.8695Y-3.935
X4.8695Y-4.085
X4.9045Y-3.635
X4.9045Y-3.785
X4.9045Y-3.935
X4.9045Y-4.085
X5.719Y-3.613
X5.934Y-3.728
X5.995Y-3.474
X6.108Y-3.986
X6.108Y-4.03
X6.108Y-4.574
X6.108Y-4.618
X6.146Y-4.06
X6.146Y-4.65
X6.19Y-3.904
X6.19Y-3.946
X6.19Y-4.494
X6.1907Y-4.5362
X6.318Y-3.83
X6.342Y-3.766
X6.605Y-3.443
X6.605Y-3.48
X6.605Y-4.067
X6.606Y-4.728
X6.6436Y-4.6966
X6.647Y-4.035
X6.796Y-3.41
X6.796Y-3.526
X6.796Y-3.81
X6.796Y-3.926
X6.796Y-4.212
X6.796Y-4.328
X6.84Y-3.41
X6.84Y-3.526
X6.84Y-3.81
X6.84Y-3.926
X6.84Y-4.212
X6.84Y-4.328
X6.878Y-3.468
X6.878Y-3.868
X6.878Y-4.27
T3
X6.0746Y-3.3832
X6.1746Y-3.3832
X6.2746Y-3.3832
T4
X5.7666Y-3.1257
X5.865Y-3.1257
X5.9634Y-3.1257
T5
X4.598Y-3.1151
X4.598Y-4.6001
X6.8798Y-3.112
X6.8798Y-4.6059
T0
M30
