%TF.GenerationSoftware,KiCad,Pcbnew,(6.0.2)*%
%TF.CreationDate,2022-05-06T23:20:48+08:00*%
%TF.ProjectId,NoiseAMP_V2.3,4e6f6973-6541-44d5-905f-56322e332e6b,rev?*%
%TF.SameCoordinates,Original*%
%TF.FileFunction,Legend,Top*%
%TF.FilePolarity,Positive*%
%FSLAX46Y46*%
G04 Gerber Fmt 4.6, Leading zero omitted, Abs format (unit mm)*
G04 Created by KiCad (PCBNEW (6.0.2)) date 2022-05-06 23:20:48*
%MOMM*%
%LPD*%
G01*
G04 APERTURE LIST*
%ADD10C,0.120000*%
G04 APERTURE END LIST*
%TO.C,kibuzzard-62753A96*%
G36*
X113733686Y-101623072D02*
G01*
X113673890Y-101714300D01*
X113589329Y-101777800D01*
X113479157Y-101815900D01*
X113343372Y-101828600D01*
X113232882Y-101819075D01*
X113232882Y-102295325D01*
X113019522Y-102295325D01*
X113019522Y-101651435D01*
X113232882Y-101651435D01*
X113343372Y-101664770D01*
X113446004Y-101646911D01*
X113517680Y-101593332D01*
X113559828Y-101496892D01*
X113573878Y-101350445D01*
X113559828Y-101214237D01*
X113517680Y-101121845D01*
X113446004Y-101068981D01*
X113343372Y-101051360D01*
X113232882Y-101066600D01*
X113232882Y-101651435D01*
X113019522Y-101651435D01*
X113019522Y-100923725D01*
X113125779Y-100902558D01*
X113233729Y-100889858D01*
X113343372Y-100885625D01*
X113482014Y-100897796D01*
X113593139Y-100934308D01*
X113676748Y-100995162D01*
X113734956Y-101083322D01*
X113769881Y-101201749D01*
X113781523Y-101350445D01*
X113769563Y-101501787D01*
X113733686Y-101623072D01*
G37*
G36*
X114164428Y-101895275D02*
G01*
X114173953Y-102018624D01*
X114202528Y-102095300D01*
X114254439Y-102135305D01*
X114333973Y-102148640D01*
X114465418Y-102096253D01*
X114493993Y-102019814D01*
X114503518Y-101895275D01*
X114503518Y-100904675D01*
X114711163Y-100904675D01*
X114711163Y-101933375D01*
X114701320Y-102057412D01*
X114671793Y-102155202D01*
X114622580Y-102226745D01*
X114550719Y-102275428D01*
X114453247Y-102304638D01*
X114330163Y-102314375D01*
X114207078Y-102304638D01*
X114109606Y-102275428D01*
X114037745Y-102226745D01*
X113988533Y-102155202D01*
X113959005Y-102057412D01*
X113949163Y-101933375D01*
X113949163Y-100904675D01*
X114164428Y-100904675D01*
X114164428Y-101895275D01*
G37*
G36*
X115673188Y-101070410D02*
G01*
X115389343Y-101070410D01*
X115389343Y-102295325D01*
X115175983Y-102295325D01*
X115175983Y-101070410D01*
X114892138Y-101070410D01*
X114892138Y-100904675D01*
X115673188Y-100904675D01*
X115673188Y-101070410D01*
G37*
G36*
X112581372Y-101914325D02*
G01*
X112587087Y-101914325D01*
X112587087Y-100904675D01*
X112787112Y-100904675D01*
X112787112Y-102295325D01*
X112573752Y-102295325D01*
X112276572Y-101285675D01*
X112272762Y-101285675D01*
X112272762Y-102295325D01*
X112063212Y-102295325D01*
X112063212Y-100904675D01*
X112284192Y-100904675D01*
X112581372Y-101914325D01*
G37*
G36*
X111796512Y-101070410D02*
G01*
X111583152Y-101070410D01*
X111583152Y-102129590D01*
X111796512Y-102129590D01*
X111796512Y-102295325D01*
X111148812Y-102295325D01*
X111148812Y-102129590D01*
X111362173Y-102129590D01*
X111362173Y-101070410D01*
X111148812Y-101070410D01*
X111148812Y-100904675D01*
X111796512Y-100904675D01*
X111796512Y-101070410D01*
G37*
%TO.C,kibuzzard-62753A7A*%
G36*
X145596107Y-117845946D02*
G01*
X145614760Y-118025730D01*
X145620978Y-118237000D01*
X145614760Y-118448270D01*
X145596107Y-118628054D01*
X145565019Y-118776353D01*
X145498046Y-118944827D01*
X145409047Y-119052578D01*
X145292961Y-119110621D01*
X145144728Y-119129969D01*
X144996495Y-119110621D01*
X144880409Y-119052578D01*
X144791410Y-118944827D01*
X144724437Y-118776353D01*
X144711209Y-118713250D01*
X144951847Y-118713250D01*
X145025666Y-118881128D01*
X145144728Y-118929944D01*
X145269744Y-118875175D01*
X145311713Y-118795403D01*
X145344753Y-118665625D01*
X145360628Y-118549208D01*
X145370153Y-118406333D01*
X145373328Y-118237000D01*
X145371542Y-118107817D01*
X145366184Y-117996494D01*
X144951847Y-118713250D01*
X144711209Y-118713250D01*
X144693349Y-118628054D01*
X144674696Y-118448270D01*
X144668478Y-118237000D01*
X144916128Y-118237000D01*
X144920891Y-118434644D01*
X145328084Y-117727412D01*
X145256647Y-117585728D01*
X145144728Y-117544056D01*
X145019712Y-117598825D01*
X144977743Y-117678597D01*
X144944703Y-117808375D01*
X144928828Y-117924792D01*
X144919303Y-118067667D01*
X144916128Y-118237000D01*
X144668478Y-118237000D01*
X144674696Y-118025730D01*
X144693349Y-117845946D01*
X144724437Y-117697647D01*
X144791410Y-117529173D01*
X144880409Y-117421422D01*
X144996495Y-117363379D01*
X145144728Y-117344031D01*
X145292961Y-117363379D01*
X145409047Y-117421422D01*
X145498046Y-117529173D01*
X145565019Y-117697647D01*
X145596107Y-117845946D01*
G37*
G36*
X146511268Y-117373499D02*
G01*
X146643725Y-117461903D01*
X146724985Y-117607457D01*
X146752072Y-117808375D01*
X146737123Y-117959187D01*
X146692276Y-118119525D01*
X146617531Y-118289388D01*
X146539917Y-118425416D01*
X146441616Y-118571566D01*
X146322628Y-118727835D01*
X146182953Y-118894225D01*
X146182953Y-118898988D01*
X146763978Y-118898988D01*
X146763978Y-119106156D01*
X145906728Y-119106156D01*
X145906728Y-118898988D01*
X146059614Y-118721268D01*
X146188979Y-118551422D01*
X146294823Y-118389449D01*
X146377146Y-118235348D01*
X146435949Y-118089120D01*
X146471230Y-117950764D01*
X146482991Y-117820281D01*
X146470191Y-117698837D01*
X146431794Y-117615494D01*
X146275822Y-117551200D01*
X146163903Y-117566810D01*
X146040872Y-117613642D01*
X145906728Y-117691694D01*
X145906728Y-117467856D01*
X146038491Y-117399065D01*
X146179778Y-117357790D01*
X146330591Y-117344031D01*
X146511268Y-117373499D01*
G37*
G36*
X147701893Y-117373499D02*
G01*
X147834350Y-117461903D01*
X147915610Y-117607457D01*
X147942697Y-117808375D01*
X147927748Y-117959187D01*
X147882901Y-118119525D01*
X147808156Y-118289388D01*
X147730542Y-118425416D01*
X147632241Y-118571566D01*
X147513253Y-118727835D01*
X147373578Y-118894225D01*
X147373578Y-118898988D01*
X147954603Y-118898988D01*
X147954603Y-119106156D01*
X147097353Y-119106156D01*
X147097353Y-118898988D01*
X147250239Y-118721268D01*
X147379604Y-118551422D01*
X147485448Y-118389449D01*
X147567771Y-118235348D01*
X147626574Y-118089120D01*
X147661855Y-117950764D01*
X147673616Y-117820281D01*
X147660816Y-117698837D01*
X147622419Y-117615494D01*
X147466447Y-117551200D01*
X147354528Y-117566810D01*
X147231497Y-117613642D01*
X147097353Y-117691694D01*
X147097353Y-117467856D01*
X147229116Y-117399065D01*
X147370403Y-117357790D01*
X147521216Y-117344031D01*
X147701893Y-117373499D01*
G37*
G36*
X144130018Y-117373499D02*
G01*
X144262475Y-117461903D01*
X144343735Y-117607457D01*
X144370822Y-117808375D01*
X144355873Y-117959187D01*
X144311026Y-118119525D01*
X144236281Y-118289388D01*
X144158667Y-118425416D01*
X144060366Y-118571566D01*
X143941378Y-118727835D01*
X143801703Y-118894225D01*
X143801703Y-118898988D01*
X144382728Y-118898988D01*
X144382728Y-119106156D01*
X143525478Y-119106156D01*
X143525478Y-118898988D01*
X143678364Y-118721268D01*
X143807729Y-118551422D01*
X143913573Y-118389449D01*
X143995896Y-118235348D01*
X144054699Y-118089120D01*
X144089980Y-117950764D01*
X144101741Y-117820281D01*
X144088941Y-117698837D01*
X144050544Y-117615494D01*
X143894572Y-117551200D01*
X143782653Y-117566810D01*
X143659622Y-117613642D01*
X143525478Y-117691694D01*
X143525478Y-117467856D01*
X143657241Y-117399065D01*
X143798528Y-117357790D01*
X143949341Y-117344031D01*
X144130018Y-117373499D01*
G37*
G36*
X150304897Y-117572631D02*
G01*
X149773878Y-117572631D01*
X149757209Y-118053644D01*
X149761972Y-118053644D01*
X149858413Y-118008995D01*
X149971522Y-117994112D01*
X150108682Y-118016496D01*
X150215362Y-118083647D01*
X150291562Y-118195566D01*
X150337282Y-118352253D01*
X150352522Y-118553706D01*
X150338764Y-118740502D01*
X150297489Y-118888140D01*
X150228697Y-118996619D01*
X150130007Y-119070702D01*
X149999039Y-119115152D01*
X149835791Y-119129969D01*
X149658983Y-119112109D01*
X149495272Y-119058531D01*
X149495272Y-118832313D01*
X149657792Y-118900178D01*
X149816741Y-118922800D01*
X149938184Y-118902262D01*
X150021528Y-118840647D01*
X150069748Y-118727835D01*
X150085822Y-118553706D01*
X150074511Y-118388507D01*
X150040578Y-118278672D01*
X149900084Y-118196519D01*
X149809002Y-118220331D01*
X149726253Y-118291769D01*
X149507178Y-118291769D01*
X149530991Y-117367844D01*
X150304897Y-117367844D01*
X150304897Y-117572631D01*
G37*
G36*
X148911866Y-119106156D02*
G01*
X148530866Y-119106156D01*
X148530866Y-118701344D01*
X148911866Y-118701344D01*
X148911866Y-119106156D01*
G37*
D10*
%TO.C,TP4*%
X144870400Y-90525600D02*
G75*
G03*
X144870400Y-90525600I-700000J0D01*
G01*
%TO.C,TP3*%
X156402000Y-108102400D02*
G75*
G03*
X156402000Y-108102400I-700000J0D01*
G01*
%TO.C,TP2*%
X155284400Y-94183200D02*
G75*
G03*
X155284400Y-94183200I-700000J0D01*
G01*
%TO.C,TP1*%
X146369000Y-85471000D02*
G75*
G03*
X146369000Y-85471000I-700000J0D01*
G01*
%TO.C,kibuzzard-6275398E*%
G36*
X145751947Y-116028391D02*
G01*
X145754328Y-116028391D01*
X146025791Y-114528203D01*
X146290109Y-114528203D01*
X145901966Y-116266516D01*
X145592403Y-116266516D01*
X145206641Y-114528203D01*
X145480484Y-114528203D01*
X145751947Y-116028391D01*
G37*
G36*
X143485658Y-114518281D02*
G01*
X143624168Y-114559953D01*
X143729075Y-114629406D01*
X143802497Y-114728757D01*
X143846550Y-114860123D01*
X143861234Y-115023503D01*
X143844566Y-115179177D01*
X143794559Y-115305681D01*
X143711216Y-115403015D01*
X143594534Y-115471178D01*
X143594534Y-115475941D01*
X143685022Y-115593813D01*
X143761222Y-115780741D01*
X143908859Y-116266516D01*
X143635016Y-116266516D01*
X143496903Y-115766453D01*
X143457910Y-115658404D01*
X143412369Y-115591431D01*
X143268303Y-115544997D01*
X143175434Y-115544997D01*
X143175434Y-116266516D01*
X142908734Y-116266516D01*
X142908734Y-115337828D01*
X143175434Y-115337828D01*
X143268303Y-115337828D01*
X143423084Y-115319969D01*
X143525478Y-115266391D01*
X143582628Y-115169950D01*
X143601678Y-115023503D01*
X143583819Y-114883307D01*
X143530241Y-114786569D01*
X143440348Y-114730312D01*
X143313547Y-114711559D01*
X143175434Y-114730609D01*
X143175434Y-115337828D01*
X142908734Y-115337828D01*
X142908734Y-114552016D01*
X143041555Y-114525557D01*
X143176493Y-114509682D01*
X143313547Y-114504391D01*
X143485658Y-114518281D01*
G37*
G36*
X150681730Y-114530882D02*
G01*
X150826391Y-114610356D01*
X150915688Y-114736860D01*
X150945453Y-114904441D01*
X150927594Y-115056989D01*
X150874016Y-115178880D01*
X150784719Y-115270111D01*
X150659703Y-115330684D01*
X150659703Y-115333066D01*
X150795137Y-115382477D01*
X150891875Y-115471178D01*
X150949918Y-115599170D01*
X150969266Y-115766453D01*
X150954383Y-115926526D01*
X150909734Y-116057495D01*
X150835320Y-116159359D01*
X150731141Y-116232120D01*
X150597195Y-116275776D01*
X150433484Y-116290328D01*
X150239413Y-116271278D01*
X150052484Y-116214128D01*
X150052484Y-115985528D01*
X150225720Y-116058752D01*
X150402528Y-116083159D01*
X150533795Y-116062621D01*
X150627556Y-116001006D01*
X150683813Y-115898315D01*
X150702566Y-115754547D01*
X150681134Y-115613160D01*
X150616841Y-115517612D01*
X150500159Y-115463141D01*
X150321566Y-115444984D01*
X150273941Y-115444984D01*
X150273941Y-115235434D01*
X150321566Y-115235434D01*
X150487658Y-115217575D01*
X150600172Y-115163997D01*
X150664466Y-115071723D01*
X150685897Y-114937778D01*
X150658380Y-114810778D01*
X150575830Y-114734578D01*
X150438247Y-114709178D01*
X150270369Y-114734181D01*
X150085822Y-114809191D01*
X150085822Y-114587734D01*
X150223405Y-114541432D01*
X150356755Y-114513651D01*
X150485872Y-114504391D01*
X150681730Y-114530882D01*
G37*
G36*
X148306730Y-114533859D02*
G01*
X148439188Y-114622262D01*
X148520448Y-114767816D01*
X148547534Y-114968734D01*
X148532585Y-115119547D01*
X148487739Y-115279884D01*
X148412994Y-115449747D01*
X148335380Y-115585776D01*
X148237079Y-115731925D01*
X148118091Y-115888195D01*
X147978416Y-116054584D01*
X147978416Y-116059347D01*
X148559441Y-116059347D01*
X148559441Y-116266516D01*
X147702191Y-116266516D01*
X147702191Y-116059347D01*
X147855077Y-115881628D01*
X147984442Y-115711782D01*
X148090286Y-115549808D01*
X148172609Y-115395707D01*
X148231411Y-115249479D01*
X148266693Y-115111123D01*
X148278453Y-114980641D01*
X148265654Y-114859197D01*
X148227256Y-114775853D01*
X148071284Y-114711559D01*
X147959366Y-114727170D01*
X147836334Y-114774001D01*
X147702191Y-114852053D01*
X147702191Y-114628216D01*
X147833953Y-114559424D01*
X147975241Y-114518149D01*
X148126053Y-114504391D01*
X148306730Y-114533859D01*
G37*
G36*
X144980422Y-114735372D02*
G01*
X144413684Y-114735372D01*
X144413684Y-115230672D01*
X144956609Y-115230672D01*
X144956609Y-115433078D01*
X144413684Y-115433078D01*
X144413684Y-116059347D01*
X144980422Y-116059347D01*
X144980422Y-116266516D01*
X144146984Y-116266516D01*
X144146984Y-114528203D01*
X144980422Y-114528203D01*
X144980422Y-114735372D01*
G37*
G36*
X147428347Y-116635609D02*
G01*
X146452034Y-116635609D01*
X146452034Y-116464159D01*
X147428347Y-116464159D01*
X147428347Y-116635609D01*
G37*
G36*
X149516703Y-116266516D02*
G01*
X149135703Y-116266516D01*
X149135703Y-115861703D01*
X149516703Y-115861703D01*
X149516703Y-116266516D01*
G37*
%TO.C,C3*%
X150121252Y-86895000D02*
X149598748Y-86895000D01*
X150121252Y-88365000D02*
X149598748Y-88365000D01*
%TO.C,C2*%
X146692252Y-86895000D02*
X146169748Y-86895000D01*
X146692252Y-88365000D02*
X146169748Y-88365000D01*
%TO.C,U5*%
X157226000Y-98085000D02*
X158726000Y-98085000D01*
X155726000Y-101305000D02*
X158726000Y-101305000D01*
%TO.C,U8*%
X157226000Y-113071000D02*
X158726000Y-113071000D01*
X155726000Y-116291000D02*
X158726000Y-116291000D01*
%TO.C,C57*%
X159073964Y-112553800D02*
X159289636Y-112553800D01*
X159073964Y-111833800D02*
X159289636Y-111833800D01*
%TO.C,R18*%
X131000896Y-95729359D02*
X131000896Y-96036641D01*
X131760896Y-95729359D02*
X131760896Y-96036641D01*
%TO.C,C38*%
X157299446Y-112562319D02*
X157083774Y-112562319D01*
X157299446Y-111842319D02*
X157083774Y-111842319D01*
%TO.C,R37*%
X132268896Y-110772640D02*
X132268896Y-110465358D01*
X131508896Y-110772640D02*
X131508896Y-110465358D01*
%TO.C,C63*%
X127120764Y-78329200D02*
X127336436Y-78329200D01*
X127120764Y-79049200D02*
X127336436Y-79049200D01*
%TO.C,C7*%
X132700896Y-91753000D02*
X139460896Y-91753000D01*
X139460896Y-88333000D02*
X132700896Y-88333000D01*
X132700896Y-88333000D02*
X132700896Y-91753000D01*
%TO.C,U4*%
X131974896Y-92330999D02*
X131974896Y-93830999D01*
X128754896Y-90830999D02*
X128754896Y-93830999D01*
%TO.C,U3*%
X157861000Y-89045737D02*
X159361000Y-89045737D01*
X156361000Y-92265737D02*
X159361000Y-92265737D01*
%TO.C,C20*%
X165280087Y-95991000D02*
X163857583Y-95991000D01*
X165280087Y-97811000D02*
X163857583Y-97811000D01*
%TO.C,C21*%
X117460896Y-103563999D02*
X124220896Y-103563999D01*
X117460896Y-100143999D02*
X117460896Y-103563999D01*
X124220896Y-100143999D02*
X117460896Y-100143999D01*
%TO.C,C43*%
X159531164Y-116734000D02*
X159746836Y-116734000D01*
X159531164Y-117454000D02*
X159746836Y-117454000D01*
%TO.C,C23*%
X165280087Y-100224000D02*
X163857583Y-100224000D01*
X165280087Y-98404000D02*
X163857583Y-98404000D01*
%TO.C,C60*%
X156262200Y-96591400D02*
X160172200Y-96591400D01*
X156262200Y-94721400D02*
X156262200Y-96591400D01*
X160172200Y-94721400D02*
X156262200Y-94721400D01*
%TO.C,R22*%
X155033969Y-96648000D02*
X155341251Y-96648000D01*
X155033969Y-95888000D02*
X155341251Y-95888000D01*
%TO.C,kibuzzard-6238052E*%
G36*
X144303115Y-94494032D02*
G01*
X144145000Y-94497842D01*
X144009533Y-94495302D01*
X143895233Y-94487682D01*
X143802100Y-94474982D01*
X143698277Y-94448551D01*
X143634460Y-94414975D01*
X143590645Y-94314962D01*
X143623982Y-94225427D01*
X143737330Y-94168277D01*
X144303115Y-94494032D01*
G37*
G36*
X144145000Y-92603329D02*
G01*
X145372005Y-93421332D01*
X145372005Y-98912671D01*
X144145000Y-98094668D01*
X142917995Y-98912671D01*
X142917995Y-97067688D01*
X143430625Y-97067688D01*
X143449463Y-97224850D01*
X143505978Y-97353438D01*
X143600170Y-97453450D01*
X143697206Y-97509707D01*
X143818769Y-97549891D01*
X143964858Y-97574001D01*
X144135475Y-97582038D01*
X144305139Y-97574596D01*
X144452181Y-97552272D01*
X144576602Y-97515065D01*
X144678400Y-97462975D01*
X144757577Y-97396002D01*
X144814131Y-97314147D01*
X144848064Y-97217409D01*
X144859375Y-97105788D01*
X144851967Y-96991911D01*
X144829742Y-96883961D01*
X144792700Y-96781938D01*
X144011650Y-96781938D01*
X144011650Y-97225803D01*
X144173575Y-97225803D01*
X144173575Y-96985773D01*
X144672685Y-96985773D01*
X144695545Y-97100073D01*
X144663160Y-97216278D01*
X144566005Y-97302003D01*
X144460595Y-97341161D01*
X144317085Y-97364656D01*
X144135475Y-97372488D01*
X143957992Y-97364233D01*
X143819245Y-97339468D01*
X143719232Y-97298193D01*
X143628507Y-97203419D01*
X143598265Y-97067688D01*
X143609695Y-96951006D01*
X143643985Y-96829563D01*
X143472535Y-96829563D01*
X143441102Y-96946244D01*
X143430625Y-97067688D01*
X142917995Y-97067688D01*
X142917995Y-96591438D01*
X143973550Y-96591438D01*
X144129760Y-96591438D01*
X144407890Y-96591438D01*
X144564100Y-96591438D01*
X144564100Y-95848488D01*
X144407890Y-95848488D01*
X144407890Y-96591438D01*
X144129760Y-96591438D01*
X144129760Y-95848488D01*
X143973550Y-95848488D01*
X143973550Y-96591438D01*
X142917995Y-96591438D01*
X142917995Y-95271272D01*
X143430625Y-95271272D01*
X143441632Y-95391922D01*
X143474652Y-95504953D01*
X143529685Y-95610362D01*
X143708755Y-95610362D01*
X143646313Y-95503047D01*
X143608848Y-95404622D01*
X143596360Y-95315087D01*
X143647795Y-95190310D01*
X143714470Y-95159592D01*
X143811625Y-95149352D01*
X143916011Y-95158761D01*
X144026696Y-95186986D01*
X144143678Y-95234028D01*
X144266959Y-95299886D01*
X144396538Y-95384562D01*
X144532415Y-95488054D01*
X144674590Y-95610362D01*
X144840325Y-95610362D01*
X144840325Y-94924562D01*
X144674590Y-94924562D01*
X144674590Y-95389382D01*
X144670780Y-95389382D01*
X144537668Y-95277642D01*
X144412653Y-95182452D01*
X144295733Y-95103811D01*
X144186910Y-95041720D01*
X144051020Y-94981924D01*
X143922750Y-94946047D01*
X143802100Y-94934087D01*
X143641366Y-94955757D01*
X143524922Y-95020765D01*
X143454199Y-95126731D01*
X143430625Y-95271272D01*
X142917995Y-95271272D01*
X142917995Y-94314962D01*
X143430625Y-94314962D01*
X143446103Y-94433549D01*
X143492537Y-94526417D01*
X143578739Y-94597617D01*
X143713517Y-94651195D01*
X143832157Y-94676066D01*
X143975984Y-94690988D01*
X144145000Y-94695962D01*
X144314016Y-94690988D01*
X144457843Y-94676066D01*
X144576483Y-94651195D01*
X144711261Y-94597617D01*
X144797463Y-94526417D01*
X144843897Y-94433549D01*
X144859375Y-94314962D01*
X144843897Y-94196376D01*
X144797463Y-94103507D01*
X144711261Y-94032308D01*
X144576483Y-93978730D01*
X144457843Y-93953859D01*
X144314016Y-93938937D01*
X144145000Y-93933962D01*
X143975984Y-93938937D01*
X143832157Y-93953859D01*
X143713517Y-93978730D01*
X143578739Y-94032308D01*
X143492537Y-94103507D01*
X143446103Y-94196376D01*
X143430625Y-94314962D01*
X142917995Y-94314962D01*
X142917995Y-93421332D01*
X144145000Y-92603329D01*
G37*
G36*
X144280467Y-94134622D02*
G01*
X144394767Y-94142242D01*
X144487900Y-94154942D01*
X144591723Y-94181374D01*
X144655540Y-94214950D01*
X144699355Y-94314962D01*
X144660303Y-94410212D01*
X144526000Y-94469267D01*
X143952595Y-94137797D01*
X144041654Y-94133511D01*
X144145000Y-94132082D01*
X144280467Y-94134622D01*
G37*
%TO.C,C18*%
X117460896Y-99753999D02*
X124220896Y-99753999D01*
X124220896Y-96333999D02*
X117460896Y-96333999D01*
X117460896Y-96333999D02*
X117460896Y-99753999D01*
%TO.C,R25*%
X132268896Y-99842640D02*
X132268896Y-99535358D01*
X131508896Y-99842640D02*
X131508896Y-99535358D01*
%TO.C,R4*%
X131256896Y-78258641D02*
X131256896Y-77951359D01*
X130496896Y-78258641D02*
X130496896Y-77951359D01*
%TO.C,C74*%
X152249000Y-104948000D02*
X156159000Y-104948000D01*
X152249000Y-103078000D02*
X152249000Y-104948000D01*
X156159000Y-103078000D02*
X152249000Y-103078000D01*
%TO.C,C1*%
X139460896Y-77665000D02*
X132700896Y-77665000D01*
X132700896Y-81085000D02*
X139460896Y-81085000D01*
X132700896Y-77665000D02*
X132700896Y-81085000D01*
%TO.C,C73*%
X147777400Y-94508600D02*
X151687400Y-94508600D01*
X151687400Y-94508600D02*
X151687400Y-92638600D01*
X151687400Y-92638600D02*
X147777400Y-92638600D01*
%TO.C,R24*%
X130492896Y-99842640D02*
X130492896Y-99535358D01*
X131252896Y-99842640D02*
X131252896Y-99535358D01*
%TO.C,C5*%
X165280087Y-77789030D02*
X163857583Y-77789030D01*
X165280087Y-79609030D02*
X163857583Y-79609030D01*
%TO.C,U7*%
X131974896Y-114174999D02*
X131974896Y-115674999D01*
X128754896Y-112674999D02*
X128754896Y-115674999D01*
%TO.C,R31*%
X141412896Y-112493360D02*
X141412896Y-112800642D01*
X140652896Y-112493360D02*
X140652896Y-112800642D01*
%TO.C,C36*%
X132700896Y-107247000D02*
X139460896Y-107247000D01*
X132700896Y-103827000D02*
X132700896Y-107247000D01*
X139460896Y-103827000D02*
X132700896Y-103827000D01*
%TO.C,R29*%
X126479937Y-96266999D02*
X126172655Y-96266999D01*
X126479937Y-97026999D02*
X126172655Y-97026999D01*
%TO.C,C24*%
X124220896Y-103953999D02*
X117460896Y-103953999D01*
X117460896Y-103953999D02*
X117460896Y-107373999D01*
X117460896Y-107373999D02*
X124220896Y-107373999D01*
%TO.C,R1*%
X145797000Y-90174378D02*
X145797000Y-89867096D01*
X146557000Y-90174378D02*
X146557000Y-89867096D01*
%TO.C,R13*%
X130496896Y-88928640D02*
X130496896Y-88621358D01*
X131256896Y-88928640D02*
X131256896Y-88621358D01*
%TO.C,C49*%
X132700896Y-114748999D02*
X132700896Y-118168999D01*
X139460896Y-114748999D02*
X132700896Y-114748999D01*
X132700896Y-118168999D02*
X139460896Y-118168999D01*
%TO.C,kibuzzard-62380566*%
G36*
X148476150Y-96520000D02*
G01*
X147645446Y-95273945D01*
X153021850Y-95273945D01*
X153852554Y-96520000D01*
X153021850Y-97766055D01*
X147645446Y-97766055D01*
X147999900Y-97234375D01*
X148988780Y-97234375D01*
X149202140Y-97234375D01*
X149202140Y-96567625D01*
X149617430Y-96567625D01*
X149617430Y-96405700D01*
X149202140Y-96405700D01*
X149202140Y-96243775D01*
X149956520Y-96243775D01*
X149956520Y-96398080D01*
X150209885Y-96398080D01*
X150209885Y-97234375D01*
X150423245Y-97234375D01*
X150423245Y-96243775D01*
X149956520Y-96243775D01*
X149202140Y-96243775D01*
X149202140Y-96024700D01*
X150171785Y-96024700D01*
X150423245Y-96024700D01*
X150423245Y-95998030D01*
X150832820Y-95998030D01*
X151088090Y-95998030D01*
X151088090Y-97234375D01*
X151556720Y-97234375D01*
X151556720Y-97080070D01*
X151301450Y-97080070D01*
X151301450Y-96436180D01*
X151785320Y-96436180D01*
X151981535Y-96436180D01*
X151981535Y-96948625D01*
X151998442Y-97096263D01*
X152049163Y-97188655D01*
X152143222Y-97237233D01*
X152290145Y-97253425D01*
X152395396Y-97247710D01*
X152490170Y-97230565D01*
X152490170Y-97057210D01*
X152408731Y-97078641D01*
X152328245Y-97085785D01*
X152213945Y-97054353D01*
X152189180Y-96910525D01*
X152189180Y-96436180D01*
X152509220Y-96436180D01*
X152509220Y-96281875D01*
X152189180Y-96281875D01*
X152189180Y-95919925D01*
X151981535Y-95919925D01*
X151981535Y-96281875D01*
X151785320Y-96281875D01*
X151785320Y-96436180D01*
X151301450Y-96436180D01*
X151301450Y-95843725D01*
X150832820Y-95843725D01*
X150832820Y-95998030D01*
X150423245Y-95998030D01*
X150423245Y-95786575D01*
X150171785Y-95786575D01*
X150171785Y-96024700D01*
X149202140Y-96024700D01*
X149202140Y-96009460D01*
X149636480Y-96009460D01*
X149636480Y-95843725D01*
X148988780Y-95843725D01*
X148988780Y-97234375D01*
X147999900Y-97234375D01*
X148476150Y-96520000D01*
G37*
%TO.C,C9*%
X165280087Y-86848030D02*
X163857583Y-86848030D01*
X165280087Y-85028030D02*
X163857583Y-85028030D01*
%TO.C,R20*%
X157811441Y-102488000D02*
X157504159Y-102488000D01*
X157811441Y-101728000D02*
X157504159Y-101728000D01*
%TO.C,C64*%
X128484896Y-88667163D02*
X128484896Y-88882835D01*
X129204896Y-88667163D02*
X129204896Y-88882835D01*
%TO.C,R30*%
X131000896Y-106651358D02*
X131000896Y-106958640D01*
X131760896Y-106651358D02*
X131760896Y-106958640D01*
%TO.C,R28*%
X129984896Y-106651358D02*
X129984896Y-106958640D01*
X130744896Y-106651358D02*
X130744896Y-106958640D01*
%TO.C,R21*%
X140652896Y-101573359D02*
X140652896Y-101880641D01*
X141412896Y-101573359D02*
X141412896Y-101880641D01*
%TO.C,C58*%
X133134896Y-87804999D02*
X137044896Y-87804999D01*
X137044896Y-85934999D02*
X133134896Y-85934999D01*
X133134896Y-85934999D02*
X133134896Y-87804999D01*
%TO.C,C39*%
X132700896Y-110177000D02*
X132700896Y-113597000D01*
X139460896Y-110177000D02*
X132700896Y-110177000D01*
X132700896Y-113597000D02*
X139460896Y-113597000D01*
%TO.C,R40*%
X167410165Y-118630471D02*
X167410165Y-118937753D01*
X168170165Y-118630471D02*
X168170165Y-118937753D01*
%TO.C,R41*%
X131000896Y-117573358D02*
X131000896Y-117880640D01*
X131760896Y-117573358D02*
X131760896Y-117880640D01*
%TO.C,RV1*%
X161720000Y-88463478D02*
X151950000Y-88463478D01*
X161720000Y-83393478D02*
X151950000Y-83393478D01*
X151950000Y-88463478D02*
X151950000Y-83393478D01*
X161720000Y-88463478D02*
X161720000Y-83393478D01*
%TO.C,C67*%
X146537000Y-91840164D02*
X146537000Y-92055836D01*
X145817000Y-91840164D02*
X145817000Y-92055836D01*
%TO.C,C56*%
X158972364Y-96924000D02*
X159188036Y-96924000D01*
X158972364Y-97644000D02*
X159188036Y-97644000D01*
%TO.C,U1*%
X128754896Y-80162999D02*
X128754896Y-83162999D01*
X131974896Y-81662999D02*
X131974896Y-83162999D01*
%TO.C,R2*%
X154179000Y-90174378D02*
X154179000Y-89867096D01*
X154939000Y-90174378D02*
X154939000Y-89867096D01*
%TO.C,R35*%
X155056769Y-110806319D02*
X155364051Y-110806319D01*
X155056769Y-111566319D02*
X155364051Y-111566319D01*
%TO.C,kibuzzard-6238081A*%
G36*
X149135306Y-82481102D02*
G01*
X149251988Y-82512535D01*
X149251988Y-82683985D01*
X149130544Y-82649695D01*
X149013863Y-82638265D01*
X148878131Y-82668507D01*
X148783357Y-82759232D01*
X148742082Y-82859245D01*
X148717318Y-82997992D01*
X148709062Y-83175475D01*
X148716894Y-83357085D01*
X148740389Y-83500595D01*
X148779547Y-83606005D01*
X148865272Y-83703160D01*
X148981478Y-83735545D01*
X149095778Y-83712685D01*
X149095778Y-83213575D01*
X148855747Y-83213575D01*
X148855747Y-83051650D01*
X149299613Y-83051650D01*
X149299613Y-83832700D01*
X149197589Y-83869742D01*
X149089639Y-83891967D01*
X148975763Y-83899375D01*
X148864141Y-83888064D01*
X148767403Y-83854131D01*
X148685548Y-83797577D01*
X148618575Y-83718400D01*
X148566485Y-83616602D01*
X148529278Y-83492181D01*
X148506954Y-83345139D01*
X148499512Y-83175475D01*
X148507549Y-83004858D01*
X148531659Y-82858769D01*
X148571843Y-82737206D01*
X148628100Y-82640170D01*
X148728112Y-82545978D01*
X148856700Y-82489463D01*
X149013863Y-82470625D01*
X149135306Y-82481102D01*
G37*
G36*
X147289837Y-83396455D02*
G01*
X146718337Y-83396455D01*
X146718337Y-83238340D01*
X147289837Y-83238340D01*
X147289837Y-83396455D01*
G37*
G36*
X150916958Y-83226910D02*
G01*
X151223663Y-83226910D01*
X151223663Y-83385025D01*
X150916958Y-83385025D01*
X150916958Y-83785075D01*
X150713123Y-83785075D01*
X150713123Y-83385025D01*
X150404513Y-83385025D01*
X150404513Y-83226910D01*
X150713123Y-83226910D01*
X150713123Y-82832575D01*
X150916958Y-82832575D01*
X150916958Y-83226910D01*
G37*
%TO.C,R6*%
X152881359Y-90148737D02*
X153188641Y-90148737D01*
X152881359Y-90908737D02*
X153188641Y-90908737D01*
%TO.C,R3*%
X140652896Y-79985358D02*
X140652896Y-80292640D01*
X141412896Y-79985358D02*
X141412896Y-80292640D01*
%TO.C,C59*%
X137044896Y-107753599D02*
X133134896Y-107753599D01*
X133134896Y-109623599D02*
X137044896Y-109623599D01*
X133134896Y-107753599D02*
X133134896Y-109623599D01*
%TO.C,J3*%
X171677200Y-97564886D02*
X171677200Y-96964886D01*
X171677200Y-96964886D02*
X171877200Y-96764886D01*
X171677200Y-99764886D02*
X171677200Y-98964886D01*
X174677200Y-98964886D02*
X174677200Y-99764886D01*
X174677200Y-99764886D02*
X174477200Y-99764886D01*
X174477200Y-96764886D02*
X174677200Y-96764886D01*
X171677200Y-98964886D02*
X171177200Y-98964886D01*
X171677200Y-97564886D02*
X171177200Y-97564886D01*
X174677200Y-96764886D02*
X174677200Y-97564886D01*
X171877200Y-99764886D02*
X171677200Y-99764886D01*
%TO.C,C45*%
X153269836Y-115591000D02*
X153054164Y-115591000D01*
X153269836Y-116311000D02*
X153054164Y-116311000D01*
%TO.C,C6*%
X165280087Y-80202030D02*
X163857583Y-80202030D01*
X165280087Y-82022030D02*
X163857583Y-82022030D01*
%TO.C,C14*%
X117460896Y-92133999D02*
X124220896Y-92133999D01*
X117460896Y-88713999D02*
X117460896Y-92133999D01*
X124220896Y-88713999D02*
X117460896Y-88713999D01*
%TO.C,C62*%
X158246800Y-107698200D02*
X158246800Y-111608200D01*
X158246800Y-111608200D02*
X160116800Y-111608200D01*
X160116800Y-111608200D02*
X160116800Y-107698200D01*
%TO.C,kibuzzard-62380883*%
G36*
X160543002Y-81554399D02*
G01*
X160648968Y-81625122D01*
X160713976Y-81741566D01*
X160735645Y-81902300D01*
X160723686Y-82022950D01*
X160687808Y-82151220D01*
X160628013Y-82287110D01*
X160565921Y-82395933D01*
X160487281Y-82512853D01*
X160392090Y-82637868D01*
X160280350Y-82770980D01*
X160280350Y-82774790D01*
X160745170Y-82774790D01*
X160745170Y-82940525D01*
X160059370Y-82940525D01*
X160059370Y-82774790D01*
X160181679Y-82632615D01*
X160285171Y-82496738D01*
X160369846Y-82367159D01*
X160435705Y-82243878D01*
X160482747Y-82126896D01*
X160510972Y-82016211D01*
X160520380Y-81911825D01*
X160510141Y-81814670D01*
X160479423Y-81747995D01*
X160354645Y-81696560D01*
X160265110Y-81709048D01*
X160166685Y-81746513D01*
X160059370Y-81808955D01*
X160059370Y-81629885D01*
X160164780Y-81574852D01*
X160277810Y-81541832D01*
X160398460Y-81530825D01*
X160543002Y-81554399D01*
G37*
G36*
X159840295Y-82332830D02*
G01*
X159617410Y-82521425D01*
X159505015Y-82588100D01*
X159432625Y-82506185D01*
X159364045Y-82391885D01*
X159341185Y-82363310D01*
X159303085Y-82386170D01*
X159059245Y-82591910D01*
X159059245Y-82405220D01*
X159282130Y-82216625D01*
X159394525Y-82149950D01*
X159466915Y-82231865D01*
X159535495Y-82346165D01*
X159558355Y-82374740D01*
X159596455Y-82351880D01*
X159840295Y-82146140D01*
X159840295Y-82332830D01*
G37*
G36*
X155865989Y-81541302D02*
G01*
X155982670Y-81572735D01*
X155982670Y-81744185D01*
X155861226Y-81709895D01*
X155744545Y-81698465D01*
X155608814Y-81728707D01*
X155514040Y-81819432D01*
X155472765Y-81919445D01*
X155448000Y-82058192D01*
X155439745Y-82235675D01*
X155447577Y-82417285D01*
X155471072Y-82560795D01*
X155510230Y-82666205D01*
X155595955Y-82763360D01*
X155712160Y-82795745D01*
X155826460Y-82772885D01*
X155826460Y-82273775D01*
X155586430Y-82273775D01*
X155586430Y-82111850D01*
X156030295Y-82111850D01*
X156030295Y-82892900D01*
X155928272Y-82929942D01*
X155820322Y-82952167D01*
X155706445Y-82959575D01*
X155594824Y-82948264D01*
X155498086Y-82914331D01*
X155416230Y-82857777D01*
X155349257Y-82778600D01*
X155297168Y-82676802D01*
X155259961Y-82552381D01*
X155237636Y-82405339D01*
X155230195Y-82235675D01*
X155238232Y-82065058D01*
X155262342Y-81918969D01*
X155302525Y-81797406D01*
X155358782Y-81700370D01*
X155458795Y-81606178D01*
X155587382Y-81549663D01*
X155744545Y-81530825D01*
X155865989Y-81541302D01*
G37*
G36*
X156963745Y-82664300D02*
G01*
X156220795Y-82664300D01*
X156220795Y-82508090D01*
X156963745Y-82508090D01*
X156963745Y-82664300D01*
G37*
G36*
X158815405Y-81713705D02*
G01*
X158390590Y-81713705D01*
X158377255Y-82098515D01*
X158381065Y-82098515D01*
X158458217Y-82062796D01*
X158548705Y-82050890D01*
X158658433Y-82068797D01*
X158743777Y-82122518D01*
X158804737Y-82212053D01*
X158841313Y-82337402D01*
X158853505Y-82498565D01*
X158842498Y-82648002D01*
X158809478Y-82766112D01*
X158754445Y-82852895D01*
X158675493Y-82912162D01*
X158570718Y-82947722D01*
X158440120Y-82959575D01*
X158298674Y-82945288D01*
X158167705Y-82902425D01*
X158167705Y-82721450D01*
X158297721Y-82775743D01*
X158424880Y-82793840D01*
X158522035Y-82777409D01*
X158588710Y-82728118D01*
X158627286Y-82637868D01*
X158640145Y-82498565D01*
X158631096Y-82366406D01*
X158603950Y-82278538D01*
X158491555Y-82212815D01*
X158418689Y-82231865D01*
X158352490Y-82289015D01*
X158177230Y-82289015D01*
X158196280Y-81549875D01*
X158815405Y-81549875D01*
X158815405Y-81713705D01*
G37*
G36*
X156963745Y-82229960D02*
G01*
X156220795Y-82229960D01*
X156220795Y-82073750D01*
X156963745Y-82073750D01*
X156963745Y-82229960D01*
G37*
G36*
X161672905Y-81713705D02*
G01*
X161248090Y-81713705D01*
X161234755Y-82098515D01*
X161238565Y-82098515D01*
X161315718Y-82062796D01*
X161406205Y-82050890D01*
X161515933Y-82068797D01*
X161601277Y-82122518D01*
X161662237Y-82212053D01*
X161698813Y-82337402D01*
X161711005Y-82498565D01*
X161699998Y-82648002D01*
X161666978Y-82766112D01*
X161611945Y-82852895D01*
X161532993Y-82912162D01*
X161428218Y-82947722D01*
X161297620Y-82959575D01*
X161156174Y-82945288D01*
X161025205Y-82902425D01*
X161025205Y-82721450D01*
X161155221Y-82775743D01*
X161282380Y-82793840D01*
X161379535Y-82777409D01*
X161446210Y-82728118D01*
X161484786Y-82637868D01*
X161497645Y-82498565D01*
X161488596Y-82366406D01*
X161461450Y-82278538D01*
X161349055Y-82212815D01*
X161276189Y-82231865D01*
X161209990Y-82289015D01*
X161034730Y-82289015D01*
X161053780Y-81549875D01*
X161672905Y-81549875D01*
X161672905Y-81713705D01*
G37*
G36*
X157752415Y-82940525D02*
G01*
X157539055Y-82940525D01*
X157539055Y-81749900D01*
X157535245Y-81747995D01*
X157207585Y-81930875D01*
X157207585Y-81744185D01*
X157540960Y-81549875D01*
X157752415Y-81549875D01*
X157752415Y-82940525D01*
G37*
%TO.C,R9*%
X140652896Y-83084641D02*
X140652896Y-82777359D01*
X141412896Y-83084641D02*
X141412896Y-82777359D01*
%TO.C,C44*%
X165303252Y-119442111D02*
X163880748Y-119442111D01*
X165303252Y-117622111D02*
X163880748Y-117622111D01*
%TO.C,R27*%
X140652896Y-104930640D02*
X140652896Y-104623358D01*
X141412896Y-104930640D02*
X141412896Y-104623358D01*
%TO.C,R23*%
X153292841Y-99594400D02*
X152985559Y-99594400D01*
X153292841Y-100354400D02*
X152985559Y-100354400D01*
%TO.C,R5*%
X152881359Y-89915000D02*
X153188641Y-89915000D01*
X152881359Y-89155000D02*
X153188641Y-89155000D01*
%TO.C,C26*%
X165280087Y-102637000D02*
X163857583Y-102637000D01*
X165280087Y-100817000D02*
X163857583Y-100817000D01*
%TO.C,R12*%
X140652896Y-90651359D02*
X140652896Y-90958641D01*
X141412896Y-90651359D02*
X141412896Y-90958641D01*
%TO.C,U2*%
X147852000Y-92138737D02*
X150852000Y-92138737D01*
X149352000Y-88918737D02*
X150852000Y-88918737D01*
%TO.C,C40*%
X153269836Y-113163119D02*
X153054164Y-113163119D01*
X153269836Y-113883119D02*
X153054164Y-113883119D01*
%TO.C,C69*%
X153054164Y-102366400D02*
X153269836Y-102366400D01*
X153054164Y-101646400D02*
X153269836Y-101646400D01*
%TO.C,C4*%
X132700896Y-81982999D02*
X132700896Y-85402999D01*
X139460896Y-81982999D02*
X132700896Y-81982999D01*
X132700896Y-85402999D02*
X139460896Y-85402999D01*
%TO.C,C70*%
X153063154Y-117318481D02*
X153278826Y-117318481D01*
X153063154Y-116598481D02*
X153278826Y-116598481D01*
%TO.C,kibuzzard-6238054F*%
G36*
X142280323Y-86346982D02*
G01*
X142337473Y-86460330D01*
X142011718Y-87026115D01*
X142007908Y-86868000D01*
X142010448Y-86732533D01*
X142018068Y-86618233D01*
X142030768Y-86525100D01*
X142057199Y-86421277D01*
X142090775Y-86357460D01*
X142190788Y-86313645D01*
X142280323Y-86346982D01*
G37*
G36*
X138411082Y-86868000D02*
G01*
X138404732Y-86858475D01*
X138923712Y-86858475D01*
X138931154Y-87028139D01*
X138953478Y-87175181D01*
X138990685Y-87299602D01*
X139042775Y-87401400D01*
X139109748Y-87480577D01*
X139191603Y-87537131D01*
X139288341Y-87571064D01*
X139399962Y-87582375D01*
X139513839Y-87574967D01*
X139621789Y-87552742D01*
X139723812Y-87515700D01*
X139723812Y-87287100D01*
X139914312Y-87287100D01*
X140657262Y-87287100D01*
X140657262Y-87130890D01*
X139914312Y-87130890D01*
X139914312Y-87287100D01*
X139723812Y-87287100D01*
X139723812Y-87090885D01*
X140819187Y-87090885D01*
X140819187Y-87254715D01*
X141291628Y-87254715D01*
X141291628Y-87563325D01*
X141501178Y-87563325D01*
X141501178Y-87254715D01*
X141657388Y-87254715D01*
X141657388Y-87090885D01*
X141501178Y-87090885D01*
X141501178Y-86868000D01*
X141809788Y-86868000D01*
X141814762Y-87037016D01*
X141829684Y-87180843D01*
X141854555Y-87299483D01*
X141908133Y-87434261D01*
X141979333Y-87520463D01*
X142072201Y-87566897D01*
X142190788Y-87582375D01*
X142309374Y-87566897D01*
X142402243Y-87520463D01*
X142473442Y-87434261D01*
X142527020Y-87299483D01*
X142551891Y-87180843D01*
X142566813Y-87037016D01*
X142571788Y-86868000D01*
X142762288Y-86868000D01*
X142767262Y-87037016D01*
X142782184Y-87180843D01*
X142807055Y-87299483D01*
X142860633Y-87434261D01*
X142931833Y-87520463D01*
X143024701Y-87566897D01*
X143143288Y-87582375D01*
X143261874Y-87566897D01*
X143354743Y-87520463D01*
X143425942Y-87434261D01*
X143479520Y-87299483D01*
X143504391Y-87180843D01*
X143519313Y-87037016D01*
X143524288Y-86868000D01*
X143519313Y-86698984D01*
X143504391Y-86555157D01*
X143479520Y-86436517D01*
X143425942Y-86301739D01*
X143354743Y-86215537D01*
X143261874Y-86169103D01*
X143143288Y-86153625D01*
X143024701Y-86169103D01*
X142931833Y-86215537D01*
X142860633Y-86301739D01*
X142807055Y-86436517D01*
X142782184Y-86555157D01*
X142767262Y-86698984D01*
X142762288Y-86868000D01*
X142571788Y-86868000D01*
X142566813Y-86698984D01*
X142551891Y-86555157D01*
X142527020Y-86436517D01*
X142473442Y-86301739D01*
X142402243Y-86215537D01*
X142309374Y-86169103D01*
X142190788Y-86153625D01*
X142072201Y-86169103D01*
X141979333Y-86215537D01*
X141908133Y-86301739D01*
X141854555Y-86436517D01*
X141829684Y-86555157D01*
X141814762Y-86698984D01*
X141809788Y-86868000D01*
X141501178Y-86868000D01*
X141501178Y-86172675D01*
X141270673Y-86172675D01*
X140819187Y-87090885D01*
X139723812Y-87090885D01*
X139723812Y-86852760D01*
X139914312Y-86852760D01*
X140657262Y-86852760D01*
X140657262Y-86696550D01*
X139914312Y-86696550D01*
X139914312Y-86852760D01*
X139723812Y-86852760D01*
X139723812Y-86734650D01*
X139279947Y-86734650D01*
X139279947Y-86896575D01*
X139519977Y-86896575D01*
X139519977Y-87395685D01*
X139405677Y-87418545D01*
X139289472Y-87386160D01*
X139203748Y-87289005D01*
X139164589Y-87183595D01*
X139141094Y-87040085D01*
X139133262Y-86858475D01*
X139141518Y-86680992D01*
X139166283Y-86542245D01*
X139207557Y-86442232D01*
X139302331Y-86351507D01*
X139438062Y-86321265D01*
X139554744Y-86332695D01*
X139676187Y-86366985D01*
X139676187Y-86195535D01*
X139559506Y-86164102D01*
X139438062Y-86153625D01*
X139280900Y-86172463D01*
X139152312Y-86228978D01*
X139052300Y-86323170D01*
X138996043Y-86420206D01*
X138955859Y-86541769D01*
X138931749Y-86687858D01*
X138923712Y-86858475D01*
X138404732Y-86858475D01*
X137593079Y-85640995D01*
X144036918Y-85640995D01*
X144854921Y-86868000D01*
X144036918Y-88095005D01*
X137593079Y-88095005D01*
X138411082Y-86868000D01*
G37*
G36*
X141291628Y-87090885D02*
G01*
X140986827Y-87090885D01*
X140986827Y-87085170D01*
X141287818Y-86467950D01*
X141291628Y-86467950D01*
X141291628Y-87090885D01*
G37*
G36*
X143324739Y-86764654D02*
G01*
X143326168Y-86868000D01*
X143323628Y-87003467D01*
X143316007Y-87117767D01*
X143303308Y-87210900D01*
X143276876Y-87314723D01*
X143243300Y-87378540D01*
X143143288Y-87422355D01*
X143048038Y-87383303D01*
X142988983Y-87249000D01*
X143320452Y-86675595D01*
X143324739Y-86764654D01*
G37*
G36*
X142372239Y-86764654D02*
G01*
X142373668Y-86868000D01*
X142371128Y-87003467D01*
X142363508Y-87117767D01*
X142350808Y-87210900D01*
X142324376Y-87314723D01*
X142290800Y-87378540D01*
X142190788Y-87422355D01*
X142095538Y-87383303D01*
X142036483Y-87249000D01*
X142367953Y-86675595D01*
X142372239Y-86764654D01*
G37*
G36*
X143232823Y-86346982D02*
G01*
X143289973Y-86460330D01*
X142964218Y-87026115D01*
X142960408Y-86868000D01*
X142962948Y-86732533D01*
X142970568Y-86618233D01*
X142983268Y-86525100D01*
X143009699Y-86421277D01*
X143043275Y-86357460D01*
X143143288Y-86313645D01*
X143232823Y-86346982D01*
G37*
%TO.C,C72*%
X128175696Y-116508399D02*
X128175696Y-112598399D01*
X126305696Y-116508399D02*
X128175696Y-116508399D01*
X126305696Y-112598399D02*
X126305696Y-116508399D01*
%TO.C,R7*%
X132272896Y-78260640D02*
X132272896Y-77953358D01*
X131512896Y-78260640D02*
X131512896Y-77953358D01*
%TO.C,C42*%
X165303252Y-115209111D02*
X163880748Y-115209111D01*
X165303252Y-117029111D02*
X163880748Y-117029111D01*
%TO.C,C25*%
X159531164Y-101748000D02*
X159746836Y-101748000D01*
X159531164Y-102468000D02*
X159746836Y-102468000D01*
%TO.C,R8*%
X152147000Y-92026096D02*
X152147000Y-92333378D01*
X152907000Y-92026096D02*
X152907000Y-92333378D01*
%TO.C,R11*%
X131760896Y-85088758D02*
X131760896Y-85396040D01*
X131000896Y-85088758D02*
X131000896Y-85396040D01*
%TO.C,R19*%
X155341251Y-97664000D02*
X155033969Y-97664000D01*
X155341251Y-96904000D02*
X155033969Y-96904000D01*
%TO.C,R38*%
X140652896Y-115596641D02*
X140652896Y-115289359D01*
X141412896Y-115596641D02*
X141412896Y-115289359D01*
%TO.C,R34*%
X157760641Y-116714000D02*
X157453359Y-116714000D01*
X157760641Y-117474000D02*
X157453359Y-117474000D01*
%TO.C,C28*%
X153269836Y-101350400D02*
X153054164Y-101350400D01*
X153269836Y-100630400D02*
X153054164Y-100630400D01*
%TO.C,C66*%
X129200896Y-110511163D02*
X129200896Y-110726835D01*
X128480896Y-110511163D02*
X128480896Y-110726835D01*
%TO.C,kibuzzard-62380599*%
G36*
X150960296Y-107983179D02*
G01*
X150961725Y-108086525D01*
X150959185Y-108221992D01*
X150951565Y-108336292D01*
X150938865Y-108429425D01*
X150912433Y-108533248D01*
X150878857Y-108597065D01*
X150778845Y-108640880D01*
X150683595Y-108601828D01*
X150624540Y-108467525D01*
X150956010Y-107894120D01*
X150960296Y-107983179D01*
G37*
G36*
X149958742Y-107585510D02*
G01*
X149990889Y-107646470D01*
X150001605Y-107730290D01*
X149982555Y-107841627D01*
X149925405Y-107924177D01*
X149830155Y-107977940D01*
X149737022Y-107926717D01*
X149681142Y-107844167D01*
X149662515Y-107730290D01*
X149673231Y-107644089D01*
X149705377Y-107583605D01*
X149837775Y-107535980D01*
X149958742Y-107585510D01*
G37*
G36*
X151805164Y-107944602D02*
G01*
X151874220Y-107993180D01*
X151874220Y-108627545D01*
X151750395Y-108652310D01*
X151662289Y-108631831D01*
X151599900Y-108570395D01*
X151562753Y-108458476D01*
X151550370Y-108286550D01*
X151560609Y-108119148D01*
X151591328Y-108009372D01*
X151643001Y-107948651D01*
X151716105Y-107928410D01*
X151805164Y-107944602D01*
G37*
G36*
X154424689Y-108077000D02*
G01*
X153600335Y-109313530D01*
X148089311Y-109313530D01*
X148685065Y-108419900D01*
X149426295Y-108419900D01*
X149437725Y-108533459D01*
X149472015Y-108627757D01*
X149529165Y-108702793D01*
X149607482Y-108757297D01*
X149705272Y-108789999D01*
X149822535Y-108800900D01*
X149940222Y-108789999D01*
X150039282Y-108757297D01*
X150119715Y-108702793D01*
X150178982Y-108627757D01*
X150214542Y-108533459D01*
X150226395Y-108419900D01*
X150211393Y-108296551D01*
X150166387Y-108189395D01*
X150094236Y-108102718D01*
X150069012Y-108086525D01*
X150397845Y-108086525D01*
X150402819Y-108255541D01*
X150417742Y-108399368D01*
X150442612Y-108518008D01*
X150496191Y-108652786D01*
X150567390Y-108738988D01*
X150660259Y-108785422D01*
X150778845Y-108800900D01*
X150897431Y-108785422D01*
X150990300Y-108738988D01*
X151061499Y-108652786D01*
X151115077Y-108518008D01*
X151139948Y-108399368D01*
X151151654Y-108286550D01*
X151340820Y-108286550D01*
X151352038Y-108455143D01*
X151385693Y-108587540D01*
X151441785Y-108683743D01*
X151522007Y-108748830D01*
X151628052Y-108787883D01*
X151759920Y-108800900D01*
X151878030Y-108794127D01*
X151985980Y-108773807D01*
X152017762Y-108762800D01*
X152325705Y-108762800D01*
X152430692Y-108783967D01*
X152537372Y-108796667D01*
X152645745Y-108800900D01*
X152780788Y-108789258D01*
X152891278Y-108754333D01*
X152977215Y-108696125D01*
X153038598Y-108614633D01*
X153075428Y-108509858D01*
X153087705Y-108381800D01*
X153069369Y-108254165D01*
X153014363Y-108145580D01*
X152931733Y-108066046D01*
X152830530Y-108025565D01*
X152830530Y-108023660D01*
X152919827Y-107984607D01*
X152989598Y-107916980D01*
X153034603Y-107826492D01*
X153049605Y-107718860D01*
X153032993Y-107594044D01*
X152983159Y-107496966D01*
X152900101Y-107427624D01*
X152783819Y-107386018D01*
X152634315Y-107372150D01*
X152477153Y-107381675D01*
X152325705Y-107410250D01*
X152325705Y-108762800D01*
X152017762Y-108762800D01*
X152083770Y-108739940D01*
X152083770Y-107353100D01*
X151874220Y-107353100D01*
X151874220Y-107814110D01*
X151786114Y-107782677D01*
X151693245Y-107772200D01*
X151584131Y-107785535D01*
X151495548Y-107825540D01*
X151427498Y-107892215D01*
X151379343Y-107989370D01*
X151350451Y-108120815D01*
X151340820Y-108286550D01*
X151151654Y-108286550D01*
X151154871Y-108255541D01*
X151159845Y-108086525D01*
X151154871Y-107917509D01*
X151139948Y-107773682D01*
X151115077Y-107655042D01*
X151061499Y-107520264D01*
X150990300Y-107434062D01*
X150897431Y-107387628D01*
X150778845Y-107372150D01*
X150660259Y-107387628D01*
X150567390Y-107434062D01*
X150496191Y-107520264D01*
X150442612Y-107655042D01*
X150417742Y-107773682D01*
X150402819Y-107917509D01*
X150397845Y-108086525D01*
X150069012Y-108086525D01*
X149997795Y-108040805D01*
X149997795Y-108036995D01*
X150081139Y-107975797D01*
X150144480Y-107898882D01*
X150184485Y-107810538D01*
X150197820Y-107715050D01*
X150173531Y-107570984D01*
X150100665Y-107462637D01*
X149983507Y-107394772D01*
X149826345Y-107372150D01*
X149669182Y-107395010D01*
X149552025Y-107463590D01*
X149479159Y-107572175D01*
X149454870Y-107715050D01*
X149467967Y-107817444D01*
X149507257Y-107915075D01*
X149567979Y-107999371D01*
X149645370Y-108061760D01*
X149645370Y-108063665D01*
X149549525Y-108126649D01*
X149481064Y-108207016D01*
X149439987Y-108304767D01*
X149426295Y-108419900D01*
X148685065Y-108419900D01*
X148913665Y-108077000D01*
X148089311Y-106840470D01*
X153600335Y-106840470D01*
X154424689Y-108077000D01*
G37*
G36*
X152736233Y-108130816D02*
G01*
X152817195Y-108177965D01*
X152864344Y-108259404D01*
X152880060Y-108377990D01*
X152865534Y-108494909D01*
X152821958Y-108575158D01*
X152748853Y-108621592D01*
X152645745Y-108637070D01*
X152539065Y-108621830D01*
X152539065Y-108115100D01*
X152619075Y-108115100D01*
X152736233Y-108130816D01*
G37*
G36*
X152751790Y-107557782D02*
G01*
X152822275Y-107623187D01*
X152845770Y-107732195D01*
X152830530Y-107832446D01*
X152784810Y-107900787D01*
X152706705Y-107940078D01*
X152594310Y-107953175D01*
X152539065Y-107953175D01*
X152539065Y-107551220D01*
X152634315Y-107535980D01*
X152751790Y-107557782D01*
G37*
G36*
X150868380Y-107565507D02*
G01*
X150925530Y-107678855D01*
X150599775Y-108244640D01*
X150595965Y-108086525D01*
X150598505Y-107951058D01*
X150606125Y-107836758D01*
X150618825Y-107743625D01*
X150645257Y-107639802D01*
X150678832Y-107575985D01*
X150778845Y-107532170D01*
X150868380Y-107565507D01*
G37*
G36*
X149922865Y-108192993D02*
G01*
X149993350Y-108283163D01*
X150016845Y-108404660D01*
X149994832Y-108532718D01*
X149928792Y-108609553D01*
X149818725Y-108635165D01*
X149735857Y-108620639D01*
X149673945Y-108577062D01*
X149635369Y-108504911D01*
X149622510Y-108404660D01*
X149642830Y-108283163D01*
X149703790Y-108192993D01*
X149805390Y-108134150D01*
X149922865Y-108192993D01*
G37*
%TO.C,C68*%
X154199000Y-92043364D02*
X154199000Y-92259036D01*
X154919000Y-92043364D02*
X154919000Y-92259036D01*
%TO.C,R26*%
X168147000Y-101827359D02*
X168147000Y-102134641D01*
X167387000Y-101827359D02*
X167387000Y-102134641D01*
%TO.C,R15*%
X141412896Y-94006641D02*
X141412896Y-93699359D01*
X140652896Y-94006641D02*
X140652896Y-93699359D01*
%TO.C,C71*%
X126254896Y-80086399D02*
X126254896Y-83996399D01*
X128124896Y-83996399D02*
X128124896Y-80086399D01*
X126254896Y-83996399D02*
X128124896Y-83996399D01*
%TO.C,C22*%
X132700896Y-99255000D02*
X132700896Y-102675000D01*
X132700896Y-102675000D02*
X139460896Y-102675000D01*
X139460896Y-99255000D02*
X132700896Y-99255000D01*
%TO.C,R32*%
X131252896Y-110772640D02*
X131252896Y-110465358D01*
X130492896Y-110772640D02*
X130492896Y-110465358D01*
%TO.C,C8*%
X165280087Y-84435030D02*
X163857583Y-84435030D01*
X165280087Y-82615030D02*
X163857583Y-82615030D01*
%TO.C,J4*%
X111758600Y-99391600D02*
X111758600Y-98591600D01*
X111758600Y-96391600D02*
X111958600Y-96391600D01*
X111758600Y-97191600D02*
X111758600Y-96391600D01*
X114758600Y-99191600D02*
X114558600Y-99391600D01*
X114758600Y-96391600D02*
X114758600Y-97191600D01*
X114758600Y-98591600D02*
X115258600Y-98591600D01*
X114558600Y-96391600D02*
X114758600Y-96391600D01*
X111958600Y-99391600D02*
X111758600Y-99391600D01*
X114758600Y-97191600D02*
X115258600Y-97191600D01*
X114758600Y-98591600D02*
X114758600Y-99191600D01*
%TO.C,R14*%
X131512896Y-88926641D02*
X131512896Y-88619359D01*
X132272896Y-88926641D02*
X132272896Y-88619359D01*
%TO.C,C17*%
X157276646Y-97644000D02*
X157060974Y-97644000D01*
X157276646Y-96924000D02*
X157060974Y-96924000D01*
%TO.C,C41*%
X165303252Y-114616111D02*
X163880748Y-114616111D01*
X165303252Y-112796111D02*
X163880748Y-112796111D01*
%TO.C,C16*%
X165280087Y-95398000D02*
X163857583Y-95398000D01*
X165280087Y-93578000D02*
X163857583Y-93578000D01*
%TO.C,C15*%
X117460896Y-95943999D02*
X124220896Y-95943999D01*
X117460896Y-92523999D02*
X117460896Y-95943999D01*
X124220896Y-92523999D02*
X117460896Y-92523999D01*
%TO.C,J5*%
X174477200Y-106951382D02*
X174677200Y-106951382D01*
X171877200Y-109951382D02*
X171677200Y-109951382D01*
X171677200Y-109151382D02*
X171177200Y-109151382D01*
X174677200Y-109951382D02*
X174477200Y-109951382D01*
X171677200Y-107751382D02*
X171177200Y-107751382D01*
X174677200Y-109151382D02*
X174677200Y-109951382D01*
X171677200Y-107151382D02*
X171877200Y-106951382D01*
X171677200Y-107751382D02*
X171677200Y-107151382D01*
X174677200Y-106951382D02*
X174677200Y-107751382D01*
X171677200Y-109951382D02*
X171677200Y-109151382D01*
%TO.C,C19*%
X153247036Y-98912000D02*
X153031364Y-98912000D01*
X153247036Y-98192000D02*
X153031364Y-98192000D01*
%TO.C,R36*%
X153317640Y-115315000D02*
X153010358Y-115315000D01*
X153317640Y-114555000D02*
X153010358Y-114555000D01*
%TO.C,R10*%
X129984896Y-85088758D02*
X129984896Y-85396040D01*
X130744896Y-85088758D02*
X130744896Y-85396040D01*
%TO.C,R33*%
X155364051Y-112582319D02*
X155056769Y-112582319D01*
X155364051Y-111822319D02*
X155056769Y-111822319D01*
%TO.C,U6*%
X128754896Y-101752999D02*
X128754896Y-104752999D01*
X131974896Y-103252999D02*
X131974896Y-104752999D01*
%TO.C,C75*%
X152249000Y-120061000D02*
X156159000Y-120061000D01*
X156159000Y-118191000D02*
X152249000Y-118191000D01*
X152249000Y-118191000D02*
X152249000Y-120061000D01*
%TO.C,C37*%
X165303252Y-110342000D02*
X163880748Y-110342000D01*
X165303252Y-112162000D02*
X163880748Y-112162000D01*
%TO.C,kibuzzard-62380362*%
G36*
X148728906Y-112570854D02*
G01*
X148402675Y-112570854D01*
X148564600Y-111754085D01*
X148566981Y-111754085D01*
X148728906Y-112570854D01*
G37*
G36*
X147540663Y-112238669D02*
G01*
X147578763Y-112349100D01*
X147593050Y-112516085D01*
X147169188Y-112516085D01*
X147189428Y-112344635D01*
X147231100Y-112235097D01*
X147297180Y-112176161D01*
X147390644Y-112156516D01*
X147540663Y-112238669D01*
G37*
G36*
X143917293Y-112187175D02*
G01*
X143989028Y-112257719D01*
X144029212Y-112393153D01*
X144042606Y-112611335D01*
X144029212Y-112829517D01*
X143989028Y-112964950D01*
X143917293Y-113035495D01*
X143809244Y-113059010D01*
X143701195Y-113035495D01*
X143629459Y-112964950D01*
X143589276Y-112829517D01*
X143575881Y-112611335D01*
X143589276Y-112393153D01*
X143629459Y-112257719D01*
X143701195Y-112187175D01*
X143809244Y-112163660D01*
X143917293Y-112187175D01*
G37*
G36*
X141653551Y-110908080D02*
G01*
X151970449Y-110908080D01*
X151970449Y-113766902D01*
X141653551Y-113766902D01*
X141653551Y-113230460D01*
X142166181Y-113230460D01*
X142428119Y-113230460D01*
X142428119Y-111968397D01*
X142432881Y-111968397D01*
X142804356Y-113230460D01*
X143071056Y-113230460D01*
X143071056Y-112611335D01*
X143309181Y-112611335D01*
X143322940Y-112816122D01*
X143364215Y-112979635D01*
X143433006Y-113101872D01*
X143529844Y-113186539D01*
X143655256Y-113237339D01*
X143809244Y-113254272D01*
X143963231Y-113237339D01*
X144088644Y-113186539D01*
X144185481Y-113101872D01*
X144254273Y-112979635D01*
X144295548Y-112816122D01*
X144309306Y-112611335D01*
X144295548Y-112406547D01*
X144254273Y-112243035D01*
X144185481Y-112120797D01*
X144088644Y-112036131D01*
X143980214Y-111992210D01*
X144630775Y-111992210D01*
X144630775Y-112185091D01*
X144947481Y-112185091D01*
X144947481Y-113230460D01*
X145214181Y-113230460D01*
X145214181Y-112313678D01*
X145754725Y-112313678D01*
X145778537Y-112450898D01*
X145849975Y-112557757D01*
X145977967Y-112640803D01*
X146171444Y-112706585D01*
X146328606Y-112778022D01*
X146371469Y-112897085D01*
X146316700Y-113022100D01*
X146135725Y-113061391D01*
X145956536Y-113038174D01*
X145766631Y-112968522D01*
X145766631Y-113178072D01*
X145893631Y-113220406D01*
X146030156Y-113245806D01*
X146176206Y-113254272D01*
X146370576Y-113231055D01*
X146515534Y-113161404D01*
X146605724Y-113048889D01*
X146635787Y-112897085D01*
X146612868Y-112744685D01*
X146544109Y-112635147D01*
X146505327Y-112611335D01*
X146897725Y-112611335D01*
X146908902Y-112781910D01*
X146942434Y-112926243D01*
X146998321Y-113044333D01*
X147076562Y-113136182D01*
X147177157Y-113201788D01*
X147300108Y-113241151D01*
X147445413Y-113254272D01*
X147611505Y-113239389D01*
X147646388Y-113230460D01*
X148005006Y-113230460D01*
X148271706Y-113230460D01*
X148362194Y-112773260D01*
X148769388Y-112773260D01*
X148859875Y-113230460D01*
X149136100Y-113230460D01*
X149219444Y-113230460D01*
X149452806Y-113230460D01*
X149493288Y-111754085D01*
X149500431Y-111754085D01*
X149636163Y-112825647D01*
X149862381Y-112825647D01*
X150010019Y-111754085D01*
X150012400Y-111754085D01*
X150048119Y-113230460D01*
X150302913Y-113230460D01*
X150505319Y-113230460D01*
X150772019Y-113230460D01*
X150772019Y-112635147D01*
X150910131Y-112647054D01*
X151079861Y-112631179D01*
X151217577Y-112583554D01*
X151323278Y-112504179D01*
X151398023Y-112390143D01*
X151442870Y-112238537D01*
X151457819Y-112049360D01*
X151443267Y-111863490D01*
X151399610Y-111715456D01*
X151326850Y-111605257D01*
X151222340Y-111529189D01*
X151083433Y-111483548D01*
X150910131Y-111468335D01*
X150773077Y-111473626D01*
X150638140Y-111489501D01*
X150505319Y-111515960D01*
X150505319Y-113230460D01*
X150302913Y-113230460D01*
X150214806Y-111492147D01*
X149914769Y-111492147D01*
X149771894Y-112599429D01*
X149767131Y-112599429D01*
X149621875Y-111492147D01*
X149309931Y-111492147D01*
X149219444Y-113230460D01*
X149136100Y-113230460D01*
X148724144Y-111492147D01*
X148414581Y-111492147D01*
X148005006Y-113230460D01*
X147646388Y-113230460D01*
X147785931Y-113194741D01*
X147785931Y-112997097D01*
X147622816Y-113045318D01*
X147476369Y-113061391D01*
X147348674Y-113040853D01*
X147256103Y-112979238D01*
X147196870Y-112868807D01*
X147169188Y-112701822D01*
X147845463Y-112701822D01*
X147850225Y-112606572D01*
X147837790Y-112403240D01*
X147800483Y-112240918D01*
X147738306Y-112119607D01*
X147650729Y-112035601D01*
X147537223Y-111985198D01*
X147397788Y-111968397D01*
X147244991Y-111986257D01*
X147119975Y-112039835D01*
X147022741Y-112129132D01*
X146953288Y-112254147D01*
X146911616Y-112414882D01*
X146897725Y-112611335D01*
X146505327Y-112611335D01*
X146412248Y-112554185D01*
X146200019Y-112487510D01*
X146058334Y-112420835D01*
X146016662Y-112313678D01*
X146068455Y-112197593D01*
X146223831Y-112158897D01*
X146404806Y-112173780D01*
X146595306Y-112218428D01*
X146595306Y-112020785D01*
X146470952Y-111991681D01*
X146339190Y-111974218D01*
X146200019Y-111968397D01*
X146005947Y-111990721D01*
X145866644Y-112057694D01*
X145782705Y-112166339D01*
X145754725Y-112313678D01*
X145214181Y-112313678D01*
X145214181Y-111992210D01*
X144630775Y-111992210D01*
X143980214Y-111992210D01*
X143963231Y-111985331D01*
X143809244Y-111968397D01*
X143655256Y-111985331D01*
X143529844Y-112036131D01*
X143433006Y-112120797D01*
X143364215Y-112243035D01*
X143322940Y-112406547D01*
X143309181Y-112611335D01*
X143071056Y-112611335D01*
X143071056Y-111718366D01*
X144899856Y-111718366D01*
X145214181Y-111718366D01*
X145214181Y-111420710D01*
X144899856Y-111420710D01*
X144899856Y-111718366D01*
X143071056Y-111718366D01*
X143071056Y-111492147D01*
X142821025Y-111492147D01*
X142821025Y-112754210D01*
X142813881Y-112754210D01*
X142442406Y-111492147D01*
X142166181Y-111492147D01*
X142166181Y-113230460D01*
X141653551Y-113230460D01*
X141653551Y-110908080D01*
G37*
G36*
X151038421Y-111697530D02*
G01*
X151128016Y-111763610D01*
X151180701Y-111879100D01*
X151198263Y-112049360D01*
X151180701Y-112232418D01*
X151128016Y-112352969D01*
X151038421Y-112419942D01*
X150910131Y-112442266D01*
X150772019Y-112425597D01*
X150772019Y-111694553D01*
X150910131Y-111675503D01*
X151038421Y-111697530D01*
G37*
%TO.C,C65*%
X129200896Y-99611163D02*
X129200896Y-99826835D01*
X128480896Y-99611163D02*
X128480896Y-99826835D01*
%TO.C,J1*%
X147221000Y-81842000D02*
X150721000Y-81842000D01*
X143911000Y-75882000D02*
X143911000Y-81852000D01*
X143921000Y-81092000D02*
X143921000Y-81842000D01*
X144671000Y-76642000D02*
X148971000Y-76642000D01*
X154021000Y-79592000D02*
X153271000Y-79592000D01*
X154031000Y-81852000D02*
X154031000Y-75882000D01*
X147221000Y-81092000D02*
X147221000Y-81842000D01*
X145721000Y-81092000D02*
X143921000Y-81092000D01*
X145721000Y-81842000D02*
X145721000Y-81092000D01*
X154321000Y-82142000D02*
X154321000Y-80892000D01*
X154031000Y-75882000D02*
X143911000Y-75882000D01*
X143921000Y-79592000D02*
X144671000Y-79592000D01*
X144671000Y-79592000D02*
X144671000Y-76642000D01*
X152221000Y-81842000D02*
X154021000Y-81842000D01*
X153071000Y-82142000D02*
X154321000Y-82142000D01*
X153271000Y-76642000D02*
X148971000Y-76642000D01*
X150721000Y-81092000D02*
X147221000Y-81092000D01*
X152221000Y-81092000D02*
X152221000Y-81842000D01*
X154021000Y-81092000D02*
X152221000Y-81092000D01*
X150721000Y-81842000D02*
X150721000Y-81092000D01*
X153271000Y-79592000D02*
X153271000Y-76642000D01*
X154021000Y-81842000D02*
X154021000Y-81092000D01*
X143921000Y-81842000D02*
X145721000Y-81842000D01*
X143911000Y-81852000D02*
X154031000Y-81852000D01*
%TO.C,R39*%
X129984896Y-117573358D02*
X129984896Y-117880640D01*
X130744896Y-117573358D02*
X130744896Y-117880640D01*
%TO.C,J2*%
X171677200Y-89578390D02*
X171677200Y-88778390D01*
X171677200Y-88778390D02*
X171177200Y-88778390D01*
X171677200Y-87378390D02*
X171177200Y-87378390D01*
X171677200Y-87378390D02*
X171677200Y-86778390D01*
X171877200Y-89578390D02*
X171677200Y-89578390D01*
X174677200Y-86578390D02*
X174677200Y-87378390D01*
X174477200Y-86578390D02*
X174677200Y-86578390D01*
X171677200Y-86778390D02*
X171877200Y-86578390D01*
X174677200Y-88778390D02*
X174677200Y-89578390D01*
X174677200Y-89578390D02*
X174477200Y-89578390D01*
%TO.C,R16*%
X167387000Y-86038389D02*
X167387000Y-86345671D01*
X168147000Y-86038389D02*
X168147000Y-86345671D01*
%TO.C,C13*%
X132700896Y-96325000D02*
X139460896Y-96325000D01*
X139460896Y-92905000D02*
X132700896Y-92905000D01*
X132700896Y-92905000D02*
X132700896Y-96325000D01*
%TO.C,R17*%
X130744896Y-95731358D02*
X130744896Y-96038640D01*
X129984896Y-95731358D02*
X129984896Y-96038640D01*
%TO.C,C61*%
X166166600Y-87406200D02*
X162256600Y-87406200D01*
X162256600Y-89276200D02*
X166166600Y-89276200D01*
X162256600Y-87406200D02*
X162256600Y-89276200D01*
%TD*%
M02*
