M48
; DRILL file {KiCad (6.0.2)} date Fri Apr  8 09:52:03 2022
; FORMAT={-:-/ absolute / inch / decimal}
; #@! TF.CreationDate,2022-04-08T09:52:03+08:00
; #@! TF.GenerationSoftware,Kicad,Pcbnew,(6.0.2)
; #@! TF.FileFunction,Plated,1,2,PTH
FMAT,2
INCH
; #@! TA.AperFunction,Plated,PTH,ViaDrill
T1C0.0157
; #@! TA.AperFunction,Plated,PTH,ViaDrill
T2C0.0197
; #@! TA.AperFunction,Plated,PTH,ComponentDrill
T3C0.0374
%
G90
G05
T1
X3.91Y-2.91
X3.91Y-2.97
X3.91Y-3.03
X3.91Y-3.09
X3.97Y-2.91
X3.97Y-2.97
X3.97Y-3.03
X3.97Y-3.09
X4.03Y-2.91
X4.03Y-2.97
X4.03Y-3.03
X4.03Y-3.09
X5.0Y-2.415
X5.0Y-2.475
X5.0Y-2.53
X5.024Y-2.64
X5.024Y-2.68
X5.024Y-2.72
X5.025Y-2.595
X5.075Y-2.595
X5.076Y-2.64
X5.076Y-2.68
X5.076Y-2.72
X5.216Y-2.918
X5.575Y-2.465
X5.575Y-2.525
X5.575Y-2.585
X5.575Y-2.645
X5.575Y-2.705
X5.64Y-2.465
X5.64Y-2.525
X5.64Y-2.585
X5.64Y-2.645
X5.64Y-2.705
X5.705Y-2.465
X5.705Y-2.525
X5.705Y-2.585
X5.705Y-2.645
X5.705Y-2.705
T2
X4.65Y-2.595
X4.65Y-2.65
X4.705Y-2.595
X4.705Y-2.65
X4.76Y-2.595
X4.82Y-2.595
X4.855Y-2.645
T3
X4.2516Y-2.0
X4.35Y-2.0
X4.4484Y-2.0
X4.768Y-2.0
X4.8664Y-2.0
X4.9648Y-2.0
X5.2844Y-2.0
X5.3828Y-2.0
X5.4812Y-2.0
X5.8008Y-2.0
X5.8008Y-3.42
X5.8992Y-2.0
X5.8992Y-3.42
T0
M30
